<svg width="20" height="20" viewBox="0 0 20 20" fill="none" xmlns="http://www.w3.org/2000/svg">
<path d="M7.2306 0C4.95786 0 3.11543 1.84257 3.11543 4.11549C3.11543 6.38842 4.95786 8.23099 7.2306 8.23099C9.50335 8.23099 11.3458 6.38842 11.3458 4.11549C11.3458 1.84257 9.50335 0 7.2306 0Z" fill="#3A4757"/>
<path d="M7.22099 8.97321C6.68331 8.97287 6.14557 9.03263 5.61792 9.1525C4.55724 9.39347 3.56475 9.8711 2.71464 10.5497C1.86454 11.2283 1.17881 12.0903 0.708735 13.0712C0.238909 14.0517 -0.00335194 15.1256 3.50303e-05 16.2127V18.2881C3.50303e-05 18.8404 0.447755 19.2882 1.00004 19.2882H8.61489C8.98429 19.2882 9.3236 19.0845 9.49736 18.7585C9.67112 18.4325 9.65102 18.0373 9.4451 17.7306C8.87243 16.8777 8.48301 15.5626 8.28259 14.097C8.08493 12.6516 8.0866 11.1767 8.21362 10.0893C8.24673 9.80593 8.15721 9.52187 7.96759 9.30866C7.77797 9.09544 7.50632 8.97339 7.22099 8.97321Z" fill="#3A4757"/>
<path d="M14.6097 8.19229C14.293 8.19229 13.9084 8.28882 13.5875 8.38577C13.2316 8.49332 12.8258 8.64221 12.4202 8.81533C11.6514 9.14353 10.721 9.627 10.1735 10.1745C10.0073 10.3408 9.87843 10.5407 9.79566 10.7608C9.71767 10.9682 9.68228 11.1891 9.69146 11.4103L9.69146 13.1998C9.69309 14.6421 10.1276 16.0507 10.9388 17.2432C11.75 18.4357 12.9005 19.3572 14.2413 19.8885C14.2507 19.8922 14.2602 19.8957 14.2696 19.8992C14.6415 20.0336 15.0486 20.0336 15.4204 19.8992C15.4299 19.8957 15.4393 19.8922 15.4487 19.8885C16.7895 19.3572 17.94 18.4357 18.7512 17.2432C19.5624 16.0507 19.9969 14.6421 19.9986 13.1998V11.4103C20.0078 11.1891 19.9724 10.9682 19.8944 10.7608C19.8116 10.5407 19.6828 10.3408 19.5165 10.1745C19.1936 9.85154 18.7551 9.58278 18.3385 9.36804C17.9061 9.14519 17.4257 8.94455 16.9657 8.77682C16.5046 8.60868 16.0481 8.46776 15.6581 8.3675C15.3031 8.27623 14.9057 8.19229 14.6097 8.19229Z" fill="#3A4757"/>
</svg>