<svg width="20" height="20" viewBox="0 0 20 20" fill="none" xmlns="http://www.w3.org/2000/svg">
<path fill-rule="evenodd" clip-rule="evenodd" d="M3.11527 4.1155C3.11527 1.84257 4.95769 0 7.23044 0C9.50319 0 11.3456 1.84257 11.3456 4.1155C11.3456 6.38843 9.50319 8.231 7.23044 8.231C4.95769 8.231 3.11527 6.38843 3.11527 4.1155ZM7.23044 2.00018C6.06227 2.00018 5.11529 2.94724 5.11529 4.1155C5.11529 5.28376 6.06227 6.23082 7.23044 6.23082C8.39861 6.23082 9.34559 5.28376 9.34559 4.1155C9.34559 2.94724 8.39861 2.00018 7.23044 2.00018Z" fill="#3A4757"/>
<path d="M5.61792 9.15248C6.14557 9.03261 6.68331 8.97285 7.22099 8.97319C7.77328 8.97353 8.22073 9.42157 8.22038 9.9739C8.22003 10.5262 7.77204 10.9737 7.21975 10.9734C6.83108 10.9731 6.44237 11.0163 6.06095 11.103C5.29424 11.2772 4.57681 11.6224 3.96231 12.1129C3.34781 12.6035 2.85213 13.2266 2.51233 13.9356C2.17253 14.6447 1.99741 15.4215 2.00005 16.2078L2.00006 16.2111L2.00005 17.288H8.61489C9.16718 17.288 9.6149 17.7357 9.6149 18.2881C9.6149 18.8404 9.16718 19.2882 8.61489 19.2882H1.00004C0.447755 19.2882 3.50303e-05 18.8404 3.50303e-05 18.2881V16.2127C-0.00335194 15.1256 0.238909 14.0516 0.708735 13.0712C1.17881 12.0903 1.86454 11.2283 2.71464 10.5497C3.56475 9.87108 4.55724 9.39345 5.61792 9.15248Z" fill="#3A4757"/>
<path fill-rule="evenodd" clip-rule="evenodd" d="M14.6097 8.19227C14.293 8.19227 13.9084 8.2888 13.5875 8.38575C13.2316 8.49329 12.8258 8.64219 12.4202 8.8153C11.6514 9.14351 10.721 9.62698 10.1735 10.1745C10.0073 10.3407 9.87843 10.5406 9.79566 10.7607C9.71767 10.9682 9.68228 11.1891 9.69146 11.4102L9.69146 13.1997C9.69309 14.6421 10.1276 16.0507 10.9388 17.2432C11.75 18.4357 12.9005 19.3572 14.2413 19.8885C14.2507 19.8922 14.2602 19.8957 14.2696 19.8992C14.6415 20.0336 15.0486 20.0336 15.4204 19.8992C15.4299 19.8957 15.4393 19.8922 15.4487 19.8885C16.7895 19.3572 17.94 18.4357 18.7512 17.2432C19.5624 16.0507 19.9969 14.6421 19.9986 13.1997L19.9986 11.4102C20.0078 11.1891 19.9724 10.9682 19.8944 10.7607C19.8116 10.5406 19.6828 10.3407 19.5165 10.1745C19.1936 9.85152 18.7551 9.58276 18.3385 9.36802C17.9061 9.14517 17.4257 8.94453 16.9657 8.7768C16.5046 8.60866 16.0481 8.46774 15.6581 8.36748C15.3031 8.27621 14.9057 8.19227 14.6097 8.19227ZM11.6915 13.198V11.4954C11.9909 11.2482 12.5526 10.9336 13.2054 10.6549C13.5534 10.5063 13.8899 10.3839 14.1659 10.3005C14.4456 10.2159 14.5846 10.1961 14.6066 10.1929L14.6088 10.1926L14.611 10.1928C14.6229 10.1939 14.6683 10.1981 14.757 10.2141C14.8626 10.2332 14.9988 10.2632 15.1602 10.3047C15.4826 10.3876 15.8766 10.5086 16.2806 10.6559C16.6856 10.8037 17.0846 10.9719 17.4222 11.146C17.6851 11.2814 17.8753 11.4025 17.9986 11.4987V13.1975C17.9974 14.2393 17.6835 15.2568 17.0976 16.1181C16.5386 16.9399 15.7566 17.5834 14.845 17.9741C13.9334 17.5834 13.1514 16.9399 12.5925 16.1181C12.0066 15.2569 11.6928 14.2396 11.6915 13.198Z" fill="#3A4757"/>
</svg>