<svg width="17" height="14" viewBox="0 0 17 14" fill="none" xmlns="http://www.w3.org/2000/svg">
<path fill-rule="evenodd" clip-rule="evenodd" d="M4.60993 0C5.00395 0 5.3287 0.300254 5.37308 0.687073L5.37825 0.777778V3.88889H5.93703C6.86124 3.88889 7.61775 4.62691 7.67919 5.56087L7.68321 5.68376V11.4274C7.68321 12.3455 7.01256 13.1026 6.14733 13.2093L6.14657 13.6111C6.14657 13.8259 5.97458 14 5.76241 14C5.57382 14 5.41697 13.8624 5.38444 13.681L5.37825 13.6111V13.2222H2.30496V13.6111C2.30496 13.8259 2.13297 14 1.9208 14C1.73221 14 1.57536 13.8624 1.54283 13.681L1.53664 13.6111L1.53665 13.2094C0.71227 13.1081 0.0643509 12.4164 0.00451361 11.5574L0 11.4274V5.68376C0 4.73378 0.718001 3.95618 1.62663 3.89303L1.74619 3.88889H2.30496V0.777778C2.30496 0.378905 2.60157 0.0501611 2.98368 0.00523265L3.07329 0H4.60993ZM5.89046 4.66667H1.79275C1.26025 4.66667 0.822651 5.0873 0.773011 5.62513L0.768321 5.72727V11.3838C0.768321 11.9351 1.1746 12.3882 1.69409 12.4396L1.79275 12.4444H5.89046C6.42296 12.4444 6.86056 12.0238 6.9102 11.486L6.91489 11.3838V5.72727C6.91489 5.14152 6.45624 4.66667 5.89046 4.66667ZM4.99409 7.77778C5.59315 7.77778 6.08545 8.24047 6.1413 8.83209L6.14657 8.94444V10.5C6.14657 11.1064 5.68951 11.6048 5.10508 11.6613L4.99409 11.6667H2.68913C2.09007 11.6667 1.59776 11.204 1.54192 10.6124L1.53664 10.5V8.94444C1.53664 8.33801 1.99371 7.83965 2.57813 7.78312L2.68913 7.77778H4.99409ZM13.0615 7.77778C13.5218 7.77778 13.9192 8.05104 14.1038 8.44608L16.5288 7.87339C16.6597 7.84487 16.7959 7.88593 16.89 7.98228C16.9824 8.0822 17.0199 8.2221 16.9898 8.35561L16.6748 9.5145L16.9591 10.8601C16.9849 10.9756 16.9572 11.0968 16.8839 11.1892C16.8106 11.2815 16.6997 11.335 16.5826 11.3345H16.6134C16.5753 11.3419 16.5362 11.3419 16.4981 11.3345L14.0472 10.5567C14.0027 10.543 13.9617 10.5213 13.9257 10.493C13.7152 10.7358 13.406 10.8889 13.0615 10.8889C12.7223 10.8889 12.4174 10.7406 12.2065 10.5046L12.1725 10.5178L9.72152 11.2956C9.68604 11.3162 9.64686 11.3294 9.60627 11.3345C9.48923 11.335 9.37833 11.2815 9.30504 11.1892C9.23174 11.0968 9.20404 10.9756 9.22979 10.8601L9.52175 9.5145L9.22979 8.2545C9.19985 8.12374 9.23863 7.9866 9.33238 7.89169C9.42614 7.79678 9.56162 7.75752 9.69078 7.78783L12.0701 8.34916C12.271 8.00704 12.6398 7.77778 13.0615 7.77778ZM4.99409 8.55556H2.68913C2.50053 8.55556 2.34368 8.69312 2.31115 8.87454L2.30496 8.94444V10.5C2.30496 10.6909 2.44086 10.8497 2.62007 10.8826L2.68913 10.8889H4.99409C5.18268 10.8889 5.33953 10.7513 5.37206 10.5699L5.37825 10.5V8.94444C5.37825 8.72967 5.20626 8.55556 4.99409 8.55556ZM16.0832 8.79894L14.2139 9.23844V9.72222C14.2139 9.74907 14.2131 9.77571 14.2113 9.8021C14.2352 9.80412 14.2604 9.80961 14.2853 9.81783L16.0909 10.4167L15.9065 9.63894C15.8912 9.57768 15.8912 9.51354 15.9065 9.45228L16.0832 8.79894ZM10.121 8.73672L10.2901 9.47561C10.3055 9.53158 10.3055 9.59075 10.2901 9.64672L10.1287 10.3778L11.9113 9.78522L11.909 9.72222V9.13267L10.121 8.73672ZM13.0615 8.55556C12.8729 8.55556 12.716 8.69312 12.6835 8.87454L12.6773 8.94444V9.72222C12.6773 9.937 12.8493 10.1111 13.0615 10.1111C13.2501 10.1111 13.4069 9.97354 13.4394 9.79213L13.4456 9.72222V8.94444C13.4456 8.72967 13.2736 8.55556 13.0615 8.55556ZM13.0615 0C13.4858 0 13.8298 0.348223 13.8298 0.777778C13.8298 0.806609 13.8282 0.835073 13.8252 0.863091C15.1463 1.16142 16.1348 2.21906 16.1348 3.5C16.1348 3.65083 16.121 3.79856 16.0947 3.94232C16.5626 4.08927 16.9031 4.53216 16.9031 5.05556C16.9031 5.66199 16.446 6.16035 15.8616 6.21688L15.7506 6.22222H10.3723C9.73584 6.22222 9.21986 5.69989 9.21986 5.05556C9.21986 4.53216 9.56032 4.08927 10.0293 3.94145C10.0019 3.79856 9.98818 3.65083 9.98818 3.5C9.98818 2.21906 10.9766 1.16142 12.2981 0.862431L12.2931 0.777778C12.2931 0.348223 12.6371 0 13.0615 0ZM15.7506 4.66667H10.3723C10.1602 4.66667 9.98818 4.84078 9.98818 5.05556C9.98818 5.24647 10.1241 5.40525 10.3033 5.43818L10.3723 5.44444H15.7506C15.9628 5.44444 16.1348 5.27033 16.1348 5.05556C16.1348 4.84078 15.9628 4.66667 15.7506 4.66667ZM13.0615 1.55556C11.7765 1.55556 10.7565 2.44056 10.7565 3.5C10.7565 3.63312 10.7726 3.76348 10.8033 3.88969H15.3196C15.3503 3.76348 15.3664 3.63312 15.3664 3.5C15.3664 2.44056 14.3465 1.55556 13.0615 1.55556ZM4.60993 0.777778H3.07329V3.88889H4.60993V0.777778Z" fill="#3A4757"/>
</svg>