<svg width="20" height="20" viewBox="0 0 20 20" fill="none" xmlns="http://www.w3.org/2000/svg">
<path fill-rule="evenodd" clip-rule="evenodd" d="M2.38462 2C2.28261 2 2.18478 2.04052 2.11265 2.11265C2.04052 2.18478 2 2.28261 2 2.38462V5.84615C2 6.39844 1.55228 6.84615 1 6.84615C0.447715 6.84615 0 6.39844 0 5.84615V2.38462C0 1.75218 0.251236 1.14564 0.698438 0.698438C1.14564 0.251236 1.75218 0 2.38462 0H5.84615C6.39844 0 6.84615 0.447715 6.84615 1C6.84615 1.55228 6.39844 2 5.84615 2H2.38462ZM13.1538 1C13.1538 0.447715 13.6016 0 14.1538 0H17.6154C18.2478 0 18.8544 0.251236 19.3016 0.698438C19.7488 1.14564 20 1.75217 20 2.38462V5.84615C20 6.39844 19.5523 6.84615 19 6.84615C18.4477 6.84615 18 6.39844 18 5.84615V2.38462C18 2.28261 17.9595 2.18478 17.8873 2.11265C17.8152 2.04052 17.7174 2 17.6154 2H14.1538C13.6016 2 13.1538 1.55228 13.1538 1ZM7.23577 4.15386C7.65444 4.15595 8.02748 4.41863 8.17056 4.8121L10.1453 10.2426L11.8748 6.78356C12.038 6.45711 12.3661 6.24551 12.7309 6.23151C13.0956 6.2175 13.4389 6.4033 13.6267 6.71627L15.4123 9.69231H18.3077C18.86 9.69231 19.3077 10.14 19.3077 10.6923C19.3077 11.2446 18.86 11.6923 18.3077 11.6923H14.8462C14.4949 11.6923 14.1694 11.508 13.9887 11.2068L12.849 9.30734L10.8944 13.2164C10.7157 13.5738 10.3415 13.7905 9.94259 13.7676C9.5437 13.7446 9.19675 13.4865 9.06021 13.111L7.21634 8.04033L6.09017 11.0434C5.94381 11.4337 5.57069 11.6923 5.15385 11.6923H1.69231C1.14002 11.6923 0.692308 11.2446 0.692308 10.6923C0.692308 10.14 1.14002 9.69231 1.69231 9.69231H4.46085L6.29444 4.80272C6.44145 4.41071 6.8171 4.15177 7.23577 4.15386ZM1 13.1538C1.55228 13.1538 2 13.6016 2 14.1538V17.6154C2 17.7174 2.04052 17.8152 2.11265 17.8873C2.18478 17.9595 2.28261 18 2.38462 18H5.84615C6.39844 18 6.84615 18.4477 6.84615 19C6.84615 19.5523 6.39844 20 5.84615 20H2.38462C1.75217 20 1.14564 19.7488 0.698438 19.3016C0.251236 18.8544 0 18.2478 0 17.6154V14.1538C0 13.6016 0.447715 13.1538 1 13.1538ZM19 13.1538C19.5523 13.1538 20 13.6016 20 14.1538V17.6154C20 18.2478 19.7488 18.8544 19.3016 19.3016C18.8544 19.7488 18.2478 20 17.6154 20H14.1538C13.6016 20 13.1538 19.5523 13.1538 19C13.1538 18.4477 13.6016 18 14.1538 18H17.6154C17.7174 18 17.8152 17.9595 17.8873 17.8873C17.9595 17.8152 18 17.7174 18 17.6154V14.1538C18 13.6016 18.4477 13.1538 19 13.1538Z" fill="#3A4757"/>
</svg>