<svg width="20" height="20" viewBox="0 0 20 20" fill="none" xmlns="http://www.w3.org/2000/svg">
<path d="M10.0715 5C10.6237 5 11.0715 5.44771 11.0715 6V9.07155H14.1432C14.6954 9.07155 15.1432 9.51927 15.1432 10.0716C15.1432 10.6238 14.6954 11.0716 14.1432 11.0716H11.0715V14.1432C11.0715 14.6954 10.6237 15.1432 10.0715 15.1432C9.51917 15.1432 9.07145 14.6954 9.07145 14.1432V11.0716H6C5.44771 11.0716 5 10.6238 5 10.0716C5 9.51927 5.44771 9.07155 6 9.07155H9.07145V6C9.07145 5.44771 9.51917 5 10.0715 5Z" fill="#3A4757"/>
<path fill-rule="evenodd" clip-rule="evenodd" d="M10 0C4.47715 0 0 4.47715 0 10C0 15.5228 4.47715 20 10 20C15.5228 20 20 15.5228 20 10C20 4.47715 15.5228 0 10 0ZM2 10C2 5.58172 5.58172 2 10 2C14.4183 2 18 5.58172 18 10C18 14.4183 14.4183 18 10 18C5.58172 18 2 14.4183 2 10Z" fill="#3A4757"/>
</svg>