<svg width="20" height="21" viewBox="0 0 20 21" fill="none" xmlns="http://www.w3.org/2000/svg">
<path d="M10.0715 5.19971C10.6237 5.19971 11.0715 5.64742 11.0715 6.19971V9.27126H14.1432C14.6954 9.27126 15.1432 9.71898 15.1432 10.2713C15.1432 10.8235 14.6954 11.2713 14.1432 11.2713H11.0715V14.3429C11.0715 14.8952 10.6237 15.3429 10.0715 15.3429C9.51917 15.3429 9.07145 14.8952 9.07145 14.3429V11.2713H6C5.44771 11.2713 5 10.8235 5 10.2713C5 9.71898 5.44771 9.27126 6 9.27126H9.07145V6.19971C9.07145 5.64742 9.51917 5.19971 10.0715 5.19971Z" fill="#3A4757"/>
<path fill-rule="evenodd" clip-rule="evenodd" d="M10 0.199707C4.47715 0.199707 0 4.67686 0 10.1997C0 15.7226 4.47715 20.1997 10 20.1997C15.5228 20.1997 20 15.7226 20 10.1997C20 4.67686 15.5228 0.199707 10 0.199707ZM2 10.1997C2 5.78143 5.58172 2.19971 10 2.19971C14.4183 2.19971 18 5.78143 18 10.1997C18 14.618 14.4183 18.1997 10 18.1997C5.58172 18.1997 2 14.618 2 10.1997Z" fill="#3A4757"/>
</svg>