<svg width="20" height="20" viewBox="0 0 20 20" fill="none" xmlns="http://www.w3.org/2000/svg">
<path fill-rule="evenodd" clip-rule="evenodd" d="M20 10C20 15.5228 15.5228 20 10 20C4.47715 20 0 15.5228 0 10C0 4.47715 4.47715 0 10 0C15.5228 0 20 4.47715 20 10ZM11 5.38461C11 4.83233 10.5523 4.38462 10 4.38462C9.44771 4.38462 9 4.83233 9 5.38461V9H5.38461C4.83233 9 4.38462 9.44771 4.38462 10C4.38462 10.5523 4.83233 11 5.38461 11H9V14.6154C9 15.1677 9.44771 15.6154 10 15.6154C10.5523 15.6154 11 15.1677 11 14.6154V11H14.6154C15.1677 11 15.6154 10.5523 15.6154 10C15.6154 9.44771 15.1677 9 14.6154 9H11V5.38461Z" fill="#3A4757"/>
</svg>