<svg width="20" height="21" viewBox="0 0 20 21" fill="none" xmlns="http://www.w3.org/2000/svg">
<path fill-rule="evenodd" clip-rule="evenodd" d="M20 10.1997C20 15.7226 15.5228 20.1997 10 20.1997C4.47715 20.1997 0 15.7226 0 10.1997C0 4.67686 4.47715 0.199707 10 0.199707C15.5228 0.199707 20 4.67686 20 10.1997ZM11 5.58432C11 5.03204 10.5523 4.58432 10 4.58432C9.44771 4.58432 9 5.03204 9 5.58432V9.19971H5.38461C4.83233 9.19971 4.38462 9.64742 4.38462 10.1997C4.38462 10.752 4.83233 11.1997 5.38461 11.1997H9V14.8151C9 15.3674 9.44771 15.8151 10 15.8151C10.5523 15.8151 11 15.3674 11 14.8151V11.1997H14.6154C15.1677 11.1997 15.6154 10.752 15.6154 10.1997C15.6154 9.64742 15.1677 9.19971 14.6154 9.19971H11V5.58432Z" fill="#3A4757"/>
</svg>