<svg width="20" height="19" viewBox="0 0 20 19" fill="none" xmlns="http://www.w3.org/2000/svg">
<path d="M4.49726 8.8899C4.07299 8.8899 3.64872 8.55443 3.64872 8.05123V5.36749H0.84854C0.42427 5.36749 0 4.94815 0 4.52882C0 4.10948 0.339416 3.69015 0.84854 3.69015H3.64872V0.83867C3.64872 0.419335 3.98814 0 4.49726 0C4.92153 0 5.3458 0.335468 5.3458 0.83867V3.69015H8.14599C8.57026 3.69015 8.99453 4.10948 8.99453 4.52882C8.99453 4.94815 8.65511 5.36749 8.14599 5.36749H5.3458V8.05123C5.3458 8.47057 5.00639 8.8899 4.49726 8.8899Z" fill="#3A4757"/>
<path fill-rule="evenodd" clip-rule="evenodd" d="M17.955 6.88549C18.4557 6.88549 19.0242 7.11193 19.3975 7.48094V7.48933C19.7539 7.83318 20 8.31961 20 8.91507V16.3038C20 16.807 19.7709 17.3689 19.3975 17.7379C19.0496 18.0901 18.5575 18.3333 17.955 18.3333H4.23412C3.73348 18.3333 3.16496 18.1069 2.7916 17.7379C2.43521 17.3856 2.18914 16.8992 2.18914 16.3038V8.57121C2.43521 9.70342 3.4874 10.3995 4.50565 10.3995C5.95666 10.3995 6.88157 9.2086 6.88157 8.05124V6.8771H8.15438C9.60538 6.8771 10.5303 5.68619 10.5303 4.52882C10.5303 4.50366 10.5218 4.44496 10.5218 4.44496H13.5256C13.7802 4.44496 14.0178 4.56237 14.1705 4.76365L15.8167 6.88549H17.955ZM7.40766 11.9259C7.40766 13.9639 9.09626 15.5322 11.0564 15.5322C13.0165 15.5322 14.7051 13.9639 14.7051 11.9259C14.7051 9.98857 13.1183 8.31961 11.0564 8.31961C9.09626 8.31961 7.40766 9.88793 7.40766 11.9259Z" fill="#3A4757"/>
</svg>