<svg width="20" height="20" viewBox="0 0 20 20" fill="none" xmlns="http://www.w3.org/2000/svg">
<path fill-rule="evenodd" clip-rule="evenodd" d="M10.0211 5.56872C10.0211 5.01644 10.4655 4.56872 11.0138 4.56872H13.1045C13.4137 4.56872 13.7052 4.71385 13.8931 4.96127L15.5627 7.16065H17.7208C18.2838 7.16065 18.9155 7.41634 19.3309 7.83471C19.7236 8.23035 20 8.78246 20 9.45662V17.3086C20 17.8758 19.7462 18.5122 19.3309 18.9305C18.9381 19.3262 18.39 19.6046 17.7208 19.6046H3.41789C2.8549 19.6046 2.22313 19.3489 1.80782 18.9305C1.41507 18.5349 1.13868 17.9828 1.13868 17.3086V11.1723C1.13868 10.62 1.58313 10.1723 2.13138 10.1723C2.67964 10.1723 3.12408 10.62 3.12408 11.1723V17.3086C3.12408 17.3624 3.13402 17.3973 3.14491 17.4224C3.15655 17.4492 3.17653 17.4809 3.21171 17.5163C3.21171 17.5163 3.22115 17.5251 3.2396 17.5369C3.25937 17.5497 3.28462 17.5632 3.31342 17.5751C3.34224 17.5871 3.36918 17.5952 3.39109 17.6C3.40913 17.604 3.41923 17.6046 3.41923 17.6046H17.7208C17.7741 17.6046 17.8088 17.5946 17.8337 17.5836C17.8603 17.5719 17.8918 17.5518 17.927 17.5163C17.927 17.5163 17.9356 17.5068 17.9474 17.4882C17.9601 17.4683 17.9735 17.4429 17.9853 17.4139C17.9972 17.3848 18.0053 17.3577 18.0101 17.3356C18.014 17.3175 18.0146 17.3073 18.0146 17.3073V9.45662C18.0146 9.40289 18.0047 9.36793 17.9938 9.34286C17.9821 9.31605 17.9622 9.28437 17.927 9.24892C17.927 9.24892 17.9176 9.2402 17.8991 9.2283C17.8793 9.21556 17.8541 9.2021 17.8253 9.19015C17.7964 9.17819 17.7695 9.17002 17.7476 9.16522C17.7299 9.16134 17.7195 9.16066 17.7195 9.16066L15.0721 9.16065C14.7629 9.16065 14.4714 9.01552 14.2835 8.7681L12.6139 6.56872H11.0138C10.4655 6.56872 10.0211 6.12101 10.0211 5.56872Z" fill="#3A4757"/>
<path fill-rule="evenodd" clip-rule="evenodd" d="M6.58731 12.6584C6.58731 10.4124 8.41057 8.68532 10.5314 8.68532C12.761 8.68532 14.4755 10.522 14.4755 12.6584C14.4755 14.9044 12.6522 16.6315 10.5314 16.6315C8.41057 16.6315 6.58731 14.9044 6.58731 12.6584ZM10.5314 10.6853C9.47381 10.6853 8.57271 11.5502 8.57271 12.6584C8.57271 13.7666 9.47381 14.6315 10.5314 14.6315C11.589 14.6315 12.4901 13.7666 12.4901 12.6584C12.4901 11.593 11.6315 10.6853 10.5314 10.6853Z" fill="#3A4757"/>
<path fill-rule="evenodd" clip-rule="evenodd" d="M3.55718 8C3.55718 8.5 3.9708 8.83333 4.38443 8.83333C4.88078 8.83333 5.21168 8.41667 5.21168 8V5.33333H7.94161C8.43796 5.33333 8.76886 4.91667 8.76886 4.5C8.76886 4.08333 8.35523 3.66667 7.94161 3.66667H5.21168V0.833333C5.21168 0.333333 4.79805 0 4.38443 0C3.88808 0 3.55718 0.416667 3.55718 0.833333V3.66667H0.827251C0.3309 3.66667 0 4.08334 0 4.5C0 4.91667 0.413625 5.33334 0.827251 5.33334H3.55718V8Z" fill="#3A4757"/>
</svg>