<svg width="20" height="20" viewBox="0 0 20 20" fill="none" xmlns="http://www.w3.org/2000/svg">
<path fill-rule="evenodd" clip-rule="evenodd" d="M5 0C2.23858 0 0 2.23858 0 5V15C0 17.7614 2.23858 20 5 20H15C17.7614 20 20 17.7614 20 15V5C20 2.23858 17.7614 0 15 0H5ZM10.8329 5.71431C10.8329 5.25408 10.4598 4.88098 9.99959 4.88098C9.53935 4.88098 9.16626 5.25408 9.16626 5.71431V9.16669H5.71411C5.25387 9.16669 4.88078 9.53979 4.88078 10C4.88078 10.4603 5.25387 10.8334 5.71411 10.8334H9.16626V14.2857C9.16626 14.746 9.53935 15.1191 9.99959 15.1191C10.4598 15.1191 10.8329 14.746 10.8329 14.2857V10.8334H14.2855C14.7458 10.8334 15.1189 10.4603 15.1189 10C15.1189 9.53979 14.7458 9.16669 14.2855 9.16669H10.8329V5.71431Z" fill="#3A4757"/>
</svg>