<svg width="20" height="20" viewBox="0 0 20 20" fill="none" xmlns="http://www.w3.org/2000/svg">
<path d="M9.99986 4.84133C10.5571 4.84133 11.0088 5.29306 11.0088 5.85029V8.99103H14.1498C14.707 8.99103 15.1588 9.44276 15.1588 10C15.1588 10.5572 14.707 11.009 14.1498 11.009H11.0088V14.1497C11.0088 14.7069 10.5571 15.1587 9.99986 15.1587C9.44263 15.1587 8.9909 14.7069 8.9909 14.1497V11.009H5.85038C5.29314 11.009 4.84141 10.5572 4.84141 10C4.84141 9.44276 5.29314 8.99103 5.85038 8.99103H8.9909V5.85029C8.9909 5.29306 9.44263 4.84133 9.99986 4.84133Z" fill="#3A4757"/>
<path fill-rule="evenodd" clip-rule="evenodd" d="M5.15867 0C2.30962 0 0 2.30962 0 5.15867V14.8413C0 17.6904 2.30962 20 5.15867 20H14.8413C17.6904 20 20 17.6904 20 14.8413V5.15867C20 2.30962 17.6904 0 14.8413 0H5.15867ZM2.01793 5.15867C2.01793 3.42409 3.42409 2.01793 5.15867 2.01793H14.8413C16.5759 2.01793 17.9821 3.42409 17.9821 5.15867V14.8413C17.9821 16.5759 16.5759 17.9821 14.8413 17.9821H5.15867C3.42409 17.9821 2.01793 16.5759 2.01793 14.8413V5.15867Z" fill="#3A4757"/>
</svg>