<svg width="20" height="20" viewBox="0 0 20 20" fill="none" xmlns="http://www.w3.org/2000/svg">
<path fill-rule="evenodd" clip-rule="evenodd" d="M8.74228e-07 10C8.74228e-07 4.47715 4.47715 -8.74228e-07 10 -8.74228e-07C15.5228 -8.74228e-07 20 4.47715 20 10C20 15.5229 15.5228 20 10 20C4.47715 20 8.74228e-07 15.5229 8.74228e-07 10ZM8.5083 14.121C8.5083 13.3178 9.15946 12.6666 9.96271 12.6666C10.766 12.6666 11.4171 13.3178 11.4171 14.121C11.4171 14.9243 10.766 15.5755 9.96271 15.5755C9.15946 15.5755 8.5083 14.9243 8.5083 14.121ZM8.90985 5.76567C8.90985 5.18415 9.38127 4.71273 9.96279 4.71273C10.5443 4.71273 11.0157 5.18415 11.0157 5.76567L11.0157 10.5833C11.0157 11.1648 10.5443 11.6363 9.96279 11.6363C9.38127 11.6363 8.90985 11.1648 8.90985 10.5833L8.90985 5.76567Z" fill="#3A4757"/>
</svg>