<svg width="20" height="20" viewBox="0 0 20 20" fill="none" xmlns="http://www.w3.org/2000/svg">
<path d="M10.0002 5.12945C9.4187 5.12945 8.94728 5.60087 8.94728 6.18239L8.94728 11C8.94728 11.5816 9.4187 12.053 10.0002 12.053C10.5817 12.053 11.0532 11.5816 11.0532 11L11.0532 6.18239C11.0532 5.60086 10.5817 5.12945 10.0002 5.12945Z" fill="#3A4757"/>
<path d="M10.0001 13.0833C9.1969 13.0833 8.54574 13.7345 8.54574 14.5378C8.54574 15.341 9.19689 15.9922 10.0001 15.9922C10.8034 15.9922 11.4546 15.341 11.4546 14.5378C11.4546 13.7345 10.8034 13.0833 10.0001 13.0833Z" fill="#3A4757"/>
<path fill-rule="evenodd" clip-rule="evenodd" d="M10 0C4.47715 -4.82823e-07 4.82823e-07 4.47715 0 10C-4.82823e-07 15.5229 4.47715 20 10 20C15.5228 20 20 15.5229 20 10C20 4.47716 15.5228 4.82823e-07 10 0ZM2.10588 10C2.10588 5.6402 5.6402 2.10588 10 2.10588C14.3598 2.10588 17.8941 5.6402 17.8941 10C17.8941 14.3598 14.3598 17.8941 10 17.8941C5.6402 17.8941 2.10588 14.3598 2.10588 10Z" fill="#3A4757"/>
</svg>