<svg width="20" height="20" viewBox="0 0 20 20" fill="none" xmlns="http://www.w3.org/2000/svg">
<path fill-rule="evenodd" clip-rule="evenodd" d="M9.29295 0.292893C9.68347 -0.097631 10.3166 -0.0976311 10.7072 0.292893L13.4764 3.06212C13.8669 3.45265 13.8669 4.08581 13.4764 4.47634C13.0859 4.86686 12.4527 4.86686 12.0622 4.47634L11.0001 3.41421V9.00001H16.5856L15.5235 7.93788C15.133 7.54736 15.133 6.91419 15.5235 6.52367C15.914 6.13314 16.5472 6.13314 16.9377 6.52367L19.7069 9.2929C20.0975 9.68342 20.0975 10.3166 19.7069 10.7071L16.9377 13.4763C16.5472 13.8669 15.914 13.8669 15.5235 13.4763C15.133 13.0858 15.133 12.4527 15.5235 12.0621L16.5856 11H11.0001V16.5858L12.0622 15.5237C12.4527 15.1331 13.0859 15.1331 13.4764 15.5237C13.8669 15.9142 13.8669 16.5474 13.4764 16.9379L10.7072 19.7071C10.3166 20.0976 9.68347 20.0976 9.29295 19.7071L6.52372 16.9379C6.13319 16.5474 6.13319 15.9142 6.52372 15.5237C6.91424 15.1331 7.54741 15.1331 7.93793 15.5237L9.00006 16.5858V11H3.41421L4.47634 12.0621C4.86686 12.4527 4.86686 13.0858 4.47634 13.4763C4.08581 13.8669 3.45265 13.8669 3.06212 13.4763L0.292893 10.7071C-0.0976311 10.3166 -0.097631 9.68342 0.292893 9.2929L3.06212 6.52367C3.45265 6.13314 4.08581 6.13314 4.47634 6.52367C4.86686 6.91419 4.86686 7.54736 4.47634 7.93788L3.41421 9.00001H9.00006V3.41421L7.93793 4.47634C7.54741 4.86686 6.91424 4.86686 6.52372 4.47634C6.13319 4.08581 6.13319 3.45265 6.52372 3.06212L9.29295 0.292893Z" fill="#3A4757"/>
</svg>