<svg width="20" height="20" viewBox="0 0 20 20" fill="none" xmlns="http://www.w3.org/2000/svg">
<path fill-rule="evenodd" clip-rule="evenodd" d="M17.6155 6.92307C18.1678 6.92307 18.6155 7.37079 18.6155 7.92307C18.6155 8.47536 18.1678 8.92307 17.6155 8.92307H12.0771C11.5248 8.92307 11.0771 8.47536 11.0771 7.92308L11.077 2.38462C11.077 1.83234 11.5247 1.38462 12.077 1.38461C12.6293 1.38461 13.077 1.83232 13.077 2.3846L13.0771 5.50889L18.2931 0.292893C18.6836 -0.0976312 19.3167 -0.0976312 19.7073 0.292894C20.0978 0.683418 20.0978 1.31658 19.7073 1.70711L14.4913 6.92307H17.6155Z" fill="#3A4757"/>
<path d="M0.292894 19.7073C-0.0976312 19.3168 -0.0976312 18.6836 0.292894 18.2931L5.50885 13.0772L2.38462 13.0772C1.83233 13.0772 1.38462 12.6295 1.38462 12.0772C1.38461 11.5249 1.83233 11.0772 2.38461 11.0772L7.92307 11.0771C8.18829 11.0771 8.44264 11.1825 8.63018 11.37C8.81772 11.5576 8.92307 11.8119 8.92307 12.0771L8.92307 17.6156C8.92307 18.1679 8.47536 18.6156 7.92307 18.6156C7.37079 18.6156 6.92307 18.1679 6.92307 17.6156L6.92308 14.4914L1.70711 19.7073C1.31658 20.0979 0.683417 20.0979 0.292894 19.7073Z" fill="#3A4757"/>
</svg>