<svg width="20" height="20" viewBox="0 0 20 20" fill="none" xmlns="http://www.w3.org/2000/svg">
<path fill-rule="evenodd" clip-rule="evenodd" d="M13.4616 2C12.9094 2 12.4616 1.55228 12.4616 1C12.4616 0.447715 12.9094 0 13.4616 0H19C19.5523 0 20 0.447709 20 0.999989L20.0001 6.53845C20.0001 7.09073 19.5524 7.53845 19.0001 7.53846C18.4478 7.53846 18.0001 7.09075 18.0001 6.53847L18.0001 3.41419L12.7841 8.63018C12.3936 9.02071 11.7604 9.02071 11.3699 8.63018C10.9793 8.23966 10.9793 7.60649 11.3699 7.21597L16.5858 2H13.4616ZM8.63018 11.3698C9.02071 11.7603 9.02071 12.3935 8.63018 12.784L3.41422 18L6.53846 18C7.09074 18 7.53846 18.4477 7.53846 19C7.53846 19.5523 7.09075 20 6.53846 20L1 20C0.734786 20 0.480431 19.8946 0.292894 19.7071C0.105357 19.5196 0 19.2652 0 19V13.4615C0 12.9092 0.447715 12.4615 1 12.4615C1.55228 12.4615 2 12.9092 2 13.4615V16.5858L7.21597 11.3698C7.60649 10.9793 8.23966 10.9793 8.63018 11.3698Z" fill="#3A4757"/>
</svg>