<svg width="13" height="20" viewBox="0 0 13 20" fill="none" xmlns="http://www.w3.org/2000/svg">
<path fill-rule="evenodd" clip-rule="evenodd" d="M1.31893 1.30675C2.16343 0.470053 3.30881 0 4.50311 0H7.99689C9.19119 0 10.3366 0.470053 11.1811 1.30675C12.0256 2.14346 12.5 3.27826 12.5 4.46154V16.2308C12.5 16.7831 12.0481 17.2308 11.4907 17.2308C10.9333 17.2308 10.4814 16.7831 10.4814 16.2308V4.46154C10.4814 3.8087 10.2196 3.1826 9.75368 2.72097C9.28775 2.25934 8.65582 2 7.99689 2H4.50311C3.84418 2 3.21225 2.25934 2.74632 2.72097C2.28039 3.1826 2.01863 3.8087 2.01863 4.46154V16.2308C2.01863 16.7 2.20677 17.15 2.54166 17.4818C2.87654 17.8136 3.33075 18 3.80435 18H5.20186C5.67546 18 6.12967 17.8136 6.46455 17.4818C6.79944 17.15 6.98758 16.7 6.98758 16.2308V5.84615C6.98758 5.74415 6.94668 5.64632 6.87388 5.57419C6.80107 5.50206 6.70234 5.46154 6.59938 5.46154H5.90062C5.79766 5.46154 5.69892 5.50206 5.62612 5.57419C5.55332 5.64632 5.51242 5.74415 5.51242 5.84615V13.4615C5.51242 14.0138 5.06054 14.4615 4.50311 14.4615C3.94568 14.4615 3.49379 14.0138 3.49379 13.4615V5.84615C3.49379 5.21371 3.74737 4.60718 4.19873 4.15998C4.6501 3.71277 5.26229 3.46154 5.90062 3.46154H6.59938C7.23771 3.46154 7.8499 3.71277 8.30127 4.15998C8.75263 4.60718 9.00621 5.21371 9.00621 5.84615V16.2308C9.00621 17.2304 8.6054 18.1891 7.89194 18.896C7.17849 19.6029 6.21084 20 5.20186 20H3.80435C2.79537 20 1.82772 19.6029 1.11427 18.896C0.400814 18.1891 0 17.2304 0 16.2308V4.46154C0 3.27826 0.474433 2.14346 1.31893 1.30675Z" fill="#3A4757"/>
</svg>