<svg width="15" height="15" viewBox="0 0 15 15" fill="none" xmlns="http://www.w3.org/2000/svg">
<path fill-rule="evenodd" clip-rule="evenodd" d="M7.2915 0.0736903C7.42618 -0.0245634 7.61031 -0.0245634 7.74575 0.0736903L10.6888 2.23377V1.81226C10.6888 1.60525 10.8585 1.43724 11.0693 1.43724H13.1343C13.3451 1.43724 13.5147 1.60525 13.5147 1.81226V4.3091L14.847 5.28789C15.0152 5.41164 15.0502 5.6464 14.9246 5.81291C14.8501 5.91191 14.7359 5.96366 14.6195 5.96366C14.5434 5.96366 14.4689 5.93816 14.4027 5.89241V14.25H14.6195C14.8303 14.25 15 14.418 15 14.625C15 14.832 14.8303 15 14.6195 15H0.38044C0.170437 15 0 14.832 0 14.625C0 14.418 0.170437 14.25 0.38044 14.25H0.598051V5.91116C0.43294 5.99966 0.226742 5.96441 0.111849 5.81291C-0.013696 5.6464 0.0213047 5.41164 0.189459 5.28789L7.2915 0.0736903ZM8.58728 9.50004H6.41345V14.25H8.58728V9.50004ZM13.6418 7.06245H1.35893V14.25H5.65257V9.12503C5.65257 8.91802 5.82225 8.75002 6.03301 8.75002H8.96772C9.17772 8.75002 9.34816 8.91802 9.34816 9.12503V14.25H13.6418V7.06245ZM12.5545 8.75002C12.7645 8.75002 12.9349 8.91802 12.9349 9.12503V12.2646C13.1092 12.2984 13.2431 12.4432 13.2431 12.6247C13.2431 12.8317 13.0727 12.9997 12.8627 12.9997H10.1813C9.97132 12.9997 9.80088 12.8317 9.80088 12.6247C9.80088 12.4432 9.9348 12.2984 10.109 12.2646V9.12503C10.109 8.91802 10.2787 8.75002 10.4895 8.75002H12.5545ZM4.58354 8.75002C4.79354 8.75002 4.96398 8.91802 4.96398 9.12503V12.2646C5.13822 12.2984 5.27213 12.4432 5.27213 12.6247C5.27213 12.8317 5.10169 12.9997 4.89169 12.9997H2.21035C1.99959 12.9997 1.82991 12.8317 1.82991 12.6247C1.82991 12.4432 1.96383 12.2984 2.13807 12.2646V9.12503C2.13807 8.91802 2.30775 8.75002 2.51851 8.75002H4.58354ZM12.1741 9.50004H10.8699V12.2496H12.1741V9.50004ZM4.2031 9.50004H2.89895V12.2496H4.2031V9.50004ZM7.51825 0.841719L1.35893 5.36514V6.31242H13.6418V5.33814L7.51825 0.841719ZM7.50029 2.47295C8.50922 2.47295 9.3302 3.28224 9.3302 4.27677V4.65179H5.67038V4.27677C5.67038 3.28224 6.49136 2.47295 7.50029 2.47295ZM7.50029 3.22298C7.04452 3.22298 6.65495 3.50574 6.50126 3.90176H8.49932C8.34563 3.50574 7.95606 3.22298 7.50029 3.22298ZM12.7539 2.18727H11.4497V2.79329L12.7539 3.75108V2.18727Z" fill="#3A4757"/>
</svg>