<svg width="12" height="14" viewBox="0 0 12 14" fill="none" xmlns="http://www.w3.org/2000/svg">
<path d="M12 9.74393C12 9.49191 11.8624 9.34183 11.6312 9.34183H9.89396C9.66284 9.34183 9.52521 9.49191 9.52261 9.7411V11.2957H7.80351C7.7282 10.8908 7.5594 10.5396 7.29712 10.2536C7.03484 9.96481 6.71283 9.78074 6.34408 9.70146V4.79126H6.56222C6.68167 4.79126 6.77256 4.75445 6.83748 4.68366C6.9024 4.61286 6.93616 4.50809 6.93616 4.37783V3.84264H7.01666C7.17507 3.84264 7.33088 3.84264 7.48409 3.84264C7.68924 3.84264 7.83207 3.68406 7.83467 3.46319C7.83467 3.3301 7.83467 3.19418 7.83467 3.06108V2.70712H9.52261V4.2589C9.52261 4.51092 9.66025 4.661 9.89137 4.661H11.6287C11.8598 4.661 11.9974 4.51092 11.9974 4.2589V0.39644C11.9974 0.152913 11.8572 0 11.6312 0H9.88617C9.66025 0 9.52261 0.152913 9.52261 0.399272V1.95388H7.83467V1.20914C7.83467 0.971278 7.69184 0.815534 7.47371 0.815534H4.5237C4.30037 0.815534 4.16274 0.965615 4.16274 1.20914V1.76982V1.95388H2.47479V0.407767C2.47479 0.150081 2.33975 0 2.10344 0H0.366155C0.140229 0 0 0.152913 0 0.39644V4.2589C0 4.51092 0.137633 4.661 0.368751 4.661H2.10604C2.33716 4.661 2.47479 4.51092 2.47479 4.2589V2.70712H4.16274V2.80623C4.16274 2.9818 4.16533 3.15736 4.16014 3.33293C4.15494 3.46319 4.16014 3.62743 4.26142 3.73503C4.36269 3.84264 4.51071 3.85113 4.63017 3.84264C4.75482 3.83697 4.88206 3.83697 5.00931 3.83981H5.05865V4.39199C5.05865 4.63552 5.19887 4.78843 5.4248 4.78843H5.65332V9.70146C5.28197 9.78358 4.96256 9.96764 4.70028 10.2536C4.4354 10.5396 4.26661 10.8908 4.1939 11.2957H2.47479V9.74393C2.47479 9.49191 2.33716 9.34183 2.10604 9.34183H0.376542C0.137633 9.34183 0 9.49191 0 9.75243V13.5979C0 13.8499 0.137633 14 0.368751 14H2.09825C2.34235 14 2.47739 13.8528 2.47739 13.5837V12.0461H4.19649C4.3601 12.9466 5.03527 13.6092 5.87665 13.6715C6.3285 13.7055 6.7388 13.5724 7.09976 13.2779C7.4763 12.9721 7.71262 12.5587 7.8061 12.0489H9.52521V13.6036C9.52521 13.8528 9.66284 14.0028 9.89396 14.0028H11.6235C11.8624 14.0028 12 13.8528 12 13.5922V9.74676V9.74393ZM11.317 10.0837V13.2524H10.2082V10.0837H11.317ZM7.1517 1.56028V3.09506H4.8457V1.56028H7.1517ZM6.0013 10.4066C6.30773 10.4066 6.59597 10.5396 6.81671 10.7803C7.03744 11.021 7.15689 11.3354 7.15689 11.6695C7.15689 12.0065 7.03484 12.3236 6.81671 12.5615C6.59857 12.7994 6.30513 12.9324 5.9987 12.9324C5.36248 12.9324 4.84311 12.3661 4.84311 11.6695C4.84311 11.3325 4.96516 11.0154 5.18329 10.7775C5.40403 10.5368 5.69487 10.4066 6.0013 10.4066ZM6.25319 3.84547V4.04652H5.74421V3.84547H6.25319ZM10.2056 3.91343V0.744741H11.3144V3.91343H10.2056ZM1.79182 0.747573V3.91626H0.682969V0.747573H1.79182ZM0.682969 13.2553V10.0866H1.79182V13.2553H0.682969Z" fill="#3A4757"/>
</svg>