<svg width="15" height="15" viewBox="0 0 15 15" fill="none" xmlns="http://www.w3.org/2000/svg">
<path fill-rule="evenodd" clip-rule="evenodd" d="M13.9776 0C14.256 0 14.5128 0.107935 14.7093 0.304451C15.051 0.669198 15.2058 1.33691 14.5195 2.02248L14.4934 2.05077C14.4748 2.07533 14.4458 2.11106 14.3996 2.13786C14.2373 2.28971 14.1182 2.48251 14.0743 2.67605C13.9686 3.07354 13.7446 3.45765 13.4408 3.76135C13.4334 3.7755 13.4215 3.79187 13.4066 3.80899C13.487 3.97648 13.5302 4.1715 13.5302 4.37546C13.5302 4.70001 13.4237 4.99777 13.222 5.2382C13.2614 5.33869 13.2838 5.44961 13.2838 5.54786C13.2838 5.75257 13.1982 5.95057 13.0426 6.10466L12.552 6.59595C12.5074 6.63987 12.4627 6.6756 12.4128 6.70612C12.5416 7.06789 12.45 7.47209 12.1731 7.74899L5.22939 14.7022C5.0098 14.898 4.75893 15 4.50137 15C4.23264 15 3.96094 14.8891 3.77335 14.7037L0.291804 11.2446C0.103471 11.057 0 10.8017 0 10.5263C0 10.2516 0.103471 9.99702 0.291804 9.80944L7.27351 2.83609C7.57424 2.56811 7.93751 2.47283 8.29408 2.58672C8.32683 2.53238 8.36405 2.48474 8.40871 2.43933L8.90076 1.94804C9.12036 1.70984 9.48437 1.65104 9.79553 1.8014C10.0352 1.60488 10.33 1.50067 10.6501 1.50067C10.8421 1.50067 11.0297 1.5431 11.1965 1.62275C11.2129 1.60414 11.2307 1.58627 11.2478 1.56915C11.5508 1.26693 11.9357 1.04288 12.3287 0.939408C12.5312 0.893256 12.7285 0.770433 12.887 0.594015L12.9882 0.493524C13.2979 0.173441 13.6403 0.00297752 13.9776 0ZM8.00153 3.26411C7.92262 3.26411 7.85712 3.2909 7.80203 3.34599L0.820326 10.3193C0.761519 10.3781 0.72951 10.4518 0.72951 10.5278C0.72951 10.6037 0.761519 10.6766 0.819582 10.734L4.28326 14.1938C4.39641 14.2958 4.5974 14.2958 4.70087 14.1931L11.6833 7.23984C11.7414 7.18103 11.7734 7.1066 11.7734 7.03141C11.7734 6.95549 11.7414 6.88179 11.6826 6.82224L8.20103 3.34599C8.15562 3.30058 8.06629 3.26411 8.00153 3.26411ZM4.49296 11.2833C4.63365 11.1404 4.85772 11.1404 5.00213 11.2833V11.2841L5.89168 12.1721C5.96017 12.2406 5.99813 12.3314 5.99813 12.4267C5.99813 12.5212 5.96017 12.612 5.89168 12.6813C5.82394 12.7468 5.72643 12.7884 5.63635 12.7884C5.55447 12.7884 5.4644 12.7527 5.39964 12.6976H5.39815L4.49222 11.7925C4.42299 11.7232 4.38502 11.6324 4.38502 11.5379C4.38502 11.4419 4.42299 11.3518 4.49296 11.2833ZM5.6464 10.1497C5.79007 10.006 6.01339 10.006 6.15632 10.1497H6.15706L7.02801 11.0392C7.09575 11.1077 7.13371 11.1978 7.13371 11.2923C7.13371 11.3876 7.09575 11.4784 7.02652 11.5469C6.95952 11.6131 6.86201 11.6548 6.77193 11.6548C6.68112 11.6548 6.5836 11.6131 6.51735 11.5469L5.64492 10.6574C5.57718 10.5896 5.53996 10.5003 5.53921 10.4058C5.53921 10.3105 5.57718 10.2189 5.6464 10.1497ZM6.78139 9.016C6.92431 8.87159 7.14763 8.87159 7.2913 9.016L8.18085 9.90405C8.32378 10.0462 8.32378 10.271 8.18085 10.4139C8.11311 10.4795 8.0156 10.5211 7.92627 10.5211C7.84513 10.5211 7.75506 10.4854 7.68955 10.4303H7.68806L6.78139 9.52516C6.63921 9.38298 6.63921 9.15818 6.78139 9.016ZM7.91734 7.86356C8.06026 7.72138 8.28433 7.72138 8.42725 7.86356L9.3168 8.75086C9.45898 8.89378 9.45898 9.11858 9.3168 9.26076C9.24832 9.32775 9.1508 9.36869 9.06073 9.36869C8.99225 9.36869 8.88431 9.33966 8.8054 9.26001L7.91734 8.37271C7.84811 8.30348 7.81014 8.21267 7.81014 8.11813C7.81014 8.02285 7.84811 7.93204 7.91734 7.86356ZM9.05173 6.72949C9.19093 6.59253 9.42541 6.59327 9.56238 6.72949L10.4519 7.61754C10.5941 7.76046 10.5941 7.98452 10.4519 8.12669C10.3849 8.1922 10.2852 8.23463 10.1966 8.23463C10.1281 8.23463 10.0194 8.2056 9.94053 8.12595L9.05173 7.2379C8.98324 7.16942 8.94528 7.07935 8.94528 6.98481C8.94528 6.88879 8.9825 6.79872 9.05173 6.72949ZM9.4397 2.43263C9.43152 2.43338 9.40174 2.44752 9.39057 2.45794L8.90076 2.94849C8.88662 2.96263 8.87843 2.9805 8.87992 2.99613C8.87992 3.00432 8.88215 3.00953 8.88587 3.01176L11.9654 6.10615C11.993 6.13295 12.0362 6.13071 12.0615 6.10615L12.552 5.61486C12.5773 5.58955 12.5773 5.57615 12.5773 5.56647C12.5773 5.56126 12.5773 5.54414 12.5528 5.51883L9.48735 2.4572C9.46278 2.43263 9.44938 2.43263 9.4397 2.43263ZM11.0774 2.41923C10.8816 2.22346 10.5712 2.17657 10.3441 2.29567L12.7158 4.69927C12.762 4.61367 12.7858 4.51839 12.7858 4.41343C12.7858 4.23999 12.7419 4.11568 12.6391 3.99881L12.6101 3.96531C12.4878 3.8343 11.9577 3.30149 11.5362 2.87896L11.3202 2.66251C11.2871 2.62928 11.2556 2.59774 11.2261 2.56825L11.0774 2.41923ZM14.1986 0.813607C13.9679 0.599226 13.6604 0.840405 13.4982 1.00194L13.4222 1.07786C13.158 1.36296 12.8409 1.55575 12.5066 1.63466C12.2453 1.69942 11.9893 1.84978 11.7652 2.07087L12.9406 3.24326C13.1609 3.01995 13.3128 2.76314 13.3768 2.50112C13.4557 2.16912 13.65 1.85127 13.9388 1.58404L14.0066 1.51705C14.1927 1.33021 14.2909 1.15974 14.2909 1.02129C14.2909 0.943874 14.2604 0.875391 14.1986 0.813607Z" fill="#3A4757"/>
</svg>