<svg width="14" height="20" viewBox="0 0 14 20" fill="none" xmlns="http://www.w3.org/2000/svg">
<path d="M13.0195 8.27317C12.8984 8.27317 12.6957 8.27317 12.6957 8.27317V6.56585C12.6957 5.92195 12.4541 5.31707 12.0097 4.84878C11.5749 4.39024 10.9662 4.13659 10.3478 4.13659C10.2609 4.13659 10.1836 4.10732 10.1256 4.03902C10.0676 3.98049 10.029 3.89268 10.029 3.80488V3.1122C10.029 2.29268 9.71981 1.50244 9.14976 0.907317C8.58937 0.331707 7.81642 0 7.01449 0C6.21256 0 5.45894 0.321951 4.87923 0.907317C4.30918 1.48293 4 2.26341 4 3.1122V3.80488C4 3.89268 3.97101 3.98049 3.90338 4.03902C3.84541 4.09756 3.75845 4.13659 3.68116 4.13659C3.05314 4.13659 2.46377 4.39024 2.01932 4.84878C1.58454 5.29756 1.33333 5.92195 1.33333 6.56585V8.27317H1.01449C0.454106 8.27317 0 8.74146 0 9.31707C0 9.89268 0.454106 10.361 1.01449 10.361H1.33333V17.5707C1.33333 18.2146 1.57488 18.8293 2.01932 19.2878C2.46377 19.7463 3.05314 20 3.68116 20H10.3188C10.9469 20 11.5362 19.7463 11.9807 19.2878C12.4155 18.839 12.6667 18.2146 12.6667 17.5707V10.3707H12.9855C13.5459 10.3707 14 9.90244 14 9.32683C14 8.80905 13.5654 8.27317 13.0195 8.27317ZM8.70531 5.52195C9.1401 5.98049 9.74879 6.23415 10.3672 6.23415C10.4251 6.23415 10.5121 6.25366 10.5894 6.33171C10.6473 6.39024 10.686 6.47805 10.686 6.56585V8.27317H3.40097V6.56585C3.40097 6.47805 3.42995 6.39024 3.48792 6.34146C3.54589 6.27317 3.62319 6.23415 3.71014 6.23415C4.33816 6.23415 4.92754 5.98049 5.37198 5.52195C5.80676 5.07317 6.05797 4.44878 6.05797 3.80488V3.1122C6.05797 2.83902 6.16425 2.57561 6.33816 2.39024C6.69565 2.01951 7.36232 2.01951 7.71981 2.39024C7.90338 2.57561 8 2.83902 8 3.1122V3.80488C8 4.44878 8.24155 5.06341 8.68599 5.52195H8.70531ZM3.40097 10.361H10.6667V12.4H7.70048C7.1401 12.4 6.68599 12.8683 6.68599 13.4439C6.68599 14.0195 7.1401 14.4878 7.70048 14.4878H10.6667V17.561C10.6667 17.6293 10.6473 17.7171 10.5797 17.7951L10.5217 17.8537C10.4734 17.8829 10.4155 17.9024 10.3575 17.9024H3.71981C3.66184 17.9024 3.57488 17.8829 3.49758 17.8049C3.43961 17.7463 3.40097 17.6585 3.40097 17.5707V10.361Z" fill="#3A4757"/>
</svg>