<svg width="15" height="15" viewBox="0 0 15 15" fill="none" xmlns="http://www.w3.org/2000/svg">
<path fill-rule="evenodd" clip-rule="evenodd" d="M0 8.85411C0 10.1932 1.06915 11.2788 2.38802 11.2788H4.50464V14.0867C3.47533 13.9831 2.44991 13.8249 1.43261 13.6121L0.453223 13.4072C0.249265 13.3645 0.049857 13.4978 0.00783265 13.7049C-0.0341917 13.912 0.0970815 14.1144 0.301039 14.1571L1.28042 14.362C5.5121 15.2473 9.88063 15.2109 14.0974 14.2552L14.536 14.1558C14.7393 14.1097 14.8673 13.9051 14.8219 13.6987C14.7765 13.4924 14.575 13.3624 14.3718 13.4085L13.9331 13.5079C12.9261 13.7361 11.9101 13.9106 10.8895 14.0313V11.2788H12.612C13.9308 11.2788 15 10.1932 15 8.85411V5.73437H8.42498V0.484931C8.42498 0.21711 8.21114 0 7.94737 0H6.02488C2.8241 0 0.20628 2.53426 0.0116125 5.73437H0V8.85411ZM10.1353 11.2788H5.25875V14.1528C6.88266 14.2741 8.51369 14.26 10.1353 14.1106V11.2788ZM7.67086 0.765681V5.73437H0.767398C0.96076 2.95748 3.24073 0.765681 6.02488 0.765681H7.67086ZM0.754112 6.50005V8.85411C0.754112 9.77034 1.48564 10.5131 2.38802 10.5131H12.612C13.5144 10.5131 14.2459 9.77034 14.2459 8.85411V6.50005H0.754112Z" fill="#3A4757"/>
</svg>