<svg width="14" height="16" viewBox="0 0 14 16" fill="none" xmlns="http://www.w3.org/2000/svg">
<path d="M10.9127 8.7201V3.8767C10.9127 1.73613 9.15923 0 6.99534 0C4.83145 0 3.07795 1.73613 3.07795 3.8767V8.7201H0.410393C0.186542 8.7201 0 8.91739 0 9.15413C0 9.39088 0.186542 9.58816 0.410393 9.58816H0.624917V15.635C0.624917 15.8422 0.77415 16 0.960693 16H13.0393C13.2258 16 13.3751 15.8323 13.3751 15.635V9.58816H13.5896C13.8135 9.58816 14 9.39088 14 9.15413C14 8.91739 13.8135 8.7201 13.5896 8.7201H10.9127ZM3.45103 9.5783H5.31646V15.2602H3.45103V9.5783ZM6.06262 9.5783H7.92805V15.2602H6.06262V9.5783ZM8.67422 9.5783H10.5396V15.2602H8.67422V9.5783ZM7.33111 8.7201V5.5635H10.2412V8.7201H7.33111ZM10.2412 4.83354H7.33111V0.720099C8.96336 0.887793 10.2412 2.22935 10.2412 3.8767V4.83354ZM6.65956 0.720099V4.83354H3.7495V3.8767C3.7495 2.22935 5.02731 0.887793 6.65956 0.720099ZM6.65956 5.5635V6.41184H6.08128C5.87608 6.41184 5.87608 6.65845 5.87608 6.77682C5.87608 6.89519 5.87608 7.1418 6.08128 7.1418H6.65956V8.7201H3.7495V5.5635H6.65956ZM2.70486 9.5783V15.2602H1.28714V9.5783H2.70486ZM11.2858 15.2602V9.5783H12.7035V15.2602H11.2858Z" fill="#3A4757"/>
</svg>