<svg width="20" height="20" viewBox="0 0 20 20" fill="none" xmlns="http://www.w3.org/2000/svg">
<path d="M19.9916 10C19.9916 7.33333 18.9536 4.81856 17.0633 2.92827C15.173 1.03797 12.6667 0 10 0C7.33333 0 4.81856 1.03797 2.92827 2.92827C2.58228 3.27426 2.27848 3.64557 1.99156 4.02532C1.98312 4.04219 1.95781 4.05907 1.94937 4.08439C0.691983 5.78903 0 7.83966 0 10C0 12.6667 1.03797 15.1814 2.92827 17.0717C4.81856 18.962 7.32489 20 10 20C12.481 20 14.8186 19.0886 16.6498 17.4515C16.6751 17.443 16.7089 17.4346 16.7342 17.4177C16.8945 17.3249 17.0127 17.1899 17.097 17.038C18.9705 15.1561 20 12.6582 20 10H19.9916ZM12.7257 12.7089C13.2743 13.4515 13.789 14.2194 14.2447 15.038L14.9283 16.2616C13.5612 17.3333 11.9325 17.8987 10.2785 17.9578C10.3291 17.443 10.4051 16.9283 10.5485 16.4304C10.9367 15.0295 11.6878 13.7468 12.7173 12.7173H12.7257V12.7089ZM16.0169 14.0422C15.5105 13.1392 14.9367 12.2869 14.3291 11.4599C14.9873 11.0633 15.6878 10.7511 16.4304 10.5401C16.9367 10.3966 17.4515 10.3122 17.9578 10.27C17.8987 11.8987 17.3586 13.4346 16.4051 14.7257L16.0253 14.0422H16.0169ZM17.7722 8.2616C17.1308 8.32067 16.4979 8.42194 15.8819 8.59072C14.8776 8.8692 13.9325 9.31645 13.0549 9.88186C12.1435 8.84388 11.1392 7.88186 10.0591 7.01266C10.6413 6.11814 11.1055 5.14768 11.4008 4.1097C11.5696 3.50211 11.6709 2.8692 11.73 2.21941C13.1646 2.53165 14.5232 3.24051 15.6371 4.35443C16.7257 5.44304 17.4515 6.79325 17.7806 8.2616H17.7722ZM3.47679 5.42616H3.51899C4.80169 5.95781 6.00844 6.62447 7.15612 7.38397C6.1519 8.35443 4.91139 9.07173 3.56962 9.44304C3.06329 9.5865 2.54852 9.66245 2.04219 9.71308C2.09283 8.1519 2.59072 6.6751 3.47679 5.42616ZM4.93671 3.8481C6.32911 2.70042 8.01688 2.10127 9.72152 2.04219C9.67088 2.55696 9.59494 3.07173 9.45992 3.56962C9.24051 4.36287 8.88608 5.12236 8.44726 5.81435C7.34177 5.06329 6.16878 4.40506 4.94515 3.8481H4.93671ZM2.21941 11.73C2.86076 11.6709 3.49367 11.5781 4.1097 11.4008C5.83966 10.9114 7.4346 9.98312 8.70886 8.70886C8.74262 8.67511 8.76793 8.63291 8.80169 8.59915C9.75527 9.36709 10.6413 10.211 11.4515 11.1308C11.3924 11.1814 11.3333 11.2321 11.2827 11.2827C10.0084 12.557 9.08017 14.1435 8.59072 15.8819C8.42194 16.4895 8.32067 17.1224 8.2616 17.7722C6.827 17.4599 5.46835 16.7511 4.35443 15.6371C3.26582 14.5485 2.54008 13.1983 2.21097 11.73H2.21941Z" fill="#3A4757"/>
</svg>