<svg width="20" height="20" viewBox="0 0 20 20" fill="none" xmlns="http://www.w3.org/2000/svg">
<path fill-rule="evenodd" clip-rule="evenodd" d="M2.8 17.1C2.9 17.1 2.9 17.1 2.8 17.1C3 17.2 3 17.2 3 17.2C4.8 19 7.3 20 10 20C15.5 20 20 15.5 20 10C20 7.3 18.9 4.8 17.2 3L17.1 2.9L17 2.8C15.2 1 12.7 0 10 0C4.5 0 0 4.5 0 10C0 12.8 1.1 15.3 2.8 17.1ZM2 10.1C2 5.7 5.6 2.1 10 2.1C11.8 2.1 13.6 2.7 14.9 3.8L3.7 15C2.6 13.6 2 11.9 2 10.1ZM16.3 5.2C17.4 6.6 18 8.3 18 10.1C18 14.5 14.4 18.1 10 18.1C8.2 18.1 6.4 17.5 5.1 16.4L16.3 5.2Z" fill="#3A4757"/>
</svg>