<svg width="20" height="21" viewBox="0 0 20 21" fill="none" xmlns="http://www.w3.org/2000/svg">
<path fill-rule="evenodd" clip-rule="evenodd" d="M2.8 17.2999C2.9 17.2999 2.9 17.2999 2.8 17.2999C3 17.4 3 17.4 3 17.4C4.8 19.1999 7.3 20.2 10 20.2C15.5 20.2 20 15.7 20 10.2C20 7.49995 18.9 4.99995 17.2 3.19995L17.1 3.09995L17 2.99995C15.2 1.19995 12.7 0.199951 10 0.199951C4.5 0.199951 0 4.69995 0 10.2C0 13 1.1 15.4999 2.8 17.2999ZM2 10.3C2 5.89995 5.6 2.29995 10 2.29995C11.8 2.29995 13.6 2.89995 14.9 3.99995L3.7 15.2C2.6 13.8 2 12.1 2 10.3ZM16.3 5.39995C17.4 6.79995 18 8.49995 18 10.3C18 14.7 14.4 18.2999 10 18.2999C8.2 18.2999 6.4 17.7 5.1 16.6L16.3 5.39995Z" fill="#3A4757"/>
</svg>