<svg width="17" height="11" viewBox="0 0 17 11" fill="none" xmlns="http://www.w3.org/2000/svg">
<path fill-rule="evenodd" clip-rule="evenodd" d="M16.6136 0C16.827 0 17 0.175888 17 0.392857C17 0.585718 16.8633 0.746121 16.6831 0.779385L16.6136 0.785714L15.3549 0.785645L13.1357 8.30736L13.136 10.6233L13.1349 10.6378V10.6229L13.1324 10.6636L13.1341 10.6433C13.1327 10.6629 13.1306 10.6765 13.1278 10.6898C13.1252 10.7018 13.1221 10.7139 13.1184 10.7258L13.1072 10.7572C13.1029 10.7679 13.0979 10.7786 13.0925 10.7892C13.0875 10.7989 13.0823 10.808 13.0767 10.8169C13.071 10.8262 13.0647 10.8355 13.0579 10.8445C13.0499 10.8552 13.0414 10.8655 13.0324 10.8753L13.0137 10.8943L12.9989 10.9076L12.9904 10.9144L13.0232 10.8849L12.9865 10.9167L12.9562 10.9395C12.9476 10.945 12.9386 10.9503 12.9294 10.9552C12.9187 10.9609 12.9081 10.9659 12.8973 10.9704C12.8876 10.9745 12.8773 10.9783 12.8668 10.9817C12.855 10.9855 12.8431 10.9887 12.8311 10.9913C12.8229 10.9931 12.8143 10.9947 12.8057 10.9959C12.7924 10.9979 12.7792 10.9991 12.7659 10.9997L12.75 11L12.6967 10.9953H12.6952L12.6687 10.9913C12.6569 10.9887 12.645 10.9855 12.6333 10.9817L12.6024 10.9703C12.5919 10.9659 12.5813 10.9609 12.5709 10.9554C12.5614 10.9503 12.5524 10.945 12.5437 10.9394C12.5393 10.9366 12.5348 10.9335 12.5303 10.9304L12.5165 10.9202C12.506 10.9121 12.4959 10.9034 12.4863 10.8943L10.2719 8.64286H5.79545L5.74066 8.63814L5.74761 8.63971L5.74242 8.63919L5.73988 8.63814H5.73911L5.73447 8.63736L5.69159 8.6285C5.68237 8.62584 5.67289 8.62277 5.66353 8.61932C5.65505 8.61623 5.64664 8.61277 5.63838 8.60903C5.62657 8.6037 5.61484 8.59767 5.60339 8.591C5.59556 8.58638 5.58789 8.58154 5.58041 8.57644C5.57081 8.56997 5.56128 8.56282 5.55204 8.55517C5.53033 8.53679 5.5134 8.51958 5.49814 8.50091L4.34659 7.13507L3.54394 7.95302C3.74599 8.26343 3.86364 8.6356 3.86364 9.03571C3.86364 10.1206 2.99873 11 1.93182 11C0.864904 11 0 10.1206 0 9.03571C0 7.95087 0.864904 7.07143 1.93182 7.07143C2.32532 7.07143 2.69134 7.19106 2.99662 7.3965L3.84277 6.53636L0.865749 3.00568C0.835246 2.96893 0.812529 2.92976 0.796899 2.88708C0.764881 2.79848 0.765071 2.70295 0.795601 2.61666C0.798716 2.60774 0.802205 2.59893 0.805992 2.59029C0.811256 2.57826 0.817203 2.5663 0.823777 2.55464C0.868387 2.47567 0.939254 2.41391 1.02428 2.38172C1.06779 2.36547 1.11182 2.35752 1.15579 2.35716L14.0853 2.35707L14.6981 0.27997L14.7013 0.269449L14.7076 0.251487L14.7121 0.240425L14.7147 0.233939L14.7128 0.238857L14.7297 0.203331C14.7356 0.192398 14.7422 0.181527 14.7493 0.171023C14.7542 0.163582 14.7592 0.156604 14.7645 0.149825C14.7727 0.139304 14.7817 0.128922 14.7911 0.119042C14.7977 0.112059 14.8043 0.105631 14.8112 0.0994589C14.8202 0.0912849 14.8299 0.0833 14.84 0.0757985C14.8478 0.070027 14.8558 0.064493 14.8641 0.0592761C14.8747 0.0525314 14.8854 0.0464375 14.8964 0.0408639C14.9048 0.0367249 14.9134 0.0327616 14.9222 0.0291206C14.9336 0.024256 14.9454 0.0200283 14.9574 0.0163793C14.9673 0.0134357 14.9772 0.0108488 14.9872 0.00866059C14.9908 0.00785887 14.9948 0.00706323 14.9987 0.00632947L15.0196 0.00301974C15.0317 0.00145795 15.0438 0.000472698 15.0561 8.46727e-05L16.6136 0ZM1.93182 7.85714C1.29167 7.85714 0.772727 8.38481 0.772727 9.03571C0.772727 9.68662 1.29167 10.2143 1.93182 10.2143C2.57197 10.2143 3.09091 9.68662 3.09091 9.03571C3.09091 8.85407 3.0505 8.68203 2.97832 8.52837L2.20502 9.31351C2.05413 9.46693 1.8095 9.46693 1.65862 9.31351C1.5245 9.17713 1.5096 8.96544 1.61391 8.81233L1.65862 8.75792L2.43078 7.97163C2.27966 7.89823 2.11046 7.85714 1.93182 7.85714ZM12.3629 8.64286H11.3646L12.3636 9.65878L12.3629 8.64286ZM13.8535 3.14279H1.99905L5.97318 7.85707H12.4625L13.8535 3.14279Z" fill="#3A4757"/>
</svg>