<svg width="15" height="14" viewBox="0 0 15 14" fill="none" xmlns="http://www.w3.org/2000/svg">
<path fill-rule="evenodd" clip-rule="evenodd" d="M13.887 8.43019H1.11375C0.9135 8.43019 0.75 8.26968 0.75 8.0731C0.75 7.87578 0.9135 7.71601 1.11375 7.71601H13.887C14.0873 7.71601 14.25 7.87578 14.25 8.0731C14.25 8.26968 14.0873 8.43019 13.887 8.43019ZM12.5265 11.6329C12.42 12.0121 12.0653 12.2779 11.664 12.2779H3.56175C3.02775 12.2779 2.55675 11.9245 2.415 11.4194L1.78425 9.16645H13.2165L12.5265 11.6329ZM11.0212 3.32643H8.9535C8.95875 2.77423 9.4185 2.32438 9.98175 2.32143H9.993C10.5555 2.32438 11.0153 2.77423 11.0212 3.32643ZM15 8.0731C15 7.52017 14.5785 7.06663 14.0355 6.99448V2.16608C14.0355 0.971865 13.0455 0 11.8282 0C10.8082 0 9.95475 0.686931 9.7035 1.61241C8.8635 1.74715 8.21175 2.45837 8.2035 3.3198C8.20125 3.51565 8.27925 3.70486 8.42025 3.84402C8.56125 3.98391 8.75325 4.06269 8.9535 4.06269H11.0212C11.2207 4.06269 11.4128 3.98391 11.5538 3.84402C11.6948 3.70486 11.7727 3.51565 11.7712 3.3198C11.763 2.52832 11.2118 1.86716 10.4708 1.65953C10.6807 1.12059 11.208 0.736261 11.8282 0.736261C12.6315 0.736261 13.2855 1.37754 13.2855 2.16608V6.97975H1.11375C0.4995 6.97975 0 7.4701 0 8.0731C0.00075 8.63855 0.4425 9.09945 1.0035 9.1554L1.692 11.6145C1.9185 12.4237 2.664 12.9884 3.51375 13.0097L3.2805 13.4669C3.1875 13.6488 3.26175 13.8704 3.44775 13.9617C3.501 13.9882 3.55875 14 3.615 14C3.75225 14 3.885 13.9264 3.95025 13.7975L4.3515 13.0141H10.9665L11.3678 13.7975C11.433 13.9264 11.5658 14 11.703 14C11.7592 14 11.817 13.9882 11.871 13.9617C12.0563 13.8704 12.1305 13.6488 12.0375 13.4669L11.8005 13.0024C12.4808 12.9464 13.0658 12.4826 13.2488 11.828L13.9972 9.1554C14.559 9.10018 15 8.63855 15 8.0731Z" fill="#3A4757"/>
</svg>