<svg width="14" height="16" viewBox="0 0 14 16" fill="none" xmlns="http://www.w3.org/2000/svg">
<path fill-rule="evenodd" clip-rule="evenodd" d="M8.57316 4.61737C8.87973 4.61737 9.12836 4.35909 9.12836 4.04061C9.12836 3.72213 8.87973 3.46385 8.57316 3.46385C8.2666 3.46385 8.01724 3.72213 8.01724 4.04061C8.01724 4.35909 8.2666 4.61737 8.57316 4.61737Z" fill="#3A4757"/>
<path fill-rule="evenodd" clip-rule="evenodd" d="M5.40819 4.61737C5.71476 4.61737 5.96339 4.35909 5.96339 4.04061C5.96339 3.72213 5.71476 3.46385 5.40819 3.46385C5.10163 3.46385 4.853 3.72213 4.853 4.04061C4.853 4.35909 5.10163 4.61737 5.40819 4.61737Z" fill="#3A4757"/>
<path fill-rule="evenodd" clip-rule="evenodd" d="M13.1681 10.7528C12.9693 11.2724 12.4325 11.5429 11.9235 11.4088C11.867 11.3836 11.8054 11.3714 11.7467 11.3509L11.3089 11.1703C11.3045 11.1512 11.2979 11.133 11.2935 11.1139C11.2451 10.8716 11.1827 10.6354 11.105 10.4069C11.1006 10.3931 11.0947 10.3794 11.0903 10.3665C11.0111 10.1394 10.9165 9.92229 10.8109 9.712C10.7984 9.68838 10.7874 9.66476 10.7749 9.64191C10.5505 9.21143 10.2704 8.82133 9.94252 8.48305C9.92565 8.46552 9.91245 8.44495 9.89631 8.42819C10.1369 8.34972 10.4002 8.35657 10.6422 8.45638L12.5975 9.26248C12.8593 9.36991 13.0647 9.57867 13.1776 9.84914C13.2905 10.1204 13.2957 10.4198 13.1681 10.7528ZM11.0456 15.1436C10.6341 15.1436 10.2623 14.9714 9.98872 14.6949C9.94692 14.653 9.91245 14.6065 9.87578 14.5608C9.84791 14.525 9.81637 14.4922 9.79144 14.4533C9.7665 14.416 9.74816 14.3741 9.72689 14.3352C9.69903 14.2834 9.66822 14.2339 9.64549 14.1798C9.63668 14.1585 9.63302 14.1349 9.62495 14.1128C9.56334 13.9413 9.52521 13.7577 9.52521 13.5642C9.52521 13.4575 9.53621 13.3531 9.55601 13.2518C9.65355 12.755 9.98066 12.3406 10.4148 12.1318C10.4222 12.128 10.4288 12.1227 10.4368 12.1196C10.4992 12.0907 10.5659 12.0716 10.6319 12.0518C10.6627 12.0427 10.6921 12.0297 10.7229 12.0229C10.7771 12.0107 10.8343 12.0076 10.8908 12.0015C10.9422 11.9962 10.9928 11.9855 11.0456 11.9855C11.1893 11.9855 11.3257 12.013 11.457 12.0518L11.5223 12.0785C11.5641 12.0952 11.6074 12.1029 11.6499 12.1173C12.1882 12.3604 12.5659 12.9166 12.5659 13.5642C12.5659 14.435 11.8839 15.1436 11.0456 15.1436ZM6.99787 15.2381C6.1141 15.2381 5.38436 15.1147 4.8211 14.8686C4.89224 14.7581 4.95164 14.64 5.00445 14.5181C5.02279 14.4754 5.03745 14.432 5.05286 14.3878C5.08513 14.2987 5.11226 14.2088 5.13426 14.1166C5.14453 14.0716 5.15553 14.0274 5.1636 13.9817C5.1878 13.8446 5.20467 13.7051 5.20467 13.5642C5.20467 13.4141 5.18854 13.2686 5.1614 13.1261C5.1504 13.0659 5.13133 13.0095 5.11593 12.9509C5.09539 12.8731 5.07486 12.7954 5.04699 12.7208C5.02059 12.6507 4.98832 12.5844 4.95531 12.5166C4.92817 12.461 4.90104 12.4053 4.8695 12.3528C4.8277 12.2819 4.78296 12.2156 4.73455 12.1501C4.70302 12.1074 4.67001 12.0655 4.63481 12.0244C4.58054 11.9604 4.5248 11.8987 4.46393 11.8415C4.42652 11.805 4.38545 11.773 4.34511 11.7394C4.28131 11.6869 4.21823 11.635 4.14929 11.5893C4.09942 11.5566 4.04661 11.5307 3.99454 11.5017C3.92853 11.4659 3.86473 11.4263 3.79505 11.3973C3.67771 11.347 3.55596 11.3082 3.43055 11.2792C3.45622 11.1497 3.48702 11.0217 3.52369 10.8952C3.55083 10.8 3.57283 10.701 3.6051 10.608C3.67551 10.4114 3.76205 10.2248 3.85593 10.0427C3.8838 9.98857 3.90506 9.9299 3.93513 9.8781C4.05688 9.66171 4.19696 9.46057 4.35025 9.27238C4.36345 9.25638 4.37298 9.23733 4.38692 9.22133C4.55707 9.01867 4.74482 8.83581 4.94798 8.67505C4.94944 8.67581 4.95164 8.67581 4.95384 8.67657C5.55084 8.85333 6.23072 8.9501 6.98246 8.9501C7.74301 8.9501 8.42875 8.85105 9.03015 8.67048C9.03382 8.66971 9.03822 8.66895 9.04189 8.66819C9.24578 8.82895 9.43426 9.0141 9.60588 9.21676C9.62935 9.24495 9.64695 9.27848 9.67042 9.30743C9.81197 9.48495 9.94545 9.67238 10.0599 9.87505C10.0914 9.93067 10.1141 9.99238 10.1435 10.0503C10.2351 10.2301 10.3217 10.4137 10.3899 10.6072C10.4236 10.701 10.4456 10.8 10.4735 10.8968C10.5094 11.0225 10.5402 11.1497 10.5659 11.2792C10.4405 11.3082 10.318 11.3478 10.2014 11.3973C10.1325 11.4263 10.0694 11.4651 10.0041 11.501C9.95132 11.5299 9.89705 11.5566 9.84644 11.5893C9.77823 11.635 9.71516 11.6869 9.65209 11.7387C9.61102 11.7722 9.56994 11.805 9.53181 11.8415C9.47167 11.8994 9.41593 11.9604 9.36239 12.0236C9.32718 12.0655 9.29345 12.1074 9.26118 12.1509C9.21351 12.2156 9.16803 12.2819 9.12696 12.3528C9.09543 12.4053 9.06829 12.4617 9.04115 12.5173C9.00815 12.5844 8.97588 12.6507 8.94948 12.7208C8.92087 12.7954 8.90107 12.8739 8.88054 12.9516C8.8644 13.0095 8.84533 13.0659 8.83433 13.1261C8.80793 13.2686 8.79179 13.4141 8.79179 13.5642C8.79179 13.7051 8.80866 13.8438 8.83213 13.981C8.84093 14.0274 8.85193 14.0724 8.8622 14.1181C8.8842 14.2095 8.91134 14.2979 8.94288 14.3855C8.95901 14.4305 8.97368 14.4754 8.99275 14.5196C9.04482 14.6408 9.10423 14.7581 9.17537 14.8686C8.61211 15.1147 7.88236 15.2381 6.99787 15.2381ZM1.43126 13.5642C1.43126 12.9166 1.80897 12.3604 2.3473 12.1173C2.3891 12.1029 2.4331 12.0952 2.47418 12.0785L2.53872 12.0518C2.67073 12.013 2.80788 11.9855 2.95089 11.9855C3.0037 11.9855 3.05284 11.9962 3.10418 12.0015C3.16138 12.0076 3.21932 12.0099 3.27433 12.0229C3.30367 12.0297 3.3308 12.0419 3.36014 12.051C3.42835 12.0709 3.49655 12.0899 3.56036 12.1196C3.56623 12.1227 3.57136 12.1265 3.57723 12.1295C4.01361 12.3375 4.34218 12.7535 4.44046 13.2518C4.46026 13.3531 4.47126 13.4575 4.47126 13.5642C4.47126 13.7684 4.43019 13.9619 4.36271 14.1417C4.35758 14.1539 4.35611 14.1669 4.35098 14.179C4.32678 14.2392 4.29304 14.2933 4.2615 14.3497C4.24317 14.384 4.22777 14.4198 4.2065 14.4526C4.17936 14.4937 4.14562 14.5295 4.11482 14.5684C4.08035 14.6103 4.04808 14.6552 4.00921 14.6941C3.73491 14.9714 3.36234 15.1436 2.95089 15.1436C2.1126 15.1436 1.43126 14.435 1.43126 13.5642ZM0.804929 10.691C0.700784 10.4198 0.705918 10.1204 0.818864 9.84914C0.931076 9.57867 1.1379 9.36991 1.39899 9.26248L3.35427 8.45638C3.48702 8.40229 3.6271 8.37486 3.76572 8.37486C3.87866 8.37486 3.99234 8.39314 4.10015 8.42819C4.08402 8.44495 4.07082 8.46552 4.05468 8.48229C3.72538 8.8221 3.44448 9.21295 3.21932 9.64495C3.20832 9.66629 3.19805 9.68762 3.18779 9.70819C3.08071 9.92076 2.98463 10.141 2.90469 10.3703C2.90029 10.3825 2.89589 10.3939 2.89149 10.4053C2.81301 10.6354 2.75067 10.8731 2.70227 11.1162C2.6986 11.1345 2.69127 11.152 2.6876 11.171L2.24902 11.3516C2.22408 11.36 2.19768 11.3661 2.17348 11.376C1.92045 11.4712 1.64542 11.4682 1.39386 11.3562C1.13276 11.2389 0.931809 11.0248 0.804929 10.691ZM3.01323 5.48648C3.01323 4.81752 3.25966 4.09752 3.68064 3.456C3.69531 3.43467 3.71144 3.41409 3.72611 3.392C3.85226 3.20609 3.99381 3.02781 4.14782 2.86019C4.16689 2.83962 4.18523 2.81981 4.2043 2.8C4.34878 2.64838 4.505 2.50819 4.67001 2.37714C4.70888 2.34591 4.74702 2.31314 4.78736 2.28343C4.8695 2.22324 4.95458 2.16533 5.04039 2.11124C5.15113 2.0419 5.26334 1.97638 5.37849 1.91924C5.86914 1.6701 6.41114 1.52076 6.98246 1.52076C7.55306 1.52076 8.09432 1.66933 8.5835 1.91695C8.70012 1.97486 8.81306 2.04114 8.92454 2.11048C9.01108 2.16533 9.09616 2.22324 9.17904 2.28419C9.21864 2.31314 9.25604 2.34514 9.29418 2.37486C9.45993 2.50667 9.61688 2.64838 9.7621 2.8C9.78043 2.81981 9.79877 2.83962 9.8171 2.85943C9.97259 3.02781 10.1134 3.20686 10.241 3.39352C10.255 3.41486 10.2704 3.43467 10.2843 3.456C10.7067 4.09752 10.9524 4.81752 10.9524 5.48648C10.9524 6.76343 10.109 7.51162 8.99788 7.88571C8.99642 7.88571 8.99495 7.88571 8.99422 7.88571C8.849 7.93524 8.69572 7.97867 8.53803 8.016C8.53583 8.01676 8.5329 8.01676 8.5307 8.01752C8.21533 8.09143 7.87796 8.14095 7.53252 8.1661L7.51346 8.16762C7.45845 8.17143 7.40418 8.17143 7.34917 8.17371V6.41829L7.87503 5.872C8.08698 5.65181 7.93664 5.27543 7.63667 5.27543H6.32899C6.02903 5.27543 5.87868 5.65181 6.09063 5.872L6.61576 6.41752V8.17448C6.56955 8.17219 6.52261 8.17295 6.47641 8.16914C6.46981 8.16914 6.46174 8.16838 6.45441 8.16762C6.10897 8.14324 5.77087 8.09524 5.45403 8.0221C5.4533 8.0221 5.45257 8.0221 5.45183 8.0221C5.29195 7.98476 5.13793 7.9421 4.99125 7.89257H4.98978C3.86839 7.52076 3.01323 6.77181 3.01323 5.48648ZM3.14672 2.90286C2.87389 2.6781 2.70887 2.33448 2.70887 1.9619C2.70887 1.30057 3.22666 0.761905 3.86326 0.761905C4.2703 0.761905 4.64214 0.98819 4.84897 1.33714C4.82623 1.3501 4.80496 1.36686 4.78223 1.38057C4.69495 1.43162 4.61134 1.488 4.52773 1.54514C4.2241 1.74933 3.94174 1.98857 3.68357 2.25752C3.66451 2.2781 3.64397 2.2979 3.6249 2.31848C3.53249 2.41829 3.44595 2.52114 3.36087 2.62781C3.34474 2.64838 3.32934 2.66819 3.31393 2.68876C3.25819 2.76038 3.19879 2.82819 3.14672 2.90286ZM9.1167 1.33714C9.32352 0.98819 9.69609 0.761905 10.1024 0.761905C10.739 0.761905 11.2575 1.30057 11.2575 1.9619C11.2575 2.33448 11.0918 2.6781 10.8189 2.90286C10.7676 2.82895 10.7082 2.76114 10.6532 2.68952C10.6363 2.66895 10.6202 2.64762 10.6033 2.62629C10.5197 2.52114 10.4339 2.41905 10.343 2.32076C10.321 2.29714 10.2975 2.27505 10.2748 2.25067C10.0203 1.98552 9.74083 1.74933 9.44086 1.54667C9.35652 1.48952 9.27218 1.43238 9.18344 1.38057C9.1607 1.36686 9.13943 1.3501 9.1167 1.33714ZM13.8509 9.54743C13.6602 9.08952 13.3111 8.73676 12.8681 8.55391L10.9121 7.74857C10.8615 7.72724 10.8072 7.72419 10.7551 7.70819C11.3529 7.13143 11.6858 6.37638 11.6858 5.48648C11.6858 4.84876 11.5069 4.1821 11.1937 3.55657C11.6858 3.19314 11.9909 2.60495 11.9909 1.9619C11.9909 0.88 11.1438 0 10.1024 0C9.40566 0 8.77419 0.409143 8.44782 1.02781C7.98871 0.857143 7.49732 0.758857 6.98246 0.758857C6.46834 0.758857 5.97696 0.857143 5.51784 1.02781C5.1922 0.409143 4.56074 0 3.86326 0C2.82255 0 1.97546 0.88 1.97546 1.9619C1.97546 2.60495 2.28056 3.19314 2.77194 3.55657C2.45877 4.1821 2.27982 4.84876 2.27982 5.48648C2.27982 6.37943 2.61499 7.13676 3.21639 7.71429C3.17239 7.72876 3.12691 7.73029 3.08364 7.74857L1.12836 8.55391C0.684649 8.73676 0.335545 9.08952 0.145591 9.54743C-0.0450966 10.0053 -0.0524308 10.5112 0.147058 11.0339C0.322343 11.4949 0.661913 11.8575 1.10269 12.0549C1.13936 12.0716 1.17677 12.0777 1.21417 12.0914C0.895872 12.4952 0.69785 13.0034 0.69785 13.5642C0.69785 14.8549 1.70849 15.9055 2.95089 15.9055C3.45402 15.9055 3.91387 15.7272 4.28937 15.437C4.98538 15.808 5.86768 16 6.99787 16C8.12806 16 9.01035 15.808 9.70709 15.437C10.0819 15.7272 10.5424 15.9055 11.0456 15.9055C12.288 15.9055 13.2993 14.8549 13.2993 13.5642C13.2993 13.0011 13.0991 12.4907 12.7786 12.0861C13.2524 11.9063 13.6617 11.5253 13.8736 10.9722C14.0496 10.5112 14.0416 10.0053 13.8509 9.54743Z" fill="#3A4757"/>
</svg>