<svg width="17" height="12" viewBox="0 0 17 12" fill="none" xmlns="http://www.w3.org/2000/svg">
<path fill-rule="evenodd" clip-rule="evenodd" d="M15.0454 0C15.2714 0 15.4545 0.167893 15.4545 0.375L15.4551 5.28166C16.3446 5.44812 17.0019 6.19107 17 7.06731V11.625C17 11.8321 16.8188 12 16.5952 12H15.1337C14.9102 12 14.7289 11.8321 14.7289 11.625L14.7285 9.8865H2.27073L2.27108 11.625C2.27108 11.8091 2.12789 11.9622 1.93907 11.994L1.86631 12H0.404775C0.181232 12 7.56637e-06 11.8321 7.56637e-06 11.625V7.06833C-0.00254814 6.19938 0.642587 5.4605 1.54538 5.28435L1.54546 0.375C1.54546 0.167893 1.72862 0 1.95455 0H15.0454ZM16.1902 7.5H0.809045L0.808734 11.25H1.46121L1.46155 9.51202C1.46155 9.32792 1.60474 9.17481 1.79356 9.14306L1.86631 9.13702H15.1337C15.3572 9.13702 15.5385 9.30491 15.5385 9.51202L15.538 11.25H16.1897L16.1902 7.5ZM1.93798 5.9997L1.83693 5.99888C1.37194 6.03219 0.989409 6.33874 0.858222 6.75023L16.1417 6.75031C16.0195 6.36815 15.68 6.07667 15.2598 6.01089L15.1656 6H1.95455C1.949 6 1.94348 5.9999 1.93798 5.9997ZM14.6818 0.75H2.31819V5.25L3.3059 5.25081C3.16918 5.03 3.09091 4.77355 3.09091 4.5C3.09091 3.67157 3.80873 3 4.6942 3H6.12398C7.00945 3 7.72727 3.67157 7.72727 4.5C7.72727 4.77355 7.649 5.03 7.51228 5.25081H9.48771C9.35099 5.03 9.27272 4.77355 9.27272 4.5C9.27272 3.67157 9.99054 3 10.876 3H12.3058C13.1913 3 13.9091 3.67157 13.9091 4.5C13.9091 4.77355 13.8308 5.03 13.6941 5.25081L14.6818 5.25V0.75ZM6.12398 3.64935H4.6942C4.19205 3.64935 3.78498 4.0302 3.78498 4.5C3.78498 4.82538 3.98025 5.10809 4.26713 5.25116H6.55106C6.83794 5.10809 7.0332 4.82538 7.0332 4.5C7.0332 4.0302 6.62613 3.64935 6.12398 3.64935ZM12.3058 3.64935H10.876C10.3739 3.64935 9.96679 4.0302 9.96679 4.5C9.96679 4.82538 10.1621 5.10809 10.4489 5.25116H12.7329C13.0197 5.10809 13.215 4.82538 13.215 4.5C13.215 4.0302 12.8079 3.64935 12.3058 3.64935Z" fill="#3A4757"/>
</svg>