<svg width="20" height="13" viewBox="0 0 20 13" fill="none" xmlns="http://www.w3.org/2000/svg">
<path d="M0.946429 0C0.684714 0 0.452757 0.085061 0.27008 0.260971C0.0877848 0.436515 0 0.659706 0 0.911376V12.0886C0 12.3403 0.0877679 12.5635 0.269665 12.7395L0.270497 12.7403C0.453252 12.9155 0.685078 13 0.946429 13C1.20778 13 1.4396 12.9155 1.62236 12.7403L1.62319 12.7395C1.80509 12.5635 1.89286 12.3403 1.89286 12.0886V10.3175H18.1071V12.0886C18.1071 12.3403 18.1949 12.5635 18.3768 12.7395L18.3776 12.7403C18.5604 12.9155 18.7922 13 19.0536 13C19.3149 13 19.5467 12.9155 19.7295 12.7403L19.7303 12.7395C19.9122 12.5635 20 12.3403 20 12.0886V5.15873C20 4.23053 19.6564 3.43159 18.975 2.77541C18.2936 2.11922 17.4639 1.78836 16.5 1.78836H10.6964C10.244 1.78836 9.85143 1.94377 9.53351 2.25052C9.21496 2.55667 9.05357 2.93467 9.05357 3.37037V8.49471H1.89286V0.911376C1.89286 0.659706 1.80507 0.436516 1.62278 0.260972C1.4401 0.085061 1.20814 0 0.946429 0Z" fill="#3A4757"/>
<path d="M5.35714 2.63783C4.62764 2.63783 4.00249 2.88164 3.49779 3.36825C2.99247 3.85425 2.73929 4.45625 2.73929 5.15873C2.73929 5.86127 2.99251 6.4633 3.49791 6.94933C4.00259 7.43586 4.6277 7.67963 5.35714 7.67963C6.08665 7.67963 6.7118 7.43582 7.21649 6.94921C7.72182 6.46321 7.975 5.86121 7.975 5.15873C7.975 4.45628 7.72184 3.85431 7.21657 3.36832C6.71186 2.88166 6.08668 2.63783 5.35714 2.63783Z" fill="#3A4757"/>
</svg>