<svg width="20" height="14" viewBox="0 0 20 14" fill="none" xmlns="http://www.w3.org/2000/svg">
<path d="M20 7.1508L19.9608 7.01459H19.9412C19.8333 6.5476 19.5686 6.12926 19.1863 5.8082C19.7059 5.17582 19.9902 4.38777 19.9902 3.57054C19.9902 1.60528 18.3725 0 16.3824 0H7.28431C5.92157 0 4.80392 0.992356 4.78431 2.21821C4.66667 2.23767 4.53922 2.25712 4.41176 2.27658L4.26471 2.29604C3.96078 1.89715 3.51961 1.58582 3.02941 1.43016C2.40196 1.22585 1.7549 1.29395 1.19608 1.61501C0.676471 1.90688 0.303922 2.40306 0.137255 2.9868C-0.0294118 3.60945 0.0588235 4.29048 0.392157 4.86449C0.411765 4.90341 0.441176 4.94232 0.470588 4.98124C0.166667 5.78874 0 6.713 0 7.65671C0 8.60042 0.166667 9.52467 0.470588 10.3322C0.470588 10.3322 0.470588 10.3516 0.460784 10.3516L0.401961 10.4392C0.0784314 10.9937 -0.0294118 11.6261 0.107843 12.2293C0.245098 12.8617 0.627451 13.3871 1.18627 13.7081C1.52941 13.9027 1.90196 14 2.30392 14H2.39216V13.9903C2.61765 13.9903 2.82353 13.9514 3.01961 13.8833C3.5 13.7373 3.93137 13.4454 4.2549 13.0174C6.38235 13.3676 8.53922 13.3676 10.6667 13.0174C10.9902 13.4357 11.4216 13.7373 11.9118 13.893C12.5392 14.0778 13.1765 14.0097 13.7353 13.6984C14.2549 13.3871 14.6275 12.9104 14.7843 12.3363H17.4804C18.8627 12.3363 19.9902 11.3245 19.9902 10.0695C19.9902 9.59277 19.8333 9.14524 19.5294 8.76581C19.8333 8.38638 19.9902 7.93885 19.9902 7.46213V7.13134L20 7.1508ZM16.3824 5.205H14.5294C14.5 5.12717 14.4706 5.05907 14.4412 4.98124L14.5098 4.87422C14.5784 4.75747 14.6373 4.64072 14.6863 4.51425H16.549C17.0784 4.51425 17.5196 4.08617 17.5196 3.56081C17.5196 3.03544 17.098 2.59764 16.549 2.59764H14.6471C14.5196 2.33495 14.3529 2.10146 14.1471 1.90688H16.3922C17.3137 1.90688 18.0686 2.64628 18.0686 3.56081C18.0686 4.47533 17.3137 5.21473 16.3922 5.21473L16.3824 5.205ZM2.04902 11.3829C2.07843 11.3245 2.13725 11.2662 2.18627 11.2175C2.54902 10.9354 2.64706 10.4197 2.43137 10.0306C2.08824 9.38846 1.90196 8.54204 1.90196 7.63725C1.90196 6.73245 2.08824 5.89576 2.43137 5.24392C2.63725 4.84503 2.53922 4.34885 2.17647 4.06671C2.11765 4.0278 2.06863 3.96942 2.03922 3.90132C1.96078 3.76511 1.93137 3.61918 1.96078 3.48297C1.98039 3.38568 2.02941 3.29812 2.10784 3.25921C2.19608 3.21056 2.28431 3.20083 2.39216 3.23975C2.52941 3.27867 2.64706 3.37596 2.72549 3.52189C2.7451 3.55108 2.7549 3.58026 2.78431 3.63864C2.93137 4.0959 3.40196 4.36831 3.89216 4.29048C4.64706 4.13482 5.39216 4.03753 6.10784 3.99861C7.7451 3.88186 9.37255 3.97915 10.951 4.29048C11.4216 4.38777 11.902 4.10563 12.0588 3.6581C12.0784 3.60945 12.1078 3.56081 12.1275 3.51216C12.2059 3.37596 12.3333 3.26894 12.4608 3.23975C12.549 3.22029 12.6471 3.21056 12.7451 3.26894C12.8235 3.30785 12.8725 3.38568 12.902 3.50243V3.63864C12.902 3.74566 12.8725 3.82349 12.8235 3.91105C12.7941 3.96942 12.7451 4.0278 12.6863 4.07644C12.3235 4.36831 12.2255 4.86449 12.4412 5.26338C12.7843 5.90549 12.9706 6.75191 12.9706 7.65671C12.9706 8.5615 12.7843 9.40792 12.4412 10.05C12.2353 10.4587 12.3333 10.9646 12.6961 11.237C12.7549 11.2759 12.8039 11.3343 12.8333 11.4024C12.8529 11.4413 12.8725 11.4899 12.902 11.558V11.5872C12.9216 11.665 12.9216 11.7429 12.902 11.8207V11.8888C12.8627 11.9569 12.8235 12.0153 12.7451 12.0542C12.6863 12.0931 12.5882 12.1028 12.4804 12.0639C12.3627 12.0347 12.2451 11.9277 12.1569 11.7818C12.1275 11.7429 12.1176 11.7137 12.098 11.665C11.9706 11.2856 11.6176 11.0229 11.2255 11.0035H11.1569C11.1569 11.0035 11.098 11.0035 11.0686 11.0035C11.049 11.0035 11.0294 11.0035 10.9804 11.0035C8.63725 11.4607 6.26471 11.4607 3.91176 11.0035C3.44118 10.9256 2.96078 11.1981 2.80392 11.6456C2.79412 11.6845 2.77451 11.7234 2.7451 11.7721C2.66667 11.9083 2.54902 12.0056 2.41176 12.0445C2.31373 12.0737 2.21569 12.0639 2.13725 12.025C2.05882 11.9764 2.0098 11.8985 1.98039 11.7915C1.95098 11.665 1.98039 11.5191 2.05882 11.3732L2.04902 11.3829ZM7.45098 2.03336C7.2451 2.03336 7.04902 2.03336 6.85294 2.03336C6.96078 1.95552 7.10784 1.90688 7.28431 1.90688H11.0196C10.8922 2.02363 10.7647 2.14038 10.6667 2.28631C9.61765 2.12092 8.54902 2.03336 7.46078 2.03336H7.45098ZM17.4804 7.81237H14.9118V7.64698C14.9118 7.47186 14.9118 7.29673 14.8922 7.12161H17.4804C17.8039 7.12161 18.049 7.30646 18.049 7.47186C18.049 7.63725 17.9153 7.81237 17.6016 7.81237H17.4804ZM14.6569 9.72898H17.5C17.6863 9.72898 17.8725 9.79708 17.9706 9.89437C18.0098 9.94302 18.0588 10.0111 18.0588 10.0792C18.0588 10.2349 17.8039 10.4295 17.4902 10.4295H14.5294C14.5294 10.4295 14.4902 10.3614 14.4608 10.3322C14.5196 10.1571 14.5882 9.96247 14.6569 9.73871V9.72898Z" fill="#3A4757"/>
</svg>