<svg width="17" height="21" viewBox="0 0 17 21" fill="none" xmlns="http://www.w3.org/2000/svg">
<path fill-rule="evenodd" clip-rule="evenodd" d="M10.4359 2.22578C11.4871 2.5608 12.4535 3.14528 13.2472 3.94226C14.5496 5.25001 15.2805 7.02273 15.2805 8.87021C15.2805 11.6731 15.7548 13.2202 16.244 14.1186C16.6359 14.8383 16.826 15.7194 16.502 16.5102C16.1417 17.3896 15.2959 17.815 14.3492 17.815H11.4143L11.4131 17.8198C11.2356 18.5013 10.8368 19.1048 10.2793 19.5355C9.72184 19.9663 9.03713 20.2 8.3325 20.2C7.62787 20.2 6.94315 19.9663 6.38567 19.5355C5.82818 19.1048 5.42942 18.5013 5.25189 17.8198L5.25067 17.815H2.31546C1.36991 17.815 0.523628 17.3911 0.163759 16.5109C-0.159483 15.7203 0.0319842 14.8401 0.42314 14.1216C0.911523 13.2244 1.38518 11.6772 1.38518 8.87021C1.38518 7.02273 2.11606 5.25001 3.41849 3.94226C4.21216 3.14534 5.17849 2.56089 6.22958 2.22586C6.27047 1.10006 7.19644 0.199951 8.33273 0.199951C9.46899 0.199951 10.3949 1.10002 10.4359 2.22578Z" fill="#3A4757"/>
</svg>