<svg width="17" height="21" viewBox="0 0 17 21" fill="none" xmlns="http://www.w3.org/2000/svg">
<path fill-rule="evenodd" clip-rule="evenodd" d="M3.62155 2.65064C3.43924 1.53357 4.17843 0.464778 5.30416 0.241294C6.42996 0.0177987 7.5256 0.722435 7.78897 1.8235C8.89662 1.94685 9.96966 2.33254 10.9137 2.96148C12.463 3.99364 13.5381 5.59628 13.9039 7.41632C14.4588 10.1776 15.235 11.6084 15.8975 12.3972C16.4283 13.0292 16.7911 13.8598 16.6267 14.7025C16.4439 15.6398 15.6902 16.2253 14.7522 16.4115L9.70316 17.4138C9.66596 17.8239 9.56228 18.307 9.27399 18.7472C9.0785 19.0457 8.83285 19.3117 8.54547 19.5325C7.98222 19.9652 7.29044 20.2 6.57853 20.2C5.86663 20.2 5.17485 19.9652 4.6116 19.5325C4.27422 19.2733 3.99438 18.9518 3.78567 18.5886L2.82968 18.7783C1.89288 18.9643 0.970486 18.7131 0.439679 17.9168C-0.037105 17.2015 -0.0216814 16.2967 0.223601 15.5119C0.529852 14.5321 0.692802 12.9147 0.137045 10.1493C-0.22873 8.32931 0.144415 6.43916 1.17588 4.89466C1.80452 3.95335 2.64635 3.18744 3.62155 2.65064ZM6.04004 3.90436C7.33329 3.64762 8.67757 3.91409 9.77719 4.64667C10.877 5.37937 11.6419 6.5184 11.9022 7.8137C12.4997 10.7865 13.3819 12.5679 14.3305 13.6973C14.6341 14.0587 14.6287 14.2861 14.6228 14.3164L14.6193 14.3199C14.6047 14.3327 14.535 14.3857 14.3523 14.422L2.42985 16.7889C2.24675 16.8252 2.16208 16.8029 2.1441 16.7967L2.14096 16.7957C2.12354 16.7685 2.03317 16.561 2.17294 16.1138C2.61183 14.7096 2.73677 12.7277 2.13873 9.75197C1.87841 8.45667 2.14436 7.113 2.87657 6.0166C3.60866 4.92038 4.74679 4.1611 6.04004 3.90436Z" fill="#3A4757"/>
</svg>