<svg width="17" height="20" viewBox="0 0 17 20" fill="none" xmlns="http://www.w3.org/2000/svg">
<path fill-rule="evenodd" clip-rule="evenodd" d="M3.62155 2.45069C3.43924 1.33362 4.17843 0.264827 5.30416 0.0413432C6.42996 -0.182152 7.5256 0.522484 7.78897 1.62355C8.89662 1.74689 9.96966 2.13259 10.9137 2.76153C12.463 3.79369 13.5381 5.39633 13.9039 7.21637C14.4588 9.97765 15.235 11.4085 15.8975 12.1973C16.4283 12.8293 16.7911 13.6598 16.6267 14.5026C16.4439 15.4399 15.6902 16.0253 14.7522 16.2115L9.70316 17.2139C9.66596 17.6239 9.56228 18.107 9.27399 18.5473C9.0785 18.8457 8.83285 19.1117 8.54547 19.3325C7.98222 19.7652 7.29044 20 6.57853 20C5.86663 20 5.17485 19.7652 4.6116 19.3325C4.27422 19.0733 3.99438 18.7519 3.78567 18.3886L2.82968 18.5784C1.89288 18.7644 0.970486 18.5132 0.439679 17.7169C-0.037105 17.0016 -0.0216814 16.0968 0.223601 15.312C0.529852 14.3321 0.692802 12.7147 0.137045 9.9494C-0.22873 8.12936 0.144415 6.23921 1.17588 4.69471C1.80452 3.7534 2.64635 2.98749 3.62155 2.45069ZM6.04004 3.70441C7.33329 3.44767 8.67757 3.71414 9.77719 4.44672C10.877 5.17942 11.6419 6.31844 11.9022 7.61375C12.4997 10.5865 13.3819 12.368 14.3305 13.4974C14.6341 13.8588 14.6287 14.0862 14.6228 14.1165L14.6193 14.1199C14.6047 14.1328 14.535 14.1858 14.3523 14.2221L2.42985 16.5889C2.24675 16.6253 2.16208 16.6029 2.1441 16.5968L2.14096 16.5958C2.12354 16.5686 2.03317 16.361 2.17294 15.9138C2.61183 14.5096 2.73677 12.5278 2.13873 9.55202C1.87841 8.25671 2.14436 6.91304 2.87657 5.81665C3.60866 4.72043 4.74679 3.96115 6.04004 3.70441Z" fill="#3A4757"/>
</svg>