<svg width="20" height="20" viewBox="0 0 20 20" fill="none" xmlns="http://www.w3.org/2000/svg">
<path d="M13.0185 2.41576C12.7021 2.26184 12.3745 2.13153 12.0383 2.02597C11.9968 0.90014 11.0566 0 9.90293 0C8.7493 0 7.80919 0.900036 7.76761 2.02577C6.70027 2.36079 5.719 2.94528 4.91308 3.74231C3.59072 5.05006 2.84866 6.82278 2.84866 8.67026C2.84866 10.4804 2.64856 11.7679 2.37308 12.6946C2.21397 13.2298 2.5257 13.7906 3.06934 13.9473C3.61298 14.1039 4.18267 13.797 4.34178 13.2618C4.68498 12.1074 4.89994 10.6211 4.89994 8.67026C4.89994 7.35542 5.42813 6.09536 6.36684 5.16703C7.30539 4.23885 8.57734 3.71824 9.90263 3.71824C10.675 3.71824 11.429 3.895 12.1096 4.22616C12.6174 4.47324 13.2325 4.26827 13.4835 3.76834C13.7345 3.26841 13.5263 2.66284 13.0185 2.41576Z" fill="#3A4757"/>
<path fill-rule="evenodd" clip-rule="evenodd" d="M16.1 5.34054L19.6996 1.79684C20.1001 1.40252 20.1001 0.763194 19.6996 0.368873C19.2991 -0.0254477 18.6497 -0.0254477 18.2491 0.368873L0.300403 18.039C-0.100134 18.4333 -0.100134 19.0727 0.300403 19.467C0.700941 19.8613 1.35034 19.8613 1.75088 19.467L3.63198 17.6151H6.77371L6.77495 17.6198C6.9552 18.3014 7.36006 18.9048 7.92607 19.3356C8.49209 19.7663 9.18728 20 9.90269 20C10.6181 20 11.3133 19.7663 11.8793 19.3356C12.4453 18.9048 12.8502 18.3014 13.0304 17.6198L13.0317 17.6151H16.011C16.9723 17.6151 17.831 17.1897 18.1968 16.3102C18.5257 15.5194 18.3327 14.6384 17.9348 13.9186C17.4381 13.0203 16.9566 11.4732 16.9566 8.67026C16.9566 7.49677 16.6572 6.35357 16.1 5.34054ZM14.5584 6.85825L5.68326 15.5956H16.011C16.1983 15.5956 16.2774 15.5574 16.2943 15.5477L16.2985 15.5454C16.3104 15.517 16.3606 15.2956 16.1331 14.884C15.422 13.5977 14.9053 11.6878 14.9053 8.67026C14.9053 8.0439 14.7855 7.4299 14.5584 6.85825Z" fill="#3A4757"/>
</svg>