<svg width="20" height="20" viewBox="0 0 20 20" fill="none" xmlns="http://www.w3.org/2000/svg">
<path d="M5.12566 0.407444C5.4567 0.852879 5.36111 1.48023 4.91216 1.80868C4.00104 2.47524 3.25621 3.3549 2.7413 4.37665C2.36241 5.12851 2.11631 5.94089 2.01249 6.77648C1.94424 7.32576 1.44013 7.71614 0.88652 7.64843C0.332911 7.58072 -0.0605541 7.08055 0.00769204 6.53128C0.13945 5.47083 0.451957 4.43807 0.934586 3.48037C1.59046 2.1789 2.54222 1.05241 3.71337 0.195613C4.16232 -0.132832 4.79463 -0.0379916 5.12566 0.407444Z" fill="#3A4757"/>
<path fill-rule="evenodd" clip-rule="evenodd" d="M12.0534 2.16187C13.1044 2.49436 14.0706 3.07441 14.8642 3.86536C16.1664 5.16321 16.8971 6.92252 16.8971 8.75601C16.8971 11.5377 17.3713 13.0731 17.8604 13.9646C18.2522 14.679 18.4423 15.5533 18.1184 16.3381C17.7582 17.211 16.9126 17.6331 15.966 17.6331H13.0317L13.0305 17.6378C12.853 18.3143 12.4543 18.9131 11.8969 19.3406C11.3395 19.7681 10.655 20 9.95047 20C9.24598 20 8.5614 19.7681 8.00402 19.3406C7.44664 18.9131 7.04796 18.3143 6.87047 17.6378L6.86925 17.6331H3.93461C2.98925 17.6331 2.14314 17.2124 1.78334 16.3389C1.46016 15.5542 1.65159 14.6807 2.04267 13.9676C2.53095 13.0773 3.00452 11.5418 3.00452 8.75601C3.00452 6.92252 3.73525 5.16321 5.03742 3.86536C5.83094 3.07447 6.79709 2.49445 7.84797 2.16195C7.88885 1.04467 8.81464 0.151376 9.9507 0.151376C11.0867 0.151376 12.0125 1.04463 12.0534 2.16187ZM9.95082 3.84147C11.2559 3.84147 12.5084 4.35814 13.4326 5.2793C14.357 6.2006 14.8772 7.45113 14.8772 8.75601C14.8772 11.7507 15.3859 13.6462 16.0862 14.9227C16.3102 15.3312 16.2607 15.5505 16.2491 15.5787L16.245 15.5814C16.2283 15.591 16.1504 15.629 15.966 15.629H3.93461C3.74984 15.629 3.67203 15.591 3.65578 15.5816L3.65293 15.58C3.64133 15.5503 3.59412 15.3319 3.81697 14.9255C4.51673 13.6496 5.02449 11.7537 5.02449 8.75601C5.02449 7.45113 5.54462 6.20061 6.469 5.2793C7.39322 4.35814 8.64576 3.84147 9.95082 3.84147Z" fill="#3A4757"/>
<path d="M16.2866 0.195613C15.8377 -0.132832 15.2054 -0.0379916 14.8743 0.407444C14.5433 0.852879 14.6389 1.48023 15.0878 1.80868C15.999 2.47524 16.7438 3.3549 17.2587 4.37665C17.6376 5.12851 17.8837 5.94089 17.9875 6.77648C18.0558 7.32576 18.5599 7.71614 19.1135 7.64843C19.6671 7.58072 20.0606 7.08055 19.9923 6.53128C19.8605 5.47083 19.548 4.43807 19.0654 3.48037C18.4095 2.1789 17.4578 1.05241 16.2866 0.195613Z" fill="#3A4757"/>
</svg>