<svg width="13" height="16" viewBox="0 0 13 16" fill="none" xmlns="http://www.w3.org/2000/svg">
<path fill-rule="evenodd" clip-rule="evenodd" d="M12.2591 15.2312H0.741222V14.8299C0.741222 14.4701 1.02363 14.1772 1.37052 14.1772H11.6305C11.9774 14.1772 12.2591 14.4701 12.2591 14.8299V15.2312ZM2.79811 13.4085H10.2022V12.8726H2.79811V13.4085ZM2.05763 10.7608C2.05763 8.21999 4.05078 6.15275 6.50052 6.15275C8.95026 6.15275 10.9434 8.21999 10.9434 10.7608V12.1038H2.05763V10.7608ZM6.50052 3.76878C6.88077 3.76878 7.20839 4.0071 7.35144 4.3469H5.64885C5.79265 4.0071 6.12027 3.76878 6.50052 3.76878ZM11.6305 13.4085H10.9434V12.8726H11.314C11.5186 12.8726 11.6846 12.7004 11.6846 12.4882V10.7608C11.6846 7.92555 9.55658 5.60231 6.87113 5.40319V5.11567H7.79914C8.00446 5.11567 8.16975 4.94423 8.16975 4.73128C8.16975 3.77646 7.42112 3 6.50052 3C5.57992 3 4.83055 3.77646 4.83055 4.73128C4.83055 4.94423 4.99658 5.11567 5.20116 5.11567H6.12991V5.40319C3.44446 5.60231 1.31641 7.92555 1.31641 10.7608V12.4882C1.31641 12.7004 1.4817 12.8726 1.68702 12.8726H2.05689V13.4085H1.37052C0.615214 13.4085 0 14.0458 0 14.8299V15.6156C0 15.8278 0.166034 16 0.370611 16H12.6297C12.8343 16 13.0003 15.8278 13.0003 15.6156V14.8299C13.0003 14.0458 12.3858 13.4085 11.6305 13.4085Z" fill="#3A4757"/>
<path fill-rule="evenodd" clip-rule="evenodd" d="M6.5 2C6.776 2 7 1.83456 7 1.63072V0.369276C7 0.165436 6.776 0 6.5 0C6.224 0 6 0.165436 6 0.369276V1.63072C6 1.83456 6.224 2 6.5 2Z" fill="#3A4757"/>
<path fill-rule="evenodd" clip-rule="evenodd" d="M8.45323 3C8.5692 3 8.68516 2.95562 8.77395 2.86777L9.8675 1.77369C10.0442 1.59617 10.0442 1.30997 9.8675 1.13246C9.69083 0.955847 9.40362 0.955847 9.22695 1.13246L8.1325 2.22654C7.95583 2.40405 7.95583 2.69025 8.1325 2.86777C8.22129 2.95562 8.33726 3 8.45323 3Z" fill="#3A4757"/>
<path fill-rule="evenodd" clip-rule="evenodd" d="M4.22695 2.86771C4.31574 2.95651 4.43171 3 4.54768 3C4.66274 3 4.77871 2.95651 4.8675 2.86771C5.04417 2.69102 5.04417 2.40378 4.8675 2.22709L3.77395 1.13252C3.59638 0.955827 3.31008 0.955827 3.1325 1.13252C2.95583 1.30921 2.95583 1.59644 3.1325 1.77313L4.22695 2.86771Z" fill="#3A4757"/>
</svg>