<svg width="17" height="21" viewBox="0 0 17 21" fill="none" xmlns="http://www.w3.org/2000/svg">
<path fill-rule="evenodd" clip-rule="evenodd" d="M3.62155 2.65064C3.43924 1.53357 4.17843 0.464778 5.30416 0.241294C6.42996 0.0177987 7.5256 0.722435 7.78897 1.8235C8.89662 1.94685 9.96966 2.33254 10.9137 2.96148C12.463 3.99364 13.5381 5.59628 13.9039 7.41632C14.4588 10.1776 15.235 11.6084 15.8975 12.3972C16.4283 13.0292 16.7911 13.8598 16.6267 14.7025C16.4439 15.6398 15.6902 16.2253 14.7522 16.4115L9.70316 17.4138C9.66596 17.8239 9.56228 18.307 9.27399 18.7472C9.0785 19.0457 8.83285 19.3117 8.54547 19.5325C7.98222 19.9652 7.29044 20.2 6.57853 20.2C5.86663 20.2 5.17485 19.9652 4.6116 19.5325C4.27422 19.2733 3.99438 18.9518 3.78567 18.5886L2.82968 18.7783C1.89288 18.9643 0.970486 18.7131 0.439679 17.9168C-0.037105 17.2015 -0.0216814 16.2967 0.223601 15.5119C0.529852 14.5321 0.692802 12.9147 0.137045 10.1493C-0.22873 8.32931 0.144415 6.43916 1.17588 4.89466C1.80452 3.95335 2.64635 3.18744 3.62155 2.65064Z" fill="#3A4757"/>
</svg>