<svg width="20" height="20" viewBox="0 0 20 20" fill="none" xmlns="http://www.w3.org/2000/svg">
<path d="M5.12567 0.407446C5.4567 0.852884 5.36111 1.48024 4.91216 1.80869C4.00104 2.47525 3.25622 3.35491 2.74131 4.37668C2.36241 5.12854 2.11631 5.94092 2.01249 6.77652C1.94424 7.3258 1.44013 7.71618 0.88652 7.64847C0.332911 7.58076 -0.0605542 7.08059 0.00769205 6.53131C0.13945 5.47086 0.451958 4.43809 0.934587 3.48038C1.59046 2.17891 2.54222 1.05241 3.71338 0.195614C4.16233 -0.132832 4.79463 -0.0379918 5.12567 0.407446Z" fill="#3A4757"/>
<path fill-rule="evenodd" clip-rule="evenodd" d="M12.0534 2.16178C13.1044 2.49427 14.0706 3.07432 14.8642 3.86528C16.1664 5.16314 16.8971 6.92245 16.8971 8.75595C16.8971 11.5377 17.3713 13.0731 17.8604 13.9646C18.2522 14.6789 18.4423 15.5533 18.1184 16.3381C17.7582 17.2109 16.9126 17.6331 15.966 17.6331H13.0317L13.0305 17.6378C12.853 18.3142 12.4543 18.9131 11.8969 19.3406C11.3395 19.7681 10.655 20 9.95048 20C9.24599 20 8.56141 19.7681 8.00403 19.3406C7.44665 18.9131 7.04797 18.3142 6.87048 17.6378L6.86926 17.6331H3.93461C2.98925 17.6331 2.14314 17.2124 1.78334 16.3389C1.46016 15.5542 1.65159 14.6807 2.04267 13.9676C2.53096 13.0773 3.00452 11.5418 3.00452 8.75595C3.00452 6.92245 3.73525 5.16314 5.03743 3.86528C5.83095 3.07439 6.79709 2.49436 7.84798 2.16186C7.88885 1.04457 8.81464 0.151275 9.95071 0.151275C11.0867 0.151275 12.0125 1.04453 12.0534 2.16178Z" fill="#3A4757"/>
<path d="M16.2866 0.195614C15.8377 -0.132832 15.2054 -0.0379918 14.8743 0.407446C14.5433 0.852884 14.6389 1.48024 15.0879 1.80869C15.999 2.47525 16.7438 3.35491 17.2587 4.37668C17.6376 5.12854 17.8837 5.94092 17.9875 6.77652C18.0558 7.3258 18.5599 7.71618 19.1135 7.64847C19.6671 7.58076 20.0606 7.08059 19.9923 6.53131C19.8606 5.47086 19.5481 4.43809 19.0654 3.48038C18.4096 2.17891 17.4578 1.05241 16.2866 0.195614Z" fill="#3A4757"/>
</svg>