<svg width="17" height="20" viewBox="0 0 17 20" fill="none" xmlns="http://www.w3.org/2000/svg">
<path fill-rule="evenodd" clip-rule="evenodd" d="M10.4359 2.02583C11.4871 2.36085 12.4535 2.94533 13.2472 3.74231C14.5496 5.05006 15.2805 6.82278 15.2805 8.67025C15.2805 11.4732 15.7548 13.0203 16.244 13.9186C16.6359 14.6384 16.826 15.5194 16.502 16.3102C16.1417 17.1897 15.2959 17.6151 14.3492 17.6151H11.4143L11.4131 17.6198C11.2356 18.3014 10.8368 18.9048 10.2793 19.3356C9.72184 19.7663 9.03713 20 8.3325 20C7.62787 20 6.94315 19.7663 6.38567 19.3356C5.82818 18.9048 5.42942 18.3014 5.25189 17.6198L5.25067 17.6151H2.31546C1.36991 17.6151 0.523628 17.1911 0.163759 16.311C-0.159483 15.5203 0.0319842 14.6401 0.42314 13.9216C0.911523 13.0245 1.38518 11.4773 1.38518 8.67025C1.38518 6.82278 2.11606 5.05006 3.41849 3.74231C4.21216 2.94539 5.17849 2.36094 6.22958 2.0259C6.27047 0.900107 7.19644 0 8.33273 0C9.46899 0 10.3949 0.900065 10.4359 2.02583ZM8.33285 3.71824C9.63817 3.71824 10.891 4.23885 11.8154 5.16703C12.7399 6.09536 13.2601 7.35542 13.2601 8.67025C13.2601 11.6878 13.769 13.5977 14.4694 14.884C14.6935 15.2956 14.644 15.5166 14.6323 15.545L14.6282 15.5477C14.6116 15.5574 14.5336 15.5956 14.3492 15.5956H2.31546C2.13065 15.5956 2.05282 15.5574 2.03657 15.5479L2.03372 15.5463C2.02212 15.5164 1.97489 15.2963 2.19779 14.8868C2.89768 13.6012 3.40555 11.6909 3.40555 8.67025C3.40555 7.35542 3.92578 6.09536 4.85034 5.16703C5.77474 4.23885 7.02753 3.71824 8.33285 3.71824Z" fill="#3A4757"/>
</svg>