<svg width="17" height="11" viewBox="0 0 17 11" fill="none" xmlns="http://www.w3.org/2000/svg">
<path fill-rule="evenodd" clip-rule="evenodd" d="M6.34978 1.05678C6.56398 1.0609 6.73662 1.23186 6.74078 1.44397C6.74078 1.65781 6.56572 1.83116 6.34978 1.83116H5.75547L6.13004 2.46557H13.3635L13.3643 0.390805C13.3655 0.269217 13.4232 0.154954 13.5207 0.0810503C13.6193 0.00846746 13.7453 -0.0170603 13.8647 0.0113557L15.4287 0.452756C15.5283 0.481509 15.6122 0.548246 15.6621 0.638286C15.7119 0.728325 15.7236 0.834293 15.6946 0.932875C15.6306 1.13535 15.4166 1.2516 15.2098 1.19617L14.1775 0.901899L14.1774 4.81881C14.2897 4.82979 14.4023 4.84688 14.5149 4.87029C15.975 5.17393 17.0153 6.45648 16.9998 7.93384C16.9844 9.41121 15.9174 10.6721 14.4512 10.9457C14.2581 10.9834 14.0616 11.0016 13.8647 10.9999C13.2366 10.9983 12.6235 10.8094 12.1053 10.4578C10.8741 9.62331 10.4094 8.04391 10.9954 6.68518C11.4255 5.68789 12.3337 5.01327 13.3638 4.84498L13.3635 3.81543L9.22752 8.27405C9.16349 8.34281 9.07711 8.3857 8.98481 8.39623L8.91472 8.39795L6.2156 8.3983C6.11115 9.03599 5.807 9.62997 5.33978 10.0926C4.75317 10.6735 3.95756 10.9999 3.12797 10.9999C1.40044 10.9999 0 9.61307 0 7.90235C0 6.19162 1.40044 4.8048 3.12797 4.8048C3.5067 4.8048 3.86971 4.87146 4.20569 4.99357L5.45391 2.8545L4.84809 1.83071L4.53556 1.83116C4.31962 1.83116 4.14456 1.65781 4.14456 1.44397C4.14456 1.23013 4.31962 1.05678 4.53556 1.05678H6.34978ZM3.12797 5.57919C1.83232 5.57919 0.781993 6.6193 0.781993 7.90235C0.781993 9.18539 1.83232 10.2255 3.12797 10.2255C4.25171 10.2255 5.19091 9.44309 5.42036 8.39837L2.90119 8.39795C2.76039 8.39677 2.63022 8.32353 2.55712 8.20436C2.48727 8.08456 2.48727 7.93696 2.55712 7.81717L3.79819 5.69087C3.5858 5.62827 3.36083 5.59467 3.12797 5.59468V5.57919ZM13.3635 5.59114L13.4268 5.57919C12.374 5.75915 11.577 6.6208 11.488 7.67512C11.3991 8.72943 12.0407 9.71009 13.0488 10.0605C14.0569 10.4109 15.1767 10.0426 15.7728 9.1646C16.0902 8.70333 16.2283 8.14599 16.1653 7.59498L16.1403 7.42997C15.9326 6.46974 15.1415 5.75229 14.1776 5.61672L14.1775 7.46095C14.1801 7.57058 14.1356 7.67614 14.0551 7.75144C13.9746 7.82673 13.8656 7.86469 13.7553 7.85588C13.5393 7.85588 13.3643 7.68253 13.3643 7.46869L13.3635 5.59114ZM4.50478 6.03661L3.57371 7.62357L5.4553 7.62324C5.37198 6.97144 5.01618 6.40424 4.50478 6.03661ZM5.91214 3.63943L4.90583 5.35344C5.64896 5.8627 6.15859 6.68245 6.24342 7.62328L8.228 7.623L5.91214 3.63943ZM12.8794 3.24055L6.57591 3.24029L7.81845 5.38529L8.96946 7.36028L12.8794 3.24055Z" fill="#3A4757"/>
</svg>