<svg width="20" height="14" viewBox="0 0 20 14" fill="none" xmlns="http://www.w3.org/2000/svg">
<path d="M18.7916 6.45185C18.4049 6.04063 17.9424 5.71528 17.432 5.49535C16.9217 5.27541 16.374 5.16546 15.8219 5.17205H15.188L13.7865 1.15849C13.6653 0.821026 13.4489 0.529777 13.166 0.323093C12.8831 0.116408 12.5469 0.0039577 12.2016 0.000540694H10.8669C10.7509 -0.0037277 10.6354 0.0173147 10.5276 0.0622879C10.4199 0.107261 10.3224 0.175165 10.2413 0.261717C10.0847 0.439944 9.99788 0.672924 9.99788 0.914686C9.99788 1.15645 10.0847 1.38943 10.2413 1.56765C10.3224 1.65421 10.4199 1.72216 10.5276 1.76714C10.6354 1.81211 10.7509 1.8331 10.8669 1.82883H12.1765L13.3527 5.19814H9.42372L9.16512 4.4407C9.39742 4.4407 9.62023 4.34443 9.7845 4.17299C9.94876 4.00155 10.041 3.76901 10.041 3.52656C10.041 3.28411 9.94876 3.05162 9.7845 2.88018C9.62023 2.70874 9.39742 2.61241 9.16512 2.61241H6.66257C6.548 2.60936 6.43406 2.63098 6.32785 2.67592C6.22165 2.72085 6.12546 2.78814 6.04528 2.87359C5.96235 2.95828 5.89729 3.06012 5.8542 3.17255C5.8111 3.28498 5.79094 3.40554 5.79503 3.52656C5.79227 3.64665 5.81223 3.76614 5.85374 3.87818C5.89525 3.99022 5.95748 4.09261 6.03693 4.17953C6.20525 4.34777 6.4295 4.44138 6.66257 4.4407H7.25486L8.71468 8.70679H8.28924C8.10079 7.76649 7.62689 6.91469 6.93786 6.27776C6.13814 5.54126 5.09847 5.15248 4.03257 5.19134C2.96667 5.23021 1.95554 5.69375 1.20702 6.4867C0.4498 7.29275 0.0179166 8.3714 0.000545049 9.50009C-0.0168265 10.6288 0.381618 11.7214 1.11364 12.5524C1.84566 13.3834 2.85541 13.8895 3.93451 13.9661C5.01361 14.0427 6.0797 13.684 6.91281 12.9642C7.61732 12.3365 8.10161 11.4818 8.28924 10.5351H11.6927C11.8958 11.4792 12.3877 12.3288 13.0941 12.9554C13.8961 13.6711 14.928 14.0429 15.9821 13.9961C17.0363 13.9492 18.0342 13.4872 18.7749 12.703C19.56 11.8707 20 10.7497 20 9.58177C20 8.41388 19.56 7.2928 18.7749 6.46056L18.7916 6.45185ZM15.8219 9.62965C16.0238 9.53516 16.1865 9.36841 16.2807 9.15953C16.3279 9.04848 16.3522 8.92835 16.3522 8.8069C16.3522 8.68545 16.3279 8.56537 16.2807 8.45432L15.7635 7.04392C16.2356 7.06901 16.6911 7.23308 17.0775 7.51717C17.4639 7.80126 17.7653 8.19374 17.9468 8.64918C18.1284 9.10463 18.1826 9.60444 18.1033 10.0907C18.024 10.577 17.8143 11.0299 17.4986 11.397C17.032 11.8678 16.4084 12.1309 15.7594 12.1309C15.1104 12.1309 14.4867 11.8678 14.0201 11.397C13.6563 11.0044 13.4196 10.5026 13.3433 9.96224C13.267 9.42189 13.3549 8.87015 13.5946 8.38466C13.7268 8.11294 13.9081 7.8705 14.1285 7.67074L14.6124 9.08115C14.6494 9.19856 14.71 9.3064 14.7901 9.39748C14.8701 9.48856 14.9679 9.56081 15.0768 9.6094C15.1857 9.65799 15.3032 9.68184 15.4217 9.67933C15.5401 9.67682 15.6566 9.64801 15.7635 9.59484L15.8219 9.62965ZM12.4185 7.01777C12.2688 7.22057 12.1454 7.44304 12.0514 7.67946C11.9119 8.00816 11.8002 8.349 11.7177 8.69807H10.6166L10.016 7.01777H12.4185ZM4.39361 10.2652C4.47475 10.3517 4.57228 10.4197 4.68 10.4647C4.78773 10.5096 4.90329 10.5307 5.01925 10.5264H6.44567C6.29324 10.9648 6.03115 11.3526 5.68658 11.6495C5.26501 12.0059 4.73576 12.1941 4.19341 12.1806C3.86878 12.1901 3.54582 12.1285 3.24548 11.9995C2.94515 11.8705 2.67411 11.6771 2.44994 11.4318C1.99391 10.944 1.73867 10.2894 1.73867 9.60786C1.73867 8.9263 1.99391 8.27177 2.44994 7.78393C2.67578 7.54154 2.94729 7.35063 3.24737 7.22326C3.54744 7.09589 3.86959 7.03484 4.19341 7.04392C4.73565 7.03115 5.26466 7.2193 5.68658 7.57498C6.03115 7.87191 6.29324 8.25969 6.44567 8.69807H5.01925C4.90329 8.6938 4.78773 8.71485 4.68 8.75982C4.57228 8.80479 4.47475 8.8727 4.39361 8.95925C4.23343 9.13555 4.14413 9.36926 4.14413 9.61222C4.14413 9.85518 4.23343 10.0889 4.39361 10.2652Z" fill="#3A4757"/>
</svg>