<svg width="17" height="13" viewBox="0 0 17 13" fill="none" xmlns="http://www.w3.org/2000/svg">
<path fill-rule="evenodd" clip-rule="evenodd" d="M5.01681 0.819836C5.18604 0.823032 5.32244 0.955662 5.32573 1.12022C5.32573 1.28611 5.18742 1.4206 5.01681 1.4206H4.54726L4.8432 1.91276H10.5582L10.5588 0.303182C10.5597 0.208855 10.6053 0.120212 10.6823 0.0628779C10.7602 0.00656896 10.8598 -0.0132352 10.9542 0.00880965L12.1899 0.351243C12.2685 0.373549 12.3348 0.425323 12.3742 0.495175C12.4136 0.565027 12.4229 0.647235 12.3999 0.723714C12.3494 0.88079 12.1803 0.970979 12.0169 0.927972L11.2013 0.699683L11.2012 3.73838C11.2899 3.7469 11.3789 3.76015 11.4679 3.77831C12.6215 4.01387 13.4434 5.00886 13.4312 6.15499C13.4189 7.30111 12.5759 8.2793 11.4176 8.49154C11.265 8.52081 11.1097 8.5349 10.9542 8.53359C10.4579 8.53232 9.97351 8.38578 9.56407 8.11306C8.59135 7.46566 8.22425 6.24037 8.68719 5.18628C9.02699 4.4126 9.74453 3.88924 10.5584 3.75868L10.5582 2.95997L7.29044 6.41892C7.23986 6.47226 7.17161 6.50554 7.09868 6.5137L7.04331 6.51504L4.9108 6.51531C4.82828 7.01002 4.58797 7.47082 4.21883 7.82976C3.75537 8.28042 3.12677 8.53359 2.47134 8.53359C1.10645 8.53359 0 7.45772 0 6.13055C0 4.80339 1.10645 3.72751 2.47134 3.72751C2.77056 3.72751 3.05736 3.77922 3.32281 3.87395L4.309 2.21449L3.83036 1.42025L3.58344 1.4206C3.41283 1.4206 3.27452 1.28611 3.27452 1.12022C3.27452 0.95432 3.41283 0.819836 3.58344 0.819836H5.01681ZM2.47134 4.32827C1.44767 4.32827 0.617834 5.13518 0.617834 6.13055C0.617834 7.12593 1.44767 7.93283 2.47134 7.93283C3.35917 7.93283 4.10121 7.32585 4.2825 6.51537L2.29216 6.51504C2.18092 6.51412 2.07808 6.4573 2.02032 6.36485C1.96513 6.27191 1.96513 6.15741 2.02032 6.06447L3.00086 4.41491C2.83305 4.36635 2.65531 4.34028 2.47134 4.34029V4.32827ZM10.5582 4.33754L10.6082 4.32827C9.77641 4.46788 9.14668 5.13634 9.07641 5.95427C9.00615 6.7722 9.51311 7.53298 10.3096 7.80484C11.106 8.07669 11.9908 7.79096 12.4617 7.10979C12.7125 6.75195 12.8216 6.31957 12.7718 5.8921L12.7521 5.76409C12.5879 5.01915 11.963 4.46256 11.2014 4.35739L11.2013 5.78812C11.2034 5.87317 11.1682 5.95507 11.1046 6.01348C11.041 6.07189 10.9549 6.10134 10.8677 6.09451C10.6971 6.09451 10.5588 5.96002 10.5588 5.79413L10.5582 4.33754ZM3.55912 4.68313L2.8235 5.91428L4.3101 5.91402C4.24427 5.40836 3.96316 4.96834 3.55912 4.68313ZM4.67104 2.82343L3.87598 4.15314C4.46311 4.54822 4.86575 5.18417 4.93278 5.91406L6.50075 5.91384L4.67104 2.82343ZM10.1757 2.51398L5.19547 2.51378L6.17717 4.17784L7.08656 5.71002L10.1757 2.51398Z" fill="#3A4757"/>
<path d="M15.4471 1.64556C15.5618 1.53093 15.7476 1.53093 15.8622 1.64556L16.8925 2.67587C17.0358 2.81915 17.0358 3.05146 16.8925 3.19475C16.7493 3.33804 16.5169 3.33804 16.3737 3.19475L16.0216 2.84268V10.7536L16.0217 10.7626C16.0217 10.9534 15.8761 11.1102 15.6899 11.1279C15.6783 11.129 15.6666 11.1296 15.6547 11.1296L15.6519 11.1295H2.22777L2.69892 11.4324C2.86937 11.542 2.91872 11.769 2.80914 11.9395C2.69957 12.1099 2.47256 12.1593 2.3021 12.0497L0.6841 11.0095C0.504368 10.894 0.504367 10.6313 0.6841 10.5157L2.3021 9.47558C2.47256 9.36601 2.69957 9.41536 2.80914 9.58581C2.91872 9.75626 2.86937 9.98327 2.69892 10.0929L2.22777 10.3957H15.2878V2.84268L14.9357 3.19475C14.7924 3.33804 14.5601 3.33804 14.4168 3.19475C14.2735 3.05146 14.2735 2.81915 14.4168 2.67587L15.4471 1.64556Z" fill="#3A4757"/>
</svg>