<svg width="15" height="13" viewBox="0 0 15 13" fill="none" xmlns="http://www.w3.org/2000/svg">
<path fill-rule="evenodd" clip-rule="evenodd" d="M1.72797 1.42144C2.40296 0.27571 3.48969 -0.221567 4.65666 0.0923007C5.82739 0.406935 6.74387 1.46825 6.74387 2.50962V2.67998C6.74162 3.39673 6.75061 3.75204 6.98161 3.9884C7.06486 4.07358 7.17211 4.092 7.4346 4.11963C7.75109 4.15262 8.18383 4.19944 8.68632 4.53019C9.08177 4.78971 10.2855 5.50016 11.5277 6.23084L11.9008 6.45023C13.8402 7.59058 14.7064 8.10321 14.8594 8.22906C14.9442 8.29813 14.9952 8.40173 14.9997 8.51223C15.0042 8.62351 14.9607 8.72941 14.8819 8.80615C14.4214 9.24971 13.0182 10.6003 10.763 10.7162C10.0618 10.7538 9.27281 10.7684 8.50258 10.7699L7.09036 12.2357H7.84784C8.05409 12.2357 8.22133 12.406 8.22133 12.6178C8.22133 12.8289 8.05409 13 7.84784 13H2.92345C2.71645 13 2.54921 12.8289 2.54921 12.6178C2.54921 12.406 2.71645 12.2357 2.92345 12.2357H3.77993L5.2934 10.6671C4.29667 10.4937 1.62223 9.28271 1.62223 6.39344V3.65458C1.28976 3.47095 0.726729 3.17872 0.4206 3.02108L0.291201 2.95461C0.239463 2.92811 0.208859 2.91255 0.207006 2.91174C0.0810089 2.84727 0.00151061 2.71528 5.28449e-06 2.57254C-0.000739337 2.42827 0.0772587 2.29628 0.201756 2.23028L1.72797 1.42144ZM6.28112 10.7316L4.83066 12.2357H6.03963L7.4586 10.7646C7.03261 10.7577 6.63962 10.7461 6.28112 10.7316ZM4.46691 0.832076C3.95993 0.695478 3.0067 0.653271 2.32121 1.89646C2.28596 1.96169 2.23271 2.01464 2.16746 2.04918L1.19398 2.56487C1.56823 2.75979 1.99797 2.98771 2.18396 3.09898C2.29946 3.16728 2.36921 3.29313 2.36921 3.42896V6.39344C2.36921 9.07474 5.08865 9.89356 5.49964 9.92425C5.91813 9.95572 6.50387 9.97951 7.15861 9.99332C6.37187 9.66794 5.71939 9.08855 5.2124 8.25439C4.81491 7.59979 4.62366 6.51699 5.0939 5.57846C5.2964 5.17327 5.67739 4.71129 6.36287 4.41968C5.99763 3.96461 5.99463 3.39136 5.99613 2.67844L5.99688 2.50962C5.99688 1.81128 5.31065 1.05846 4.46691 0.832076ZM12.0425 7.41408C11.9188 7.9574 11.618 8.61813 11.15 9.16453C10.8463 9.51906 10.5013 9.78689 10.1293 9.97797C10.334 9.97107 10.535 9.96339 10.7255 9.95341C12.3125 9.87207 13.4037 9.10774 14.009 8.58284C13.5582 8.3081 12.788 7.8538 12.0425 7.41408ZM7.59285 4.91082C6.69437 4.97758 6.05913 5.32752 5.75839 5.92686C5.42314 6.5968 5.56939 7.39413 5.84763 7.8515C5.97363 8.0587 6.11238 8.24057 6.25713 8.40864V7.69725C6.25713 7.48545 6.42437 7.31509 6.63137 7.31509C6.83761 7.31509 7.00486 7.48545 7.00486 7.69725V9.05862C7.17961 9.16836 7.36485 9.25892 7.5606 9.33029V8.91282C7.5606 8.70101 7.72784 8.53065 7.93484 8.53065C8.14108 8.53065 8.30833 8.70101 8.30833 8.91282V9.50832C8.46808 9.52751 8.63233 9.53825 8.80332 9.53825C9.65605 9.53825 10.2448 9.06016 10.5883 8.65881C11.1073 8.0541 11.3248 7.36574 11.357 7.0112C10.0378 6.23612 8.71407 5.45721 8.28283 5.17327C8.02634 5.00521 7.80359 4.94382 7.59285 4.91082ZM3.27077 2.03882C3.47701 2.03882 3.64426 2.20995 3.64426 2.42098C3.64426 2.63202 3.47701 2.80315 3.27077 2.80315C3.06452 2.80315 2.89652 2.63202 2.89652 2.42098C2.89652 2.20995 3.06452 2.03882 3.27077 2.03882Z" fill="#3A4757"/>
</svg>