<svg width="14" height="15" viewBox="0 0 14 15" fill="none" xmlns="http://www.w3.org/2000/svg">
<path fill-rule="evenodd" clip-rule="evenodd" d="M7.22835 0.00929362C7.78226 0.265656 8.14355 0.803513 8.16458 1.40309C8.1959 1.93945 7.87111 2.41602 7.38995 2.6104L7.38889 3.75H11.3077C11.4839 3.75 11.6305 3.88266 11.6609 4.05759L11.6667 4.125V8.25H13.5882C13.7904 8.25 13.9585 8.38266 13.9934 8.55759L14 8.625V14.625C14 14.8321 13.8156 15 13.5882 15H0.411765C0.184353 15 0 14.8321 0 14.625V8.625C0 8.41789 0.184353 8.25 0.411765 8.25H2.33333V4.125C2.33333 3.94091 2.46032 3.78779 2.62778 3.75604L2.69231 3.75H6.61111L6.61083 2.61071C6.12924 2.41653 5.80409 1.93973 5.83542 1.40309C5.81493 1.09422 6.0083 0.810201 6.30734 0.709921C6.47447 0.646763 6.59953 0.507606 6.64225 0.337247C6.72793 0.101056 6.97705 -0.0383382 7.22835 0.00929362ZM9.37222 12C9.04204 12.5516 8.52606 12.9777 7.91 13.2075C7.56968 13.3323 7.20853 13.3958 6.84444 13.395C6.44013 13.3927 6.04053 13.311 5.67 13.155C5.10803 12.917 4.63941 12.5124 4.33222 12C4.00361 12.5483 3.49039 12.9718 2.87778 13.2C2.19629 13.4552 1.44743 13.4513 0.777968 13.2023L0.777778 14.25H13.2222L13.2233 13.084C13.1371 13.1271 13.0485 13.1658 12.9578 13.2C11.6191 13.7004 10.1016 13.1925 9.37222 12ZM13.2222 9H0.777778V12.369L0.818091 12.3925C1.36214 12.6821 2.01482 12.7246 2.59778 12.5025C3.354 12.2162 3.8778 11.5427 3.95111 10.7625C3.96554 10.5926 4.09828 10.4576 4.2673 10.4301L4.33222 10.425C4.53411 10.4204 4.70468 10.5684 4.72111 10.7625C4.73747 10.9544 4.77929 11.1434 4.84556 11.325C5.21338 12.2378 6.19419 12.7771 7.19615 12.6176C8.19812 12.4581 8.94708 11.6433 8.99111 10.665C8.99854 10.4861 9.13502 10.3407 9.31193 10.3107L9.38 10.305C9.58885 10.3048 9.76054 10.4638 9.76889 10.665C9.77378 10.8906 9.81849 11.1138 9.90111 11.325C10.3314 12.3888 11.5738 12.9157 12.6778 12.5025C12.8742 12.4242 13.058 12.3197 13.2239 12.1919L13.2222 9ZM10.8889 4.5H3.11111V8.25H10.8889V4.5ZM7.20551 0.903711C7.07085 1.11727 6.87119 1.2841 6.63464 1.38073H6.55852C6.59658 1.66397 6.77926 1.91738 7 1.91738C7.22074 1.91738 7.40342 1.66397 7.40342 1.36583C7.37561 1.19866 7.30779 1.0403 7.20551 0.903711Z" fill="#3A4757"/>
</svg>