<svg width="13" height="16" viewBox="0 0 13 16" fill="none" xmlns="http://www.w3.org/2000/svg">
<path d="M5.28791 13.1162C5.19549 13.1162 5.11334 13.0866 5.0312 13.0471C4.90797 12.9582 4.83609 12.8199 4.83609 12.6916V9.06686L3.18285 10.657C3.1007 10.736 2.98775 10.7755 2.86453 10.7755C2.74131 10.7755 2.62835 10.736 2.5462 10.657C2.46405 10.578 2.41271 10.4693 2.41271 10.3508C2.41271 10.2323 2.46405 10.1236 2.5462 10.0446L4.65126 8.01995L2.5462 5.99525C2.46405 5.91624 2.41271 5.8076 2.41271 5.68908C2.41271 5.57056 2.46405 5.46192 2.5462 5.38291C2.62835 5.3039 2.74131 5.25451 2.86453 5.25451C2.98775 5.25451 3.1007 5.3039 3.18285 5.38291L4.83609 6.97303V3.34834C4.83609 3.21007 4.8977 3.08167 5.02093 2.99279C5.10307 2.9434 5.19549 2.91377 5.27764 2.91377C5.32898 2.91377 5.38033 2.91377 5.43167 2.9434L10.2784 4.69155C10.4427 4.74093 10.5557 4.88908 10.5762 5.04711C10.5968 5.21501 10.5146 5.38291 10.3708 5.4718L6.12993 8.01995L10.3708 10.5681C10.5043 10.657 10.5865 10.815 10.5762 10.973C10.5454 11.1409 10.4427 11.2693 10.2887 11.3286L5.44194 13.0767C5.44194 13.0767 5.33925 13.1064 5.28791 13.1064V13.1162ZM5.73973 12.0496L9.13862 10.8249L5.73973 8.78044V12.0496ZM5.73973 7.22982L9.13862 5.18538L5.73973 3.96069V7.22982Z" fill="#3A4757"/>
<path d="M6.5 16C2.91627 16 0 13.1951 0 9.74815V6.25185C0 2.80494 2.91627 0 6.5 0C10.0837 0 13 2.80494 13 6.25185V9.74815C13 13.1951 10.0837 16 6.5 16ZM6.5 0.859259C3.40916 0.859259 0.893365 3.28889 0.893365 6.26173V9.75802C0.893365 12.7309 3.40916 15.1506 6.5 15.1506C9.59084 15.1506 12.1066 12.7309 12.1066 9.75802V6.25185C12.1066 3.27901 9.59084 0.859259 6.5 0.859259Z" fill="#3A4757"/>
</svg>