<svg width="15" height="15" viewBox="0 0 15 15" fill="none" xmlns="http://www.w3.org/2000/svg">
<path fill-rule="evenodd" clip-rule="evenodd" d="M14.6154 12.4932C14.8278 12.4932 15 12.6627 15 12.8719C15 14.0472 14.0322 15 12.8385 15C12.0997 15 11.4469 14.6363 11.0552 14.0806C10.6664 14.636 10.0148 15 9.27692 15C8.70365 15 8.15385 14.7758 7.74848 14.3767C7.65569 14.2853 7.5722 14.1865 7.49863 14.0817C7.4278 14.1865 7.34431 14.2853 7.25152 14.3767C6.84615 14.7758 6.29635 15 5.72308 15C4.98516 15 4.33361 14.636 3.9436 14.0803C3.5531 14.6363 2.90033 15 2.16154 15C0.967754 15 0 14.0472 0 12.8719C0 12.6627 0.172198 12.4932 0.384616 12.4932C0.597033 12.4932 0.769231 12.6627 0.769231 12.8719C0.823525 13.5915 1.43242 14.1481 2.16538 14.1481C2.89835 14.1481 3.50724 13.5915 3.56154 12.8719C3.56154 12.6627 3.73374 12.4932 3.94615 12.4932C4.15857 12.4932 4.33077 12.6627 4.33077 12.8719C4.33077 13.3616 4.59614 13.8142 5.02692 14.059C5.4577 14.3039 5.98845 14.3039 6.41923 14.059C6.85001 13.8142 7.11539 13.3616 7.11539 12.8719C7.11539 12.6627 7.28758 12.4932 7.5 12.4932C7.71242 12.4932 7.88462 12.6627 7.88462 12.8719C7.88462 13.629 8.50797 14.2427 9.27692 14.2427C10.0459 14.2427 10.6692 13.629 10.6692 12.8719C10.6692 12.6627 10.8414 12.4932 11.0538 12.4932C11.2663 12.4932 11.4385 12.6627 11.4385 12.8719C11.4928 13.5915 12.1016 14.1481 12.8346 14.1481C13.5676 14.1481 14.1765 13.5915 14.2308 12.8719C14.2308 12.6627 14.403 12.4932 14.6154 12.4932ZM7.14615 0.0500207C7.35385 0.178769 12.1077 3.23087 12.1077 7.62348C12.119 7.73298 12.0813 7.8419 12.0045 7.92188C11.9277 8.00186 11.8194 8.04498 11.7077 8.04002L7.323 8.03927L7.32308 8.94126C7.32309 8.96373 7.32107 8.98599 7.31714 9.00781L14.1615 8.56258C14.2833 8.55263 14.4019 8.60391 14.4769 8.69891C14.56 8.78903 14.5918 8.91412 14.5615 9.03214L13.4846 13.19C13.4457 13.3564 13.2965 13.4751 13.1231 13.4778H13.0308C12.8241 13.4256 12.6976 13.2204 12.7462 13.0158L13.6923 9.3578L1.38462 10.1606L2.8 12.887C2.87433 13.0086 2.87334 13.161 2.79742 13.2817C2.72151 13.4023 2.58342 13.4711 2.43972 13.4597C2.29601 13.4484 2.17081 13.3589 2.11538 13.2278L0.461538 9.98639C0.403831 9.87188 0.403831 9.73738 0.461538 9.62287C0.52993 9.5138 0.647119 9.44344 0.776923 9.43353L6.55904 9.05771C6.54644 9.02106 6.53926 8.98193 6.53846 8.94126V6.5026H4.63077C4.50593 6.50202 4.38882 6.44296 4.31538 6.34356C4.24145 6.23924 4.22693 6.10491 4.27692 5.98761L6.58462 0.246931C6.62719 0.133326 6.72119 0.05122 6.83262 0.0191299C6.93331 -0.0132426 7.04721 -0.00554696 7.14615 0.0500207ZM7.32272 1.13293L7.323 7.28252L11.3462 7.28267C11.1099 4.35711 8.51442 2.06136 7.32272 1.13293ZM6.53846 2.38264L5.19231 5.74526H6.53846V2.38264Z" fill="#3A4757"/>
</svg>