<svg width="20" height="20" viewBox="0 0 20 20" fill="none" xmlns="http://www.w3.org/2000/svg">
<path d="M20 4.07862C19.9706 3.90172 19.8728 3.6855 19.6673 3.51843C17.9644 1.97543 16.291 1.10074 15.009 0.619165C14.3631 0.373464 13.8248 0.226044 13.4236 0.14742C13.0517 0.0687961 12.7581 0.029484 12.6407 0.029484H12.5037C12.259 0.029484 11.9948 0.117936 11.7795 0.324324C11.5642 0.530713 11.4859 0.796069 11.4859 1.04177C11.4859 1.92629 10.7519 2.66339 9.87115 2.66339C8.99038 2.66339 8.27597 1.93612 8.27597 1.01228C8.27597 0.505313 7.93323 0 7.37563 0H7.19948L7.16033 0.00982801H7.12119C7.12119 0.00982801 7.03311 0.019656 6.97439 0.029484C6.85696 0.04914 6.69059 0.0786241 6.49486 0.127764C6.10341 0.216216 5.55537 0.363636 4.91926 0.609337C3.63725 1.10074 1.97358 1.97543 0.300114 3.53808V3.54791C0.143533 3.70516 0.0554559 3.89189 0.0163106 4.08845C-0.0130484 4.25553 -0.0130484 4.48157 0.104388 4.70762L2.02251 8.99263C2.1693 9.36609 2.50204 9.52334 2.65862 9.57248C3.04505 9.70525 3.28743 9.49369 3.60938 9.33203C3.84475 9.21384 4.09311 9.05106 4.31251 8.90418C4.40059 8.84521 4.48866 8.8059 4.57674 8.74693L4.1755 14.9287V14.9386H4.18529V14.9287L4.1755 14.9386C4.13636 15.7543 4.69418 16.4914 5.50644 16.6585C6.55358 16.8649 7.29734 17.769 7.29734 18.8305V19.086C7.29734 19.1548 7.29734 19.2334 7.3267 19.3022C7.3267 19.5071 7.54155 19.7245 7.69858 19.8428C7.86103 19.9243 8.03332 20 8.1879 20H11.6718C11.7991 20 11.9361 19.9803 12.0829 19.9115C12.2199 19.8526 12.3177 19.7641 12.3862 19.6953C12.5917 19.4889 12.6798 19.2236 12.6798 18.9779V18.8206C12.6798 17.7789 13.4138 16.8649 14.4218 16.6486C15.2536 16.4521 15.8506 15.715 15.8017 14.8305V14.8206L15.42 8.68796C15.5081 8.7371 15.6059 8.78624 15.694 8.84521C15.8995 8.97297 16.0757 9.10074 16.2029 9.18919C16.3769 9.33479 16.5644 9.48086 16.7901 9.53317C16.9369 9.56265 17.1228 9.57248 17.3283 9.51351C17.6317 9.41523 17.7981 9.20884 17.8959 9.06142L19.9021 4.64865C20 4.44226 20.0196 4.22604 19.9804 4.02948L20 4.07862ZM13.7661 14.801C12.2297 15.2334 11.0357 16.4619 10.7128 18.0147H9.14696C8.82401 16.4717 7.67901 15.2138 6.12298 14.801L6.59273 7.35135V7.32187C6.59273 7.09582 6.52422 6.81081 6.29914 6.58477C6.07405 6.35872 5.79025 6.28993 5.56516 6.28993H5.50644C4.87033 6.33907 4.22443 6.61425 3.72533 6.87961C3.56875 6.95823 3.43174 7.04668 3.29473 7.13513L2.13994 4.59951C3.84277 3.17445 5.47708 2.5258 6.44593 2.25061C6.94503 3.66585 8.28576 4.68796 9.86136 4.68796C11.437 4.68796 12.807 3.64619 13.3061 2.2113C14.2554 2.46683 15.9485 3.09582 17.7002 4.57985L16.5846 7.09582C16.4476 7.00737 16.3106 6.92875 16.154 6.85012C15.6451 6.58477 15.009 6.31941 14.3729 6.27027H14.3239C14.0988 6.27027 13.815 6.33907 13.59 6.56511C13.3649 6.79115 13.2964 7.07617 13.2964 7.30221V7.32187L13.7661 14.801Z" fill="#3A4757"/>
</svg>