<svg width="10" height="14" viewBox="0 0 10 14" fill="none" xmlns="http://www.w3.org/2000/svg">
<path fill-rule="evenodd" clip-rule="evenodd" d="M4.53488 2.84746C4.08535 2.84746 3.72093 3.21929 3.72093 3.67797V4.62712C3.72093 5.0858 4.08535 5.45763 4.53488 5.45763H7.32558C7.77512 5.45763 8.13953 5.0858 8.13953 4.62712V3.67797C8.13953 3.21929 7.77512 2.84746 7.32558 2.84746H4.53488ZM4.4186 3.67797C4.4186 3.61244 4.47066 3.55932 4.53488 3.55932H7.32558C7.3898 3.55932 7.44186 3.61244 7.44186 3.67797V4.62712C7.44186 4.69264 7.3898 4.74576 7.32558 4.74576H4.53488C4.47066 4.74576 4.4186 4.69264 4.4186 4.62712V3.67797Z" fill="#3A4757"/>
<path fill-rule="evenodd" clip-rule="evenodd" d="M0 0.830509C0 0.371832 0.364419 0 0.813954 0H9.18605C9.63558 0 10 0.371831 10 0.830508V11.7458C10 11.9423 9.84382 12.1017 9.65116 12.1017H9.44298L9.15136 12.6373C9.13185 12.6731 9.13185 12.7167 9.15136 12.7525L9.44298 13.2881H9.65116C9.84382 13.2881 10 13.4475 10 13.6441C10 13.8406 9.84382 14 9.65116 14H0.813954C0.36442 14 0 13.6282 0 13.1695V0.830509ZM9.30233 0.830508V11.3898H2.55814V0.711864H9.18605C9.25027 0.711864 9.30233 0.764983 9.30233 0.830508ZM8.64487 12.1017L8.54148 12.2916C8.40491 12.5424 8.40491 12.8474 8.54148 13.0982L8.64487 13.2881H0.813954C0.749734 13.2881 0.697674 13.235 0.697674 13.1695V12.2203C0.697674 12.1548 0.749734 12.1017 0.813954 12.1017H8.64487ZM0.813954 11.3898C0.774474 11.3898 0.735652 11.3927 0.697674 11.3982V0.830509C0.697674 0.764983 0.749735 0.711864 0.813954 0.711864H1.86047V11.3898H0.813954Z" fill="#3A4757"/>
</svg>