<svg width="15" height="20" viewBox="0 0 15 20" fill="none" xmlns="http://www.w3.org/2000/svg">
<path fill-rule="evenodd" clip-rule="evenodd" d="M0 3.44253C0 1.54118 1.53298 0 3.42391 0H11.5761C13.467 0 15 1.54118 15 3.44253V19.0164C15 19.3994 14.7789 19.7475 14.4333 19.9087C14.0878 20.0698 13.6806 20.0146 13.3898 19.7673L7.5 14.7563L1.61016 19.7673C1.31938 20.0146 0.912215 20.0698 0.56666 19.9087C0.221104 19.7475 0 19.3994 0 19.0164V3.44253ZM3.42391 1.96721C2.61345 1.96721 1.95652 2.62773 1.95652 3.44253V16.8956L6.8681 12.717C7.23284 12.4067 7.76716 12.4067 8.1319 12.717L13.0435 16.8956V3.44253C13.0435 2.62773 12.3865 1.96721 11.5761 1.96721H3.42391Z" fill="#3A4757"/>
</svg>