<svg width="16" height="20" viewBox="0 0 16 20" fill="none" xmlns="http://www.w3.org/2000/svg">
<path fill-rule="evenodd" clip-rule="evenodd" d="M15.3506 15.1249C15.7647 14.6753 16 14.0759 16 13.4466V2.37762C16 1.74825 15.7647 1.14885 15.3506 0.699301C14.9365 0.24975 14.3718 0 13.7788 0H2.87059C2.11765 0 1.40235 0.31968 0.865882 0.879121C0.329412 1.43856 0.0188235 2.1978 0 2.997C0 2.997 0 3.01698 0 3.02697V16.8631C0 16.8631 0 16.8731 0 16.8831C0 16.8931 0 16.9031 0 16.9231C0 17.7323 0.301176 18.5115 0.837647 19.0909C1.37412 19.6703 2.10824 20 2.87059 20H15.0588C15.5765 20 16 19.5504 16 19.001C16 18.4515 15.5765 18.002 15.0588 18.002H14.72V15.6144C14.9553 15.4945 15.1718 15.3447 15.36 15.1449L15.3506 15.1249ZM1.88235 3.03696C1.89176 2.75724 2.00471 2.4975 2.18353 2.2977C2.37176 2.10789 2.61647 1.998 2.86118 1.998H13.7694C13.8541 1.998 13.9388 2.03796 14.0047 2.10789C14.0706 2.17782 14.1082 2.27772 14.1082 2.38761V13.4565C14.1082 13.5664 14.0706 13.6663 14.0047 13.7363C13.9388 13.8062 13.8541 13.8462 13.7694 13.8462H2.87059C2.53176 13.8462 2.20235 13.9061 1.88235 14.036V3.03696ZM2.87059 17.982C2.61647 17.982 2.36235 17.8721 2.18353 17.6723C1.99529 17.4725 1.89176 17.1928 1.89176 16.9031C1.89176 16.6134 1.99529 16.3337 2.18353 16.1339C2.37176 15.9341 2.61647 15.8242 2.87059 15.8242H12.8376V17.972H2.87059V17.982Z" fill="#3A4757"/>
</svg>