<svg width="15" height="16" viewBox="0 0 15 16" fill="none" xmlns="http://www.w3.org/2000/svg">
<path d="M0.0287692 7.9543C0.0677712 8.03237 0.136227 8.09478 0.217642 8.12285L0.983369 8.38174V14.034C0.983369 14.1744 1.08442 14.2992 1.22774 14.3366L7.41528 15.8964C7.44133 15.9026 7.47064 15.9058 7.49669 15.9058H7.49996C7.52601 15.9058 7.55533 15.9026 7.58137 15.8964L13.7721 14.3366C13.9157 14.2992 14.0167 14.1775 14.0167 14.034L14.0134 8.38174L14.7824 8.11972C14.8671 8.09165 14.9355 8.02924 14.9714 7.9513C15.0073 7.87336 15.0105 7.78288 14.9747 7.70481L14.0298 5.51192L14.9747 3.31902C15.0073 3.24108 15.0073 3.1506 14.9714 3.07253C14.9355 2.99459 14.8671 2.93532 14.7824 2.90412L8.9108 0.926487C8.76093 0.876615 8.5947 0.935887 8.51984 1.06683L7.49993 2.79497L6.4833 1.06369C6.40516 0.932613 6.23893 0.873474 6.09234 0.923346L0.2176 2.91351C0.132914 2.94158 0.0644578 3.00398 0.0285907 3.08192C-0.00727285 3.15986 -0.0105475 3.25034 0.0253178 3.32841L0.970206 5.52131L0.0253178 7.71421C-0.0071381 7.78901 -0.00713809 7.87636 0.0287271 7.95429L0.0287692 7.9543ZM1.63507 13.7937V8.60001L6.09244 10.1097C6.12831 10.1223 6.16417 10.1284 6.1999 10.1284C6.31391 10.1284 6.42477 10.0691 6.48341 9.96926L7.17412 8.79636L7.17084 15.1879L1.63507 13.7937ZM7.50004 3.76188L12.6972 5.51809L7.50004 7.2743L2.30291 5.51809L7.50004 3.76188ZM13.3619 13.7937L7.81947 15.1912L7.82274 8.79024L8.51672 9.9694C8.57536 10.0693 8.6861 10.1285 8.80024 10.1285C8.8361 10.1285 8.87197 10.1223 8.90769 10.1099L13.3584 8.60329L13.3619 13.7937ZM13.678 7.83565C13.6128 7.83879 13.5541 7.86059 13.5053 7.89492L8.9502 9.43583L7.9727 7.77638L13.4924 5.91091L14.2386 7.64533L13.678 7.83565ZM8.95003 1.60017L14.2383 3.3907L13.4921 5.12512L7.97551 3.25965L8.95003 1.60017ZM6.05002 1.60017L7.02751 3.25962L1.50781 5.12495L0.7616 3.39053L6.05002 1.60017ZM1.50781 5.9109L7.02751 7.77623L6.05002 9.43569L1.48512 7.88849C1.43944 7.86042 1.39062 7.84176 1.33525 7.83862L0.761809 7.64527L1.50781 5.9109Z" fill="#3A4757"/>
</svg>