<svg width="15" height="15" viewBox="0 0 15 15" fill="none" xmlns="http://www.w3.org/2000/svg">
<path d="M0.0287692 7.04854C0.0677712 7.12661 0.136227 7.18901 0.217642 7.21708L0.983369 7.47597V13.1283C0.983369 13.2686 1.08442 13.3934 1.22774 13.4309L7.41528 14.9906C7.44133 14.9969 7.47064 15 7.49669 15H7.49996C7.52601 15 7.55533 14.9969 7.58137 14.9906L13.7721 13.4309C13.9157 13.3934 14.0167 13.2717 14.0167 13.1283L14.0134 7.47597L14.7824 7.21395C14.8671 7.18588 14.9355 7.12348 14.9714 7.04554C15.0073 6.9676 15.0105 6.87712 14.9747 6.79905L14.0298 4.60615L14.9747 2.41326C15.0073 2.33532 15.0073 2.24484 14.9714 2.16677C14.9355 2.08883 14.8671 2.02956 14.7824 1.99835L8.9108 0.0207255C8.76093 -0.0291463 8.5947 0.0301254 8.51984 0.16107L7.49993 1.88921L6.4833 0.157928C6.40516 0.0268517 6.23893 -0.032288 6.09234 0.0175838L0.2176 2.00775C0.132914 2.03582 0.0644578 2.09822 0.0285907 2.17616C-0.00727285 2.2541 -0.0105475 2.34458 0.0253178 2.42265L0.970206 4.61555L0.0253178 6.80844C-0.0071381 6.88325 -0.00713809 6.97059 0.0287271 7.04853L0.0287692 7.04854ZM1.63507 12.888V7.69425L6.09244 9.20397C6.12831 9.21651 6.16417 9.22264 6.1999 9.22264C6.31391 9.22264 6.42477 9.16337 6.48341 9.0635L7.17412 7.89059L7.17084 14.2822L1.63507 12.888ZM7.50004 2.85612L12.6972 4.61233L7.50004 6.36854L2.30291 4.61233L7.50004 2.85612ZM13.3619 12.888L7.81947 14.2854L7.82274 7.88448L8.51672 9.06363C8.57536 9.16351 8.6861 9.22278 8.80024 9.22278C8.8361 9.22278 8.87197 9.21651 8.90769 9.20411L13.3584 7.69753L13.3619 12.888ZM13.678 6.92989C13.6128 6.93303 13.5541 6.95483 13.5053 6.98916L8.9502 8.53007L7.9727 6.87062L13.4924 5.00515L14.2386 6.73957L13.678 6.92989ZM8.95003 0.694403L14.2383 2.48494L13.4921 4.21936L7.97551 2.35389L8.95003 0.694403ZM6.05002 0.694403L7.02751 2.35386L1.50781 4.21919L0.7616 2.48477L6.05002 0.694403ZM1.50781 5.00514L7.02751 6.87047L6.05002 8.52992L1.48512 6.98273C1.43944 6.95466 1.39062 6.936 1.33525 6.93286L0.761809 6.73951L1.50781 5.00514Z" fill="#3A4757"/>
</svg>