<svg width="22" height="20" viewBox="0 0 22 20" fill="none" xmlns="http://www.w3.org/2000/svg">
<path d="M19.8776 0H7.54612C6.34978 0 5.3375 0.998821 5.3375 2.17924V2.72406H2.20862C1.01228 2.72406 0 3.72288 0 4.9033V17.0708C0 18.2512 1.01228 19.25 2.20862 19.25H14.5401C15.7364 19.25 16.7487 18.2512 16.7487 17.0708V16.5259H19.7856C20.9819 16.5259 21.9942 15.5271 21.9942 14.3467V2.17924C22.0862 0.908019 21.0739 0 19.8776 0ZM12.5155 2.17924H14.8162V6.08373H12.5155V2.17924ZM14.5401 17.0708H2.20862V4.9033H5.24547V14.3467C5.24547 15.5271 6.25776 16.5259 7.45409 16.5259H14.5401V17.0708ZM19.8776 14.3467H7.54612V2.17924H10.3989V6.62854C10.3989 7.08255 10.583 7.44575 10.8591 7.80896C11.1351 8.17217 11.5953 8.26297 12.0554 8.26297H15.4603C15.9205 8.26297 16.2886 8.08137 16.6567 7.80896C16.8407 7.44575 17.0248 6.99174 17.0248 6.53774V2.17924H19.8776V14.3467Z" fill="#3A4757"/>
<path d="M18.1291 11.6226H15.3683C14.7241 11.6226 14.264 12.0767 14.264 12.7123C14.264 13.3479 14.7241 13.8019 15.3683 13.8019H18.1291C18.7733 13.8019 19.2334 13.3479 19.2334 12.7123C19.2334 12.0767 18.7733 11.6226 18.1291 11.6226Z" fill="#3A4757"/>
</svg>