<svg width="22" height="20" viewBox="0 0 22 20" fill="none" xmlns="http://www.w3.org/2000/svg">
<path d="M19.8776 0.375H7.54612C6.34978 0.375 5.3375 1.37382 5.3375 2.55424V3.09906H2.20862C1.01228 3.09906 0 4.09788 0 5.2783V17.4458C0 18.6262 1.01228 19.625 2.20862 19.625H14.5401C15.7364 19.625 16.7487 18.6262 16.7487 17.4458V16.9009H19.7856C20.9819 16.9009 21.9942 15.9021 21.9942 14.7217V2.55424C22.0862 1.28302 21.0739 0.375 19.8776 0.375ZM12.5155 2.55424H14.8162V6.45873H12.5155V2.55424ZM14.5401 17.4458H2.20862V5.2783H5.24547V14.7217C5.24547 15.9021 6.25776 16.9009 7.45409 16.9009H14.5401V17.4458ZM19.8776 14.7217H7.54612V2.55424H10.3989V7.00354C10.3989 7.45755 10.583 7.82075 10.8591 8.18396C11.1351 8.54717 11.5953 8.63797 12.0554 8.63797H15.4603C15.9205 8.63797 16.2886 8.45637 16.6567 8.18396C16.8407 7.82075 17.0248 7.36674 17.0248 6.91274V2.55424H19.8776V14.7217Z" fill="#3A4757"/>
<path d="M18.1291 11.9976H15.3683C14.7241 11.9976 14.264 12.4517 14.264 13.0873C14.264 13.7229 14.7241 14.1769 15.3683 14.1769H18.1291C18.7733 14.1769 19.2334 13.7229 19.2334 13.0873C19.2334 12.4517 18.7733 11.9976 18.1291 11.9976Z" fill="#3A4757"/>
</svg>