<svg width="20" height="20" viewBox="0 0 20 20" fill="none" xmlns="http://www.w3.org/2000/svg">
<path d="M0 7.69499V17.5686C0 18.2135 0.24295 18.78 0.72885 19.268C1.12798 19.6688 1.77874 20 2.42082 20H17.5792C18.2213 20 18.7852 19.756 19.2712 19.268C19.6703 18.8671 20 18.2135 20 17.5686V7.69499H0ZM12.0087 14.5795H15.4707C16.0347 14.5795 16.4338 14.9804 16.4338 15.5468C16.4338 16.1133 16.0347 16.5142 15.4707 16.5142H12.0087C11.4447 16.5142 11.0456 16.1133 11.0456 15.5468C11.0456 14.9804 11.4447 14.5795 12.0087 14.5795Z" fill="#3A4757"/>
<path d="M8.94577 0H5.39696C4.75488 0.0784314 4.02603 0.244009 3.46204 0.64488C2.89805 0.96732 2.49892 1.45534 2.1692 2.10022L0.390456 5.46405H8.94577V0Z" fill="#3A4757"/>
<path d="M17.7354 2.10893C17.4143 1.46405 16.9284 0.976035 16.3644 0.566449C15.8004 0.165577 15.0716 0 14.4295 0H10.8807V5.46405H19.4447L17.7354 2.10022V2.10893Z" fill="#3A4757"/>
</svg>