<svg width="20" height="20" viewBox="0 0 20 20" fill="none" xmlns="http://www.w3.org/2000/svg">
<path fill-rule="evenodd" clip-rule="evenodd" d="M12.07 16.525H15.5435C16.085 16.525 16.5181 16.0917 16.5181 15.55C16.5181 15.0083 16.085 14.575 15.5435 14.575H12.07C11.5285 14.575 11.0954 15.0083 11.0954 15.55C11.0954 16.0917 11.5285 16.525 12.07 16.525Z" fill="#3A4757"/>
<path fill-rule="evenodd" clip-rule="evenodd" d="M19.975 6.5C19.975 6.43333 19.95 6.375 19.9334 6.31667C19.9167 6.25 19.9084 6.18333 19.8834 6.125C19.8834 6.11667 19.8834 6.10833 19.8834 6.09167L17.8759 2.08333C17.5677 1.45833 17.0845 0.933333 16.4931 0.566667C15.9017 0.2 15.2187 0 14.519 0H5.46439C5.46439 0 5.44773 0 5.4394 0C4.75635 0.0166667 4.08996 0.216667 3.5152 0.591667C2.94044 0.958333 2.4823 1.46667 2.17409 2.075L0.0999583 6.08333C0.0999583 6.08333 0.0999583 6.10833 0.0916285 6.11667C0.0666389 6.175 0.058309 6.23333 0.0416493 6.3C0.0249896 6.36667 0.00832986 6.425 0 6.49167C0 6.50833 0 6.51667 0 6.525V17.6333C0 18.2583 0.249896 18.8583 0.691379 19.3083C1.13286 19.7583 1.73261 20 2.36568 20H17.6343C18.2591 20 18.8588 19.75 19.3086 19.3083C19.7501 18.8667 20 18.2667 20 17.6333V6.525C20 6.525 20 6.50833 20 6.49167L19.975 6.5ZM15.4602 2.225C15.7434 2.4 15.9767 2.65 16.1266 2.95833L17.4344 5.55833H10.9704V1.95H14.519C14.8521 1.95 15.1853 2.04167 15.4686 2.21667L15.4602 2.225ZM3.91504 2.96667V2.95C4.06497 2.65833 4.28988 2.40833 4.56476 2.23333C4.83965 2.05833 5.15618 1.95833 5.47272 1.95H9.00458V5.55H2.57393L3.91504 2.96667ZM18.0342 17.6333C18.0342 17.7417 17.9925 17.85 17.9092 17.925C17.8342 18 17.7259 18.05 17.6177 18.05H2.35735C2.24906 18.05 2.14077 18.0083 2.06581 17.925C1.99084 17.85 1.94086 17.7417 1.94086 17.6333V7.5H18.0342V17.6333Z" fill="#3A4757"/>
</svg>