<svg width="15" height="15" viewBox="0 0 15 15" fill="none" xmlns="http://www.w3.org/2000/svg">
<path fill-rule="evenodd" clip-rule="evenodd" d="M13.9145 0C14.5027 0 15 0.49729 15 1.08621V6.67241C15 6.93473 14.8714 7.23177 14.6719 7.43054L7.43017 14.6712C7.25652 14.8766 6.97202 15 6.67274 15C6.41041 15 6.11336 14.8714 5.91458 14.6712L0.328834 9.08571C0.111582 8.90025 0 8.64458 0 8.32759C0 8.06601 0.128578 7.76897 0.328834 7.5702L7.57057 0.328079C7.75605 0.110837 8.01099 0 8.328 0H13.9145ZM13.9145 0.812808H8.328C8.22085 0.812808 8.18168 0.840886 8.15434 0.882266L0.897828 8.1399C0.832061 8.18571 0.812109 8.23301 0.812109 8.32759C0.812109 8.43399 0.840189 8.47463 0.881571 8.50197L6.45623 14.1022C6.50574 14.151 6.5789 14.1798 6.65722 14.1798C6.73703 14.1798 6.81019 14.151 6.86118 14.1022L14.1022 6.86084C14.1679 6.81502 14.1886 6.76773 14.1886 6.67241V1.08621C14.1886 0.94064 14.0601 0.812808 13.9145 0.812808ZM5.87334 4.81788C5.98049 4.81788 6.08173 4.86074 6.15932 4.93906L10.061 8.84128C10.1401 8.91887 10.1837 9.0201 10.1837 9.12576C10.1837 9.23217 10.1401 9.3334 10.061 9.41098C9.97231 9.49965 9.85186 9.53143 9.77649 9.53143C9.69447 9.53143 9.57476 9.49448 9.49126 9.41172L5.59032 5.50951C5.51052 5.43118 5.4684 5.32921 5.46913 5.22355C5.46913 5.11788 5.51126 5.01665 5.59032 4.93906C5.66644 4.86148 5.76767 4.81862 5.87334 4.81788ZM6.93854 3.72399C7.04495 3.72399 7.14619 3.76685 7.22378 3.84591L11.1255 7.74739C11.203 7.82424 11.2466 7.92547 11.2466 8.03113C11.2474 8.13754 11.2045 8.23951 11.1255 8.31709C11.0419 8.40059 10.9222 8.43828 10.841 8.43828C10.7582 8.43828 10.6385 8.40059 10.5557 8.31709L6.65405 4.41635C6.57424 4.33729 6.53212 4.23606 6.53285 4.12965C6.53285 4.02473 6.57498 3.9235 6.65405 3.84517C6.73164 3.76685 6.83287 3.72399 6.93854 3.72399ZM10.6151 2.6035C11.0983 2.11951 11.9097 2.11951 12.4233 2.60202C12.6664 2.87837 12.7831 3.17394 12.7831 3.51015C12.7831 3.86409 12.656 4.18626 12.4255 4.41606C12.1624 4.64734 11.8417 4.77369 11.5203 4.77369C11.1611 4.77369 10.8478 4.6503 10.6151 4.41606C10.383 4.15227 10.2567 3.83158 10.2567 3.51015C10.2567 3.15547 10.3838 2.8333 10.6151 2.6035ZM11.4907 3.05941C11.4131 3.05941 11.2919 3.09709 11.184 3.20424C11.0909 3.27591 11.0392 3.38601 11.0392 3.51015C11.0392 3.62246 11.0828 3.71409 11.184 3.81606C11.3703 3.97788 11.6585 3.9801 11.8232 3.81902C11.9053 3.70818 11.9422 3.61433 11.9422 3.51015C11.9422 3.39783 11.8986 3.30621 11.7966 3.20424C11.7242 3.10892 11.5853 3.05941 11.4907 3.05941Z" fill="#3A4757"/>
</svg>