<svg width="15" height="14" viewBox="0 0 15 14" fill="none" xmlns="http://www.w3.org/2000/svg">
<path fill-rule="evenodd" clip-rule="evenodd" d="M8.625 0C9.66053 0 10.5 0.824739 10.5 1.84211V2.94737H13.2143C14.1611 2.94737 14.9357 3.70745 14.9962 4.66835L15 4.78947V12.1579C15 13.1753 14.2005 14 13.2143 14H1.78571C0.799492 14 0 13.1753 0 12.1579V4.78947C0 3.77211 0.799492 2.94737 1.78571 2.94737H4.5V1.84211C4.5 0.865433 5.27365 0.0662873 6.25172 0.0039183L6.375 0H8.625ZM5.25 7.36842H0.714L0.714286 12.1579C0.714286 12.7324 1.13921 13.2045 1.68253 13.2581L1.78571 13.2632H13.2143C13.806 13.2632 14.2857 12.7683 14.2857 12.1579L14.2853 7.36842H9.75V8.53509C9.75 8.68581 9.61734 8.81116 9.44241 8.83716L9.375 8.8421H5.625C5.41789 8.8421 5.25 8.70465 5.25 8.53509V7.36842ZM9 7.36842H6V8.10526H9V7.36842ZM13.2143 3.68421H1.78571C1.19398 3.68421 0.714286 4.17905 0.714286 4.78947L0.714 6.63158H5.25V5.46491C5.25 5.31419 5.38266 5.18884 5.55759 5.16284L5.625 5.15789H9.375C9.58211 5.15789 9.75 5.29535 9.75 5.46491V6.63158H14.2853L14.2857 4.78947C14.2857 4.21496 13.8608 3.74283 13.3175 3.68927L13.2143 3.68421ZM9 5.89474H6V6.63158H9V5.89474ZM8.625 0.736842H6.375C5.75368 0.736842 5.25 1.23169 5.25 1.84211V2.94737H9.75V1.84211C9.75 1.26759 9.30383 0.795459 8.73335 0.741902L8.625 0.736842Z" fill="#3A4757"/>
</svg>