<svg width="20" height="18" viewBox="0 0 20 18" fill="none" xmlns="http://www.w3.org/2000/svg">
<path fill-rule="evenodd" clip-rule="evenodd" d="M17.6323 4.02556H15.0396C14.8479 3.05614 14.356 2.16066 13.6307 1.45413C12.6636 0.525787 11.3631 0 9.99583 0C8.6286 0 7.32805 0.525787 6.36098 1.45413C5.62734 2.16066 5.14381 3.06435 4.95206 4.02556H2.35932C1.05877 4.02556 0 5.04427 0 6.30945V15.7161C0 16.9813 1.05877 18 2.35932 18H17.6407C18.9412 18 20 16.9813 20 15.7161V6.30945C20 5.04427 18.9412 4.02556 17.6407 4.02556H17.6323ZM7.72822 2.78503C8.32847 2.20173 9.13714 1.88133 9.98749 1.88133C10.8378 1.88133 11.6465 2.20995 12.2468 2.78503C12.6053 3.13829 12.8637 3.5655 13.0138 4.02556H6.9529C7.10296 3.5655 7.3614 3.13008 7.71988 2.78503H7.72822ZM2.34264 5.90689H17.624C17.8574 5.90689 18.0408 6.08763 18.0408 6.30945V9.39845H10.9546V8.99589C10.9546 8.47832 10.521 8.05933 9.97916 8.05933C9.43726 8.05933 9.00375 8.47832 9.00375 8.99589V9.39845H1.9258V6.30945C1.9258 6.08763 2.10921 5.90689 2.34264 5.90689ZM17.624 16.1187H2.34264C2.10921 16.1187 1.9258 15.9379 1.9258 15.7161V11.2798H9.01209V11.6823C9.01209 12.1999 9.4456 12.6189 9.98749 12.6189C10.5294 12.6189 10.9629 12.1999 10.9629 11.6823V11.2798H18.0492V15.7161C18.0492 15.9379 17.8658 16.1187 17.6323 16.1187H17.624Z" fill="#3A4757"/>
</svg>