<svg width="20" height="20" viewBox="0 0 20 20" fill="none" xmlns="http://www.w3.org/2000/svg">
<path d="M10.3839 8.73496C10.264 8.68493 10.1341 8.65491 9.99428 8.65491C9.85443 8.65491 9.72457 8.68493 9.60469 8.73496C9.05527 8.90505 8.64571 9.39533 8.64571 10.0057C8.64571 10.616 9.05527 11.1063 9.60469 11.2764C9.72457 11.3264 9.85443 11.3564 9.99428 11.3564C10.1341 11.3564 10.264 11.3264 10.3839 11.2764C10.9333 11.1063 11.3429 10.616 11.3429 10.0057C11.3429 9.39533 10.9333 8.90505 10.3839 8.73496Z" fill="#3A4757"/>
<path d="M6.54792 8.73496C6.42804 8.68493 6.29818 8.65491 6.15833 8.65491C6.01848 8.65491 5.88861 8.68493 5.76874 8.73496C5.21932 8.90505 4.80975 9.39533 4.80975 10.0057C4.80975 10.616 5.21932 11.1063 5.76874 11.2764C5.88861 11.3264 6.01848 11.3564 6.15833 11.3564C6.29818 11.3564 6.42804 11.3264 6.54792 11.2764C7.09734 11.1063 7.50691 10.616 7.50691 10.0057C7.50691 9.39533 7.09734 8.90505 6.54792 8.73496Z" fill="#3A4757"/>
<path d="M14.2198 8.73496C14.1 8.68493 13.9701 8.65491 13.8302 8.65491C13.6904 8.65491 13.5605 8.68493 13.4407 8.73496C12.8912 8.90505 12.4817 9.39533 12.4817 10.0057C12.4817 10.616 12.8912 11.1063 13.4407 11.2764C13.5605 11.3264 13.6904 11.3564 13.8302 11.3564C13.9701 11.3564 14.1 11.3264 14.2198 11.2764C14.7692 11.1063 15.1788 10.616 15.1788 10.0057C15.1788 9.39533 14.7692 8.90505 14.2198 8.73496Z" fill="#3A4757"/>
<path d="M19.734 7.79442C19.4044 6.33359 18.7351 4.9428 17.806 3.77214C16.877 2.60148 15.6683 1.64093 14.3297 0.990562C12.9811 0.340193 11.4827 0 9.98429 0C8.1762 0 6.40806 0.490278 4.8597 1.42081C3.31133 2.35133 2.04267 3.68209 1.18357 5.283C0.334467 6.8739 -0.0651116 8.67492 0.0148042 10.4759C0.0947199 12.1069 0.564225 13.6978 1.39335 15.0986L0.0647515 18.6506C-0.0651116 18.9908 0.00481471 19.371 0.234572 19.6411C0.46433 19.9213 0.823951 20.0514 1.18357 19.9813L5.91858 19.1209C7.17725 19.6812 8.56579 19.9913 9.95433 19.9913H10.0043C11.4827 19.9913 12.9711 19.6512 14.2997 19.0208C15.6483 18.3804 16.857 17.4199 17.7961 16.2492C18.7351 15.0786 19.4044 13.6978 19.744 12.2369C20.0836 10.7761 20.0836 9.23524 19.754 7.77441L19.734 7.79442ZM17.7761 11.8067C17.5064 12.9774 16.9669 14.078 16.2177 15.0185C15.4685 15.9491 14.4995 16.7195 13.4207 17.2298C12.3418 17.7401 11.1331 18.0202 9.94434 18.0102C8.7456 18.0102 7.54686 17.7201 6.47799 17.1998C6.33814 17.1297 6.1883 17.0997 6.03845 17.0997C5.97852 17.0997 5.91858 17.0997 5.85864 17.1197L2.54214 17.7201L3.4312 15.3487C3.54109 15.0485 3.50113 14.7083 3.33131 14.4382C2.53215 13.2375 2.07263 11.8367 2.00271 10.3859C1.93278 8.94508 2.26243 7.50426 2.94172 6.22353C3.621 4.9428 4.63993 3.8822 5.87862 3.14178C8.13624 1.78101 11.0731 1.65094 13.4506 2.80159C14.5295 3.32189 15.4885 4.09232 16.2377 5.02285C16.9869 5.96338 17.5164 7.07401 17.7761 8.23467C18.0358 9.40534 18.0358 10.636 17.7761 11.8067Z" fill="#3A4757"/>
</svg>