<svg width="24" height="24" viewBox="0 0 24 24" fill="none" xmlns="http://www.w3.org/2000/svg">
<path d="M21.7422 9.79C21.4124 8.33 20.7426 6.94 19.813 5.77C18.8834 4.6 17.6838 3.64 16.3344 2.99C14.9949 2.34 13.4955 2 11.9961 2C10.1868 2 8.40749 2.49 6.8481 3.42C5.29871 4.35 4.02921 5.69 3.17954 7.28C2.33988 8.88 1.93004 10.67 2.02 12.48C2.09997 14.11 2.57978 15.7 3.38946 17.11L2.05999 20.66C1.94003 20.99 2.00001 21.37 2.22992 21.65C2.45983 21.92 2.82968 22.05 3.17954 21.99L7.91768 21.13C9.18718 21.69 10.5766 22 11.9561 22H12.0161C13.4955 22 14.9849 21.67 16.3144 21.03C17.6538 20.38 18.8634 19.43 19.803 18.26C20.7426 17.09 21.4124 15.71 21.7522 14.25C22.0821 12.79 22.0821 11.25 21.7522 9.79H21.7422ZM19.793 13.8C19.5231 14.97 18.9833 16.08 18.2336 17.01C17.4839 17.94 16.5143 18.71 15.4347 19.22C14.3551 19.74 13.1256 20.01 11.9561 20C10.7666 20 9.56703 19.71 8.48745 19.19C8.34751 19.12 8.19757 19.09 8.04763 19.09C7.98765 19.08 7.92768 19.09 7.8677 19.1L4.54901 19.7L5.43866 17.33C5.55861 17.02 5.51862 16.69 5.33869 16.42C4.53901 15.22 4.07919 13.82 4.00922 12.37C3.93925 10.92 4.26912 9.49 4.94885 8.21C5.62858 6.94 6.64818 5.87 7.88769 5.13C10.1568 3.78 13.0856 3.65 15.4647 4.79C16.5443 5.31 17.5139 6.07 18.2536 7.01C18.9933 7.95 19.5331 9.06 19.793 10.23C20.0629 11.4 20.0629 12.63 19.793 13.8Z" fill="#3A4757"/>
<path d="M15.7646 8.5C15.4347 8.5 15.1148 8.63 14.8849 8.85L10.7366 12.77L9.10721 11.23C8.8773 11.01 8.55743 10.88 8.22756 10.88C7.89769 10.88 7.57781 11.01 7.3479 11.23C6.88808 11.67 6.88808 12.35 7.3479 12.78L9.85692 15.16C10.0868 15.38 10.4067 15.51 10.7366 15.51C11.0664 15.51 11.3863 15.38 11.6162 15.16L16.6442 10.41C17.1041 9.97 17.1041 9.29 16.6442 8.86C16.4143 8.64 16.0945 8.51 15.7646 8.51V8.5Z" fill="#3A4757"/>
</svg>