<svg width="20" height="20" viewBox="0 0 20 20" fill="none" xmlns="http://www.w3.org/2000/svg">
<path fill-rule="evenodd" clip-rule="evenodd" d="M9.99705 1.61407e-06C11.5016 -0.000853353 12.9868 0.337958 14.3422 0.991188C15.6977 1.64444 16.8883 2.59531 17.8251 3.77287C18.762 4.95044 19.4211 6.32435 19.7534 7.79219C20.0855 9.26004 20.0822 10.7839 19.7436 12.2503C19.405 13.7167 18.7399 15.0877 17.7979 16.2612C16.8559 17.4347 15.6612 18.3803 14.3029 19.0277C12.9446 19.675 11.4578 20.0074 9.95325 19.9999C8.5286 19.9928 7.12285 19.6813 5.82988 19.0872L0.84678 19.9885C0.592182 20.0345 0.332484 19.9402 0.166784 19.7414C0.00108238 19.5427 -0.0450569 19.2702 0.0459713 19.028L1.47539 15.2239C0.597885 13.7911 0.0943659 12.1583 0.0142273 10.4759C-0.0718387 8.66912 0.333654 6.87279 1.18752 5.27827C2.04138 3.68375 3.31163 2.35076 4.86299 1.42125C6.41427 0.491791 8.18876 0.000604171 9.99705 1.61407e-06ZM10.9615 10.4548C10.9615 11.0072 10.5288 11.4593 10 11.4593C9.47115 11.4593 9.03846 11.0072 9.03846 10.4548V6.25593C9.03846 5.70346 9.47115 5.25143 10 5.25143C10.5288 5.25143 10.9615 5.70346 10.9615 6.25593V10.4548ZM8.75 13.4482C8.75 12.7249 9.30769 12.1423 10 12.1423C10.6923 12.1423 11.25 12.7249 11.25 13.4482C11.25 14.1714 10.6923 14.754 10 14.754C9.30769 14.754 8.75 14.1714 8.75 13.4482Z" fill="#3A4757"/>
</svg>