<svg width="20" height="20" viewBox="0 0 20 20" fill="none" xmlns="http://www.w3.org/2000/svg">
<path d="M19.7422 7.79C19.4124 6.33 18.7426 4.94 17.813 3.77C16.8834 2.6 15.6838 1.64 14.3344 0.99C12.9949 0.34 11.4955 0 9.99607 0C8.18679 0 6.40749 0.49 4.8481 1.42C3.29871 2.35 2.02921 3.69 1.17954 5.28C0.339875 6.88 -0.0699632 8.67 0.0200014 10.48C0.0999699 12.11 0.579781 13.7 1.38946 15.11L0.0599856 18.66C-0.0599671 18.99 9.25479e-06 19.37 0.229919 19.65C0.459828 19.92 0.829683 20.05 1.17954 19.99L5.91768 19.13C7.18718 19.69 8.57663 20 9.95609 20H10.0161C11.4955 20 12.9849 19.67 14.3144 19.03C15.6538 18.38 16.8634 17.43 17.803 16.26C18.7426 15.09 19.4124 13.71 19.7522 12.25C20.0821 10.79 20.0821 9.25 19.7522 7.79H19.7422ZM17.793 11.8C17.5231 12.97 16.9833 14.08 16.2336 15.01C15.4839 15.94 14.5143 16.71 13.4347 17.22C12.3551 17.74 11.1256 18.01 9.95609 18C8.76656 18 7.56703 17.71 6.48745 17.19C6.34751 17.12 6.19757 17.09 6.04763 17.09C5.98765 17.08 5.92768 17.09 5.8677 17.1L2.54901 17.7L3.43866 15.33C3.55861 15.02 3.51862 14.69 3.33869 14.42C2.53901 13.22 2.07919 11.82 2.00922 10.37C1.93925 8.92 2.26912 7.49 2.94885 6.21C3.62858 4.94 4.64818 3.87 5.88769 3.13C8.1568 1.78 11.0856 1.65 13.4647 2.79C14.5443 3.31 15.5139 4.07 16.2536 5.01C16.9933 5.95 17.5331 7.06 17.793 8.23C18.0629 9.4 18.0629 10.63 17.793 11.8Z" fill="#3A4757"/>
<path d="M13.7646 6.5C13.4347 6.5 13.1148 6.63 12.8849 6.85L8.73657 10.77L7.10721 9.23C6.8773 9.01 6.55743 8.88 6.22756 8.88C5.89769 8.88 5.57781 9.01 5.3479 9.23C4.88808 9.67 4.88808 10.35 5.3479 10.78L7.85692 13.16C8.08683 13.38 8.4067 13.51 8.73657 13.51C9.06644 13.51 9.38631 13.38 9.61622 13.16L14.6442 8.41C15.1041 7.97 15.1041 7.29 14.6442 6.86C14.4143 6.64 14.0945 6.51 13.7646 6.51V6.5Z" fill="#3A4757"/>
</svg>