<svg width="20" height="20" viewBox="0 0 20 20" fill="none" xmlns="http://www.w3.org/2000/svg">
<path fill-rule="evenodd" clip-rule="evenodd" d="M7.87884 1.71768e-06C5.78926 1.71768e-06 3.78525 0.830091 2.30768 2.30765C0.830124 3.78522 3.92071e-05 5.78921 3.92071e-05 7.87881C-0.00488127 9.42966 0.453442 10.9466 1.31626 12.2353L0.263525 15.0525C0.147238 15.3637 0.41391 15.6831 0.740869 15.6244L4.4307 14.9605C4.79716 15.1391 5.17586 15.2887 5.56326 15.4081C5.42838 14.8175 5.35714 14.2028 5.35714 13.5714C5.35714 9.03478 9.03479 5.35713 13.5714 5.35713C14.2054 5.35713 14.8227 5.42896 15.4154 5.56493C15.1264 4.62396 14.663 3.74376 14.0476 2.97096C13.3091 2.04357 12.3709 1.29477 11.3028 0.780368C10.2347 0.265965 9.06433 -0.000781023 7.87884 1.71768e-06ZM18.1174 9.02572C16.9117 7.82014 15.2765 7.14284 13.5716 7.14284C12.6044 7.1422 11.6494 7.35985 10.7779 7.77956C9.90646 8.19928 9.14093 8.81025 8.5384 9.56693C7.93586 10.3236 7.51185 11.2065 7.29797 12.1499C7.08408 13.0932 7.08581 14.0726 7.30306 15.0152C7.52031 15.9578 7.94745 16.8392 8.55268 17.5937C9.1579 18.3482 9.9256 18.9565 10.7986 19.3731C11.6715 19.7897 12.6273 20.0039 13.5945 19.9999C14.5618 19.9958 15.5157 19.7735 16.3851 19.3495L19.2594 19.8667C19.5864 19.9255 19.8529 19.6061 19.7367 19.2948L18.9262 17.126C19.6302 16.0745 20.0042 14.8368 20.0002 13.5714C20.0002 11.8664 19.3229 10.2313 18.1174 9.02572Z" fill="#3A4757"/>
</svg>