<svg width="20" height="20" viewBox="0 0 20 20" fill="none" xmlns="http://www.w3.org/2000/svg">
<path fill-rule="evenodd" clip-rule="evenodd" d="M19.776 7.7939C19.4457 6.33317 18.7749 4.94247 17.8439 3.77189C16.9129 2.6013 15.7016 1.64082 14.3602 0.990495C13.0188 0.34017 11.5172 0 10.0155 0C8.20361 0 6.43171 0.490245 4.88005 1.42071C3.32839 2.35118 2.05702 3.68184 1.1961 5.28264C0.335179 6.88344 -0.0652501 8.67434 0.0148357 10.4752C0.0949215 12.1061 0.565425 13.6968 1.39632 15.0976L0.0648893 18.6493C-0.0652501 18.9895 0.00482495 19.3697 0.235072 19.6398C0.425275 19.8699 0.705576 20 1.0059 20C1.06596 20 1.12603 20 1.18609 19.98L5.93117 19.1196C7.20254 19.6898 8.58401 19.99 9.97551 19.99H10.0256C11.5071 19.99 12.9887 19.6598 14.3302 19.0195C15.6816 18.3792 16.8929 17.4187 17.8239 16.2481C18.7649 15.0775 19.4356 13.6968 19.776 12.2361C20.28 10.0732 19.776 7.76427 19.776 7.7939ZM17.8139 11.8059C17.5436 12.9765 17.003 14.087 16.2522 15.0175C15.5014 15.948 14.5304 16.7184 13.4592 17.2286C12.3781 17.7389 11.1668 18.009 9.97551 18.009C8.77422 18.009 7.57293 17.7189 6.50178 17.1986C6.36163 17.1286 6.21147 17.0986 6.06131 17.0986C6.00125 17.0986 5.94118 17.0986 5.88112 17.1186L2.55756 17.7189L3.44851 15.3477C3.55863 15.0475 3.51859 14.7074 3.34841 14.4372C2.54755 13.2266 2.08706 11.8359 2.01698 10.3852C1.94691 8.94447 2.27726 7.50375 2.95799 6.22311C3.63872 4.94247 4.65981 3.88194 5.90114 3.14157C7.14247 2.4012 8.56399 2.001 10.0155 2.001C11.2068 2.001 12.4081 2.27114 13.4893 2.7914C14.5704 3.31166 15.5315 4.08204 16.2823 5.02251C17.0231 5.96298 17.5636 7.07354 17.8239 8.23412C18.0842 9.4047 18.0842 10.6353 17.8239 11.8059H17.8139Z" fill="#3A4757"/>
<path d="M10.0156 11.4561C10.5453 11.4561 10.9787 11.0042 10.9787 10.4519V6.25423C10.9787 5.7019 10.5453 5.25 10.0156 5.25C9.48597 5.25 9.0526 5.7019 9.0526 6.25423V10.4519C9.0526 11.0042 9.48597 11.4561 10.0156 11.4561Z" fill="#3A4757"/>
<path d="M10.0156 12.139C9.32225 12.139 8.76368 12.7215 8.76368 13.4445C8.76368 14.1675 9.32225 14.75 10.0156 14.75C10.709 14.75 11.2676 14.1675 11.2676 13.4445C11.2676 12.7215 10.709 12.139 10.0156 12.139Z" fill="#3A4757"/>
</svg>