<svg width="20" height="20" viewBox="0 0 20 20" fill="none" xmlns="http://www.w3.org/2000/svg">
<path fill-rule="evenodd" clip-rule="evenodd" d="M7.87859 1.71768e-06C5.78901 1.71768e-06 3.785 0.830091 2.30744 2.30765C0.829879 3.78522 -0.000204934 5.78921 -0.000204934 7.87881C-0.00512541 9.42966 0.453197 10.9466 1.31602 12.2353L0.263281 15.0525C0.146994 15.3637 0.413666 15.6831 0.740625 15.6244L4.43046 14.9605C4.79691 15.1391 5.17561 15.2887 5.56301 15.4081C5.42814 14.8175 5.3569 14.2028 5.3569 13.5714C5.3569 9.03478 9.03455 5.35713 13.5712 5.35713C14.2052 5.35713 14.8224 5.42896 15.4151 5.56493C15.1261 4.62396 14.6627 3.74376 14.0473 2.97096C13.3088 2.04357 12.3706 1.29477 11.3026 0.780368C10.2345 0.265965 9.06409 -0.000781023 7.87859 1.71768e-06ZM18.1171 9.02572C16.9114 7.82014 15.2763 7.14284 13.5714 7.14284C12.6041 7.1422 11.6492 7.35985 10.7777 7.77956C9.90621 8.19928 9.14069 8.81025 8.53816 9.56693C7.93562 10.3236 7.51161 11.2065 7.29772 12.1499C7.08384 13.0932 7.08556 14.0726 7.30282 15.0152C7.52006 15.9578 7.94721 16.8392 8.55243 17.5937C9.15766 18.3482 9.92536 18.9565 10.7983 19.3731C11.6713 19.7897 12.627 20.0039 13.5943 19.9999C14.5616 19.9958 15.5154 19.7735 16.3849 19.3495L19.2591 19.8667C19.5861 19.9255 19.8527 19.6061 19.7364 19.2948L18.926 17.126C19.63 16.0745 20.004 14.8368 20 13.5714C20 11.8664 19.3227 10.2313 18.1171 9.02572Z" fill="#3A4757"/>
</svg>