<svg width="20" height="20" viewBox="0 0 20 20" fill="none" xmlns="http://www.w3.org/2000/svg">
<path d="M13.1101 19.9998C12.0901 19.9998 11.0701 19.7698 10.1401 19.3298C9.21013 18.8898 8.38013 18.2298 7.73013 17.4198C7.09013 16.6198 6.62013 15.6598 6.39013 14.6598C6.16013 13.6598 6.16013 12.5898 6.39013 11.5898C6.62013 10.5898 7.08013 9.62976 7.72013 8.81976C8.36013 8.00976 9.19013 7.34976 10.1201 6.89976C11.0501 6.44976 12.0801 6.21976 13.1101 6.21976C14.9201 6.21976 16.7001 6.95976 17.9801 8.23976C19.2801 9.53976 20.0001 11.2698 20.0001 13.1098C20.0001 14.2898 19.7001 15.4498 19.1201 16.4698L19.9301 18.6498C20.0601 18.9898 19.9901 19.3598 19.7601 19.6398C19.5301 19.9198 19.1701 20.0498 18.8201 19.9798L15.8201 19.4398C14.9801 19.7998 14.0601 19.9898 13.1401 19.9998H13.1101ZM13.1201 8.22976C12.3901 8.22976 11.6501 8.39976 11.0001 8.70976C10.3401 9.02976 9.75013 9.49976 9.30013 10.0698C8.84013 10.6398 8.52013 11.3198 8.36013 12.0298C8.20013 12.7398 8.20013 13.4998 8.36013 14.2098C8.52013 14.9198 8.85013 15.5998 9.31013 16.1698C9.77013 16.7398 10.3601 17.2098 11.0201 17.5198C11.6801 17.8298 12.4301 18.0298 13.1401 17.9998C13.8701 17.9998 14.6001 17.8298 15.2601 17.5098C15.4501 17.4198 15.6701 17.3898 15.8801 17.4198L17.4601 17.7098L17.0901 16.7198C16.9801 16.4198 17.0201 16.0798 17.2001 15.8098C17.7401 15.0098 18.0201 14.0798 18.0101 13.1098C18.0101 11.7998 17.5001 10.5698 16.5801 9.64976C15.6701 8.73976 14.4101 8.21976 13.1301 8.21976L13.1201 8.22976Z" fill="#3A4757"/>
<path d="M1.00013 16.5398C0.710132 16.5398 0.420131 16.4098 0.230131 16.1798C0.000131473 15.8998 -0.0598685 15.5198 0.0601315 15.1898L1.10013 12.4098C0.380131 11.1498 0.000131471 9.72976 0.000131471 8.25976C0.000131471 6.53976 0.530131 4.87976 1.53013 3.46976C2.53013 2.06976 3.92013 1.01976 5.55013 0.459764C7.18013 -0.110236 8.92013 -0.150236 10.5801 0.339764C12.2401 0.829764 13.6801 1.79976 14.7401 3.15976C15.0801 3.58976 15.0101 4.21976 14.5701 4.55976C14.1401 4.89976 13.5101 4.82976 13.1701 4.38976C12.3601 3.35976 11.2701 2.61976 10.0101 2.24976C8.75013 1.87976 7.44013 1.90976 6.20013 2.33976C4.96013 2.76976 3.91013 3.55976 3.15013 4.62976C2.39013 5.69976 1.99013 6.94976 1.99013 8.25976C1.99013 9.50976 2.35013 10.7098 3.04013 11.7398C3.22013 12.0098 3.26013 12.3498 3.14013 12.6498L2.54013 14.2398L3.74013 14.0198C4.29013 13.9198 4.80013 14.2798 4.90013 14.8298C5.00013 15.3698 4.64013 15.8898 4.09013 15.9898L1.15013 16.5198C1.09013 16.5298 1.03013 16.5398 0.970132 16.5398H1.00013Z" fill="#3A4757"/>
</svg>