<svg width="20" height="20" viewBox="0 0 20 20" fill="none" xmlns="http://www.w3.org/2000/svg">
<path fill-rule="evenodd" clip-rule="evenodd" d="M14.3422 0.991186C12.9869 0.337956 11.5016 -0.000854919 9.99706 1.62e-06C8.18877 0.000602606 6.41428 0.49179 4.86299 1.42125C3.31164 2.35075 2.04138 3.68375 1.18752 5.27827C0.333654 6.87279 -0.0718388 8.66912 0.0142273 10.4759C0.094366 12.1583 0.597886 13.7911 1.4754 15.2239L0.0459713 19.028C-0.0450569 19.2702 0.00108238 19.5427 0.166784 19.7414C0.332484 19.9402 0.592182 20.0345 0.846781 19.9885L5.82989 19.0873C7.12286 19.6813 8.5286 19.9928 9.95325 19.9999C11.4578 20.0074 12.9446 19.675 14.3029 19.0277C15.6612 18.3803 16.8559 17.4347 17.7979 16.2612C18.7399 15.0877 19.405 13.7167 19.7436 12.2503C20.0822 10.7839 20.0855 9.26004 19.7534 7.79219C19.4211 6.32435 18.7621 4.95044 17.8251 3.77287C16.8883 2.5953 15.6977 1.64444 14.3422 0.991186ZM14.4541 7.15674H6.15045C5.60087 7.15674 5.15122 7.60696 5.15122 8.15724C5.15122 8.70751 5.60087 9.15774 6.15045 9.15774H14.4541C15.0037 9.15774 15.4534 8.70751 15.4534 8.15724C15.4534 7.60696 15.0037 7.15674 14.4541 7.15674ZM11.6862 11.3088H6.15045C5.60087 11.3088 5.15122 11.759 5.15122 12.3093C5.15122 12.8596 5.60087 13.3098 6.15045 13.3098H11.6862C12.2358 13.3098 12.6855 12.8596 12.6855 12.3093C12.6855 11.759 12.2358 11.3088 11.6862 11.3088Z" fill="#3A4757"/>
</svg>