<svg width="20" height="20" viewBox="0 0 20 20" fill="none" xmlns="http://www.w3.org/2000/svg">
<path d="M9.95646 19.9978C8.577 19.9978 7.18754 19.6878 5.91805 19.1278L1.17991 19.9878C0.830049 20.0478 0.460194 19.9178 0.230285 19.6478C0.000375465 19.3678 -0.0596009 18.9878 0.0603518 18.6578L1.38983 15.1078C0.580147 13.6978 0.100336 12.1078 0.0203676 10.4778C-0.069597 8.6678 0.340241 6.8778 1.18991 5.2778C2.03957 3.6878 3.30907 2.3478 4.85846 1.4178C6.41785 0.487803 8.19715 -0.00219727 10.0064 -0.00219727C11.5058 -0.00219727 13.0053 0.337803 14.3447 0.987803C15.6942 1.6378 16.8937 2.5978 17.8234 3.7678C18.753 4.9378 19.4227 6.3278 19.7526 7.7878C20.0825 9.2478 20.0825 10.7878 19.7526 12.2478C19.4127 13.7078 18.743 15.0878 17.8034 16.2578C16.8637 17.4278 15.6542 18.3778 14.3147 19.0278C12.9853 19.6678 11.4958 19.9978 10.0164 19.9978H9.95646ZM6.05799 17.0878C6.20793 17.0878 6.35787 17.1178 6.49782 17.1878C7.57739 17.7078 8.77692 17.9978 9.96645 17.9978C11.136 18.0078 12.3655 17.7378 13.4451 17.2178C14.5247 16.7078 15.4943 15.9378 16.244 15.0078C16.9937 14.0778 17.5335 12.9678 17.8034 11.7978C18.0733 10.6278 18.0733 9.3978 17.8034 8.2278C17.5435 7.0578 17.0037 5.9478 16.264 5.0078C15.5243 4.0678 14.5546 3.3078 13.4751 2.7878C11.096 1.6478 8.16716 1.7778 5.89805 3.1278C4.65854 3.8678 3.63894 4.9378 2.95921 6.2078C2.27948 7.4878 1.94961 8.9178 2.01958 10.3678C2.08955 11.8178 2.54937 13.2178 3.34906 14.4178C3.52899 14.6878 3.56897 15.0178 3.44902 15.3278L2.55937 17.6978L5.87806 17.0978C5.93804 17.0878 5.99801 17.0778 6.05799 17.0778V17.0878Z" fill="#3A4757"/>
<path d="M10.305 5.2896L6.64522 10.5002C6.30212 10.9588 6.6071 11.6674 7.14082 11.6674H8.78008L8.51322 14.2102C8.43698 14.9189 9.27567 15.294 9.6569 14.7104L13.3548 9.45811C13.6979 8.99958 13.3929 8.33261 12.8592 8.33261H11.2199L11.4868 5.78982C11.5249 5.37297 11.258 5.08117 10.9149 4.9978H10.7243C10.5718 5.03949 10.4193 5.12286 10.305 5.2896Z" fill="#3A4757"/>
</svg>