<svg width="20" height="20" viewBox="0 0 20 20" fill="none" xmlns="http://www.w3.org/2000/svg">
<path fill-rule="evenodd" clip-rule="evenodd" d="M9.99788 4.0733e-07C11.4924 -0.00042615 12.9681 0.334171 14.3163 0.979183C15.6645 1.6242 16.8509 2.56322 17.7884 3.72718C18.7259 4.89115 19.3905 6.25046 19.7334 7.70514C20.0763 9.15981 20.0888 10.6729 19.7699 12.133C19.451 13.5931 18.8089 14.9632 17.8907 16.1425C16.9726 17.3217 15.8017 18.2802 14.4644 18.9473C13.127 19.6145 11.6571 19.9733 10.1627 19.9975C8.66836 20.0218 7.18758 19.7107 5.82929 19.0872L0.845396 19.9888C0.720411 20.0111 0.591743 20 0.472475 19.9564C0.353207 19.9129 0.247593 19.8386 0.166371 19.741C0.0851488 19.6434 0.0312158 19.526 0.0100558 19.4009C-0.0111043 19.2757 0.00126342 19.1471 0.0459012 19.0283L1.47521 15.2235C0.546802 13.7082 0.038984 11.9728 0.00403318 10.1961C-0.0309176 8.41935 0.408261 6.66538 1.27636 5.11475C2.14446 3.56412 3.41012 2.27285 4.94305 1.37387C6.47598 0.474876 8.22079 0.000649051 9.99788 4.0733e-07ZM7.12488 9.99943C7.12488 10.3808 6.97338 10.7465 6.70371 11.0162C6.43405 11.2859 6.0683 11.4374 5.68694 11.4374C5.30557 11.4374 4.93983 11.2859 4.67016 11.0162C4.4005 10.7465 4.249 10.3808 4.249 9.99943C4.249 9.61807 4.4005 9.25232 4.67016 8.98265C4.93983 8.71299 5.30557 8.56149 5.68694 8.56149C6.0683 8.56149 6.43405 8.71299 6.70371 8.98265C6.97338 9.25232 7.12488 9.61807 7.12488 9.99943ZM10.0008 11.4374C10.3821 11.4374 10.7479 11.2859 11.0175 11.0162C11.2872 10.7465 11.4387 10.3808 11.4387 9.99943C11.4387 9.61807 11.2872 9.25232 11.0175 8.98265C10.7479 8.71299 10.3821 8.56149 10.0008 8.56149C9.61939 8.56149 9.25365 8.71299 8.98398 8.98265C8.71431 9.25232 8.56282 9.61807 8.56282 9.99943C8.56282 10.3808 8.71431 10.7465 8.98398 11.0162C9.25365 11.2859 9.61939 11.4374 10.0008 11.4374ZM14.3146 11.4374C14.6959 11.4374 15.0617 11.2859 15.3314 11.0162C15.601 10.7465 15.7525 10.3808 15.7525 9.99943C15.7525 9.61807 15.601 9.25232 15.3314 8.98265C15.0617 8.71299 14.6959 8.56149 14.3146 8.56149C13.9332 8.56149 13.5675 8.71299 13.2978 8.98265C13.0281 9.25232 12.8766 9.61807 12.8766 9.99943C12.8766 10.3808 13.0281 10.7465 13.2978 11.0162C13.5675 11.2859 13.9332 11.4374 14.3146 11.4374Z" fill="#3A4757"/>
</svg>