<svg width="20" height="20" viewBox="0 0 20 20" fill="none" xmlns="http://www.w3.org/2000/svg">
<path d="M19.7426 7.79C19.4127 6.33 18.743 4.94 17.8134 3.77C16.8837 2.6 15.6842 1.64 14.3347 0.99C12.9953 0.34 11.4958 0 9.99644 0C8.18715 0 6.40785 0.49 4.84847 1.42C3.29908 2.35 2.02958 3.69 1.17991 5.28C0.340242 6.88 -0.069597 8.67 0.0203676 10.48C0.100336 12.11 0.580147 13.7 1.38983 15.11L0.0603518 18.66C-0.0596009 18.99 0.000375466 19.37 0.230285 19.65C0.460194 19.92 0.830049 20.05 1.17991 19.99L5.91805 19.13C7.18755 19.69 8.577 20 9.95646 20H10.0164C11.4958 20 12.9853 19.67 14.3147 19.03C15.6542 18.38 16.8637 17.43 17.8034 16.26C18.743 15.09 19.4127 13.71 19.7526 12.25C20.0825 10.79 20.0825 9.25 19.7526 7.79H19.7426ZM17.7934 11.8C17.5235 12.97 16.9837 14.08 16.234 15.01C15.4843 15.94 14.5147 16.71 13.4351 17.22C12.3555 17.74 11.126 18.01 9.95646 18C8.76692 18 7.5674 17.71 6.48782 17.19C6.34788 17.12 6.19794 17.09 6.04799 17.09C5.98802 17.08 5.92804 17.09 5.86806 17.1L2.54937 17.7L3.43902 15.33C3.55897 15.02 3.51899 14.69 3.33906 14.42C2.53938 13.22 2.07956 11.82 2.00958 10.37C1.93961 8.92 2.26948 7.49 2.94921 6.21C3.62895 4.94 4.64855 3.87 5.88806 3.13C8.15716 1.78 11.086 1.65 13.4651 2.79C14.5446 3.31 15.5143 4.07 16.254 5.01C16.9937 5.95 17.5335 7.06 17.7934 8.23C18.0633 9.4 18.0633 10.63 17.7934 11.8Z" fill="#3A4757"/>
<path d="M13.765 6.5C13.4351 6.5 13.1152 6.63 12.8853 6.85L8.73693 10.77L7.10758 9.23C6.87767 9.01 6.55779 8.88 6.22792 8.88C5.89805 8.88 5.57818 9.01 5.34827 9.23C4.88845 9.67 4.88845 10.35 5.34827 10.78L7.85728 13.16C8.08719 13.38 8.40707 13.51 8.73693 13.51C9.0668 13.51 9.38668 13.38 9.61659 13.16L14.6446 8.41C15.1044 7.97 15.1044 7.29 14.6446 6.86C14.4147 6.64 14.0948 6.51 13.765 6.51V6.5Z" fill="#3A4757"/>
</svg>