<svg width="20" height="20" viewBox="0 0 20 20" fill="none" xmlns="http://www.w3.org/2000/svg">
<path d="M13.1104 19.9998C12.0904 19.9998 11.0704 19.7698 10.1404 19.3298C9.21038 18.8898 8.38037 18.2298 7.73038 17.4198C7.09038 16.6198 6.62038 15.6598 6.39038 14.6598C6.16038 13.6598 6.16038 12.5898 6.39038 11.5898C6.62038 10.5898 7.08038 9.62976 7.72038 8.81976C8.36038 8.00976 9.19038 7.34976 10.1204 6.89976C11.0504 6.44976 12.0804 6.21976 13.1104 6.21976C14.9204 6.21976 16.7004 6.95976 17.9804 8.23976C19.2804 9.53976 20.0004 11.2698 20.0004 13.1098C20.0004 14.2898 19.7004 15.4498 19.1204 16.4698L19.9304 18.6498C20.0604 18.9898 19.9904 19.3598 19.7604 19.6398C19.5304 19.9198 19.1704 20.0498 18.8204 19.9798L15.8204 19.4398C14.9804 19.7998 14.0604 19.9898 13.1404 19.9998H13.1104ZM13.1204 8.22976C12.3904 8.22976 11.6504 8.39976 11.0004 8.70976C10.3404 9.02976 9.75038 9.49976 9.30038 10.0698C8.84038 10.6398 8.52038 11.3198 8.36038 12.0298C8.20038 12.7398 8.20038 13.4998 8.36038 14.2098C8.52038 14.9198 8.85038 15.5998 9.31038 16.1698C9.77038 16.7398 10.3604 17.2098 11.0204 17.5198C11.6804 17.8298 12.4304 18.0298 13.1404 17.9998C13.8704 17.9998 14.6004 17.8298 15.2604 17.5098C15.4504 17.4198 15.6704 17.3898 15.8804 17.4198L17.4604 17.7098L17.0904 16.7198C16.9804 16.4198 17.0204 16.0798 17.2004 15.8098C17.7404 15.0098 18.0204 14.0798 18.0104 13.1098C18.0104 11.7998 17.5004 10.5698 16.5804 9.64976C15.6704 8.73976 14.4104 8.21976 13.1304 8.21976L13.1204 8.22976Z" fill="#3A4757"/>
<path d="M1.00038 16.5398C0.710376 16.5398 0.420376 16.4098 0.230376 16.1798C0.000375614 15.8998 -0.0596244 15.5198 0.0603756 15.1898L1.10038 12.4098C0.380376 11.1498 0.000375612 9.72976 0.000375612 8.25976C0.000375612 6.53976 0.530376 4.87976 1.53038 3.46976C2.53038 2.06976 3.92038 1.01976 5.55038 0.459764C7.18038 -0.110236 8.92038 -0.150236 10.5804 0.339764C12.2404 0.829764 13.6804 1.79976 14.7404 3.15976C15.0804 3.58976 15.0104 4.21976 14.5704 4.55976C14.1404 4.89976 13.5104 4.82976 13.1704 4.38976C12.3604 3.35976 11.2704 2.61976 10.0104 2.24976C8.75038 1.87976 7.44038 1.90976 6.20038 2.33976C4.96038 2.76976 3.91038 3.55976 3.15038 4.62976C2.39038 5.69976 1.99038 6.94976 1.99038 8.25976C1.99038 9.50976 2.35038 10.7098 3.04038 11.7398C3.22038 12.0098 3.26038 12.3498 3.14038 12.6498L2.54038 14.2398L3.74038 14.0198C4.29038 13.9198 4.80038 14.2798 4.90038 14.8298C5.00038 15.3698 4.64038 15.8898 4.09038 15.9898L1.15038 16.5198C1.09038 16.5298 1.03038 16.5398 0.970376 16.5398H1.00038Z" fill="#3A4757"/>
</svg>