<svg width="20" height="20" viewBox="0 0 20 20" fill="none" xmlns="http://www.w3.org/2000/svg">
<path d="M9.95646 20C8.577 20 7.18754 19.69 5.91805 19.13L1.17991 19.99C0.830049 20.05 0.460194 19.92 0.230285 19.65C0.000375465 19.37 -0.0596009 18.99 0.0603518 18.66L1.38983 15.11C0.580147 13.7 0.100336 12.11 0.0203676 10.48C-0.069597 8.67 0.340241 6.88 1.18991 5.28C2.03957 3.69 3.30907 2.35 4.85846 1.42C6.41785 0.49 8.19715 0 10.0064 0C11.5058 0 13.0053 0.34 14.3447 0.99C15.6942 1.64 16.8937 2.6 17.8234 3.77C18.753 4.94 19.4227 6.33 19.7526 7.79C20.0825 9.25 20.0825 10.79 19.7526 12.25C19.4127 13.71 18.743 15.09 17.8034 16.26C16.8637 17.43 15.6542 18.38 14.3147 19.03C12.9853 19.67 11.4958 20 10.0164 20H9.95646ZM6.05799 17.09C6.20793 17.09 6.35787 17.12 6.49782 17.19C7.57739 17.71 8.77692 18 9.96645 18C11.136 18.01 12.3655 17.74 13.4451 17.22C14.5247 16.71 15.4943 15.94 16.244 15.01C16.9937 14.08 17.5335 12.97 17.8034 11.8C18.0733 10.63 18.0733 9.4 17.8034 8.23C17.5435 7.06 17.0037 5.95 16.264 5.01C15.5243 4.07 14.5546 3.31 13.4751 2.79C11.096 1.65 8.16716 1.78 5.89805 3.13C4.65854 3.87 3.63894 4.94 2.95921 6.21C2.27948 7.49 1.94961 8.92 2.01958 10.37C2.08955 11.82 2.54937 13.22 3.34906 14.42C3.52899 14.69 3.56897 15.02 3.44902 15.33L2.55937 17.7L5.87806 17.1C5.93804 17.09 5.99801 17.08 6.05799 17.08V17.09Z" fill="#3A4757"/>
<path d="M10.305 5.2918L6.64522 10.5024C6.30212 10.961 6.6071 11.6696 7.14082 11.6696H8.78008L8.51322 14.2124C8.43698 14.9211 9.27567 15.2962 9.6569 14.7126L13.3548 9.46031C13.6979 9.00177 13.3929 8.33481 12.8592 8.33481H11.2199L11.4868 5.79202C11.5249 5.37517 11.258 5.08337 10.9149 5H10.7243C10.5718 5.04169 10.4193 5.12506 10.305 5.2918Z" fill="#3A4757"/>
</svg>