<svg width="20" height="20" viewBox="0 0 20 20" fill="none" xmlns="http://www.w3.org/2000/svg">
<path fill-rule="evenodd" clip-rule="evenodd" d="M19.7451 7.7939C19.4153 6.33317 18.7456 4.94247 17.8161 3.77189C16.8865 2.6013 15.6771 1.64082 14.3378 0.990495C12.9984 0.34017 11.4992 0 9.99991 0C8.1908 0 6.42167 0.490245 4.87243 1.42071C3.32319 2.35118 2.05381 3.68184 1.19423 5.28264C0.334655 6.88344 -0.0651482 8.67434 0.0148125 10.4752C0.0947732 12.1061 0.564543 13.6968 1.39414 15.0976L0.064788 18.6493C-0.0651482 18.9895 0.00481741 19.3697 0.234705 19.6398C0.424611 19.8699 0.704474 20 1.00433 20C1.0643 20 1.12427 20 1.18424 19.98L5.92191 19.1196C7.19129 19.6898 8.57061 19.99 9.95993 19.99H10.0099C11.4892 19.99 12.9685 19.6598 14.3078 19.0195C15.6571 18.3792 16.8665 17.4187 17.7961 16.2481C18.7356 15.0775 19.4053 13.6968 19.7451 12.2361C20.085 10.7754 20.085 9.23462 19.7451 7.77389V7.7939ZM17.7861 11.8059C17.5162 12.9765 16.9765 14.087 16.2269 15.0175C15.4772 15.948 14.5077 16.7184 13.4382 17.2286C12.3588 17.7389 11.1493 18.009 9.95993 18.009C8.76052 18.009 7.56111 17.7189 6.49163 17.1986C6.3517 17.1286 6.20178 17.0986 6.05185 17.0986C5.99188 17.0986 5.93191 17.0986 5.87194 17.1186L2.55357 17.7189L3.44313 15.3477C3.55308 15.0475 3.5131 14.7074 3.34318 14.4372C2.54357 13.2266 2.0838 11.8359 2.01383 10.3852C1.94387 8.94447 2.2737 7.50375 2.95337 6.22311C3.63304 4.94247 4.65254 3.88194 5.89193 3.14157C7.13132 2.4012 8.55062 2.001 9.99991 2.001C11.1893 2.001 12.3887 2.27114 13.4682 2.7914C14.5477 3.31166 15.5072 4.08204 16.2568 5.02251C16.9965 5.96298 17.5362 7.07354 17.7961 8.23412C18.056 9.4047 18.056 10.6353 17.7961 11.8059H17.7861Z" fill="#3A4757"/>
<path fill-rule="evenodd" clip-rule="evenodd" d="M14.3078 7.0035H6.00187C5.45214 7.0035 5.00236 7.45373 5.00236 8.004C5.00236 8.55428 5.45214 9.0045 6.00187 9.0045H14.3078C14.8575 9.0045 15.3073 8.55428 15.3073 8.004C15.3073 7.45373 14.8575 7.0035 14.3078 7.0035Z" fill="#3A4757"/>
<path fill-rule="evenodd" clip-rule="evenodd" d="M11.5392 11.1556H6.00187C5.45214 11.1556 5.00236 11.6058 5.00236 12.1561C5.00236 12.7064 5.45214 13.1566 6.00187 13.1566H11.5392C12.0889 13.1566 12.5387 12.7064 12.5387 12.1561C12.5387 11.6058 12.0889 11.1556 11.5392 11.1556Z" fill="#3A4757"/>
</svg>