<svg width="20" height="20" viewBox="0 0 20 20" fill="none" xmlns="http://www.w3.org/2000/svg">
<path fill-rule="evenodd" clip-rule="evenodd" d="M13.6137 4.5733H12.6604V2.85081C12.6604 2.53915 12.4079 2.28665 12.0962 2.28665H10.7529V0.569995C10.7529 0.254998 10.4979 0 10.1838 0H9.7971C9.4821 0 9.2271 0.254998 9.2271 0.569995V2.28665H7.88461C7.57295 2.28665 7.32045 2.53915 7.32045 2.85081V4.5733H6.36712C6.05046 4.5733 5.79463 4.82913 5.79463 5.14496V19.9998H14.1854V5.14496C14.1854 4.82913 13.9296 4.5733 13.6137 4.5733ZM12.3604 7.33327H7.62045C7.35878 7.33327 7.14628 7.12161 7.14628 6.85994C7.14628 6.59745 7.35878 6.38578 7.62045 6.38578H12.3604C12.6221 6.38578 12.8346 6.59745 12.8346 6.85994C12.8346 7.12161 12.6221 7.33327 12.3604 7.33327ZM12.3604 9.61992H7.62045C7.35878 9.61992 7.14628 9.40742 7.14628 9.14659C7.14628 8.88409 7.35878 8.67243 7.62045 8.67243H12.3604C12.6221 8.67243 12.8346 8.88409 12.8346 9.14659C12.8346 9.40742 12.6221 9.61992 12.3604 9.61992ZM12.3604 11.9057H7.62045C7.35878 11.9057 7.14628 11.6941 7.14628 11.4324C7.14628 11.1707 7.35878 10.9591 7.62045 10.9591H12.3604C12.6221 10.9591 12.8346 11.1707 12.8346 11.4324C12.8346 11.6941 12.6221 11.9057 12.3604 11.9057ZM12.3604 14.1924H7.62045C7.35878 14.1924 7.14628 13.9816 7.14628 13.7191C7.14628 13.4574 7.35878 13.2457 7.62045 13.2457H12.3604C12.6221 13.2457 12.8346 13.4574 12.8346 13.7191C12.8346 13.9816 12.6221 14.1924 12.3604 14.1924ZM12.3604 16.4799H7.62045C7.35878 16.4799 7.14628 16.2674 7.14628 16.0057C7.14628 15.744 7.35878 15.5324 7.62045 15.5324H12.3604C12.6221 15.5324 12.8346 15.744 12.8346 16.0057C12.8346 16.2674 12.6221 16.4799 12.3604 16.4799Z" fill="#3A4757"/>
<path d="M4.4633 7.77594H3.28081V6.85428C3.28081 6.54011 3.02581 6.28511 2.71081 6.28511H2.32498C2.01082 6.28511 1.75499 6.54011 1.75499 6.85428V7.77594H0.573329C0.258331 7.77594 0 8.03343 0 8.34843V19.4275C0 19.7425 0.258331 20 0.573329 20H4.4633C4.77829 20 5.03579 19.7425 5.03579 19.4275V8.34843C5.03579 8.03343 4.77829 7.77594 4.4633 7.77594Z" fill="#3A4757"/>
<path d="M18.2444 7.77594H19.4269C19.7419 7.77594 19.9994 8.03343 19.9994 8.34843V19.4275C19.9994 19.7425 19.7419 20 19.4269 20H15.537C15.2211 20 14.9636 19.7425 14.9636 19.4275V8.34843C14.9636 8.03343 15.2211 7.77594 15.537 7.77594H16.7186V6.85428C16.7186 6.54011 16.9744 6.28511 17.2886 6.28511H17.6744C17.9894 6.28511 18.2444 6.54011 18.2444 6.85428V7.77594Z" fill="#3A4757"/>
</svg>