<svg width="15" height="14" viewBox="0 0 15 14" fill="none" xmlns="http://www.w3.org/2000/svg">
<path fill-rule="evenodd" clip-rule="evenodd" d="M7.86636 0C8.0547 0 8.21134 0.131405 8.24382 0.304693L8.25 0.371464V3.00484H11.8988L11.8994 1.84211C11.8994 1.66124 12.032 1.51081 12.207 1.47962L12.2744 1.47368H13.7672C13.9512 1.47368 14.1044 1.60401 14.1361 1.77588L14.1422 1.84211L14.142 3.00484L14.625 3.00529C14.8091 3.00529 14.9622 3.13562 14.994 3.30749L15 3.37371V12.8947C15 13.0756 14.8673 13.226 14.6924 13.2572L14.625 13.2632H11.328L11.3287 13.6433C11.3287 13.7965 11.2354 13.9272 11.1044 13.9777L11.0461 13.9943L10.9842 14H6.19564C6.00538 14 5.85114 13.8403 5.85114 13.6433L5.85075 13.2632H0.383638C0.195303 13.2632 0.0386643 13.1318 0.00618088 12.9585L0 12.8917V0.371464C0 0.189105 0.135712 0.0374375 0.314679 0.00598496L0.383638 0H7.86636ZM8.58097 7.47613L5.73057 10.1767H6.19564C6.36477 10.1767 6.50542 10.3029 6.53459 10.4692L6.54014 10.5333V13.2867H10.6397V10.5333C10.6397 10.3583 10.7616 10.2126 10.9223 10.1824L10.9842 10.1767H11.3156L8.58097 7.47613ZM0.75 0.736842V12.5263H5.85075L5.85114 10.89H4.8452C4.55183 10.89 4.40149 10.5415 4.57125 10.3164L4.6126 10.2703L7.494 7.53937L7.5 7.36842V0.74233L0.75 0.736842ZM13.392 2.20979H12.6488L12.6494 3.37371C12.6494 3.55458 12.5167 3.65302 12.3418 3.68421H8.25V6.82242L8.35389 6.72514C8.47085 6.61431 8.64288 6.60214 8.7719 6.68758L8.82428 6.73017L12.414 10.2753C12.6389 10.4974 12.487 10.89 12.1762 10.89H11.3287L11.328 12.5263L14.25 12.5256V3.68421H13.7672C13.5831 3.68421 13.4299 3.61181 13.3982 3.43994L13.3922 3.37371L13.392 2.20979ZM12.375 4.42105C12.5821 4.42105 12.75 4.586 12.75 4.78947C12.75 4.97034 12.6173 5.12076 12.4424 5.15196L12.375 5.15789H10.125C9.91789 5.15789 9.75 4.99295 9.75 4.78947C9.75 4.60861 9.88266 4.45818 10.0576 4.42699L10.125 4.42105H12.375ZM3.375 3.68421C3.58211 3.68421 3.75 3.84916 3.75 4.05263C3.75 4.2335 3.61734 4.38392 3.44241 4.41512L3.375 4.42105H1.875C1.66789 4.42105 1.5 4.2561 1.5 4.05263C1.5 3.87177 1.63266 3.72134 1.80759 3.69015L1.875 3.68421H3.375ZM6.375 3.68421C6.58211 3.68421 6.75 3.84916 6.75 4.05263C6.75 4.2335 6.61734 4.38392 6.44241 4.41512L6.375 4.42105H4.875C4.66789 4.42105 4.5 4.2561 4.5 4.05263C4.5 3.87177 4.63266 3.72134 4.80759 3.69015L4.875 3.68421H6.375ZM3.375 2.21053C3.58211 2.21053 3.75 2.37547 3.75 2.57895C3.75 2.75981 3.61734 2.91024 3.44241 2.94143L3.375 2.94737H1.875C1.66789 2.94737 1.5 2.78242 1.5 2.57895C1.5 2.39808 1.63266 2.24766 1.80759 2.21646L1.875 2.21053H3.375ZM6.375 2.21053C6.58211 2.21053 6.75 2.37547 6.75 2.57895C6.75 2.75981 6.61734 2.91024 6.44241 2.94143L6.375 2.94737H4.875C4.66789 2.94737 4.5 2.78242 4.5 2.57895C4.5 2.39808 4.63266 2.24766 4.80759 2.21646L4.875 2.21053H6.375Z" fill="#3A4757"/>
</svg>