<svg width="18" height="18" viewBox="0 0 18 18" fill="none" xmlns="http://www.w3.org/2000/svg">
<path fill-rule="evenodd" clip-rule="evenodd" d="M17.0772 7.17917H16.0372V6.36833C16.0372 6.09167 15.813 5.8675 15.5372 5.8675H15.1972C14.9205 5.8675 14.6963 6.09167 14.6963 6.36833V7.17917H13.6572C13.3797 7.17917 13.1538 7.405 13.1538 7.6825V16.5833C15.0313 15.6692 16.5863 14.1958 17.5805 12.3675V7.6825C17.5805 7.405 17.3538 7.17917 17.0772 7.17917Z" fill="#3A4757"/>
<path fill-rule="evenodd" clip-rule="evenodd" d="M10.865 6.45083H6.69833C6.46833 6.45083 6.28167 6.26417 6.28167 6.03417C6.28167 5.80417 6.46833 5.6175 6.69833 5.6175H10.865C11.095 5.6175 11.2817 5.80417 11.2817 6.03417C11.2817 6.26417 11.095 6.45083 10.865 6.45083ZM10.865 8.4625H6.69833C6.46833 8.4625 6.28167 8.27583 6.28167 8.04583C6.28167 7.81583 6.46833 7.62917 6.69833 7.62917H10.865C11.095 7.62917 11.2817 7.81583 11.2817 8.04583C11.2817 8.27583 11.095 8.4625 10.865 8.4625ZM10.865 10.4742H6.69833C6.46833 10.4742 6.28167 10.2875 6.28167 10.0575C6.28167 9.8275 6.46833 9.64083 6.69833 9.64083H10.865C11.095 9.64083 11.2817 9.8275 11.2817 10.0575C11.2817 10.2875 11.095 10.4742 10.865 10.4742ZM10.865 12.4858H6.69833C6.46833 12.4858 6.28167 12.3 6.28167 12.0692C6.28167 11.8392 6.46833 11.6525 6.69833 11.6525H10.865C11.095 11.6525 11.2817 11.8392 11.2817 12.0692C11.2817 12.3 11.095 12.4858 10.865 12.4858ZM10.865 14.4975H6.69833C6.46833 14.4975 6.28167 14.3117 6.28167 14.0808C6.28167 13.8508 6.46833 13.6642 6.69833 13.6642H10.865C11.095 13.6642 11.2817 13.8508 11.2817 14.0808C11.2817 14.3117 11.095 14.4975 10.865 14.4975ZM11.9667 4.02333H11.1283V2.5075C11.1283 2.23333 10.9067 2.01167 10.6325 2.01167H9.4525V0.5C9.4525 0.223333 9.22833 0 8.95167 0H8.61166C8.335 0 8.11083 0.223333 8.11083 0.5V2.01167H6.93083C6.65667 2.01167 6.435 2.23333 6.435 2.5075V4.02333H5.59667C5.31833 4.02333 5.09333 4.2475 5.09333 4.52583V16.8817C6.2375 17.3375 7.4825 17.5958 8.78917 17.5958H8.79083C10.0917 17.5958 11.33 17.3392 12.47 16.8875V4.52583C12.47 4.2475 12.245 4.02333 11.9667 4.02333Z" fill="#3A4757"/>
<path fill-rule="evenodd" clip-rule="evenodd" d="M3.92333 7.17917H2.88417V6.36833C2.88417 6.09167 2.66 5.8675 2.38333 5.8675H2.04333C1.7675 5.8675 1.54333 6.09167 1.54333 6.36833V7.17917H0.503333C0.226666 7.17917 0 7.405 0 7.6825V12.3675C0.994167 14.1958 2.54917 15.6692 4.42667 16.5833V7.6825C4.42667 7.405 4.20083 7.17917 3.92333 7.17917Z" fill="#3A4757"/>
</svg>