<svg width="18" height="18" viewBox="0 0 18 18" fill="none" xmlns="http://www.w3.org/2000/svg">
<path fill-rule="evenodd" clip-rule="evenodd" d="M17.2869 7.54831H16.2469V6.73747C16.2469 6.46081 16.0228 6.23664 15.7469 6.23664H15.4069C15.1303 6.23664 14.9061 6.46081 14.9061 6.73747V7.54831H13.8669C13.5894 7.54831 13.3636 7.77414 13.3636 8.05164V16.9525C15.2411 16.0383 16.7961 14.565 17.7903 12.7366V8.05164C17.7903 7.77414 17.5636 7.54831 17.2869 7.54831Z" fill="#3A4757"/>
<path fill-rule="evenodd" clip-rule="evenodd" d="M11.0748 6.81997H6.90811C6.67811 6.81997 6.49144 6.63331 6.49144 6.40331C6.49144 6.17331 6.67811 5.98664 6.90811 5.98664H11.0748C11.3048 5.98664 11.4914 6.17331 11.4914 6.40331C11.4914 6.63331 11.3048 6.81997 11.0748 6.81997ZM11.0748 8.83164H6.90811C6.67811 8.83164 6.49144 8.64497 6.49144 8.41497C6.49144 8.18497 6.67811 7.99831 6.90811 7.99831H11.0748C11.3048 7.99831 11.4914 8.18497 11.4914 8.41497C11.4914 8.64497 11.3048 8.83164 11.0748 8.83164ZM11.0748 10.8433H6.90811C6.67811 10.8433 6.49144 10.6566 6.49144 10.4266C6.49144 10.1966 6.67811 10.01 6.90811 10.01H11.0748C11.3048 10.01 11.4914 10.1966 11.4914 10.4266C11.4914 10.6566 11.3048 10.8433 11.0748 10.8433ZM11.0748 12.855H6.90811C6.67811 12.855 6.49144 12.6691 6.49144 12.4383C6.49144 12.2083 6.67811 12.0216 6.90811 12.0216H11.0748C11.3048 12.0216 11.4914 12.2083 11.4914 12.4383C11.4914 12.6691 11.3048 12.855 11.0748 12.855ZM11.0748 14.8666H6.90811C6.67811 14.8666 6.49144 14.6808 6.49144 14.45C6.49144 14.22 6.67811 14.0333 6.90811 14.0333H11.0748C11.3048 14.0333 11.4914 14.22 11.4914 14.45C11.4914 14.6808 11.3048 14.8666 11.0748 14.8666ZM12.1764 4.39247H11.3381V2.87664C11.3381 2.60247 11.1164 2.38081 10.8423 2.38081H9.66228V0.869141C9.66228 0.592474 9.43811 0.369141 9.16144 0.369141H8.82144C8.54478 0.369141 8.32061 0.592474 8.32061 0.869141V2.38081H7.14061C6.86644 2.38081 6.64478 2.60247 6.64478 2.87664V4.39247H5.80644C5.52811 4.39247 5.30311 4.61664 5.30311 4.89497V17.2508C6.44728 17.7066 7.69228 17.965 8.99894 17.965H9.00061C10.3014 17.965 11.5398 17.7083 12.6798 17.2566V4.89497C12.6798 4.61664 12.4548 4.39247 12.1764 4.39247Z" fill="#3A4757"/>
<path fill-rule="evenodd" clip-rule="evenodd" d="M4.13311 7.54831H3.09394V6.73747C3.09394 6.46081 2.86978 6.23664 2.59311 6.23664H2.25311C1.97728 6.23664 1.75311 6.46081 1.75311 6.73747V7.54831H0.713111C0.436444 7.54831 0.209778 7.77414 0.209778 8.05164V12.7366C1.20394 14.565 2.75894 16.0383 4.63644 16.9525V8.05164C4.63644 7.77414 4.41061 7.54831 4.13311 7.54831Z" fill="#3A4757"/>
</svg>