<svg width="20" height="20" viewBox="0 0 20 20" fill="none" xmlns="http://www.w3.org/2000/svg">
<path d="M4.37682 9.43727H8.51188C9.08712 9.43727 9.55398 8.9704 9.55398 8.39516C9.55398 7.81992 9.08712 7.35306 8.51188 7.35306H4.37682C3.80158 7.35306 3.33472 7.81992 3.33472 8.39516C3.33472 8.9704 3.80158 9.43727 4.37682 9.43727Z" fill="#3A4757"/>
<path d="M4.37682 6.22759H8.51188C9.08712 6.22759 9.55398 5.76073 9.55398 5.18549C9.55398 4.61025 9.08712 4.14339 8.51188 4.14339H4.37682C3.80158 4.14339 3.33472 4.61025 3.33472 5.18549C3.33472 5.76073 3.80158 6.22759 4.37682 6.22759Z" fill="#3A4757"/>
<path d="M9.55398 11.6132C9.55398 11.0379 9.08712 10.5711 8.51188 10.5711H4.37682C3.80158 10.5711 3.33472 11.0379 3.33472 11.6132C3.33472 12.1884 3.80158 12.6553 4.37682 12.6553H8.51188C9.08712 12.6553 9.55398 12.1884 9.55398 11.6132Z" fill="#3A4757"/>
<path d="M18.9662 8.27011H13.1221V1.0421C13.1221 0.466861 12.6553 0 12.08 0H1.0421C0.466861 0 0 0.466861 0 1.0421V18.9579C0 19.5331 0.466861 20 1.0421 20H12.0717C12.6469 20 13.1138 19.5331 13.1138 18.9579V10.3543H17.9158V18.9579C17.9158 19.5331 18.3827 20 18.9579 20C19.5331 20 20 19.5331 20 18.9579V9.31221C20 8.73697 19.5331 8.27011 18.9579 8.27011H18.9662ZM5.51897 16.2068V17.9158H2.09254V2.09254H11.0296V17.9241H7.60317V16.2151C7.60317 15.6399 7.13631 15.173 6.56107 15.173C5.98583 15.173 5.51897 15.6529 5.51897 16.2068Z" fill="#3A4757"/>
</svg>