<svg width="20" height="16" viewBox="0 0 20 16" fill="none" xmlns="http://www.w3.org/2000/svg">
<path fill-rule="evenodd" clip-rule="evenodd" d="M0 1.12431C0 0.503371 0.447715 0 1 0H19C19.5523 0 20 0.503371 20 1.12431C20 1.74525 19.5523 2.24862 19 2.24862H1C0.447715 2.24862 0 1.74525 0 1.12431ZM0 7.9999C0 7.37896 0.447715 6.87559 1 6.87559H19C19.5523 6.87559 20 7.37896 20 7.9999C20 8.62084 19.5523 9.12422 19 9.12422H1C0.447715 9.12422 0 8.62084 0 7.9999ZM0 14.8757C0 14.2547 0.447715 13.7514 1 13.7514H19C19.5523 13.7514 20 14.2547 20 14.8757C20 15.4966 19.5523 16 19 16H1C0.447715 16 0 15.4966 0 14.8757Z" fill="#3A4757"/>
</svg>