<svg width="16" height="20" viewBox="0 0 16 20" fill="none" xmlns="http://www.w3.org/2000/svg">
<path d="M13.9058 0H2.17026C1.04494 0 0 0.916667 0 2.16667V17.8333C0 19.0833 1.04494 20 2.17026 20H13.8254C14.9507 20 15.9956 19.0833 15.9956 17.8333V2.16667C16.076 0.916667 15.0311 0 13.9058 0ZM11.9766 14.5833C11.2532 14.5833 10.6102 14 10.6102 13.1667C10.6102 12.3333 11.2532 11.8333 11.9766 11.8333C12.7001 11.8333 13.3431 12.4167 13.3431 13.1667C13.3431 14 12.7001 14.5833 11.9766 14.5833ZM13.3431 16.5833C13.3431 17.4167 12.7001 17.9167 11.9766 17.9167C11.2532 17.9167 10.6102 17.3333 10.6102 16.5833C10.6102 15.75 11.2532 15.1667 11.9766 15.1667C12.7001 15.1667 13.3431 15.75 13.3431 16.5833ZM11.9766 11.1667C11.2532 11.1667 10.6102 10.5833 10.6102 9.83333C10.6102 9 11.2532 8.41667 11.9766 8.41667C12.7001 8.41667 13.3431 9 13.3431 9.83333C13.3431 10.6667 12.7001 11.1667 11.9766 11.1667ZM12.9412 7.41667H3.13482C2.73292 7.41667 2.4114 7.08333 2.4114 6.66667V3.33333C2.4114 2.83333 2.73292 2.5 3.13482 2.5H12.8608C13.2627 2.5 13.5842 2.83333 13.5842 3.25V6.58333C13.6646 7.08333 13.3431 7.41667 12.9412 7.41667ZM7.95763 14.5833C7.23421 14.5833 6.59117 14 6.59117 13.1667C6.59117 12.3333 7.23421 11.8333 7.95763 11.8333C8.68105 11.8333 9.32409 12.4167 9.32409 13.1667C9.32409 14 8.60067 14.5833 7.95763 14.5833ZM9.32409 16.5833C9.32409 17.4167 8.68105 17.9167 7.95763 17.9167C7.23421 17.9167 6.59117 17.3333 6.59117 16.5833C6.59117 15.75 7.23421 15.1667 7.95763 15.1667C8.60067 15.1667 9.32409 15.75 9.32409 16.5833ZM7.95763 11.1667C7.23421 11.1667 6.59117 10.5833 6.59117 9.83333C6.59117 9 7.23421 8.41667 7.95763 8.41667C8.68105 8.41667 9.32409 9 9.32409 9.83333C9.32409 10.6667 8.60067 11.1667 7.95763 11.1667ZM3.85825 14.5833C3.13482 14.5833 2.49178 14 2.49178 13.1667C2.49178 12.3333 3.13482 11.8333 3.85825 11.8333C4.58167 11.8333 5.22471 12.4167 5.22471 13.1667C5.22471 14 4.58167 14.5833 3.85825 14.5833ZM5.22471 16.5833C5.22471 17.4167 4.58167 17.9167 3.85825 17.9167C3.13482 17.9167 2.49178 17.3333 2.49178 16.5833C2.49178 15.75 3.13482 15.1667 3.85825 15.1667C4.58167 15.1667 5.22471 15.75 5.22471 16.5833ZM3.85825 11.1667C3.13482 11.1667 2.49178 10.5833 2.49178 9.83333C2.49178 9 3.13482 8.41667 3.85825 8.41667C4.58167 8.41667 5.22471 9 5.22471 9.83333C5.22471 10.6667 4.58167 11.1667 3.85825 11.1667Z" fill="#3A4757"/>
</svg>