<svg width="16" height="20" viewBox="0 0 16 20" fill="none" xmlns="http://www.w3.org/2000/svg">
<path fill-rule="evenodd" clip-rule="evenodd" d="M2.17705 1.5C1.72887 1.5 1.44262 1.84426 1.44262 2.17308V17.8269C1.44262 18.1557 1.72887 18.5 2.17705 18.5H13.823C14.2711 18.5 14.5574 18.1557 14.5574 17.8269V2.17308C14.5574 1.84426 14.2711 1.5 13.823 1.5H2.17705ZM0 2.17308C0 0.930002 1.01727 0 2.17705 0H13.823C14.9827 0 16 0.930002 16 2.17308V17.8269C16 19.07 14.9827 20 13.823 20H2.17705C1.01727 20 0 19.07 0 17.8269V2.17308Z" fill="#3A4757"/>
<path fill-rule="evenodd" clip-rule="evenodd" d="M2.42623 3.27273C2.42623 2.85851 2.74917 2.52273 3.14754 2.52273H12.8525C13.2508 2.52273 13.5738 2.85851 13.5738 3.27273V6.63636C13.5738 7.05058 13.2508 7.38636 12.8525 7.38636H3.14754C2.74917 7.38636 2.42623 7.05058 2.42623 6.63636V3.27273ZM3.86885 4.02273V5.88636H12.1311V4.02273H3.86885Z" fill="#3A4757"/>
<path fill-rule="evenodd" clip-rule="evenodd" d="M2.46058 9.8198C2.46058 9.00318 3.13599 8.44481 3.84075 8.44481C4.54551 8.44481 5.22092 9.00318 5.22092 9.8198C5.22092 10.6364 4.54551 11.1948 3.84075 11.1948C3.13599 11.1948 2.46058 10.6364 2.46058 9.8198Z" fill="#3A4757"/>
<path fill-rule="evenodd" clip-rule="evenodd" d="M6.50429 9.8198C6.50429 9.00318 7.17971 8.44481 7.88447 8.44481C8.58922 8.44481 9.26464 9.00318 9.26464 9.8198C9.26464 10.6364 8.58922 11.1948 7.88447 11.1948C7.17971 11.1948 6.50429 10.6364 6.50429 9.8198Z" fill="#3A4757"/>
<path fill-rule="evenodd" clip-rule="evenodd" d="M10.548 9.8198C10.548 9.00318 11.2234 8.44481 11.9282 8.44481C12.6329 8.44481 13.3084 9.00318 13.3084 9.8198C13.3084 10.6364 12.6329 11.1948 11.9282 11.1948C11.2234 11.1948 10.548 10.6364 10.548 9.8198Z" fill="#3A4757"/>
<path fill-rule="evenodd" clip-rule="evenodd" d="M2.46058 13.1834C2.46058 12.3668 3.13599 11.8084 3.84075 11.8084C4.54551 11.8084 5.22092 12.3668 5.22092 13.1834C5.22092 14.0001 4.54551 14.5584 3.84075 14.5584C3.13599 14.5584 2.46058 14.0001 2.46058 13.1834Z" fill="#3A4757"/>
<path fill-rule="evenodd" clip-rule="evenodd" d="M6.50429 13.1834C6.50429 12.3668 7.17971 11.8084 7.88447 11.8084C8.58922 11.8084 9.26464 12.3668 9.26464 13.1834C9.26464 14.0001 8.58922 14.5584 7.88447 14.5584C7.17971 14.5584 6.50429 14.0001 6.50429 13.1834Z" fill="#3A4757"/>
<path fill-rule="evenodd" clip-rule="evenodd" d="M2.46058 16.5471C2.46058 15.7305 3.13599 15.1721 3.84075 15.1721C4.54551 15.1721 5.22092 15.7305 5.22092 16.5471C5.22092 17.3637 4.54551 17.9221 3.84075 17.9221C3.13599 17.9221 2.46058 17.3637 2.46058 16.5471Z" fill="#3A4757"/>
<path fill-rule="evenodd" clip-rule="evenodd" d="M6.50429 16.5471C6.50429 15.7305 7.17971 15.1721 7.88447 15.1721C8.58922 15.1721 9.26464 15.7305 9.26464 16.5471C9.26464 17.3637 8.58922 17.9221 7.88447 17.9221C7.17971 17.9221 6.50429 17.3637 6.50429 16.5471Z" fill="#3A4757"/>
<path fill-rule="evenodd" clip-rule="evenodd" d="M10.548 13.1834C10.548 12.3668 11.2234 11.8084 11.9282 11.8084C12.6329 11.8084 13.3084 12.3668 13.3084 13.1834C13.3084 14.0001 12.6329 14.5584 11.9282 14.5584C11.2234 14.5584 10.548 14.0001 10.548 13.1834Z" fill="#3A4757"/>
<path fill-rule="evenodd" clip-rule="evenodd" d="M10.548 16.5471C10.548 15.7305 11.2234 15.1721 11.9282 15.1721C12.6329 15.1721 13.3084 15.7305 13.3084 16.5471C13.3084 17.3637 12.6329 17.9221 11.9282 17.9221C11.2234 17.9221 10.548 17.3637 10.548 16.5471Z" fill="#3A4757"/>
</svg>