<svg width="20" height="20" viewBox="0 0 20 20" fill="none" xmlns="http://www.w3.org/2000/svg">
<path fill-rule="evenodd" clip-rule="evenodd" d="M5.52239 0C6.0994 0 6.56716 0.447715 6.56716 1V1.71429H13.4328V1C13.4328 0.447715 13.9006 0 14.4776 0C15.0546 0 15.5224 0.447715 15.5224 1V1.71429H16.2687C18.3269 1.71429 20 3.306 20 5.28089V16.4334C20 18.4061 18.3338 20 16.2733 20H3.72597C1.66248 20 0 18.3984 0 16.4286V5.28571C0 3.31327 1.67058 1.71429 3.73134 1.71429H4.47761V1C4.47761 0.447715 4.94537 0 5.52239 0ZM4.47761 3.71429H3.73134C2.82461 3.71429 2.08955 4.41784 2.08955 5.28571V6.85714H17.9104V5.28089C17.9104 4.41546 17.1779 3.71429 16.2687 3.71429H15.5224V4.42857C15.5224 4.98086 15.0546 5.42857 14.4776 5.42857C13.9006 5.42857 13.4328 4.98086 13.4328 4.42857V3.71429H6.56716V4.42857C6.56716 4.98086 6.0994 5.42857 5.52239 5.42857C4.94537 5.42857 4.47761 4.98086 4.47761 4.42857V3.71429ZM17.9104 8.85714H2.08955V16.4286C2.08955 17.2991 2.82196 18 3.72597 18H16.2733C17.1803 18 17.9104 17.3011 17.9104 16.4334V8.85714ZM14.2909 9.69408C14.7147 10.0689 14.7409 10.7015 14.3493 11.1072L9.54931 16.0802L9.54658 16.083C9.38713 16.2469 9.1947 16.3707 8.98805 16.4524C8.78151 16.534 8.56095 16.5735 8.34124 16.5714C8.11797 16.569 7.89371 16.5235 7.68591 16.4345C7.47907 16.346 7.2881 16.2144 7.13269 16.0424C7.13187 16.0415 7.13106 16.0406 7.13024 16.0396L5.62931 14.3875C5.2507 13.9707 5.29676 13.3391 5.73218 12.9767C6.16761 12.6143 6.82752 12.6584 7.20613 13.0752L8.36922 14.3555L12.8145 9.75001C13.206 9.34435 13.867 9.31931 14.2909 9.69408Z" fill="#3A4757"/>
</svg>