<svg width="20" height="20" viewBox="0 0 20 20" fill="none" xmlns="http://www.w3.org/2000/svg">
<path d="M14.291 9.69409C14.7149 10.0689 14.741 10.7015 14.3495 11.1072L9.54948 16.0802L9.54674 16.083C9.3873 16.2469 9.19487 16.3707 8.98822 16.4524C8.78168 16.534 8.56112 16.5736 8.34141 16.5714C8.11814 16.569 7.89388 16.5235 7.68608 16.4345C7.47924 16.346 7.28827 16.2144 7.13286 16.0424L7.13041 16.0397L5.62948 14.3875C5.25087 13.9707 5.29692 13.3391 5.73235 12.9767C6.16778 12.6143 6.82769 12.6584 7.2063 13.0752L8.36939 14.3555L12.8147 9.75003C13.2062 9.34436 13.8672 9.31932 14.291 9.69409Z" fill="#3A4757"/>
<path fill-rule="evenodd" clip-rule="evenodd" d="M6.56716 1C6.56716 0.447715 6.0994 0 5.52239 0C4.94537 0 4.47761 0.447715 4.47761 1V1.71429H3.73134C1.67058 1.71429 0 3.31327 0 5.28571V16.4286C0 18.3984 1.66248 20 3.72597 20H16.2733C18.3338 20 20 18.4061 20 16.4334V5.28089C20 3.37454 18.441 1.82523 16.4815 1.71999C16.4111 1.7162 16.3401 1.71429 16.2687 1.71429H15.5224V1C15.5224 0.447715 15.0546 0 14.4776 0C13.9006 0 13.4328 0.447715 13.4328 1V1.71429H6.56716V1ZM17.9104 7.69043H2.08947V16.4285C2.08947 17.299 2.82187 18 3.72589 18H16.2732C17.1802 18 17.9104 17.301 17.9104 16.4334V7.69043Z" fill="#3A4757"/>
</svg>