<svg width="20" height="20" viewBox="0 0 20 20" fill="none" xmlns="http://www.w3.org/2000/svg">
<path d="M4.62687 10.2857C4.04985 10.2857 3.58209 10.7334 3.58209 11.2857C3.58209 11.838 4.04985 12.2857 4.62687 12.2857H11.791C12.3681 12.2857 12.8358 11.838 12.8358 11.2857C12.8358 10.7334 12.3681 10.2857 11.791 10.2857H4.62687Z" fill="#3A4757"/>
<path d="M4.62687 13.2857C4.04985 13.2857 3.58209 13.7334 3.58209 14.2857C3.58209 14.838 4.04985 15.2857 4.62687 15.2857H8.20895C8.78597 15.2857 9.25373 14.838 9.25373 14.2857C9.25373 13.7334 8.78597 13.2857 8.20895 13.2857H4.62687Z" fill="#3A4757"/>
<path fill-rule="evenodd" clip-rule="evenodd" d="M6.56716 1C6.56716 0.447715 6.0994 0 5.52239 0C4.94537 0 4.47761 0.447715 4.47761 1V1.71429H3.73134C1.67058 1.71429 0 3.31327 0 5.28571V16.4286C0 18.3984 1.66248 20 3.72597 20H16.2733C18.3338 20 20 18.4061 20 16.4334V5.28089C20 3.306 18.3269 1.71429 16.2687 1.71429H15.5224V1C15.5224 0.447715 15.0546 0 14.4776 0C13.9006 0 13.4328 0.447715 13.4328 1V1.71429H6.56716V1ZM2.08955 8.85714H17.9104V16.4334C17.9104 17.3011 17.1803 18 16.2733 18H3.72597C2.82196 18 2.08955 17.2991 2.08955 16.4286V8.85714Z" fill="#3A4757"/>
</svg>