<svg width="20" height="20" viewBox="0 0 20 20" fill="none" xmlns="http://www.w3.org/2000/svg">
<path d="M13.2462 12.144C12.4439 12.144 11.7934 12.7669 11.7934 13.5353V14.9954C11.7934 15.7638 12.4439 16.3867 13.2462 16.3867H14.7708C15.5731 16.3867 16.2235 15.7638 16.2235 14.9954V13.5353C16.2235 12.7669 15.5731 12.144 14.7708 12.144H13.2462Z" fill="#3A4757"/>
<path fill-rule="evenodd" clip-rule="evenodd" d="M6.74332 1.11303C6.74332 0.49832 6.22298 0 5.58111 0C4.93923 0 4.41889 0.49832 4.41889 1.11303V1.69276H3.81355C1.70738 1.69276 0 3.32789 0 5.34492V16.3478C0 18.362 1.69905 20 3.80825 20H16.191C18.2969 20 20 18.3699 20 16.3527V5.34016C20 3.3204 18.2898 1.69276 16.1865 1.69276H15.5811V1.11303C15.5811 0.49832 15.0608 0 14.4189 0C13.777 0 13.2567 0.49832 13.2567 1.11303V1.69276H6.74332V1.11303ZM3.81355 3.91881H4.41889V4.49854C4.41889 5.11325 4.93923 5.61157 5.58111 5.61157C6.22298 5.61157 6.74332 5.11325 6.74332 4.49854V3.91881H13.2567V4.49854C13.2567 5.11325 13.777 5.61157 14.4189 5.61157C15.0608 5.61157 15.5811 5.11325 15.5811 4.49854V3.91881H16.1865C17.0117 3.91881 17.6756 4.55526 17.6756 5.34016V6.77103H2.32442V5.34492C2.32442 4.5573 2.99113 3.91881 3.81355 3.91881ZM2.32442 8.99708H17.6756V16.3527C17.6756 17.14 17.0137 17.7739 16.191 17.7739H3.80825C2.98885 17.7739 2.32442 17.1384 2.32442 16.3478V8.99708Z" fill="#3A4757"/>
</svg>