<svg width="20" height="20" viewBox="0 0 20 20" fill="none" xmlns="http://www.w3.org/2000/svg">
<path d="M13.2462 12.144C12.4439 12.144 11.7934 12.7669 11.7934 13.5353V14.9954C11.7934 15.7638 12.4439 16.3867 13.2462 16.3867H14.7708C15.5731 16.3867 16.2235 15.7638 16.2235 14.9954V13.5353C16.2235 12.7669 15.5731 12.144 14.7708 12.144H13.2462Z" fill="#3A4757"/>
<path fill-rule="evenodd" clip-rule="evenodd" d="M5.58111 0C6.22298 0 6.74332 0.49832 6.74332 1.11303V1.69276H13.2567V1.11303C13.2567 0.49832 13.777 0 14.4189 0C15.0608 0 15.5811 0.49832 15.5811 1.11303V1.69276H16.1865C18.2898 1.69276 20 3.3204 20 5.34016V16.3527C20 18.3699 18.2969 20 16.191 20H3.80825C1.69905 20 0 18.362 0 16.3478V5.34492C0 3.32789 1.70738 1.69276 3.81355 1.69276H4.41889V1.11303C4.41889 0.49832 4.93923 0 5.58111 0ZM17.6756 8.99708H2.32442V16.3478C2.32442 17.1384 2.98885 17.7739 3.80825 17.7739H16.191C17.0137 17.7739 17.6756 17.14 17.6756 16.3527V8.99708Z" fill="#3A4757"/>
</svg>