<svg width="14" height="15" viewBox="0 0 14 15" fill="none" xmlns="http://www.w3.org/2000/svg">
<path fill-rule="evenodd" clip-rule="evenodd" d="M10.5 0C10.6909 0 10.8497 0.132656 10.8826 0.307593L10.8889 0.375V0.75H13.6316C13.8124 0.75 13.9629 0.882656 13.9941 1.05759L14 1.125V14.625C14 14.8321 13.8351 15 13.6316 15H0.368421C0.164948 15 0 14.8321 0 14.625V1.125C0 0.917893 0.164948 0.75 0.368421 0.75H3.11111V0.375C3.11111 0.167893 3.28522 0 3.5 0C3.69091 0 3.8497 0.132656 3.88262 0.307593L3.88889 0.375V0.75H10.1111V0.375C10.1111 0.167893 10.2852 0 10.5 0ZM13.2214 4.5H0.777L0.777778 14.25H13.2222L13.2214 4.5ZM12.0256 8.25C12.2569 8.25 12.4444 8.41789 12.4444 8.625V13.125C12.4444 13.3321 12.2569 13.5 12.0256 13.5H1.97436C1.74306 13.5 1.55556 13.3321 1.55556 13.125V8.625C1.55556 8.41789 1.74306 8.25 1.97436 8.25H12.0256ZM11.6667 9H2.33333V12.75H11.6667V9ZM3.11111 1.5H0.777778L0.777 3.75H13.2214L13.2222 1.5H10.8889V2.625C10.8889 2.83211 10.7148 3 10.5 3C10.3091 3 10.1503 2.86734 10.1174 2.69241L10.1111 2.625V1.5H3.88889V2.625C3.88889 2.83211 3.71478 3 3.5 3C3.30909 3 3.1503 2.86734 3.11738 2.69241L3.11111 2.625V1.5Z" fill="#3A4757"/>
</svg>