<svg width="20" height="20" viewBox="0 0 20 20" fill="none" xmlns="http://www.w3.org/2000/svg">
<path fill-rule="evenodd" clip-rule="evenodd" d="M5.52239 0C6.0994 0 6.56716 0.447715 6.56716 1V1.71429H13.4328V1C13.4328 0.447715 13.9006 0 14.4776 0C15.0546 0 15.5224 0.447715 15.5224 1V1.71429H16.2687C18.3269 1.71429 20 3.306 20 5.28089V16.4334C20 18.4061 18.3338 20 16.2733 20H3.72597C1.66248 20 0 18.3984 0 16.4286V5.28571C0 3.31327 1.67058 1.71429 3.73134 1.71429H4.47761V1C4.47761 0.447715 4.94537 0 5.52239 0ZM4.47761 3.71429H3.73134C2.82461 3.71429 2.08955 4.41784 2.08955 5.28571V6.85714H17.9104V5.28089C17.9104 4.41546 17.1779 3.71429 16.2687 3.71429H15.5224V4.42857C15.5224 4.98086 15.0546 5.42857 14.4776 5.42857C13.9006 5.42857 13.4328 4.98086 13.4328 4.42857V3.71429H6.56716V4.42857C6.56716 4.98086 6.0994 5.42857 5.52239 5.42857C4.94537 5.42857 4.47761 4.98086 4.47761 4.42857V3.71429ZM17.9104 8.85714H2.08955V16.4286C2.08955 17.2991 2.82196 18 3.72597 18H16.2733C17.1803 18 17.9104 17.3011 17.9104 16.4334V8.85714ZM3.58209 11.2857C3.58209 10.7334 4.04985 10.2857 4.62687 10.2857H11.791C12.3681 10.2857 12.8358 10.7334 12.8358 11.2857C12.8358 11.838 12.3681 12.2857 11.791 12.2857H4.62687C4.04985 12.2857 3.58209 11.838 3.58209 11.2857ZM3.58209 14.2857C3.58209 13.7334 4.04985 13.2857 4.62687 13.2857H8.20895C8.78597 13.2857 9.25373 13.7334 9.25373 14.2857C9.25373 14.838 8.78597 15.2857 8.20895 15.2857H4.62687C4.04985 15.2857 3.58209 14.838 3.58209 14.2857Z" fill="#3A4757"/>
</svg>