<svg width="20" height="12" viewBox="0 0 20 12" fill="none" xmlns="http://www.w3.org/2000/svg">
<path d="M4 7C3.44772 7 3 7.44772 3 8C3 8.55229 3.44772 9 4 9H5.5C6.05228 9 6.5 8.55229 6.5 8C6.5 7.44772 6.05228 7 5.5 7H4Z" fill="#3A4757"/>
<path fill-rule="evenodd" clip-rule="evenodd" d="M13 3.11325V3C13 2.309 12.7664 1.67257 12.3738 1.16537C11.8251 0.456435 10.9659 0 10 0H3C1.34315 0 0 1.34315 0 3V9C0 10.6569 1.34315 12 3 12H10C10.9659 12 11.8251 11.5436 12.3738 10.8346C12.7664 10.3274 13 9.691 13 9V8.88675L17 11.1962C18.3333 11.966 20 11.0037 20 9.4641L20 2.5359C20 0.996454 18.3337 0.0342418 17.0004 0.803613L13 3.11325ZM13 6.57735V5.42265L18 2.5359L18 9.4641L13 6.57735ZM11 9C11 9.55229 10.5523 10 10 10H3C2.44772 10 2 9.55229 2 9V3C2 2.44772 2.44772 2 3 2H10C10.5523 2 11 2.44772 11 3V9Z" fill="#3A4757"/>
</svg>