<svg width="20" height="16" viewBox="0 0 20 16" fill="none" xmlns="http://www.w3.org/2000/svg">
<path fill-rule="evenodd" clip-rule="evenodd" d="M10.0004 4.54376C7.72753 4.54376 5.88501 6.40417 5.88501 8.6991C5.88501 10.994 7.72753 12.8544 10.0004 12.8544C12.2733 12.8544 14.1158 10.994 14.1158 8.6991C14.1158 6.40417 12.2733 4.54376 10.0004 4.54376ZM7.88501 8.6991C7.88501 7.51946 8.8321 6.56318 10.0004 6.56318C11.1687 6.56318 12.1158 7.51946 12.1158 8.6991C12.1158 9.87874 11.1687 10.835 10.0004 10.835C8.8321 10.835 7.88501 9.87874 7.88501 8.6991Z" fill="#3A4757"/>
<path fill-rule="evenodd" clip-rule="evenodd" d="M7.23077 0C6.91601 0 6.61962 0.149633 6.43077 0.403883L4.65385 2.79612H2.38462C1.75218 2.79612 1.14564 3.04979 0.698438 3.50134C0.251236 3.95288 0 4.5653 0 5.20388V13.5922C0 14.2308 0.251236 14.8432 0.698438 15.2948C1.14564 15.7463 1.75218 16 2.38462 16H17.6154C18.2478 16 18.8544 15.7463 19.3016 15.2948C19.7488 14.8432 20 14.2308 20 13.5922V5.20388C20 4.5653 19.7488 3.95288 19.3016 3.50134C18.8544 3.04979 18.2478 2.79612 17.6154 2.79612H15.3462L13.5692 0.403883C13.3804 0.149633 13.084 0 12.7692 0H7.23077ZM5.95385 4.41165L7.73077 2.01942H12.2692L14.0462 4.41165C14.235 4.6659 14.5314 4.81553 14.8462 4.81553H17.6154C17.7174 4.81553 17.8152 4.85645 17.8873 4.92928C17.9595 5.00211 18 5.10089 18 5.20388V13.5922C18 13.6952 17.9595 13.794 17.8873 13.8668C17.8152 13.9397 17.7174 13.9806 17.6154 13.9806H2.38462C2.28261 13.9806 2.18478 13.9397 2.11265 13.8668C2.04052 13.794 2 13.6952 2 13.5922V5.20388C2 5.10089 2.04052 5.00211 2.11265 4.92928C2.18478 4.85645 2.28261 4.81553 2.38462 4.81553H5.15385C5.4686 4.81553 5.76499 4.6659 5.95385 4.41165Z" fill="#3A4757"/>
</svg>