<svg width="20" height="16" viewBox="0 0 20 16" fill="none" xmlns="http://www.w3.org/2000/svg">
<path fill-rule="evenodd" clip-rule="evenodd" d="M7.17647 0C6.91726 0 6.67317 0.123864 6.51765 0.334328L4.64706 2.86567H2.23529C1.64246 2.86567 1.0739 3.10469 0.654702 3.53015C0.235504 3.9556 0 4.53264 0 5.13433V13.7313C0 14.333 0.235504 14.9101 0.654702 15.3355C1.0739 15.761 1.64246 16 2.23529 16H17.7647C18.3575 16 18.9261 15.761 19.3453 15.3355C19.7645 14.9101 20 14.333 20 13.7313V5.13433C20 4.53264 19.7645 3.9556 19.3453 3.53015C18.9261 3.10469 18.3575 2.86567 17.7647 2.86567H15.3529L13.4824 0.334328C13.3268 0.123864 13.0827 0 12.8235 0H7.17647ZM10.0002 5.04145C7.79102 5.04145 6.00016 6.85904 6.00016 9.10115C6.00016 11.3433 7.79102 13.1609 10.0002 13.1609C12.2093 13.1609 14.0002 11.3433 14.0002 9.10115C14.0002 6.85904 12.2093 5.04145 10.0002 5.04145Z" fill="#3A4757"/>
</svg>