<svg width="20" height="19" viewBox="0 0 20 19" fill="none" xmlns="http://www.w3.org/2000/svg">
<path d="M8.7365 0.5C7.47688 0.5 6.29077 1.09507 5.535 2.1062L4.65875 3.27851H4.00679C1.79664 3.27851 0.00488281 5.07629 0.00488281 7.29401V8.78924C0.00488281 9.34366 0.452807 9.79311 1.00535 9.79311C1.55789 9.79311 2.00582 9.34366 2.00582 8.78924V7.29401C2.00582 6.18518 2.90169 5.28626 4.00679 5.28626H5.15898C5.47389 5.28626 5.77041 5.13749 5.95935 4.88471L7.13575 3.31084C7.51363 2.80528 8.10669 2.50775 8.7365 2.50775H11.2733C11.9031 2.50775 12.4961 2.80528 12.874 3.31084L14.0504 4.88471C14.2394 5.13749 14.5359 5.28626 14.8508 5.28626H16.003C17.1081 5.28626 18.0039 6.18518 18.0039 7.29401V8.78924C18.0039 9.34366 18.4519 9.79311 19.0044 9.79311C19.557 9.79311 20.0049 9.34366 20.0049 8.78924V7.29401C20.0049 5.07629 18.2131 3.27851 16.003 3.27851H15.351L14.4748 2.1062C13.719 1.09507 12.5329 0.5 11.2733 0.5H8.7365Z" fill="#3A4757"/>
<path d="M2.00582 13.2904C2.00582 12.736 1.55789 12.2865 1.00535 12.2865C0.452807 12.2865 0.00488281 12.736 0.00488281 13.2904V14.4845C0.00488281 16.7022 1.79658 18.5 4.00675 18.5H6.90454C7.45708 18.5 7.90501 18.0506 7.90501 17.4961C7.90501 16.9417 7.45708 16.4923 6.90454 16.4923H4.00675C2.90167 16.4923 2.00582 15.5934 2.00582 14.4845V13.2904Z" fill="#3A4757"/>
<path d="M20.0049 13.2904C20.0049 12.736 19.557 12.2865 19.0044 12.2865C18.4519 12.2865 18.0039 12.736 18.0039 13.2904V14.4845C18.0039 15.5934 17.1081 16.4923 16.003 16.4923H13.267C12.7145 16.4923 12.2665 16.9417 12.2665 17.4961C12.2665 18.0506 12.7145 18.5 13.267 18.5H16.003C18.2132 18.5 20.0049 16.7022 20.0049 14.4845V13.2904Z" fill="#3A4757"/>
<path fill-rule="evenodd" clip-rule="evenodd" d="M10.005 6.37815C7.73194 6.37815 5.88928 8.22708 5.88928 10.5078C5.88928 12.7886 7.73194 14.6375 10.005 14.6375C12.278 14.6375 14.1207 12.7886 14.1207 10.5078C14.1207 8.22708 12.278 6.37815 10.005 6.37815ZM7.89022 10.5078C7.89022 9.33593 8.83703 8.38589 10.005 8.38589C11.1729 8.38589 12.1197 9.33593 12.1197 10.5078C12.1197 11.6798 11.1729 12.6298 10.005 12.6298C8.83703 12.6298 7.89022 11.6798 7.89022 10.5078Z" fill="#3A4757"/>
</svg>