<svg width="20" height="18" viewBox="0 0 20 18" fill="none" xmlns="http://www.w3.org/2000/svg">
<path d="M8.73162 0C7.472 0 6.28589 0.595073 5.53012 1.6062L4.65386 2.77851H4.00191C1.79176 2.77851 0 4.57629 0 6.79401V8.28924C0 8.84366 0.447925 9.29311 1.00047 9.29311C1.55301 9.29311 2.00094 8.84366 2.00094 8.28924V6.79401C2.00094 5.68518 2.89681 4.78626 4.00191 4.78626H5.1541C5.469 4.78626 5.76553 4.63749 5.95447 4.38471L7.13087 2.81084C7.50875 2.30528 8.10181 2.00775 8.73162 2.00775H11.2684C11.8982 2.00775 12.4912 2.30528 12.8691 2.81084L14.0455 4.38471C14.2345 4.63749 14.531 4.78626 14.8459 4.78626H15.9981C17.1032 4.78626 17.9991 5.68518 17.9991 6.79401V8.28924C17.9991 8.84366 18.447 9.29311 18.9995 9.29311C19.5521 9.29311 20 8.84366 20 8.28924V6.79401C20 4.57629 18.2082 2.77851 15.9981 2.77851H15.3461L14.4699 1.6062C13.7141 0.595073 12.528 0 11.2684 0H8.73162Z" fill="#3A4757"/>
<path d="M2.00094 12.7904C2.00094 12.236 1.55301 11.7865 1.00047 11.7865C0.447925 11.7865 0 12.236 0 12.7904V13.9845C0 16.2022 1.7917 18 4.00187 18H6.89966C7.4522 18 7.90012 17.5506 7.90012 16.9961C7.90012 16.4417 7.4522 15.9923 6.89966 15.9923H4.00187C2.89678 15.9923 2.00094 15.0934 2.00094 13.9845V12.7904Z" fill="#3A4757"/>
<path d="M20 12.7904C20 12.236 19.5521 11.7865 18.9995 11.7865C18.447 11.7865 17.9991 12.236 17.9991 12.7904V13.9845C17.9991 15.0934 17.1032 15.9923 15.9981 15.9923H13.2621C12.7096 15.9923 12.2616 16.4417 12.2616 16.9961C12.2616 17.5506 12.7096 18 13.2621 18H15.9981C18.2083 18 20 16.2022 20 13.9845V12.7904Z" fill="#3A4757"/>
<path fill-rule="evenodd" clip-rule="evenodd" d="M10.0001 5.87815C7.72706 5.87815 5.8844 7.72708 5.8844 10.0078C5.8844 12.2886 7.72706 14.1375 10.0001 14.1375C12.2731 14.1375 14.1158 12.2886 14.1158 10.0078C14.1158 7.72708 12.2731 5.87815 10.0001 5.87815ZM7.88533 10.0078C7.88533 8.83593 8.83214 7.88589 10.0001 7.88589C11.168 7.88589 12.1148 8.83593 12.1148 10.0078C12.1148 11.1798 11.168 12.1298 10.0001 12.1298C8.83214 12.1298 7.88533 11.1798 7.88533 10.0078Z" fill="#3A4757"/>
</svg>