<svg width="20" height="16" viewBox="0 0 20 16" fill="none" xmlns="http://www.w3.org/2000/svg">
<path d="M19.34 5.22326L17.55 1.84115C17.25 1.2808 16.82 0.820513 16.3 0.490306C15.78 0.1601 15.19 0 14.58 0H2.2C1.62 0 1.06 0.24015 0.65 0.670419C0.24 1.10069 0 1.70106 0 2.31144V11.7974C0 12.4078 0.23 12.9981 0.64 13.4284C1 13.8086 1.48 14.0388 1.98 14.0888C1.99 14.1188 1.99 14.1488 2 14.1789C2.15 14.5491 2.35 14.8593 2.61 15.1395C2.88 15.4196 3.18 15.6298 3.52 15.7799C3.86 15.93 4.22 16 4.59 16C4.96 16 5.33 15.93 5.66 15.7799C6 15.6298 6.31 15.4096 6.57 15.1395C6.83 14.8693 7.04 14.5491 7.18 14.1789C7.18 14.1589 7.19 14.1288 7.2 14.1088H12.18C12.32 14.4891 12.53 14.8493 12.81 15.1395C13.33 15.6898 14.05 16 14.79 16C15.53 16 16.24 15.6898 16.77 15.1395C17.05 14.8393 17.26 14.4891 17.4 14.1088H17.79V14.0888C18.39 14.0888 18.94 13.8587 19.36 13.4184C19.76 12.9981 20 12.3977 20 11.7874V7.87492C20 6.94434 19.77 6.03377 19.34 5.22326ZM8.6 6.74422V5.69356H12.6V6.74422H8.6ZM2 6.74422V5.69356H6.6V6.74422H2ZM14.59 5.68355H17.29L17.59 6.25391C17.67 6.404 17.72 6.57411 17.77 6.73421H14.59V5.68355ZM2.06 2.18136C2.06 2.18136 2.15 2.12133 2.2 2.12133H14.58C14.83 2.12133 15.08 2.18136 15.29 2.32145C15.5 2.46154 15.68 2.65166 15.8 2.8818L16.17 3.59225H2V2.34146C2 2.29143 2.02 2.23139 2.06 2.19137V2.18136ZM4.9 13.8286C4.71 13.9087 4.49 13.9087 4.29 13.8286C3.98062 13.7048 3.8 13.3745 3.8 13.0482C3.8 12.5987 4.14856 12.2176 4.6 12.2176C5.05123 12.2176 5.39 12.6148 5.39 13.0582C5.39 13.381 5.20741 13.7056 4.9 13.8286ZM15.35 13.6585C15.05 13.9787 14.52 13.9787 14.22 13.6585C14.07 13.4984 13.99 13.2783 13.99 13.0582C13.99 12.838 14.08 12.6179 14.23 12.4578C14.37 12.2977 14.58 12.2176 14.78 12.2176C15 12.2176 15.2 12.2977 15.34 12.4578C15.48 12.6179 15.57 12.828 15.57 13.0582C15.57 13.2883 15.49 13.4984 15.34 13.6585H15.35ZM17.93 11.9475C17.93 11.9475 17.84 12.0075 17.79 12.0075H17.4C17.26 11.6273 17.05 11.2771 16.77 10.9769C15.73 9.88618 13.85 9.88618 12.81 10.9769C12.53 11.2771 12.32 11.6273 12.18 12.0075H7.2C7.2 12.0075 7.19 11.9575 7.18 11.9375C7.04 11.5772 6.83 11.257 6.57 10.9769C6.31 10.7067 6 10.4866 5.66 10.3365C4.98 10.0463 4.21 10.0463 3.52 10.3365C3.17 10.4966 2.87 10.7067 2.61 10.9769C2.36 11.237 2.16 11.5472 2.02 11.8874C2.01 11.8574 1.99 11.8374 1.99 11.8074V8.84553H17.98V11.7974C17.98 11.8474 17.96 11.9074 17.92 11.9475H17.93Z" fill="#3A4757"/>
</svg>