<svg width="15" height="15" viewBox="0 0 15 15" fill="none" xmlns="http://www.w3.org/2000/svg">
<path fill-rule="evenodd" clip-rule="evenodd" d="M13.875 3.75C14.0591 3.75 14.2122 3.88266 14.244 4.05759L14.25 4.125V5.25H14.5833C14.7879 5.25 14.958 5.38266 14.9933 5.55759L15 5.625V14.625C15 14.8091 14.8526 14.9622 14.6582 14.994L14.5833 15H7.91667C7.71212 15 7.54199 14.8673 7.50671 14.6924L7.5 14.625V8.99936C7.5 8.93047 7.52107 8.86337 7.56021 8.80517L7.60527 8.7502L10.9386 5.37584C11.0019 5.3118 11.087 5.26969 11.1795 5.2554L11.25 5.25H12V4.125C12 3.94091 12.1327 3.78779 12.3076 3.75604L12.375 3.75H13.875ZM14.25 6H11.442L8.25 9.141V14.25H14.25V6ZM13.125 7.5C13.3091 7.5 13.4622 7.61792 13.494 7.77342L13.5 7.83333V13.1667C13.5 13.3303 13.3673 13.4664 13.1924 13.4946L13.125 13.5H9.375C9.1909 13.5 9.03779 13.3821 9.00604 13.2266L9 13.1667V9.83295C9 9.77446 9.0173 9.71736 9.04966 9.66719L9.08694 9.61953L10.9619 7.61991C11.0189 7.55913 11.0979 7.51886 11.1841 7.50518L11.25 7.5H13.125ZM12.75 8.25H11.4255L9.75 9.97286V12.75H12.75V8.25ZM9.75 5.625C9.75 5.83211 9.58211 6 9.375 6C9.1909 6 9.03779 5.86734 9.00604 5.69241L9 5.625V3.75H0.75V9.75H5.99288C6.17697 9.75 6.33008 9.88266 6.36184 10.0576L6.36788 10.125C6.36788 10.3091 6.23522 10.4622 6.06028 10.494L5.99288 10.5H0.375C0.190905 10.5 0.0377937 10.3673 0.00604177 10.1924L0 10.125V1.875C0 1.69091 0.132656 1.53779 0.307593 1.50604L0.375 1.5H0.75V0.375C0.75 0.190905 0.882656 0.0377937 1.05759 0.00604177L1.125 0H2.625C2.80909 0 2.96221 0.132656 2.99396 0.307593L3 0.375V1.5H6.75V0.375C6.75 0.190905 6.88266 0.0377937 7.05759 0.00604177L7.125 0H8.625C8.8091 0 8.96221 0.132656 8.99396 0.307593L9 0.375V1.5H9.375C9.5591 1.5 9.71221 1.63266 9.74396 1.80759L9.75 1.875V5.625ZM2.625 5.25C2.80909 5.25 2.96221 5.38266 2.99396 5.55759L3 5.625V6H3.375C3.58211 6 3.75 6.16789 3.75 6.375C3.75 6.55909 3.61734 6.71221 3.44241 6.74396L3.375 6.75H3V7.125C3 7.33211 2.83211 7.5 2.625 7.5C2.44091 7.5 2.28779 7.36734 2.25604 7.19241L2.25 7.125V6.75H1.875C1.66789 6.75 1.5 6.58211 1.5 6.375C1.5 6.19091 1.63266 6.03779 1.80759 6.00604L1.875 6H2.25V5.625C2.25 5.41789 2.41789 5.25 2.625 5.25ZM7.875 6C8.08211 6 8.25 6.16789 8.25 6.375C8.25 6.55909 8.11734 6.71221 7.94241 6.74396L7.875 6.75H6.375C6.16789 6.75 6 6.58211 6 6.375C6 6.19091 6.13266 6.03779 6.30759 6.00604L6.375 6H7.875ZM13.5 4.5H12.75V5.25H13.5V4.5ZM9 2.25H0.75V3H9V2.25ZM2.25 0.75H1.5V1.5H2.25V0.75ZM8.25 0.75H7.5V1.5H8.25V0.75Z" fill="#3A4757"/>
</svg>