<svg width="15" height="14" viewBox="0 0 15 14" fill="none" xmlns="http://www.w3.org/2000/svg">
<path fill-rule="evenodd" clip-rule="evenodd" d="M6.50887 0C7.93878 0 9.20676 0.850761 9.68457 2.11239L9.73616 2.25976L10.5015 4.63474L10.8929 4.25034C10.8812 4.18619 10.875 4.12012 10.875 4.05263C10.875 3.47812 11.3212 3.00599 11.8917 2.95243L12 2.94737H12.75C13.3713 2.94737 13.875 3.44221 13.875 4.05263C13.875 4.62714 13.4288 5.09928 12.8583 5.15284L12.75 5.15789H12C11.7291 5.15789 11.4805 5.06379 11.2863 4.90703L10.7565 5.42684L11.145 6.63228C13.2273 6.67173 14.9138 8.38253 14.9968 10.519L15 10.6842V13.6316C15 13.8124 14.8737 13.9629 14.7071 13.9941L14.6429 14H0.357143C0.181814 14 0.0359938 13.8697 0.00575387 13.6978L0 13.6316V0.354138C0 0.180285 0.132589 0.0356912 0.307436 0.00570563L0.374809 0H6.50887ZM3 11.7895H0.75V13.2632H3V11.7895ZM11.0526 7.36842H0.75L0.74925 8.8421H1.875C1.91381 8.8421 1.95227 8.84802 1.98902 8.85955L2.04271 8.881L3.54271 9.61784C3.64858 9.66985 3.72195 9.76711 3.74347 9.87884L3.75 9.94737V13.2632H14.25V10.6842C14.25 8.95918 12.9798 7.54182 11.3563 7.38318L11.2031 7.37203L11.0526 7.36842ZM11.625 8.8421C12.2098 8.8421 12.6903 9.28044 12.7449 9.84092L12.75 9.94737V10.6842C12.75 11.2587 12.3038 11.7309 11.7333 11.7844L11.625 11.7895H9.375C8.79023 11.7895 8.30966 11.3511 8.25515 10.7907L8.25 10.6842V9.94737C8.25 9.37286 8.69617 8.90072 9.26665 8.84717L9.375 8.8421H11.625ZM1.7865 9.57895H0.75V11.0526H3V10.1751L1.7865 9.57895ZM11.625 9.57895H9.375C9.1909 9.57895 9.03779 9.70928 9.00604 9.88114L9 9.94737V10.6842C9 10.8651 9.13266 11.0155 9.30759 11.0467L9.375 11.0526H11.625C11.8091 11.0526 11.9622 10.9223 11.994 10.7504L12 10.6842V9.94737C12 9.74389 11.8321 9.57895 11.625 9.57895ZM6.49744 0.737319L0.749617 0.736842V6.63158H1.875V5.89272C1.875 5.75122 1.95719 5.62419 2.08313 5.56277L2.13967 5.54061L6.67299 4.1695C6.87093 4.10963 7.08079 4.21875 7.14173 4.41322C7.19589 4.58608 7.11416 4.76819 6.9563 4.84857L6.89366 4.87373L2.625 6.16442V6.63158H10.3496L9.00258 2.4779C8.69575 1.53211 7.81849 0.860152 6.78885 0.752483L6.64077 0.740972L6.49744 0.737319ZM12.75 3.68421H12C11.7929 3.68421 11.625 3.84916 11.625 4.05263C11.625 4.2335 11.7577 4.38392 11.9326 4.41512L12 4.42105H12.75C12.9571 4.42105 13.125 4.2561 13.125 4.05263C13.125 3.84916 12.9571 3.68421 12.75 3.68421Z" fill="#3A4757"/>
</svg>