<svg width="24" height="16" viewBox="0 0 24 16" fill="none" xmlns="http://www.w3.org/2000/svg">
<path d="M22.3015 16H1.69757C0.761492 16 0 15.2394 0 14.3044V1.69563C0 0.760624 0.761492 0 1.69757 0H22.3015C23.2376 0 23.9991 0.760624 23.9991 1.69563V14.3034C23.9991 15.2384 23.2376 16 22.3015 16ZM1.69757 0.788451C1.19703 0.788451 0.789351 1.19566 0.789351 1.69563V14.3034C0.789351 14.8034 1.19703 15.2106 1.69757 15.2106H22.3015C22.802 15.2106 23.2097 14.8034 23.2097 14.3034V1.69563C23.2097 1.19566 22.802 0.788451 22.3015 0.788451H1.69757Z" fill="#3A4757"/>
<path d="M15.2317 11.1895H3.01625C2.79802 11.1895 2.62158 11.0133 2.62158 10.7953C2.62158 10.5773 2.79802 10.4011 3.01625 10.4011H15.2317C15.4499 10.4011 15.6264 10.5773 15.6264 10.7953C15.6264 11.0133 15.4499 11.1895 15.2317 11.1895Z" fill="#3A4757"/>
<path d="M10.5885 13.1171H3.03297C2.82681 13.1171 2.64293 12.9668 2.62343 12.7618C2.60115 12.5262 2.78595 12.3286 3.01625 12.3286H10.568C10.776 12.3286 10.9636 12.4807 10.9813 12.6876C11.0017 12.9213 10.8178 13.1171 10.5885 13.1171Z" fill="#3A4757"/>
<path d="M23.6146 2.88109H0.144869V5.66386H23.6146V2.88109Z" fill="#3A4757"/>
</svg>