<svg width="20" height="16" viewBox="0 0 20 16" fill="none" xmlns="http://www.w3.org/2000/svg">
<path fill-rule="evenodd" clip-rule="evenodd" d="M18.9895 6.67539L19.1398 6.62557C19.2637 6.58141 19.3776 6.51345 19.4751 6.4255C19.5726 6.33756 19.6517 6.23138 19.7079 6.11304C19.7641 5.99469 19.7964 5.86648 19.8027 5.73575C19.8091 5.60503 19.7896 5.47433 19.7452 5.35112C19.7007 5.22792 19.6323 5.11461 19.5439 5.01768C19.4555 4.92075 19.3487 4.84208 19.2297 4.78619C19.1107 4.73029 18.9818 4.69823 18.8503 4.69188C18.7188 4.68553 18.5874 4.70499 18.4634 4.74914L17.1442 5.2141C17.0472 5.25387 16.9548 5.30397 16.8687 5.36354L16.2508 2.87272C16.0456 2.05181 15.5699 1.32293 14.8995 0.802252C14.229 0.281576 13.4026 -0.000863058 12.5519 1.98114e-06H7.10793C6.25726 -0.000863058 5.43081 0.281576 4.7604 0.802252C4.08999 1.32293 3.61424 2.05181 3.40903 2.87272L2.80783 5.23903L1.49698 4.59139C1.37896 4.52471 1.24853 4.48258 1.11364 4.46754C0.978745 4.4525 0.842199 4.46489 0.712259 4.50392C0.58232 4.54295 0.461674 4.60783 0.357715 4.69462C0.253755 4.7814 0.168646 4.88826 0.10749 5.00876C0.0463329 5.12926 0.0104045 5.26085 0.00194674 5.39557C-0.00651104 5.53028 0.0126503 5.66533 0.0582601 5.79246C0.10387 5.91959 0.175011 6.03616 0.267307 6.13513C0.359604 6.2341 0.47115 6.31339 0.595199 6.36819L1.1379 6.64219C0.793306 6.9604 0.518384 7.3458 0.330195 7.77434C0.142006 8.20289 0.0445876 8.66539 0.0440926 9.13301V13.2096C0.0462945 13.9048 0.324994 14.5709 0.819331 15.0624C1.31367 15.554 1.98352 15.8311 2.68262 15.8333H3.51758C4.03614 15.8331 4.54297 15.6799 4.97398 15.3932C5.40499 15.1065 5.74078 14.6991 5.93895 14.2226H14.1049C14.3022 14.6997 14.6378 15.1077 15.069 15.3946C15.5002 15.6814 16.0076 15.8342 16.5264 15.8333H17.3613C18.0604 15.8311 18.7302 15.554 19.2246 15.0624C19.7189 14.5709 19.9976 13.9048 19.9998 13.2096V9.13301C20.0046 8.67709 19.9177 8.22482 19.7442 7.80277C19.5707 7.38073 19.3141 6.9974 18.9895 6.67539ZM15.6496 11.2087H14.2469C13.9856 11.2087 13.735 11.1055 13.5502 10.9217C13.3655 10.738 13.2616 10.4888 13.2616 10.229C13.2616 9.96914 13.3655 9.71993 13.5502 9.53619C13.735 9.35246 13.9856 9.24927 14.2469 9.24927H15.6496C15.9109 9.24927 16.1616 9.35246 16.3463 9.53619C16.5311 9.71993 16.6349 9.96914 16.6349 10.229C16.6349 10.4888 16.5311 10.738 16.3463 10.9217C16.1616 11.1055 15.9109 11.2087 15.6496 11.2087ZM3.42575 10.229C3.42575 9.96914 3.52952 9.71993 3.7143 9.53619C3.89907 9.35246 4.14969 9.24927 4.411 9.24927H5.81374C6.07505 9.24927 6.32562 9.35246 6.51039 9.53619C6.69517 9.71993 6.79899 9.96914 6.79899 10.229C6.79899 10.4888 6.69517 10.738 6.51039 10.9217C6.32562 11.1055 6.07505 11.2087 5.81374 11.2087H4.411C4.15553 11.2001 3.91341 11.0931 3.7358 10.9103C3.55819 10.7275 3.45898 10.4832 3.45913 10.229H3.42575ZM5.31273 3.38753C5.4128 2.99834 5.64027 2.65327 5.95924 2.40675C6.2782 2.16023 6.67057 2.02625 7.07455 2.02587H12.5185C12.9218 2.02522 13.3137 2.15896 13.6315 2.40579C13.9494 2.65262 14.1749 2.9983 14.272 3.38753L14.8647 5.73717H4.76167L5.31273 3.38753Z" fill="#3A4757"/>
</svg>