<svg width="20" height="18" viewBox="0 0 20 18" fill="none" xmlns="http://www.w3.org/2000/svg">
<path d="M14.6667 11.2503H16.75C17.2833 11.2503 17.7083 10.8118 17.7083 10.2806C17.7083 9.74928 17.275 9.31076 16.75 9.31076H14.6667C14.1333 9.31076 13.7083 9.74928 13.7083 10.2806C13.7083 10.8118 14.1417 11.2503 14.6667 11.2503Z" fill="#3A4757"/>
<path d="M5.4 9.30233H3.31667C2.78333 9.30233 2.35833 9.74084 2.35833 10.2721C2.35833 10.8034 2.79167 11.2419 3.31667 11.2419H5.4C5.93333 11.2419 6.35833 10.8034 6.35833 10.2721C6.35833 9.74084 5.925 9.30233 5.4 9.30233Z" fill="#3A4757"/>
<path d="M19.0417 6.78657C19.575 6.78657 20 6.34806 20 5.81678C20 5.28551 19.5667 4.84699 19.0417 4.84699H17.2833L16.6333 2.2769C16.6333 2.2769 16.6167 2.24317 16.6083 2.2263C15.9833 0.961357 14.7 0 13.175 0H7.125C5.60833 0 4.3 0.952924 3.74167 2.2769L2.71667 4.84699H0.958333C0.425 4.84699 0 5.28551 0 5.81678C0 6.34806 0.433333 6.78657 0.958333 6.78657H0.983333C0.375 7.46121 0 8.3551 0 9.33333V12.8053C0 13.4631 0.266667 14.0618 0.691667 14.4919V15.6219C0.691667 16.929 1.75 18 3.04167 18H4.43333C5.725 18 6.78333 16.929 6.78333 15.6219V15.1834H13.2083V15.6219C13.2083 16.929 14.2667 18 15.5583 18H16.95C18.2417 18 19.3 16.929 19.3 15.6219V14.4919C19.7333 14.0618 19.9917 13.4631 19.9917 12.8053V9.33333C19.9917 8.3551 19.6167 7.46121 19.0083 6.78657H19.0417ZM4.86667 15.6219C4.86667 15.858 4.66667 16.0604 4.43333 16.0604H3.04167C2.80833 16.0604 2.60833 15.858 2.60833 15.6219V15.1834H4.86667V15.6219ZM8.05 13.2438L8.35833 12.5945C8.35833 12.5945 8.36667 12.5692 8.375 12.5523C8.40833 12.4764 8.50833 12.3668 8.74167 12.3668H11.175C11.4083 12.3668 11.5083 12.4764 11.5417 12.5523C11.55 12.5776 11.5583 12.5945 11.575 12.6198L11.8917 13.2438H8.04167H8.05ZM11.1833 10.4272H8.75C7.88333 10.4272 7.01667 10.8742 6.625 11.768L5.925 13.2438H2.35C2.11667 13.2438 1.91667 13.0414 1.91667 12.8053V9.33333C1.91667 8.32137 2.74167 7.48651 3.74167 7.48651H16.2583C17.2583 7.48651 18.0833 8.32137 18.0833 9.33333V12.8053C18.0833 13.0414 17.8833 13.2438 17.65 13.2438H14.0583L13.3 11.7512C12.9083 10.8657 12.0417 10.4272 11.1833 10.4272ZM5.50833 3.0443C5.78333 2.39496 6.425 1.93958 7.13333 1.93958H13.1833C13.875 1.93958 14.5417 2.37809 14.8917 3.0696L15.5 5.54693H4.50833L5.50833 3.0443ZM17.3917 15.6219C17.3917 15.858 17.1917 16.0604 16.9583 16.0604H15.5667C15.3333 16.0604 15.1333 15.858 15.1333 15.6219V15.1834H17.3917V15.6219Z" fill="#3A4757"/>
</svg>