<svg width="24" height="24" viewBox="0 0 24 24" fill="none" xmlns="http://www.w3.org/2000/svg">
<path fill-rule="evenodd" clip-rule="evenodd" d="M9.04615 5.98245C8.21532 5.98245 7.4911 6.54528 7.2896 7.34757L7.2896 7.34758L6.69792 9.7033H16.8345L16.2428 7.34759C16.0413 6.54525 15.3171 5.98245 14.4863 5.98245H9.04615ZM20.909 10.6324C21.5805 11.2592 22 12.1502 22 13.1388V17.2126C22 18.66 20.8212 19.8333 19.3671 19.8333H18.4974C17.4052 19.8333 16.4694 19.1672 16.0777 18.2208H7.92253C7.5308 19.1672 6.59499 19.8333 5.50287 19.8333H4.63316C3.17903 19.8333 2.00022 18.66 2.00022 17.2126V13.1388C2.00022 12.1487 2.421 11.2564 3.09427 10.6295L2.5507 10.359C2.05878 10.1142 1.85939 9.51875 2.10535 9.0291C2.35131 8.53946 2.94949 8.34099 3.44141 8.58581L4.76071 9.24241L5.35738 6.86677C5.35739 6.86677 5.35739 6.86676 5.35739 6.86676C5.78055 5.18193 7.30141 4 9.04615 4H14.4863C16.2311 4 17.7519 5.18197 18.175 6.86675L17.2089 7.10717L18.175 6.86675L18.7949 9.33469C18.8763 9.27144 18.969 9.2198 19.0714 9.18316L20.392 8.71075C20.9095 8.52559 21.4799 8.79313 21.6659 9.30831C21.8519 9.82348 21.5832 10.3912 21.0656 10.5764L20.909 10.6324ZM5.45171 11.6858C4.64548 11.6858 3.9919 12.3363 3.9919 13.1388V17.2126C3.9919 17.5651 4.279 17.8509 4.63316 17.8509H5.50287C5.84761 17.8509 6.12708 17.5727 6.12708 17.2296C6.12708 16.6821 6.57293 16.2383 7.12292 16.2383H16.8773C17.4273 16.2383 17.8731 16.6821 17.8731 17.2296C17.8731 17.5727 18.1526 17.8509 18.4974 17.8509H19.3671C19.7212 17.8509 20.0083 17.5651 20.0083 17.2126V13.1388C20.0083 12.3363 19.3547 11.6858 18.5485 11.6858H5.45171ZM5.39153 14.1863C5.39153 13.6389 5.83738 13.1951 6.38737 13.1951H7.79059C8.34058 13.1951 8.78643 13.6389 8.78643 14.1863C8.78643 14.7338 8.34058 15.1776 7.79059 15.1776H6.38737C5.83738 15.1776 5.39153 14.7338 5.39153 14.1863ZM15.2141 14.1863C15.2141 13.6389 15.66 13.1951 16.21 13.1951H17.6132C18.1632 13.1951 18.609 13.6389 18.609 14.1863C18.609 14.7338 18.1632 15.1776 17.6132 15.1776H16.21C15.66 15.1776 15.2141 14.7338 15.2141 14.1863Z" fill="#3A4757"/>
</svg>