<svg width="16" height="15" viewBox="0 0 16 15" fill="none" xmlns="http://www.w3.org/2000/svg">
<path fill-rule="evenodd" clip-rule="evenodd" d="M15.2335 12.4282L15.2339 12.4304L15.2296 12.4539C15.2271 12.4654 15.224 12.4769 15.2204 12.4883L15.2093 12.5183C15.2051 12.5284 15.2002 12.5387 15.1948 12.5488C15.1899 12.558 15.1847 12.5668 15.1793 12.5753C15.1766 12.5795 15.1736 12.5839 15.1706 12.5882L15.1607 12.6016C15.1528 12.6118 15.1444 12.6216 15.1356 12.631L14.4754 13.2803L14.4762 13.875C14.4762 14.4963 13.9645 15 13.3333 15C12.7393 15 12.2511 14.5538 12.1957 13.9833L12.1905 13.875L12.1897 13.2795L11.5311 12.631C11.5222 12.6216 11.5138 12.6118 11.506 12.6016L11.4961 12.5882C11.493 12.5839 11.4901 12.5795 11.4872 12.5751C11.4819 12.5668 11.4768 12.558 11.472 12.5491C11.4665 12.5387 11.4616 12.5284 11.4572 12.5179C11.4533 12.5085 11.4496 12.4986 11.4463 12.4884C11.4426 12.4769 11.4395 12.4654 11.437 12.4537C11.4362 12.4501 11.4354 12.4463 11.4347 12.4424L11.4325 12.4289C11.4306 12.4162 11.4294 12.4033 11.4289 12.3904L11.4286 9.82256L11.4295 9.79757C11.4289 9.78179 11.4286 9.76593 11.4286 9.75C11.4286 9.00194 12.0955 8.41543 12.9529 8.27972L12.9524 7.5H11.8095L11.7577 7.4955L11.7746 7.49843L11.7905 7.49925L11.7688 7.49788L11.757 7.4955H11.7554L11.7294 7.49168C11.7177 7.4892 11.706 7.48616 11.6945 7.48257L11.664 7.47166C11.6537 7.46749 11.6432 7.46269 11.6329 7.4574C11.6236 7.45253 11.6147 7.44749 11.6061 7.44211L11.5793 7.42381L11.5756 7.42125L11.5749 7.4205L11.5641 7.4118L11.5558 7.40474L11.5497 7.39875L10.7782 6.64017L10.7342 6.58823C10.6313 6.44208 10.646 6.24001 10.7782 6.10983C10.9105 5.97966 11.1158 5.9652 11.2642 6.06644L11.317 6.10983L11.9672 6.75H14.6987L15.3497 6.10983C15.4984 5.96339 15.7397 5.96339 15.8884 6.10983C16.0207 6.24001 16.0354 6.44208 15.9325 6.58823L15.8884 6.64017L15.1172 7.39906L15.1026 7.4118L15.0941 7.41825L15.1265 7.39017L15.0903 7.4205L15.0604 7.44224C15.0519 7.44749 15.0431 7.45253 15.034 7.45722C15.0234 7.46269 15.013 7.46749 15.0024 7.47179C14.9928 7.47569 14.9827 7.47933 14.9723 7.48255C14.9606 7.48616 14.9489 7.4892 14.9371 7.49169C14.9334 7.4925 14.9295 7.49326 14.9256 7.49396L14.9119 7.49612C14.8989 7.49797 14.8859 7.49916 14.8728 7.49968L14.8571 7.5H13.7143L13.7146 8.27984C14.5715 8.41579 15.2381 9.00216 15.2381 9.75L15.2358 9.80475L15.2381 9.82256V12.375L15.2373 12.3825L15.2335 12.4282ZM10.2857 0C11.2956 0 12.1219 0.773652 12.1864 1.75172L12.1905 1.875V5.625C12.1905 5.83211 12.0199 6 11.8095 6C11.6225 6 11.467 5.86734 11.4347 5.69241L11.4286 5.625V4.5H1.52381V10.5H10.3043C10.5044 10.5 10.6667 10.6679 10.6667 10.875C10.6667 11.0591 10.5385 11.2122 10.3695 11.244L10.3043 11.25L1.14993 11.2499C1.14758 11.25 1.14522 11.25 1.14286 11.25L1.13524 11.2493L0.72459 11.2497V11.9997L10.3043 12C10.4822 12 10.6302 12.1326 10.6608 12.3076L10.6636 12.3428L10.6667 12.375V14.625C10.6667 14.8091 10.5319 14.9622 10.3542 14.994L10.2857 15H8.7619C8.57489 15 8.41935 14.8673 8.38709 14.6924L8.38095 14.625V12.7493H3.80952V14.625C3.80952 14.8091 3.67476 14.9622 3.49705 14.994L3.42857 15H1.90476C1.71774 15 1.5622 14.8673 1.52995 14.6924L1.52381 14.625V12.7493L0.362325 12.75C0.184453 12.75 0.0365164 12.6173 0.00583758 12.4424L0 12.375V10.875C0 10.6909 0.128173 10.5378 0.297197 10.506L0.362325 10.5H0.761905V1.875C0.761905 0.880887 1.54784 0.067471 2.54143 0.00398827L2.66667 0H10.2857ZM13.3333 12C13.1463 12 12.9908 12.1327 12.9585 12.3076L12.9524 12.375V13.875C12.9524 14.0821 13.1229 14.25 13.3333 14.25C13.5204 14.25 13.6759 14.1173 13.7081 13.9424L13.7143 13.875V12.375C13.7143 12.1679 13.5437 12 13.3333 12ZM3.04762 12.75H2.28571V14.25H3.04762V12.75ZM9.90476 12.75H9.14286V14.25H9.90476V12.75ZM14.4761 10.9532C14.1552 11.141 13.7577 11.25 13.3333 11.25C13.9145 11.25 14.3943 11.677 14.4667 12.2297L14.4754 12.2197L14.4761 10.9532ZM12.1898 10.9528L12.1897 12.219L12.1999 12.2297C12.2723 11.677 12.7522 11.25 13.3333 11.25C12.9086 11.25 12.5109 11.1409 12.1898 10.9528ZM13.3333 9C12.6822 9 12.1905 9.36305 12.1905 9.75C12.1905 10.1369 12.6822 10.5 13.3333 10.5C13.9844 10.5 14.4762 10.1369 14.4762 9.75C14.4762 9.36305 13.9844 9 13.3333 9ZM3.80952 6C4.6511 6 5.33333 6.67157 5.33333 7.5C5.33333 8.32843 4.6511 9 3.80952 9C2.96795 9 2.28571 8.32843 2.28571 7.5C2.28571 6.67157 2.96795 6 3.80952 6ZM9.14286 6C9.98443 6 10.6667 6.67157 10.6667 7.5C10.6667 8.32843 9.98443 9 9.14286 9C8.30128 9 7.61905 8.32843 7.61905 7.5C7.61905 6.67157 8.30128 6 9.14286 6ZM3.80952 6.75C3.38874 6.75 3.04762 7.08579 3.04762 7.5C3.04762 7.91421 3.38874 8.25 3.80952 8.25C4.23031 8.25 4.57143 7.91421 4.57143 7.5C4.57143 7.08579 4.23031 6.75 3.80952 6.75ZM9.14286 6.75C8.72207 6.75 8.38095 7.08579 8.38095 7.5C8.38095 7.91421 8.72207 8.25 9.14286 8.25C9.56365 8.25 9.90476 7.91421 9.90476 7.5C9.90476 7.08579 9.56365 6.75 9.14286 6.75ZM10.2857 0.75H2.66667C2.07261 0.75 1.58442 1.19617 1.52904 1.76666L1.52381 1.875V3.75H5.58552L5.60271 3.73116L7.21895 2.14017C7.36772 1.99372 7.60893 1.99372 7.7577 2.14017C7.88994 2.27034 7.90463 2.47241 7.80178 2.61856L7.7577 2.6705L6.65981 3.75H7.10933L7.12652 3.73116L8.74276 2.14017C8.89153 1.99372 9.13274 1.99372 9.28151 2.14017C9.41375 2.27034 9.42844 2.47241 9.32559 2.61856L9.28151 2.6705L8.18362 3.75H11.4286V1.875C11.4286 1.29023 10.9753 0.809663 10.3958 0.75515L10.2857 0.75Z" fill="#3A4757"/>
</svg>