<svg width="16" height="20" viewBox="0 0 16 20" fill="none" xmlns="http://www.w3.org/2000/svg">
<path d="M7.91667 0C7.66324 0 7.4373 0.0835576 7.2587 0.259084C7.07933 0.43537 6.99169 0.66046 6.99169 0.914962V3.57481C6.99169 3.82005 7.08294 4.03664 7.25349 4.21389C7.43107 4.3991 7.65865 4.48977 7.91667 4.48977C8.17468 4.48977 8.40271 4.3987 8.58074 4.21389C8.75083 4.03648 8.84165 3.81987 8.84165 3.57481V0.914962C8.84165 0.660833 8.75457 0.435868 8.57595 0.259493L8.57511 0.258673C8.39608 0.0835451 8.1701 0 7.91667 0Z" fill="#3A4757"/>
<path d="M2.86461 2.12788C2.61566 2.12788 2.39169 2.2051 2.21747 2.37632L2.21224 2.38146L2.20732 2.3869C2.0441 2.56736 1.96218 2.78691 1.96218 3.0322C1.96218 3.27713 2.04425 3.49631 2.20732 3.67661L2.21224 3.68205L3.66092 5.10578C3.83514 5.277 4.05911 5.35422 4.30805 5.35422C4.557 5.35422 4.78097 5.277 4.95519 5.10578L4.96042 5.10064L4.96534 5.0952C5.12856 4.91474 5.21048 4.69519 5.21048 4.4499C5.21048 4.20497 5.12841 3.98578 4.96534 3.80548L4.96042 3.80004L3.51175 2.37632C3.33753 2.2051 3.11356 2.12788 2.86461 2.12788Z" fill="#3A4757"/>
<path d="M12.9687 2.12788C12.7198 2.12788 12.4958 2.2051 12.3216 2.37632L10.8729 3.80004L10.868 3.80548C10.7049 3.98578 10.6229 4.20497 10.6229 4.4499C10.6229 4.69519 10.7048 4.91474 10.868 5.0952L10.8729 5.10064L10.8781 5.10578C11.0524 5.277 11.2763 5.35422 11.5253 5.35422C11.7742 5.35422 11.9982 5.277 12.1724 5.10578L13.6211 3.68205L13.626 3.67661C13.7891 3.49631 13.8712 3.27713 13.8712 3.0322C13.8712 2.78691 13.7892 2.56736 13.626 2.3869L13.6211 2.38146L13.6159 2.37632C13.4416 2.2051 13.2177 2.12788 12.9687 2.12788Z" fill="#3A4757"/>
<path d="M3.81187 13.0499C3.42902 13.0499 3.09309 13.1917 2.8156 13.465C2.53485 13.7403 2.39071 14.0816 2.39071 14.4746C2.39071 14.8565 2.53703 15.189 2.81537 15.4619C3.09535 15.7377 3.43982 15.8772 3.83442 15.8772C4.21734 15.8772 4.55332 15.7354 4.83084 15.462C5.1115 15.1867 5.25559 14.8455 5.25559 14.4525C5.25559 14.0706 5.10926 13.7381 4.83092 13.4652C4.55095 13.1894 4.20648 13.0499 3.81187 13.0499Z" fill="#3A4757"/>
<path d="M11.9989 13.0499C11.6161 13.0499 11.2802 13.1916 11.0028 13.4649C10.7219 13.7402 10.5777 14.0815 10.5777 14.4746C10.5777 14.8565 10.7241 15.189 11.0024 15.4619C11.2824 15.7377 11.6269 15.8772 12.0215 15.8772C12.4044 15.8772 12.7404 15.7353 13.018 15.4619C13.2986 15.1866 13.4426 14.8454 13.4426 14.4525C13.4426 14.0706 13.2963 13.7381 13.018 13.4652C12.738 13.1894 12.3935 13.0499 11.9989 13.0499Z" fill="#3A4757"/>
<path fill-rule="evenodd" clip-rule="evenodd" d="M3.06759 6.20077C2.79636 6.20077 2.54587 6.27264 2.32315 6.41856C2.09554 6.56769 1.9394 6.77684 1.86169 7.03776L0 12.2366V19.085C0 19.3395 0.0876414 19.5646 0.267017 19.7409C0.445618 19.9164 0.671554 20 0.924981 20H1.48883C1.73285 20 1.95084 19.9125 2.13104 19.7456C2.31924 19.5705 2.41381 19.344 2.41381 19.085V18.2268H13.4195V19.085C13.4195 19.344 13.5145 19.5709 13.7027 19.746C13.8829 19.9129 14.1005 20 14.3445 20H14.9084C15.1618 20 15.3878 19.9165 15.5668 19.7413L15.5676 19.7405C15.7463 19.5641 15.8333 19.3392 15.8333 19.085V12.2366L13.9708 7.03546C13.893 6.79079 13.7427 6.59001 13.5308 6.43596C13.3164 6.28031 13.0741 6.20077 12.8108 6.20077H3.06759ZM2.49803 10.7003L3.46683 8.03069H12.3665L13.3353 10.7003H2.49803ZM1.84996 16.3968V12.5303H13.9834V16.3968H1.84996Z" fill="#3A4757"/>
</svg>