<svg width="16" height="20" viewBox="0 0 16 20" fill="none" xmlns="http://www.w3.org/2000/svg">
<path fill-rule="evenodd" clip-rule="evenodd" d="M4.68015 3.81927L3.18995 2.36431C3.06577 2.24306 2.90278 2.18244 2.70098 2.18244C2.49918 2.18244 2.33619 2.24306 2.21201 2.36431C2.08783 2.50071 2.02574 2.66379 2.02574 2.85354C2.02574 3.04268 2.08783 3.20546 2.21201 3.34186L3.70221 4.79682C3.82639 4.91806 3.98938 4.97869 4.19118 4.97869C4.39297 4.97869 4.55596 4.91806 4.68015 4.79682C4.80433 4.66041 4.86642 4.49734 4.86642 4.30759C4.86642 4.11844 4.80433 3.95567 4.68015 3.81927ZM12.1311 4.79682L13.6213 3.34186C13.7455 3.20546 13.8076 3.04268 13.8076 2.85354C13.8076 2.66379 13.7455 2.50071 13.6213 2.36431C13.4971 2.24306 13.3341 2.18244 13.1324 2.18244C12.9306 2.18244 12.7676 2.24306 12.6434 2.36431L11.1532 3.81927C11.029 3.95567 10.9669 4.11844 10.9669 4.30759C10.9669 4.49734 11.029 4.66041 11.1532 4.79682C11.2774 4.91806 11.4404 4.97869 11.6422 4.97869C11.844 4.97869 12.0069 4.91806 12.1311 4.79682ZM8.6152 3.41006V0.682012C8.6152 0.484986 8.54938 0.32191 8.41774 0.192782C8.28549 0.0642607 8.11846 0 7.91667 0C7.71487 0 7.54815 0.0642607 7.41652 0.192782C7.28426 0.32191 7.21814 0.484986 7.21814 0.682012V3.41006C7.21814 3.59193 7.28426 3.75106 7.41652 3.88747C7.54815 4.02387 7.71487 4.09207 7.91667 4.09207C8.11846 4.09207 8.28549 4.02387 8.41774 3.88747C8.54938 3.75106 8.6152 3.59193 8.6152 3.41006ZM0.198382 19.8072C0.330016 19.9357 0.496732 20 0.698529 20H1.28064C1.46691 20 1.6299 19.9357 1.76961 19.8072C1.90931 19.6781 1.97917 19.515 1.97917 19.318V18.1813H13.8542V19.318C13.8542 19.515 13.924 19.6781 14.0637 19.8072C14.2034 19.9357 14.3664 20 14.5527 20H15.1348C15.3366 20 15.5036 19.9357 15.6359 19.8072C15.7675 19.6781 15.8333 19.515 15.8333 19.318V12.3387L13.924 7.04177C13.8619 6.84475 13.7415 6.68167 13.5626 6.55254C13.3844 6.42402 13.1867 6.35976 12.9694 6.35976H2.91054C2.6777 6.35976 2.46814 6.42038 2.28186 6.54163C2.09559 6.66288 1.97141 6.82959 1.90931 7.04177L0 12.3387V19.318C0 19.515 0.0661275 19.6781 0.198382 19.8072ZM13.8774 10.9747H1.95588L3.14338 7.72378H12.6899L13.8774 10.9747ZM3.70218 15.7715C4.02816 15.7715 4.3113 15.6539 4.5516 15.4187C4.79251 15.184 4.91297 14.9 4.91297 14.5666C4.91297 14.2483 4.79251 13.9719 4.5516 13.7373C4.3113 13.502 4.0204 13.3844 3.6789 13.3844C3.35292 13.3844 3.06978 13.502 2.82949 13.7373C2.58857 13.9719 2.46812 14.2559 2.46812 14.5893C2.46812 14.9076 2.58857 15.184 2.82949 15.4187C3.06978 15.6539 3.36068 15.7715 3.70218 15.7715ZM12.1544 15.7715C12.4804 15.7715 12.7635 15.6539 13.0038 15.4187C13.2447 15.184 13.3652 14.9 13.3652 14.5666C13.3652 14.2483 13.2447 13.9719 13.0038 13.7373C12.7635 13.502 12.4726 13.3844 12.1311 13.3844C11.8051 13.3844 11.522 13.502 11.2817 13.7373C11.0408 13.9719 10.9203 14.2559 10.9203 14.5893C10.9203 14.9076 11.0408 15.184 11.2817 15.4187C11.522 15.6539 11.8129 15.7715 12.1544 15.7715Z" fill="#3A4757"/>
</svg>