<svg width="14" height="15" viewBox="0 0 14 15" fill="none" xmlns="http://www.w3.org/2000/svg">
<path fill-rule="evenodd" clip-rule="evenodd" d="M6.84365 0.042187C6.95226 -0.0140623 7.08186 -0.0140623 7.19047 0.042187L13.7952 3.44939C13.9809 3.54464 14.0536 3.77339 13.9577 3.96014C13.891 4.09064 13.7585 4.16489 13.6214 4.16489C13.5629 4.16489 13.5038 4.15214 13.4483 4.12289L13.4438 4.12064V9.44107H13.6221C13.8311 9.44107 13.9997 9.60982 13.9997 9.81907C13.9997 10.0291 13.8311 10.1978 13.6221 10.1978H13.4438V14.6213C13.4438 14.8305 13.2745 15 13.0656 15H0.934859C0.725115 15 0.555822 14.8305 0.555822 14.6213V10.1978H0.378288C0.169293 10.1978 0 10.0291 0 9.81907C0 9.60982 0.169293 9.44107 0.378288 9.44107H0.555822V4.13114C0.375292 4.20614 0.166297 4.13639 0.0756579 3.96014C-0.0202251 3.77339 0.0524362 3.54464 0.23821 3.44939L6.84365 0.042187ZM12.6873 10.1978H2.99784V10.6343H4.47654C4.68553 10.6343 4.85483 10.8046 4.85483 11.0138V11.8373H6.33352C6.54251 11.8373 6.71181 12.006 6.71181 12.216V13.0395H8.19125C8.40025 13.0395 8.56954 13.209 8.56954 13.4183V14.2418H12.6873V10.1978ZM2.24126 10.1978H1.3124V14.2418H7.81296V13.797H6.33352C6.12452 13.797 5.95523 13.6283 5.95523 13.4183V12.5955H4.47654C4.26754 12.5955 4.09825 12.4253 4.09825 12.216V11.3925H2.61955C2.41056 11.3925 2.24126 11.223 2.24126 11.0138V10.1978ZM7.96952 4.89388H5.99643V9.44107H7.96952V4.89388ZM7.01669 0.804928L1.3124 3.74789V9.44107H5.23985V4.51438C5.23985 4.30513 5.40915 4.13489 5.61814 4.13489H8.34781C8.55681 4.13489 8.7261 4.30513 8.7261 4.51438V9.44107H12.6873V3.72989L7.01669 0.804928ZM11.6841 4.13534C11.8931 4.13534 12.0624 4.30483 12.0624 4.51483V7.46004C12.2257 7.50204 12.3493 7.64304 12.3493 7.82004C12.3493 8.02929 12.1792 8.19954 11.9702 8.19954H9.47728C9.26754 8.19954 9.09824 8.02929 9.09824 7.82004C9.09824 7.64304 9.22184 7.50204 9.38514 7.46004V4.51483C9.38514 4.30483 9.55444 4.13534 9.76343 4.13534H11.6841ZM4.27039 4.13534C4.47938 4.13534 4.64868 4.30483 4.64868 4.51483V7.46004C4.81198 7.50204 4.93558 7.64304 4.93558 7.82004C4.93558 8.02929 4.76628 8.19954 4.55654 8.19954H2.06358C1.85384 8.19954 1.68454 8.02929 1.68454 7.82004C1.68454 7.64304 1.80814 7.50204 1.97144 7.46004V4.51483C1.97144 4.30483 2.14074 4.13534 2.34973 4.13534H4.27039ZM11.3058 4.89358H10.1417V7.44129H11.3058V4.89358ZM3.8921 4.89358H2.72802V7.44129H3.8921V4.89358Z" fill="#3A4757"/>
</svg>