<svg width="20" height="20" viewBox="0 0 20 20" fill="none" xmlns="http://www.w3.org/2000/svg">
<path fill-rule="evenodd" clip-rule="evenodd" d="M6.17596 8.48182C6.58439 8.89448 6.58054 9.55968 6.16736 9.9676C5.71084 10.4183 4.26528 11.8589 2.91088 13.2097C1.83435 14.2834 1.83493 16.026 2.91249 17.0999C3.97838 18.1621 5.68823 18.1647 6.74638 17.1096C7.60596 16.2525 8.69306 15.1645 10.0345 13.815C10.4438 13.4033 11.1099 13.4009 11.5222 13.8097C11.9344 14.2185 11.9369 14.8837 11.5275 15.2955C10.1841 16.6469 9.09478 17.7372 8.23285 18.5966C6.34607 20.4779 3.30626 20.4607 1.42643 18.5873C-0.474089 16.6933 -0.476126 13.6182 1.42422 11.7229C2.77631 10.3744 4.22692 8.92874 4.6883 8.47323C5.10148 8.06532 5.76753 8.06916 6.17596 8.48182Z" fill="#3A4757"/>
<path fill-rule="evenodd" clip-rule="evenodd" d="M11.7208 1.42437C13.6171 -0.485726 16.6966 -0.466592 18.5863 1.43273C20.4715 3.32757 20.4748 6.39062 18.5749 8.28031C18.1493 8.7037 17.7241 9.12606 17.2992 9.54812C16.6395 10.2033 15.9806 10.8579 15.3218 11.5144C14.9105 11.9243 14.2445 11.9235 13.8341 11.5128C13.4237 11.1021 13.4245 10.4368 13.8357 10.027C14.4953 9.3697 15.1569 8.71246 15.8179 8.05592C16.2426 7.63409 16.667 7.21255 17.0903 6.79147C18.1627 5.72474 18.1655 3.99085 17.0939 2.91381C16.0188 1.83324 14.28 1.83088 13.2148 2.90384C12.7242 3.39802 12.2306 3.89669 11.7364 4.39603C11.148 4.9906 10.5586 5.5861 9.9721 6.17608C9.56277 6.58785 8.89672 6.59025 8.48443 6.18144C8.07213 5.77263 8.06973 5.10742 8.47906 4.69565C9.06803 4.10316 9.65159 3.51353 10.2361 2.92294C10.7291 2.42487 11.2227 1.92611 11.7208 1.42437Z" fill="#3A4757"/>
<path fill-rule="evenodd" clip-rule="evenodd" d="M13.7983 6.21364C14.2086 6.62438 14.2079 7.2896 13.7967 7.69945L7.69617 13.779C7.28492 14.1889 6.61886 14.1882 6.20849 13.7774C5.79813 13.3667 5.79885 12.7015 6.21011 12.2916L12.3106 6.21203C12.7218 5.80219 13.3879 5.80291 13.7983 6.21364Z" fill="#3A4757"/>
</svg>