<svg width="20" height="21" viewBox="0 0 20 21" fill="none" xmlns="http://www.w3.org/2000/svg">
<path fill-rule="evenodd" clip-rule="evenodd" d="M6.17596 9.09998C6.58439 9.51264 6.58054 10.1778 6.16736 10.5858C5.71084 11.0365 4.26528 12.477 2.91088 13.8279C1.83435 14.9016 1.83493 16.6442 2.91249 17.7181C3.97838 18.7803 5.68823 18.7829 6.74638 17.7278C7.60596 16.8707 8.69306 15.7826 10.0345 14.4332C10.4438 14.0214 11.1099 14.019 11.5222 14.4278C11.9344 14.8366 11.9369 15.5019 11.5275 15.9136C10.1841 17.2651 9.09478 18.3553 8.23285 19.2148C6.34607 21.0961 3.30626 21.0789 1.42643 19.2055C-0.474089 17.3115 -0.476126 14.2364 1.42422 12.341C2.77631 10.9925 4.22692 9.5469 4.6883 9.0914C5.10148 8.68348 5.76753 8.68733 6.17596 9.09998Z" fill="#3A4757"/>
<path fill-rule="evenodd" clip-rule="evenodd" d="M11.7208 2.04253C13.6171 0.132438 16.6966 0.151572 18.5863 2.0509C20.4715 3.94573 20.4748 7.00879 18.5749 8.89847C18.1493 9.32187 17.7241 9.74423 17.2992 10.1663C16.6395 10.8215 15.9806 11.476 15.3218 12.1326C14.9105 12.5424 14.2445 12.5417 13.8341 12.131C13.4237 11.7202 13.4245 11.055 13.8357 10.6452C14.4953 9.98786 15.1569 9.33062 15.8179 8.67409C16.2426 8.25225 16.667 7.83071 17.0903 7.40964C18.1627 6.34291 18.1655 4.60902 17.0939 3.53197C16.0188 2.45141 14.28 2.44904 13.2148 3.52201C12.7242 4.01618 12.2306 4.51486 11.7364 5.0142C11.148 5.60876 10.5586 6.20427 9.9721 6.79424C9.56277 7.20601 8.89672 7.20841 8.48443 6.79961C8.07213 6.3908 8.06973 5.72559 8.47906 5.31381C9.06803 4.72132 9.65159 4.1317 10.2361 3.54111C10.7291 3.04303 11.2227 2.54427 11.7208 2.04253Z" fill="#3A4757"/>
<path fill-rule="evenodd" clip-rule="evenodd" d="M13.7983 6.83181C14.2086 7.24255 14.2079 7.90776 13.7967 8.31761L7.69617 14.3972C7.28492 14.807 6.61886 14.8063 6.20849 14.3956C5.79813 13.9848 5.79885 13.3196 6.21011 12.9098L12.3106 6.8302C12.7218 6.42035 13.3879 6.42107 13.7983 6.83181Z" fill="#3A4757"/>
</svg>