<svg width="10" height="20" viewBox="0 0 10 20" fill="none" xmlns="http://www.w3.org/2000/svg">
<path fill-rule="evenodd" clip-rule="evenodd" d="M9.70368 0.278614C10.0876 0.661089 10.1001 1.29412 9.73149 1.69253L2.04545 10L9.73149 18.3075C10.1001 18.7059 10.0876 19.3389 9.70368 19.7214C9.31971 20.1039 8.70963 20.0909 8.34102 19.6925L0.470771 11.186C0.32159 11.031 0.204469 10.8477 0.124404 10.6478C0.04199 10.442 0 10.2217 0 10C0 9.7783 0.04199 9.55795 0.124404 9.35219C0.204469 9.15229 0.32159 8.96898 0.470771 8.81404L8.34102 0.307469C8.70963 -0.0909417 9.31971 -0.103861 9.70368 0.278614Z" fill="#3A4757"/>
</svg>