<svg width="20" height="10" viewBox="0 0 20 10" fill="none" xmlns="http://www.w3.org/2000/svg">
<path fill-rule="evenodd" clip-rule="evenodd" d="M0.325437 0.303433C0.759353 -0.101144 1.46287 -0.101144 1.89679 0.303433L10 7.78362L18.1032 0.303433C18.5371 -0.101144 19.2406 -0.101144 19.6746 0.303433C20.1085 0.708009 20.1085 1.36396 19.6746 1.76853L11.3338 9.47022C11.1638 9.63524 10.9602 9.7671 10.7348 9.85807C10.5028 9.95169 10.2528 10 10 10C9.74723 10 9.49715 9.95169 9.2652 9.85807C9.03986 9.76711 8.83626 9.63525 8.66623 9.47024L0.325437 1.76853C-0.108479 1.36396 -0.108479 0.708009 0.325437 0.303433Z" fill="#3A4757"/>
</svg>