<svg width="10" height="20" viewBox="0 0 10 20" fill="none" xmlns="http://www.w3.org/2000/svg">
<path fill-rule="evenodd" clip-rule="evenodd" d="M0.296322 0.278614C-0.0876447 0.661089 -0.100096 1.29412 0.268513 1.69253L7.95455 10L0.268513 18.3075C-0.100096 18.7059 -0.0876447 19.3389 0.296322 19.7214C0.68029 20.1039 1.29037 20.0909 1.65898 19.6925L9.52923 11.186C9.67841 11.031 9.79553 10.8477 9.8756 10.6478C9.95801 10.442 10 10.2217 10 10C10 9.7783 9.95801 9.55795 9.8756 9.35219C9.79553 9.15229 9.67841 8.96898 9.52923 8.81404L1.65898 0.307469C1.29037 -0.0909417 0.68029 -0.103861 0.296322 0.278614Z" fill="#3A4757"/>
</svg>