<svg width="20" height="10" viewBox="0 0 20 10" fill="none" xmlns="http://www.w3.org/2000/svg">
<path fill-rule="evenodd" clip-rule="evenodd" d="M10 2.19421L1.89679 9.6996C1.46287 10.1001 0.759353 10.1001 0.325437 9.6996C-0.108479 9.29907 -0.108479 8.64968 0.325437 8.24915L8.66621 0.524478C8.83624 0.361114 9.03984 0.230566 9.2652 0.140513C9.49716 0.047821 9.74724 0 10 0C10.2528 0 10.5028 0.047821 10.7348 0.140513C10.9602 0.230566 11.1638 0.361114 11.3338 0.524478L19.6746 8.24915C20.1085 8.64968 20.1085 9.29907 19.6746 9.6996C19.2406 10.1001 18.5371 10.1001 18.1032 9.6996L10 2.19421Z" fill="#3A4757"/>
</svg>