<svg width="20" height="20" viewBox="0 0 20 20" fill="none" xmlns="http://www.w3.org/2000/svg">
<path fill-rule="evenodd" clip-rule="evenodd" d="M10 2C5.58172 2 2 5.58172 2 10C2 14.4183 5.58172 18 10 18C14.4183 18 18 14.4183 18 10C18 5.58172 14.4183 2 10 2ZM0 10C0 4.47715 4.47715 0 10 0C15.5228 0 20 4.47715 20 10C20 15.5228 15.5228 20 10 20C4.47715 20 0 15.5228 0 10ZM6.33456 6.33456C6.72508 5.94404 7.35825 5.94404 7.74877 6.33456L9.97705 8.56284L12.2053 6.33456C12.5959 5.94404 13.229 5.94404 13.6195 6.33456C14.0101 6.72508 14.0101 7.35825 13.6195 7.74877L11.3913 9.97705L13.6195 12.2053C14.0101 12.5959 14.0101 13.229 13.6195 13.6195C13.229 14.0101 12.5959 14.0101 12.2053 13.6195L9.97705 11.3913L7.74877 13.6195C7.35825 14.0101 6.72508 14.0101 6.33456 13.6195C5.94404 13.229 5.94404 12.5959 6.33456 12.2053L8.56284 9.97705L6.33456 7.74877C5.94404 7.35825 5.94404 6.72508 6.33456 6.33456Z" fill="#3A4757"/>
</svg>