<svg width="20" height="20" viewBox="0 0 20 20" fill="none" xmlns="http://www.w3.org/2000/svg">
<path fill-rule="evenodd" clip-rule="evenodd" d="M20 10C20 15.5228 15.5228 20 10 20C4.47715 20 0 15.5228 0 10C0 4.47715 4.47715 0 10 0C15.5228 0 20 4.47715 20 10ZM15.8382 7.12904C16.1952 6.70764 16.143 6.07663 15.7216 5.71965C15.3002 5.36266 14.6692 5.41488 14.3122 5.83628L8.67164 12.4946L6.42882 9.94527C6.06402 9.53062 5.43214 9.4902 5.01749 9.855C4.60283 10.2198 4.56241 10.8517 4.92721 11.2663L7.39128 14.0672C7.55283 14.2542 7.75361 14.4033 7.97939 14.504C8.20568 14.605 8.45144 14.6547 8.6991 14.6496C8.94264 14.646 9.18265 14.5905 9.40306 14.4867C9.62524 14.3821 9.82229 14.2308 9.98084 14.0433L15.8382 7.12904Z" fill="#3A4757"/>
</svg>