<svg width="20" height="21" viewBox="0 0 20 21" fill="none" xmlns="http://www.w3.org/2000/svg">
<path d="M15.2898 7.34304C15.6468 6.92164 15.5945 6.29063 15.1731 5.93364C14.7517 5.57665 14.1207 5.62887 13.7638 6.05027L8.41099 12.3689L6.30366 9.97354C5.93886 9.55888 5.30699 9.51847 4.89233 9.88327C4.47768 10.2481 4.43726 10.8799 4.80206 11.2946L7.155 13.9691C7.31357 14.1526 7.51064 14.299 7.73222 14.3978C7.95438 14.4969 8.19565 14.5457 8.43879 14.5408C8.67768 14.5372 8.9131 14.4827 9.12931 14.3809C9.34732 14.2782 9.54067 14.1299 9.69625 13.9458L15.2898 7.34304Z" fill="#3A4757"/>
<path fill-rule="evenodd" clip-rule="evenodd" d="M10 0.199707C4.47715 0.199707 0 4.67686 0 10.1997C0 15.7226 4.47715 20.1997 10 20.1997C15.5228 20.1997 20 15.7226 20 10.1997C20 4.67686 15.5228 0.199707 10 0.199707ZM2 10.1997C2 5.78143 5.58172 2.19971 10 2.19971C14.4183 2.19971 18 5.78143 18 10.1997C18 14.618 14.4183 18.1997 10 18.1997C5.58172 18.1997 2 14.618 2 10.1997Z" fill="#3A4757"/>
</svg>