<svg width="20" height="20" viewBox="0 0 20 20" fill="none" xmlns="http://www.w3.org/2000/svg">
<path d="M15.2898 7.14333C15.6468 6.72193 15.5945 6.09092 15.1731 5.73393C14.7517 5.37695 14.1207 5.42916 13.7638 5.85056L8.41099 12.1692L6.30366 9.77383C5.93886 9.35918 5.30699 9.31876 4.89233 9.68356C4.47768 10.0484 4.43726 10.6802 4.80206 11.0949L7.155 13.7694C7.31357 13.9529 7.51064 14.0993 7.73222 14.1981C7.95438 14.2972 8.19565 14.346 8.43879 14.3411C8.67768 14.3375 8.9131 14.283 9.12931 14.1812C9.34732 14.0785 9.54067 13.9301 9.69625 13.7461L15.2898 7.14333Z" fill="#3A4757"/>
<path fill-rule="evenodd" clip-rule="evenodd" d="M10 0C4.47715 0 0 4.47715 0 10C0 15.5228 4.47715 20 10 20C15.5228 20 20 15.5228 20 10C20 4.47715 15.5228 0 10 0ZM2 10C2 5.58172 5.58172 2 10 2C14.4183 2 18 5.58172 18 10C18 14.4183 14.4183 18 10 18C5.58172 18 2 14.4183 2 10Z" fill="#3A4757"/>
</svg>