<svg width="20" height="20" viewBox="0 0 20 20" fill="none" xmlns="http://www.w3.org/2000/svg">
<path fill-rule="evenodd" clip-rule="evenodd" d="M0 10C0 4.47715 4.47715 0 10 0C15.5228 0 20 4.47715 20 10C20 15.5228 15.5228 20 10 20C4.47715 20 0 15.5228 0 10ZM7.74861 6.3346C7.35809 5.94408 6.72492 5.94408 6.3344 6.3346C5.94387 6.72512 5.94387 7.35829 6.3344 7.74881L8.56267 9.97709L6.3344 12.2054C5.94387 12.5959 5.94387 13.2291 6.3344 13.6196C6.72492 14.0101 7.35809 14.0101 7.74861 13.6196L9.97689 11.3913L12.2052 13.6196C12.5957 14.0101 13.2289 14.0101 13.6194 13.6196C14.0099 13.2291 14.0099 12.5959 13.6194 12.2054L11.3911 9.97709L13.6194 7.74881C14.0099 7.35829 14.0099 6.72512 13.6194 6.3346C13.2289 5.94408 12.5957 5.94408 12.2052 6.3346L9.97689 8.56288L7.74861 6.3346Z" fill="#3A4757"/>
</svg>