<svg width="20" height="21" viewBox="0 0 20 21" fill="none" xmlns="http://www.w3.org/2000/svg">
<path fill-rule="evenodd" clip-rule="evenodd" d="M20 10.1997C20 15.7226 15.5228 20.1997 10 20.1997C4.47715 20.1997 0 15.7226 0 10.1997C0 4.67686 4.47715 0.199707 10 0.199707C15.5228 0.199707 20 4.67686 20 10.1997ZM15.8382 7.32875C16.1952 6.90735 16.143 6.27634 15.7216 5.91935C15.3002 5.56237 14.6692 5.61458 14.3122 6.03598L8.67164 12.6943L6.42882 10.145C6.06402 9.73032 5.43214 9.68991 5.01749 10.0547C4.60283 10.4195 4.56241 11.0514 4.92721 11.466L7.39128 14.2669C7.55283 14.4539 7.75361 14.603 7.97939 14.7037C8.20568 14.8047 8.45144 14.8544 8.6991 14.8493C8.94264 14.8457 9.18265 14.7902 9.40306 14.6864C9.62524 14.5818 9.82229 14.4306 9.98084 14.243L15.8382 7.32875Z" fill="#3A4757"/>
</svg>