<svg width="16" height="16" viewBox="0 0 16 16" fill="none" xmlns="http://www.w3.org/2000/svg">
<path fill-rule="evenodd" clip-rule="evenodd" d="M8 16C12.4183 16 16 12.4183 16 8C16 3.58172 12.4183 0 8 0C3.58172 0 0 3.58172 0 8C0 12.4183 3.58172 16 8 16ZM8 15C11.866 15 15 11.866 15 8C15 4.13401 11.866 1 8 1C4.13401 1 1 4.13401 1 8C1 11.866 4.13401 15 8 15Z" fill="#3A4757"/>
<path d="M12.5714 11.9287H3.42855C3.2857 11.9287 3.21427 11.8573 3.14284 11.7859C3.07141 11.7144 3.07141 11.5716 3.07141 11.4287L4.99998 5.57157C5.14284 5.50014 5.21427 5.35728 5.42855 5.35728H6.21427C6.07141 5.07157 5.99998 4.78585 5.99998 4.42871C5.99998 3.28585 6.92855 2.42871 7.99998 2.42871C9.07141 2.42871 9.99998 3.35728 9.99998 4.42871C9.99998 4.78585 9.92855 5.07157 9.7857 5.35728H10.5714C10.7143 5.35728 10.8571 5.42871 10.9286 5.57157L12.8571 11.4287C12.9286 11.5716 12.8571 11.643 12.7857 11.7859C12.7857 11.8573 12.6428 11.9287 12.5714 11.9287ZM3.92855 11.2144H12.0714L10.3571 6.07157H9.07141C8.85713 6.07157 8.7857 6.00014 8.71427 5.85728C8.64284 5.71443 8.71427 5.57157 8.7857 5.42871C9.14284 5.21443 9.2857 4.85728 9.2857 4.42871C9.2857 3.71443 8.71427 3.143 7.99998 3.143C7.2857 3.143 6.71427 3.71443 6.71427 4.42871C6.71427 4.85728 6.92855 5.21443 7.21427 5.42871C7.2857 5.57157 7.35713 5.71443 7.2857 5.85728C7.21427 6.00014 7.14284 6.07157 6.92855 6.07157H5.64284L3.92855 11.2144ZM7.99998 3.78585C8.35713 3.78585 8.71427 4.07157 8.71427 4.50014C8.71427 4.85728 8.42855 5.21443 7.99998 5.21443C7.57141 5.21443 7.2857 4.85728 7.2857 4.42871C7.2857 4.07157 7.64284 3.78585 7.99998 3.78585Z" fill="#3A4757"/>
<path d="M5.85712 9.96244V7.71436H6.43084V8.69331H6.43824L7.52276 7.71436H8.21123L6.99716 8.78897L8.26305 9.96244H7.56718L6.43824 8.93566H6.43084V9.96244H5.85712Z" fill="#3A4757"/>
<path d="M9.17305 10.5715C8.99785 10.5715 8.83376 10.5556 8.68076 10.5237C8.53024 10.4918 8.39822 10.4418 8.28471 10.3738L8.43647 10.0454C8.53517 10.0985 8.64622 10.1389 8.7696 10.1665C8.89545 10.1963 9.01389 10.2112 9.12494 10.2112C9.44079 10.2112 9.59872 10.0857 9.59872 9.83489V9.65632C9.54937 9.7371 9.47164 9.80194 9.36553 9.85083C9.25942 9.89973 9.14344 9.92418 9.01759 9.92418C8.85473 9.92418 8.71284 9.89229 8.59193 9.82851C8.47101 9.76261 8.37724 9.6712 8.31062 9.55428C8.24399 9.43736 8.21068 9.30024 8.21068 9.14293C8.21068 8.98774 8.24399 8.85169 8.31062 8.73476C8.37724 8.61784 8.47101 8.52749 8.59193 8.46372C8.71284 8.39782 8.85473 8.36487 9.01759 8.36487C9.14838 8.36487 9.26559 8.38931 9.36923 8.43821C9.47287 8.4871 9.54937 8.55194 9.59872 8.63272V8.39675H10.1428V9.78068C10.1428 10.0443 10.0602 10.242 9.89483 10.3738C9.7295 10.5056 9.48891 10.5715 9.17305 10.5715ZM9.18416 9.56385C9.30754 9.56385 9.40624 9.52664 9.48027 9.45224C9.55677 9.37783 9.59502 9.27473 9.59502 9.14293C9.59502 9.01112 9.55677 8.90908 9.48027 8.8368C9.40624 8.7624 9.30754 8.7252 9.18416 8.7252C9.05831 8.7252 8.95837 8.7624 8.88434 8.8368C8.81031 8.90908 8.7733 9.01112 8.7733 9.14293C8.7733 9.27473 8.81031 9.37783 8.88434 9.45224C8.95837 9.52664 9.05831 9.56385 9.18416 9.56385Z" fill="#3A4757"/>
</svg>