<svg width="13" height="14" viewBox="0 0 13 14" fill="none" xmlns="http://www.w3.org/2000/svg">
<path fill-rule="evenodd" clip-rule="evenodd" d="M12.6176 11.0526C12.8288 11.0526 13 11.2176 13 11.4211V13.6316C13 13.8351 12.8288 14 12.6176 14H0.382353C0.171185 14 0 13.8351 0 13.6316V11.4211C0 11.2176 0.171185 11.0526 0.382353 11.0526H12.6176ZM12.2353 11.7895H0.764706V13.2632H12.2353V11.7895ZM11.0882 7.36842C11.2994 7.36842 11.4706 7.53337 11.4706 7.73684V9.94737C11.4706 10.1508 11.2994 10.3158 11.0882 10.3158H0.382353C0.171185 10.3158 0 10.1508 0 9.94737V7.73684C0 7.53337 0.171185 7.36842 0.382353 7.36842H11.0882ZM10.7059 8.10526H0.764706V9.57895H10.7059V8.10526ZM9.55882 3.68421C9.76999 3.68421 9.94118 3.84916 9.94118 4.05263V6.26316C9.94118 6.46663 9.76999 6.63158 9.55882 6.63158H0.382353C0.171185 6.63158 0 6.46663 0 6.26316V4.05263C0 3.84916 0.171185 3.68421 0.382353 3.68421H9.55882ZM9.17647 4.42105H0.764706V5.89474H9.17647V4.42105ZM8.02941 0C8.24058 0 8.41177 0.164948 8.41177 0.368421V2.57895C8.41177 2.78242 8.24058 2.94737 8.02941 2.94737H0.382353C0.171185 2.94737 0 2.78242 0 2.57895V0.368421C0 0.164948 0.171185 0 0.382353 0H8.02941ZM7.64706 0.736842H0.764706V2.21053H7.64706V0.736842Z" fill="#3A4757"/>
</svg>