<svg width="15" height="15" viewBox="0 0 15 15" fill="none" xmlns="http://www.w3.org/2000/svg">
<path fill-rule="evenodd" clip-rule="evenodd" d="M7.5 0C11.6421 0 15 3.35786 15 7.5C15 11.6421 11.6421 15 7.5 15C3.35786 15 0 11.6421 0 7.5C0 3.35786 3.35786 0 7.5 0ZM7.5 0.697026C3.74282 0.697026 0.697026 3.74282 0.697026 7.5C0.697026 11.2572 3.74282 14.303 7.5 14.303C11.2572 14.303 14.303 11.2572 14.303 7.5C14.303 3.74282 11.2572 0.697026 7.5 0.697026ZM7.5 1.5C10.8137 1.5 13.5 4.18629 13.5 7.5C13.5 10.8137 10.8137 13.5 7.5 13.5C4.18629 13.5 1.5 10.8137 1.5 7.5C1.5 4.18629 4.18629 1.5 7.5 1.5ZM7.5 2.20175C4.57386 2.20175 2.20175 4.57386 2.20175 7.5C2.20175 10.4261 4.57386 12.7982 7.5 12.7982C10.4261 12.7982 12.7982 10.4261 12.7982 7.5C12.7982 4.57386 10.4261 2.20175 7.5 2.20175ZM10.1725 6.75C10.3534 6.75 10.5 6.8935 10.5 7.07051C10.5 7.22786 10.3841 7.35872 10.2314 7.38586L10.1725 7.39103H8.15502V10.9295C8.15502 11.0868 8.03916 11.2177 7.88638 11.2448L7.82751 11.25C7.66673 11.25 7.53301 11.1366 7.50528 10.9871L7.5 10.9295V7.07051C7.5 6.91317 7.61586 6.7823 7.76864 6.75516L7.82751 6.75H10.1725Z" fill="#3A4757"/>
</svg>