<svg width="20" height="20" viewBox="0 0 20 20" fill="none" xmlns="http://www.w3.org/2000/svg">
<path d="M15.5418 1.68803C17.1923 2.78901 18.4785 4.35406 19.2378 6.1851V6.21847C19.9959 8.04781 20.1941 10.0604 19.8072 12.0021C19.4203 13.9438 18.4657 15.7275 17.0641 17.1279C15.6611 18.5043 13.8839 19.4386 11.9534 19.8146C10.0229 20.1907 8.02424 19.9919 6.20597 19.243C4.3877 18.4941 2.83001 17.2282 1.72662 15.6025C0.623238 13.9769 0.0228013 12.0634 0 10.0998C0.00124336 8.22301 0.484855 6.37789 1.40458 4.74105L1.2123 4.78282C0.961737 4.84481 0.696771 4.80487 0.475694 4.67181C0.254617 4.53876 0.0955617 4.32346 0.0334752 4.0733C-0.0286114 3.82315 0.0113435 3.55862 0.144617 3.3379C0.27789 3.11719 0.493544 2.95839 0.744108 2.89641L3.52821 2.19524H3.6369C3.70073 2.18694 3.76535 2.18694 3.82918 2.19524H4.00477L4.18868 2.26203H4.26395C4.29342 2.28221 4.32135 2.30455 4.34754 2.32882C4.37937 2.34638 4.41008 2.3659 4.43949 2.38726C4.45133 2.41279 4.46842 2.4355 4.48965 2.454C4.52871 2.50488 4.56499 2.55782 4.59834 2.61259C4.62959 2.66935 4.65754 2.7279 4.68198 2.78789V2.85468L5.37588 5.64253C5.43796 5.89268 5.39801 6.15721 5.26473 6.37793C5.13146 6.59864 4.91581 6.75749 4.66524 6.81947C4.41468 6.88146 4.14971 6.84152 3.92864 6.70846C3.70756 6.57541 3.54845 6.36011 3.48637 6.10995L3.27735 5.27526C2.39216 6.70793 1.92324 8.35806 1.92293 10.0414C1.92037 11.6376 2.39487 13.1982 3.28572 14.5237C4.17232 15.8513 5.43394 16.8862 6.91053 17.4969C8.38712 18.1077 10.0122 18.2669 11.5795 17.9542C12.748 17.7164 13.8492 17.2234 14.8044 16.5106C15.7596 15.7979 16.545 14.883 17.1043 13.8315C17.6637 12.7801 17.9831 11.6181 18.0397 10.4289C18.0964 9.23966 17.8888 8.05269 17.4319 6.953C16.8242 5.47387 15.7901 4.20827 14.4609 3.31666C13.1317 2.42504 11.5672 1.94758 9.96585 1.94485C9.7231 1.92237 9.49753 1.81019 9.33329 1.63031C9.16906 1.45043 9.07799 1.21584 9.07799 0.972449C9.07799 0.729055 9.16906 0.494416 9.33329 0.314539C9.49753 0.134661 9.7231 0.0224784 9.96585 2.22941e-07C11.9508 -0.000417806 13.8913 0.587047 15.5418 1.68803Z" fill="#3A4757"/>
<path d="M13.1595 13.3885L9.53098 11.5855C9.36406 11.5065 9.22244 11.3827 9.12203 11.2279C9.02162 11.0732 8.96639 10.8935 8.96246 10.7091V5.15009C8.9499 5.01482 8.96571 4.87842 9.00895 4.7496C9.05219 4.62079 9.12186 4.5024 9.21353 4.402C9.30519 4.3016 9.41686 4.22141 9.54134 4.16653C9.66582 4.11166 9.80038 4.08329 9.93646 4.08329C10.0725 4.08329 10.2071 4.11166 10.3316 4.16653C10.4561 4.22141 10.5677 4.3016 10.6594 4.402C10.7511 4.5024 10.8207 4.62079 10.864 4.7496C10.9072 4.87842 10.923 5.01482 10.9105 5.15009V10.1082L13.9955 11.6523C14.2002 11.7777 14.351 11.9744 14.4188 12.2043C14.4865 12.4343 14.4665 12.6811 14.3624 12.8971C14.2584 13.1131 14.0778 13.283 13.8556 13.3738C13.6334 13.4645 13.3853 13.4698 13.1595 13.3885Z" fill="#3A4757"/>
</svg>