<svg width="20" height="20" viewBox="0 0 20 20" fill="none" xmlns="http://www.w3.org/2000/svg">
<path d="M10 0C4.47155 0 0 4.45344 0 9.95951C0 15.4656 4.47155 20 10 20C15.5285 20 20 15.5466 20 10.0405C20 4.53441 15.5285 0 10 0ZM14.1463 14.8178C13.9837 14.9798 13.7398 15.0607 13.4959 15.0607C13.252 15.0607 12.9268 14.9798 12.7642 14.7368L9.18699 10.6073C9.02439 10.4453 8.94309 10.2024 8.94309 9.95951V6.47773C8.94309 5.91093 9.34959 5.50607 9.9187 5.50607C10.4878 5.50607 10.8943 5.91093 10.8943 6.47773V9.55466L14.2276 13.3603C14.6341 13.8462 14.5528 14.4939 14.1463 14.8178Z" fill="#3A4757"/>
</svg>