<svg width="20" height="20" viewBox="0 0 20 20" fill="none" xmlns="http://www.w3.org/2000/svg">
<path fill-rule="evenodd" clip-rule="evenodd" d="M10 1.96721C5.56361 1.96721 1.96721 5.56361 1.96721 10C1.96721 14.4364 5.56361 18.0328 10 18.0328C14.4364 18.0328 18.0328 14.4364 18.0328 10C18.0328 5.56361 14.4364 1.96721 10 1.96721ZM0 10C0 4.47715 4.47715 0 10 0C15.5228 0 20 4.47715 20 10C20 15.5228 15.5228 20 10 20C4.47715 20 0 15.5228 0 10Z" fill="#3A4757"/>
<path fill-rule="evenodd" clip-rule="evenodd" d="M10.0002 5.54853C10.5434 5.54853 10.9838 5.9889 10.9838 6.53213V9.63581L14.2699 13.4654C14.6237 13.8776 14.5763 14.4986 14.164 14.8524C13.7518 15.2061 13.1308 15.1587 12.777 14.7464L9.25371 10.6405C9.10069 10.4622 9.01656 10.235 9.01656 9.99998V6.53213C9.01656 5.9889 9.45694 5.54853 10.0002 5.54853Z" fill="#3A4757"/>
</svg>