<svg width="15" height="15" viewBox="0 0 15 15" fill="none" xmlns="http://www.w3.org/2000/svg">
<path fill-rule="evenodd" clip-rule="evenodd" d="M12 1.97414L11.25 1.02023L10.5 1.97335V4.5H9.75V1.82886C9.75 1.75858 9.76742 1.68999 9.79998 1.62977L9.8375 1.5726L10.9625 0.142863C11.0974 -0.0285727 11.3338 -0.0457163 11.489 0.0914327L11.5375 0.142863L12.6625 1.5726C12.7049 1.62648 12.7329 1.69098 12.7443 1.75939L12.75 1.82886V4.5H14.6429C14.8401 4.5 15 4.66789 15 4.875V7.875C15 8.08211 14.8401 8.25 14.6429 8.25H12.75V14.6009C12.75 14.7968 12.6173 14.9598 12.4424 14.9936L12.375 15H10.125C9.9409 15 9.78779 14.8588 9.75604 14.6726L9.75 14.6009V8.25H9V14.6009C9 14.7968 8.86734 14.9598 8.69241 14.9936L8.625 15H6.375C6.19091 15 6.03779 14.8588 6.00604 14.6726L6 14.6009V8.25H5.25V14.6009C5.25 14.7968 5.11734 14.9598 4.94241 14.9936L4.875 15H2.625C2.44091 15 2.28779 14.8588 2.25604 14.6726L2.25 14.6009V8.25H0.357143C0.159898 8.25 0 8.08211 0 7.875V4.875C0 4.66789 0.159898 4.5 0.357143 4.5H2.25V1.82886C2.25 1.75858 2.26742 1.68999 2.29998 1.62977L2.3375 1.5726L3.4625 0.142863C3.5974 -0.0285727 3.83382 -0.0457163 3.98902 0.0914327L4.0375 0.142863L5.1625 1.5726C5.20489 1.62648 5.23291 1.69098 5.24428 1.75939L5.25 1.82886V4.5H6V1.82886C6 1.75858 6.01742 1.68999 6.04998 1.62977L6.0875 1.5726L7.2125 0.142863C7.3474 -0.0285727 7.58382 -0.0457163 7.73902 0.0914327L7.7875 0.142863L8.9125 1.5726C8.95489 1.62648 8.98291 1.69098 8.99428 1.75939L9 1.82886V4.5H12V1.97414ZM4.5 8.25H3V14.2017H4.5V8.25ZM8.25 8.25H6.75V14.2017H8.25V8.25ZM14.3182 5.25H0.681818V7.5H14.3182V5.25ZM3.75 1.02023L3 1.97335V4.5H4.5V1.97414L3.75 1.02023ZM8.25 4.5V1.97414L7.5 1.02023L6.75 1.97335V4.5H8.25ZM10.5 8.25V14.2017H12V8.25H10.5Z" fill="#3A4757"/>
</svg>