<svg width="14" height="15" viewBox="0 0 14 15" fill="none" xmlns="http://www.w3.org/2000/svg">
<path fill-rule="evenodd" clip-rule="evenodd" d="M12.4 5.1H4.2C3.8 5.1 3.5 5.4 3.5 5.8V6.3L3 6.1C2.3 5.9 1.6 6.1 1 6.5C0.4 6.9 0 7.6 0 8.4V10.3C0 11.1 0.3 11.8 1 12.2C1.4 12.5 1.9 12.6 2.4 12.6C2.6 12.6 2.8 12.6 3 12.5L3.6 12.3C4 13.8 5.5 15 7.2 15H9.3C11.4 15 13.1 13.4 13.1 11.4V5.7C13.1 5.4 12.8 5.1 12.4 5.1ZM2.8 11.9C2.3 12 1.9 11.9 1.5 11.7C1.1 11.4 0.8 10.9 0.8 10.4V8.5C0.8 8 1 7.5 1.5 7.2C1.8 7 2.1 6.9 2.4 6.9C2.5 6.9 2.7 6.9 2.8 7L3.5 7.2V7.6L2.8 7.5C2.4 7.4 2.1 7.5 1.8 7.8C1.5 8 1.4 8.4 1.4 8.7V10.2C1.4 10.6 1.6 10.9 1.8 11.1C2 11.3 2.3 11.4 2.6 11.4C2.7 11.4 2.8 11.4 2.8 11.4L3.5 11.3V11.6C3.5 11.7 3.5 11.8 3.5 11.8L2.8 11.9ZM3.5 8.3V10.4L2.7 10.6C2.6 10.6 2.4 10.6 2.3 10.5C2.2 10.4 2.1 10.3 2.1 10.1V8.6C2.1 8.5 2.2 8.3 2.3 8.2C2.4 8.1 2.5 8.1 2.6 8.1H2.7L3.5 8.3ZM12.4 11.5C12.4 13.1 11 14.4 9.4 14.4H7.3C5.6 14.4 4.3 13.1 4.3 11.5V5.9H12.5V11.5H12.4Z" fill="#3A4757"/>
<path fill-rule="evenodd" clip-rule="evenodd" d="M9.6 3.7C9.6 3.9 9.7 4.1 9.9 4.1C10 4.1 10.2 3.9 10.2 3.7C10.2 3.3 10.1 3 9.9 2.8C9.8 2.6 9.7 2.4 9.7 2C9.7 1.7 9.8 1.6 9.9 1.4C10 1.2 10.2 0.9 10.2 0.4C10.2 0.2 10.1 0 9.9 0C9.8 0 9.6 0.2 9.6 0.4C9.6 0.7 9.5 0.8 9.4 0.9C9.3 1.1 9.1 1.4 9.1 2C9.1 2.6 9.3 3 9.4 3.2C9.5 3.5 9.6 3.6 9.6 3.7Z" fill="#3A4757"/>
<path fill-rule="evenodd" clip-rule="evenodd" d="M7.6 3.7C7.6 3.9 7.7 4.1 7.9 4.1C8 4.1 8.2 3.9 8.2 3.7C8.2 3.3 8.1 3 7.9 2.8C7.8 2.6 7.7 2.4 7.7 2C7.7 1.7 7.8 1.6 7.9 1.4C8 1.2 8.2 0.9 8.2 0.4C8.2 0.2 8.1 0 7.9 0C7.8 0 7.6 0.2 7.6 0.4C7.6 0.7 7.5 0.8 7.4 0.9C7.3 1.1 7.1 1.4 7.1 2C7.1 2.6 7.3 3 7.4 3.2C7.5 3.5 7.6 3.6 7.6 3.7Z" fill="#3A4757"/>
<path fill-rule="evenodd" clip-rule="evenodd" d="M5.6 3.7C5.6 3.9 5.7 4.1 5.9 4.1C6 4.1 6.2 3.9 6.2 3.7C6.2 3.3 6.1 3 5.9 2.8C5.7 2.6 5.6 2.5 5.6 2.1C5.6 1.8 5.7 1.7 5.8 1.5C5.9 1.3 6.1 1 6.1 0.5C6.1 0.3 6 0.0999999 5.8 0.0999999C5.7 0.0999999 5.5 0.3 5.5 0.5C5.5 0.8 5.4 0.9 5.3 1C5.3 1.2 5.1 1.5 5.1 2.1C5.1 2.7 5.3 3.1 5.4 3.3C5.5 3.5 5.6 3.6 5.6 3.7Z" fill="#3A4757"/>
</svg>