<svg width="14" height="16" viewBox="0 0 14 16" fill="none" xmlns="http://www.w3.org/2000/svg">
<path fill-rule="evenodd" clip-rule="evenodd" d="M12.4 5.4999H4.2C3.8 5.4999 3.5 5.7999 3.5 6.1999V6.6999L3 6.4999C2.3 6.2999 1.6 6.4999 1 6.8999C0.4 7.2999 0 7.9999 0 8.7999V10.6999C0 11.4999 0.3 12.1999 1 12.5999C1.4 12.8999 1.9 12.9999 2.4 12.9999C2.6 12.9999 2.8 12.9999 3 12.8999L3.6 12.6999C4 14.1999 5.5 15.3999 7.2 15.3999H9.3C11.4 15.3999 13.1 13.7999 13.1 11.7999V6.0999C13.1 5.7999 12.8 5.4999 12.4 5.4999ZM2.8 12.2999C2.3 12.3999 1.9 12.2999 1.5 12.0999C1.1 11.7999 0.8 11.2999 0.8 10.7999V8.8999C0.8 8.3999 1 7.8999 1.5 7.5999C1.8 7.3999 2.1 7.2999 2.4 7.2999C2.5 7.2999 2.7 7.2999 2.8 7.3999L3.5 7.5999V7.9999L2.8 7.8999C2.4 7.7999 2.1 7.8999 1.8 8.1999C1.5 8.3999 1.4 8.7999 1.4 9.0999V10.5999C1.4 10.9999 1.6 11.2999 1.8 11.4999C2 11.6999 2.3 11.7999 2.6 11.7999C2.7 11.7999 2.8 11.7999 2.8 11.7999L3.5 11.6999V11.9999C3.5 12.0999 3.5 12.1999 3.5 12.1999L2.8 12.2999ZM3.5 8.6999V10.7999L2.7 10.9999C2.6 10.9999 2.4 10.9999 2.3 10.8999C2.2 10.7999 2.1 10.6999 2.1 10.4999V8.9999C2.1 8.8999 2.2 8.6999 2.3 8.5999C2.4 8.4999 2.5 8.4999 2.6 8.4999H2.7L3.5 8.6999ZM12.4 11.8999C12.4 13.4999 11 14.7999 9.4 14.7999H7.3C5.6 14.7999 4.3 13.4999 4.3 11.8999V6.2999H12.5V11.8999H12.4Z" fill="#3A4757"/>
<path fill-rule="evenodd" clip-rule="evenodd" d="M9.6 4.0999C9.6 4.2999 9.7 4.4999 9.9 4.4999C10 4.4999 10.2 4.2999 10.2 4.0999C10.2 3.6999 10.1 3.3999 9.9 3.1999C9.8 2.9999 9.7 2.7999 9.7 2.3999C9.7 2.0999 9.8 1.9999 9.9 1.7999C10 1.5999 10.2 1.2999 10.2 0.799902C10.2 0.599902 10.1 0.399902 9.9 0.399902C9.8 0.399902 9.6 0.599902 9.6 0.799902C9.6 1.0999 9.5 1.1999 9.4 1.2999C9.3 1.4999 9.1 1.7999 9.1 2.3999C9.1 2.9999 9.3 3.3999 9.4 3.5999C9.5 3.8999 9.6 3.9999 9.6 4.0999Z" fill="#3A4757"/>
<path fill-rule="evenodd" clip-rule="evenodd" d="M7.6 4.0999C7.6 4.2999 7.7 4.4999 7.9 4.4999C8 4.4999 8.2 4.2999 8.2 4.0999C8.2 3.6999 8.1 3.3999 7.9 3.1999C7.8 2.9999 7.7 2.7999 7.7 2.3999C7.7 2.0999 7.8 1.9999 7.9 1.7999C8 1.5999 8.2 1.2999 8.2 0.799902C8.2 0.599902 8.1 0.399902 7.9 0.399902C7.8 0.399902 7.6 0.599902 7.6 0.799902C7.6 1.0999 7.5 1.1999 7.4 1.2999C7.3 1.4999 7.1 1.7999 7.1 2.3999C7.1 2.9999 7.3 3.3999 7.4 3.5999C7.5 3.8999 7.6 3.9999 7.6 4.0999Z" fill="#3A4757"/>
<path fill-rule="evenodd" clip-rule="evenodd" d="M5.6 4.0999C5.6 4.2999 5.7 4.4999 5.9 4.4999C6 4.4999 6.2 4.2999 6.2 4.0999C6.2 3.6999 6.1 3.3999 5.9 3.1999C5.7 2.9999 5.6 2.8999 5.6 2.4999C5.6 2.1999 5.7 2.0999 5.8 1.8999C5.9 1.6999 6.1 1.3999 6.1 0.899902C6.1 0.699902 6 0.499902 5.8 0.499902C5.7 0.499902 5.5 0.699902 5.5 0.899902C5.5 1.1999 5.4 1.2999 5.3 1.3999C5.3 1.5999 5.1 1.8999 5.1 2.4999C5.1 3.0999 5.3 3.4999 5.4 3.6999C5.5 3.8999 5.6 3.9999 5.6 4.0999Z" fill="#3A4757"/>
</svg>