<svg width="20" height="21" viewBox="0 0 20 21" fill="none" xmlns="http://www.w3.org/2000/svg">
<path d="M19.0244 10.723C18.7805 10.9668 18.4553 11.2106 18.0488 11.3731C16.6667 12.1045 14.7155 12.5108 12.7643 12.5108C10.8131 12.5108 8.86187 12.1045 7.47976 11.3731C7.07326 11.2106 6.74806 10.9668 6.50415 10.723C5.93505 10.2354 5.52855 9.50401 5.52855 8.77262V13.0797C5.77245 13.2422 6.09765 13.4047 6.50415 13.6485C6.82936 13.8111 7.15456 13.8923 7.47976 14.0549C8.94317 14.6237 10.8944 15.0301 12.7643 15.0301C14.6342 15.0301 16.5854 14.6237 18.0488 14.0549C18.374 13.8923 18.6992 13.8111 19.0244 13.6485C19.4309 13.486 19.7562 13.2422 20.0001 13.0797V8.69136C20.0001 9.50401 19.5935 10.2354 19.0244 10.723Z" fill="#3A4757"/>
<path d="M18.0488 16.0864C16.1789 16.6553 14.0651 16.9803 12.7643 16.9803C11.3009 16.9803 9.34968 16.6553 7.47976 16.0864C7.15456 15.9239 6.82936 15.8426 6.50415 15.6801C6.17895 15.5176 5.85375 15.4363 5.52855 15.2738V17.0616C5.52855 19.4996 9.18707 20.7998 12.7643 20.7998C16.3415 20.7998 20.0001 19.4996 20.0001 17.0616V15.355C19.6749 15.5176 19.3496 15.6801 19.0244 15.7614C18.6992 15.9239 18.374 16.0052 18.0488 16.0864Z" fill="#3A4757"/>
<path d="M7.47923 8.77248C7.47923 9.4226 9.51174 10.5603 12.7638 10.5603C16.0158 10.5603 18.0483 9.4226 18.0483 8.77248C18.0483 8.12236 16.0158 6.98464 12.7638 6.98464C9.51174 6.98464 7.47923 8.12236 7.47923 8.77248Z" fill="#3A4757"/>
<path d="M2.68292 7.5535C2.84552 7.63477 2.92682 7.63477 3.08942 7.63477C3.49592 7.63477 3.82113 7.39097 3.98373 7.06591C4.22763 6.57832 3.98373 6.00946 3.41462 5.76567C2.43902 5.35934 1.95121 4.87175 1.95121 4.62795C1.95121 3.97783 3.98373 2.84012 7.23575 2.84012C8.94306 2.75885 10.6504 3.16518 12.1138 4.05909C12.6016 4.30289 13.1707 4.22163 13.4959 3.73403C13.7398 3.24644 13.6585 2.67758 13.1707 2.35252C11.3821 1.21481 9.34957 0.727217 7.23575 0.808482C3.08942 0.808482 0 2.43379 0 4.54669V12.8357C0 13.5671 0.325202 14.8674 2.68292 15.8426C2.76422 15.9238 2.92682 15.9238 3.08942 15.9238C3.49592 15.9238 3.82113 15.68 3.98373 15.355C4.14633 14.8674 3.90243 14.2985 3.41462 14.0547C2.43902 13.6484 1.95121 13.1608 1.95121 12.8357V11.2917C2.19512 11.373 2.43902 11.5355 2.68292 11.6168C2.76422 11.698 2.92682 11.698 3.08942 11.698C3.49592 11.698 3.82113 11.4542 3.98373 11.1292C4.22763 10.6416 3.98373 10.0727 3.41462 9.82893C2.43902 9.4226 1.95121 8.93501 1.95121 8.60995V7.22844C2.19512 7.30971 2.43902 7.47224 2.68292 7.5535Z" fill="#3A4757"/>
</svg>