<svg width="20" height="20" viewBox="0 0 20 20" fill="none" xmlns="http://www.w3.org/2000/svg">
<path d="M19.0244 9.92318C18.7805 10.167 18.4553 10.4108 18.0488 10.5733C16.6667 11.3047 14.7155 11.711 12.7643 11.711C10.8131 11.711 8.86187 11.3047 7.47976 10.5733C7.07326 10.4108 6.74806 10.167 6.50415 9.92318C5.93505 9.43559 5.52855 8.7042 5.52855 7.97282V12.2799C5.77245 12.4424 6.09765 12.6049 6.50415 12.8487C6.82936 13.0113 7.15456 13.0925 7.47976 13.2551C8.94317 13.8239 10.8944 14.2302 12.7643 14.2302C14.6342 14.2302 16.5854 13.8239 18.0488 13.2551C18.374 13.0925 18.6992 13.0113 19.0244 12.8487C19.4309 12.6862 19.7562 12.4424 20.0001 12.2799V7.89155C20.0001 8.7042 19.5935 9.43559 19.0244 9.92318Z" fill="#3A4757"/>
<path d="M18.0488 15.2866C16.1789 15.8555 14.0651 16.1805 12.7643 16.1805C11.3009 16.1805 9.34968 15.8555 7.47976 15.2866C7.15456 15.1241 6.82936 15.0428 6.50415 14.8803C6.17895 14.7178 5.85375 14.6365 5.52855 14.474V16.2618C5.52855 18.6998 9.18707 20 12.7643 20C16.3415 20 20.0001 18.6998 20.0001 16.2618V14.5552C19.6749 14.7178 19.3496 14.8803 19.0244 14.9616C18.6992 15.1241 18.374 15.2053 18.0488 15.2866Z" fill="#3A4757"/>
<path d="M7.47923 7.97267C7.47923 8.6228 9.51174 9.76051 12.7638 9.76051C16.0158 9.76051 18.0483 8.6228 18.0483 7.97267C18.0483 7.32255 16.0158 6.18484 12.7638 6.18484C9.51174 6.18484 7.47923 7.32255 7.47923 7.97267Z" fill="#3A4757"/>
<path d="M2.68292 6.7537C2.84552 6.83496 2.92682 6.83496 3.08942 6.83496C3.49592 6.83496 3.82113 6.59117 3.98373 6.26611C4.22763 5.77851 3.98373 5.20966 3.41462 4.96586C2.43902 4.55953 1.95121 4.07194 1.95121 3.82815C1.95121 3.17802 3.98373 2.04031 7.23575 2.04031C8.94306 1.95905 10.6504 2.36537 12.1138 3.25929C12.6016 3.50309 13.1707 3.42182 13.4959 2.93423C13.7398 2.44664 13.6585 1.87778 13.1707 1.55272C11.3821 0.415004 9.34957 -0.0725877 7.23575 0.00867761C3.08942 0.00867761 0 1.63398 0 3.74688V12.0359C0 12.7673 0.325202 14.0676 2.68292 15.0428C2.76422 15.124 2.92682 15.124 3.08942 15.124C3.49592 15.124 3.82113 14.8802 3.98373 14.5552C4.14633 14.0676 3.90243 13.4987 3.41462 13.2549C2.43902 12.8486 1.95121 12.361 1.95121 12.0359V10.4919C2.19512 10.5732 2.43902 10.7357 2.68292 10.817C2.76422 10.8982 2.92682 10.8982 3.08942 10.8982C3.49592 10.8982 3.82113 10.6544 3.98373 10.3294C4.22763 9.84178 3.98373 9.27292 3.41462 9.02913C2.43902 8.6228 1.95121 8.13521 1.95121 7.81015V6.42864C2.19512 6.5099 2.43902 6.67243 2.68292 6.7537Z" fill="#3A4757"/>
</svg>