<svg width="20" height="21" viewBox="0 0 20 21" fill="none" xmlns="http://www.w3.org/2000/svg">
<path fill-rule="evenodd" clip-rule="evenodd" d="M7.20564 0.81197C9.29825 0.710583 11.3728 1.24481 13.156 2.34463C13.6263 2.63468 13.7722 3.25081 13.482 3.7208C13.1918 4.19079 12.5753 4.33666 12.105 4.04661C10.6599 3.15533 8.97778 2.72427 7.28183 2.81065C7.26487 2.81151 7.24789 2.81194 7.23091 2.81194C5.61418 2.81194 4.20135 3.10593 3.23013 3.53832C2.74324 3.75508 2.41117 3.98709 2.21437 4.19391C2.02225 4.39582 2.0012 4.52445 2.0012 4.5793C2.0012 4.63537 2.0246 4.78057 2.2602 5.01037C2.49891 5.2432 2.89443 5.49736 3.45936 5.73056C3.97012 5.9414 4.21315 6.52612 4.00219 7.03657C3.79122 7.54703 3.20614 7.78991 2.69538 7.57907C2.45517 7.47992 2.22254 7.37125 2.0012 7.25264V8.73027C2.0012 8.78634 2.0246 8.93154 2.2602 9.16134C2.49891 9.39417 2.89443 9.64833 3.45936 9.88153C3.97012 10.0924 4.21315 10.6771 4.00219 11.1875C3.79122 11.698 3.20614 11.9409 2.69538 11.73C2.45517 11.6309 2.22254 11.5222 2.0012 11.4036V12.8814C2.0012 12.9375 2.0246 13.0827 2.2602 13.3125C2.49891 13.5453 2.89443 13.7995 3.45936 14.0327C3.97012 14.2435 4.21315 14.8282 4.00219 15.3387C3.79122 15.8491 3.20614 16.092 2.69538 15.8812C1.98655 15.5886 1.34369 15.2132 0.862456 14.7438C0.378114 14.2714 0 13.6417 0 12.8814V4.5793C0 3.87312 0.326815 3.27533 0.764211 2.81567C1.19693 2.36092 1.77604 1.99622 2.4158 1.71139C3.69198 1.14324 5.38454 0.814979 7.20564 0.81197ZM7.7531 8.34257C7.56097 8.54434 7.53926 8.67366 7.53926 8.73037C7.53926 8.78708 7.56097 8.9164 7.7531 9.11817C7.95014 9.32509 8.28255 9.55692 8.76986 9.77337C9.74195 10.2052 11.155 10.4977 12.769 10.4977C14.3829 10.4977 15.796 10.2052 16.7681 9.77338C17.2554 9.55692 17.5878 9.32509 17.7848 9.11817C17.977 8.9164 17.9987 8.78708 17.9987 8.73037C17.9987 8.67366 17.977 8.54434 17.7848 8.34257C17.5878 8.13565 17.2554 7.90381 16.7681 7.68736C15.796 7.25558 14.3829 6.96301 12.769 6.96301C11.155 6.96301 9.74195 7.25558 8.76986 7.68736C8.28255 7.90381 7.95014 8.13565 7.7531 8.34257ZM19.9999 8.73037C19.9999 8.0229 19.6729 7.4242 19.2345 6.96381C18.801 6.50856 18.221 6.14409 17.5808 5.85974C16.298 5.28994 14.5959 4.96302 12.769 4.96302C10.942 4.96302 9.23993 5.28994 7.95709 5.85974C7.31694 6.14409 6.73694 6.50856 6.30344 6.96381C5.86503 7.4242 5.53806 8.0229 5.53806 8.73037L5.53813 17.0325C5.53813 17.7371 5.86267 18.3345 6.2992 18.7948C6.73089 19.2501 7.30895 19.6151 7.94821 19.9001C9.22919 20.4713 10.9319 20.7998 12.769 20.7998C14.6062 20.7998 16.3089 20.4713 17.5899 19.9001C18.2291 19.6151 18.8072 19.2501 19.2389 18.7948C19.6754 18.3345 19.9999 17.7371 19.9999 17.0324L19.9999 12.8938C19.9999 12.8897 19.9999 12.8855 19.9999 12.8814C19.9999 12.8787 19.9999 12.8759 19.9999 12.8732L19.9999 8.73037ZM17.9987 11.3989C17.863 11.4703 17.7234 11.5377 17.5808 11.601C16.298 12.1708 14.5959 12.4977 12.769 12.4977C10.942 12.4977 9.23993 12.1708 7.95709 11.601C7.81452 11.5377 7.67493 11.4704 7.53928 11.399L7.53929 12.8732C7.53932 12.8759 7.53933 12.8787 7.53933 12.8814C7.53933 12.9378 7.56091 13.0668 7.75173 13.2681C7.9474 13.4744 8.27793 13.7061 8.76359 13.9226C9.73244 14.3546 11.1449 14.6488 12.769 14.6488C14.3932 14.6488 15.8056 14.3546 16.7745 13.9226C17.2601 13.7061 17.5907 13.4744 17.7863 13.2681C17.9729 13.0713 17.9977 12.9436 17.9987 12.8853L17.9987 11.3989ZM17.9987 15.551C17.8659 15.6209 17.7294 15.6869 17.5899 15.7491C16.3089 16.3203 14.6062 16.6488 12.769 16.6488C10.9319 16.6488 9.22919 16.3203 7.94821 15.7491C7.8087 15.6869 7.67211 15.6209 7.53931 15.551L7.53933 17.0324C7.53933 17.0889 7.56091 17.2179 7.75173 17.4191C7.9474 17.6254 8.27793 17.8571 8.76359 18.0737C9.73244 18.5057 11.1449 18.7998 12.769 18.7998C14.3932 18.7998 15.8056 18.5057 16.7745 18.0737C17.2601 17.8571 17.5907 17.6254 17.7863 17.4191C17.9772 17.2179 17.9987 17.0889 17.9987 17.0325L17.9987 15.551Z" fill="#3A4757"/>
</svg>