<svg width="20" height="20" viewBox="0 0 20 20" fill="none" xmlns="http://www.w3.org/2000/svg">
<path fill-rule="evenodd" clip-rule="evenodd" d="M7.20564 0.012165C9.29825 -0.089222 11.3728 0.445002 13.156 1.54483C13.6263 1.83487 13.7722 2.451 13.482 2.92099C13.1918 3.39098 12.5753 3.53686 12.105 3.24681C10.6599 2.35552 8.97778 1.92447 7.28183 2.01084C7.26487 2.01171 7.24789 2.01214 7.23091 2.01214C5.61418 2.01214 4.20135 2.30613 3.23013 2.73851C2.74324 2.95528 2.41117 3.18729 2.21437 3.3941C2.02225 3.59601 2.0012 3.72465 2.0012 3.7795C2.0012 3.83556 2.0246 3.98076 2.2602 4.21056C2.49891 4.4434 2.89443 4.69756 3.45936 4.93075C3.97012 5.14159 4.21315 5.72632 4.00219 6.23677C3.79122 6.74722 3.20614 6.99011 2.69538 6.77927C2.45517 6.68011 2.22254 6.57145 2.0012 6.45283V7.93047C2.0012 7.98653 2.0246 8.13173 2.2602 8.36154C2.49891 8.59437 2.89443 8.84853 3.45936 9.08173C3.97012 9.29257 4.21315 9.87729 4.00219 10.3877C3.79122 10.8982 3.20614 11.1411 2.69538 10.9302C2.45517 10.8311 2.22254 10.7224 2.0012 10.6038V12.0816C2.0012 12.1377 2.0246 12.2829 2.2602 12.5127C2.49891 12.7455 2.89443 12.9997 3.45936 13.2329C3.97012 13.4437 4.21315 14.0284 4.00219 14.5389C3.79122 15.0493 3.20614 15.2922 2.69538 15.0814C1.98655 14.7888 1.34369 14.4134 0.862456 13.944C0.378114 13.4716 0 12.8419 0 12.0816V3.7795C0 3.07332 0.326815 2.47553 0.764211 2.01586C1.19693 1.56111 1.77604 1.19641 2.4158 0.91159C3.69198 0.343436 5.38454 0.0151742 7.20564 0.012165ZM7.7531 7.54277C7.56097 7.74453 7.53926 7.87385 7.53926 7.93056C7.53926 7.98727 7.56097 8.11659 7.7531 8.31836C7.95014 8.52528 8.28255 8.75712 8.76986 8.97357C9.74195 9.40535 11.155 9.69792 12.769 9.69792C14.3829 9.69792 15.796 9.40535 16.7681 8.97357C17.2554 8.75712 17.5878 8.52528 17.7848 8.31836C17.977 8.11659 17.9987 7.98727 17.9987 7.93056C17.9987 7.87385 17.977 7.74453 17.7848 7.54277C17.5878 7.33585 17.2554 7.10401 16.7681 6.88756C15.796 6.45578 14.3829 6.16321 12.769 6.16321C11.155 6.16321 9.74195 6.45578 8.76986 6.88756C8.28255 7.10401 7.95014 7.33585 7.7531 7.54277ZM19.9999 7.93056C19.9999 7.22309 19.6729 6.6244 19.2345 6.164C18.801 5.70876 18.221 5.34428 17.5808 5.05994C16.298 4.49013 14.5959 4.16321 12.769 4.16321C10.942 4.16321 9.23993 4.49013 7.95709 5.05994C7.31694 5.34428 6.73694 5.70876 6.30344 6.164C5.86503 6.6244 5.53806 7.22309 5.53806 7.93056L5.53813 16.2327C5.53813 16.9373 5.86267 17.5347 6.2992 17.995C6.73089 18.4503 7.30895 18.8153 7.94821 19.1003C9.22919 19.6715 10.9319 20 12.769 20C14.6062 20 16.3089 19.6715 17.5899 19.1003C18.2291 18.8153 18.8072 18.4503 19.2389 17.995C19.6754 17.5347 19.9999 16.9373 19.9999 16.2326L19.9999 12.094C19.9999 12.0899 19.9999 12.0857 19.9999 12.0816C19.9999 12.0789 19.9999 12.0761 19.9999 12.0734L19.9999 7.93056ZM17.9987 10.5991C17.863 10.6705 17.7234 10.7379 17.5808 10.8012C16.298 11.371 14.5959 11.6979 12.769 11.6979C10.942 11.6979 9.23993 11.371 7.95709 10.8012C7.81452 10.7379 7.67493 10.6706 7.53928 10.5992L7.53929 12.0734C7.53932 12.0761 7.53933 12.0789 7.53933 12.0816C7.53933 12.138 7.56091 12.267 7.75173 12.4683C7.9474 12.6746 8.27793 12.9063 8.76359 13.1228C9.73244 13.5548 11.1449 13.849 12.769 13.849C14.3932 13.849 15.8056 13.5548 16.7745 13.1228C17.2601 12.9063 17.5907 12.6746 17.7863 12.4683C17.9729 12.2715 17.9977 12.1438 17.9987 12.0855L17.9987 10.5991ZM17.9987 14.7512C17.8659 14.8211 17.7294 14.8871 17.5899 14.9493C16.3089 15.5205 14.6062 15.849 12.769 15.849C10.9319 15.849 9.22919 15.5205 7.94821 14.9493C7.8087 14.8871 7.67211 14.8211 7.53931 14.7511L7.53933 16.2326C7.53933 16.2891 7.56091 16.4181 7.75173 16.6193C7.9474 16.8256 8.27793 17.0573 8.76359 17.2739C9.73244 17.7059 11.1449 18 12.769 18C14.3932 18 15.8056 17.7059 16.7745 17.2739C17.2601 17.0573 17.5907 16.8256 17.7863 16.6193C17.9772 16.4181 17.9987 16.2891 17.9987 16.2327L17.9987 14.7512Z" fill="#3A4757"/>
</svg>