<svg width="15" height="14" viewBox="0 0 15 14" fill="none" xmlns="http://www.w3.org/2000/svg">
<path fill-rule="evenodd" clip-rule="evenodd" d="M14.3948 0.0786804C14.559 -0.0481585 14.7938 -0.0187136 14.9213 0.145875C15.048 0.311218 15.018 0.547531 14.8545 0.67588L8.59514 5.56446H14.625C14.832 5.56446 15 5.73358 15 5.94196C15 6.15034 14.832 6.31945 14.625 6.31945H7.89541V13.245H8.1459C8.1744 13.245 8.1999 13.2556 8.22615 13.2609C8.25315 13.2556 8.27865 13.245 8.30715 13.245H12.7763V7.36436C12.7763 7.15523 12.9443 6.98687 13.1513 6.98687H14.625C14.832 6.98687 15 7.15523 15 7.36436C15 7.57274 14.832 7.74186 14.625 7.74186H13.5263V13.245H14.625C14.832 13.245 15 13.4134 15 13.6225C15 13.8309 14.832 14 14.625 14H8.30715C8.27865 14 8.25315 13.9894 8.22615 13.9834C8.1999 13.9894 8.1744 14 8.1459 14H0.375322C0.167577 14 0.000330773 13.8309 0.000330773 13.6225C0.000330773 13.4134 0.167577 13.245 0.375322 13.245H1.4733V7.74186H0.375322C0.167577 7.74186 0.000330773 7.57274 0.000330773 7.36436C0.000330773 7.15523 0.167577 6.98687 0.375322 6.98687H1.84829C2.05604 6.98687 2.22328 7.15523 2.22328 7.36436V13.245H7.10492V6.31945H0.375322C0.167577 6.31945 0.000330773 6.15034 0.000330773 5.94196C0.000330773 5.73358 0.167577 5.56446 0.375322 5.56446H6.40519L0.145077 0.67588C-0.0184189 0.547531 -0.0484181 0.311218 0.0790791 0.145875C0.205826 -0.0187136 0.441321 -0.0481585 0.604817 0.0786804L3.81475 2.58601V2.04091C3.81475 1.83253 3.98274 1.66341 4.18974 1.66341H6.49069C6.69843 1.66341 6.86568 1.83253 6.86568 2.04091V4.96877L7.50017 5.46329L14.3948 0.0786804ZM5.84525 6.98672C6.05225 6.98672 6.22024 7.15584 6.22024 7.36421V10.9753C6.41149 10.9927 6.56299 11.149 6.56299 11.346C6.56299 11.5552 6.39499 11.7235 6.18799 11.7235H3.20081C2.99382 11.7235 2.82582 11.5552 2.82582 11.346C2.82582 11.149 2.97731 10.9927 3.16931 10.9753V7.36421C3.16931 7.15584 3.33656 6.98672 3.5443 6.98672H5.84525ZM11.5369 6.98672C11.7439 6.98672 11.9119 7.15584 11.9119 7.36421V10.9753C12.1031 10.9927 12.2546 11.149 12.2546 11.346C12.2546 11.5552 12.0874 11.7235 11.8796 11.7235H8.89319C8.68544 11.7235 8.51819 11.5552 8.51819 11.346C8.51819 11.1497 8.66969 10.9927 8.86094 10.9753V7.36421C8.86094 7.15584 9.02818 6.98672 9.23593 6.98672H11.5369ZM5.47026 7.74171H3.91929V10.9686H5.47026V7.74171ZM11.1619 7.74171H9.61092V10.9686H11.1619V7.74171ZM6.1157 2.4184H4.56473V3.17113L6.1157 4.38365V2.4184Z" fill="#3A4757"/>
</svg>