<svg width="20" height="18" viewBox="0 0 20 18" fill="none" xmlns="http://www.w3.org/2000/svg">
<path fill-rule="evenodd" clip-rule="evenodd" d="M18.31 0H1.69C0.76 0 0 0.760423 0 1.70095V12.8271C0 13.7676 0.76 14.5281 1.69 14.5281H7.14L6.56 15.9989H5.85C5.3 15.9989 4.85 16.4491 4.85 16.9994C4.85 17.5497 5.3 18 5.85 18H14.15C14.7 18 15.15 17.5497 15.15 16.9994C15.15 16.4491 14.7 15.9989 14.15 15.9989H13.44L12.86 14.5281H18.31C19.24 14.5281 20 13.7676 20 12.8271V1.70095C20 0.760423 19.24 0 18.31 0ZM11.29 15.9989H8.71L9.29 14.5281H10.71L11.29 15.9989ZM18 12.517H2V2.01112H18V12.527V12.517Z" fill="#3A4757"/>
</svg>