<svg width="17" height="17" viewBox="0 0 17 17" fill="none" xmlns="http://www.w3.org/2000/svg">
<path fill-rule="evenodd" clip-rule="evenodd" d="M8.5 0C13.1944 0 17 3.80558 17 8.5C17 13.1944 13.1944 17 8.5 17C3.80558 17 0 13.1944 0 8.5C0 3.80558 3.80558 0 8.5 0ZM8.11358 0.782221C6.30921 0.871083 4.66758 1.57885 3.39654 2.69768L4.13733 3.43875C4.28756 3.58898 4.28756 3.83255 4.13733 3.98278C4.00379 4.11632 3.7965 4.13116 3.64657 4.02729L3.59329 3.98278L2.84497 3.2339C1.64116 4.52605 0.874922 6.23126 0.782221 8.11358L1.93182 8.11364C2.1452 8.11364 2.31818 8.28662 2.31818 8.5C2.31818 8.68967 2.18151 8.84742 2.00127 8.88014L1.93182 8.88636L0.782259 8.88719C0.871285 10.6913 1.57901 12.3326 2.69768 13.6035L3.43875 12.8627L3.49202 12.8182C3.64195 12.7143 3.84924 12.7291 3.98278 12.8627C4.13301 13.0129 4.13301 13.2565 3.98278 13.4067L3.2339 14.155C4.52605 15.3588 6.23126 16.1251 8.11358 16.2178L8.11364 15.0682C8.11364 14.8548 8.28662 14.6818 8.5 14.6818C8.68967 14.6818 8.84742 14.8185 8.88014 14.9987L8.88636 15.0682L8.88719 16.2177C10.8856 16.1191 12.6843 15.2613 14.001 13.9268L13.249 13.1749C13.0988 13.0247 13.0988 12.7811 13.249 12.6309C13.3826 12.4973 13.5899 12.4825 13.7398 12.5863L13.7931 12.6309L14.5145 13.3519C15.5101 12.1193 16.1345 10.5744 16.2177 8.88719L15.0682 8.88636C14.8548 8.88636 14.6818 8.71338 14.6818 8.5C14.6818 8.31033 14.8185 8.15258 14.9987 8.11986L15.0682 8.11364L16.2178 8.11358C16.1251 6.23126 15.3588 4.52605 14.155 3.2339L13.4067 3.98278L13.3534 4.02729C13.2035 4.13116 12.9962 4.11632 12.8627 3.98278C12.7124 3.83255 12.7124 3.58898 12.8627 3.43875L13.6035 2.69768C12.3326 1.57901 10.6913 0.871285 8.88719 0.782259L8.88636 1.93182C8.88636 2.1452 8.71338 2.31818 8.5 2.31818C8.31033 2.31818 8.15258 2.18151 8.11986 2.00127L8.11364 1.93182L8.11358 0.782221ZM10.0453 3.46661L10.0412 3.53936L9.36713 8.48235L9.36621 8.48875C9.36556 8.4944 9.36457 8.50008 9.36345 8.50575C9.35987 8.52307 9.35553 8.53953 9.35027 8.55545L9.33686 8.58809L9.33609 8.59041C9.3314 8.60242 9.32862 8.60809 9.32572 8.61368L9.31923 8.62522L6.8881 12.9405C6.69104 13.2903 6.1916 13.1353 6.18196 12.7607L6.18609 12.6879L6.86014 7.74492L6.86106 7.73852C6.86171 7.73287 6.86271 7.72719 6.86382 7.72153C6.8674 7.7042 6.87174 7.68774 6.877 7.67182L6.89063 7.63671L6.89322 7.63062L6.89736 7.62141L6.90156 7.61359L6.90804 7.60205L9.33917 3.28674C9.53623 2.93696 10.0357 3.09194 10.0453 3.46661ZM7.54561 8.32548L7.20556 10.8197L8.432 8.64218L7.81227 8.42041L7.54561 8.32548ZM9.02096 5.40676L7.79403 7.58481L7.89805 7.62141L8.6809 7.90101L9.02096 5.40676Z" fill="#3A4757"/>
</svg>