<svg width="14" height="20" viewBox="0 0 14 20" fill="none" xmlns="http://www.w3.org/2000/svg">
<path d="M5.43746 11.0689H6.69523L5.91154 12.5275C5.65031 13.007 5.82446 13.6164 6.28887 13.8861C6.434 13.976 6.59848 14.016 6.75328 14.016C7.09191 14.016 7.42087 13.8262 7.6047 13.5065L9.19143 10.5594C9.35591 10.2497 9.35591 9.87013 9.18175 9.57043C9.0076 9.26074 8.68832 9.08092 8.34969 9.08092H7.36282L8.43676 7.57243C8.75605 7.13287 8.66897 6.5035 8.23359 6.17383C7.80788 5.84416 7.19834 5.93407 6.87906 6.38362L4.66344 9.48052C4.45059 9.78022 4.41189 10.1898 4.57636 10.5195C4.74084 10.8491 5.0698 11.0689 5.43746 11.0689Z" fill="#3A4757"/>
<path d="M14 9.99001C14 7.69231 12.9454 5.64436 11.32 4.31568V2.37762C11.32 1.73826 11.0781 1.14885 10.6427 0.699301C10.217 0.24975 9.61714 0 9.0076 0H4.9924C4.37319 0 3.80235 0.24975 3.35729 0.699301C2.91223 1.14885 2.68003 1.74825 2.68003 2.38761V4.32567C1.0546 5.65435 0 7.7023 0 10C0 12.2977 1.0546 14.3457 2.68003 15.6743V17.6124C2.68003 18.2517 2.92191 18.8412 3.35729 19.3007C3.79267 19.7602 4.37319 20 4.9924 20H9.0076C9.61714 20 10.2073 19.7502 10.6427 19.3007C11.0781 18.8511 11.32 18.2517 11.32 17.6124V15.6743C12.9454 14.3457 14 12.2977 14 10V9.99001ZM4.62474 2.37762C4.62474 2.27772 4.66344 2.17782 4.73117 2.10789C4.79889 2.03796 4.89565 1.998 4.9924 1.998H9.0076C9.10435 1.998 9.20111 2.03796 9.26883 2.10789C9.33656 2.17782 9.37526 2.27772 9.37526 2.37762V3.20679C8.63027 2.92707 7.82723 2.76723 6.99516 2.76723C6.1631 2.76723 5.36006 2.92707 4.61507 3.20679V2.37762H4.62474ZM1.94471 9.99001C1.94471 7.11289 4.21838 4.76523 7.00484 4.76523C9.79129 4.76523 12.065 7.11289 12.065 9.99001C12.065 12.8671 9.79129 15.2148 7.00484 15.2148C4.21838 15.2148 1.94471 12.8671 1.94471 9.99001ZM9.38493 17.6024C9.38493 17.7023 9.34623 17.8022 9.27851 17.8721C9.21078 17.9421 9.11403 17.982 9.01728 17.982H5.00207C4.90532 17.982 4.80857 17.9421 4.74084 17.8721C4.67312 17.8022 4.63442 17.7023 4.63442 17.6024V16.7732C5.37941 17.0529 6.18245 17.2128 7.01451 17.2128C7.84658 17.2128 8.64962 17.0529 9.39461 16.7732V17.6024H9.38493Z" fill="#3A4757"/>
</svg>