<svg width="17" height="13" viewBox="0 0 17 13" fill="none" xmlns="http://www.w3.org/2000/svg">
<path fill-rule="evenodd" clip-rule="evenodd" d="M8.5 0C8.68967 0 8.84742 0.117615 8.88014 0.272717L8.88636 0.332481L8.88685 2.31995C9.84754 2.44972 10.6078 3.05461 10.781 3.8238L12.7603 3.82367C15.0767 3.80557 16.9722 5.60344 17 7.84941C17 10.2646 15.011 13 12.8322 13C12.0849 13 11.6552 12.5988 10.934 11.5151L10.7338 11.2098L10.5455 10.9288C10.1289 10.3245 9.86321 10.0739 9.594 10.0432L9.5362 10.0399H7.50201C7.15875 10.0399 6.86697 10.3215 6.33034 11.1379L6.19582 11.3455C5.40942 12.568 4.99161 13 4.20601 13C1.99671 13 0 10.2729 0 7.84498C0.0266488 5.68728 1.78567 3.93523 3.99681 3.82859L4.16777 3.82365L6.219 3.8238C6.39226 3.0544 7.15286 2.4494 8.11392 2.31985L8.11364 0.332481C8.11364 0.148857 8.28662 0 8.5 0ZM12.7634 4.56366H4.17157C2.30042 4.58164 0.787041 6.04317 0.764706 7.84941C0.764706 9.90807 2.48675 12.26 4.20601 12.26C4.58048 12.26 4.88288 11.9677 5.44964 11.1037L5.58389 10.8964C6.30345 9.77826 6.70883 9.3418 7.39664 9.30277L7.50201 9.29986H9.5362C10.2115 9.29986 10.6197 9.67633 11.2694 10.6469L11.4703 10.9524C12.1045 11.9246 12.4338 12.26 12.8322 12.26C14.5195 12.26 16.2353 9.90027 16.2353 7.85383C16.2133 6.07225 14.7491 4.63322 12.9252 4.56602L12.7634 4.56366ZM13.3258 8.02941L13.3933 8.03316C13.6787 8.06544 13.9023 8.30248 13.9091 8.59991C13.9091 8.75285 13.8477 8.89952 13.7384 9.00766C13.6292 9.1158 13.481 9.17655 13.3194 9.17647C13.0028 9.16935 12.7499 8.91325 12.75 8.59991C12.75 8.30734 12.9725 8.06621 13.2592 8.03325L13.3258 8.02941ZM4.25 6.11765C4.43967 6.11765 4.59742 6.2529 4.63014 6.43127L4.63636 6.5V7.26471H5.40909C5.62247 7.26471 5.79545 7.43589 5.79545 7.64706C5.79545 7.83476 5.65878 7.99088 5.47854 8.02325L5.40909 8.02941H4.63636V8.79412C4.63636 9.00529 4.46338 9.17647 4.25 9.17647C4.06033 9.17647 3.90258 9.04121 3.86986 8.86285L3.86364 8.79412V8.02941H3.09091C2.87753 8.02941 2.70455 7.85823 2.70455 7.64706C2.70455 7.45935 2.84122 7.30324 3.02146 7.27087L3.09091 7.26471H3.86364V6.5C3.86364 6.28883 4.03662 6.11765 4.25 6.11765ZM12.1674 6.88235C12.4892 6.88235 12.7501 7.1405 12.75 7.46592C12.7428 7.77924 12.484 8.02949 12.1674 8.02941C11.849 8.02941 11.5909 7.77401 11.5909 7.45903C11.5908 7.16802 11.8089 6.92643 12.0935 6.8877L12.1674 6.88235ZM14.4988 6.88235C14.8154 6.88948 15.0683 7.14557 15.0682 7.45891C15.0682 7.61022 15.0074 7.75533 14.8993 7.86232C14.7912 7.96931 14.6446 8.02941 14.4918 8.02941C14.1751 8.02949 13.9164 7.77922 13.9091 7.45891C13.9091 7.30598 13.9705 7.15931 14.0797 7.05117C14.1708 6.96105 14.2889 6.90384 14.4151 6.88727L14.4988 6.88235ZM13.3258 5.73529L13.3933 5.73904C13.6787 5.77132 13.9023 6.00837 13.9091 6.3058C13.9091 6.45873 13.8477 6.6054 13.7384 6.71354C13.6292 6.82168 13.481 6.88243 13.3194 6.88235C13.0028 6.87523 12.7499 6.61914 12.75 6.3058C12.75 6.01322 12.9725 5.77209 13.2592 5.73913L13.3258 5.73529ZM8.5 3.06564C8.04041 3.06564 7.4617 3.24566 7.18636 3.82353H9.73636C9.515 3.34273 9.10288 3.0901 8.5 3.06564Z" fill="#3A4757"/>
</svg>