<svg width="20" height="20" viewBox="0 0 20 20" fill="none" xmlns="http://www.w3.org/2000/svg">
<path d="M7.90131 10.6147H7.25716V9.995C7.25716 9.44528 6.78963 8.9955 6.21821 8.9955C5.64678 8.9955 5.17925 9.44528 5.17925 9.995V10.6147H4.5351C3.96368 10.6147 3.49615 11.0645 3.49615 11.6142C3.49615 12.1639 3.96368 12.6137 4.5351 12.6137H5.17925V13.2334C5.17925 13.7831 5.64678 14.2329 6.21821 14.2329C6.78963 14.2329 7.25716 13.7831 7.25716 13.2334V12.6137H7.90131C8.47274 12.6137 8.94027 12.1639 8.94027 11.6142C8.94027 11.0645 8.47274 10.6147 7.90131 10.6147Z" fill="#3A4757"/>
<path d="M19.974 15.3423L19.3714 10.1549C19.0701 7.52624 16.7636 5.53723 14.0104 5.53723H11.039V5.16742C11.039 4.94753 11.226 4.76762 11.4545 4.76762H13.5844C14.9558 4.76762 16.0779 3.68816 16.0779 2.36882V0.9995C16.0779 0.449775 15.6104 0 15.0389 0C14.4675 0 14 0.449775 14 0.9995V2.36882C14 2.58871 13.813 2.76862 13.5844 2.76862H11.4545C10.0831 2.76862 8.96105 3.84808 8.96105 5.16742V5.53723H5.98964C3.23641 5.53723 0.92993 7.52624 0.628634 10.1549L0.0260403 15.3423C-0.109024 16.5217 0.285779 17.7111 1.10655 18.6007C1.92733 19.4903 3.11173 20 4.34809 20C6.01042 20 7.49612 19.1104 8.24417 17.6812L8.48313 17.2314H11.5169L11.7558 17.6812C12.4935 19.1104 13.9896 20 15.6519 20C16.8883 20 18.0727 19.4903 18.8934 18.6007C19.7142 17.7111 20.109 16.5217 19.974 15.3423ZM17.335 17.2614C16.8987 17.7311 16.2961 17.991 15.6415 17.991C14.7688 17.991 13.9896 17.5312 13.6052 16.7816L13.0857 15.7821C12.9091 15.4423 12.5454 15.2324 12.161 15.2324H7.84936C7.45456 15.2324 7.09093 15.4423 6.9247 15.7821L6.40522 16.7816C6.02081 17.5312 5.24159 17.991 4.36887 17.991C3.71433 17.991 3.11173 17.7311 2.67537 17.2614C2.23901 16.7916 2.03122 16.1819 2.11434 15.5622L2.71693 10.3748C2.90394 8.75562 4.31692 7.53623 6.01042 7.53623H14.0311C15.7246 7.53623 17.148 8.75562 17.3246 10.3748L17.9272 15.5622C17.9999 16.1919 17.8025 16.7916 17.3662 17.2614H17.335Z" fill="#3A4757"/>
<path d="M15.4337 9.07546C15.3091 9.02549 15.174 8.9955 15.0285 8.9955C14.8831 8.9955 14.748 9.02549 14.6233 9.07546C14.0519 9.24538 13.6259 9.73513 13.6259 10.3448C13.6259 10.9545 14.0519 11.4443 14.6233 11.6142C14.748 11.6642 14.8831 11.6942 15.0285 11.6942C15.174 11.6942 15.3091 11.6642 15.4337 11.6142C16.0052 11.4443 16.4311 10.9545 16.4311 10.3448C16.4311 9.73513 16.0052 9.24538 15.4337 9.07546Z" fill="#3A4757"/>
<path d="M12.8779 11.0745C12.1091 11.0745 11.4753 11.6742 11.4753 12.4238C11.4753 12.5637 11.5065 12.6937 11.5584 12.8136C11.7351 13.3633 12.2441 13.7631 12.8779 13.7631C13.6467 13.7631 14.2805 13.1634 14.2805 12.4138C14.2805 12.2739 14.2493 12.1439 14.1974 12.024C14.0208 11.4743 13.5117 11.0745 12.8779 11.0745Z" fill="#3A4757"/>
</svg>