<svg width="17" height="20" viewBox="0 0 17 20" fill="none" xmlns="http://www.w3.org/2000/svg">
<path d="M4.12621 0.666667C3.79612 1.08333 3.54854 1.58333 3.54854 2.16667V14.25C3.54854 14.8333 3.79612 15.4167 4.20874 15.75C4.62136 16.1667 5.19903 16.4167 5.69418 16.4167H14.8544C15.432 16.4167 16.0097 16.1667 16.3398 15.75C16.7524 15.3333 17 14.75 17 14.25V5C17 4.83333 16.9175 4.58333 16.7524 4.5L12.5437 0.25C12.3786 0.0833333 12.2136 0 12.0485 0H5.69418C5.11651 0 4.53884 0.25 4.12621 0.666667Z" fill="#3A4757"/>
<path d="M2.14563 20H12.0485C12.4612 20 12.7913 19.6667 12.7913 19.25C12.7913 18.8333 12.4612 18.5 12.0485 18.5H2.14563C1.98058 18.5 1.81553 18.4167 1.65049 18.3333C1.48544 18.1667 1.48544 18 1.48544 17.8333V5C1.48544 4.58333 1.15534 4.25 0.742718 4.25C0.330097 4.25 0 4.58333 0 5V17.8333C0 18.4167 0.247573 19 0.660194 19.3333C1.07282 19.75 1.56796 20 2.14563 20Z" fill="#3A4757"/>
</svg>