<svg width="17" height="20" viewBox="0 0 17 20" fill="none" xmlns="http://www.w3.org/2000/svg">
<path fill-rule="evenodd" clip-rule="evenodd" d="M5.75922 1.95122C5.65117 1.95122 5.54755 1.99471 5.47114 2.07212C5.39474 2.14952 5.35181 2.25451 5.35181 2.36398V14.1651C5.35181 14.2746 5.39474 14.3796 5.47114 14.457C5.54755 14.5344 5.65117 14.5779 5.75922 14.5779H14.6667C14.7747 14.5779 14.8783 14.5344 14.9547 14.457C15.0311 14.3796 15.0741 14.2746 15.0741 14.1651V5.54483L11.527 1.95122H5.75922ZM4.1093 0.692394C4.54689 0.249062 5.14038 0 5.75922 0H11.9259C12.1813 0 12.4262 0.102787 12.6068 0.28575L16.718 4.45086C16.8985 4.63382 17 4.88197 17 5.14072V14.1651C17 14.7921 16.7542 15.3934 16.3166 15.8367C15.879 16.28 15.2855 16.5291 14.6667 16.5291H5.75922C5.14038 16.5291 4.54689 16.28 4.1093 15.8367C3.67172 15.3934 3.42588 14.7921 3.42588 14.1651V2.36398C3.42588 1.73701 3.67172 1.13573 4.1093 0.692394Z" fill="#3A4757"/>
<path fill-rule="evenodd" clip-rule="evenodd" d="M0.962966 4.16508C1.4948 4.16508 1.92593 4.60188 1.92593 5.14069V17.636C1.92593 17.7455 1.96886 17.8505 2.04526 17.9279C2.12166 18.0053 2.22529 18.0488 2.33334 18.0488H11.926C12.4578 18.0488 12.8889 18.4856 12.8889 19.0244C12.8889 19.5632 12.4578 20 11.926 20H2.33334C1.7145 20 1.12101 19.7509 0.68342 19.3076C0.245833 18.8643 0 18.263 0 17.636V5.14069C0 4.60188 0.431135 4.16508 0.962966 4.16508Z" fill="#3A4757"/>
</svg>