<svg width="20" height="20" viewBox="0 0 20 20" fill="none" xmlns="http://www.w3.org/2000/svg">
<path fill-rule="evenodd" clip-rule="evenodd" d="M19.3006 5.59741C18.8593 5.16203 18.2598 4.91559 17.627 4.91559H16.5196V2.33299C16.5196 1.04327 15.4621 0 14.1549 0H5.8368C4.52956 0 3.47211 1.04327 3.47211 2.33299V4.91559H2.3647C1.74022 4.91559 1.14072 5.16203 0.691091 5.59741C0.249792 6.03279 0 6.62425 0 7.24858V13.4096C0 14.0257 0.249792 14.6172 0.691091 15.0608C1.13239 15.4962 1.73189 15.7426 2.3647 15.7426H4.64613L4.18818 18.8466C4.07993 19.3641 4.42132 19.8735 4.95421 19.9802C5.47877 20.087 5.995 19.7502 6.10325 19.2245L6.63614 15.7426H13.3639L13.8968 19.2245C14.005 19.742 14.5129 20.087 15.0458 19.9802C15.5704 19.8735 15.9201 19.3724 15.8118 18.8466L15.3539 15.7426H17.6353C18.2598 15.7426 18.8593 15.4962 19.3089 15.0608C19.7585 14.6254 20 14.034 20 13.4096V7.24858C20 6.63247 19.7502 6.04101 19.3089 5.59741H19.3006ZM5.42881 2.33299C5.42881 2.11119 5.61199 1.92225 5.84513 1.92225H14.1715C14.3963 1.92225 14.5878 2.10297 14.5878 2.33299V5.87671V9.98409C14.5878 10.2059 14.4047 10.3948 14.1715 10.3948H5.8368C5.61199 10.3948 5.42048 10.2141 5.42048 9.98409V2.33299H5.42881ZM18.0433 13.4096C18.0433 13.5164 18.0017 13.6232 17.9184 13.6971C17.8351 13.7711 17.7352 13.8204 17.627 13.8204H2.37302C2.26478 13.8204 2.15654 13.7793 2.0816 13.6971C2.00666 13.6232 1.9567 13.5164 1.9567 13.4096V7.24858C1.9567 7.14178 1.99833 7.03499 2.0816 6.96106C2.15654 6.88713 2.26478 6.83784 2.37302 6.83784H3.48043V9.98409C3.48043 11.2738 4.53789 12.3171 5.84513 12.3171H14.1715C15.4788 12.3171 16.5362 11.2738 16.5362 9.98409V6.83784H17.6436C17.7519 6.83784 17.8601 6.87891 17.9351 6.96106C18.01 7.04321 18.0599 7.14178 18.0599 7.24858V13.4096H18.0433Z" fill="#3A4757"/>
</svg>