<svg width="14" height="14" viewBox="0 0 14 14" fill="none" xmlns="http://www.w3.org/2000/svg">
<path fill-rule="evenodd" clip-rule="evenodd" d="M9.50389 0C10.2529 0.0021 10.8626 0.6335 10.8647 1.4077L10.8626 4.0663L13.6234 4.0684C13.7235 4.0684 13.8187 4.1083 13.8901 4.1825C13.9615 4.256 14.0007 4.3554 14 4.4583V13.6101C14 13.8229 13.8313 13.9979 13.6234 13.9993L2.3415 14C1.6982 13.9993 1.1109 13.7277 0.686699 13.2881C0.2632 12.8506 0.0021 12.2444 0 11.5766V2.4255C0 1.0892 1.0507 0.0021 2.3436 0H9.50389ZM11.6788 4.8482H10.8647L10.8633 10.5574C10.8633 10.9326 10.7212 11.2896 10.4643 11.5549C10.2088 11.8202 9.86579 11.9651 9.50249 11.9651H2.3422C2.2421 11.9651 2.1462 11.9245 2.0755 11.851C2.0041 11.7768 1.9656 11.6781 1.9656 11.5745V9.9778C1.6856 10.0499 1.4294 10.1976 1.2201 10.4139C0.919798 10.7247 0.755994 11.1363 0.755994 11.5745C0.753899 12.4817 1.4672 13.2202 2.3436 13.2181H11.6767V12.8275C11.6788 12.6126 11.8482 12.4383 12.054 12.4383C12.264 12.4383 12.4327 12.6126 12.4327 12.8296V13.2195L13.2468 13.2202V4.8489H12.4327V5.2388C12.4327 5.4558 12.2619 5.6287 12.0554 5.6287C11.8461 5.6287 11.6774 5.4537 11.6788 5.2388V4.8482ZM12.0552 9.4885C12.2617 9.4885 12.4304 9.6635 12.4318 9.8791V11.1363C12.4304 11.3526 12.2617 11.5269 12.0552 11.5269C11.8452 11.5269 11.6765 11.3526 11.6786 11.137L11.6765 9.8805C11.6765 9.6635 11.8452 9.4885 12.0552 9.4885ZM9.50389 9.9323H2.7202L2.7188 11.1853H9.50249C9.66629 11.1853 9.81749 11.1209 9.93159 11.0026C10.0471 10.8836 10.1094 10.7261 10.1094 10.5574C10.1073 10.2137 9.83919 9.9323 9.50389 9.9323ZM9.50249 0.7602C9.34079 0.775989 9.09355 0.779498 8.72784 0.780277L2.3436 0.7805C1.4672 0.7826 0.755299 1.5183 0.753899 2.4255L0.755299 9.7979C1.1893 9.3828 1.7472 9.1504 2.3429 9.1518L2.78972 9.15134C2.82945 9.15133 2.87148 9.15131 2.91567 9.1513L6.34329 9.15133C6.41979 9.15133 6.49604 9.15134 6.57189 9.15135L9.50389 9.1518C9.72159 9.1518 9.92529 9.2057 10.1087 9.2988V1.4063C10.1073 1.0619 9.83639 0.7826 9.50249 0.7826V0.7602ZM12.0539 6.53947C12.2639 6.53947 12.4326 6.71377 12.4326 6.93147L12.4312 8.18797C12.4326 8.40287 12.2639 8.57787 12.0539 8.57787C11.8481 8.57787 11.6787 8.40287 11.6766 8.18797V6.93007C11.6787 6.71447 11.8474 6.53947 12.0539 6.53947Z" fill="#3A4757"/>
</svg>