<svg width="20" height="18" viewBox="0 0 20 18" fill="none" xmlns="http://www.w3.org/2000/svg">
<path d="M19.9973 1.22753C20.0185 0.917782 19.9127 0.608031 19.7117 0.378585C19.5106 0.137667 19.225 0 18.9287 0C18.3256 0 17.8389 0.527725 17.8389 1.18164V1.80115H2.19018V1.18164C2.19018 0.527725 1.70348 0 1.10038 0C0.497288 0 0 0.527725 0 1.18164V13.2734C0 14.6616 1.0369 15.7859 2.30657 15.7973V16.8184C2.30657 17.4723 2.79328 18 3.39637 18C3.99947 18 4.48618 17.4723 4.48618 16.8184V15.7973H15.49V16.8184C15.49 17.4723 15.9767 18 16.5798 18C17.1829 18 17.6696 17.4723 17.6696 16.8184V15.7973C18.9499 15.7973 19.9762 14.6616 19.9762 13.2734V1.22753H19.9973ZM5.75585 9.64818V4.17591H7.13133V9.63671H5.75585V9.64818ZM9.32151 9.64818V4.17591H10.697V9.63671H9.32151V9.64818ZM12.8872 9.64818V4.17591H14.2627V9.63671H12.8872V9.64818ZM17.8283 12.0115V13.3078C17.8283 13.3996 17.7648 13.457 17.6908 13.457H2.32773C2.24309 13.457 2.19018 13.3881 2.19018 13.3078V12.0115H17.8389H17.8283ZM2.19018 9.64818V4.17591H3.56566V9.63671H2.19018V9.64818ZM17.8283 4.17591V9.63671H16.4528V4.17591H17.8283Z" fill="#3A4757"/>
</svg>