<svg width="20" height="15" viewBox="0 0 20 15" fill="none" xmlns="http://www.w3.org/2000/svg">
<path d="M17.7593 0H2.15768C0.912863 0 0 0.911602 0 2.1547V4.97238H20V2.1547C19.917 0.911602 19.0041 0 17.7593 0Z" fill="#3A4757"/>
<path d="M0 6.46409V12.8453C0 14.0055 0.995851 15 2.15768 15H17.8423C19.0042 15 20 14.0055 20 12.8453V6.46409H0ZM11.7012 10.1934H15.8506C16.2656 10.1934 16.5975 10.5249 16.5975 10.9392C16.5975 11.3536 16.2656 11.6851 15.8506 11.6851H11.7012C11.2863 11.6851 10.9544 11.3536 10.9544 10.9392C10.9544 10.5249 11.2863 10.1934 11.7012 10.1934Z" fill="#3A4757"/>
</svg>