<svg width="20" height="15" viewBox="0 0 20 15" fill="none" xmlns="http://www.w3.org/2000/svg">
<path d="M15.7618 9.90096H11.7099C11.175 9.90096 10.7374 10.3346 10.7374 10.8646C10.7374 11.3945 11.175 11.8282 11.7099 11.8282H15.7618C16.2966 11.8282 16.7342 11.3945 16.7342 10.8646C16.7342 10.3346 16.2966 9.90096 15.7618 9.90096Z" fill="#3A4757"/>
<path d="M17.6418 0H2.35818C1.05348 0 0 1.0439 0 2.33672V12.6633C0 13.9561 1.05348 15 2.35818 15H17.6418C18.9465 15 20 13.9561 20 12.6633V2.33672C20 1.0439 18.9465 0 17.6418 0ZM2.35818 13.0808C2.13128 13.0808 1.94489 12.8961 1.94489 12.6713V6.75321H18.0632V12.6713C18.0632 12.8961 17.8768 13.0808 17.6499 13.0808H2.35818ZM2.35818 1.92719H17.6418C17.8687 1.92719 18.0551 2.11188 18.0551 2.33672V4.81799H1.94489V2.33672C1.94489 2.11188 2.13128 1.92719 2.35818 1.92719Z" fill="#3A4757"/>
</svg>