<svg width="16" height="16" viewBox="0 0 16 16" fill="none" xmlns="http://www.w3.org/2000/svg">
<path d="M15.2797 8C15.2797 3.97937 12.0206 0.720313 8 0.720313C3.97937 0.720313 0.720313 3.97937 0.720313 8C0.720313 12.0206 3.97937 15.2797 8 15.2797V16C3.58172 16 0 12.4183 0 8C0 3.58172 3.58172 0 8 0C12.4183 0 16 3.58172 16 8C16 12.4183 12.4183 16 8 16V15.2797C12.0206 15.2797 15.2797 12.0206 15.2797 8Z" fill="#3A4757"/>
<path d="M2.92031 9.27969C2.92031 9.06099 2.91946 8.87841 2.93281 8.72969C2.94656 8.57675 2.97659 8.43382 3.05156 8.3L3.09766 8.225C3.21208 8.05539 3.37373 7.92026 3.5625 7.83281L3.66797 7.79219C3.72376 7.77409 3.78121 7.76132 3.84063 7.75156L3.95078 7.1539L4.02266 6.77187C4.04559 6.65729 4.0683 6.55469 4.09297 6.46328C4.14348 6.27621 4.20714 6.11541 4.31328 5.97031L4.37969 5.88515C4.54257 5.69335 4.75365 5.54339 4.99219 5.44609L5.12031 5.40156C5.25035 5.36381 5.3887 5.3442 5.54297 5.33359C5.74586 5.31966 5.99557 5.32031 6.30938 5.32031H8.0625C8.31176 5.32265 8.49731 5.33384 8.67188 5.38203L8.81797 5.42969C8.96181 5.48392 9.09741 5.55719 9.21953 5.64844L9.28906 5.70547C9.44821 5.8438 9.58082 6.02748 9.77266 6.28906L10.8953 7.82031C11.5925 8.03836 12.1306 8.59443 12.2539 9.30156L12.2695 9.42344C12.2805 9.55204 12.2797 9.70627 12.2797 9.92031C12.2797 9.95142 12.28 9.98362 12.2789 10.0156L12.2703 10.1109C12.2237 10.3777 12.0223 10.575 11.7766 10.6484L11.6688 10.6719C11.6392 10.6761 11.6079 10.6788 11.575 10.6797H11.3594C11.2246 11.1537 10.7579 11.4797 10.2398 11.4797C9.72179 11.4796 9.255 11.1537 9.12031 10.6797H6.07969C5.945 11.1537 5.4782 11.4796 4.96016 11.4797C4.44148 11.4797 3.97395 11.153 3.83984 10.6781C3.74727 10.678 3.66479 10.6786 3.59453 10.6734C3.52798 10.6685 3.45901 10.6597 3.39062 10.6375L3.32266 10.6102C3.22298 10.564 3.13437 10.4961 3.06562 10.4102L3.00391 10.3187C2.95286 10.2277 2.9351 10.1339 2.92734 10.0477C2.91998 9.96558 2.92031 9.86699 2.92031 9.76015V9.27969ZM4.96016 9.87969C4.60307 9.87969 4.36016 10.1373 4.36016 10.4C4.36016 10.6627 4.60307 10.9203 4.96016 10.9203C5.31716 10.9202 5.56016 10.6626 5.56016 10.4C5.56016 10.1374 5.31716 9.87976 4.96016 9.87969ZM10.2398 9.87969C9.88284 9.87976 9.63984 10.1374 9.63984 10.4C9.63984 10.6626 9.88284 10.9202 10.2398 10.9203C10.5969 10.9203 10.8398 10.6627 10.8398 10.4C10.8398 10.1373 10.5969 9.87969 10.2398 9.87969ZM7 7.72031H9.88828C9.97772 7.72031 10.0569 7.72065 10.1281 7.72109L9.32109 6.62031C9.14199 6.37609 9.04793 6.25028 8.96563 6.16797L8.88438 6.09687C8.80534 6.03782 8.71611 5.99002 8.62031 5.9539L8.52266 5.92187C8.38034 5.88259 8.219 5.87969 7.78984 5.87969H7V7.72031ZM6.30938 5.87969C5.98787 5.87969 5.76052 5.87987 5.58125 5.89219C5.44896 5.90128 5.35326 5.91651 5.27578 5.93906L5.20391 5.96406C5.06755 6.01967 4.94799 6.10004 4.85234 6.19765L4.76484 6.30078C4.71461 6.36947 4.67441 6.45816 4.63359 6.60937C4.61259 6.68719 4.59224 6.77618 4.57109 6.88203L4.50156 7.25469L4.41563 7.72031H6.43984V5.87969H6.30938ZM3.47969 9.76015C3.47969 9.87716 3.48055 9.94641 3.48516 9.99765C3.48777 10.0267 3.49073 10.04 3.49219 10.0445L3.51719 10.0758C3.52805 10.0857 3.54157 10.0948 3.55781 10.1023L3.63594 10.1156C3.68577 10.1193 3.74892 10.1186 3.84063 10.1187C3.9759 9.64555 4.44261 9.32031 4.96016 9.32031C5.4782 9.32038 5.945 9.64634 6.07969 10.1203H9.12031C9.255 9.64634 9.72179 9.32038 10.2398 9.32031C10.7579 9.32031 11.2246 9.64633 11.3594 10.1203H11.4719C11.5634 10.1203 11.5797 10.1193 11.5891 10.118L11.6438 10.1016C11.6901 10.0796 11.7138 10.0427 11.7188 10.0148L11.7195 9.99922C11.7201 9.98199 11.7203 9.95895 11.7203 9.92031C11.7203 9.68859 11.7197 9.56353 11.7125 9.47578L11.7023 9.39765C11.6124 8.88155 11.1828 8.44798 10.5953 8.31875L10.4758 8.29687C10.3639 8.28077 10.2248 8.27969 9.88828 8.27969H4.60781C4.35731 8.27969 4.1847 8.2799 4.05078 8.28984C3.98484 8.29474 3.93423 8.30225 3.89375 8.31094L3.79844 8.3414C3.71178 8.38153 3.63984 8.43819 3.58672 8.50469L3.53984 8.57344C3.51895 8.6107 3.50085 8.66586 3.49063 8.77969C3.48004 8.89759 3.47969 9.05082 3.47969 9.27969V9.76015Z" fill="#3A4757"/>
<path d="M12.3935 5.42884C12.3306 5.49334 12.2605 5.54108 12.1832 5.57209C12.1059 5.6031 12.0261 5.6186 11.9439 5.6186C11.8618 5.6186 11.782 5.6031 11.7047 5.57209C11.6273 5.54108 11.5572 5.49334 11.4944 5.42884L11.2225 5.14977C11.1814 5.10759 11.1361 5.07659 11.0865 5.05674C11.037 5.0369 10.9856 5.02698 10.9324 5.02698C10.8793 5.02698 10.8279 5.0369 10.7784 5.05674C10.7288 5.07659 10.6835 5.10759 10.6424 5.14977L10.3959 5.40279L10.24 5.24651L10.4865 4.98977C10.5494 4.92527 10.6195 4.87752 10.6968 4.84651C10.7741 4.8155 10.8527 4.8 10.9324 4.8C11.0122 4.8 11.0902 4.8155 11.1663 4.84651C11.2424 4.87752 11.3119 4.92527 11.3747 4.98977L11.6466 5.26884C11.6877 5.31101 11.7337 5.34264 11.7844 5.36372C11.8352 5.3848 11.8883 5.39535 11.9439 5.39535C11.9995 5.39535 12.0521 5.3848 12.1016 5.36372C12.1512 5.34264 12.1965 5.31101 12.2376 5.26884L12.4841 5.01581L12.64 5.17581L12.3935 5.42884ZM12.3898 6.21023C12.327 6.27473 12.2575 6.32248 12.1814 6.35349C12.1053 6.3845 12.0261 6.4 11.9439 6.4C11.8618 6.4 11.782 6.3845 11.7047 6.35349C11.6273 6.32248 11.5572 6.27473 11.4944 6.21023L11.2189 5.93116C11.1778 5.88899 11.1325 5.85799 11.0829 5.83814C11.0334 5.81829 10.982 5.80837 10.9288 5.80837C10.8757 5.80837 10.8243 5.81829 10.7747 5.83814C10.7252 5.85799 10.6799 5.88899 10.6388 5.93116L10.3923 6.18419L10.24 6.02791L10.4865 5.77116C10.5494 5.70666 10.6189 5.65892 10.695 5.62791C10.7711 5.5969 10.8491 5.5814 10.9288 5.5814C11.0086 5.5814 11.0871 5.5969 11.1645 5.62791C11.2418 5.65892 11.3119 5.70666 11.3747 5.77116L11.6466 6.05023C11.6877 6.09241 11.7337 6.12403 11.7844 6.14512C11.8352 6.1662 11.8883 6.17674 11.9439 6.17674C11.9995 6.17674 12.0521 6.1662 12.1016 6.14512C12.1512 6.12403 12.1965 6.09241 12.2376 6.05023L12.4841 5.79721L12.6364 5.95721L12.3898 6.21023Z" fill="#3A4757"/>
<path d="M10.9291 5.50156C11.0193 5.50159 11.1077 5.51936 11.1939 5.55391L11.2587 5.58359C11.3218 5.61723 11.3796 5.66168 11.4322 5.71563L11.7041 5.99453L11.7572 6.03984C11.7757 6.05257 11.795 6.06278 11.815 6.07109C11.8559 6.08809 11.8987 6.09687 11.9439 6.09688L11.9439 6.17674L11.8627 6.16875L11.7844 6.14512C11.759 6.13456 11.7349 6.1213 11.7119 6.10547L11.6466 6.05023L11.3747 5.77116C11.3277 5.72297 11.2764 5.68416 11.2213 5.65469L11.1645 5.62791C11.1259 5.61246 11.087 5.60071 11.0478 5.59297L10.9288 5.5814C10.8491 5.5814 10.7711 5.5969 10.695 5.62791L10.6392 5.65469C10.5847 5.68417 10.5336 5.72291 10.4865 5.77116L10.24 6.02791L10.3923 6.18419L10.6388 5.93116C10.6592 5.91018 10.6807 5.89201 10.7033 5.87656L10.7747 5.83814C10.8243 5.81829 10.8757 5.80837 10.9288 5.80837L11.0072 5.81563C11.0329 5.82059 11.0581 5.82821 11.0829 5.83814C11.1325 5.85799 11.1778 5.88899 11.2189 5.93116L11.4944 6.21023C11.5572 6.27473 11.6273 6.32248 11.7047 6.35349C11.7434 6.36902 11.7828 6.38053 11.8228 6.38828L11.9439 6.4C11.985 6.4 12.0254 6.39604 12.065 6.38828L12.1814 6.35349C12.2385 6.33023 12.292 6.29755 12.3416 6.25547L12.3898 6.21023L12.6364 5.95721L12.4841 5.79721L12.2376 6.05023L12.1728 6.10547C12.1501 6.1213 12.1264 6.13456 12.1016 6.14512L12.0252 6.16875C11.9988 6.17404 11.9718 6.17674 11.9439 6.17674L11.9439 6.09688C11.9891 6.09688 12.0312 6.08861 12.0705 6.07188L12.1267 6.03984C12.1451 6.02703 12.1634 6.01222 12.1806 5.99453L12.4845 5.68203L12.5423 5.74219L12.6947 5.90234L12.7478 5.95781L12.6939 6.01328L12.447 6.26641C12.3774 6.33783 12.2989 6.39184 12.2119 6.42734C12.1262 6.46226 12.0364 6.47969 11.9439 6.47969C11.8746 6.47969 11.8068 6.4703 11.7408 6.45078L11.6752 6.42812C11.5867 6.39265 11.5069 6.33821 11.4369 6.26641L11.1619 5.9875C11.1448 5.96996 11.1269 5.95457 11.1088 5.94219L11.0533 5.9125C11.0132 5.89646 10.9719 5.88831 10.9291 5.88828C10.9076 5.88828 10.8864 5.89055 10.8658 5.89453L10.8048 5.9125C10.7857 5.92015 10.7667 5.9298 10.7486 5.94219L10.6962 5.98672L10.4494 6.23984L10.3923 6.29844L10.183 6.08359L10.1291 6.02813L10.1822 5.97266L10.4291 5.71563L10.483 5.66484C10.5386 5.61763 10.5995 5.58059 10.665 5.55391C10.7504 5.51915 10.8387 5.50156 10.9291 5.50156ZM10.9322 4.72031C11.0226 4.72031 11.1109 4.73789 11.1962 4.77266C11.2835 4.80818 11.3624 4.86201 11.4322 4.93359L11.7041 5.21328L11.7572 5.25859C11.7757 5.27131 11.795 5.28154 11.815 5.28984C11.8559 5.30684 11.8987 5.31562 11.9439 5.31563L11.9439 5.39535L11.8627 5.3875L11.7844 5.36372C11.759 5.35318 11.7348 5.34003 11.7119 5.32422L11.6466 5.26884L11.3747 4.98977C11.3276 4.94141 11.2767 4.90217 11.222 4.87266L11.1663 4.84651C11.1283 4.83104 11.0898 4.81947 11.0509 4.81172L10.9324 4.8C10.8527 4.8 10.7741 4.8155 10.6968 4.84651L10.64 4.87266C10.5848 4.90216 10.5336 4.94146 10.4865 4.98977L10.24 5.24651L10.3959 5.40279L10.6424 5.14977C10.663 5.12864 10.6845 5.11005 10.7072 5.09453L10.7784 5.05674C10.8279 5.0369 10.8793 5.02698 10.9324 5.02698L11.0111 5.03438C11.0367 5.03934 11.0618 5.04685 11.0865 5.05674C11.1361 5.07659 11.1814 5.10759 11.2225 5.14977L11.4944 5.42884C11.5572 5.49334 11.6273 5.54108 11.7047 5.57209C11.7434 5.58762 11.7829 5.59929 11.8228 5.60703L11.9439 5.6186C11.9849 5.6186 12.0252 5.61473 12.065 5.60703L12.1832 5.57209C12.2411 5.54887 12.2949 5.51621 12.3447 5.47422L12.3935 5.42884L12.64 5.17581L12.4841 5.01581L12.2376 5.26884L12.1728 5.32422C12.1502 5.34003 12.1264 5.35318 12.1016 5.36372L12.0252 5.3875C11.9988 5.39278 11.9718 5.39535 11.9439 5.39535L11.9439 5.31563C11.9891 5.31563 12.0312 5.30658 12.0705 5.28984L12.1267 5.25859C12.1451 5.24577 12.1634 5.23099 12.1806 5.21328L12.4838 4.90156L12.5416 4.96016L12.697 5.12031L12.7517 5.17578L12.697 5.23203L12.4509 5.48438C12.3984 5.53831 12.3405 5.58277 12.2775 5.61641L12.2127 5.64609C12.126 5.6808 12.0364 5.69844 11.9439 5.69844C11.8747 5.69844 11.8068 5.68904 11.7408 5.66953L11.6752 5.64609C11.6088 5.61949 11.5475 5.58238 11.4916 5.53516L11.4369 5.48438L11.165 5.20547C11.148 5.18807 11.1306 5.17325 11.1127 5.16094L11.0564 5.13125C11.0164 5.11524 10.9751 5.10703 10.9322 5.10703C10.9107 5.10705 10.8896 5.10925 10.8689 5.11328L10.808 5.13125C10.789 5.13887 10.7705 5.14864 10.7525 5.16094L10.6994 5.20547L10.4533 5.45859L10.3963 5.51641L10.3392 5.45937L10.1838 5.30312L10.1283 5.24766L10.1822 5.19141L10.4291 4.93438L10.4838 4.88359C10.5397 4.83636 10.601 4.79848 10.6673 4.77187L10.7322 4.74922C10.7977 4.72968 10.8645 4.72034 10.9322 4.72031Z" fill="#3A4757"/>
</svg>