<svg width="18" height="18" viewBox="0 0 18 18" fill="none" xmlns="http://www.w3.org/2000/svg">
<path fill-rule="evenodd" clip-rule="evenodd" d="M17 15C17.5523 15 18 14.5523 18 14C18 13.4477 17.5523 13 17 13H15V5C15 3.89543 14.1046 3 13 3H5V1C5 0.447716 4.55229 0 4 0C3.44772 0 3 0.447715 3 1L3 3H1C0.447715 3 0 3.44772 0 4C0 4.55229 0.447715 5 1 5H3L3 13C3 14.1046 3.89543 15 5 15L13 15V17C13 17.5523 13.4477 18 14 18C14.5523 18 15 17.5523 15 17V15H17ZM13 13V5H5L5 13L13 13Z" fill="#3A4757"/>
</svg>