<svg width="16" height="16" viewBox="0 0 16 16" fill="none" xmlns="http://www.w3.org/2000/svg">
<path fill-rule="evenodd" clip-rule="evenodd" d="M0.932175 13.6535C0.541651 14.044 0.541651 14.6772 0.932175 15.0677C1.3227 15.4583 1.95586 15.4583 2.34639 15.0677L8 9.41413L13.6586 15.0727C14.0491 15.4632 14.6823 15.4632 15.0728 15.0727C15.4633 14.6822 15.4633 14.049 15.0728 13.6585L9.41421 7.99991L15.0762 2.33797C15.4667 1.94744 15.4667 1.31428 15.0762 0.923753C14.6856 0.533228 14.0525 0.533228 13.6619 0.923753L8 6.5857L2.34694 0.932636C1.95641 0.542112 1.32325 0.542112 0.932724 0.932636C0.5422 1.32316 0.542201 1.95633 0.932725 2.34685L6.58579 7.99991L0.932175 13.6535Z" fill="#3A4757"/>
</svg>