<svg width="15" height="15" viewBox="0 0 15 15" fill="none" xmlns="http://www.w3.org/2000/svg">
<path fill-rule="evenodd" clip-rule="evenodd" d="M0.292893 13.0227C-0.0976311 13.4132 -0.097631 14.0464 0.292893 14.4369C0.683417 14.8274 1.31658 14.8274 1.70711 14.4369L7.36072 8.78327L13.0193 14.4419C13.4098 14.8324 14.043 14.8324 14.4335 14.4419C14.824 14.0513 14.824 13.4182 14.4335 13.0276L8.77493 7.36905L14.4369 1.70711C14.8274 1.31658 14.8274 0.683418 14.4369 0.292893C14.0464 -0.097631 13.4132 -0.0976311 13.0227 0.292893L7.36072 5.95484L1.70766 0.301777C1.31713 -0.0887477 0.683966 -0.0887476 0.293442 0.301777C-0.0970827 0.692301 -0.0970817 1.32547 0.293443 1.71599L5.9465 7.36905L0.292893 13.0227Z" fill="#3A4757"/>
</svg>