<svg width="15" height="12" viewBox="0 0 15 12" fill="none" xmlns="http://www.w3.org/2000/svg">
<path fill-rule="evenodd" clip-rule="evenodd" d="M14.6154 0C14.8042 0 14.9612 0.132657 14.9938 0.307594L15 0.375V11.625C15 11.8321 14.8278 12 14.6154 12C14.4266 12 14.2695 11.8673 14.237 11.6924L14.2308 11.625V7.38975L12.8766 7.38984C12.686 7.38984 12.5217 7.26433 12.4836 7.0895C12.4435 6.9093 11.5451 2.7046 14.2322 0.1142C14.3238 0.0259867 14.4503 -0.0112745 14.5714 0.00294828L14.6154 0ZM4.22425 0.75C4.44027 0.75 4.61538 0.909898 4.61538 1.10714V4.67857C4.5782 5.70052 3.761 6.5378 2.69287 6.71547L2.69231 11.2493L3.84615 11.25C4.05857 11.25 4.23077 11.4179 4.23077 11.625C4.23077 11.8091 4.09471 11.9622 3.91529 11.994L3.84615 12H0.769231C0.556814 12 0.384615 11.8321 0.384615 11.625C0.384615 11.4409 0.520673 11.2878 0.700096 11.256L0.769231 11.25L1.92308 11.2493L1.92326 6.71543C0.827428 6.53304 -0.000159692 5.6571 2.31135e-08 4.60714V1.10714C2.31135e-08 0.909898 0.175117 0.75 0.391134 0.75C0.607152 0.75 0.782269 0.909898 0.782269 1.10714L0.78167 3.22439C1.20554 3.36027 1.66492 3.36049 2.09267 3.22075C2.64821 2.9999 3.25295 2.94465 3.83344 3.0555L3.83312 1.10714C3.83312 0.909898 4.00823 0.75 4.22425 0.75ZM10.3884 0.375C10.5987 0.375 10.7692 0.548957 10.7692 0.763545V2.60525C10.7674 3.21731 10.524 3.80282 10.0942 4.22973C9.75171 4.56984 9.31381 4.78645 8.84666 4.85308L8.84615 11.6591C8.84615 11.8474 8.67396 12 8.46154 12C8.27272 12 8.11569 11.8794 8.08312 11.7204L8.07692 11.6591L8.07729 4.85384C6.99038 4.70403 6.15385 3.75375 6.15385 2.60525V0.763545C6.15385 0.548957 6.32434 0.375 6.53465 0.375C6.74497 0.375 6.91546 0.548957 6.91546 0.763545V2.60525C6.91546 2.9984 7.06449 3.35603 7.30806 3.62254L7.30769 1.0625C7.30769 0.889911 7.47989 0.75 7.69231 0.75C7.88112 0.75 8.03816 0.860547 8.07073 1.00633L8.07692 1.0625L8.07674 4.06561C8.17389 4.08636 8.27458 4.09726 8.37776 4.09726H8.48439C8.60707 4.10248 8.72877 4.09189 8.84684 4.0665L8.84615 1.0625C8.84615 0.889911 9.01835 0.75 9.23077 0.75C9.41958 0.75 9.57662 0.860547 9.60919 1.00633L9.61539 1.0625V3.62025L9.64917 3.58511C9.87964 3.31448 10.0079 2.96677 10.0076 2.60525V0.763545C10.0076 0.548957 10.1781 0.375 10.3884 0.375ZM14.2308 1.30958C12.8607 3.22139 13.084 5.77701 13.2055 6.64651L14.2308 6.6465L14.2308 1.30958ZM2.50219 3.93541C2.20015 4.07638 1.86712 4.14048 1.53351 4.12184C1.27945 4.1157 1.02748 4.08215 0.782003 4.02219L0.782269 4.67857C0.782269 5.44783 1.46522 6.07143 2.30769 6.07143C3.15016 6.07143 3.83312 5.44783 3.83312 4.67857L3.83375 3.86008C3.39448 3.75102 2.92971 3.77612 2.50219 3.93541Z" fill="#3A4757"/>
</svg>