<svg width="17" height="14" viewBox="0 0 17 14" fill="none" xmlns="http://www.w3.org/2000/svg">
<path fill-rule="evenodd" clip-rule="evenodd" d="M11.7498 0.0638122L16.8343 3.48424C16.9193 3.54152 16.9769 3.62909 16.9944 3.72748C17.0119 3.82586 16.9879 3.92691 16.9276 4.00815L15.5521 5.92942C15.6079 5.98171 15.6462 6.04967 15.6609 6.12445C15.6799 6.2217 15.6573 6.32223 15.5982 6.4032C15.5264 6.5013 15.4117 6.56205 15.2872 6.56786C15.2294 6.5676 15.1726 6.55541 15.1205 6.53241L14.9129 6.82021C15.0141 6.91967 15.0518 7.06402 15.0075 7.19793C14.9558 7.35415 14.8045 7.45978 14.6341 7.45853C14.5807 7.4582 14.5282 7.44707 14.48 7.42616L13.9422 8.17703C13.9021 8.23723 13.8442 8.28363 13.777 8.311L11.9441 13.738C11.8978 13.8823 11.766 13.9856 11.6098 14H5.42904C5.25841 14.001 5.10705 13.8947 5.05586 13.738L3.21851 8.29591C3.17026 8.26824 3.12848 8.23037 3.09667 8.18451L2.53995 7.41558L2.53364 7.41992C2.48174 7.44486 2.42437 7.45817 2.36586 7.45853C2.19554 7.45978 2.04421 7.35415 1.9925 7.19793C1.94609 7.05774 1.9896 6.9061 2.09995 6.80864L1.89473 6.52474L1.88628 6.52934C1.83236 6.55433 1.77312 6.56759 1.71279 6.56786C1.58554 6.56435 1.46743 6.50334 1.39404 6.4032C1.33567 6.3213 1.3143 6.22012 1.33481 6.12279C1.35148 6.04368 1.39466 5.97262 1.4569 5.92004L0.072357 4.00815C0.0121077 3.92691 -0.0119291 3.82586 0.00559076 3.72748C0.0231106 3.62909 0.0807351 3.54152 0.165652 3.48424L5.25023 0.0638122C5.33573 0.0117146 5.43766 -0.00950171 5.53789 0.00393594C5.64109 0.0229193 5.73287 0.0791437 5.79445 0.161111L7.17864 2.06905L7.19236 2.06154C7.26571 2.02646 7.34924 2.01435 7.431 2.02784C7.5332 2.04471 7.62416 2.10018 7.68367 2.18193C7.79421 2.34122 7.76406 2.55214 7.61972 2.67732L7.82232 2.95695L7.83651 2.94939C7.93965 2.90277 8.06016 2.90143 8.16575 2.94824C8.29245 3.00441 8.37839 3.12138 8.39121 3.2551C8.40252 3.37309 8.35538 3.48829 8.2659 3.56703L8.5 3.89053L8.73491 3.56632L8.71844 3.55255C8.58884 3.42531 8.56813 3.22323 8.67881 3.07259C8.793 2.91718 9.00737 2.87046 9.17792 2.95622L9.384 2.67179L9.3715 2.66211C9.24155 2.53558 9.21792 2.33494 9.3241 2.18193C9.38361 2.10018 9.47457 2.04471 9.57677 2.02784C9.66184 2.0138 9.74882 2.02748 9.82426 2.06591L11.2056 0.161111C11.2671 0.0791437 11.3589 0.0229193 11.4621 0.00393594C11.5623 -0.00950171 11.6643 0.0117146 11.7498 0.0638122ZM8.49923 5.00537L7.88414 5.41874L3.98297 8.14709L5.7478 13.2515H11.3299L13.0559 8.14709L9.32296 5.55947L8.49923 5.00537ZM8.5 7.00196C9.78813 7.00196 10.8324 8.00724 10.8324 9.24732C10.8324 10.4874 9.78813 11.4927 8.5 11.4927C7.21187 11.4927 6.16763 10.4874 6.16763 9.24732C6.16763 8.00724 7.21187 7.00196 8.5 7.00196ZM8.5 7.75041C7.64124 7.75041 6.94508 8.4206 6.94508 9.24732C6.94508 10.074 7.64124 10.7442 8.5 10.7442C9.35876 10.7442 10.0549 10.074 10.0549 9.24732C10.0549 8.4206 9.35876 7.75041 8.5 7.75041ZM9.37009 3.99811L9.04477 4.44832L9.095 4.48295L13.4913 7.44355L13.8202 6.98968L9.37009 3.99811ZM7.62914 3.99811L3.179 6.98968L3.50872 7.44355L7.9135 4.47705L7.95445 4.44832L7.62914 3.99811ZM10.0153 3.10358L9.81518 3.38137L14.2653 6.37663L14.4662 6.09958L10.0153 3.10358ZM6.98623 3.10653L2.533 6.10032L2.73391 6.37663L7.18482 3.38137L6.98623 3.10653ZM5.39017 0.894594L0.927561 3.8884L2.09023 5.49021L6.54345 2.49274L5.39017 0.894594ZM11.6098 0.894594L10.4581 2.48979L14.909 5.49021L16.0724 3.8884L11.6098 0.894594Z" fill="#3A4757"/>
</svg>