<svg width="20" height="20" viewBox="0 0 20 20" fill="none" xmlns="http://www.w3.org/2000/svg">
<path fill-rule="evenodd" clip-rule="evenodd" d="M18.1417 0H8.41667C7.39167 0 6.55833 0.843526 6.55833 1.88106V11.725C6.55833 11.8684 6.575 12.0118 6.60833 12.1383C5.80833 11.4466 4.8 11.0418 3.74167 11.0418H0.975C0.433333 11.0418 0 11.4804 0 12.0287C0 12.577 0.433333 13.0156 0.975 13.0156H3.73333C4.39167 13.0156 5.01667 13.2771 5.48333 13.7495C5.70833 13.9772 5.88333 14.2387 6 14.534H3.04167C2.5 14.534 2.06667 14.9726 2.06667 15.5209C2.06667 16.0692 2.5 16.5078 3.04167 16.5078H9.94167C10.4167 16.5078 10.8667 16.7018 11.2 17.0392C11.4667 17.3092 11.6417 17.655 11.7 18.0262H0.975C0.433333 18.0262 0 18.4648 0 19.0131C0 19.5614 0.433333 20 0.975 20H12.0083C12.45 20 12.875 19.8229 13.1833 19.5023C13.4917 19.1818 13.675 18.76 13.675 18.3129C13.675 17.3092 13.2833 16.3475 12.5833 15.639C11.8833 14.9304 10.9333 14.534 9.94167 14.534H8.04167C7.95 14.1375 7.80833 13.7663 7.61667 13.4121C7.85833 13.5302 8.125 13.5976 8.41667 13.5976H18.1417C19.1667 13.5976 20 12.7541 20 11.7166V1.88106C20 0.843526 19.1667 0 18.1417 0ZM12.4833 1.97385H14.0667V4.92619H12.4833V1.97385ZM18.05 11.6407H8.5V1.97385H10.525V5.46605C10.525 5.84563 10.675 6.20835 10.9417 6.47828C11.2083 6.74821 11.5667 6.90004 11.9417 6.90004H14.5917C14.9667 6.90004 15.325 6.74821 15.5917 6.47828C15.8583 6.20835 16.0083 5.84563 16.0083 5.46605V1.97385H18.0417V11.6407H18.05Z" fill="#3A4757"/>
<path fill-rule="evenodd" clip-rule="evenodd" d="M14.6 9.39688C14.0583 9.39688 13.625 9.83551 13.625 10.3838C13.625 10.9321 14.0583 11.3707 14.6 11.3707H16.8083C17.35 11.3707 17.7833 10.9321 17.7833 10.3838C17.7833 9.83551 17.35 9.39688 16.8083 9.39688H14.6Z" fill="#3A4757"/>
</svg>