<svg width="20" height="16" viewBox="0 0 20 16" fill="none" xmlns="http://www.w3.org/2000/svg">
<path d="M18.96 3.8324C18.32 3.12849 17.36 2.81564 16.48 2.81564H14.08C13.6 2.81564 13.28 3.12849 13.28 3.59777V10.5251H14.24C15.52 10.6034 16.64 11.4637 17.04 12.6369C17.12 12.9497 17.2 13.2626 17.2 13.5754C17.2 13.6536 17.2 13.6536 17.2 13.7318C17.2 14.0447 17.12 14.2793 17.12 14.514H19.04C19.6 14.514 20 14.1229 20 13.5754V6.3352C20 5.39665 19.6 4.53631 18.96 3.8324Z" fill="#3A4757"/>
<path d="M10.96 12.4022C11.2 11.933 11.52 11.5419 11.92 11.229C12.24 10.9944 12.56 10.838 12.88 10.6816V2.34637C12.88 1.72067 12.64 1.17318 12.16 0.70391C11.76 0.312849 11.12 0 10.48 0H2.32C1.68 0.0782123 1.12 0.312849 0.64 0.70391C0.24 1.17318 0 1.72067 0 2.34637V13.7318C0 14.2793 0.4 14.6704 0.96 14.6704H1.92C1.84 14.3575 1.76 14.0447 1.76 13.7318C1.76 13.419 1.84 13.1061 1.92 12.7933C2.32 11.4637 3.52 10.4469 5.04 10.4469C6.64 10.4469 7.92 11.5419 8.24 12.9497C8.32 13.1844 8.32 13.419 8.32 13.6536C8.32 13.8883 8.32 14.1229 8.24 14.3575H10.72C10.64 14.1229 10.64 13.8883 10.64 13.6536C10.64 13.419 10.64 13.1844 10.72 12.9497C10.8 12.7933 10.88 12.6369 10.96 12.4022Z" fill="#3A4757"/>
<path d="M15.84 12.6369C15.52 12.0894 14.96 11.6983 14.24 11.6201C14.16 11.6201 14.08 11.6201 13.92 11.6201C13.52 11.6201 13.12 11.6983 12.8 11.933C12.32 12.1676 12 12.5587 11.84 13.1061C11.84 13.1844 11.76 13.3408 11.76 13.419C11.76 13.5754 11.76 13.6536 11.76 13.8101C11.76 13.9665 11.76 14.0447 11.76 14.2011C11.76 14.3575 11.84 14.5922 11.92 14.7486C12.24 15.4525 13.04 16 13.92 16C14.8 16 15.6 15.4525 15.92 14.6704C16 14.4358 16.08 14.1229 16.08 13.8883C16.08 13.8101 16.08 13.8101 16.08 13.7318C16.08 13.2626 16 12.9497 15.84 12.6369Z" fill="#3A4757"/>
<path d="M5.04 11.5419C4.08 11.5419 3.28 12.1676 2.96 13.0279C2.88 13.2626 2.88 13.4972 2.88 13.6536C2.88 13.8883 2.96 14.1229 2.96 14.2793C3.28 15.1397 4.08 15.7654 5.04 15.7654C6.08 15.7654 7.04 14.9832 7.2 13.9665C7.2 13.8101 7.2 13.7318 7.2 13.5754C7.2 13.419 7.2 13.3408 7.2 13.1844C7.04 12.324 6.08 11.5419 5.04 11.5419Z" fill="#3A4757"/>
</svg>