<svg width="20" height="20" viewBox="0 0 20 20" fill="none" xmlns="http://www.w3.org/2000/svg">
<path d="M18.0583 0H15.95V5.42301C15.95 5.83756 15.7917 6.15905 15.5417 6.41286C15.2917 6.66667 14.8917 6.82741 14.5667 6.82741H11.8917C11.4833 6.82741 11.1667 6.66667 10.9167 6.41286C10.6667 6.15905 10.5083 5.75296 10.5083 5.42301V0H8.4C7.35 0 6.54167 0.820643 6.54167 1.88663V11.7513C6.54167 11.912 6.54167 11.9966 6.625 12.1658C6.7 12.445 6.825 12.6988 6.975 12.9272C6.76667 12.6819 6.63333 12.3942 6.54167 12.0897C5.73333 11.4298 4.75833 11.0237 3.70833 11.0237H0.975C0.408333 11.0237 0 11.4382 0 12.0135C0 12.5888 0.408333 13.0034 0.975 13.0034H3.725C4.375 13.0034 5.01667 13.2487 5.50833 13.7394C5.75 13.9848 5.91667 14.2301 5.99167 14.5601H0.975C0.408333 14.5601 0 14.9746 0 15.5499C0 16.1252 0.408333 16.5398 0.975 16.5398H9.88333C10.3667 16.5398 10.775 16.7005 11.175 17.0305C11.4167 17.2758 11.5833 17.6058 11.6583 18.0203H0.975C0.408333 18.0203 0 18.4349 0 19.0102C0 19.5854 0.408333 20 0.975 20H11.9833C12.3917 20 12.875 19.8393 13.1167 19.5093C13.4417 19.1794 13.6 18.7733 13.6 18.3587C13.6 17.3689 13.1917 16.3875 12.55 15.7276C11.825 14.9915 10.9333 14.6616 9.95833 14.6616H8.1C8.025 14.264 7.86667 13.934 7.70833 13.5364C7.925 13.6041 8.14167 13.6717 8.425 13.6717H18.1417C19.1917 13.6717 20 12.8511 20 11.7851V1.88663C19.9167 0.820643 19.1083 0 18.0583 0ZM16.7667 11.3452H14.5833C14.0167 11.3452 13.6083 10.9306 13.6083 10.3553C13.6083 9.78003 14.0167 9.36548 14.5833 9.36548H16.7667C17.3333 9.36548 17.7417 9.78003 17.7417 10.3553C17.7417 10.9306 17.3333 11.3452 16.7667 11.3452Z" fill="#3A4757"/>
</svg>