<svg width="20" height="16" viewBox="0 0 20 16" fill="none" xmlns="http://www.w3.org/2000/svg">
<path fill-rule="evenodd" clip-rule="evenodd" d="M18.8843 3.91579C18.1848 3.20842 17.2273 2.80421 16.2365 2.80421H13.0475V2.38316C13.0475 1.75158 12.7977 1.14526 12.3564 0.698947C11.9151 0.252632 11.3156 0 10.6911 0H2.35637C1.73189 0 1.13239 0.252632 0.691091 0.698947C0.249792 1.14526 0 1.75158 0 2.38316V12.2105C0 12.7495 0.432972 13.1958 0.974188 13.1958H1.53206C1.96503 14.8126 3.4055 16 5.13739 16C6.86928 16 8.30974 14.8042 8.74271 13.1958H10.5579C10.9908 14.8126 12.4313 16 14.1632 16C15.8951 16 17.3356 14.8042 17.7685 13.1958H19.0258C19.5587 13.1958 20 12.7579 20 12.2105V6.59368C20 5.59158 19.6087 4.62316 18.9009 3.91579H18.8843ZM2.06495 2.08842C2.13988 2.01263 2.24813 1.96211 2.35637 1.96211H10.6828C10.791 1.96211 10.8993 2.00421 10.9742 2.08842C11.0491 2.16421 11.0991 2.27368 11.0991 2.38316V10.0211C10.8493 10.3832 10.6661 10.7874 10.5495 11.2253H8.73439C8.30142 9.60842 6.86095 8.42105 5.12906 8.42105C3.77186 8.42105 2.59784 9.15368 1.94005 10.2484V2.38316C1.94005 2.27368 1.98168 2.16421 2.06495 2.08842ZM5.13739 14.0379C4.13822 14.0379 3.33056 13.2211 3.33056 12.2105C3.33056 11.2 4.13822 10.3832 5.13739 10.3832C6.13655 10.3832 6.94421 11.2 6.94421 12.2105C6.94421 13.2211 6.13655 14.0379 5.13739 14.0379ZM14.1549 14.0379C13.1557 14.0379 12.348 13.2211 12.348 12.2105C12.348 11.2 13.1557 10.3832 14.1549 10.3832C15.154 10.3832 15.9617 11.2 15.9617 12.2105C15.9617 13.2211 15.154 14.0379 14.1549 14.0379ZM18.0433 11.2337H17.7602C17.3272 9.61684 15.8868 8.42947 14.1549 8.42947C13.7635 8.42947 13.3972 8.50526 13.0475 8.61474V4.77474H16.2365C16.7111 4.77474 17.1774 4.96842 17.5104 5.30526C17.8518 5.65053 18.035 6.11368 18.035 6.59368V11.2253L18.0433 11.2337Z" fill="#3A4757"/>
</svg>