<svg width="15" height="12" viewBox="0 0 15 12" fill="none" xmlns="http://www.w3.org/2000/svg">
<path fill-rule="evenodd" clip-rule="evenodd" d="M1.26702 4.28101H4.85052L6.73452 10.2038L1.26702 4.28101ZM2.75877 1.07776L4.40352 3.50251H1.12227L2.75877 1.07776ZM7.31427 0.779263L9.15177 3.50251H5.86752L6.99102 1.84276C7.11102 1.66501 7.06452 1.42201 6.88902 1.30126C6.71277 1.18051 6.47277 1.22701 6.35352 1.40551L5.13252 3.20476L3.49077 0.779263H7.31427ZM12.0558 0.673514L13.8948 3.39751H10.6135L11.701 1.79251C11.83 1.62151 11.7978 1.37701 11.6283 1.24726C11.4603 1.11601 11.2188 1.14901 11.089 1.32001C11.0823 1.32901 11.0755 1.33876 11.0688 1.34851L9.88377 3.09976L8.24727 0.673514H12.0558ZM10.171 4.17601H13.75L8.41152 9.95851L10.171 4.17601ZM5.65977 4.17601H9.36552L7.55277 10.1258L5.65977 4.17601ZM14.9808 3.79201C14.9823 3.65926 14.914 3.54751 14.815 3.47551L12.5725 0.165014C12.5005 0.060764 12.3805 -0.00073656 12.2538 6.65995e-06H2.76252C2.74902 6.65995e-06 2.73477 6.65995e-06 2.71977 6.65995e-06C2.60877 0.0120134 2.50752 0.072014 2.44377 0.165014L0.0677663 3.67276C-0.0349837 3.82351 -0.0192338 4.02601 0.103766 4.15951L7.22577 11.8748C7.37052 12.0323 7.61352 12.0428 7.76952 11.8965C7.77702 11.8898 7.78377 11.8823 7.79127 11.8748L14.9125 4.15951C15.007 4.05751 15.0168 3.92026 14.9808 3.79201Z" fill="#3A4757"/>
</svg>