<svg width="14" height="15" viewBox="0 0 14 15" fill="none" xmlns="http://www.w3.org/2000/svg">
<path fill-rule="evenodd" clip-rule="evenodd" d="M7.95981 3.18888C8.60962 3.18888 9.13768 3.72964 9.13768 4.39489V5.47566C9.26749 5.43515 9.41344 5.4149 9.5792 5.4149C10.0442 5.4149 10.4468 5.69166 10.639 6.09216C10.7989 6.00441 10.9866 5.95791 11.1993 5.95791C11.6753 5.95791 12.086 6.24816 12.2716 6.66517C12.4351 6.57742 12.6214 6.52717 12.8187 6.52717C13.4685 6.52717 13.9966 7.06717 13.9966 7.73168V10.6305C14.0003 10.6867 14.0773 12.4657 13.2478 13.4392C12.7864 13.9822 11.9188 15 10.331 15C9.96864 15 9.56893 14.9475 9.12741 14.8237C8.31405 14.5942 7.65837 13.9792 6.96529 13.3275L6.70126 13.0807C5.81455 12.2572 5.36277 11.3175 5.3943 10.3642C5.4009 10.188 5.43684 10.0177 5.47498 9.8467H3.87832C3.54535 9.8467 3.27472 9.56995 3.27472 9.22944V7.64243C3.27472 7.30192 3.54535 7.02442 3.87832 7.02442H5.49405C5.82702 7.02442 6.09765 7.30192 6.09765 7.64243V8.56419C6.29054 8.31518 6.50983 8.07143 6.78193 7.83743V4.39489C6.78193 3.72964 7.31073 3.18888 7.95981 3.18888ZM7.95981 3.94264C7.71631 3.94264 7.51902 4.14514 7.51902 4.39489V10.2157C7.51902 10.4242 7.354 10.5922 7.15011 10.5922C6.94695 10.5922 6.78193 10.4242 6.78193 10.2157V8.88369C6.36682 9.36594 6.14826 9.86995 6.13139 10.3897C6.10059 11.3062 6.69319 12.0555 7.19705 12.5227L7.46328 12.7725C8.11676 13.3867 8.68149 13.9162 9.32323 14.0962C11.101 14.5972 11.9943 13.7647 12.6926 12.945C13.2206 12.3247 13.2815 11.0775 13.2602 10.6492L13.2595 7.73168C13.2595 7.48342 13.0622 7.28092 12.8187 7.28092C12.5745 7.28092 12.3772 7.48342 12.3772 7.73168C12.3772 7.94018 12.2122 8.10893 12.0083 8.10893C11.8051 8.10893 11.6401 7.94018 11.6401 7.73168V7.16317C11.6401 6.91342 11.4421 6.71092 11.1993 6.71092C11.0783 6.71092 10.7578 6.71092 10.7578 7.44742C10.7578 7.65518 10.5928 7.82393 10.3889 7.82393C10.1857 7.82393 10.0207 7.65518 10.0207 7.44742V6.61867C10.0207 6.37041 9.82269 6.16866 9.5792 6.16866C9.42445 6.16866 9.32103 6.19416 9.27189 6.24366C9.17802 6.34116 9.14721 6.60667 9.13768 6.95542V7.96493C9.13768 8.17343 8.97339 8.34143 8.7695 8.34143C8.56634 8.34143 8.40132 8.17343 8.40132 7.96493L8.39912 7.57268C8.39839 7.34167 8.39619 7.13167 8.40132 6.93892V4.39489C8.40132 4.14514 8.2033 3.94264 7.95981 3.94264ZM2.22006 7.02457C2.5523 7.02457 2.82293 7.30132 2.82293 7.64183V9.22959C2.82293 9.5701 2.5523 9.84685 2.22006 9.84685H0.604338C0.270632 9.84685 0 9.5701 0 9.22959V7.64183C0 7.30132 0.270632 7.02457 0.604338 7.02457H2.22006ZM5.3613 7.77818H4.01181V9.09294H5.3613V7.77818ZM2.08658 7.77833H0.737087V9.09309H2.08658V7.77833ZM2.22006 3.51228C2.5523 3.51228 2.82293 3.78979 2.82293 4.13029V5.71656C2.82293 6.05706 2.5523 6.33381 2.22006 6.33381H0.604338C0.270632 6.33381 0 6.05706 0 5.71656V4.13029C0 3.78979 0.270632 3.51228 0.604338 3.51228H2.22006ZM5.49405 3.51228C5.82702 3.51228 6.09765 3.78979 6.09765 4.13029V5.71656C6.09765 6.05706 5.82702 6.33381 5.49405 6.33381H3.87832C3.54535 6.33381 3.27472 6.05706 3.27472 5.71656V4.13029C3.27472 3.78979 3.54535 3.51228 3.87832 3.51228H5.49405ZM2.08658 4.26529H0.737087V5.58006H2.08658V4.26529ZM5.3613 4.26529H4.01181V5.58006H5.3613V4.26529ZM2.22006 0C2.5523 0 2.82293 0.276753 2.82293 0.617256V2.20352C2.82293 2.54478 2.5523 2.82153 2.22006 2.82153H0.604338C0.270632 2.82153 0 2.54478 0 2.20352V0.617256C0 0.276753 0.270632 0 0.604338 0H2.22006ZM5.49405 0C5.82702 0 6.09765 0.276753 6.09765 0.617256V2.20352C6.09765 2.54478 5.82702 2.82153 5.49405 2.82153H3.87832C3.54535 2.82153 3.27472 2.54478 3.27472 2.20352V0.617256C3.27472 0.276753 3.54535 0 3.87832 0H5.49405ZM8.76877 0C9.10174 0 9.37237 0.276753 9.37237 0.617256V2.20352C9.37237 2.54478 9.10174 2.82153 8.76877 2.82153H7.15304C6.82007 2.82153 6.54871 2.54478 6.54871 2.20352V0.617256C6.54871 0.276753 6.82007 0 7.15304 0H8.76877ZM2.08658 0.753758H0.737087V2.06777H2.08658V0.753758ZM5.3613 0.753758H4.01181V2.06777H5.3613V0.753758ZM8.63529 0.753758H7.28579V2.06777H8.63529V0.753758Z" fill="#3A4757"/>
</svg>