<svg width="20" height="20" viewBox="0 0 20 20" fill="none" xmlns="http://www.w3.org/2000/svg">
<path d="M11.7184 11.5273L9.95668 13.2796L6.72202 10.0445L8.47413 8.28259C8.77256 7.98411 8.77256 7.51234 8.47413 7.21387C8.17569 6.91539 7.70397 6.91539 7.40554 7.21387L5.65343 8.97581L4.61372 7.93597C4.33454 7.65676 3.83393 7.65676 3.54513 7.93597L1.9278 9.5535C-0.238267 11.7198 -0.401926 15.1378 1.43682 17.4967L0.223827 18.7098C-0.0746089 19.0083 -0.0746089 19.4801 0.223827 19.7786C0.368231 19.923 0.56077 20 0.753309 20C0.945848 20 1.13839 19.923 1.28279 19.7786L2.49579 18.5654C3.54513 19.3838 4.82551 19.8363 6.18291 19.8363C7.79061 19.8363 9.30205 19.2105 10.438 18.0744L12.0554 16.4569C12.3538 16.1584 12.3538 15.6866 12.0554 15.3881L11.0156 14.3483L12.7774 12.596C13.0758 12.2975 13.0758 11.8257 12.7774 11.5273C12.4789 11.2288 12.0072 11.2288 11.7088 11.5273H11.7184ZM9.38869 17.0057C8.53189 17.8626 7.40554 18.3247 6.19254 18.3247C4.97954 18.3247 3.85319 17.8529 2.99639 17.0057C1.23466 15.2437 1.23466 12.3745 2.99639 10.6222L4.07461 9.54387L9.41757 14.8875L10.4573 15.9273L9.37906 17.0057H9.38869ZM19.7762 1.29257C20.0746 1.00373 20.0746 0.522325 19.7762 0.223854C19.4777 -0.0746179 19.006 -0.0746179 18.7076 0.223854L17.4946 1.437C15.136 -0.392346 11.7184 -0.238296 9.55235 1.92803L7.93502 3.54555C7.79061 3.68997 7.7136 3.88254 7.7136 4.0751C7.7136 4.26766 7.79061 4.46022 7.93502 4.60465L15.3863 12.0568C15.5307 12.2012 15.7232 12.2783 15.9158 12.2783C16.1083 12.2783 16.3008 12.2012 16.4452 12.0568L18.0626 10.4393C19.1986 9.30317 19.8243 7.79155 19.8243 6.18366C19.8243 4.82609 19.3718 3.54555 18.5535 2.49609L19.7665 1.28295L19.7762 1.29257ZM17.0036 9.38982L15.9254 10.4682L9.54272 4.08473L10.6209 3.00638C12.3827 1.24443 15.2419 1.24443 17.0036 3.00638C17.8604 3.86328 18.3225 4.98977 18.3225 6.20291C18.3225 7.41606 17.8508 8.54254 17.0036 9.39945V9.38982Z" fill="#3A4757"/>
</svg>