<svg width="19" height="20" viewBox="0 0 19 20" fill="none" xmlns="http://www.w3.org/2000/svg">
<path fill-rule="evenodd" clip-rule="evenodd" d="M17.059 4.80454C16.2625 3.42314 15.2271 2.28551 13.8732 1.39166C12.5192 0.579068 11.0059 0.0915126 9.49264 0.0102535C7.89972 -0.0710057 6.38645 0.33529 5.03247 1.06662C3.5192 1.79795 2.32451 2.85432 1.52805 4.15447C0.651949 5.45462 0.174073 6.99854 0.0147816 8.62372C-0.0648643 10.2489 0.174073 11.7928 0.81124 13.2555C1.36876 14.5556 2.24487 15.6933 3.35991 16.5871V17.6435C3.35991 18.2936 3.59885 18.8624 4.07672 19.3499C4.47495 19.7562 5.11212 20 5.66964 20H6.54574V16.5059C6.54574 15.937 6.94397 15.5307 7.50149 15.5307C8.05902 15.5307 8.45724 15.937 8.45724 16.5059V20H9.73158V16.5059C9.73158 15.937 10.1298 15.5307 10.6873 15.5307C11.2449 15.5307 11.6431 15.937 11.6431 16.5059V20H12.5192C13.1564 20 13.7139 19.7562 14.1917 19.2687C14.59 18.8624 14.9086 18.2123 14.9086 17.5622V16.5059C15.8643 15.6933 16.7404 14.6369 17.2979 13.4993C17.9351 12.1991 18.3333 10.7365 18.3333 9.2738C18.174 7.72987 17.7758 6.18595 17.059 4.80454ZM5.83333 8.33333C4.96032 8.33333 4.16667 9.04762 4.16667 10C4.16667 10.873 4.88095 11.6667 5.83333 11.6667C6.78571 11.6667 7.5 10.9524 7.5 10C7.5 9.04762 6.78571 8.33333 5.83333 8.33333ZM10.8333 10C10.8333 9.04762 11.627 8.33333 12.5 8.33333C13.4524 8.33333 14.1667 9.04762 14.1667 10C14.1667 10.9524 13.4524 11.6667 12.5 11.6667C11.5476 11.6667 10.8333 10.873 10.8333 10Z" fill="#3A4757"/>
</svg>