<svg width="19" height="20" viewBox="0 0 19 20" fill="none" xmlns="http://www.w3.org/2000/svg">
<path d="M5.75774 8.31023C4.83715 8.31023 4.09086 9.06782 4.09086 10.0024C4.09086 10.9369 4.83715 11.6945 5.75774 11.6945C6.67833 11.6945 7.42462 10.9369 7.42462 10.0024C7.42462 9.06782 6.67833 8.31023 5.75774 8.31023Z" fill="#3A4757"/>
<path d="M12.5758 8.31023C11.6553 8.31023 10.909 9.06782 10.909 10.0024C10.909 10.9369 11.6553 11.6945 12.5758 11.6945C13.4964 11.6945 14.2427 10.9369 14.2427 10.0024C14.2427 9.06782 13.4964 8.31023 12.5758 8.31023Z" fill="#3A4757"/>
<path fill-rule="evenodd" clip-rule="evenodd" d="M4.98499 1.02467C6.38279 0.29726 7.94127 -0.0533187 9.51093 0.00656573C11.0806 0.06645 12.6087 0.534788 13.9488 1.36665C15.2889 2.19851 16.3959 3.36599 17.1637 4.75709C17.9315 6.14818 18.3342 7.71622 18.3333 9.31077C18.3325 10.787 17.9857 12.2419 17.3216 13.5552C16.7361 14.7129 15.9189 15.7314 14.9243 16.5464V17.6157C14.9243 18.2481 14.6769 18.8545 14.2364 19.3016C13.796 19.7488 13.1986 20 12.5757 20H10.5386C10.5359 20 10.5331 20 10.5304 20C10.5277 20 10.525 20 10.5223 20H7.81132L7.80318 20L7.79505 20H5.75767C5.13476 20 4.53737 19.7488 4.09691 19.3016C3.65645 18.8545 3.409 18.2481 3.409 17.6157V16.5464C2.32434 15.6576 1.45177 14.5277 0.860286 13.2413C0.195924 11.7964 -0.0915397 10.2024 0.025472 8.61231C0.142484 7.02218 0.660045 5.48926 1.5285 4.16059C2.39697 2.83192 3.58719 1.75208 4.98499 1.02467ZM11.5155 18V16.2315C11.5155 15.6792 11.0745 15.2315 10.5304 15.2315C9.98638 15.2315 9.54535 15.6792 9.54535 16.2315V18H8.78826V16.2315C8.78826 15.6792 8.34723 15.2315 7.80318 15.2315C7.25914 15.2315 6.81811 15.6792 6.81811 16.2315V18H5.75767C5.65728 18 5.561 17.9595 5.49002 17.8874C5.41903 17.8154 5.37915 17.7176 5.37915 17.6157V16.0515C5.37915 15.7295 5.22637 15.4271 4.9687 15.2393C3.96708 14.509 3.16712 13.5298 2.64555 12.3954C2.12397 11.261 1.89829 10.0097 1.99015 8.76129C2.08202 7.51293 2.48834 6.30947 3.17015 5.26636C3.85195 4.22326 4.78636 3.37551 5.88374 2.80444C6.98112 2.23337 8.20464 1.95814 9.43694 2.00515C10.6692 2.05216 11.869 2.41984 12.921 3.07292C13.9731 3.72599 14.8422 4.64255 15.4449 5.73466C16.0477 6.82677 16.3639 8.0578 16.3632 9.30964C16.3625 10.4686 16.0903 11.6108 15.5689 12.6418C15.0475 13.6729 14.2919 14.5632 13.3646 15.2393C13.107 15.4271 12.9542 15.7295 12.9542 16.0515V17.6157C12.9542 17.7176 12.9143 17.8154 12.8433 17.8874C12.7723 17.9595 12.6761 18 12.5757 18H11.5155Z" fill="#3A4757"/>
</svg>