<svg width="15" height="15" viewBox="0 0 15 15" fill="none" xmlns="http://www.w3.org/2000/svg">
<path fill-rule="evenodd" clip-rule="evenodd" d="M7.11437 0C7.18058 0 7.24549 0.0193248 7.30184 0.0558164L14.1516 4.49133C14.6789 4.83278 15 5.43678 15 6.08725V9.82231C15 9.96852 14.9191 10.1014 14.7927 10.1627C13.5563 10.7626 12.7092 11.333 12.2571 11.8588C11.8038 12.3858 11.3293 13.3533 10.8482 14.7524C10.7971 14.901 10.6628 15 10.5123 15H1.78571C0.799492 15 0 14.1605 0 13.125V1.875C0 0.839466 0.799492 0 1.78571 0H7.11437ZM7.01357 0.75H1.78571C1.22879 0.75 0.771108 1.19617 0.71919 1.76666L0.714286 1.875V13.125C0.714286 13.7463 1.19398 14.25 1.78571 14.25H10.2621L10.3677 13.9622C10.7826 12.8464 11.2002 12.0194 11.628 11.4764L11.727 11.3561C12.1861 10.8223 12.9384 10.2856 13.9877 9.73635L14.2857 9.58425V6.08725C14.2857 5.73599 14.1297 5.40732 13.8678 5.19576L13.7767 5.1297L7.01357 0.75ZM4.875 8.25C5.08211 8.25 5.25 8.41789 5.25 8.625C5.25 8.8091 5.11734 8.96221 4.94241 8.99396L4.875 9H2.625C2.41789 9 2.25 8.83211 2.25 8.625C2.25 8.4409 2.38266 8.28779 2.55759 8.25604L2.625 8.25H4.875ZM6.9555 2.25C7.02434 2.25 7.09176 2.27133 7.14989 2.3115L11.4948 5.31412C11.8094 5.53153 12 5.90907 12 6.31481C12 6.96937 11.5127 7.5 10.9116 7.5H2.61279C2.41242 7.5 2.25 7.32312 2.25 7.10494V4.22531C2.25 3.13438 3.06212 2.25 4.06393 2.25H6.9555ZM6.85213 3L4.08258 3.00053C3.48508 3.00053 3.00072 3.54269 3.00072 4.21146L3 6.74984L10.8894 6.75C11.0664 6.75 11.2137 6.60721 11.2442 6.41891L11.25 6.34636C11.25 6.20817 11.1868 6.07959 11.0826 6.00555L6.85213 3Z" fill="#3A4757"/>
</svg>