<svg width="18" height="20" viewBox="0 0 18 20" fill="none" xmlns="http://www.w3.org/2000/svg">
<path fill-rule="evenodd" clip-rule="evenodd" d="M7.53874 0.292318C7.14627 0.682524 7.14575 1.31569 7.53758 1.70653L15.8521 10L7.53758 18.2935C7.14575 18.6843 7.14627 19.3175 7.53874 19.7077C7.93121 20.0979 8.56701 20.0974 8.95884 19.7065L17.4869 11.2001C17.6466 11.0471 17.7743 10.864 17.8624 10.6613C17.9532 10.4526 18 10.2275 18 10C18 9.77251 17.9532 9.54744 17.8624 9.33868C17.7743 9.13601 17.6466 8.95289 17.4869 8.79994L8.95884 0.293469C8.56701 -0.0973731 7.93121 -0.0978883 7.53874 0.292318ZM0.294114 0.292893C-0.0980379 0.683417 -0.0980379 1.31658 0.294114 1.70711L8.62155 10L0.294114 18.2929C-0.0980379 18.6834 -0.0980379 19.3166 0.294114 19.7071C0.686265 20.0976 1.32207 20.0976 1.71422 19.7071L10.2722 11.1846C10.5835 10.8683 10.7579 10.443 10.7579 10C10.7579 9.55703 10.5835 9.13173 10.2721 8.81538L10.2651 8.80824L1.71422 0.292893C1.32207 -0.0976311 0.686265 -0.0976311 0.294114 0.292893Z" fill="#3A4757"/>
</svg>