<svg width="18" height="20" viewBox="0 0 18 20" fill="none" xmlns="http://www.w3.org/2000/svg">
<path fill-rule="evenodd" clip-rule="evenodd" d="M10.4613 0.292318C10.8537 0.682524 10.8542 1.31569 10.4624 1.70653L2.14794 10L10.4624 18.2935C10.8542 18.6843 10.8537 19.3175 10.4613 19.7077C10.0688 20.0979 9.43299 20.0974 9.04116 19.7065L0.51314 11.2001C0.353364 11.0471 0.225675 10.864 0.137573 10.6613C0.0468212 10.4526 0 10.2275 0 10C0 9.77251 0.0468212 9.54744 0.137573 9.33868C0.225675 9.13601 0.353364 8.95289 0.51314 8.79994L9.04116 0.293469C9.43299 -0.0973731 10.0688 -0.0978883 10.4613 0.292318ZM17.7059 0.292893C18.098 0.683417 18.098 1.31658 17.7059 1.70711L9.37845 10L17.7059 18.2929C18.098 18.6834 18.098 19.3166 17.7059 19.7071C17.3137 20.0976 16.6779 20.0976 16.2858 19.7071L7.72782 11.1846C7.41646 10.8683 7.24209 10.443 7.24209 10C7.24209 9.55703 7.41649 9.13173 7.72786 8.81538L7.73489 8.80824L16.2858 0.292893C16.6779 -0.0976311 17.3137 -0.0976311 17.7059 0.292893Z" fill="#3A4757"/>
</svg>