<svg width="20" height="13" viewBox="0 0 20 13" fill="none" xmlns="http://www.w3.org/2000/svg">
<path d="M19.5741 0.316216C19.0661 -0.118919 18.2195 -0.11892 17.7961 0.403243L10.0919 9.54108L9.83788 9.19297C9.5839 8.75784 9.07592 8.49676 8.65261 8.58378L14.071 2.14378C14.325 1.8827 14.4097 1.53459 14.4097 1.18649C14.4097 0.838378 14.2403 0.49027 13.9863 0.316216C13.7324 0.142162 13.3937 0.0551346 13.1397 0.0551346C12.8011 0.0551346 12.4624 0.229189 12.2931 0.49027L4.50416 9.62811L2.21827 6.84324C1.79496 6.23405 1.033 6.14703 0.440362 6.66919C-0.0676122 7.10432 -0.152275 7.88757 0.271037 8.40973L2.81091 11.5427C2.98023 11.8038 3.23422 11.9778 3.57287 12.1519C3.82686 12.3259 4.16551 12.3259 4.50416 12.413C4.8428 12.413 5.09679 12.3259 5.43544 12.2389C5.68943 12.0649 6.02808 11.8908 6.1974 11.6297L7.63666 9.97622C7.63666 10.1503 7.72132 10.4114 7.80599 10.5854L8.31396 11.4557C8.31396 11.5427 8.39862 11.5427 8.39862 11.6297C8.56795 11.8908 8.82194 12.0649 9.16059 12.2389C9.41457 12.413 9.75322 12.413 10.0919 12.5C10.4305 12.5 10.6845 12.413 10.9385 12.3259C11.1925 12.1519 11.5311 11.9778 11.7005 11.7168L19.6587 2.23081C20.1667 1.62162 20.082 0.838378 19.5741 0.316216Z" fill="#3A4757"/>
</svg>