<svg width="18" height="21" viewBox="0 0 18 21" fill="none" xmlns="http://www.w3.org/2000/svg">
<path fill-rule="evenodd" clip-rule="evenodd" d="M17.4826 8.46335C17.4826 8.35223 17.4566 8.24112 17.4132 8.13856C17.3612 8.01035 17.2831 7.89924 17.1877 7.80523L10.1859 0.899243C10.0905 0.805226 9.97769 0.728303 9.84755 0.677021C9.72608 0.625739 9.59593 0.600098 9.45711 0.600098C9.45711 0.600098 9.45711 0.600098 9.44844 0.600098H2.43803C1.78731 0.600098 1.17129 0.856508 0.711453 1.30095C0.251611 1.75394 0 2.36078 0 3.00181V18.1984C0 18.8394 0.260288 19.4463 0.711453 19.8992C1.17129 20.3522 1.78731 20.6001 2.43803 20.6001H15.062C15.7127 20.6001 16.3287 20.3437 16.7885 19.8992C17.2484 19.4463 17.5 18.8394 17.5 18.1984V8.53172C17.5 8.50608 17.4913 8.48899 17.4826 8.46335ZM11.6262 15.1215L9.45711 17.2582C9.36168 17.3522 9.24021 17.4292 9.11874 17.4804C8.99727 17.5317 8.86713 17.5574 8.73699 17.5574C8.46802 17.5574 8.22509 17.4548 8.04288 17.2924C8.03421 17.2839 8.02553 17.2753 8.01686 17.2668L5.84779 15.13C5.44869 14.7368 5.44869 14.1044 5.84779 13.7112C6.2469 13.318 6.88894 13.318 7.28805 13.7112L7.72186 14.1386V10.5061C7.72186 9.95053 8.17303 9.50608 8.73699 9.50608C9.30094 9.50608 9.75211 9.95053 9.75211 10.5061V14.1386L10.1859 13.7112C10.585 13.318 11.2271 13.318 11.6262 13.7112C12.0253 14.1044 12.0253 14.7368 11.6262 15.13V15.1215ZM10.4809 7.50608V4.10437L13.9341 7.50608H10.4809Z" fill="#3A4757"/>
</svg>