<svg width="18" height="20" viewBox="0 0 18 20" fill="none" xmlns="http://www.w3.org/2000/svg">
<path d="M8.11107 13.8923V10.3471C8.11107 9.80824 8.55488 9.37144 9.10235 9.37144C9.64982 9.37144 10.0936 9.80824 10.0936 10.3471V13.8923L10.5174 13.4752C10.9046 13.0942 11.5322 13.0942 11.9193 13.4752C12.3064 13.8562 12.3064 14.4739 11.9193 14.8549L9.80331 16.9375C9.70675 17.0325 9.59524 17.1038 9.47622 17.1515C9.36085 17.1977 9.23462 17.2232 9.10235 17.2232C8.84193 17.2232 8.60496 17.1244 8.42805 16.9627C8.41798 16.9535 8.4081 16.9441 8.39843 16.9345L6.28541 14.8549C5.89829 14.4739 5.89829 13.8562 6.28541 13.4752C6.67253 13.0942 7.30017 13.0942 7.6873 13.4752L8.11107 13.8923Z" fill="#3A4757"/>
<path fill-rule="evenodd" clip-rule="evenodd" d="M10.0777 0.216262C10.105 0.237934 10.1313 0.261115 10.1563 0.285749L17.2097 7.22759C17.2376 7.25504 17.2636 7.28396 17.2878 7.31416C17.4245 7.48525 17.5 7.69752 17.5 7.91745V17.636C17.5 18.263 17.2469 18.8643 16.7965 19.3076C16.346 19.7509 15.7351 20 15.098 20H2.40196C1.76492 20 1.15397 19.7509 0.703518 19.3076C0.253063 18.8643 0 18.263 0 17.636V2.36398C0 1.73701 0.253063 1.13572 0.703518 0.692393C1.15397 0.249061 1.76492 0 2.40196 0H9.45529L9.45842 4.70388e-06C9.69296 0.000718196 9.90833 0.081597 10.0777 0.216262ZM2.10541 2.07211C2.18406 1.99471 2.29073 1.95122 2.40196 1.95122H8.464V7.91745C8.464 8.45626 8.90782 8.89306 9.45529 8.89306H15.5174V17.636C15.5174 17.7455 15.4732 17.8505 15.3946 17.9279C15.3159 18.0053 15.2093 18.0488 15.098 18.0488H2.40196C2.29073 18.0488 2.18406 18.0053 2.10541 17.9279C2.02676 17.8505 1.98257 17.7455 1.98257 17.636V2.36398C1.98257 2.25451 2.02676 2.14952 2.10541 2.07211ZM14.1155 6.94184H10.4466V3.33089L14.1155 6.94184Z" fill="#3A4757"/>
</svg>