<svg width="18" height="21" viewBox="0 0 18 21" fill="none" xmlns="http://www.w3.org/2000/svg">
<path d="M8.11107 14.4924V10.9472C8.11107 10.4083 8.55488 9.97154 9.10235 9.97154C9.64982 9.97154 10.0936 10.4083 10.0936 10.9472V14.4924L10.5174 14.0753C10.9046 13.6943 11.5322 13.6943 11.9193 14.0753C12.3064 14.4563 12.3064 15.074 11.9193 15.455L9.80331 17.5376C9.70675 17.6326 9.59524 17.7039 9.47622 17.7516C9.36085 17.7978 9.23462 17.8233 9.10235 17.8233C8.84193 17.8233 8.60496 17.7245 8.42805 17.5628C8.41798 17.5536 8.4081 17.5442 8.39843 17.5346L6.28541 15.455C5.89829 15.074 5.89829 14.4563 6.28541 14.0753C6.67253 13.6943 7.30017 13.6943 7.6873 14.0753L8.11107 14.4924Z" fill="#3A4757"/>
<path fill-rule="evenodd" clip-rule="evenodd" d="M10.0777 0.81636C10.105 0.838032 10.1313 0.861213 10.1563 0.885847L17.2097 7.82769C17.2376 7.85514 17.2636 7.88405 17.2878 7.91425C17.4245 8.08535 17.5 8.29762 17.5 8.51755V18.2361C17.5 18.8631 17.2469 19.4644 16.7965 19.9077C16.346 20.351 15.7351 20.6001 15.098 20.6001H2.40196C1.76492 20.6001 1.15397 20.351 0.703518 19.9077C0.253063 19.4644 0 18.8631 0 18.2361V2.96408C0 2.33711 0.253063 1.73582 0.703518 1.29249C1.15397 0.849159 1.76492 0.600098 2.40196 0.600098H9.45529L9.45842 0.600102C9.69296 0.600816 9.90833 0.681695 10.0777 0.81636ZM2.10541 2.67221C2.18406 2.5948 2.29073 2.55132 2.40196 2.55132H8.464V8.51754C8.464 9.05636 8.90782 9.49315 9.45529 9.49315H15.5174V18.2361C15.5174 18.3456 15.4732 18.4506 15.3946 18.528C15.3159 18.6054 15.2093 18.6489 15.098 18.6489H2.40196C2.29073 18.6489 2.18406 18.6054 2.10541 18.528C2.02676 18.4506 1.98257 18.3456 1.98257 18.2361V2.96408C1.98257 2.8546 2.02676 2.74962 2.10541 2.67221ZM14.1155 7.54193H10.4466V3.93099L14.1155 7.54193Z" fill="#3A4757"/>
</svg>