<svg width="18" height="20" viewBox="0 0 18 20" fill="none" xmlns="http://www.w3.org/2000/svg">
<path fill-rule="evenodd" clip-rule="evenodd" d="M17.4826 7.86325C17.4826 7.75214 17.4566 7.64103 17.4132 7.53846C17.3612 7.41026 17.2831 7.29915 17.1877 7.20513L10.1859 0.299145C10.0905 0.205128 9.97769 0.128205 9.84755 0.0769231C9.72608 0.025641 9.59593 0 9.45711 0C9.45711 0 9.45711 0 9.44844 0H2.43803C1.78731 0 1.17129 0.25641 0.711453 0.700855C0.251611 1.15385 0 1.76068 0 2.40171V17.5983C0 18.2393 0.260288 18.8462 0.711453 19.2991C1.17129 19.7521 1.78731 20 2.43803 20H15.062C15.7127 20 16.3287 19.7436 16.7885 19.2991C17.2484 18.8462 17.5 18.2393 17.5 17.5983V7.93162C17.5 7.90598 17.4913 7.88889 17.4826 7.86325ZM11.6262 14.5214L9.45711 16.6581C9.36168 16.7521 9.24021 16.8291 9.11874 16.8803C8.99727 16.9316 8.86713 16.9573 8.73699 16.9573C8.46802 16.9573 8.22509 16.8547 8.04288 16.6923C8.03421 16.6838 8.02553 16.6752 8.01686 16.6667L5.84779 14.5299C5.44869 14.1368 5.44869 13.5043 5.84779 13.1111C6.2469 12.7179 6.88894 12.7179 7.28805 13.1111L7.72186 13.5385V9.90598C7.72186 9.35043 8.17303 8.90598 8.73699 8.90598C9.30094 8.90598 9.75211 9.35043 9.75211 9.90598V13.5385L10.1859 13.1111C10.585 12.7179 11.2271 12.7179 11.6262 13.1111C12.0253 13.5043 12.0253 14.1368 11.6262 14.5299V14.5214ZM10.4809 6.90598V3.50427L13.9341 6.90598H10.4809Z" fill="#3A4757"/>
</svg>