<svg width="18" height="20" viewBox="0 0 18 20" fill="none" xmlns="http://www.w3.org/2000/svg">
<path d="M13.7565 7.98814H13.7758C14.1435 8.28473 14.7048 8.25507 15.0339 7.91893L17.7242 5.14088C18.0919 4.7652 18.0919 4.14236 17.7242 3.7568L14.3661 0.286703C14.1919 0.108749 13.95 0 13.6984 0H4.31129C4.05 0 3.80806 0.108749 3.64355 0.286703L0.275806 3.7568C-0.0919355 4.13248 -0.0919355 4.75531 0.275806 5.14088L2.96613 7.91893C3.32419 8.28473 3.95323 8.28473 4.31129 7.91893L4.70807 7.51359V10.0049C4.70807 10.2818 4.63065 10.5586 4.45645 10.9343C4.32097 11.2111 4.16613 11.4879 3.98226 11.8141C3.93387 11.9031 3.87581 12.002 3.81774 12.1008L3.67258 12.3579C3.02419 13.5739 2.32742 15.1162 2.09516 17.39C2.05645 17.7163 2.09516 18.0524 2.19194 18.3589C2.28871 18.6653 2.44355 18.9422 2.66613 19.2091C2.87903 19.4563 3.14032 19.654 3.43065 19.7924C3.70161 19.9209 4.01129 19.9901 4.35968 20H13.621C13.9403 20 14.2597 19.9308 14.55 19.7924C14.85 19.654 15.1113 19.4563 15.3145 19.219C15.5274 18.9619 15.6919 18.6653 15.7887 18.3688C15.8855 18.0425 15.9242 17.7163 15.8855 17.3999C15.6532 15.1261 14.9565 13.5739 14.3081 12.3579L14.1726 12.1107C14.1145 12.0119 14.0661 11.913 14.0081 11.824C13.8242 11.4978 13.6694 11.221 13.5339 10.9343C13.3597 10.5586 13.2823 10.2719 13.2823 9.99506V7.50371L13.7468 7.98814H13.7565ZM13.9984 17.7855C13.9984 17.7855 13.9597 17.8744 13.921 17.914C13.8726 17.9634 13.8242 18.003 13.7758 18.0326C13.7371 18.0524 13.6887 18.0623 13.6306 18.0623H4.36936C4.31129 18.0623 4.25323 18.0524 4.22419 18.0326C4.17581 18.0129 4.11774 17.9733 4.08871 17.9338C4.05 17.8843 4.02097 17.8349 4.00161 17.7954C3.98226 17.7163 3.97258 17.6569 3.98226 17.6174C4.17581 15.6995 4.74677 14.4241 5.32742 13.3366L5.57903 12.872C5.82097 12.4567 6.00484 12.1008 6.15 11.7845C6.38226 11.2902 6.51774 10.8354 6.56613 10.4004C8.18226 10.8354 9.81774 10.8354 11.4339 10.4004C11.4823 10.8453 11.6177 11.3 11.8403 11.7845C11.9661 12.0514 12.1113 12.3183 12.2661 12.605L12.4113 12.872C12.4984 13.0203 12.5758 13.1784 12.6629 13.3366C13.2532 14.4142 13.8242 15.6698 14.0081 17.6273L14.0274 17.7855V17.8052L13.9984 17.7855ZM11.9758 4.25111C11.6274 4.39941 11.3952 4.75531 11.3952 5.15077V8.19575C9.81774 8.74938 8.1629 8.74938 6.58548 8.19575V5.15077C6.58548 4.75531 6.3629 4.39941 6.00484 4.25111C5.65645 4.10282 5.25 4.18191 4.96936 4.45872L3.62419 5.85269L2.27903 4.45872L4.68871 1.96738H13.2919L15.7016 4.45872L14.3565 5.85269L13.0113 4.45872C12.7403 4.18191 12.3339 4.10282 11.9758 4.25111Z" fill="#3A4757"/>
</svg>