<svg width="14" height="14" viewBox="0 0 14 14" fill="none" xmlns="http://www.w3.org/2000/svg">
<path fill-rule="evenodd" clip-rule="evenodd" d="M13.2294 4.81796L12.7949 5.26222L10.43 3.00114L8.54991 1.20289L8.96496 0.777855C9.03671 0.704917 9.13192 0.663807 9.23451 0.662481C9.3257 0.662481 9.43365 0.698287 9.50741 0.769236L10.7713 1.97802C10.772 1.97802 10.772 1.97802 10.772 1.97802L11.9367 3.09198C11.9367 3.09198 11.9367 3.09198 11.9373 3.09198L13.2207 4.31999C13.2891 4.38564 13.328 4.47316 13.3294 4.56732C13.3307 4.66147 13.2958 4.75033 13.2294 4.81796ZM12.6595 6.66661L12.286 7.04854L10.1068 4.9645C10.1068 4.9645 10.1068 4.96384 10.1062 4.96384L9.52417 4.40686L6.76165 1.76583L7.11367 1.40579C7.20218 1.31561 7.32019 1.26521 7.44759 1.26256C7.56895 1.25792 7.69434 1.30765 7.78553 1.39451L7.84185 1.44822C7.84185 1.44889 7.84252 1.44889 7.84252 1.44889L9.8601 3.37843L12.6488 6.04531C12.7339 6.12687 12.7822 6.23627 12.7842 6.35364C12.7862 6.471 12.742 6.5824 12.6595 6.66661ZM5.27177 9.43096L4.93048 9.10406L4.58919 8.77783L8.7162 4.55737L9.05749 4.8836L9.39878 5.20984L5.27177 9.43096ZM6.85284 12.6044C6.77037 12.6886 6.65974 12.7357 6.54105 12.7377C6.42506 12.7357 6.3104 12.6959 6.22524 12.6144L1.36201 7.96424C1.27082 7.87672 1.21919 7.76002 1.21648 7.63403C1.21517 7.50871 1.2621 7.38936 1.35061 7.29984L1.70263 6.93979L3.8818 9.02383L4.46447 9.58082L7.22632 12.2225L6.85284 12.6044ZM5.00357 13.2297C4.93786 13.2973 4.84868 13.3351 4.75414 13.3371C4.65758 13.3431 4.5684 13.3033 4.50001 13.2377L3.21665 12.0103C3.21598 12.0103 3.21598 12.0097 3.21598 12.0097L2.62391 11.4434L0.787378 9.68691C0.713622 9.61662 0.67205 9.5218 0.670004 9.42035C0.668697 9.3189 0.706917 9.22342 0.777991 9.15048L1.19304 8.72545L4.54762 11.9321L5.43873 12.7848L5.00357 13.2297ZM1.80455 12.9764L1.12196 12.3233L1.826 11.6032L2.16461 11.9261L2.50926 12.2557L1.80455 12.9764ZM12.1834 1.01192L12.866 1.66438L12.162 2.38514L11.4794 1.73202L12.1834 1.01192ZM13.9998 4.55605C13.9952 4.28485 13.8845 4.03222 13.6874 3.84324L12.6434 2.84532L13.5808 1.88718C13.7095 1.75523 13.7062 1.54569 13.5734 1.41838L12.4087 0.304421C12.345 0.243418 12.2585 0.212254 12.17 0.211591C12.0808 0.212917 11.9964 0.249386 11.9347 0.312378L10.9973 1.27118L9.97408 0.292486C9.55568 -0.107347 8.88651 -0.0954119 8.48286 0.31702L8.04502 0.76592C7.8613 0.658502 7.65142 0.602804 7.43619 0.599489C7.13044 0.604793 6.8448 0.727462 6.63157 0.94495L6.04689 1.54304C5.91815 1.67499 5.92217 1.88452 6.05493 2.01183L8.2341 4.09654L4.10709 8.317L1.92792 6.2323C1.86355 6.17129 1.77437 6.13482 1.68922 6.13946C1.60004 6.14079 1.51556 6.17726 1.45387 6.24025L0.86851 6.83834C0.655958 7.05583 0.5413 7.34228 0.546664 7.6453C0.550016 7.8608 0.616397 8.06569 0.733067 8.24207L0.295892 8.68898C0.100102 8.88923 -0.00516876 9.15313 0.000195346 9.43162C0.00421843 9.70945 0.118876 9.97004 0.321371 10.1637L1.3439 11.1424L0.407197 12.1005C0.278458 12.2324 0.281811 12.4426 0.415243 12.5693L1.57925 13.6832C1.64228 13.7429 1.7261 13.7767 1.81259 13.7767H1.81796C1.90714 13.7748 1.99162 13.7389 2.05398 13.6753L2.99069 12.7172L4.034 13.7144C4.22711 13.8987 4.4799 14.0002 4.74743 14.0002H4.76486C5.03977 13.9956 5.29524 13.8855 5.48634 13.6899L5.93692 13.229C6.11461 13.3411 6.31911 13.4008 6.53368 13.4008H6.55245C6.85016 13.3961 7.12775 13.2768 7.33494 13.0653L7.94109 12.4446C8.06983 12.3133 8.06647 12.1031 7.93371 11.9758L5.75387 9.8918L9.88088 5.67134L12.0607 7.75537C12.1258 7.8177 12.2096 7.84887 12.2934 7.84887C12.3812 7.84887 12.4691 7.81505 12.5348 7.74742L13.1416 7.12744C13.3481 6.91592 13.4594 6.63677 13.4547 6.34237C13.4514 6.12421 13.383 5.91667 13.2603 5.74029L13.7115 5.2788C13.902 5.08385 14.0045 4.82724 13.9998 4.55605Z" fill="#3A4757"/>
</svg>