<svg width="16" height="13" viewBox="0 0 16 13" fill="none" xmlns="http://www.w3.org/2000/svg">
<path d="M12.267 12.2858C11.3082 12.2858 10.473 11.6041 10.2815 10.6646L10.264 10.5793H5.73706L5.71957 10.6646C5.52802 11.6041 4.69311 12.2858 3.73426 12.2858C2.77542 12.2858 1.9403 11.6041 1.74896 10.6646L1.73146 10.5793H0.399323C0.179183 10.5793 0 10.4001 0 10.18V8.63174C0 8.4116 0.179183 8.23242 0.399323 8.23242H9.38728V3.85948C9.38728 3.44778 9.72219 3.11288 10.1339 3.11288H13.5469C13.7971 3.11288 14.0294 3.23724 14.1681 3.44523L15.8746 6.00542C15.9567 6.1285 16 6.27163 16 6.41946V9.83227C16 10.244 15.6651 10.5789 15.2534 10.5789H14.2698L14.2523 10.6642C14.0608 11.6036 13.2259 12.2858 12.267 12.2858ZM12.267 8.87278C11.5025 8.87278 10.8805 9.49481 10.8805 10.2593C10.8805 11.0238 11.5025 11.6459 12.267 11.6459C13.0315 11.6459 13.6536 11.0238 13.6536 10.2593C13.6536 9.49481 13.0315 8.87278 12.267 8.87278ZM3.73448 8.87278C2.96996 8.87278 2.34794 9.49481 2.34794 10.2593C2.34794 11.0238 2.96996 11.6459 3.73448 11.6459C4.49899 11.6459 5.12102 11.0238 5.12102 10.2593C5.12102 9.49481 4.49899 8.87278 3.73448 8.87278ZM15.3601 9.93935V8.44616H14.5068V7.80621H15.3601V6.73986L10.0272 6.73943V9.93914H10.2642L10.2817 9.85382C10.4733 8.91438 11.3082 8.23263 12.2672 8.23263C13.2263 8.23263 14.0612 8.91438 14.2525 9.85382L14.27 9.93914L15.3601 9.93935ZM1.73168 9.93935L1.74896 9.85403C1.80719 9.56797 1.93326 9.29536 2.12375 9.04386L2.25323 8.87278H0.640154V9.93935H1.73168ZM9.38728 9.93935V8.87278H5.21573L5.34521 9.04386C5.5357 9.29557 5.66176 9.56797 5.72 9.85403L5.73728 9.93935H9.38728ZM15.1683 6.10013L13.6041 3.75346H10.0272V6.09992L15.1683 6.10013Z" fill="#3A4757"/>
<path d="M1.38816 8.80986C1.24182 8.80986 1.09698 8.7687 0.969635 8.69084C0.747363 8.55496 0.608069 8.32799 0.587378 8.06839L0.305164 4.53612C0.263354 4.01243 0.561353 3.52523 1.04664 3.32386L9.00515 0.0230379C9.0348 0.0106657 9.06595 0.00319971 9.09794 0.000853256C9.10541 0.000213314 9.11287 0 9.12034 0C9.24193 0 9.35051 0.0727401 9.39722 0.185156C9.46058 0.338103 9.38784 0.513873 9.2351 0.577227L8.01879 1.08171L8.33492 5.14897C8.37289 5.63917 8.09345 6.09523 7.63909 6.28359L7.18388 6.47237L8.41043 8.31114C8.46739 8.39689 8.44648 8.51805 8.35817 8.61276C8.33791 8.63431 8.31487 8.65393 8.28948 8.67078C8.2289 8.71067 8.16043 8.73201 8.0958 8.73201C8.0158 8.73201 7.94818 8.69937 7.91043 8.64263L6.61924 6.7068L6.25021 6.85996L7.22846 8.32074C7.2771 8.39369 7.24766 8.50333 7.15508 8.59378C7.13461 8.61383 7.11157 8.63239 7.08661 8.64881C7.01707 8.69446 6.9422 8.71921 6.87458 8.71921C6.80696 8.71921 6.75704 8.69532 6.72803 8.65201L5.68493 7.09439L1.69831 8.748C1.61768 8.78149 1.53342 8.80155 1.44767 8.80795C1.42805 8.80944 1.40778 8.80986 1.38816 8.80986ZM1.27659 3.87805C1.03235 3.97937 0.88239 4.22468 0.903295 4.48812L1.18551 8.0206C1.19084 8.08652 1.22625 8.14433 1.28278 8.1791C1.3152 8.19893 1.35189 8.20939 1.3888 8.20939C1.3937 8.20939 1.39861 8.20939 1.40351 8.20875C1.42527 8.20704 1.44703 8.20192 1.46772 8.19317L7.40871 5.72897C7.62245 5.64023 7.75407 5.42564 7.73615 5.19505L7.43538 1.3234L1.27659 3.87805ZM2.21219 7.67589C2.05689 7.67589 1.92549 7.55451 1.91312 7.39986L1.64008 3.98257C1.63368 3.90279 1.65885 3.82515 1.71069 3.76414C1.76273 3.70313 1.83526 3.66601 1.91525 3.65961C1.92315 3.65897 1.93061 3.65876 1.93808 3.65876C2.09401 3.65876 2.22562 3.77992 2.238 3.93479L2.51104 7.35229C2.52149 7.48241 2.44747 7.60336 2.32695 7.65328C2.29794 7.66522 2.26743 7.67269 2.23586 7.67503C2.22669 7.67567 2.21944 7.67589 2.21219 7.67589ZM3.6849 7.06496C3.52961 7.06496 3.39821 6.94358 3.38584 6.78893L3.11279 3.37143C3.1064 3.29165 3.13157 3.214 3.1834 3.15299C3.23545 3.09199 3.30798 3.05487 3.38797 3.04847C3.39586 3.04783 3.40333 3.04762 3.41079 3.04762C3.56673 3.04762 3.69834 3.16878 3.71071 3.32364L3.98375 6.74115C3.99421 6.87127 3.92019 6.99222 3.79966 7.04213C3.77065 7.05408 3.74015 7.06154 3.70858 7.06389C3.69941 7.06453 3.69215 7.06496 3.6849 7.06496ZM5.15762 6.45403C5.00233 6.45403 4.87092 6.33265 4.85855 6.178L4.58551 2.7605C4.57911 2.6805 4.60428 2.60307 4.65633 2.54185C4.70838 2.48063 4.78091 2.44372 4.8609 2.43754C4.86879 2.4369 4.87626 2.43669 4.88372 2.43669C5.03966 2.43669 5.17127 2.55785 5.18364 2.71271L5.45668 6.13022C5.46713 6.26034 5.39312 6.38129 5.27259 6.4312C5.2438 6.44315 5.21308 6.45061 5.18151 6.45317C5.17234 6.45381 5.16487 6.45403 5.15762 6.45403ZM6.63033 5.8431C6.47504 5.8431 6.34364 5.72172 6.33148 5.56707L6.05844 2.14956C6.05204 2.06978 6.077 1.99214 6.12905 1.93113C6.1811 1.87012 6.25362 1.83301 6.33361 1.82661C6.34151 1.82597 6.34897 1.82575 6.35644 1.82575C6.51237 1.82575 6.64399 1.94692 6.65636 2.10178L6.9294 5.51928C6.93964 5.64941 6.86562 5.77057 6.74531 5.82048C6.7163 5.83243 6.68558 5.8399 6.65422 5.84224C6.64505 5.84288 6.63759 5.8431 6.63033 5.8431Z" fill="#3A4757"/>
<path d="M3.73445 10.7494C4.00506 10.7494 4.22443 10.53 4.22443 10.2594C4.22443 9.98876 4.00506 9.76939 3.73445 9.76939C3.46384 9.76939 3.24447 9.98876 3.24447 10.2594C3.24447 10.53 3.46384 10.7494 3.73445 10.7494Z" fill="#3A4757"/>
<path d="M12.267 10.7494C12.5376 10.7494 12.757 10.53 12.757 10.2594C12.757 9.98876 12.5376 9.76939 12.267 9.76939C11.9964 9.76939 11.777 9.98876 11.777 10.2594C11.777 10.53 11.9964 10.7494 12.267 10.7494Z" fill="#3A4757"/>
</svg>