<svg width="12" height="15" viewBox="0 0 12 15" fill="none" xmlns="http://www.w3.org/2000/svg">
<path fill-rule="evenodd" clip-rule="evenodd" d="M12 14.6429C12 14.8401 11.842 15 11.6471 15H0.352942C0.158017 15 0 14.8401 0 14.6429V0.357143C0 0.159898 0.158017 0 0.352942 0H11.6471C11.842 0 12 0.159898 12 0.357143V14.6429ZM11.25 0.75H0.75V14.25L4.5 14.2493V10.875C4.5 10.6909 4.63266 10.5378 4.80759 10.506L4.875 10.5H7.875C8.08211 10.5 8.25 10.6679 8.25 10.875V14.2493L11.25 14.25L11.2493 8.25H0.75V7.5H11.2493V2.25H0.75V1.5H11.2493L11.25 0.75ZM7.5 11.25H5.25V14.2493H7.5V11.25ZM4.125 3C4.33211 3 4.5 3.16789 4.5 3.375V5.625C4.5 5.83211 4.33211 6 4.125 6H1.875C1.66789 6 1.5 5.83211 1.5 5.625V3.375C1.5 3.16789 1.66789 3 1.875 3H4.125ZM10.125 3C10.3321 3 10.5 3.16789 10.5 3.375V5.625C10.5 5.83211 10.3321 6 10.125 6H7.875C7.66789 6 7.5 5.83211 7.5 5.625V3.375C7.5 3.16789 7.66789 3 7.875 3H10.125ZM3.75 3.75H2.25V5.25H3.75V3.75ZM9.75 3.75H8.25V5.25H9.75V3.75Z" fill="#3A4757"/>
</svg>