<svg width="20" height="20" viewBox="0 0 20 20" fill="none" xmlns="http://www.w3.org/2000/svg">
<path d="M10 15.5392C7.18721 15.5392 4.90411 13.2446 4.90411 10.4176V8.15053C4.90411 7.64571 5.31507 7.23268 5.81735 7.23268H14.1826C14.6849 7.23268 15.0959 7.64571 15.0959 8.15053V10.4176C15.0959 13.2446 12.8128 15.5392 10 15.5392ZM6.73059 9.06838V10.4176C6.73059 12.235 8.20091 13.7035 10 13.7035C11.7991 13.7035 13.2694 12.2258 13.2694 10.4176V9.06838H6.73059Z" fill="#3A4757"/>
<path d="M7.72603 9.06838C7.22374 9.06838 6.81279 8.65535 6.81279 8.15053V4.72694C6.81279 4.22212 7.22374 3.80909 7.72603 3.80909C8.22831 3.80909 8.63927 4.22212 8.63927 4.72694V8.15053C8.63927 8.65535 8.22831 9.06838 7.72603 9.06838Z" fill="#3A4757"/>
<path d="M12.274 9.06838C11.7717 9.06838 11.3607 8.65535 11.3607 8.15053V4.72694C11.3607 4.22212 11.7717 3.80909 12.274 3.80909C12.7763 3.80909 13.1872 4.22212 13.1872 4.72694V8.15053C13.1872 8.65535 12.7763 9.06838 12.274 9.06838Z" fill="#3A4757"/>
<path d="M11.2603 20C10.758 20 10.274 19.8256 9.89041 19.486C9.379 19.0546 9.08676 18.4029 9.08676 17.7145V14.6122C9.08676 14.1074 9.49772 13.6944 10 13.6944C10.5023 13.6944 10.9132 14.1074 10.9132 14.6122V17.7145C10.9132 17.8614 10.968 17.9991 11.0685 18.0909C11.169 18.1827 11.2694 18.1643 11.2968 18.1551C15.2785 17.5126 18.1644 14.0982 18.1644 10.0413C18.1644 5.50711 14.4932 1.82653 9.99087 1.82653C5.48858 1.82653 1.82648 5.52547 1.82648 10.0505C1.82648 12.9784 3.38813 15.7045 5.91781 17.1638C6.35616 17.4208 6.50228 17.9807 6.24658 18.4213C5.99087 18.8619 5.43379 19.0087 4.99543 18.7517C1.91781 16.9619 0 13.6301 0 10.0505C0 4.50665 4.48402 0 10 0C15.516 0 20 4.50665 20 10.0505C20 15.0161 16.4658 19.1923 11.589 19.9725C11.4795 19.9908 11.3699 20 11.2511 20H11.2603Z" fill="#3A4757"/>
</svg>