<svg width="16" height="16" viewBox="0 0 16 16" fill="none" xmlns="http://www.w3.org/2000/svg">
<path fill-rule="evenodd" clip-rule="evenodd" d="M15.0837 4.91111L12.9092 7.08485L12.1588 6.33436L14.3332 4.16062C14.5397 3.95338 14.8772 3.95338 15.0837 4.16062C15.2902 4.3671 15.2902 4.70387 15.0837 4.91111ZM11.5073 10.2133C10.6761 11.0445 9.85321 10.9645 8.98159 10.8815C8.3233 10.8175 7.64596 10.755 7.00062 11.0948L4.90537 9.0003C5.24442 8.35419 5.18118 7.67609 5.11794 7.01856C5.03413 6.14769 4.95489 5.32406 5.78614 4.49282L7.51339 2.76632L9.39607 4.64901L13.2338 8.48677L11.5073 10.2133ZM1.71144 15.0804L0.919816 14.2887L3.13164 12.0761C3.23602 12.1912 3.3625 12.3222 3.51869 12.4731C3.67336 12.6331 3.80746 12.7626 3.92403 12.8678L1.71144 15.0804ZM4.41089 9.60373L6.39643 11.5893C5.74957 12.1828 5.06613 12.6567 4.86194 12.6224C4.84746 12.6171 4.81699 12.6003 4.77432 12.5737C4.77127 12.5706 4.77051 12.5661 4.76746 12.563L3.43641 11.2327C3.4326 11.2289 3.42726 11.2274 3.42345 11.2236C3.39907 11.1855 3.38536 11.1596 3.38079 11.1489C3.35183 10.9386 3.81736 10.2506 4.41089 9.60373ZM11.089 0.916392C11.2955 0.709151 11.633 0.709151 11.8395 0.916392C12.0468 1.12287 12.0468 1.4604 11.8395 1.66688L9.66578 3.84062L8.9153 3.09013L11.089 0.916392ZM15.6224 3.62195C15.1188 3.11756 14.2982 3.11756 13.7946 3.62195L11.6201 5.79569L10.2045 4.37929L12.3782 2.20555C12.8826 1.70193 12.8826 0.881344 12.3782 0.377719C11.8746 -0.125906 11.054 -0.125906 10.5504 0.377719L8.37663 2.55146L7.78234 1.95793C7.63986 1.81545 7.38691 1.81545 7.24367 1.95793L5.24747 3.95414C4.16251 5.03987 4.27146 6.17741 4.35984 7.0917C4.42232 7.73933 4.46727 8.30086 4.13889 8.78544C3.46688 9.45821 2.39183 10.6857 2.66535 11.4079C2.66992 11.4201 2.67678 11.4346 2.68288 11.4483L0.111429 14.019C-0.0371431 14.1676 -0.0371431 14.4091 0.111429 14.5577L1.44249 15.8888C1.51639 15.9627 1.61392 16 1.71144 16C1.80897 16 1.90649 15.9627 1.98116 15.8888L4.55184 13.3181C4.56479 13.3242 4.57927 13.3303 4.59146 13.3348C4.6707 13.3645 4.75527 13.3783 4.84518 13.3783C5.57585 13.3783 6.6151 12.4594 7.21396 11.8613C7.69929 11.5321 8.26082 11.5779 8.90844 11.6403C9.82274 11.7287 10.9595 11.8377 12.046 10.7527L14.0422 8.75572C14.1138 8.68486 14.1534 8.5881 14.1534 8.48677C14.1534 8.38543 14.1138 8.28867 14.0422 8.21705L13.4487 7.62352L15.6224 5.44978C16.126 4.94539 16.126 4.12557 15.6224 3.62195Z" fill="#3A4757"/>
</svg>