<svg width="17" height="12" viewBox="0 0 17 12" fill="none" xmlns="http://www.w3.org/2000/svg">
<path fill-rule="evenodd" clip-rule="evenodd" d="M4.33595 0.000325623C6.12464 0.0222224 7.71123 1.14562 8.31488 2.81763C8.89697 4.42993 8.44685 6.22486 7.18799 7.37793L7.0448 7.50336C6.66361 7.89004 6.43041 8.39553 6.38338 8.93264C6.39 8.95584 6.39237 8.98004 6.39237 9.00478C6.39237 9.0404 6.38745 9.07488 6.37825 9.10758L6.37702 11.6418C6.36532 11.8375 6.20593 11.9925 6.00859 12H2.59297C2.38102 12 2.20919 11.8294 2.20919 11.6189V9.00478C2.18287 8.3986 1.90503 7.83028 1.44164 7.43477C0.103197 6.25635 -0.356701 4.3761 0.288282 2.71937C0.933265 1.06264 2.54727 -0.0215711 4.33595 0.000325623ZM12.7055 0.415085C12.8181 0.415085 12.9254 0.462265 13.001 0.545004C13.1699 0.750782 17 5.48368 17 7.73962C16.9958 10.0908 15.0773 11.9958 12.7094 12C10.3385 12 8.41528 10.0938 8.41105 7.73962C8.41105 5.4532 12.2488 0.750782 12.41 0.545004C12.4857 0.462265 12.593 0.415085 12.7055 0.415085ZM5.62468 9.3855H2.97036L2.97675 11.2379H5.62482L5.62468 9.3855ZM12.7094 1.42909C11.4966 2.95337 9.1786 6.25345 9.1786 7.77011C9.26651 9.64077 10.8195 11.1125 12.7055 11.1125C14.5915 11.1125 16.1445 9.64077 16.2324 7.77011C16.2324 6.22296 13.8837 2.95337 12.7094 1.42909ZM15.3229 7.78917C15.5348 7.84178 15.6637 8.05504 15.6107 8.2655C15.3787 9.45028 14.3317 10.3043 13.1162 10.3004H12.9243C12.7872 10.2868 12.6678 10.2016 12.6111 10.0769C12.5544 9.95218 12.5691 9.80691 12.6495 9.69582C12.7299 9.58472 12.8639 9.52467 13.001 9.53828C13.9048 9.60022 14.7056 8.9641 14.8432 8.07497C14.8962 7.86451 15.1109 7.73655 15.3229 7.78917ZM4.35344 0.784337C2.89062 0.760129 1.5663 1.63997 1.03073 2.99183C0.495165 4.3437 0.860849 5.88365 1.94822 6.85554C2.48059 7.31285 2.82779 7.94075 2.93477 8.62333L3.40618 8.6235L3.40658 4.74441C3.40658 4.53395 3.5784 4.36334 3.79036 4.36334C4.0006 4.36739 4.17005 4.53565 4.17414 4.74441L4.1735 8.6235H4.4115L4.41208 4.74441C4.41208 4.53395 4.5839 4.36334 4.79586 4.36334C5.00781 4.36334 5.17964 4.53395 5.17964 4.74441L5.17959 8.6235L5.66501 8.62359C5.77325 7.98385 6.08255 7.39062 6.55356 6.93176C7.67295 5.99638 8.09011 4.46939 7.60021 3.10055C7.11032 1.73171 5.81625 0.808546 4.35344 0.784337Z" fill="#3A4757"/>
</svg>