<svg width="18" height="12" viewBox="0 0 18 12" fill="none" xmlns="http://www.w3.org/2000/svg">
<path fill-rule="evenodd" clip-rule="evenodd" d="M10.2857 0C10.7869 0 11.1989 0.446166 11.2456 1.01666L11.25 1.125V1.875C11.25 2.05909 11.1363 2.21221 10.9863 2.24396L10.9286 2.25H10.5V3H12.8136C13.3984 3 13.8724 3.47573 13.8724 4.06257L13.872 6.3974L13.9412 6.39754C14.4916 6.39754 14.9438 6.81895 14.9952 7.35778L15 7.46011V8.25H15.75V7.875C15.75 7.69091 15.8827 7.53779 16.0576 7.50604L16.125 7.5H16.875C17.4598 7.5 17.9403 7.94617 17.9949 8.51665L18 8.625V10.875C18 11.4598 17.5538 11.9403 16.9833 11.9949L16.875 12H16.125C15.9409 12 15.7878 11.8673 15.756 11.6924L15.75 11.625L15.7493 11.25H15V10.9374C15 11.5243 14.5259 12 13.9412 12H6.87832C6.79315 12 6.71085 11.9691 6.6466 11.913L4.90235 10.3898L3.35294 10.3905C3.17968 10.3905 3.03557 10.2652 3.00569 10.1L3 10.0363V9H2.25075L2.25 9.375L2.24396 9.44241C2.21221 9.61734 2.05909 9.75 1.875 9.75H1.125L1.01665 9.74485C0.446166 9.69034 0 9.20977 0 8.625V6.375L0.00514984 6.26665C0.0596634 5.69617 0.540228 5.25 1.125 5.25H1.875L1.94241 5.25604C2.11734 5.28779 2.25 5.44091 2.25 5.625V6H3V5.2919C3 5.1777 3.05486 5.07051 3.14736 5.004L5.84181 3.06629C5.90175 3.02318 5.97365 3 6.04739 3H7.5V2.25H7.07143C6.91363 2.25 6.78239 2.11734 6.75518 1.94241L6.75 1.875V1.125C6.75 0.540228 7.13243 0.0596634 7.62142 0.00514984L7.71429 0H10.2857ZM12.8136 3.70838H6.16024L3.70588 5.47296V9.68146L5.03571 9.68216C5.09959 9.68216 5.16186 9.69954 5.2161 9.73191L5.26743 9.76918L7.01082 11.2916H13.9412C14.1144 11.2916 14.2585 11.1663 14.2884 11.0011L14.2941 10.9374V7.46011C14.2941 7.2645 14.1361 7.10592 13.9412 7.10592H13.5195C13.3246 7.10592 13.1666 6.94734 13.1666 6.75173V4.06257C13.1666 3.86696 13.0085 3.70838 12.8136 3.70838ZM16.875 8.25H16.5L16.4993 10.5H16.5V11.25H16.875C17.0361 11.25 17.1734 11.1484 17.2265 11.0058L17.244 10.9424L17.25 10.875V8.625C17.25 8.4409 17.1173 8.28779 16.9424 8.25604L16.875 8.25ZM15.75 9H15V10.5H15.7493L15.75 9ZM10.875 6C11.0591 6 11.2122 6.13266 11.244 6.30759L11.25 6.375V9.375C11.25 9.58211 11.0821 9.75 10.875 9.75C10.6909 9.75 10.5378 9.61734 10.506 9.44241L10.5 9.375V6.375C10.5 6.16789 10.6679 6 10.875 6ZM1.5 6H1.125L1.05759 6.00604C0.882656 6.03779 0.75 6.19091 0.75 6.375V8.625L0.756042 8.69241L0.773461 8.75585C0.826556 8.89844 0.963917 9 1.125 9H1.5V8.25H1.50075L1.5 6ZM7.875 5.25C8.0591 5.25 8.21221 5.38266 8.24396 5.55759L8.25 5.625V8.625C8.25 8.83211 8.08211 9 7.875 9C7.69091 9 7.53779 8.86734 7.50604 8.69241L7.5 8.625V5.625C7.5 5.41789 7.66789 5.25 7.875 5.25ZM3 6.75H2.25L2.25075 8.25H3V6.75ZM6.375 6C6.55909 6 6.71221 6.13266 6.74396 6.30759L6.75 6.375V7.875C6.75 8.08211 6.58211 8.25 6.375 8.25C6.19091 8.25 6.03779 8.11734 6.00604 7.94241L6 7.875V6.375C6 6.16789 6.16789 6 6.375 6ZM9.375 6C9.5591 6 9.71221 6.13266 9.74396 6.30759L9.75 6.375V7.875C9.75 8.08211 9.58211 8.25 9.375 8.25C9.1909 8.25 9.03779 8.11734 9.00604 7.94241L9 7.875V6.375C9 6.16789 9.16789 6 9.375 6ZM9.75 2.25H8.25V3H9.75V2.25ZM10.2 0.75H7.8C7.65272 0.75 7.53024 0.882657 7.50483 1.05759L7.5 1.125V1.5H10.5V1.125C10.5 0.963917 10.4187 0.826556 10.3047 0.773461L10.2539 0.756042L10.2 0.75Z" fill="#3A4757"/>
</svg>