<svg width="17" height="20" viewBox="0 0 17 20" fill="none" xmlns="http://www.w3.org/2000/svg">
<path d="M12.7701 2.00002C13.4679 1.99829 14.1612 2.11655 14.8206 2.34988C15.3322 2.53088 15.8907 2.25463 16.0682 1.73285C16.2456 1.21106 15.9748 0.641345 15.4632 0.460342C14.5875 0.150462 13.6664 -0.00516248 12.7394 0.00013061C12.7262 0.00020591 12.713 0.000552909 12.6998 0.00117151C10.2003 0.118462 7.84803 1.24045 6.15726 3.12182C5.21218 4.17345 4.51677 5.41452 4.10508 6.75003H0.980387C0.438934 6.75003 0 7.19775 0 7.75003C0 8.30231 0.438934 8.75003 0.980387 8.75003H3.71008C3.67232 9.16332 3.66056 9.58079 3.67565 10C3.66056 10.4193 3.67232 10.8368 3.71008 11.2501H0.980387C0.438934 11.2501 0 11.6978 0 12.2501C0 12.8023 0.438934 13.2501 0.980387 13.2501H4.10508C4.51677 14.5856 5.21218 15.8266 6.15726 16.8782C7.84803 18.7596 10.2003 19.8816 12.6998 19.9989C12.7083 19.9993 12.7169 19.9996 12.7254 19.9998L12.7416 20C13.8878 20.0039 15.0226 19.7667 16.0748 19.303C16.5719 19.0839 16.8008 18.4954 16.586 17.9884C16.3713 17.4814 15.7943 17.2479 15.2972 17.467C14.4989 17.8188 13.6385 18.0001 12.769 18C10.7951 17.9017 8.93846 17.0132 7.60266 15.5268C6.99692 14.8528 6.52054 14.0806 6.18779 13.2501H9.80379C10.3452 13.2501 10.7842 12.8023 10.7842 12.2501C10.7842 11.6978 10.3452 11.2501 9.80379 11.2501H5.68159C5.63553 10.8513 5.62003 10.4471 5.63634 10.041C5.63743 10.0137 5.63743 9.98638 5.63634 9.95912C5.62003 9.55293 5.63553 9.14873 5.68159 8.75003H9.80379C10.3452 8.75003 10.7842 8.30231 10.7842 7.75003C10.7842 7.19775 10.3452 6.75003 9.80379 6.75003H6.18779C6.52054 5.91948 6.99691 5.1473 7.60266 4.47327C8.9387 2.98662 10.7957 2.09801 12.7701 2.00002Z" fill="#3A4757"/>
</svg>