<svg width="19" height="20" viewBox="0 0 19 20" fill="none" xmlns="http://www.w3.org/2000/svg">
<path fill-rule="evenodd" clip-rule="evenodd" d="M10.2442 0.184012C9.54654 -0.0613387 8.78668 -0.0613373 8.08906 0.184016L2.16923 2.26603C0.866325 2.72426 -0.0299392 3.96575 0.000765157 5.37527C0.0699242 8.5501 0.431339 11.4491 2.2821 14.4484C3.78059 16.8768 5.91345 18.7612 8.41111 19.844L8.41497 19.8456C8.89741 20.0514 9.43581 20.0515 9.91825 19.8456L9.92211 19.844C12.422 18.7603 14.5563 16.8735 16.055 14.4422C17.9052 11.4405 18.2639 8.54861 18.3326 5.37544C18.3631 3.96594 17.4669 2.72425 16.1638 2.26595L10.2442 0.184012ZM8.23999 14.2614C8.76317 14.5424 9.354 14.6829 10.0125 14.6829C10.4364 14.6829 10.8604 14.6149 11.2844 14.4789C11.7173 14.3339 12.0872 14.1164 12.3939 13.8263C12.5202 13.7085 12.5968 13.5816 12.6239 13.4456C12.66 13.3006 12.66 13.1692 12.6239 13.0513C12.5878 12.9244 12.5202 12.8202 12.4209 12.7386C12.3307 12.648 12.218 12.6027 12.0827 12.6027C11.9474 12.5936 11.7985 12.6434 11.6362 12.7522C11.3926 12.9154 11.1491 13.0332 10.9055 13.1057C10.671 13.1692 10.4139 13.2009 10.1343 13.2009C9.78247 13.2009 9.46225 13.1284 9.1736 12.9834C8.88494 12.8293 8.64139 12.5936 8.44294 12.2763C8.29931 12.0358 8.18161 11.7457 8.08984 11.4062H9.59304C9.76443 11.4062 9.90425 11.3473 10.0125 11.2294C10.1298 11.1116 10.1884 10.9711 10.1884 10.8079C10.1884 10.6448 10.1298 10.5043 10.0125 10.3865C9.90425 10.2686 9.76443 10.2097 9.59304 10.2097H7.9C7.89213 10.048 7.88819 9.88027 7.88819 9.70665C7.88819 9.55648 7.89094 9.41598 7.89644 9.28516H9.59304C9.76443 9.28516 9.90425 9.22625 10.0125 9.10841C10.1298 8.99058 10.1884 8.85008 10.1884 8.68693C10.1884 8.52377 10.1298 8.38328 10.0125 8.26544C9.90425 8.14761 9.76443 8.08869 9.59304 8.08869H8.09006C8.1818 7.75114 8.29943 7.46562 8.44294 7.23213C8.64139 6.91488 8.88494 6.68374 9.1736 6.53872C9.46225 6.38462 9.78247 6.30758 10.1343 6.30758C10.4049 6.30758 10.671 6.34384 10.9326 6.41635C11.1942 6.48886 11.4242 6.60216 11.6226 6.75626C11.776 6.87409 11.9203 6.93301 12.0556 6.93301C12.1999 6.92394 12.3172 6.87862 12.4074 6.79704C12.5066 6.7064 12.5743 6.5931 12.6104 6.45714C12.6555 6.32117 12.66 6.18068 12.6239 6.03565C12.5878 5.89063 12.5021 5.7592 12.3668 5.64136C12.0331 5.35131 11.6587 5.14283 11.2438 5.01593C10.8379 4.88903 10.4274 4.82558 10.0125 4.82558C9.354 4.82558 8.76317 4.96608 8.23999 5.24707C7.7168 5.52806 7.28383 5.94048 6.94105 6.48433C6.66444 6.93507 6.45908 7.46985 6.32498 8.08869H5.5474C5.37602 8.08869 5.23169 8.14761 5.11442 8.26544C4.99716 8.37421 4.93853 8.51471 4.93853 8.68693C4.93853 8.85915 4.99716 9.00417 5.11442 9.12201C5.23169 9.23078 5.37602 9.28516 5.5474 9.28516H6.16913C6.16056 9.42732 6.15628 9.57235 6.15628 9.72025C6.15628 9.88005 6.15961 10.0432 6.16628 10.2097H5.5474C5.37602 10.2097 5.23169 10.2686 5.11442 10.3865C4.99716 10.4952 4.93853 10.6357 4.93853 10.8079C4.93853 10.9802 4.99716 11.1252 5.11442 11.243C5.23169 11.3518 5.37602 11.4062 5.5474 11.4062H6.32286C6.45692 12.0242 6.66298 12.5635 6.94105 13.0241C7.28383 13.568 7.7168 13.9804 8.23999 14.2614Z" fill="#3A4757"/>
</svg>