<svg width="17" height="17" viewBox="0 0 17 17" fill="none" xmlns="http://www.w3.org/2000/svg">
<path fill-rule="evenodd" clip-rule="evenodd" d="M8.5 0C13.1944 0 17 3.80558 17 8.5C16.9956 13.1926 13.1926 16.9956 8.5 17C3.80558 17 0 13.1944 0 8.5C0 3.80558 3.80558 0 8.5 0ZM8.5 0.800376C4.24762 0.800376 0.800376 4.24762 0.800376 8.5C0.800376 12.7524 4.24762 16.1996 8.5 16.1996C12.7524 16.1996 16.1996 12.7524 16.1996 8.5C16.1952 4.24944 12.7506 0.804788 8.5 0.800376ZM5.22572 5.62777C6.89404 3.61868 9.96099 3.27482 12.0783 4.862C12.3124 5.03973 12.3495 5.36427 12.1625 5.58605C11.9763 5.80705 11.6378 5.84414 11.4037 5.66873C11.0258 5.38436 10.5939 5.17186 10.1325 5.04127C8.12345 4.47409 6.01236 5.56209 5.41581 7.4715H8.50981C8.80963 7.4715 9.05149 7.70177 9.05149 7.98614C9.05149 8.2705 8.80963 8.50155 8.50981 8.50155H5.25895C5.25972 8.67386 5.27363 8.84618 5.30222 9.01618H8.50981C8.80963 9.01618 9.05149 9.24723 9.05149 9.53159C9.05149 9.81518 8.80963 10.0462 8.50981 10.0462H5.63218C5.76663 10.3144 5.93509 10.5655 6.13368 10.7942C7.46818 12.3289 9.85899 12.546 11.474 11.2772C11.705 11.0948 12.0466 11.125 12.2382 11.3436C12.4299 11.5631 12.3982 11.8884 12.1679 12.07C11.2901 12.757 10.1889 13.1333 9.05149 13.1364C6.98831 13.1325 5.15 11.8954 4.46227 10.0462H3.63313C3.33331 10.0462 3.09068 9.81518 3.09068 9.53159C3.09068 9.24723 3.33331 9.01618 3.63313 9.01618H4.20727C4.18563 8.84541 4.17481 8.67309 4.17481 8.50155H3.63313C3.33331 8.50155 3.09068 8.2705 3.09068 7.98614C3.09068 7.70177 3.33331 7.4715 3.63313 7.4715H4.29922C4.45995 6.79923 4.77677 6.16945 5.22572 5.62777Z" fill="#3A4757"/>
</svg>