<svg width="19" height="20" viewBox="0 0 19 20" fill="none" xmlns="http://www.w3.org/2000/svg">
<path d="M16.1054 2.23499L10.2885 0.18799C9.56554 -0.0626632 8.78441 -0.0626632 8.06145 0.18799L2.24453 2.23499C0.89833 2.70287 -0.0323771 3.98956 0.000862475 5.4517C0.0673416 8.58486 0.424667 11.4674 2.26946 14.4585C3.75693 16.8731 5.88426 18.753 8.36892 19.8308C8.88413 20.0564 9.45751 20.0564 9.97273 19.8308C12.4657 18.753 14.5847 16.8731 16.0722 14.4501C17.917 11.459 18.266 8.58486 18.3325 5.4517C18.3657 3.98956 17.435 2.70287 16.0888 2.23499H16.1054ZM9.70681 1.85901L15.5237 3.906C16.1802 4.13995 16.604 4.74987 16.5874 5.41828C16.5209 8.42611 16.1885 10.9326 14.5847 13.5227C13.2718 15.6533 11.427 17.2742 9.28301 18.2099C9.20822 18.2433 9.12512 18.2433 9.05033 18.2099C6.91469 17.2825 5.06158 15.6533 3.74862 13.5311C2.15312 10.941 1.81242 8.42611 1.74594 5.41828C1.72932 4.74987 2.16143 4.13995 2.8096 3.906L8.62652 1.85901C8.97554 1.73368 9.34948 1.73368 9.69019 1.85901H9.70681Z" fill="#3A4757"/>
<path d="M5.0782 10.2559C4.92863 10.3979 4.85384 10.5817 4.85384 10.7906C4.85384 10.9995 4.92863 11.1916 5.0782 11.3337C5.22778 11.4757 5.4106 11.5426 5.61835 11.5426H6.2499C6.38286 12.1107 6.58229 12.612 6.84821 13.0548C7.19722 13.6146 7.64596 14.0407 8.1861 14.3332C8.72624 14.6256 9.33286 14.7676 10.006 14.7676C10.4381 14.7676 10.8702 14.7008 11.3023 14.5587C11.751 14.4084 12.1333 14.1828 12.4574 13.882C12.5987 13.7483 12.6984 13.5979 12.7316 13.4225C12.7732 13.2554 12.7732 13.0966 12.7316 12.9546C12.6901 12.8042 12.607 12.6705 12.4823 12.5702C12.366 12.4533 12.2164 12.3948 12.0419 12.3948C11.8591 12.3864 11.6846 12.4533 11.5017 12.5702C11.2774 12.7206 11.053 12.8292 10.8286 12.8961C10.6126 12.9546 10.3799 12.9796 10.114 12.9796C9.78991 12.9796 9.50737 12.9128 9.24977 12.7875C9.00047 12.6538 8.7761 12.4449 8.59329 12.1525C8.49357 11.9854 8.40216 11.7849 8.32737 11.5509H9.58216C9.78991 11.5509 9.97273 11.4757 10.114 11.3253C10.2553 11.1833 10.3301 10.9995 10.3301 10.799C10.3301 10.5984 10.2553 10.4146 10.114 10.2726C9.97273 10.1222 9.78991 10.047 9.58216 10.047H8.07807C8.07807 9.93838 8.07807 9.82977 8.07807 9.72115C8.07807 9.6376 8.07807 9.55405 8.07807 9.4705H9.58216C9.78991 9.4705 9.97273 9.3953 10.114 9.24491C10.2553 9.10287 10.3301 8.91906 10.3301 8.71854C10.3301 8.51801 10.2553 8.3342 10.114 8.19217C9.97273 8.04177 9.78991 7.96658 9.58216 7.96658H8.32737C8.40216 7.74099 8.49357 7.54047 8.59329 7.38172C8.7761 7.08929 8.99216 6.88877 9.24146 6.76345C9.49906 6.62141 9.78991 6.55457 10.1057 6.55457C10.355 6.55457 10.6043 6.58799 10.8453 6.65483C11.0863 6.72167 11.2857 6.82193 11.4685 6.96397C11.6347 7.08929 11.8092 7.17285 11.992 7.17285H12.0003C12.1748 7.16449 12.3244 7.106 12.4491 6.99739C12.5737 6.88877 12.6485 6.74674 12.6984 6.58799C12.7482 6.42089 12.7565 6.25379 12.715 6.08668C12.6734 5.90287 12.5654 5.74412 12.4075 5.61044C12.0585 5.30966 11.6763 5.09243 11.2441 4.95875C10.8286 4.82507 10.4132 4.76658 9.98935 4.76658C9.31625 4.76658 8.70962 4.90862 8.16948 5.20104C7.62934 5.49347 7.1806 5.91958 6.83159 6.47937C6.56567 6.91384 6.36624 7.40679 6.23328 7.98329H5.60173C5.39398 7.98329 5.21116 8.05849 5.06158 8.20052C4.91201 8.34256 4.83722 8.52637 4.83722 8.73525C4.83722 8.94413 4.91201 9.13629 5.06158 9.27833C5.21116 9.42036 5.39398 9.48721 5.60173 9.48721H6.04215C6.04215 9.57076 6.04215 9.66266 6.04215 9.74621C6.04215 9.84648 6.04215 9.95509 6.04215 10.0637H5.60173C5.39398 10.0637 5.21116 10.1389 5.06158 10.2809L5.0782 10.2559Z" fill="#3A4757"/>
</svg>