<svg width="16" height="12" viewBox="0 0 16 12" fill="none" xmlns="http://www.w3.org/2000/svg">
<path d="M15.7655 9.0344L13.3655 6.6344C13.2143 6.48322 13.0103 6.4 12.7999 6.4C12.7573 6.4 12.7146 6.40347 12.6717 6.4104C12.4178 6.45175 12.1991 6.61228 12.0842 6.8424C12.0399 6.93122 11.8612 7.30959 11.745 7.804C11.6069 7.61228 11.4789 7.4184 11.3591 7.22534C10.8639 6.42612 10.3522 5.6 8.79994 5.6C8.79994 5.51412 8.78606 5.42853 8.75887 5.34693L7.24312 0.8H7.59994C7.821 0.8 7.99994 0.621062 7.99994 0.4C7.99994 0.178937 7.821 0 7.59994 0H2.79994C2.57888 0 2.39994 0.178937 2.39994 0.4C2.39994 0.621062 2.57888 0.8 2.79994 0.8H3.19994V4H2.39994V2.4H1.59994V4H0.799939C0.358064 4 -6.10352e-05 4.35812 -6.10352e-05 4.8V8.8C-6.10352e-05 9.24187 0.358064 9.6 0.799939 9.6H0.84047C1.02634 10.5117 1.83406 11.2 2.79994 11.2C3.76581 11.2 4.57353 10.5117 4.75941 9.6H6.44047C6.62634 10.5117 7.43406 11.2 8.39994 11.2C9.41459 11.2 10.2461 10.4376 10.3738 9.45706C10.8309 9.73465 11.3757 9.92212 12.0021 9.92212C12.0136 9.92212 12.0184 9.92318 12.029 9.92318C12.0893 10.0067 12.1565 10.088 12.2341 10.1653C12.62 10.5512 13.1536 10.7552 13.7776 10.7552C14.6522 10.7552 15.4674 10.3602 15.5576 10.3152C15.7874 10.2002 15.9482 9.98159 15.9896 9.72771C16.0309 9.4744 15.9474 9.21625 15.7655 9.0344ZM3.99994 0.8H6.39994L7.99994 5.6H3.99994V0.8ZM0.84047 8.8H0.799939V4.8H3.19994V7.24053C3.07059 7.21412 2.937 7.2 2.79994 7.2C1.83406 7.2 1.02634 7.88825 0.84047 8.8ZM2.79994 10.4C2.13728 10.4 1.59994 9.86265 1.59994 9.2C1.59994 8.53734 2.13728 8 2.79994 8C3.46259 8 3.99994 8.53734 3.99994 9.2C3.99994 9.86265 3.46259 10.4 2.79994 10.4ZM6.44047 8.8H4.75941C4.66047 8.31493 4.381 7.89865 3.99994 7.61012V6.4H7.99994V7.24053C7.21753 7.4 6.59994 8.01759 6.44047 8.8ZM8.39994 10.4C7.73728 10.4 7.19994 9.86265 7.19994 9.2C7.19994 8.53734 7.73728 8 8.39994 8C9.06259 8 9.59994 8.53734 9.59994 9.2C9.59994 9.86265 9.06259 10.4 8.39994 10.4ZM10.1207 8.1984C9.83809 7.71493 9.36556 7.356 8.79994 7.24053V6.4C9.90687 6.4 10.2141 6.89572 10.6797 7.6464C10.925 8.04293 11.2167 8.49547 11.6583 8.92212C11.6644 8.97812 11.6757 9.03412 11.6858 9.09012C11.0079 8.99546 10.4711 8.62612 10.1207 8.1984ZM13.7778 9.95547C13.4221 9.95547 13.0666 9.86665 12.7999 9.6C11.9999 8.8 12.7999 7.2 12.7999 7.2L15.1999 9.6C15.1999 9.6 14.4887 9.95547 13.7778 9.95547Z" fill="#3A4757"/>
<path d="M2.81352 9.62727C3.01434 9.62727 3.17714 9.46447 3.17714 9.26365C3.17714 9.06282 3.01434 8.90002 2.81352 8.90002C2.61269 8.90002 2.44989 9.06282 2.44989 9.26365C2.44989 9.46447 2.61269 9.62727 2.81352 9.62727Z" fill="#3A4757"/>
<path d="M8.36356 9.62727C8.56439 9.62727 8.72719 9.46447 8.72719 9.26365C8.72719 9.06282 8.56439 8.90002 8.36356 8.90002C8.16274 8.90002 7.99994 9.06282 7.99994 9.26365C7.99994 9.46447 8.16274 9.62727 8.36356 9.62727Z" fill="#3A4757"/>
</svg>