<svg width="16" height="12" viewBox="0 0 16 12" fill="none" xmlns="http://www.w3.org/2000/svg">
<path d="M15.7656 9.0344L13.3656 6.6344C13.2144 6.48322 13.0104 6.4 12.8 6.4C12.7573 6.4 12.7147 6.40347 12.6717 6.4104C12.4178 6.45175 12.1992 6.61228 12.0842 6.8424C12.04 6.93122 11.8613 7.30959 11.7451 7.804C11.6069 7.61228 11.4789 7.4184 11.3592 7.22534C10.864 6.42612 10.3523 5.6 8.8 5.6C8.8 5.51412 8.78612 5.42853 8.75893 5.34693L7.24319 0.8H7.6C7.82106 0.8 8 0.621062 8 0.4C8 0.178937 7.82106 0 7.6 0H2.8C2.57894 0 2.4 0.178937 2.4 0.4C2.4 0.621062 2.57894 0.8 2.8 0.8H3.2V4H2.4V2.4H1.6V4H0.8C0.358125 4 0 4.35812 0 4.8V8.8C0 9.24187 0.358125 9.6 0.8 9.6H0.840531C1.02641 10.5117 1.83412 11.2 2.8 11.2C3.76587 11.2 4.57359 10.5117 4.75947 9.6H6.44053C6.6264 10.5117 7.43412 11.2 8.4 11.2C9.41465 11.2 10.2461 10.4376 10.3739 9.45706C10.8309 9.73465 11.3757 9.92212 12.0022 9.92212C12.0136 9.92212 12.0184 9.92318 12.0291 9.92318C12.0894 10.0067 12.1566 10.088 12.2342 10.1653C12.62 10.5512 13.1536 10.7552 13.7776 10.7552C14.6523 10.7552 15.4675 10.3602 15.5576 10.3152C15.7875 10.2002 15.9483 9.98159 15.9896 9.72771C16.0309 9.4744 15.9475 9.21625 15.7656 9.0344ZM4 0.8H6.4L8 5.6H4V0.8ZM0.840531 8.8H0.8V4.8H3.2V7.24053C3.07066 7.21412 2.93706 7.2 2.8 7.2C1.83412 7.2 1.02641 7.88825 0.840531 8.8ZM2.8 10.4C2.13734 10.4 1.6 9.86265 1.6 9.2C1.6 8.53734 2.13734 8 2.8 8C3.46266 8 4 8.53734 4 9.2C4 9.86265 3.46266 10.4 2.8 10.4ZM6.44053 8.8H4.75947C4.66053 8.31493 4.38106 7.89865 4 7.61012V6.4H8V7.24053C7.21759 7.4 6.6 8.01759 6.44053 8.8ZM8.4 10.4C7.73734 10.4 7.2 9.86265 7.2 9.2C7.2 8.53734 7.73734 8 8.4 8C9.06265 8 9.6 8.53734 9.6 9.2C9.6 9.86265 9.06265 10.4 8.4 10.4ZM10.1208 8.1984C9.83815 7.71493 9.36562 7.356 8.8 7.24053V6.4C9.90693 6.4 10.2141 6.89572 10.6797 7.6464C10.9251 8.04293 11.2168 8.49547 11.6584 8.92212C11.6645 8.97812 11.6757 9.03412 11.6858 9.09012C11.008 8.99546 10.4712 8.62612 10.1208 8.1984ZM13.7779 9.95547C13.4222 9.95547 13.0667 9.86665 12.8 9.6C12 8.8 12.8 7.2 12.8 7.2L15.2 9.6C15.2 9.6 14.4888 9.95547 13.7779 9.95547Z" fill="#3A4757"/>
<path d="M2.81358 9.62727C3.0144 9.62727 3.1772 9.46447 3.1772 9.26365C3.1772 9.06282 3.0144 8.90002 2.81358 8.90002C2.61275 8.90002 2.44995 9.06282 2.44995 9.26365C2.44995 9.46447 2.61275 9.62727 2.81358 9.62727Z" fill="#3A4757"/>
<path d="M8.36362 9.62727C8.56445 9.62727 8.72725 9.46447 8.72725 9.26365C8.72725 9.06282 8.56445 8.90002 8.36362 8.90002C8.1628 8.90002 8 9.06282 8 9.26365C8 9.46447 8.1628 9.62727 8.36362 9.62727Z" fill="#3A4757"/>
</svg>