<svg width="20" height="20" viewBox="0 0 20 20" fill="none" xmlns="http://www.w3.org/2000/svg">
<path fill-rule="evenodd" clip-rule="evenodd" d="M10 0C10.2919 0 10.5693 0.127563 10.7593 0.349209L14.9131 5.19537C15.2725 5.6147 15.224 6.246 14.8047 6.60542C14.3853 6.96484 13.754 6.91628 13.3946 6.49695L11.0001 3.70331L11.0002 13.4615C11.0002 14.0138 10.5525 14.4616 10.0002 14.4616C9.44791 14.4616 9.00019 14.0139 9.00018 13.4616L9.00005 3.70322L6.60542 6.49695C6.246 6.91628 5.6147 6.96484 5.19537 6.60542C4.77604 6.246 4.72748 5.6147 5.08691 5.19537L9.24076 0.349209C9.43074 0.127563 9.70809 0 10 0ZM1 13.8461C1.55229 13.8461 2 14.2939 2 14.8461V16.2308C2 16.7 2.1864 17.15 2.5182 17.4818C2.85 17.8136 3.30001 18 3.76924 18H16.2308C16.7 18 17.15 17.8136 17.4818 17.4818C17.8136 17.15 18 16.7 18 16.2308V14.8461C18 14.2939 18.4477 13.8461 19 13.8461C19.5523 13.8461 20 14.2939 20 14.8461V16.2308C20 17.2304 19.6029 18.1891 18.896 18.896C18.1892 19.6029 17.2305 20 16.2308 20H3.76924C2.76957 20 1.81085 19.6029 1.10398 18.896C0.397115 18.1891 0 17.2304 0 16.2308V14.8461C0 14.2939 0.447716 13.8461 1 13.8461Z" fill="#3A4757"/>
</svg>