<svg width="20" height="15" viewBox="0 0 20 15" fill="none" xmlns="http://www.w3.org/2000/svg">
<path d="M12.3817 7.5C12.3817 8.88071 11.2624 10 9.88171 10C8.501 10 7.38171 8.88071 7.38171 7.5C7.38171 6.11929 8.501 5 9.88171 5C11.2624 5 12.3817 6.11929 12.3817 7.5Z" fill="#3A4757"/>
<path fill-rule="evenodd" clip-rule="evenodd" d="M0.238247 6.57577C1.45289 4.37262 4.6312 0 9.88171 0C15.1322 0 18.3105 4.37262 19.5252 6.57577C19.8428 7.15195 19.8428 7.84804 19.5252 8.42424C18.3105 10.6274 15.1322 15 9.88171 15C4.6312 15 1.45289 10.6274 0.238248 8.42423C-0.0794152 7.84805 -0.0794164 7.15195 0.238247 6.57577ZM9.88171 12C12.367 12 14.3817 9.98528 14.3817 7.5C14.3817 5.01472 12.367 3 9.88171 3C7.39643 3 5.38171 5.01472 5.38171 7.5C5.38171 9.98528 7.39643 12 9.88171 12Z" fill="#3A4757"/>
</svg>