<svg width="20" height="18" viewBox="0 0 20 18" fill="none" xmlns="http://www.w3.org/2000/svg">
<path fill-rule="evenodd" clip-rule="evenodd" d="M0.306841 16.0211C-0.10228 16.4302 -0.10228 17.0936 0.306841 17.5027C0.715961 17.9118 1.37928 17.9118 1.7884 17.5027L17.5027 1.7884C17.9118 1.37928 17.9118 0.715961 17.5027 0.30684C17.0936 -0.10228 16.4302 -0.10228 16.0211 0.30684L13.2575 3.07052C12.2652 2.68523 11.164 2.45239 9.95239 2.45239C4.70188 2.45239 1.52357 6.82501 0.308926 9.02816C-0.00873771 9.60435 -0.00873652 10.3004 0.308926 10.8766C0.756686 11.6888 1.47129 12.7958 2.45818 13.8698L0.306841 16.0211ZM5.53144 10.7965L10.7965 5.53144C10.5231 5.47955 10.2409 5.45239 9.95239 5.45239C7.46711 5.45239 5.45239 7.46711 5.45239 9.95239C5.45239 10.2409 5.47955 10.5231 5.53144 10.7965Z" fill="#3A4757"/>
<path d="M5.56855 16.3362C6.82261 17.0102 8.28272 17.4524 9.95239 17.4524C15.2029 17.4524 18.3812 13.0798 19.5958 10.8766C19.9135 10.3004 19.9135 9.60434 19.5958 9.02816C19.0368 8.01406 18.0616 6.54032 16.6599 5.24493L13.9739 7.9309C14.28 8.5387 14.4524 9.22542 14.4524 9.95239C14.4524 12.4377 12.4377 14.4524 9.95239 14.4524C9.22542 14.4524 8.5387 14.28 7.9309 13.9739L5.56855 16.3362Z" fill="#3A4757"/>
<path d="M9.95239 12.4524C9.79591 12.4524 9.64279 12.438 9.49427 12.4105L12.4105 9.49427C12.438 9.64279 12.4524 9.79591 12.4524 9.95239C12.4524 11.3331 11.3331 12.4524 9.95239 12.4524Z" fill="#3A4757"/>
</svg>