<svg width="20" height="15" viewBox="0 0 20 15" fill="none" xmlns="http://www.w3.org/2000/svg">
<path fill-rule="evenodd" clip-rule="evenodd" d="M2.01261 7.5C3.18171 9.60221 5.84021 13 9.88171 13C13.9232 13 16.5817 9.60221 17.7508 7.5C16.5817 5.39778 13.9232 2 9.88171 2C5.84021 2 3.18171 5.39779 2.01261 7.5ZM0.238247 6.57577C1.45289 4.37262 4.6312 0 9.88171 0C15.1322 0 18.3105 4.37261 19.5252 6.57577C19.8428 7.15195 19.8428 7.84804 19.5252 8.42423C18.3105 10.6274 15.1322 15 9.88171 15C4.6312 15 1.45289 10.6274 0.238248 8.42423C-0.0794152 7.84805 -0.0794164 7.15196 0.238247 6.57577Z" fill="#3A4757"/>
<path fill-rule="evenodd" clip-rule="evenodd" d="M9.88171 9.5C10.9863 9.5 11.8817 8.60457 11.8817 7.5C11.8817 6.39543 10.9863 5.5 9.88171 5.5C8.77714 5.5 7.88171 6.39543 7.88171 7.5C7.88171 8.60457 8.77714 9.5 9.88171 9.5ZM9.88171 11.5C12.0908 11.5 13.8817 9.70914 13.8817 7.5C13.8817 5.29086 12.0908 3.5 9.88171 3.5C7.67257 3.5 5.88171 5.29086 5.88171 7.5C5.88171 9.70914 7.67257 11.5 9.88171 11.5Z" fill="#3A4757"/>
</svg>