<svg width="20" height="18" viewBox="0 0 20 18" fill="none" xmlns="http://www.w3.org/2000/svg">
<path d="M5.56855 16.3362C6.82261 17.0102 8.28272 17.4524 9.95239 17.4524C15.2029 17.4524 18.3812 13.0798 19.5958 10.8766C19.9135 10.3004 19.9135 9.60435 19.5958 9.02816C19.0368 8.01406 18.0616 6.54032 16.6599 5.24493L15.2448 6.66001C16.4169 7.72405 17.2793 8.97753 17.8215 9.95239C16.6524 12.0546 13.9939 15.4524 9.95239 15.4524C8.89499 15.4524 7.93226 15.2198 7.0661 14.8387L5.56855 16.3362Z" fill="#3A4757"/>
<path d="M8.3059 13.5989C8.80804 13.826 9.36545 13.9524 9.95239 13.9524C12.1615 13.9524 13.9524 12.1615 13.9524 9.95239C13.9524 9.36546 13.826 8.80804 13.5989 8.3059L11.9524 9.95239C11.9524 11.057 11.057 11.9524 9.95239 11.9524L8.3059 13.5989Z" fill="#3A4757"/>
<path d="M10.3555 5.97246L5.97245 10.3555C5.95918 10.223 5.95239 10.0885 5.95239 9.95239C5.95239 7.74325 7.74325 5.95239 9.95239 5.95239C10.0885 5.95239 10.223 5.95919 10.3555 5.97246Z" fill="#3A4757"/>
<path d="M11.6652 4.66284C11.1251 4.5277 10.5541 4.45239 9.95239 4.45239C5.91089 4.45239 3.25239 7.85018 2.08329 9.95239C2.49582 10.6942 3.09379 11.5973 3.87253 12.4555L2.45818 13.8698C1.47129 12.7958 0.756685 11.6888 0.308926 10.8766C-0.00873655 10.3004 -0.00873774 9.60435 0.308926 9.02816C1.52357 6.82501 4.70188 2.45239 9.95239 2.45239C11.164 2.45239 12.2652 2.68523 13.2575 3.07052L11.6652 4.66284Z" fill="#3A4757"/>
<path fill-rule="evenodd" clip-rule="evenodd" d="M0.306841 17.5027C-0.10228 17.0936 -0.10228 16.4302 0.306841 16.0211L16.0211 0.30684C16.4302 -0.10228 17.0936 -0.10228 17.5027 0.30684C17.9118 0.715961 17.9118 1.37928 17.5027 1.7884L1.7884 17.5027C1.37928 17.9118 0.715961 17.9118 0.306841 17.5027Z" fill="#3A4757"/>
</svg>