<svg width="15" height="15" viewBox="0 0 15 15" fill="none" xmlns="http://www.w3.org/2000/svg">
<path fill-rule="evenodd" clip-rule="evenodd" d="M5.25 14.6118C5.25 14.8262 5.08211 15 4.875 15C4.69091 15 4.53779 14.8627 4.50604 14.6816L4.5 14.6118V13.5H3.97431C2.65491 13.5 1.57671 12.5773 1.50392 11.4147L1.5 11.2893V9.74925L0.388199 9.75C0.173802 9.75 0 9.58211 0 9.375C0 9.1909 0.137326 9.03779 0.31842 9.00604L0.388199 9L1.5 8.99925V7.49925L0.388199 7.5C0.173802 7.5 0 7.33211 0 7.125C0 6.94091 0.137326 6.78779 0.31842 6.75604L0.388199 6.75L1.5 6.74925V5.24925L0.388199 5.25C0.173802 5.25 0 5.08211 0 4.875C0 4.69091 0.137326 4.53779 0.31842 4.50604L0.388199 4.5L1.5 4.49925V3.71071C1.5 2.53187 2.5327 1.56853 3.8339 1.5035L3.97431 1.5H4.5V0.388199C4.5 0.173802 4.66789 0 4.875 0C5.05909 0 5.21221 0.137326 5.24396 0.31842L5.25 0.388199V1.5H6.75V0.388199C6.75 0.173802 6.91789 0 7.125 0C7.30909 0 7.46221 0.137326 7.49396 0.31842L7.5 0.388199V1.5H9V0.388199C9 0.173802 9.16789 0 9.375 0C9.5591 0 9.71221 0.137326 9.74396 0.31842L9.75 0.388199V1.5H11.0257C12.3451 1.5 13.4233 2.42269 13.4961 3.58526L13.5 3.71071V4.5H14.611C14.8258 4.5 15 4.66789 15 4.875C15 5.05909 14.8624 5.21221 14.6809 5.24396L14.611 5.25H13.5V6.75H14.611C14.8258 6.75 15 6.91789 15 7.125C15 7.30909 14.8624 7.46221 14.6809 7.49396L14.611 7.5H13.5V9H14.611C14.8258 9 15 9.16789 15 9.375C15 9.5591 14.8624 9.71221 14.6809 9.74396L14.611 9.75H13.5V11.2893C13.5 12.4681 12.4673 13.4315 11.1661 13.4965L11.0257 13.5H9.75V14.6118C9.75 14.8262 9.58211 15 9.375 15C9.1909 15 9.03779 14.8627 9.00604 14.6816L9 14.6118V13.5H7.5V14.6118C7.5 14.8262 7.33211 15 7.125 15C6.94091 15 6.78779 14.8627 6.75604 14.6816L6.75 14.6118V13.5H5.25V14.6118ZM4.5 2.24925L3.94689 2.25C3.00972 2.25 2.25 2.91799 2.25 3.74199V4.49925L3.3618 4.5C3.5762 4.5 3.75 4.66789 3.75 4.875C3.75 5.05909 3.61267 5.21221 3.43158 5.24396L3.3618 5.25L2.25 5.24925V6.74925L3.3618 6.75C3.5762 6.75 3.75 6.91789 3.75 7.125C3.75 7.30909 3.61267 7.46221 3.43158 7.49396L3.3618 7.5L2.25 7.49925V8.99925L3.3618 9C3.5762 9 3.75 9.16789 3.75 9.375C3.75 9.5591 3.61267 9.71221 3.43158 9.74396L3.3618 9.75L2.25 9.74925V11.258C2.25 12.0462 2.9451 12.6916 3.8257 12.7463L3.94689 12.75L4.5 12.7493V11.6382C4.5 11.4238 4.66789 11.25 4.875 11.25C5.05909 11.25 5.21221 11.3873 5.24396 11.5684L5.25 11.6382V12.7493H6.75V11.6382C6.75 11.4238 6.91789 11.25 7.125 11.25C7.30909 11.25 7.46221 11.3873 7.49396 11.5684L7.5 11.6382V12.7493H9V11.6382C9 11.4238 9.16789 11.25 9.375 11.25C9.5591 11.25 9.71221 11.3873 9.74396 11.5684L9.75 11.6382V12.7493L11.0531 12.75C11.9495 12.75 12.6836 12.1388 12.7457 11.3646L12.75 11.258V9.75H11.639C11.4242 9.75 11.25 9.58211 11.25 9.375C11.25 9.1909 11.3876 9.03779 11.5691 9.00604L11.639 9H12.75V7.5H11.639C11.4242 7.5 11.25 7.33211 11.25 7.125C11.25 6.94091 11.3876 6.78779 11.5691 6.75604L11.639 6.75H12.75V5.25H11.639C11.4242 5.25 11.25 5.08211 11.25 4.875C11.25 4.69091 11.3876 4.53779 11.5691 4.50604L11.639 4.5H12.75V3.74199C12.75 2.95382 12.0549 2.30838 11.1743 2.25375L11.0531 2.25L9.75 2.24925V3.3618C9.75 3.5762 9.58211 3.75 9.375 3.75C9.1909 3.75 9.03779 3.61267 9.00604 3.43158L9 3.3618V2.24925H7.5V3.3618C7.5 3.5762 7.33211 3.75 7.125 3.75C6.94091 3.75 6.78779 3.61267 6.75604 3.43158L6.75 3.3618V2.24925H5.25V3.3618C5.25 3.5762 5.08211 3.75 4.875 3.75C4.69091 3.75 4.53779 3.61267 4.50604 3.43158L4.5 3.3618V2.24925Z" fill="#3A4757"/>
</svg>