<svg width="20" height="20" viewBox="0 0 20 20" fill="none" xmlns="http://www.w3.org/2000/svg">
<path d="M17.6167 20H13.4667C12.9167 20 12.4667 19.55 12.4667 19V12.4333C12.4667 11.8833 12.9167 11.4333 13.4667 11.4333H14.2917V10.675H13.5167C12.9667 10.675 12.5167 10.225 12.5167 9.675V8.375C12.5167 6.94167 13.2083 6.20833 14.5667 6.20833H15.1V5.45H13.6667C13.3083 5.43333 12.9917 5.5 12.6917 5.61667C12.4 5.74167 12.1333 5.925 11.9167 6.15833C11.7 6.39167 11.5333 6.675 11.4417 6.975C11.3417 7.28333 11.3167 7.6 11.35 7.91667C11.35 7.95833 11.35 8 11.35 8.04167V9.65833C11.35 10.2083 10.9 10.6583 10.35 10.6583H9.60833V11.4167H10.35C10.9 11.4167 11.35 11.8667 11.35 12.4167V18.9833C11.35 19.5333 10.9 19.9833 10.35 19.9833H2.38333C1.75 19.9833 1.15 19.7333 0.7 19.2833C0.25 18.8333 0 18.2333 0 17.6V2.38333C0 1.75 0.25 1.15 0.7 0.7C1.15 0.25 1.75 0 2.38333 0H17.6167C18.25 0 18.85 0.25 19.3 0.7C19.75 1.15 20 1.75 20 2.38333V17.6167C20 18.25 19.75 18.85 19.3 19.3C18.85 19.75 18.25 20 17.6167 20ZM14.4667 18H17.6167C17.7167 18 17.8167 17.9583 17.8917 17.8833C17.9667 17.8083 18 17.7167 18 17.6083V2.38333C18 2.28333 17.9583 2.18333 17.8917 2.10833C17.825 2.03333 17.725 2 17.6167 2H2.38333C2.28333 2 2.18333 2.04167 2.10833 2.10833C2.03333 2.18333 2 2.275 2 2.38333V17.6167C2 17.7167 2.04167 17.8167 2.10833 17.8917C2.18333 17.9667 2.275 18 2.38333 18H9.35833V13.4333C9.16667 13.425 8.95833 13.3833 8.76667 13.3C8.54167 13.2083 8.34167 13.075 8.16667 12.9083C7.99167 12.7333 7.85 12.5333 7.75833 12.3083C7.65833 12.075 7.61667 11.8417 7.61667 11.5917V10.525C7.61667 10.2833 7.66667 10.0417 7.75833 9.81667C7.85833 9.58333 7.99167 9.38333 8.16667 9.20833C8.34167 9.04167 8.54167 8.9 8.775 8.80833C8.96667 8.73333 9.15833 8.69167 9.35833 8.68333V8.11667C9.29167 7.525 9.35833 6.94167 9.53333 6.38333C9.71667 5.80833 10.0333 5.26667 10.4417 4.81667C10.85 4.375 11.3583 4.01667 11.9167 3.78333C12.475 3.55 13.1 3.44167 13.6917 3.45833H15.25C15.5333 3.46667 15.775 3.525 15.9917 3.625C16.2083 3.725 16.4083 3.86667 16.575 4.04167C16.7417 4.21667 16.875 4.425 16.9583 4.65833C17.0417 4.89167 17.0833 5.125 17.075 5.375V6.36667C17.075 6.6 17.0333 6.84167 16.9333 7.075C16.8333 7.30833 16.6917 7.51667 16.5083 7.68333C16.3833 7.81667 16.175 7.975 15.9333 8.06667C15.7 8.16667 15.4333 8.21667 15.175 8.2H14.5417C14.5417 8.2 14.5083 8.2 14.4917 8.2C14.4917 8.24167 14.4917 8.3 14.4917 8.36667V8.66667C14.7167 8.66667 14.925 8.725 15.1333 8.80833C15.35 8.9 15.5583 9.03333 15.725 9.20833C15.8917 9.375 16.025 9.575 16.125 9.8C16.2167 10.025 16.2667 10.2667 16.2667 10.5083V11.575C16.2667 12.0583 16.0667 12.5333 15.725 12.8833C15.3833 13.2333 14.925 13.4167 14.4417 13.425V17.9917L14.4667 18Z" fill="#3A4757"/>
</svg>