<svg width="20" height="21" viewBox="0 0 20 21" fill="none" xmlns="http://www.w3.org/2000/svg">
<path d="M0 18.8614V1.93836C0 1.53034 0.162087 1.13902 0.450605 0.850507C0.739123 0.56199 1.13044 0.399902 1.53846 0.399902H18.4615C18.8696 0.399902 19.2609 0.56199 19.5494 0.850507C19.8379 1.13902 20 1.53034 20 1.93836V18.8614C20 19.2695 19.8379 19.6608 19.5494 19.9493C19.2609 20.2378 18.8696 20.3999 18.4615 20.3999H13.8462V13.1076H14.9385C15.1874 13.1076 15.4261 13.0087 15.6021 12.8327C15.7781 12.6567 15.8769 12.418 15.8769 12.1691V10.9845C15.8769 10.8613 15.8526 10.7392 15.8055 10.6254C15.7583 10.5115 15.6892 10.4081 15.6021 10.3209C15.5149 10.2338 15.4115 10.1647 15.2976 10.1175C15.1837 10.0703 15.0617 10.0461 14.9385 10.0461H13.9077V8.5999C13.9077 7.30759 14.4923 7.30759 15.0769 7.30759H15.8308C15.9546 7.3127 16.078 7.29054 16.1923 7.24269C16.3066 7.19483 16.409 7.12246 16.4923 7.03067C16.5817 6.94556 16.6525 6.84282 16.7002 6.72895C16.7478 6.61508 16.7713 6.49256 16.7692 6.36913V5.23067C16.7733 5.10539 16.7527 4.98054 16.7085 4.86324C16.6644 4.74593 16.5975 4.63849 16.5118 4.54705C16.426 4.4556 16.3231 4.38195 16.2089 4.33031C16.0947 4.27866 15.9714 4.25003 15.8462 4.24606H14.0769C13.5607 4.22665 13.0464 4.31953 12.5696 4.5183C12.0927 4.71706 11.6647 5.01696 11.3151 5.39729C10.9655 5.77762 10.7026 6.22931 10.5446 6.72115C10.3866 7.213 10.3373 7.73328 10.4 8.24606V10.0461H9.41538C9.29086 10.044 9.16717 10.0668 9.05153 10.113C8.93588 10.1593 8.8306 10.2281 8.74182 10.3154C8.65304 10.4028 8.58254 10.5069 8.53442 10.6218C8.4863 10.7367 8.46152 10.86 8.46154 10.9845V12.1691C8.46152 12.2937 8.4863 12.417 8.53442 12.5319C8.58254 12.6467 8.65304 12.7509 8.74182 12.8382C8.8306 12.9256 8.93588 12.9944 9.05153 13.0406C9.16717 13.0869 9.29086 13.1096 9.41538 13.1076H10.4V20.3999H1.53846C1.13044 20.3999 0.739123 20.2378 0.450605 19.9493C0.162087 19.6608 0 19.2695 0 18.8614Z" fill="#3A4757"/>
</svg>