<svg width="20" height="20" viewBox="0 0 20 20" fill="none" xmlns="http://www.w3.org/2000/svg">
<path d="M0 18.4615V1.53846C0 1.13044 0.162087 0.739123 0.450605 0.450605C0.739123 0.162087 1.13044 0 1.53846 0H18.4615C18.8696 0 19.2609 0.162087 19.5494 0.450605C19.8379 0.739123 20 1.13044 20 1.53846V18.4615C20 18.8696 19.8379 19.2609 19.5494 19.5494C19.2609 19.8379 18.8696 20 18.4615 20H13.8462V12.7077H14.9385C15.1874 12.7077 15.4261 12.6088 15.6021 12.4328C15.7781 12.2568 15.8769 12.0181 15.8769 11.7692V10.5846C15.8769 10.4614 15.8526 10.3393 15.8055 10.2255C15.7583 10.1116 15.6892 10.0082 15.6021 9.92102C15.5149 9.83388 15.4115 9.76475 15.2976 9.71759C15.1837 9.67043 15.0617 9.64615 14.9385 9.64615H13.9077V8.2C13.9077 6.90769 14.4923 6.90769 15.0769 6.90769H15.8308C15.9546 6.91279 16.078 6.89063 16.1923 6.84278C16.3066 6.79493 16.409 6.72255 16.4923 6.63077C16.5817 6.54565 16.6525 6.44291 16.7002 6.32904C16.7478 6.21518 16.7713 6.09266 16.7692 5.96923V4.83077C16.7733 4.70549 16.7527 4.58063 16.7085 4.46333C16.6644 4.34603 16.5975 4.23859 16.5118 4.14715C16.426 4.0557 16.3231 3.98205 16.2089 3.93041C16.0947 3.87876 15.9714 3.85013 15.8462 3.84615H14.0769C13.5607 3.82675 13.0464 3.91963 12.5696 4.1184C12.0927 4.31716 11.6647 4.61706 11.3151 4.99739C10.9655 5.37772 10.7026 5.8294 10.5446 6.32125C10.3866 6.81309 10.3373 7.33337 10.4 7.84615V9.64615H9.41538C9.29086 9.64411 9.16717 9.66688 9.05153 9.71313C8.93588 9.75937 8.8306 9.82818 8.74182 9.91552C8.65304 10.0029 8.58254 10.107 8.53442 10.2219C8.4863 10.3368 8.46152 10.4601 8.46154 10.5846V11.7692C8.46152 11.8938 8.4863 12.0171 8.53442 12.132C8.58254 12.2468 8.65304 12.351 8.74182 12.4383C8.8306 12.5257 8.93588 12.5945 9.05153 12.6407C9.16717 12.687 9.29086 12.7097 9.41538 12.7077H10.4V20H1.53846C1.13044 20 0.739123 19.8379 0.450605 19.5494C0.162087 19.2609 0 18.8696 0 18.4615Z" fill="#3A4757"/>
</svg>