<svg width="20" height="21" viewBox="0 0 20 21" fill="none" xmlns="http://www.w3.org/2000/svg">
<path d="M17.6167 20.3999H13.4667C12.9167 20.3999 12.4667 19.9499 12.4667 19.3999V12.8332C12.4667 12.2832 12.9167 11.8332 13.4667 11.8332H14.2917V11.0749H13.5167C12.9667 11.0749 12.5167 10.6249 12.5167 10.0749V8.7749C12.5167 7.34157 13.2083 6.60824 14.5667 6.60824H15.1V5.8499H13.6667C13.3083 5.83324 12.9917 5.8999 12.6917 6.01657C12.4 6.14157 12.1333 6.3249 11.9167 6.55824C11.7 6.79157 11.5333 7.0749 11.4417 7.3749C11.3417 7.68324 11.3167 7.9999 11.35 8.31657C11.35 8.35824 11.35 8.3999 11.35 8.44157V10.0582C11.35 10.6082 10.9 11.0582 10.35 11.0582H9.60833V11.8166H10.35C10.9 11.8166 11.35 12.2666 11.35 12.8166V19.3832C11.35 19.9332 10.9 20.3832 10.35 20.3832H2.38333C1.75 20.3832 1.15 20.1332 0.7 19.6832C0.25 19.2332 0 18.6332 0 17.9999V2.78324C0 2.1499 0.25 1.5499 0.7 1.0999C1.15 0.649902 1.75 0.399902 2.38333 0.399902H17.6167C18.25 0.399902 18.85 0.649902 19.3 1.0999C19.75 1.5499 20 2.1499 20 2.78324V18.0166C20 18.6499 19.75 19.2499 19.3 19.6999C18.85 20.1499 18.25 20.3999 17.6167 20.3999ZM14.4667 18.3999H17.6167C17.7167 18.3999 17.8167 18.3582 17.8917 18.2832C17.9667 18.2082 18 18.1166 18 18.0082V2.78324C18 2.68324 17.9583 2.58324 17.8917 2.50824C17.825 2.43324 17.725 2.3999 17.6167 2.3999H2.38333C2.28333 2.3999 2.18333 2.44157 2.10833 2.50824C2.03333 2.58324 2 2.6749 2 2.78324V18.0166C2 18.1166 2.04167 18.2166 2.10833 18.2916C2.18333 18.3666 2.275 18.3999 2.38333 18.3999H9.35833V13.8332C9.16667 13.8249 8.95833 13.7832 8.76667 13.6999C8.54167 13.6082 8.34167 13.4749 8.16667 13.3082C7.99167 13.1332 7.85 12.9332 7.75833 12.7082C7.65833 12.4749 7.61667 12.2416 7.61667 11.9916V10.9249C7.61667 10.6832 7.66667 10.4416 7.75833 10.2166C7.85833 9.98324 7.99167 9.78324 8.16667 9.60824C8.34167 9.44157 8.54167 9.2999 8.775 9.20823C8.96667 9.13323 9.15833 9.09157 9.35833 9.08324V8.51657C9.29167 7.9249 9.35833 7.34157 9.53333 6.78324C9.71667 6.20824 10.0333 5.66657 10.4417 5.21657C10.85 4.7749 11.3583 4.41657 11.9167 4.18324C12.475 3.9499 13.1 3.84157 13.6917 3.85824H15.25C15.5333 3.86657 15.775 3.9249 15.9917 4.0249C16.2083 4.1249 16.4083 4.26657 16.575 4.44157C16.7417 4.61657 16.875 4.8249 16.9583 5.05824C17.0417 5.29157 17.0833 5.5249 17.075 5.7749V6.76657C17.075 6.9999 17.0333 7.24157 16.9333 7.4749C16.8333 7.70824 16.6917 7.91657 16.5083 8.08324C16.3833 8.21657 16.175 8.3749 15.9333 8.46657C15.7 8.56657 15.4333 8.61657 15.175 8.5999H14.5417C14.5417 8.5999 14.5083 8.5999 14.4917 8.5999C14.4917 8.64157 14.4917 8.6999 14.4917 8.76657V9.06657C14.7167 9.06657 14.925 9.1249 15.1333 9.20823C15.35 9.2999 15.5583 9.43324 15.725 9.60824C15.8917 9.7749 16.025 9.9749 16.125 10.1999C16.2167 10.4249 16.2667 10.6666 16.2667 10.9082V11.9749C16.2667 12.4582 16.0667 12.9332 15.725 13.2832C15.3833 13.6332 14.925 13.8166 14.4417 13.8249V18.3916L14.4667 18.3999Z" fill="#3A4757"/>
</svg>