<svg width="18" height="20" viewBox="0 0 18 20" fill="none" xmlns="http://www.w3.org/2000/svg">
<path fill-rule="evenodd" clip-rule="evenodd" d="M8.97685 0C6.48749 0 4.496 1.91739 4.496 4.21826C4.496 5.75217 5.39217 7.09434 6.68664 7.86129C3.89855 8.05303 2.30536 10.4498 1.50876 12.2713C0.756495 14.263 0.424179 16.2435 0.0151416 18.3111C-0.084433 18.8863 0.313865 19.4615 1.01089 19.5574C1.70791 19.6532 2.20578 19.2698 2.30536 18.5987C2.58028 16.7458 2.79994 14.8669 3.59983 13.1341C4.39642 11.3126 5.49174 10.0663 7.08493 10.0663C7.58281 10.0663 8.08068 10.1622 8.47898 10.4498C8.47898 10.6415 8.47898 10.7374 8.47898 10.9291C8.47898 12.5589 9.5743 13.9011 11.0679 14.3804C8.67813 14.9556 7.48323 17.1606 6.98536 18.5028C6.78621 19.078 7.08493 19.6532 7.68238 19.9408C8.27983 20.1326 8.87728 19.845 9.176 19.2698C9.67387 17.9276 10.6696 16.4895 12.462 16.4895C14.2543 16.4895 15.1505 17.9276 15.7479 19.2698C15.9471 19.845 16.6441 20.1326 17.2415 19.9408C17.839 19.7491 18.1377 19.078 17.9386 18.5028C17.4407 17.2565 16.3454 15.0515 13.856 14.3804C15.3496 13.9011 16.4449 12.5589 16.4449 10.9291C16.4449 8.91586 14.6526 7.28608 12.5615 7.28608C12.462 7.28608 12.3624 7.28608 12.2628 7.28608C13.0594 6.51912 13.5573 5.46456 13.5573 4.31413C13.3581 1.91739 11.3666 0 8.97685 0ZM6.78621 4.21826C6.78621 3.06782 7.78196 2.10913 8.97685 2.10913C10.1717 2.10913 11.1675 3.06782 11.1675 4.21826C11.1675 5.36869 10.1717 6.32738 8.97685 6.32738C7.78196 6.32738 6.78621 5.36869 6.78621 4.21826ZM12.3624 9.3952C11.4662 9.3952 10.7692 10.0663 10.7692 10.9291C10.7692 11.7919 11.4662 12.463 12.3624 12.463C13.2586 12.463 13.9556 11.7919 13.9556 10.9291C13.9556 10.0663 13.2586 9.3952 12.3624 9.3952Z" fill="#3A4757"/>
</svg>