<svg width="16" height="13" viewBox="0 0 16 13" fill="none" xmlns="http://www.w3.org/2000/svg">
<path fill-rule="evenodd" clip-rule="evenodd" d="M15.2381 12.2588H7.43467V8.84975C7.43467 7.5585 8.288 6.394 9.53219 5.96111C9.68076 6.05451 9.83695 6.13234 9.99848 6.20054C10.0587 6.22648 10.1227 6.24427 10.1851 6.26651C10.2933 6.30505 10.4023 6.33915 10.5143 6.36583C10.6103 6.3903 10.7063 6.41031 10.8053 6.42588C10.8891 6.43848 10.9737 6.44441 11.059 6.45108C11.152 6.45849 11.2411 6.4785 11.3364 6.4785C11.4316 6.4785 11.5208 6.45849 11.6137 6.45108C11.6983 6.44441 11.7829 6.43848 11.8674 6.42588C11.9665 6.41031 12.0625 6.3903 12.1585 6.36583C12.2705 6.33915 12.3794 6.30505 12.4876 6.26725C12.5501 6.24427 12.6141 6.22648 12.675 6.20054C12.8358 6.13234 12.992 6.05451 13.1406 5.96111C14.384 6.394 15.2381 7.5585 15.2381 8.84975V12.2588ZM0.771048 12.2588C0.846476 11.3693 1.37371 10.5643 2.17219 10.1225C2.2819 10.1914 2.39848 10.2492 2.51886 10.2989C2.5661 10.3196 2.61638 10.333 2.66514 10.35C2.74362 10.3775 2.82133 10.4027 2.9021 10.4219C2.98133 10.442 3.06133 10.4583 3.14286 10.4709C3.18857 10.4775 3.23352 10.4798 3.27848 10.4842C3.36305 10.4924 3.44457 10.5087 3.53067 10.5087C3.62667 10.5087 3.7181 10.4916 3.81105 10.4812C3.84686 10.4775 3.88267 10.4761 3.91771 10.4709C4.0061 10.4575 4.09143 10.439 4.176 10.4175C4.24305 10.4004 4.30781 10.3797 4.37257 10.3582C4.43429 10.3367 4.49676 10.3182 4.55543 10.2922C4.67657 10.2411 4.79391 10.1825 4.90438 10.1121C5.71276 10.5531 6.2461 11.3618 6.32152 12.2588H0.771048ZM3.53067 6.34211C4.50133 6.34211 5.29143 7.11079 5.29143 8.05514C5.29143 8.62293 5.0019 9.12402 4.56305 9.43534C4.52571 9.46128 4.48914 9.48574 4.45029 9.50872C4.40381 9.53689 4.35505 9.56061 4.30629 9.58507C4.25143 9.61028 4.19733 9.63548 4.14019 9.65549C4.11276 9.66513 4.08381 9.67254 4.05638 9.68069C3.71886 9.78076 3.35543 9.78224 3.01714 9.6844C2.98743 9.67551 2.95771 9.66809 2.92876 9.65771C2.87162 9.6377 2.81524 9.61324 2.76038 9.5873C2.71162 9.56432 2.66362 9.53912 2.6179 9.51169C2.57829 9.48871 2.53943 9.46425 2.50133 9.43756C2.06019 9.1255 1.77067 8.62442 1.77067 8.05514C1.77067 7.11079 2.56 6.34211 3.53067 6.34211ZM11.805 0.787205C11.8537 0.7961 11.9002 0.809443 11.9474 0.820561C12.0488 0.845022 12.1486 0.874672 12.2453 0.910993C12.2987 0.931007 12.3512 0.951021 12.403 0.973999C12.4876 1.0118 12.5676 1.05702 12.6469 1.10298C12.6994 1.13411 12.755 1.16154 12.8053 1.19637C12.8495 1.22677 12.8884 1.26383 12.931 1.29718C13.0781 1.41356 13.2145 1.5418 13.3326 1.68782C13.3448 1.70265 13.357 1.71599 13.3684 1.73007C13.4423 1.82569 13.5093 1.92576 13.5695 2.03102C13.5718 2.03547 13.5741 2.04065 13.5771 2.0451C13.6381 2.15481 13.6922 2.26896 13.7371 2.3883C12.3185 1.4862 10.3482 1.48991 8.93105 2.39201C8.93943 2.36903 8.94476 2.34457 8.95391 2.32159C8.97219 2.27711 8.99352 2.23412 9.0141 2.19039C9.05905 2.09699 9.10933 2.00656 9.16572 1.91983C9.19086 1.8798 9.21676 1.83904 9.24495 1.80049C9.31581 1.70265 9.39429 1.61073 9.47886 1.524C9.4979 1.50473 9.51314 1.48324 9.53295 1.46471C9.63886 1.36241 9.75543 1.2705 9.8781 1.18748C9.91086 1.16524 9.94743 1.14745 9.98095 1.1267C10.0754 1.06888 10.173 1.01625 10.2743 0.971035C10.3208 0.951021 10.368 0.932489 10.416 0.913958C10.5166 0.876896 10.6194 0.845764 10.7261 0.820561C10.7726 0.809443 10.8175 0.7961 10.8648 0.787205C11.0179 0.759779 11.1749 0.741248 11.3364 0.741248C11.4964 0.741248 11.6526 0.759779 11.805 0.787205ZM12.6758 5.35996C12.5935 5.40963 12.509 5.4541 12.4213 5.49487C12.352 5.526 12.2811 5.55417 12.2088 5.57863C12.1524 5.59864 12.0945 5.61421 12.0366 5.63052C11.9398 5.65646 11.8423 5.68166 11.7432 5.69649C11.7326 5.69871 11.7219 5.69871 11.7112 5.70019C11.4629 5.73429 11.2099 5.73429 10.9615 5.70019C10.9509 5.69871 10.9394 5.69871 10.9295 5.69649C10.8305 5.68166 10.733 5.65646 10.6362 5.63052C10.5783 5.61421 10.5204 5.59864 10.4632 5.57863C10.3916 5.55417 10.3208 5.526 10.2514 5.49487C10.1638 5.4541 10.0792 5.40963 9.99695 5.35996C9.95505 5.3355 9.91238 5.31252 9.87124 5.2851C9.26781 4.87519 8.86324 4.2177 8.79238 3.46607C9.46895 2.81378 10.381 2.43203 11.3364 2.43203C12.291 2.43203 13.2038 2.81378 13.8804 3.46607C13.8095 4.2177 13.405 4.87519 12.8015 5.2851C12.7604 5.31252 12.717 5.3355 12.6758 5.35996ZM13.7806 5.42074C14.2971 4.8737 14.6202 4.15766 14.6522 3.36526C14.6537 3.35266 14.6644 3.34303 14.6644 3.33043L14.6659 3.23925C14.6659 1.45285 13.1718 0 11.3364 0C9.50095 0 8.00686 1.45285 8.00686 3.23925L8.00838 3.33043C8.00838 3.34303 8.01828 3.35266 8.01981 3.36526C8.05181 4.15766 8.37562 4.8737 8.89143 5.42074C7.55962 6.04858 6.67276 7.38283 6.67276 8.84975V10.8697C6.39391 10.3582 5.99086 9.91122 5.48419 9.58878C5.83467 9.16701 6.05333 8.63776 6.05333 8.05514C6.05333 6.70162 4.9219 5.60087 3.53067 5.60087C2.14019 5.60087 1.00876 6.70162 1.00876 8.05514C1.00876 8.64443 1.232 9.17887 1.58933 9.60212C0.610286 10.2351 0 11.3159 0 12.4782L0.00380961 12.6449C0.0129525 12.8436 0.180572 13 0.384762 13H6.70857C6.77486 13 6.83429 12.9785 6.88914 12.9496C6.94324 12.9785 7.00267 13 7.06971 13H15.603C15.7989 13 15.9627 12.8555 15.9817 12.665C15.9939 12.5456 16 12.4248 16 12.3025V8.84975C16 7.38283 15.1131 6.04858 13.7806 5.42074Z" fill="#3A4757"/>
</svg>