<svg width="18" height="20" viewBox="0 0 18 20" fill="none" xmlns="http://www.w3.org/2000/svg">
<path d="M5.22118 7.50405H8.04588C8.58941 7.50405 9.03412 7.06645 9.03412 6.5316C9.03412 5.99676 8.58941 5.55916 8.04588 5.55916H5.22118C4.67765 5.55916 4.23294 5.99676 4.23294 6.5316C4.23294 7.06645 4.67765 7.50405 5.22118 7.50405Z" fill="#3A4757"/>
<path d="M5.22118 11.6694H12.2788C12.8224 11.6694 13.2671 11.2318 13.2671 10.6969C13.2671 10.1621 12.8224 9.72447 12.2788 9.72447H5.22118C4.67765 9.72447 4.23294 10.1621 4.23294 10.6969C4.23294 11.2318 4.67765 11.6694 5.22118 11.6694Z" fill="#3A4757"/>
<path d="M17.22 7.22853L10.1541 0.28363C9.97294 0.0972447 9.71765 0 9.45412 0H2.39647C1.76235 0 1.15294 0.251216 0.7 0.688817C0.247059 1.12642 0 1.7342 0 2.35818V17.6418C0 18.2658 0.255294 18.8655 0.7 19.3112C1.15294 19.7569 1.76235 20 2.39647 20H15.1035C15.7376 20 16.3471 19.7488 16.8 19.3112C17.2529 18.8736 17.5 18.2658 17.5 17.6418V7.91734C17.5 7.65802 17.3929 7.41491 17.2118 7.22853H17.22ZM1.97647 2.35818C1.97647 2.24473 2.01765 2.13938 2.1 2.06645C2.18235 1.99352 2.28941 1.94489 2.39647 1.94489H9.04235L15.5235 8.32253V17.6418C15.5235 17.7553 15.4824 17.8606 15.4 17.9335C15.3176 18.0065 15.2106 18.0551 15.1035 18.0551H2.39647C2.28118 18.0551 2.17412 18.0146 2.1 17.9335C2.01765 17.8525 1.97647 17.7472 1.97647 17.6418V2.35818Z" fill="#3A4757"/>
<path d="M5.22118 15.8347H12.2788C12.8224 15.8347 13.2671 15.3971 13.2671 14.8622C13.2671 14.3274 12.8224 13.8898 12.2788 13.8898H5.22118C4.67765 13.8898 4.23294 14.3274 4.23294 14.8622C4.23294 15.3971 4.67765 15.8347 5.22118 15.8347Z" fill="#3A4757"/>
</svg>