<svg width="18" height="20" viewBox="0 0 18 20" fill="none" xmlns="http://www.w3.org/2000/svg">
<path d="M17.3301 7.33333L10.0243 0.166667C9.85437 0.0833334 9.68447 0 9.51456 0H2.20874C1.61408 0 1.10437 0.166667 0.679612 0.583333C0.254854 1 0 1.58333 0 2.16667V17.9167C0 18.5 0.254854 19.0833 0.679612 19.4167C1.10437 19.8333 1.61408 20 2.20874 20H15.2913C15.8859 20 16.4806 19.75 16.8204 19.3333C17.2451 18.9167 17.5 18.3333 17.5 17.8333V7.83333C17.5 7.66667 17.5 7.5 17.3301 7.33333ZM5.09709 5.66667H7.98544C8.41019 5.66667 8.75 6 8.75 6.41667C8.75 6.83333 8.49515 7.16667 8.07039 7.16667H5.09709C4.67233 7.16667 4.33252 6.83333 4.33252 6.41667C4.33252 6 4.67233 5.66667 5.09709 5.66667ZM12.4029 15.75H5.09709C4.67233 15.75 4.33252 15.4167 4.33252 15C4.33252 14.5833 4.67233 14.25 5.09709 14.25H12.4029C12.8277 14.25 13.1675 14.5833 13.1675 15C13.1675 15.4167 12.8277 15.75 12.4029 15.75ZM12.4029 11.5H5.09709C4.67233 11.5 4.33252 11.1667 4.33252 10.75C4.33252 10.3333 4.67233 10 5.09709 10H12.4029C12.8277 10 13.1675 10.3333 13.1675 10.75C13.1675 11.1667 12.8277 11.5 12.4029 11.5Z" fill="#3A4757"/>
</svg>