<svg width="21" height="21" viewBox="0 0 21 21" fill="none" xmlns="http://www.w3.org/2000/svg">
<path d="M4.94356 1.75L8.56295 5.3375H10.9464C11.3878 5.3375 11.7409 5.6875 11.7409 6.125C11.7409 6.65 11.2996 7 10.9464 7H10.2402L12.712 9.45H15.0072C15.4486 9.45 15.8017 9.8 15.8017 10.2375C15.8017 10.675 15.4486 11.025 15.0072 11.025H14.301L19.8625 16.5375V7.525C19.8625 7.35 19.7742 7.0875 19.5977 7L12.8003 0.2625C12.712 0.0875 12.4472 0 12.2706 0H5.47322C4.85528 0 4.32561 0.175 3.88422 0.6125C3.88422 0.6125 3.88422 0.6125 3.79594 0.7L4.94356 1.75Z" fill="#3A4757"/>
<path d="M20.7453 19.6L1.32417 0.35C1.05933 2.6077e-08 0.529667 2.6077e-08 0.264833 0.35C-0.0882778 0.7 -0.0882778 1.1375 0.264833 1.4875L3.26628 4.4625V17.0625C3.26628 17.5875 3.53111 18.2 3.88422 18.55C4.32561 18.9875 4.85528 19.1625 5.38494 19.1625H17.6556C17.7438 19.1625 17.9204 19.1625 18.0087 19.1625L19.5977 20.7375C19.7742 20.9125 19.9508 21 20.1273 21C20.3039 21 20.5687 20.9125 20.657 20.7375C21.0984 20.3875 21.0984 19.8625 20.7453 19.6ZM8.20983 9.45H8.29811L9.88711 11.025H8.12156C7.68017 11.025 7.32706 10.675 7.32706 10.2375C7.41533 9.8 7.76844 9.45 8.20983 9.45ZM8.20983 15.1375C7.76844 15.1375 7.41533 14.7875 7.41533 14.35C7.41533 13.9125 7.76844 13.5625 8.20983 13.5625H12.4472L14.0362 15.1375H8.20983Z" fill="#3A4757"/>
</svg>