<svg width="20" height="18" viewBox="0 0 20 18" fill="none" xmlns="http://www.w3.org/2000/svg">
<path fill-rule="evenodd" clip-rule="evenodd" d="M1 4.69443L10.3145 4.69443C10.7657 6.17556 12.1304 7.25206 13.7438 7.25206C15.3573 7.25206 16.722 6.17556 17.1732 4.69443L19 4.69443C19.5523 4.69443 20 4.24192 20 3.68371C20 3.12551 19.5523 2.67299 19 2.67299H17.2062C16.7922 1.13273 15.3989 0 13.7438 0C12.0888 0 10.6955 1.13273 10.2815 2.67299H1C0.447715 2.67299 0 3.12551 0 3.68371C0 4.24191 0.447715 4.69443 1 4.69443ZM13.7438 2.02143C12.867 2.02143 12.1562 2.73984 12.1562 3.62603C12.1562 4.51223 12.867 5.23063 13.7438 5.23063C14.6206 5.23063 15.3314 4.51223 15.3314 3.62603C15.3314 2.73984 14.6206 2.02143 13.7438 2.02143Z" fill="#3A4757"/>
<path fill-rule="evenodd" clip-rule="evenodd" d="M19 12.8056L9.68548 12.8056C9.2343 11.3244 7.86961 10.2479 6.25617 10.2479C4.64272 10.2479 3.27803 11.3244 2.82685 12.8056L1 12.8056C0.447716 12.8056 0 13.2581 0 13.8163C0 14.3745 0.447716 14.827 1 14.827H2.79378C3.20782 16.3673 4.60112 17.5 6.25616 17.5C7.91121 17.5 9.30451 16.3673 9.71855 14.827L19 14.827C19.5523 14.827 20 14.3745 20 13.8163C20 13.2581 19.5523 12.8056 19 12.8056ZM6.25616 15.4786C7.13296 15.4786 7.84375 14.7602 7.84375 13.874C7.84375 12.9878 7.13296 12.2694 6.25616 12.2694C5.37937 12.2694 4.66858 12.9878 4.66858 13.874C4.66858 14.7602 5.37937 15.4786 6.25616 15.4786Z" fill="#3A4757"/>
</svg>