<svg width="16" height="20" viewBox="0 0 16 20" fill="none" xmlns="http://www.w3.org/2000/svg">
<path fill-rule="evenodd" clip-rule="evenodd" d="M6.53557 0C6.78019 0 7.02481 0.0808882 7.26943 0.161776C12.8957 2.7502 16.1572 8.16971 15.9942 12.7803C15.9126 14.7217 15.2603 16.5821 13.8741 17.8763C12.488 19.1705 10.531 19.9794 8.08482 19.9794C7.10635 20.0603 6.12787 19.8985 5.14939 19.5749C4.17092 19.2514 3.27398 18.6852 2.54013 18.0381C1.80627 17.391 1.15395 16.5821 0.746255 15.6923C0.257018 14.7217 0.0123991 13.751 0.0123991 12.7803C-0.0691405 11.6479 0.257018 10.5155 0.827795 9.46392C1.39857 8.41237 2.21397 7.60349 3.27398 7.03727C3.5186 6.8755 3.76322 6.8755 4.08938 6.95639C4.41554 7.03727 4.57862 7.27994 4.66016 7.44172C4.98631 8.08882 5.31247 8.73593 5.80171 9.22126C6.29095 8.41237 6.53557 7.44172 6.53557 6.30928C6.53557 4.85329 6.12787 3.31642 5.31247 1.94132C5.14939 1.69865 5.06785 1.3751 5.14939 1.05155C5.23093 0.727994 5.39401 0.485329 5.63863 0.323553L5.72017 0.242665C5.96479 0.0808882 6.29095 0 6.53557 0ZM11.4279 15.3687C10.6941 16.0967 9.71562 16.5012 8.73714 16.5012C8.16636 16.5012 7.75867 16.0967 7.75867 15.5305C7.75867 14.9643 8.16636 14.5598 8.73714 14.5598C9.22638 14.5598 9.71562 14.3172 10.0418 13.9936C10.4495 13.6701 10.6126 13.1847 10.6126 12.6994C10.6126 12.1332 11.0203 11.7288 11.591 11.7288C12.1618 11.7288 12.5695 12.1332 12.5695 12.6994C12.5695 13.751 12.1618 14.6407 11.4279 15.3687Z" fill="#3A4757"/>
</svg>