<svg width="16" height="20" viewBox="0 0 16 20" fill="none" xmlns="http://www.w3.org/2000/svg">
<path d="M12.5 12.7724C12.5 12.2201 12.0472 11.7724 11.4886 11.7724C10.9299 11.7724 10.4771 12.2201 10.4771 12.7724C10.4771 13.2397 10.2893 13.6878 9.95515 14.0182C9.62096 14.3486 9.1677 14.5342 8.69508 14.5342C8.13646 14.5342 7.68361 14.9819 7.68361 15.5342C7.68361 16.0865 8.13646 16.5342 8.69508 16.5342C9.70422 16.5342 10.672 16.1379 11.3856 15.4324C12.0992 14.7269 12.5 13.7701 12.5 12.7724Z" fill="#3A4757"/>
<path fill-rule="evenodd" clip-rule="evenodd" d="M6.53038 0C6.24936 0 5.97358 0.0752328 5.73232 0.217711C5.69423 0.24021 5.65767 0.265163 5.62289 0.292408C5.35921 0.49895 5.1813 0.793913 5.12284 1.12144C5.06546 1.44289 5.12706 1.77381 5.29598 2.05379C6.07453 3.3898 6.53651 4.95476 6.54728 6.40518C6.55526 7.47883 6.31856 8.44679 5.82228 9.22796C5.37547 8.72343 5.00744 8.15323 4.73232 7.536C4.61763 7.2787 4.39868 7.08102 4.12911 6.99141C3.85953 6.90179 3.56425 6.92852 3.31562 7.06504C2.28633 7.63022 1.4333 8.46337 0.849148 9.47403C0.264997 10.4847 -0.0279536 11.6343 0.00210051 12.7979L0.0025992 12.8129C0.0434796 13.8109 0.285874 14.7908 0.715519 15.6949C1.14516 16.599 1.75338 17.409 2.50437 18.0772C3.25537 18.7454 4.13397 19.2584 5.08847 19.5859C6.03253 19.9099 7.03198 20.0459 8.02925 19.9864C10.4795 19.9797 12.445 19.2184 13.8237 17.8902C15.2025 16.5618 15.905 14.7522 15.9912 12.8163C16.1924 8.22595 12.9473 2.79692 7.27089 0.185351C7.04377 0.0638656 6.7893 0 6.53038 0ZM8.57018 6.39049C8.56116 5.17691 8.30629 3.93366 7.86421 2.76721C11.9624 5.25682 14.1151 9.42155 13.9701 12.7291C13.9025 14.2452 13.362 15.5424 12.4118 16.4578C11.4675 17.3677 10.0291 17.9864 7.99696 17.9864C7.97514 17.9864 7.95333 17.9871 7.93157 17.9885C7.19254 18.0358 6.4514 17.9366 5.75176 17.6965C5.05212 17.4564 4.40812 17.0804 3.85766 16.5906C3.30719 16.1008 2.86138 15.5071 2.54645 14.8444C2.23261 14.184 2.05508 13.4684 2.02421 12.7395C2.00501 11.9436 2.20601 11.1576 2.60556 10.4663C2.83283 10.0731 3.11942 9.71906 3.45374 9.41549C3.93825 10.1866 4.54426 10.8794 5.25111 11.4666C5.64561 11.7944 6.22627 11.7765 6.59941 11.4252C8.02761 10.0804 8.58385 8.23057 8.57018 6.39049Z" fill="#3A4757"/>
</svg>