<svg width="15" height="13" viewBox="0 0 15 13" fill="none" xmlns="http://www.w3.org/2000/svg">
<path fill-rule="evenodd" clip-rule="evenodd" d="M13.0845 11.058H11.7945V5.81622C11.7945 5.60952 11.6265 5.44176 11.4195 5.44176H3.5805C3.3735 5.44176 3.2055 5.60952 3.2055 5.81622V11.058H1.9155V3.54246H13.0845V11.058ZM6.56175 11.058C6.21 10.5982 6.105 10.163 6.10125 9.85597C6.41325 10.044 6.75975 10.2095 6.9675 10.2559C7.0725 10.2784 7.185 10.2552 7.272 10.19C7.35975 10.1248 7.4145 10.0252 7.422 9.91739L7.43175 9.7309C7.4475 9.3789 7.47675 8.71385 7.71525 8.33339C7.9575 8.66667 8.07225 9.31749 8.07225 9.74438C8.07225 9.88743 8.15325 10.017 8.2815 10.0799C8.40975 10.1451 8.56275 10.1286 8.676 10.0417C8.9175 9.85598 9.132 9.70319 9.351 9.58636C9.339 10.1795 9.1095 10.9105 8.7975 11.058H6.56175ZM11.0445 11.058H9.75075C10.0912 10.3982 10.1722 9.48226 10.0343 8.95126C10.008 8.8524 9.94275 8.76777 9.85275 8.71834C9.76275 8.66891 9.657 8.65918 9.55875 8.68839C9.2595 8.782 8.9955 8.91681 8.7585 9.0651C8.66475 8.51164 8.43225 7.77618 7.857 7.48859C7.737 7.42868 7.59075 7.43767 7.47825 7.51481C6.8865 7.91773 6.74775 8.73107 6.70275 9.33621C6.486 9.22013 6.24675 9.07034 6.10425 8.94302C6.02175 8.86738 5.90925 8.83368 5.79825 8.85091C5.68725 8.86663 5.58975 8.93179 5.532 9.02765C5.298 9.41785 5.24325 10.2312 5.67525 11.058H3.9555V6.19069H11.0445V11.058ZM0.75 12.2511H14.25V11.8069H0.75V12.2511ZM0.75 2.79352H14.25V2.34941H0.75V2.79352ZM3.85725 0.748934H11.1427L11.4525 1.60047H3.5475L3.85725 0.748934ZM14.625 3.54246C14.8328 3.54246 15 3.3747 15 3.16799V1.97494C15 1.76823 14.8328 1.60047 14.625 1.60047H12.2505L11.757 0.246399C11.7038 0.0988593 11.5628 0 11.4053 0H3.59475C3.43725 0 3.29625 0.0988593 3.24225 0.246399L2.7495 1.60047H0.375C0.168 1.60047 0 1.76823 0 1.97494V3.16799C0 3.3747 0.168 3.54246 0.375 3.54246H1.1655V11.058H0.375C0.168 11.058 0 11.2258 0 11.4325V12.6255C0 12.8322 0.168 13 0.375 13H14.625C14.8328 13 15 12.8322 15 12.6255V11.4325C15 11.2258 14.8328 11.058 14.625 11.058H13.8345V3.54246H14.625Z" fill="#3A4757"/>
</svg>