<svg width="15" height="20" viewBox="0 0 15 20" fill="none" xmlns="http://www.w3.org/2000/svg">
<path fill-rule="evenodd" clip-rule="evenodd" d="M0.979609 0H13.187C13.5696 0 13.9172 0.227342 14.077 0.582143C14.2369 0.936944 14.1798 1.35428 13.9308 1.65079L10.4081 5.84615L13.9308 10.0415C14.1798 10.338 14.2369 10.7554 14.077 11.1102C13.9172 11.465 13.5696 11.6923 13.187 11.6923H1.95922V19C1.95922 19.5523 1.52063 20 0.979609 20C0.438586 20 0 19.5523 0 19V1C0 0.447715 0.438586 0 0.979609 0ZM1.95922 9.69231H11.0572L8.37412 6.49694C8.05968 6.12246 8.05968 5.56985 8.37412 5.19536L11.0572 2H1.95922V9.69231Z" fill="#3A4757"/>
</svg>