<svg width="13" height="20" viewBox="0 0 13 20" fill="none" xmlns="http://www.w3.org/2000/svg">
<path d="M12.5 2.69167C12.5 1.2 11.2417 0 9.69167 0H2.80833C1.25833 0 0 1.20833 0 2.69167V5.21667C0 5.80833 0.291667 6.31667 0.55 6.66667C0.816667 7.03333 1.16667 7.39167 1.45833 7.68333L1.58333 7.80833C1.84167 8.06667 2.05 8.275 2.20833 8.46667C2.29167 8.56667 2.33333 8.625 2.35 8.66667V16.5833C2.35 18.4667 3.94167 20 5.90833 20H6.59167C8.55833 20 10.15 18.475 10.15 16.5833V8.675C10.175 8.64167 10.2167 8.575 10.2917 8.475C10.45 8.28333 10.6583 8.075 10.9167 7.81667L11.0417 7.69167C11.3333 7.4 11.675 7.04167 11.95 6.675C12.2083 6.325 12.5 5.81667 12.5 5.225V2.69167ZM2.80833 1.95833H9.69167C10.0417 1.95833 10.3417 2.18333 10.4333 2.49167H2.06667C2.15833 2.18333 2.45 1.95833 2.80833 1.95833ZM8.10833 16.5833C8.10833 17.3917 7.425 18.05 6.58333 18.05H5.9C5.05833 18.05 4.375 17.3917 4.375 16.5833V11.475H4.38333V8.59167C4.38333 8.00833 4.01667 7.525 3.8 7.25C3.575 6.98333 3.29167 6.7 3.05 6.45L2.93333 6.33333C2.63333 6.03333 2.39167 5.775 2.225 5.54167C2.13333 5.41667 2.09167 5.33333 2.06667 5.275C2.05 5.23333 2.04167 5.20833 2.04167 5.20833V4.45H10.4667V5.20833C10.4667 5.20833 10.4667 5.23333 10.4417 5.275C10.4167 5.33333 10.3667 5.41667 10.2833 5.54167C10.1083 5.775 9.86667 6.03333 9.56667 6.33333L9.45 6.45C9.2 6.7 8.91667 6.98333 8.7 7.25C8.475 7.525 8.10833 8.00833 8.10833 8.59167V16.5833Z" fill="#3A4757"/>
<path d="M6.16667 11.4417C5.84167 11.4417 5.575 11.55 5.35 11.7667C5.125 11.9833 5.01667 12.2417 5.01667 12.55C5.01667 12.8583 5.125 13.125 5.35 13.3333C5.575 13.55 5.85 13.6583 6.16667 13.6583C6.48333 13.6583 6.75833 13.55 6.98333 13.3333C7.20833 13.1167 7.31667 12.8583 7.31667 12.55C7.31667 12.2417 7.20833 11.975 6.98333 11.7667C6.75833 11.55 6.48333 11.4417 6.16667 11.4417Z" fill="#3A4757"/>
</svg>