<svg width="12" height="20" viewBox="0 0 12 20" fill="none" xmlns="http://www.w3.org/2000/svg">
<path d="M11.6625 2.55004V2.50837C11.6625 1.12504 10.5517 4.59993e-05 9.18596 4.59993e-05H2.48874C1.11474 -0.00828731 0.00401736 1.11671 0.00401736 2.50004V2.54171H11.6542L11.6625 2.55004Z" fill="#3A4757"/>
<path d="M0 5.0917C0 5.6167 0.246827 6.08336 0.493653 6.43336C0.74048 6.7917 1.06958 7.1417 1.34932 7.45003C1.39046 7.4917 1.43159 7.53336 1.47273 7.57503C1.71956 7.84169 1.93347 8.05836 2.0898 8.26669C2.25435 8.48336 2.28726 8.57503 2.28726 8.57503V16.75C2.28726 18.5417 3.72708 20 5.496 20H6.16244C7.93136 20 9.37118 18.5417 9.37118 16.75V8.57503C9.37118 8.57503 9.40409 8.48336 9.56864 8.27503C9.73319 8.06669 9.93888 7.84169 10.1939 7.58336C10.2351 7.54169 10.2762 7.50003 10.3173 7.45836C10.6053 7.15836 10.9262 6.80836 11.173 6.4417C11.4116 6.0917 11.6667 5.62503 11.6667 5.10003V4.0667H0V5.10003V5.0917ZM4.95299 11.8C5.1669 11.5834 5.43841 11.4667 5.75106 11.4667C6.0637 11.4667 6.32699 11.575 6.54913 11.8C6.76305 12.0167 6.87823 12.2917 6.87823 12.6084C6.87823 12.925 6.77127 13.1917 6.54913 13.4167C6.33521 13.6333 6.0637 13.75 5.75106 13.75C5.43841 13.75 5.17513 13.6417 4.95299 13.4167C4.73907 13.2 4.62388 12.925 4.62388 12.6084C4.62388 12.2917 4.73084 12.025 4.95299 11.8Z" fill="#3A4757"/>
</svg>