<svg width="9" height="17" viewBox="0 0 9 17" fill="none" xmlns="http://www.w3.org/2000/svg">
<path fill-rule="evenodd" clip-rule="evenodd" d="M6.07085 0.0885165C6.56387 0.284101 6.88585 0.769532 6.87903 1.30696C6.87329 1.44313 6.92534 1.57526 7.02198 1.66985C7.11676 1.76391 7.24737 1.81106 7.37935 1.79888C7.91551 1.75487 8.42026 2.06058 8.63689 2.56053C8.85353 3.06048 8.73448 3.6449 8.3403 4.01655C8.24198 4.10721 8.18698 4.23654 8.18941 4.37138C8.19495 4.50782 8.25521 4.63602 8.35618 4.7262C8.75619 5.0842 8.89354 5.6577 8.70012 6.16225C8.52051 6.63075 8.09116 6.94725 7.60392 6.98139L7.49054 6.98419C7.35608 6.97618 7.22509 7.02939 7.13316 7.12935C7.03756 7.22369 6.9906 7.3578 7.00609 7.49224C7.04507 8.03619 6.74303 8.54627 6.25163 8.7664C5.8399 8.95204 5.36881 8.89724 5.01244 8.63833C5.27861 9.6392 5.39113 10.6782 5.34627 11.7179C5.4065 12.9484 5.24351 14.1789 4.8662 15.3482C6.21524 15.3795 7.54698 15.6801 8.78504 16.2339C8.97736 16.3406 9.05405 16.5814 8.95975 16.7823C8.88936 16.9163 8.75196 17 8.60238 17C8.55549 16.9942 8.50988 16.9806 8.46737 16.9597C7.19787 16.3912 5.81996 16.1157 4.43298 16.1533C3.17155 16.127 1.91639 16.3403 0.732141 16.7823C0.598759 16.8541 0.436786 16.8429 0.314204 16.7534C0.191622 16.6639 0.129644 16.5115 0.154284 16.3603C0.178924 16.209 0.285916 16.085 0.430356 16.0404C1.58409 15.6004 2.80296 15.366 4.03337 15.3463C4.03845 15.3191 4.04762 15.2921 4.05972 15.2662C4.44384 14.1258 4.61094 12.9217 4.5521 11.7179C4.60428 10.6145 4.46824 9.51096 4.15073 8.45593L4.12325 8.48415C3.88635 8.76398 3.5416 8.92578 3.17819 8.92768C3.01821 8.92495 2.85983 8.89496 2.70963 8.83897C2.21247 8.63774 1.89424 8.14011 1.91546 7.59708C1.92052 7.46294 1.86857 7.33306 1.77284 7.24048C1.67711 7.1479 1.54683 7.10155 1.41513 7.11322C0.880023 7.15037 0.378961 6.84445 0.160339 6.34712C-0.0573783 5.84923 0.0607118 5.26587 0.454181 4.89555C0.549749 4.7996 0.604002 4.66913 0.605074 4.53266C0.600213 4.39834 0.539631 4.27238 0.438298 4.1859C0.031013 3.82937 -0.109229 3.25003 0.0888631 2.7424C0.294826 2.23938 0.783468 1.91606 1.31983 1.92791C1.45447 1.93708 1.58594 1.88369 1.67721 1.78275C1.76892 1.68593 1.8152 1.55374 1.80427 1.41986C1.76574 0.883553 2.06085 0.379803 2.54337 0.158238C3.02589 -0.0633267 3.59329 0.0443683 3.96442 0.427956C4.06369 0.51757 4.18931 0.571427 4.32179 0.581177C4.45161 0.580347 4.57528 0.524862 4.66329 0.427956C5.01706 0.0281661 5.57783 -0.107068 6.07085 0.0885165ZM5.25892 0.960197C5.02382 1.23337 4.68689 1.3942 4.32974 1.40373C3.97056 1.41032 3.62503 1.26413 3.37673 1.00052C3.24384 0.846903 3.02699 0.800892 2.84464 0.887619C2.6609 0.964646 2.54815 1.15438 2.56668 1.35535C2.59118 1.71853 2.4644 2.07549 2.21724 2.33918C1.96702 2.59901 1.62204 2.74205 1.26424 2.73433C1.06577 2.73268 0.886385 2.85411 0.811558 3.04078C0.738336 3.22916 0.792832 3.44399 0.946568 3.57302C1.21396 3.81479 1.36691 4.16104 1.36691 4.5246C1.36691 4.88816 1.21396 5.23441 0.946568 5.47618C0.800398 5.61449 0.7587 5.83271 0.843326 6.01648C0.918098 6.21251 1.1143 6.33205 1.31983 6.3068L1.43895 6.29873C1.78015 6.30079 2.1062 6.4421 2.34371 6.69086C2.58122 6.93961 2.71022 7.27491 2.70169 7.62127C2.6944 7.8264 2.81536 8.01387 3.00347 8.089C3.18899 8.16335 3.40056 8.10801 3.52762 7.95191C3.77191 7.66831 4.12547 7.50646 4.49651 7.50837C4.85338 7.51353 5.19462 7.65791 5.44952 7.91158C5.58241 8.0652 5.79926 8.11121 5.98161 8.02448C6.1666 7.94449 6.27912 7.75189 6.25957 7.54869C6.23462 7.18641 6.36214 6.83038 6.61045 6.56902C6.83117 6.33669 7.12893 6.19853 7.44341 6.17934L7.56201 6.17777C7.75681 6.1676 7.93052 6.05001 8.01469 5.87133C8.08791 5.68294 8.03342 5.46811 7.87968 5.33909C7.61066 5.10036 7.45227 4.75823 7.44289 4.39557C7.4364 4.03085 7.58037 3.67999 7.83997 3.42786C7.97357 3.28786 8.00956 3.07928 7.93078 2.9015C7.85199 2.72373 7.67439 2.61274 7.4826 2.62143C7.12804 2.64112 6.78094 2.51295 6.52165 2.26661C6.23788 2.02195 6.0775 1.66069 6.08485 1.28277C6.09113 1.07986 5.96993 0.895261 5.78307 0.823105C5.59755 0.748753 5.38598 0.804089 5.25892 0.960197ZM5.40779 1.98081C6.39278 2.39775 7.03313 3.37648 7.02993 4.46008C7.02554 5.93558 5.84635 7.12935 4.39327 7.12935C3.32612 7.12935 2.36421 6.47616 1.95657 5.47472C1.54894 4.47328 1.77598 3.32108 2.5317 2.55601C3.28743 1.79093 4.4228 1.56387 5.40779 1.98081ZM4.39327 2.58918C3.3757 2.58918 2.55079 3.42681 2.55079 4.46008C2.55079 5.49336 3.3757 6.33099 4.39327 6.33099C5.41084 6.33099 6.23575 5.49336 6.23575 4.46008C6.23575 3.96389 6.04163 3.48802 5.6961 3.13715C5.35057 2.78629 4.88192 2.58918 4.39327 2.58918Z" fill="#3A4757"/>
</svg>