<svg width="20" height="20" viewBox="0 0 20 20" fill="none" xmlns="http://www.w3.org/2000/svg">
<path d="M3.52941 9.16667H20C19.916 9 19.8319 8.83333 19.7479 8.66667C19.4958 8.25 19.1597 8 18.7395 7.75L2.85714 0.333333C2.60504 0.166667 2.18487 0 1.76471 0C1.34454 0 0.840336 0.166667 0.504202 0.5C0.168067 0.833333 0 1.25 0 1.75C0 2.08333 0.168067 2.5 0.420168 2.75L3.52941 9.16667Z" fill="#3A4757"/>
<path d="M0.420168 17.25C0.168067 17.5833 0.0840336 17.9167 0.0840336 18.3333C0.0840336 18.75 0.252101 19.25 0.588235 19.5833C0.92437 19.8333 1.34454 20 1.84874 20C2.26891 20 2.60504 19.8333 2.94118 19.6667L18.7395 12.1667C19.1597 12 19.4958 11.6667 19.7479 11.25C19.8319 11.0833 19.916 11 20 10.8333H3.52941L0.420168 17.25Z" fill="#3A4757"/>
</svg>