<svg width="20" height="20" viewBox="0 0 20 20" fill="none" xmlns="http://www.w3.org/2000/svg">
<path fill-rule="evenodd" clip-rule="evenodd" d="M18.601 12.1656C19.0207 11.9653 19.3743 11.6542 19.6216 11.2678C19.8689 10.8814 20 10.4351 20 9.97975C20 9.52436 19.8689 9.0781 19.6216 8.69169C19.3743 8.30528 19.0207 7.99421 18.601 7.79387L2.85294 0.367367C2.54384 0.13059 2.16046 0 1.76326 0C1.29561 0 0.847121 0.181022 0.516446 0.503243C0.18577 0.825464 0 1.26249 0 1.71818C0 2.10418 0.133294 2.47679 0.375046 2.77757L3.90887 9.98441L0.434108 17.2265C0.194431 17.5266 0.0623386 17.8976 0.0623403 18.2818C0.0623397 18.7375 0.248114 19.1745 0.578788 19.4968C0.909464 19.819 1.35796 20 1.8256 20C2.22358 20 2.60769 19.8689 2.91712 19.6312L18.6 12.1661L18.601 12.1656ZM16.126 8.85364L2.47851 2.41774L5.63431 8.85364H16.126ZM5.7605 10.8582L2.53413 17.5826L16.6609 10.8582H5.7605Z" fill="#3A4757"/>
</svg>