<svg width="12" height="15" viewBox="0 0 12 15" fill="none" xmlns="http://www.w3.org/2000/svg">
<path fill-rule="evenodd" clip-rule="evenodd" d="M3.00512 2.13754C4.86677 2.19664 5.42959 4.60746 5.52378 5.09008C5.81772 6.60309 5.70987 8.56312 5.2116 10.7648C5.17667 11.0641 5.41061 12.0521 5.41288 12.0612C5.66278 12.9946 5.63163 13.7159 5.32174 14.203C5.07337 14.5932 4.63587 14.8478 4.01456 14.9599C2.90486 15.1546 2.0853 14.6379 1.64173 13.4583C1.36525 12.7241 1.29082 11.9127 1.25664 11.2831C1.21866 10.9497 1.03029 10.4853 0.811542 9.94733C0.498608 9.17757 0.109719 8.22142 0.0292071 7.29785C-0.121183 5.57194 0.314038 4.01498 1.22322 3.0255C1.74882 2.45348 2.37925 2.13754 3.00512 2.13754ZM4.51282 11.2063L2.03062 11.5685L1.96074 11.5784L1.96606 11.6488C2.06328 13.0141 2.37849 13.7166 2.90106 14.0977C3.09322 14.2394 3.31349 14.3098 3.55731 14.3098C3.66592 14.3098 3.7791 14.2955 3.89683 14.2674C4.31154 14.1939 4.58802 14.0462 4.7422 13.8143C5.00425 13.4211 4.87437 12.8484 4.72322 12.1862L4.69435 12.0596C4.61764 11.721 4.54624 11.5837 4.51966 11.2859L4.51282 11.2063ZM9.0035 0C9.62101 0 10.2499 0.31518 10.7763 0.887959C11.6855 1.87668 12.1207 3.4344 11.9711 5.16031C11.8905 6.08312 11.5009 7.03927 11.1887 7.80828C10.97 8.34696 10.7808 8.8114 10.7421 9.15006C10.7087 9.77512 10.6342 10.5866 10.3585 11.3207C9.91496 12.4996 9.0954 13.0194 7.97887 12.8209C7.36363 12.7102 6.92613 12.4557 6.67776 12.0655C6.36787 11.5783 6.33748 10.857 6.58737 9.92362C6.58965 9.91453 6.82283 8.92656 6.78713 8.61896C6.29039 6.42406 6.18254 4.4648 6.47648 2.9533C6.5699 2.46992 7.13273 0.0598539 8.99286 0H9.0035ZM7.48592 9.05195L7.47984 9.1315C7.45326 9.43153 7.38186 9.5842 7.30515 9.92286L7.27628 10.0494C7.12589 10.7116 6.99601 11.2836 7.25881 11.6768C7.41224 11.9086 7.68872 12.0564 8.10267 12.1291C8.2204 12.1572 8.33433 12.1715 8.44219 12.1715C8.68601 12.1715 8.90552 12.1011 9.09844 11.9602C9.62177 11.5791 9.93622 10.8597 10.0342 9.49441L10.0395 9.42395L7.48592 9.05195ZM3.0036 2.84139H2.98917C2.38381 2.91791 1.87567 3.23612 1.47843 3.78693C0.68014 4.89688 0.563169 6.61522 0.792553 7.74108C0.841265 7.98009 1.06969 8.62371 1.31564 9.30402L1.42981 9.61927C1.63565 10.186 1.82934 10.7216 1.88175 10.9171L1.89922 10.983L4.53561 10.5974L4.547 10.5466C5.24806 7.41756 5.06957 4.61731 4.09203 3.41341C3.78897 3.03914 3.41527 2.84139 3.0036 2.84139ZM9.00198 0.703851H8.98907C8.58574 0.703851 8.21129 0.900839 7.90747 1.27511C6.92993 2.47901 6.75144 5.27926 7.4525 8.40909L7.46389 8.45985L10.0334 8.83564L10.1003 8.84549L10.1178 8.78033C10.1702 8.58411 10.3638 8.04997 10.5689 7.48401C10.8553 6.6953 11.1507 5.88007 11.2069 5.60353C11.4363 4.47768 11.3201 2.7601 10.5211 1.65015C10.1246 1.09858 9.61645 0.780373 9.00198 0.703851Z" fill="#3A4757"/>
</svg>