<svg width="20" height="18" viewBox="0 0 20 18" fill="none" xmlns="http://www.w3.org/2000/svg">
<path fill-rule="evenodd" clip-rule="evenodd" d="M11.6943 0.0773394C12.0679 -0.0798598 12.4981 0.00703258 12.7841 0.297499L19.7071 7.32874C20.0846 7.71208 20.099 8.32893 19.7399 8.73007L12.8169 16.4644C12.539 16.7749 12.1017 16.8798 11.7164 16.7285C11.331 16.5772 11.077 16.2008 11.077 15.7812V12.5781H10C8.17495 12.5781 7.12847 12.9025 6.06508 13.5798C5.23439 14.1088 4.41301 14.8332 3.25394 15.8554C2.7818 16.2718 2.25363 16.7376 1.64597 17.2597C1.30374 17.5538 0.81063 17.5806 0.439427 17.3254C0.0682235 17.0701 -0.090361 16.5951 0.0513996 16.1632C0.179719 15.7722 0.311434 15.343 0.451254 14.8874C1.02669 13.0122 1.7394 10.6896 2.91764 8.74507C4.43728 6.23708 6.80248 4.21877 10.6923 4.21877H11.077V1.01565C11.077 0.604872 11.3206 0.234539 11.6943 0.0773394ZM13.077 3.46758V5.2344C13.077 5.79531 12.6292 6.25002 12.077 6.25002H10.6923C7.65917 6.25002 5.87054 7.74733 4.62095 9.80964C3.95455 10.9095 3.46173 12.1321 3.042 13.3608C3.74183 12.7629 4.37672 12.2575 5.00254 11.8589C6.43802 10.9446 7.86791 10.5469 10 10.5469H12.077C12.6292 10.5469 13.077 11.0016 13.077 11.5625V13.1542L17.6187 8.08027L13.077 3.46758Z" fill="#3A4757"/>
</svg>