<svg width="20" height="18" viewBox="0 0 20 18" fill="none" xmlns="http://www.w3.org/2000/svg">
<path d="M12.7841 0.297499C12.4981 0.00703258 12.0679 -0.0798598 11.6943 0.0773394C11.3206 0.234539 11.077 0.604872 11.077 1.01565V4.21877H10.6923C6.80248 4.21877 4.43728 6.23708 2.91764 8.74507C1.7394 10.6896 1.02669 13.0122 0.451254 14.8874C0.311435 15.343 0.179718 15.7722 0.0513996 16.1632C-0.090361 16.5951 0.0682235 17.0701 0.439427 17.3254C0.81063 17.5806 1.30374 17.5538 1.64597 17.2597C2.25361 16.7376 2.78177 16.2718 3.2539 15.8554C4.41296 14.8332 5.23439 14.1088 6.06508 13.5798C7.12847 12.9025 8.17495 12.5781 10 12.5781H11.077V15.7812C11.077 16.2008 11.331 16.5772 11.7164 16.7285C12.1017 16.8798 12.539 16.7749 12.8169 16.4644L19.7399 8.73007C20.099 8.32893 20.0846 7.71208 19.7071 7.32874L12.7841 0.297499Z" fill="#3A4757"/>
</svg>