<svg width="20" height="20" viewBox="0 0 20 20" fill="none" xmlns="http://www.w3.org/2000/svg">
<path d="M19.8354 7.41896C19.5253 6.95896 18.9051 6.83896 18.445 7.13896L14.9439 9.47896L10.5226 5.05896L12.8633 1.55896C13.1734 1.09896 13.0433 0.478964 12.5832 0.168964C12.123 -0.141036 11.5029 -0.0110356 11.1928 0.448964L8.662 4.24896L3.90055 4.77896C2.83023 4.89896 1.96997 5.71896 1.79991 6.78896L0.019373 18.039C-0.0606514 18.569 0.1094 19.119 0.489516 19.499C0.809613 19.819 1.24975 19.999 1.68988 19.999C1.77991 19.999 1.85993 19.999 1.94996 19.979L13.2134 18.199C14.2737 18.029 15.104 17.169 15.224 16.099L15.7542 11.339L19.5553 8.80896C20.0154 8.49896 20.1355 7.87896 19.8354 7.41896ZM13.2434 15.879C13.2234 16.059 13.0833 16.199 12.9133 16.229L3.7405 17.679L7.14154 14.279L7.83175 14.969C8.03181 15.169 8.28188 15.259 8.54196 15.259C8.80204 15.259 9.05212 15.159 9.25218 14.969C9.6423 14.579 9.6423 13.949 9.25218 13.559L6.46133 10.769C6.07121 10.379 5.44102 10.379 5.0509 10.769C4.66078 11.159 4.66078 11.789 5.0509 12.179L5.74111 12.869L2.34008 16.269L3.79052 7.09896C3.82053 6.91896 3.96057 6.78896 4.14062 6.76896L8.88206 6.23896L13.7836 11.139L13.2534 15.879H13.2434Z" fill="#3A4757"/>
</svg>