<svg width="20" height="20" viewBox="0 0 20 20" fill="none" xmlns="http://www.w3.org/2000/svg">
<path d="M19.3324 14.3855C19.1772 14.1548 18.9442 14.0778 18.7113 14.0009C18.6337 13.924 18.556 13.6933 18.4784 13.3087L18.6337 13.078C18.8666 12.6934 18.8666 12.232 18.556 11.8474C18.6337 11.6167 18.6337 11.309 18.556 11.0014L18.0902 10.0785C18.0126 9.92465 17.9349 9.84774 17.7796 9.69391L17.9349 9.38627H18.0902C18.556 9.38627 18.9442 9.07862 19.0219 8.69407L19.2548 7.84805C19.3324 7.69422 19.3324 7.46349 19.2548 7.30967C19.0995 6.69438 19.5654 5.84836 19.7983 5.54071C20.0312 5.23307 20.0312 4.92543 19.9536 4.61778C19.7983 4.31014 19.5654 4.0794 19.2548 4.00249L17.7796 3.77176L16.1492 3.15647L14.8293 2.07972C14.5187 1.84898 14.2082 1.77207 13.82 1.92589C13.4318 2.07972 12.9659 1.3106 12.9659 1.3106C12.8883 1.23369 12.8883 1.15678 12.8107 1.07987L11.879 0.23385C11.5684 0.00311631 11.1802 -0.0737948 10.792 0.0800274L9.47212 0.618405C9.08392 0.772227 8.851 1.23369 8.851 1.61825C8.92864 2.46427 8.15224 2.695 7.91931 2.77192C7.53111 2.84883 7.22055 3.15647 7.14291 3.54103L6.98763 3.15647C6.83235 2.84883 6.52179 2.695 6.13359 2.61809L4.96898 2.54118C4.65842 2.54118 4.27022 2.695 4.11494 2.92574C3.88202 3.23338 3.88202 3.61794 4.0373 3.92558L4.34786 4.69469C3.88202 4.31014 3.6491 4.23323 3.33853 4.23323C3.18325 4.23323 3.10561 4.23323 0.776403 4.84851C0.310561 4.92543 0 5.30998 0 5.69454V6.61747C0 6.8482 0.0776403 7.07894 0.232921 7.23276L0.621123 7.77114C0.776403 7.92496 0.931684 8.07878 1.1646 8.15569L2.63977 8.46334L3.49381 9.23245L3.57146 9.77082C3.57146 10.0016 3.72674 10.1554 3.80438 10.3092L4.65842 11.2321C4.89134 14.3855 3.72674 16.0775 3.72674 16.0775C3.41617 16.4621 3.49381 17.0774 3.88202 17.4619L5.27954 18.6156C5.43482 18.6925 5.5901 18.7694 5.74538 18.8463L7.60875 19.2309C7.84167 19.3078 8.07459 19.2309 8.30752 19.0771L10.3262 19.9231C10.4814 20 10.5591 20 10.7144 20C10.792 20 10.8696 20 10.8696 20L12.0343 19.7693C12.2672 19.6924 12.5777 19.5385 12.6554 19.3078C12.8107 19.0771 12.8107 18.7694 12.733 18.5387C12.6554 18.1541 12.733 18.0003 12.733 17.9234C12.8107 17.7696 13.0436 17.6158 13.2765 17.5388L15.4504 18.308C15.6833 18.3849 15.9163 18.3849 16.1492 18.308L17.6244 17.7696C17.7796 17.6927 17.8573 17.6927 17.9349 17.5388L19.3324 16.2314C19.7206 15.9237 19.7206 15.3084 19.4877 14.9239L19.3324 14.3855Z" fill="#3A4757"/>
</svg>