<svg width="20" height="20" viewBox="0 0 20 20" fill="none" xmlns="http://www.w3.org/2000/svg">
<path d="M19.3886 14.1573C19.2366 13.9326 19.0085 13.7828 18.7043 13.7079C18.6283 13.633 18.6283 13.4831 18.5523 13.3333L18.7043 13.1835C19.0085 12.7341 19.0085 12.2097 18.7043 11.8352C18.7804 11.5356 18.7804 11.236 18.6283 10.9363L18.1721 10.0375C18.0961 9.96255 18.02 9.81273 17.944 9.73783C18.4762 9.73783 18.9324 9.3633 19.0845 8.83895L19.3126 8.01498C19.3886 7.79026 19.3886 7.64045 19.3126 7.41573C19.1605 6.96629 19.5407 6.29214 19.7688 5.9176C19.9969 5.61798 20.073 5.16854 19.9209 4.79401C19.7688 4.41948 19.4647 4.11985 19.0845 4.04494L17.7159 3.74532L16.1192 3.14607L14.8266 2.09738C14.5225 1.79775 14.0663 1.72285 13.6101 1.87266C13.458 1.94757 13.1539 1.57303 13.0778 1.42322C13.0018 1.34831 12.9258 1.1985 12.8497 1.1236L11.9373 0.299625C11.6332 0 11.101 -0.0749064 10.6447 0.0749064L9.35217 0.599251C8.81993 0.82397 8.5158 1.34831 8.59183 1.87266C8.66787 2.47191 8.21166 2.69663 7.90753 2.77154C7.60339 2.84644 7.29926 2.99625 7.14719 3.22097C7.07115 2.92135 6.69098 2.69663 6.31081 2.62172L5.09427 2.54682C4.7141 2.54682 4.33393 2.69663 4.0298 2.99625C3.8017 3.37079 3.72566 3.82023 3.95376 4.19476V4.26966C3.8017 4.19476 3.64963 4.19476 3.49756 4.19476C3.34549 4.19476 3.19342 4.19476 0.912407 4.7191C0.38017 4.86891 0 5.31835 0 5.8427V6.74157C0 7.0412 0.0760339 7.26592 0.228102 7.49064L0.608271 8.01498C0.760339 8.2397 0.988441 8.38951 1.29258 8.46442L2.66119 8.76404L3.34549 9.4382L3.42153 9.88764C3.49756 10.1124 3.57359 10.3371 3.72566 10.4869L4.56203 11.3109C4.7141 14.2322 3.64963 15.8052 3.64963 15.8052C3.26946 16.3296 3.34549 17.0037 3.87773 17.4532L5.24634 18.5768C5.39841 18.7266 5.55048 18.8015 5.77858 18.8015L7.60339 19.176C7.90753 19.2509 8.13563 19.176 8.36373 19.1011L10.2646 19.9251C10.4166 20 10.5687 20 10.7208 20C10.7968 20 10.8728 20 10.9489 20L12.0894 19.7753C12.3935 19.7004 12.6977 19.5506 12.8497 19.2509C13.0018 18.9513 13.0778 18.6517 13.0018 18.2772C12.9258 18.1273 12.9258 17.9775 13.0018 17.9026C13.0778 17.8277 13.2299 17.6779 13.382 17.603L15.4349 18.3521C15.739 18.427 15.9671 18.427 16.2713 18.3521L17.7159 17.8277C17.868 17.7528 18.02 17.6779 18.0961 17.603L19.4647 16.3296C19.9209 15.9551 19.9969 15.2809 19.6168 14.7566L19.3886 14.1573ZM17.5638 7.71536L17.4878 7.94008H17.4118C17.1076 7.94008 16.7275 8.08989 16.5754 8.38951L15.739 9.96255C15.587 10.2622 15.587 10.6367 15.8151 10.9363C16.0432 11.236 16.3473 11.3109 16.7275 11.3109L16.8035 11.3858C16.5754 11.7603 16.5754 12.2097 16.8795 12.5094L16.9556 12.5843V12.6592C16.8035 12.809 16.8035 13.0337 16.8035 13.2584C16.8795 14.3071 17.3357 15.1311 17.944 15.4307L17.1076 16.1798L16.0432 16.5543L13.9142 15.7303C13.7621 15.6554 13.534 15.6554 13.3059 15.7303C12.9258 15.8052 12.0894 16.1798 11.6332 16.9288C11.4811 17.1536 11.3291 17.603 11.3291 18.0524L10.9489 18.1273L8.81993 17.2285C8.66787 17.1536 8.59183 17.1536 8.43976 17.1536C8.2877 17.1536 8.13563 17.2285 7.98356 17.3034L7.83149 17.3783L6.38685 17.0786L5.55048 16.4045C6.00668 15.5805 6.76702 13.7079 6.46288 10.8614C6.46288 10.6367 6.38685 10.4869 6.23478 10.3371L5.32237 9.4382L5.24634 8.91386C5.24634 8.68914 5.09427 8.53933 4.9422 8.38951L3.8017 7.41573C3.72566 7.34082 3.57359 7.26592 3.42153 7.19101L1.97688 6.74157L1.82481 6.59176V6.36704C2.73722 6.14232 3.19342 6.06742 3.34549 5.99251C3.42153 6.06742 3.57359 6.14232 3.8017 6.36704C3.95376 6.51685 4.18186 6.59176 4.40997 6.59176H5.32237C5.55048 6.59176 5.85461 6.51685 6.00668 6.29214C6.15875 6.21723 6.31081 5.9176 6.23478 5.69288L6.15875 5.01873C6.23478 5.09363 6.31081 5.16854 6.46288 5.24345C7.37529 5.54307 8.13563 5.46816 8.59183 4.94382C8.7439 4.79401 8.81993 4.64419 8.81993 4.41948C9.73234 4.11985 10.4927 3.29588 10.5687 2.17228L11.101 1.94757L11.5572 2.47191C12.0894 3.29588 12.9258 3.89513 13.9142 3.74532L15.0547 4.6442C15.1307 4.7191 15.2068 4.79401 15.2828 4.79401L17.1837 5.46816H17.2597L17.868 5.61798C17.6399 6.21723 17.4118 6.96629 17.5638 7.71536Z" fill="#3A4757"/>
</svg>