<svg width="13" height="17" viewBox="0 0 13 17" fill="none" xmlns="http://www.w3.org/2000/svg">
<path fill-rule="evenodd" clip-rule="evenodd" d="M7.26471 0C9.16522 0 10.7059 1.48269 10.7059 3.31169V3.47727C10.7059 3.26389 10.8771 3.09091 11.0882 3.09091C11.2759 3.09091 11.4321 3.22759 11.4644 3.40782L11.4706 3.47727V5.02273C11.4706 5.23611 11.2994 5.40909 11.0882 5.40909C10.9005 5.40909 10.7444 5.27241 10.712 5.09218L10.7059 5.02273L10.7071 10.8439C11.6248 10.7912 12.0996 10.5412 12.2159 10.1577L12.2329 10.0879L12.2326 3.91507L12.0636 3.95103C11.8796 3.98933 11.6978 3.89387 11.6282 3.73259L11.6075 3.66915C11.5676 3.49247 11.6671 3.31792 11.8351 3.25105L11.9011 3.23123L12.5352 3.09926C12.7525 3.05404 12.9588 3.19442 12.9946 3.39673L13 3.45916V6.77351L12.9948 10.1486C12.839 11.0432 12.0386 11.5086 10.7067 11.5808L10.7064 14.7311C11.1486 14.875 11.4706 15.3174 11.4706 15.8409C11.4706 16.4811 10.9891 17 10.3952 17H1.07537C0.481459 17 0 16.4811 0 15.8409C0 15.3171 0.322367 14.8744 0.764928 14.7308L0.764706 3.31169C0.764706 1.48269 2.30537 0 4.20588 0H7.26471ZM10.3952 15.4545H1.07537C0.877398 15.4545 0.716912 15.6275 0.716912 15.8409C0.716912 16.0543 0.877398 16.2273 1.07537 16.2273H10.3952C10.5932 16.2273 10.7537 16.0543 10.7537 15.8409C10.7537 15.6275 10.5932 15.4545 10.3952 15.4545ZM7.26471 0.772727H4.20588C2.72771 0.772727 1.52941 1.91986 1.52941 3.33493V14.6818H9.94118V3.33493C9.94118 1.96703 8.82143 0.849501 7.41156 0.776518L7.26471 0.772727ZM8.07721 2.31818C8.26198 2.31818 8.41177 2.49116 8.41177 2.70455V5.79545C8.41177 6.00884 8.26198 6.18182 8.07721 6.18182H3.39338C3.20861 6.18182 3.05882 6.00884 3.05882 5.79545V2.70455C3.05882 2.49116 3.20861 2.31818 3.39338 2.31818H8.07721ZM7.64706 3.09091H3.82353V5.40909H7.64706V3.09091Z" fill="#3A4757"/>
</svg>