<svg width="17" height="14" viewBox="0 0 17 14" fill="none" xmlns="http://www.w3.org/2000/svg">
<path fill-rule="evenodd" clip-rule="evenodd" d="M6.4116 2.21372C6.58502 2.21468 6.73642 2.33028 6.7815 2.49616L7.55213 5.17552C7.57934 5.29214 7.55403 5.41472 7.48277 5.51139C7.40203 5.61374 7.27428 5.66839 7.1437 5.65643L6.08755 5.656V7.61056L6.4116 7.61061C7.02998 7.6148 7.52901 8.11255 7.52901 8.7251L7.52868 9.12956L7.66772 9.12968C8.13232 9.14612 8.5003 9.52413 8.5 9.98463V13.6182C8.50037 13.8203 8.34153 13.9877 8.13781 13.9999H0.385313C0.17251 13.9999 0 13.829 0 13.6182V9.98463C0 9.75788 0.0909334 9.54042 0.252796 9.38009C0.414659 9.21975 0.634192 9.12968 0.863101 9.12968L1.08645 9.12956L1.08658 8.7251C1.09078 8.11132 1.59206 7.61477 2.2117 7.61061L5.31714 7.61056V5.656L4.26156 5.65643C4.14561 5.65776 4.03522 5.60729 3.96101 5.51903C3.88784 5.42905 3.85699 5.31238 3.87625 5.19842L4.42339 2.51906C4.46002 2.34133 4.61787 2.21368 4.801 2.21372H6.4116ZM16.2252 0C16.6606 0.0281972 16.9988 0.385757 16.9979 0.816785L16.9993 5.02535C16.9998 5.03296 17 5.04062 17 5.04834L16.9977 5.07033L16.9993 8.91424C16.9998 8.92185 17 8.92951 17 8.93723L16.9977 8.95922L16.9979 13.1831C16.9988 13.6141 16.6606 13.9717 16.2252 13.9999H10.1129C9.89095 14.004 9.67665 13.9197 9.51823 13.7661C9.35982 13.6125 9.27063 13.4024 9.27063 13.1831V0.816785C9.27063 0.365687 9.6408 0 10.0974 0H16.2252ZM7.64461 9.89303L7.27239 9.89402C7.26555 9.89641 7.25862 9.89863 7.25159 9.90066C7.21242 9.91062 7.18433 9.94463 7.18223 9.98463L7.18307 11.6272C7.18761 11.672 7.18994 11.7173 7.18994 11.7632L7.18945 13.2362L7.72937 13.2365V9.98463C7.72954 9.93688 7.69265 9.89701 7.64461 9.89303ZM1.27924 9.90066H0.863101C0.838575 9.90066 0.815053 9.91031 0.797711 9.92749C0.780369 9.94467 0.770626 9.96797 0.770626 9.99226L0.793744 13.2365H1.33318V9.98463C1.33346 9.94856 1.31234 9.91569 1.27924 9.90066ZM6.41132 12.3962L2.10381 12.3968V13.2365H6.4116L6.41132 12.3962ZM16.225 9.31856H13.5088V13.2214L16.1788 13.2222C16.2041 13.2159 16.2227 13.2479 16.2252 13.2222L16.225 9.31856ZM12.7384 9.31856H10.0439L10.0434 13.2222L12.7384 13.2214V9.31856ZM5.83364 11.1831H2.7049C2.425 11.1866 2.1912 11.3768 2.12355 11.6332L6.40462 11.6335C6.34514 11.3756 6.11208 11.1831 5.83364 11.1831ZM11.9773 10.3205C12.1901 10.3205 12.3626 10.4914 12.3626 10.7022V11.2365C12.3626 11.4473 12.1901 11.6182 11.9773 11.6182C11.7662 11.6141 11.5961 11.4456 11.592 11.2365V10.7022C11.5961 10.4931 11.7662 10.3246 11.9773 10.3205ZM14.2944 10.3205C14.5072 10.3205 14.6797 10.4914 14.6797 10.7022V11.2365C14.6797 11.4473 14.5072 11.6182 14.2944 11.6182C14.0816 11.6182 13.9091 11.4473 13.9091 11.2365V10.7022C13.9091 10.4914 14.0816 10.3205 14.2944 10.3205ZM6.4116 8.35869L5.80661 8.3599C5.77353 8.36906 5.73866 8.37396 5.70263 8.37396C5.66674 8.37396 5.63201 8.3691 5.59905 8.36001L2.2117 8.35869C2.01764 8.36274 1.86129 8.51761 1.85721 8.70983V9.37395C2.01598 9.5321 2.1047 9.74633 2.10381 9.96936L2.10362 10.5597C2.28508 10.4712 2.48909 10.4209 2.7049 10.4197H5.83364C6.04053 10.4197 6.23661 10.4656 6.41206 10.5477L6.4116 9.98463L6.41209 9.96878L6.41532 9.88271C6.43854 9.64723 6.56235 9.43072 6.75839 9.28998V8.70983C6.75839 8.51885 6.60437 8.36284 6.4116 8.35869ZM16.225 5.42967H10.0447L10.0439 8.55478H16.225V5.42967ZM6.11106 2.97707H5.12466L4.73164 4.89308H6.64279L6.11106 2.97707ZM16.225 3.08467H10.0447V4.66589H16.225V3.08467ZM16.2252 0.777778H10.0455V2.34422H16.225L16.2252 0.777778Z" fill="#3A4757"/>
</svg>