<svg width="17" height="12" viewBox="0 0 17 12" fill="none" xmlns="http://www.w3.org/2000/svg">
<path fill-rule="evenodd" clip-rule="evenodd" d="M14.4356 0C15.5598 0.0202187 16.3765 0.26557 16.3765 0.856032L16.3719 0.790138L16.9376 3.25115L16.9676 3.3226L17 3.48382C17 4.1336 16.0298 4.44483 14.6823 4.49325L14.6818 11.25H15.8409C16.0543 11.25 16.2273 11.4179 16.2273 11.625C16.2273 11.8091 16.0906 11.9622 15.9104 11.994L15.8409 12H12.75C12.5366 12 12.3636 11.8321 12.3636 11.625C12.3636 11.4409 12.5003 11.2878 12.6805 11.256L12.75 11.25H13.9091L13.9094 4.49328C12.5615 4.44495 11.5909 4.13372 11.5909 3.48382V3.41237L11.602 3.31666L12.1957 0.788551L12.1969 0.777656C12.2664 0.243837 13.055 0.0193093 14.1256 0H14.4356ZM10.4318 5.25C10.6452 5.25 10.8182 5.41789 10.8182 5.625L10.8187 8.33022C11.2673 8.50346 11.5868 8.93868 11.5909 9.45166V11.204C11.5844 11.6409 11.233 11.9935 10.7925 12L10.5533 12C10.117 11.9933 9.76687 11.6366 9.76692 11.1989V10.8881H1.8233L1.82398 11.1989C1.82403 11.6074 1.51901 11.9454 1.11944 11.9941L1.03244 12H0.793899C0.371903 11.9944 0.0257716 11.6629 0 11.2196V9.44889C0.00420398 8.92274 0.314476 8.47734 0.772473 8.31533L0.772727 5.625C0.772727 5.41789 0.945708 5.25 1.15909 5.25H10.4318ZM10.4318 9H1.15909C0.875581 9 0.690553 9.16998 0.688296 9.45166L0.687684 11.199C0.69134 11.2604 0.741632 11.3086 0.798424 11.3094L1.02723 11.3094C1.0874 11.3085 1.1357 11.2593 1.13569 11.1989V10.5428C1.13569 10.3521 1.28977 10.1975 1.47984 10.1975H10.1111C10.3011 10.1975 10.4552 10.3521 10.4552 10.5428V11.1989C10.4552 11.2593 10.5035 11.3085 10.5585 11.3094L10.7874 11.3094C10.8507 11.3085 10.9017 11.2573 10.9026 11.1989V9.45442C10.9004 9.16999 10.7153 9 10.4318 9ZM10.0455 6H1.54545V8.25H10.0455V6ZM14.2804 0.79252C13.8426 0.79252 13.4413 0.838022 13.1566 0.915072C13.0348 0.948034 12.9441 0.98448 12.8955 1.0158L12.9199 1.00211L12.3572 3.3957L12.3974 3.41793C12.459 3.44894 12.54 3.48035 12.6374 3.51013L12.7402 3.53928C13.14 3.64467 13.6963 3.70611 14.2955 3.70611C14.8946 3.70611 15.451 3.64467 15.8507 3.53928C16.0307 3.49185 16.1679 3.438 16.2486 3.38711L16.2067 3.40999L15.6477 1.0029L15.5898 0.975047L15.4948 0.940568L15.4086 0.915215C15.1218 0.838087 14.7186 0.79252 14.2804 0.79252Z" fill="#3A4757"/>
</svg>