<svg width="20" height="16" viewBox="0 0 20 16" fill="none" xmlns="http://www.w3.org/2000/svg">
<path d="M2.36108 1.80645C2.25057 1.80645 2.1446 1.84723 2.06646 1.91983C1.98832 1.99242 1.94442 2.09088 1.94442 2.19354V11.8709C1.94442 12.3698 1.50915 12.7742 0.97221 12.7742C0.435273 12.7742 0 12.3698 0 11.8709V2.19354C0 1.61178 0.248756 1.05384 0.691544 0.642474C1.13433 0.231105 1.73488 0 2.36108 0H14.8609C15.3979 0 15.8331 0.404387 15.8331 0.903224C15.8331 1.40206 15.3979 1.80645 14.8609 1.80645H2.36108Z" fill="#3A4757"/>
<path fill-rule="evenodd" clip-rule="evenodd" d="M18.84 15.6954C19.5344 15.3135 20 14.6105 20 13.8065V5.41938C20 4.20792 18.9429 3.22583 17.6389 3.22583H5.83352C4.52953 3.22583 3.47244 4.20792 3.47244 5.41938V13.8065C3.47244 14.6685 4.0077 15.4144 4.78631 15.773C4.85373 15.8098 4.92483 15.8383 4.99794 15.8587C5.25769 15.95 5.53932 16 5.83352 16H17.6389C17.9604 16 18.2668 15.9403 18.5461 15.8322C18.6498 15.8031 18.7493 15.7575 18.84 15.6954ZM18.0556 13.4565L13.4841 9.00509C13.2621 8.78559 12.9939 8.6109 12.696 8.49193C12.3964 8.37227 12.0734 8.31156 11.7474 8.31362C11.4213 8.31568 11.0992 8.38047 10.8014 8.5039C10.507 8.62595 10.2426 8.80273 10.0245 9.02329L5.41686 13.5436V5.41938C5.41686 5.20559 5.6034 5.03228 5.83352 5.03228H17.6389C17.869 5.03228 18.0556 5.20559 18.0556 5.41938V13.4565Z" fill="#3A4757"/>
</svg>