<svg width="16" height="20" viewBox="0 0 16 20" fill="none" xmlns="http://www.w3.org/2000/svg">
<path d="M9.63926 13.8431C9.31534 14.1729 9.14847 14.6027 9.14847 15.0625C9.14847 15.5222 9.32515 15.962 9.64908 16.2819C9.97301 16.6017 10.3951 16.7816 10.8466 16.7816C11.2982 16.7816 11.7301 16.6017 12.0442 16.2819C12.3583 15.962 12.535 15.5222 12.535 15.0625C12.535 14.6027 12.3583 14.1729 12.0442 13.8431C11.416 13.1934 10.2871 13.1934 9.64908 13.8431H9.63926ZM11.0331 15.2524C10.935 15.3623 10.7485 15.3523 10.6503 15.2524C10.6012 15.2024 10.5718 15.1324 10.5718 15.0525C10.5718 14.9725 10.6012 14.9125 10.6503 14.8526C10.6994 14.8026 10.7681 14.7726 10.8368 14.7726C10.9055 14.7726 10.9742 14.8026 11.0331 14.8526C11.0822 14.9025 11.1117 14.9725 11.1117 15.0525C11.1117 15.1324 11.0822 15.1924 11.0331 15.2524Z" fill="#3A4757"/>
<path d="M2.40491 0C1.07975 0 0 1.09945 0 2.44878V17.5512C0 18.9005 1.07975 20 2.40491 20H13.5951C14.9202 20 16 18.9005 16 17.5512V2.44878C16 1.09945 14.9202 0 13.5951 0H2.40491ZM14.027 17.5412C14.027 17.7911 13.8307 17.991 13.5853 17.991H2.40491C2.15951 17.991 1.96319 17.7911 1.96319 17.5412V2.44878C1.96319 2.1989 2.15951 1.999 2.40491 1.999H13.5951C13.8405 1.999 14.0368 2.1989 14.0368 2.44878V17.5512L14.027 17.5412Z" fill="#3A4757"/>
<path d="M12.2994 2.47876H3.6908C3.15092 2.47876 2.7092 2.92854 2.7092 3.47826V10.7846C2.7092 11.3343 3.15092 11.7841 3.6908 11.7841H12.2994C12.8393 11.7841 13.281 11.3343 13.281 10.7846V3.47826C13.281 2.92854 12.8393 2.47876 12.2994 2.47876ZM11.3178 9.77511H4.67239V4.46777H11.3178V9.77511Z" fill="#3A4757"/>
<path d="M6.55706 14.053H6.33129V13.8231C6.33129 13.2734 5.88957 12.8236 5.34969 12.8236C4.80982 12.8236 4.3681 13.2734 4.3681 13.8231V14.053H4.14233C3.60245 14.053 3.16074 14.5027 3.16074 15.0525C3.16074 15.6022 3.60245 16.052 4.14233 16.052H4.3681V16.2819C4.3681 16.8316 4.80982 17.2814 5.34969 17.2814C5.88957 17.2814 6.33129 16.8316 6.33129 16.2819V16.052H6.55706C7.09693 16.052 7.53865 15.6022 7.53865 15.0525C7.53865 14.5027 7.09693 14.053 6.55706 14.053Z" fill="#3A4757"/>
</svg>