<svg width="20" height="20" viewBox="0 0 20 20" fill="none" xmlns="http://www.w3.org/2000/svg">
<path fill-rule="evenodd" clip-rule="evenodd" d="M9.38053 0.263158C9.73451 -0.0877193 10.354 -0.0877193 10.708 0.263158L19.292 8.15789C19.5575 8.42105 19.7345 8.68421 19.823 8.94737C19.9115 9.21053 20 9.5614 20 9.91228V17.6316C20 18.2456 19.7345 18.8596 19.292 19.2982C18.8496 19.7368 18.2301 20 17.6106 20H2.38938C1.76991 20 1.15044 19.7368 0.707965 19.2982C0.265487 18.8596 0 18.2456 0 17.6316V9.91228C0 9.5614 0.0884956 9.29825 0.176991 8.94737C0.265487 8.68421 0.530973 8.33333 0.707965 8.15789L9.38053 0.263158ZM2.12389 9.64912L2.0354 9.73684C2.0354 9.82456 2.0354 9.82456 2.0354 9.91228V17.6316C2.0354 17.7193 2.0354 17.807 2.12389 17.8947C2.21239 17.9825 2.30088 17.9825 2.38938 17.9825H4.95575V11.5789C4.95575 11.0526 5.39823 10.614 5.9292 10.614H14.0708C14.3363 10.614 14.6018 10.7018 14.7788 10.8772C14.9558 11.0526 15.0442 11.3158 15.0442 11.5789V17.9825H17.6991C17.7876 17.9825 17.8761 17.9825 17.9646 17.8947C18.0531 17.807 18.0531 17.7193 18.0531 17.6316V9.91228C18.0531 9.82456 18.0531 9.82456 18.0531 9.73684C18.0531 9.64912 17.9646 9.64912 17.9646 9.64912L10 2.36842L2.12389 9.64912ZM13.0973 17.9825V12.6316H6.99115V17.9825H13.0973ZM14.1593 10.1754H6.0177C5.48673 10.1754 5.04425 9.73684 5.04425 9.21053C5.04425 8.68421 5.48673 8.24561 6.0177 8.24561H14.1593C14.6903 8.24561 15.1327 8.68421 15.1327 9.21053C15.1327 9.73684 14.6903 10.1754 14.1593 10.1754Z" fill="#3A4757"/>
</svg>