<svg width="17" height="15" viewBox="0 0 17 15" fill="none" xmlns="http://www.w3.org/2000/svg">
<path fill-rule="evenodd" clip-rule="evenodd" d="M8.74357 0.0118922L8.8026 0.0328996L16.7818 3.66812C16.8956 3.71997 16.9746 3.82577 16.9949 3.94795L17 4.01022V14.625C17 14.8321 16.8345 15 16.6304 15C16.449 15 16.2981 14.8673 16.2668 14.6924L16.2609 14.625V4.25325L8.65004 0.786L0.73913 4.36575V14.625C0.73913 14.8091 0.608397 14.9622 0.435995 14.994L0.369565 15C0.188138 15 0.0372458 14.8673 0.00595403 14.6924L0 14.625V4.12255C0 3.99567 0.0630468 3.87897 0.164961 3.81025L0.219045 3.78006L8.50071 0.0325126C8.57759 -0.00227515 8.66324 -0.00914251 8.74357 0.0118922ZM10.9693 3.75002C11.4371 3.74748 11.8639 4.02543 12.0819 4.46605L12.1284 4.57056L13.1488 7.17115L13.8429 6.47736C13.8906 6.42957 13.9497 6.39771 14.0128 6.38476L14.0771 6.37824H15.1102C15.3004 6.37824 15.4545 6.54443 15.4545 6.74945C15.4545 6.93169 15.3327 7.08325 15.1721 7.11468L15.1102 7.12066H14.2121L13.7541 7.57743C13.9278 7.62828 14.1139 7.70054 14.3013 7.79982C15.0123 8.17645 15.4545 8.82495 15.4545 9.76629V13.0883C15.4545 13.2822 15.3086 13.4394 15.1287 13.4394L14.6685 13.4388C14.6772 13.477 14.6818 13.5169 14.6818 13.5583C14.6818 14.3545 13.9899 15 13.1364 15C12.2828 15 11.5909 14.3545 11.5909 13.5583C11.5909 13.5169 11.5955 13.477 11.6043 13.4388H5.39573C5.40452 13.477 5.40909 13.5169 5.40909 13.5583C5.40909 14.3545 4.71717 15 3.86364 15C3.01011 15 2.31818 14.3545 2.31818 13.5583C2.31818 13.5169 2.32275 13.477 2.33154 13.4388L1.87135 13.4394C1.69136 13.4394 1.54545 13.2822 1.54545 13.0883V9.76629C1.54545 8.8243 1.9907 8.17581 2.70602 7.79941C2.89119 7.70197 3.07499 7.63061 3.24868 7.57991L2.78719 7.12066H1.88981C1.72076 7.12066 1.58016 6.98934 1.551 6.81617L1.54545 6.74945C1.54545 6.56721 1.66727 6.41564 1.82791 6.38421L1.88981 6.37823H2.92286C2.98803 6.37823 3.05139 6.39815 3.10587 6.43499L3.15712 6.47736L3.85055 7.17115L4.8722 4.56896C5.05645 4.10549 5.46307 3.79425 5.92213 3.75435L6.02893 3.75002H10.9693ZM4.63636 13.5583C4.63636 13.4417 3.09091 13.4417 3.09091 13.5583C3.09091 13.9564 3.43687 14.2792 3.86364 14.2792C4.2904 14.2792 4.63636 13.9564 4.63636 13.5583ZM13.9091 13.5583C13.9091 13.4417 12.3636 13.4417 12.3636 13.5583C12.3636 13.9564 12.7096 14.2792 13.1364 14.2792C13.5631 14.2792 13.9091 13.9564 13.9091 13.5583ZM13.1678 8.17847H3.84514C3.81715 8.18019 3.77286 8.18509 3.7157 8.19441L3.58526 8.21926C3.38168 8.26326 3.17856 8.33235 2.99203 8.4305C2.48525 8.69717 2.19724 9.11665 2.19724 9.76629V12.7371H14.8028V9.76629C14.8028 9.15935 14.5535 8.75348 14.1114 8.48545L14.0137 8.4301C13.8287 8.33209 13.6272 8.2631 13.4253 8.21918C13.3532 8.20347 13.2915 8.19298 13.2437 8.18649L13.1678 8.17847ZM9.76749 11.2034C9.92101 11.2034 10.0455 11.3713 10.0455 11.5784C10.0455 11.7625 9.94713 11.9156 9.81746 11.9474L9.76749 11.9534H7.2325C7.07899 11.9534 6.95455 11.7855 6.95455 11.5784C6.95455 11.3943 7.05287 11.2412 7.18254 11.2095L7.2325 11.2034H9.76749ZM4.32727 9.34007C5.0101 9.34007 5.56364 9.87399 5.56364 10.5326C5.56364 11.1912 5.0101 11.7252 4.32727 11.7252C3.64445 11.7252 3.09091 11.1912 3.09091 10.5326C3.09091 9.87399 3.64445 9.34007 4.32727 9.34007ZM12.4409 9.34007C13.1237 9.34007 13.6773 9.87399 13.6773 10.5326C13.6773 11.1912 13.1237 11.7252 12.4409 11.7252C11.7581 11.7252 11.2045 11.1912 11.2045 10.5326C11.2045 9.87399 11.7581 9.34007 12.4409 9.34007ZM4.32727 10.0854C4.07121 10.0854 3.86364 10.2856 3.86364 10.5326C3.86364 10.7796 4.07121 10.9798 4.32727 10.9798C4.58333 10.9798 4.79091 10.7796 4.79091 10.5326C4.79091 10.2856 4.58333 10.0854 4.32727 10.0854ZM12.4409 10.0854C12.1848 10.0854 11.9773 10.2856 11.9773 10.5326C11.9773 10.7796 12.1848 10.9798 12.4409 10.9798C12.697 10.9798 12.9045 10.7796 12.9045 10.5326C12.9045 10.2856 12.697 10.0854 12.4409 10.0854ZM9.76749 9.71274C9.92101 9.71274 10.0455 9.88063 10.0455 10.0877C10.0455 10.2718 9.94713 10.4249 9.81746 10.4567L9.76749 10.4627H7.2325C7.07899 10.4627 6.95455 10.2948 6.95455 10.0877C6.95455 9.90365 7.05287 9.75054 7.18254 9.71878L7.2325 9.71274H9.76749ZM10.9711 4.49246L6.02718 4.49244C5.82544 4.49134 5.64057 4.60605 5.53963 4.78838L5.50584 4.85983L4.47873 7.476L12.5213 7.47675L11.4948 4.86143C11.4153 4.66154 11.244 4.52449 11.0463 4.49738L10.9711 4.49246Z" fill="#3A4757"/>
</svg>