<svg width="17" height="13" viewBox="0 0 17 13" fill="none" xmlns="http://www.w3.org/2000/svg">
<path fill-rule="evenodd" clip-rule="evenodd" d="M6.83168 0.538778C6.19341 0.538778 5.67414 1.00678 5.67414 1.58311C5.67414 2.15872 6.19341 2.62672 6.83168 2.62672C7.46995 2.62672 7.98923 2.15872 7.98923 1.58311C7.98923 1.00678 7.46995 0.538778 6.83168 0.538778ZM6.83168 0C7.79914 0 8.58654 0.709944 8.58654 1.58311C8.58654 2.45555 7.79914 3.1655 6.83168 3.1655C5.86423 3.1655 5.07682 2.45555 5.07682 1.58311C5.07682 0.709944 5.86423 0 6.83168 0ZM13.0622 1.72106C11.9278 1.72106 11.0067 2.52128 10.9658 3.54322C10.9611 3.64867 10.8885 3.74256 10.7803 3.78228C10.1359 4.02133 9.72014 4.58106 9.72014 5.20867C9.72014 6.05872 10.4859 6.75061 11.4286 6.75061C11.9471 6.75061 12.4394 6.53539 12.7631 6.17067L12.7624 5.74311L11.7965 5.29967C11.6489 5.2325 11.5901 5.07 11.6651 4.93711C11.7408 4.80494 11.9201 4.7515 12.0669 4.81939L12.7624 5.13861L12.7631 3.64072C12.7631 3.49194 12.8968 3.37133 13.0622 3.37133C13.226 3.37133 13.3597 3.49194 13.3597 3.64072V4.21994L14.0567 3.90072C14.2027 3.83283 14.3828 3.88556 14.4577 4.01844C14.5327 4.15061 14.474 4.31311 14.3264 4.381L13.3597 4.82444V6.17067L13.3666 6.17861C13.6904 6.53828 14.1795 6.75061 14.6942 6.75061C15.6369 6.75061 16.4027 6.05872 16.4027 5.20867C16.4027 4.58106 15.987 4.02133 15.3425 3.78228C15.2343 3.74256 15.1617 3.64867 15.157 3.54322C15.1161 2.52128 14.195 1.72106 13.0622 1.72106ZM3.34823 4.45683C2.41091 4.45683 1.64823 5.14511 1.64823 5.99083C1.64823 6.05078 1.65286 6.11144 1.66136 6.17717C1.67682 6.29056 1.61036 6.40106 1.496 6.45161C0.941182 6.695 0.597318 7.19117 0.597318 7.74656C0.597318 8.40233 1.08723 8.97505 1.78886 9.13972C1.88005 9.16139 1.95423 9.22061 1.98977 9.29933C2.17832 9.71461 2.57705 10.0078 3.04995 10.0952L3.04918 9.43944L2.06395 8.6775C1.93877 8.58072 1.92409 8.41028 2.0315 8.29689C2.13891 8.18422 2.32745 8.17122 2.45264 8.268L3.04918 8.7295V6.62278C3.04918 6.474 3.18364 6.35339 3.34823 6.35339C3.51359 6.35339 3.6465 6.474 3.6465 6.62278V7.735L4.3775 7.18828C4.50423 7.09294 4.69277 7.10956 4.79786 7.22367C4.90295 7.33778 4.88595 7.5075 4.75845 7.60283L3.6465 8.43483L3.64727 10.0952C4.12018 10.0078 4.51891 9.71461 4.70668 9.29933C4.74223 9.22061 4.81641 9.16139 4.90759 9.13972C5.60923 8.97505 6.09914 8.40233 6.09914 7.74656C6.09914 7.19117 5.7545 6.695 5.20123 6.45161C5.08609 6.40106 5.01964 6.29056 5.03509 6.17717C5.04436 6.11144 5.04823 6.05078 5.04823 5.99083C5.04823 5.14511 4.28555 4.45683 3.34823 4.45683ZM12.6975 10.3545C12.2987 10.3545 11.9742 10.6463 11.9742 11.0059L11.975 11.0211C11.9765 11.1042 11.9355 11.1836 11.8645 11.2363C11.7926 11.2883 11.6983 11.3078 11.6087 11.2891C11.567 11.2804 11.5245 11.2753 11.4835 11.2753C11.1852 11.2753 10.9418 11.4942 10.9403 11.7628V11.7686C10.9418 11.8466 10.9047 11.9217 10.8406 11.973C10.7757 12.025 10.6899 12.0496 10.6041 12.0394C10.5794 12.0366 10.5562 12.0351 10.5338 12.0351C10.2587 12.0351 10.0308 12.2207 9.996 12.4612H15.3989C15.3649 12.2207 15.1362 12.0351 14.8611 12.0351C14.8379 12.0351 14.8155 12.0366 14.7908 12.0394C14.705 12.0496 14.6192 12.025 14.5543 11.9737C14.4902 11.9224 14.4531 11.8473 14.4539 11.7701V11.7621C14.4523 11.4942 14.2097 11.2753 13.9114 11.2753C13.8697 11.2753 13.828 11.2804 13.787 11.2891C13.6974 11.3078 13.6023 11.2883 13.5305 11.2363C13.4586 11.1836 13.4176 11.1042 13.42 11.0211V11.0052C13.42 10.6463 13.0954 10.3545 12.6975 10.3545ZM9.32759 9.25311C8.69473 9.25311 8.18009 9.71822 8.18009 10.2895L8.18086 10.3119C8.18318 10.3949 8.14223 10.4751 8.07036 10.5271C7.9985 10.5798 7.90423 10.5993 7.81382 10.5798C7.74659 10.5661 7.67782 10.5589 7.60905 10.5589C7.11759 10.5589 6.71809 10.9186 6.71654 11.3613L6.71732 11.3699C6.71809 11.4479 6.681 11.5231 6.61686 11.5743C6.55195 11.6271 6.46541 11.6502 6.38041 11.6401C6.34023 11.6357 6.30159 11.6336 6.26527 11.6336C5.77227 11.6336 5.372 11.9947 5.372 12.4388C5.372 12.4461 5.372 12.4533 5.37277 12.4612H9.39559L9.39636 12.454C9.43345 11.9658 9.84918 11.57 10.3808 11.5057C10.5021 11.0847 10.914 10.7676 11.4109 10.7387C11.4194 10.7055 11.4286 10.673 11.441 10.6405C11.3205 10.5863 11.1868 10.5589 11.0469 10.5589C10.9789 10.5589 10.9094 10.5661 10.8421 10.5798C10.7525 10.5993 10.6575 10.5791 10.5856 10.5271C10.5145 10.4751 10.4735 10.3949 10.4759 10.3119L10.4766 10.2895C10.4766 9.71822 9.96123 9.25311 9.32759 9.25311ZM13.0622 1.18228C13.7638 1.18228 14.4284 1.42494 14.9337 1.86478C15.392 2.26489 15.6748 2.7885 15.7412 3.35472C16.5116 3.70861 17 4.41856 17 5.20867C17 6.35628 15.9653 7.28939 14.6942 7.28939C14.2112 7.28939 13.7453 7.15072 13.3597 6.90372L13.3605 9.97606C13.6711 10.14 13.9014 10.4144 13.984 10.7387C14.4809 10.7676 14.8928 11.0847 15.0149 11.5057C15.548 11.57 15.9653 11.9694 15.9985 12.4612H16.5526C16.7172 12.4612 16.8509 12.5818 16.8509 12.7306C16.8509 12.8794 16.7172 13 16.5526 13H0.694682C0.529318 13 0.395636 12.8794 0.395636 12.7306C0.395636 12.5818 0.529318 12.4612 0.694682 12.4612H3.04918V10.6427C2.37923 10.5553 1.79968 10.1783 1.49755 9.62361C0.608909 9.35639 0 8.60239 0 7.74656C0 7.04672 0.398727 6.41406 1.05245 6.05656C1.05168 6.03417 1.05168 6.0125 1.05168 5.99083C1.05168 4.84828 2.08173 3.91806 3.34823 3.91806C4.61473 3.91806 5.64555 4.84828 5.64555 5.99083C5.64555 6.0125 5.64477 6.03417 5.644 6.05656C6.2985 6.41406 6.69645 7.04672 6.69645 7.74656C6.69645 8.60239 6.08832 9.35639 5.19891 9.62361C4.89755 10.1783 4.31723 10.5553 3.64727 10.6427L3.6465 12.4612H4.77468V12.4388C4.77468 11.7332 5.38127 11.1518 6.14859 11.0984C6.28536 10.4845 6.88809 10.0201 7.60827 10.0201C7.75045 9.27983 8.46755 8.71433 9.32759 8.71433C10.1892 8.71433 10.9055 9.27983 11.0477 10.0201C11.2926 10.0201 11.5345 10.075 11.7485 10.1783C11.9896 9.95439 12.325 9.81572 12.6975 9.81572L12.7624 9.81717L12.7631 6.90444C12.3775 7.15072 11.9116 7.28939 11.4286 7.28939C10.1575 7.28939 9.12282 6.35628 9.12282 5.20867C9.12282 4.41856 9.61118 3.70861 10.3824 3.35472C10.4488 2.7885 10.7309 2.26489 11.1899 1.86478C11.6945 1.42494 12.359 1.18228 13.0622 1.18228Z" fill="#3A4757"/>
</svg>