<svg width="18" height="20" viewBox="0 0 18 20" fill="none" xmlns="http://www.w3.org/2000/svg">
<path d="M8.06159 2.71864C7.62826 1.11944 6.23406 0 4.66087 0C3.08768 0 1.69348 1.11944 1.26014 2.71864L0.139128 6.88656C-0.171741 8.03598 0.0449255 9.23538 0.723186 10.1949C1.40145 11.1444 2.43768 11.6942 3.55869 11.6942H3.71884V18.001H2.70145C2.18333 18.001 1.75942 18.4508 1.75942 19.0005C1.75942 19.5502 2.18333 20 2.70145 20H6.61087C7.12898 20 7.5529 19.5502 7.5529 19.0005C7.5529 18.4508 7.12898 18.001 6.61087 18.001H5.59348V11.6942H5.75362C6.87464 11.6942 7.91087 11.1444 8.58913 10.1949C9.26739 9.24538 9.47464 8.03598 9.17319 6.88656L8.05217 2.71864H8.06159ZM7.0913 8.98551C6.77101 9.43528 6.29058 9.68516 5.76304 9.68516H5.6029V7.91604C5.6029 7.36632 5.17898 6.91654 4.66087 6.91654C4.14275 6.91654 3.71884 7.36632 3.71884 7.91604V9.68516H3.55869C3.03116 9.68516 2.5413 9.42529 2.23043 8.98551C1.91014 8.53573 1.81594 7.97601 1.95724 7.43628L3.07826 3.26837C3.27609 2.51874 3.93551 1.999 4.67029 1.999C5.40507 1.999 6.05507 2.51874 6.26232 3.26837L7.38333 7.43628C7.52464 7.97601 7.43043 8.53573 7.11014 8.98551H7.0913Z" fill="#3A4757"/>
<path d="M14.7312 11.1944V1.999H15.7485C16.2667 1.999 16.6906 1.54923 16.6906 0.9995C16.6906 0.449775 16.2667 0 15.7485 0H11.8391C11.321 0 10.8971 0.449775 10.8971 0.9995C10.8971 1.54923 11.321 1.999 11.8391 1.999H12.8565V11.1944C10.9913 11.6542 9.5971 13.4133 9.5971 15.5322V18.9905C9.5971 19.5402 10.021 19.99 10.5391 19.99C11.0572 19.99 11.4812 19.5402 11.4812 18.9905V15.5322C11.4812 14.5327 12.0464 13.6732 12.8565 13.2934V19.0005C12.8565 19.5502 13.2804 20 13.7985 20C14.3167 20 14.7406 19.5502 14.7406 19.0005V13.2934C15.5507 13.6732 16.1159 14.5327 16.1159 15.5322V18.9905C16.1159 19.5402 16.5399 19.99 17.058 19.99C17.5761 19.99 18 19.5402 18 18.9905V15.5322C18 13.4233 16.6058 11.6542 14.7406 11.1944H14.7312Z" fill="#3A4757"/>
</svg>