<svg width="19" height="20" viewBox="0 0 19 20" fill="none" xmlns="http://www.w3.org/2000/svg">
<path d="M17.7705 11.8548L16.9664 10.8065V9.19355L17.7705 8.14516C18.0921 7.74194 18.2529 7.33871 18.2529 6.85484C18.2529 6.37097 18.1725 5.8871 17.9313 5.48387L17.3684 4.51613C17.1272 4.1129 16.8056 3.79032 16.4035 3.54839C16.0015 3.30645 15.519 3.30645 15.0365 3.30645L13.75 3.46774L12.3026 2.66129L11.8202 1.45161C11.6594 1.04839 11.3377 0.645161 10.9357 0.403226C10.5336 0.16129 10.0512 0 9.64912 0H8.52339C8.04094 0 7.55848 0.16129 7.23684 0.403226C6.91521 0.725806 6.59357 1.12903 6.43275 1.6129L5.95029 2.82258L4.50292 3.62903L3.21637 3.3871C2.73392 3.30645 2.25146 3.3871 1.84942 3.62903C1.44737 3.87097 1.12573 4.19355 0.884503 4.59677L0.321637 5.48387C0.0804092 5.96774 0 6.37097 0 6.85484C0 7.33871 0.241228 7.74194 0.482456 8.14516L1.28655 9.19355V10.8065L0.482456 11.8548C0.160819 12.2581 0 12.6613 0 13.1452C0 13.629 0.0804092 14.1129 0.321637 14.5161L0.884503 15.4839C1.12573 15.8871 1.44737 16.2097 1.84942 16.4516C2.25146 16.6935 2.73392 16.6935 3.21637 16.6935L4.50292 16.5323L5.95029 17.3387L6.43275 18.5484C6.59357 18.9516 6.91521 19.3548 7.31725 19.5968C7.7193 19.8387 8.20175 20 8.6038 20H9.72953C10.212 20 10.6944 19.8387 11.0161 19.5968C11.4181 19.3548 11.7398 18.9516 11.9006 18.5484L12.383 17.3387L13.8304 16.5323L15.117 16.6935C15.5994 16.7742 16.0819 16.6935 16.4839 16.4516C16.886 16.2097 17.2076 15.8871 17.4488 15.4839L18.0117 14.5161C18.2529 14.1129 18.3333 13.629 18.3333 13.1452C18.2529 12.6613 18.0921 12.1774 17.7705 11.8548ZM2.01007 13.0646L3.0554 11.7742C3.21621 11.6129 3.29662 11.371 3.29662 11.2097V8.87101C3.29662 8.62907 3.21621 8.46778 3.0554 8.22584L2.01007 6.93552C1.92966 6.85488 1.92966 6.85488 1.92966 6.69359C1.92966 6.61294 1.92982 6.53226 2.01023 6.45161L2.5731 5.48387C2.5731 5.48387 2.65351 5.40323 2.73392 5.40323C2.81433 5.40323 2.89474 5.32258 2.97515 5.40323L4.58333 5.64516C4.82456 5.64516 4.98538 5.64516 5.22661 5.56452L7.23684 4.43548C7.39766 4.35484 7.55848 4.1129 7.63889 3.95161L8.20175 2.41935C8.20175 2.33871 8.28216 2.25806 8.36257 2.25806C8.44298 2.17742 8.52339 2.17742 8.6038 2.17742H9.72953C9.80994 2.17742 9.89035 2.17742 9.97076 2.25806C10.0512 2.33871 10.0512 2.33871 10.1316 2.41935L10.6944 3.79032C10.7749 4.03226 10.9357 4.19355 11.0965 4.27419L13.1067 5.48387C13.2675 5.56452 13.5088 5.64516 13.75 5.56452L15.3582 5.32258C15.4386 5.32258 15.519 5.32258 15.5994 5.32258C15.6798 5.32258 15.7602 5.40323 15.7602 5.48387L16.3231 6.53226C16.3231 6.53226 16.4034 6.61294 16.3229 6.69359C16.3229 6.77423 16.3231 6.85484 16.2427 6.93548L15.1974 8.22581C15.0366 8.3871 14.9561 8.62903 14.9561 8.79032V11.129C14.9561 11.371 15.0366 11.5323 15.1974 11.7742L16.2427 13.0645C16.3231 13.1452 16.3231 13.2258 16.3231 13.3065C16.3231 13.3871 16.3231 13.4677 16.2427 13.5484L15.6798 14.5161C15.6798 14.5968 15.5994 14.6774 15.519 14.6774C15.4386 14.6774 15.3582 14.7581 15.2778 14.6774L13.6696 14.4355C13.4284 14.4355 13.2675 14.4355 13.0263 14.5161L11.0161 15.6452C10.8553 15.7258 10.6944 15.9677 10.614 16.129L10.0512 17.6613C10.0512 17.7419 9.97076 17.8226 9.89035 17.8226C9.80994 17.8226 9.72953 17.9032 9.64912 17.9032H8.52339C8.44298 17.9032 8.36257 17.9032 8.28216 17.8226C8.20175 17.7419 8.20176 17.7419 8.12135 17.6613L7.55848 16.129C7.47807 15.8871 7.31725 15.7258 7.15643 15.6452L5.1462 14.5161C4.98538 14.4355 4.82456 14.3548 4.66374 14.3548C4.58333 14.3548 4.58333 14.3548 4.50292 14.3548L2.89474 14.5968C2.81433 14.5968 2.73392 14.5968 2.65351 14.5968C2.5731 14.5968 2.49269 14.5161 2.49269 14.4355L1.92982 13.4677C1.84942 13.3871 1.84942 13.3065 1.84942 13.2258C1.92982 13.1452 2.01007 13.1452 2.01007 13.0646Z" fill="#3A4757"/>
<path d="M7.71914 13.4678C8.20159 13.6291 8.68405 13.7904 9.16651 13.7904C9.40773 13.7904 9.64896 13.7904 9.89019 13.7097C10.6139 13.5484 11.2572 13.2258 11.82 12.6613C12.3025 12.1775 12.7045 11.4517 12.8653 10.7258C13.0262 10 12.9457 9.27423 12.6241 8.54842C12.3829 7.90326 11.9004 7.2581 11.2572 6.85488C10.6139 6.45165 9.9706 6.20972 9.16651 6.20972C8.20159 6.20972 7.23668 6.61294 6.513 7.33875C5.78931 8.06455 5.38727 8.95165 5.38727 10C5.38727 10.7258 5.6285 11.4517 6.03054 12.0968C6.513 12.6613 7.07586 13.1452 7.71914 13.4678ZM7.39774 10C7.39774 9.51614 7.55856 9.11292 7.8802 8.70969C8.20184 8.30646 8.68429 8.22582 9.16675 8.22582C9.48839 8.22582 9.89043 8.30647 10.1317 8.5484C10.4533 8.70969 10.6141 9.03227 10.7749 9.35485C10.9358 9.67743 10.9358 10 10.8553 10.4032C10.7749 10.7258 10.6141 11.0484 10.3729 11.2903C10.1317 11.5323 9.81002 11.6936 9.48839 11.7742C9.16675 11.8549 8.7647 11.7742 8.44306 11.6936C8.12143 11.6129 7.79979 11.2903 7.63897 11.0484C7.47815 10.7258 7.39774 10.3226 7.39774 10Z" fill="#3A4757"/>
</svg>