<svg width="19" height="20" viewBox="0 0 19 20" fill="none" xmlns="http://www.w3.org/2000/svg">
<path d="M17.8406 12.1849L16.9374 11.0924V9.15966L17.8406 8.06723C18.087 7.73109 18.2512 7.31092 18.3333 6.89076C18.3333 6.47059 18.2512 5.96639 18.087 5.63025L17.5122 4.62185C17.2658 4.28571 17.0195 3.94958 16.6089 3.78151C16.1984 3.61345 15.7878 3.52941 15.3772 3.61345L13.9813 3.86555L12.339 2.94118L11.8463 1.59664C11.6821 1.17647 11.4357 0.840336 11.0252 0.588235C10.5325 0.0840336 10.1219 0 9.71133 0H8.56173C8.15116 0 7.74059 0.168067 7.33002 0.420168C7.00156 0.672269 6.6731 1.0084 6.50887 1.42857L6.01619 2.68908L4.3739 3.61345L2.97796 3.44538C2.56738 3.36134 2.15681 3.44538 1.74624 3.61345C1.33567 3.78151 1.00721 4.11765 0.842984 4.45378L0.268184 5.54622C0.103956 5.88235 -0.060273 6.38656 0.0218413 6.80672C0.0218413 7.22689 0.18607 7.64706 0.514527 7.98319L1.41778 9.07563V11.0084L0.514527 12.1008C0.268184 12.437 0.103956 12.8571 0.0218413 13.2773C0.0218413 13.6975 0.103956 14.2017 0.268184 14.5378L0.842984 15.5462C1.08933 15.8824 1.33567 16.2185 1.74624 16.3866C2.15681 16.5546 2.56738 16.6387 2.97796 16.5546L4.3739 16.3025L6.01619 17.2269L6.50887 18.5714C6.6731 18.9916 6.91944 19.3277 7.33002 19.5798C7.65847 19.8319 8.06904 20 8.56173 20H9.71133C10.1219 20 10.5325 19.8319 10.943 19.5798C11.2715 19.3277 11.6 18.9916 11.7642 18.5714L12.2569 17.2269L13.8992 16.3025L15.2951 16.5546C15.7057 16.6387 16.1162 16.5546 16.5268 16.3866C16.9374 16.2185 17.1837 15.8824 17.4301 15.5462L18.0049 14.5378C18.2512 14.1176 18.3333 13.6975 18.3333 13.2773C18.2512 12.9412 18.087 12.521 17.8406 12.1849ZM11.1894 10.5042C11.1073 10.9244 10.943 11.2605 10.6146 11.5966C10.2861 11.9328 9.95767 12.1008 9.5471 12.1849C9.13653 12.2689 8.72596 12.1849 8.31539 12.1008C7.90482 11.9328 7.57636 11.6807 7.41213 11.3445C7.16579 10.9244 7.08367 10.5042 7.08367 10.084C7.08367 9.4958 7.33001 8.9916 7.65847 8.57143C8.06904 8.15126 8.56173 7.98319 9.13653 7.98319C9.5471 7.98319 9.95767 8.06723 10.2861 8.31933C10.6146 8.57143 10.8609 8.90756 11.0252 9.2437C11.1894 9.66387 11.2715 10.084 11.1894 10.5042Z" fill="#3A4757"/>
</svg>