<svg width="20" height="20" viewBox="0 0 20 20" fill="none" xmlns="http://www.w3.org/2000/svg">
<path d="M18.1043 4.26279H14.6288C15.2501 3.76128 15.6503 3.02909 15.6819 2.21665V2.19659C15.6398 1.09328 14.7867 0.180542 13.6493 0.0100301H13.4387C12.7014 0.0100301 12.0063 0.320963 11.3955 0.892678C10.8899 1.37412 10.4265 2.05617 10.0158 2.8987C9.60506 2.05617 9.15219 1.38415 8.64666 0.902708C8.02528 0.320963 7.33017 0 6.59294 0H6.36124C5.2238 0.180542 4.37072 1.10331 4.32859 2.19659V2.21665C4.36019 3.01906 4.7604 3.76128 5.38178 4.26279H1.8852C0.842549 4.26279 0 5.0652 0 6.05817V7.66299C0 8.40522 0.494997 9.03711 1.21116 9.30792V17.0311C1.21116 18.666 2.6119 20 4.32859 20H15.6714C17.3881 20 18.7888 18.676 18.7888 17.0311V9.30792C19.505 9.03711 19.9895 8.40522 20 7.66299V6.05817C20 5.0652 19.1575 4.26279 18.1148 4.26279H18.1043ZM1.60084 6.04814C1.60084 5.89769 1.72722 5.77733 1.8852 5.77733H6.78252V7.91374H1.8852C1.72722 7.91374 1.60084 7.79338 1.60084 7.64293V6.03811V6.04814ZM6.78252 9.45837V18.4754H4.31806C3.48605 18.4754 2.80147 17.8335 2.80147 17.0311V9.45837H6.78252ZM13.3965 1.52457H13.4597C13.8073 1.60481 14.06 1.89569 14.0811 2.23671C14.0811 2.49749 13.9126 2.82849 13.3965 3.17954C12.9542 3.48044 12.2275 3.77131 11.227 4.00201C11.5429 3.25978 11.8905 2.64794 12.238 2.23671C12.6593 1.73521 13.0595 1.51454 13.3965 1.52457ZM11.6061 9.45837V18.4754H8.39389V9.45837H11.6061ZM8.39389 7.92377V5.78736H11.6061V7.92377H8.39389ZM5.90837 2.24674C5.92944 1.90572 6.1822 1.61484 6.52975 1.5346H6.59294C6.92996 1.5346 7.33017 1.75527 7.75145 2.24674C8.099 2.65797 8.44655 3.26981 8.76251 4.01204C7.76198 3.77131 7.04581 3.48044 6.59294 3.17954C6.06635 2.82849 5.90837 2.49749 5.90837 2.24674ZM15.6609 18.4654H13.1964V9.44834H17.1669V17.0211C17.1669 17.8134 16.4929 18.4654 15.6503 18.4654H15.6609ZM18.3781 7.65296C18.3781 7.80341 18.2517 7.92377 18.0937 7.92377H13.1964V5.78736H18.0937C18.2517 5.78736 18.3781 5.90772 18.3781 6.05817V7.66299V7.65296Z" fill="#3B4757"/>
</svg>