<svg width="15" height="14" viewBox="0 0 15 14" fill="none" xmlns="http://www.w3.org/2000/svg">
<path fill-rule="evenodd" clip-rule="evenodd" d="M14.625 0C14.832 0 15 0.168376 15 0.375839V13.6242C15 13.8316 14.832 14 14.625 14H0.375C0.168 14 0 13.8316 0 13.6242V0.375839C0 0.168376 0.168 0 0.375 0H14.625ZM14.25 0.751678H0.75V13.2483H14.25V0.751678ZM13.5045 1.16736C13.7123 1.16736 13.8795 1.33498 13.8795 1.5432V12.4568C13.8795 12.665 13.7123 12.8326 13.5045 12.8326H1.49475C1.28775 12.8326 1.11975 12.665 1.11975 12.4568V1.5432C1.11975 1.33498 1.28775 1.16736 1.49475 1.16736H13.5045ZM6.52425 1.91903H1.86975V12.0817H6.52425V1.91903ZM7.725 1.91903H7.27425V12.0817H7.725V1.91903ZM13.1295 1.91828H8.475V12.081H13.1295V1.91828ZM5.33385 3.36639C5.4801 3.21981 5.71785 3.21981 5.8641 3.36639C6.01035 3.51297 6.01035 3.75125 5.8641 3.89783L3.32835 6.4385C3.25485 6.51216 3.1596 6.54824 3.0636 6.54824C2.9676 6.54824 2.8716 6.51216 2.7981 6.4385C2.65185 6.29192 2.65185 6.05364 2.7981 5.90706L5.33385 3.36639ZM11.936 3.36631C12.0823 3.21974 12.32 3.21974 12.4663 3.36631C12.6125 3.51289 12.6125 3.75117 12.4663 3.89775L9.93052 6.43842C9.85703 6.51209 9.76102 6.54817 9.66577 6.54817C9.56977 6.54817 9.47378 6.51209 9.40028 6.43842C9.25403 6.29184 9.25403 6.05356 9.40028 5.90699L11.936 3.36631ZM4.0005 3.11503C4.14675 2.96845 4.3845 2.96845 4.53075 3.11503C4.677 3.26236 4.677 3.49989 4.53075 3.64646L3.07875 5.10246C3.00525 5.17613 2.90925 5.21221 2.81325 5.21221C2.718 5.21221 2.622 5.17613 2.5485 5.10246C2.40225 4.95589 2.40225 4.71761 2.5485 4.57103L4.0005 3.11503ZM10.6021 3.11503C10.7484 2.96845 10.9862 2.96845 11.1324 3.11503C11.2787 3.26236 11.2787 3.49989 11.1324 3.64646L9.6804 5.10246C9.6069 5.17613 9.5109 5.21221 9.41565 5.21221C9.31965 5.21221 9.22365 5.17613 9.15015 5.10246C9.0039 4.95589 9.0039 4.71761 9.15015 4.57103L10.6021 3.11503Z" fill="#3A4757"/>
</svg>