<svg width="14" height="12" viewBox="0 0 14 12" fill="none" xmlns="http://www.w3.org/2000/svg">
<path fill-rule="evenodd" clip-rule="evenodd" d="M13.8186 1.04385C13.6455 0.684206 13.3734 0.394734 13.0353 0.210525C12.6478 0 12.2273 0 11.3863 0H2.63015C1.78916 0 1.36867 0 0.981154 0.210525C0.64311 0.394734 0.371025 0.684206 0.19788 1.04385C0 1.45613 0 1.9035 0 2.79823V6.93855C0 7.83328 0 8.28941 0.19788 8.69292C0.371025 9.05257 0.64311 9.34204 0.981154 9.52625C1.34393 9.71923 1.74794 9.73677 2.48174 9.73677H4.22144C4.4523 9.73677 4.63369 9.54379 4.63369 9.29818C4.63369 9.05257 4.4523 8.85958 4.22144 8.85958H2.97644L4.22968 0.877187H9.77856L11.0318 8.86836H9.77856C9.5477 8.86836 9.36631 9.06134 9.36631 9.30695C9.36631 9.55256 9.5477 9.74554 9.77856 9.74554H11.5183C12.2521 9.74554 12.6643 9.73677 13.0188 9.53502C13.3569 9.35081 13.629 9.06134 13.8021 8.70169C14 8.28941 14 7.84205 14 6.94732V2.79823C14 1.9035 14 1.44736 13.8021 1.04385H13.8186ZM2.1437 8.85958C1.75618 8.85958 1.50883 8.83327 1.35218 8.74555C1.17079 8.64906 1.02238 8.4824 0.923439 8.28941C0.816254 8.07012 0.816254 7.66661 0.816254 6.92977V2.79823C0.816254 2.07016 0.816254 1.66665 0.923439 1.43859C1.01413 1.2456 1.16254 1.08771 1.35218 0.982449C1.5583 0.868415 1.93757 0.868415 2.63015 0.868415H3.39694L2.1437 8.85081V8.85958ZM13.192 6.93855C13.192 7.66661 13.192 8.07012 13.0848 8.29819C12.9941 8.49117 12.8457 8.64906 12.6561 8.75432C12.5077 8.83327 12.2603 8.85958 11.8645 8.86836L10.6113 0.885958H11.3781C12.0624 0.885958 12.4417 0.885958 12.6561 0.999993C12.8375 1.09648 12.9859 1.25438 13.0848 1.45613C13.192 1.67543 13.192 2.07893 13.192 2.81577V6.93855Z" fill="#3A4757"/>
<path fill-rule="evenodd" clip-rule="evenodd" d="M7.26383 5.95618L6.7279 5.9825L4.2709 11.2193L4.13898 11.5526L4.62543 12L7.01648 10.5439L9.14369 11.8333L9.44875 11.9912L9.90223 11.5L7.42048 6.21057L7.27207 5.94741L7.26383 5.95618ZM7.23909 9.67545L6.99999 9.55265L5.56536 10.4298L7.01648 7.34214L8.4676 10.4298L7.23909 9.68423V9.67545Z" fill="#3A4757"/>
<path d="M7.42042 1.91272V4.132C7.42042 4.37761 7.23903 4.57059 7.00817 4.57059C6.77731 4.57059 6.59592 4.37761 6.59592 4.132V1.91272C6.59592 1.66711 6.77731 1.47412 7.00817 1.47412C7.23903 1.47412 7.42042 1.66711 7.42042 1.91272Z" fill="#3A4757"/>
</svg>