<svg width="20" height="20" viewBox="0 0 20 20" fill="none" xmlns="http://www.w3.org/2000/svg">
<path fill-rule="evenodd" clip-rule="evenodd" d="M18.4615 20H1.53846C0.688793 20 0 19.3112 0 18.4615V1.53846C0 0.688793 0.688793 0 1.53846 0H18.4615C19.3112 0 20 0.688793 20 1.53846V18.4615C20 19.3112 19.3112 20 18.4615 20ZM3.84625 2.84614C3.29396 2.84614 2.84625 3.29385 2.84625 3.84614C2.84625 4.39842 3.29396 4.84614 3.84625 4.84614H6.92317C7.47546 4.84614 7.92317 4.39842 7.92317 3.84614C7.92317 3.29385 7.47546 2.84614 6.92317 2.84614H3.84625ZM2.84624 7.69242C2.84624 7.14013 3.29395 6.69242 3.84624 6.69242H10.7693C11.3216 6.69242 11.7693 7.14013 11.7693 7.69242C11.7693 8.2447 11.3216 8.69242 10.7693 8.69242H3.84624C3.29395 8.69242 2.84624 8.2447 2.84624 7.69242ZM17.7807 8.20691C18.0648 7.73333 17.9112 7.11907 17.4377 6.83492C16.9641 6.55078 16.3498 6.70434 16.0657 7.17792L11.9539 14.0308L7.4193 11.4396C6.96297 11.1788 6.38265 11.3158 6.09111 11.7531L3.01419 16.3685C2.70784 16.828 2.83201 17.4489 3.29154 17.7552C3.75107 18.0616 4.37194 17.9374 4.67829 17.4779L7.23745 13.6391L11.8116 16.253C12.284 16.5229 12.8854 16.3657 13.1653 15.8992L17.7807 8.20691Z" fill="#3A4757"/>
</svg>