<svg width="18" height="20" viewBox="0 0 18 20" fill="none" xmlns="http://www.w3.org/2000/svg">
<path d="M13.9622 3.98243C13.067 3.98243 12.1914 4.27526 11.4908 4.80234C11.0238 4.46071 10.4886 4.21669 9.92432 4.0898C10.0411 3.57247 10.3135 3.08443 10.7027 2.70376C11.2476 2.17667 12.0357 1.86432 12.8141 1.86432C13.3492 1.85456 13.7578 1.43485 13.7578 0.927282C13.7578 0.419717 13.32 0 12.7849 0C11.5005 0 10.2357 0.507565 9.32108 1.3958C9.17514 1.53245 9.03892 1.67887 8.92216 1.82528C8.82486 1.68863 8.70811 1.56174 8.58162 1.44461C7.78378 0.653978 6.62595 0.185456 5.46811 0.185456C5.43892 0.185456 5.41946 0.185456 5.39027 0.185456C4.91351 0.195217 4.52432 0.546608 4.46595 0.995608C4.32 2.13763 4.70919 3.32845 5.51676 4.18741C5.54595 4.22645 5.58487 4.25573 5.61405 4.28502C5.12757 4.0898 4.59243 3.98243 4.04757 3.98243C1.81946 3.98243 0 5.71986 0 7.84773C0 9.49732 1.06054 10.9322 2.65622 11.4788C2.64649 11.5959 2.63676 11.7228 2.63676 11.8692C2.63676 13.5383 3.74595 15.0122 5.38054 15.5393C5.3027 15.8224 5.26378 16.1249 5.26378 16.4178C5.26378 18.3895 6.9373 20 9 20H9.24324V19.9805C11.1892 19.8633 12.7362 18.3016 12.7362 16.408C12.7362 16.1152 12.6973 15.8224 12.6195 15.5295C14.2443 14.9927 15.3632 13.5188 15.3632 11.8594C15.3632 11.7228 15.3632 11.5959 15.3438 11.469C16.7157 10.9907 17.7178 9.84871 17.9514 8.48219H18V7.83797C18 5.70034 16.1903 3.97267 13.9524 3.97267L13.9622 3.98243ZM4.55351 9.81942C4.24216 9.88775 3.90162 9.88775 3.64865 9.83895C2.65622 9.66325 1.93622 8.83358 1.93622 7.86725C1.93622 6.85212 2.72432 6.01269 3.74595 5.87604H4.03784C4.49514 5.87604 4.9427 6.02245 5.31243 6.28599C5.07892 6.7838 4.95243 7.3304 4.95243 7.87701C4.95243 8.18936 4.99135 8.51147 5.07892 8.82382C5.12757 8.98975 5.16649 9.14593 5.23459 9.28258C5.25405 9.3509 5.28324 9.40947 5.31243 9.47779C5.09838 9.63397 4.86486 9.7511 4.62162 9.81942H4.54378H4.55351ZM10.7903 6.80332C10.8681 6.92045 10.9362 7.0571 10.9946 7.22304C11.0724 7.42801 11.1114 7.64275 11.1114 7.86725C11.1114 8.03319 11.0822 8.20888 11.0335 8.4041C11.0335 8.43338 11.0141 8.46266 11.0043 8.50171C10.9849 8.55051 10.9557 8.60908 10.9265 8.65788L10.8876 8.73597C10.8584 8.79453 10.8292 8.8531 10.7708 8.94095C10.7416 8.98975 10.7027 9.03856 10.6638 9.08736C10.6249 9.1264 10.5859 9.17521 10.5373 9.22401C10.2941 9.47779 9.97297 9.66325 9.61297 9.77062C9.48649 9.80966 9.37946 9.82919 9.19459 9.84871C9.07784 9.86823 8.99027 9.86823 8.74703 9.84871C8.64 9.84871 8.52324 9.81942 8.38703 9.78038C8.02703 9.67301 7.71568 9.48756 7.43351 9.20449C7.40433 9.18497 7.37514 9.15569 7.32649 9.08736C7.28757 9.03856 7.24865 8.98975 7.20973 8.94095C7.17081 8.87262 7.13189 8.80429 7.09297 8.73597C7.06378 8.68716 7.04432 8.6286 7.02487 8.57003V8.55051C7.02487 8.55051 6.99568 8.47243 6.96649 8.39434C6.91784 8.20888 6.88865 8.03319 6.88865 7.86725C6.88865 7.67204 6.91784 7.48658 6.97622 7.31088L7.00541 7.18399C7.04432 7.0571 7.11243 6.93021 7.2 6.79356C7.27784 6.67643 7.36541 6.57882 7.44324 6.49097C7.84216 6.08102 8.40649 5.85652 8.99027 5.85652C9.57405 5.85652 10.1384 6.09078 10.5373 6.49097C10.6249 6.57882 10.7124 6.67643 10.7903 6.80332ZM7.38487 15.7052C7.97838 15.6076 8.53297 15.3831 9.00973 15.061C9.48649 15.3831 10.0411 15.6076 10.6443 15.7052C10.7611 15.9297 10.8195 16.1737 10.8195 16.4373C10.8195 17.3743 10.0119 18.1454 9.00973 18.1454C8.00757 18.1454 7.2 17.3743 7.2 16.4373C7.2 16.1933 7.25838 15.9395 7.37514 15.7052H7.38487ZM12.7654 9.3021C12.8335 9.14592 12.8822 8.97999 12.9211 8.82382C13.0086 8.51147 13.0476 8.19912 13.0476 7.87701C13.0476 7.3304 12.9211 6.7838 12.6876 6.28599C13.0573 6.02245 13.4951 5.87604 13.9622 5.87604C15.1297 5.87604 16.0735 6.77404 16.0735 7.88677C16.0735 8.8531 15.3535 9.68277 14.3708 9.85847C14.0595 9.90727 13.7578 9.89751 13.4562 9.82918C13.1838 9.76086 12.9211 9.64373 12.6876 9.47779C12.7168 9.41923 12.7362 9.36066 12.7654 9.31186V9.3021ZM4.5827 11.8985C4.5827 11.8302 4.5827 11.7716 4.5827 11.7228C5.28324 11.6349 5.94486 11.3714 6.50919 10.9517C6.86919 11.2152 7.27784 11.4202 7.72541 11.5666C7.89081 11.6154 8.06595 11.6642 8.23135 11.6935C8.39676 11.7228 8.58162 11.7618 8.77622 11.7618H8.79568C8.79568 11.7618 8.79568 11.8594 8.79568 11.918C8.79568 12.2499 8.71784 12.5622 8.57189 12.8258L8.53297 12.8941C8.49405 12.9624 8.44541 13.0307 8.42595 13.0698L8.34811 13.1674C8.27027 13.2552 8.17297 13.3529 8.06595 13.4407C8.03676 13.4602 8.00757 13.4895 7.96865 13.509C7.7546 13.6652 7.50162 13.7921 7.24865 13.8507C7.08324 13.8897 6.89838 13.9092 6.64541 13.9092H6.62595C5.50703 13.8702 4.59243 12.9722 4.59243 11.8985H4.5827ZM11.4032 13.9287C11.4032 13.9287 11.4497 13.9267 11.3254 13.9092C11.2011 13.8918 10.9751 13.8897 10.7805 13.8409C10.6054 13.7921 10.4303 13.7238 10.2843 13.6457C10.5665 13.1186 10.7222 12.5134 10.7222 11.9082C10.7222 11.7423 10.7124 11.5666 10.6832 11.4007C10.9654 11.2738 11.2281 11.1176 11.4714 10.9419C12.0357 11.3616 12.7168 11.6349 13.4173 11.7228C13.4173 11.7814 13.4173 11.8497 13.4173 11.918C13.4173 13.0112 12.5319 13.8897 11.4032 13.9287ZM7.64757 3.39678C7.44324 3.30893 7.25838 3.1918 7.1027 3.06491L6.98595 2.93802C6.81081 2.75256 6.66487 2.52806 6.55784 2.27428C6.81081 2.39141 7.0346 2.54758 7.22919 2.7428C7.40432 2.9185 7.55027 3.143 7.64757 3.39678Z" fill="#3A4757"/>
</svg>