<svg width="20" height="20" viewBox="0 0 20 20" fill="none" xmlns="http://www.w3.org/2000/svg">
<path d="M4.46151 3.46151C3.90922 3.46151 3.46151 3.90922 3.46151 4.46151C3.46151 5.01379 3.90922 5.46151 4.46151 5.46151H7.23074C7.78302 5.46151 8.23074 5.01379 8.23074 4.46151C8.23074 3.90922 7.78302 3.46151 7.23074 3.46151H4.46151Z" fill="#3A4757"/>
<path d="M3.46151 7.92322C3.46151 7.37093 3.90922 6.92322 4.46151 6.92322H10.6923C11.2446 6.92322 11.6923 7.37093 11.6923 7.92322C11.6923 8.4755 11.2446 8.92322 10.6923 8.92322H4.46151C3.90922 8.92322 3.46151 8.4755 3.46151 7.92322Z" fill="#3A4757"/>
<path d="M17.0883 8.43766C17.3725 7.96408 17.2189 7.34982 16.7453 7.06567C16.2718 6.78153 15.6575 6.93509 15.3734 7.40867L11.7232 13.4923L7.72698 11.2088C7.27065 10.948 6.69034 11.085 6.39879 11.5223L3.62956 15.6762C3.32321 16.1357 3.44739 16.7566 3.90691 17.0629C4.36644 17.3693 4.98731 17.2451 5.29366 16.7856L7.54513 13.4084L11.5809 15.7145C12.0532 15.9844 12.6546 15.8272 12.9345 15.3607L17.0883 8.43766Z" fill="#3A4757"/>
<path fill-rule="evenodd" clip-rule="evenodd" d="M17.6154 20C18.9324 20 20 18.9324 20 17.6154V2.38462C20 1.06763 18.9324 0 17.6154 0H2.38462C1.06763 0 0 1.06763 0 2.38462V17.6154C0 18.9324 1.06763 20 2.38462 20H17.6154ZM18 17.6154C18 17.8278 17.8278 18 17.6154 18H2.38462C2.1722 18 2 17.8278 2 17.6154V2.38462C2 2.1722 2.1722 2 2.38462 2H17.6154C17.8278 2 18 2.1722 18 2.38462V17.6154Z" fill="#3A4757"/>
</svg>