<svg width="20" height="12" viewBox="0 0 20 12" fill="none" xmlns="http://www.w3.org/2000/svg">
<path fill-rule="evenodd" clip-rule="evenodd" d="M0.292892 0.300602C0.683414 -0.100201 1.31658 -0.100201 1.7071 0.300602L6.53842 5.25911L9.5076 2.21177C9.82394 1.89353 10.2493 1.71532 10.6922 1.71532C11.1352 1.71532 11.5605 1.89357 11.8769 2.21181L11.884 2.21898L18 8.49596V5.28946C18 4.72264 18.4477 4.26314 19 4.26314C19.5523 4.26314 20 4.72264 20 5.28946V10.9737C20 11.5405 19.5523 12 19 12H13.4616C12.9093 12 12.4616 11.5405 12.4616 10.9737C12.4616 10.4069 12.9093 9.94736 13.4616 9.94736H16.5858L10.6922 3.89881L7.72307 6.94615C7.40673 7.26439 6.98139 7.4426 6.53842 7.4426C6.09546 7.4426 5.67016 7.26435 5.35382 6.94611L5.34667 6.93893L0.292892 1.75204C-0.0976305 1.35123 -0.0976306 0.701404 0.292892 0.300602Z" fill="#3A4757"/>
</svg>