<svg width="17" height="17" viewBox="0 0 17 17" fill="none" xmlns="http://www.w3.org/2000/svg">
<path fill-rule="evenodd" clip-rule="evenodd" d="M8.28611 9.28608C8.39127 9.28545 8.49251 9.32591 8.56822 9.39881L13.88 14.4958C13.966 14.5733 14.0107 14.6865 14.0009 14.8018C14.001 14.9181 13.9475 15.0279 13.8559 15.0997C12.3523 16.3278 10.4701 16.9991 8.52792 17C4.32096 16.9752 0.753165 13.9056 0.104786 9.75311C0.0861365 9.63663 0.121757 9.51801 0.20151 9.43102C0.276616 9.33918 0.389091 9.28596 0.507806 9.28608H8.28611ZM8.1249 10.0913H0.991431C1.76732 13.6351 4.89672 16.1694 8.52792 16.1948C10.1265 16.1982 11.6858 15.6997 12.9853 14.7696L8.1249 10.0913ZM9.07603 0.0342198C12.2792 0.255777 15.0849 2.25909 16.3318 5.21485C17.5787 8.17061 17.0545 11.5758 14.9763 14.0207C14.9052 14.1033 14.8031 14.1528 14.6941 14.1576V14.1657C14.593 14.1657 14.4954 14.1284 14.4201 14.061L8.77779 8.95595C8.69567 8.87855 8.64904 8.77081 8.64883 8.65802V0.428773C8.65029 0.318588 8.6969 0.213819 8.77779 0.138897C8.85528 0.0592294 8.96569 0.0204784 9.07603 0.0342198ZM9.45487 0.831378V8.48088L14.6458 13.1753C16.339 10.9813 16.7215 8.04777 15.6475 5.49373C14.5735 2.93969 12.2085 1.15914 9.45487 0.831378ZM8.10878 0.106689C8.1909 0.184092 8.23754 0.291829 8.23774 0.404616V8.48088C8.23774 8.70323 8.05731 8.88348 7.83472 8.88348H0.403021C0.180439 8.88348 0 8.70323 0 8.48088C0.023887 4.06785 3.40251 0.396343 7.80248 0.00201118C7.91499 -0.0094937 8.0269 0.028753 8.10878 0.106689ZM7.4317 0.831378C3.78701 1.37564 1.02633 4.40254 0.822162 8.07827H7.4317V0.831378Z" fill="#3A4757"/>
</svg>