<svg width="20" height="12" viewBox="0 0 20 12" fill="none" xmlns="http://www.w3.org/2000/svg">
<path fill-rule="evenodd" clip-rule="evenodd" d="M0.292892 11.6994C0.683414 12.1002 1.31658 12.1002 1.7071 11.6994L6.53842 6.74089L9.5076 9.78823C9.82394 10.1065 10.2493 10.2847 10.6922 10.2847C11.1352 10.2847 11.5605 10.1064 11.8769 9.78819L11.884 9.78102L18 3.50404V6.71054C18 7.27736 18.4477 7.73686 19 7.73686C19.5523 7.73686 20 7.27736 20 6.71054V1.02632C20 0.459497 19.5523 0 19 0H13.4616C12.9093 0 12.4616 0.459497 12.4616 1.02632C12.4616 1.59314 12.9093 2.05264 13.4616 2.05264H16.5858L10.6922 8.10119L7.72307 5.05385C7.40673 4.73561 6.98139 4.5574 6.53842 4.5574C6.09546 4.5574 5.67016 4.73565 5.35382 5.05389L5.34667 5.06107L0.292892 10.248C-0.0976305 10.6488 -0.0976306 11.2986 0.292892 11.6994Z" fill="#3A4757"/>
</svg>