<svg width="16" height="14" viewBox="0 0 16 14" fill="none" xmlns="http://www.w3.org/2000/svg">
<path d="M10.6984 11.9178H13.4206C13.63 11.9178 13.8108 11.7435 13.8108 11.5304C13.8108 11.3464 13.6776 11.1914 13.4967 11.1624V7.91782C13.4967 7.70475 13.3254 7.53042 13.1065 7.53042H11.0125C10.8031 7.53042 10.6222 7.70475 10.6222 7.91782V11.1624C10.4414 11.2011 10.3082 11.3464 10.3082 11.5304C10.3082 11.7435 10.4795 11.9178 10.6984 11.9178ZM11.4027 8.29555H12.7258V11.1333H11.4027V8.29555Z" fill="#3A4757"/>
<path d="M5.40631 11.1527V7.90814C5.40631 7.69506 5.23498 7.52073 5.01606 7.52073H2.92207C2.71267 7.52073 2.53183 7.69506 2.53183 7.90814V11.1527C2.35098 11.1914 2.21773 11.3367 2.21773 11.5207C2.21773 11.7338 2.38905 11.9081 2.60797 11.9081H5.33016C5.53956 11.9081 5.72041 11.7338 5.72041 11.5207C5.72041 11.3367 5.58715 11.1817 5.40631 11.1527ZM4.62582 11.143H3.3028V8.30523H4.62582V11.143Z" fill="#3A4757"/>
<path d="M15.8287 5.55448L14.1344 4.33414L14.1916 1.56416C14.1916 1.45763 14.1535 1.36077 14.0869 1.28329C14.0202 1.20581 13.9155 1.16707 13.8203 1.16707L12.069 1.1477C11.9833 1.13801 11.8691 1.18644 11.793 1.26392C11.7168 1.3414 11.6788 1.43826 11.6788 1.53511V2.58111L8.19512 0.0726392C8.06187 -0.0242131 7.89054 -0.0242131 7.75729 0.0726392L0.161808 5.55448C0.0571089 5.63196 0 5.74818 0 5.87409V7.1816C0 7.32688 0.0761451 7.46247 0.209399 7.53027C0.333135 7.59806 0.485425 7.58838 0.599643 7.50121L0.970851 7.23971V13.2252H0.751933C0.542534 13.2252 0.361689 13.3995 0.361689 13.6126C0.361689 13.8257 0.533016 14 0.751933 14H15.21C15.4194 14 15.6002 13.8257 15.6002 13.6126C15.6002 13.3995 15.4289 13.2252 15.21 13.2252H14.9911V7.22034L15.4004 7.5109C15.467 7.55932 15.5431 7.57869 15.6193 7.57869C15.6764 7.57869 15.743 7.55932 15.7906 7.53995C15.9143 7.47216 16 7.33656 16 7.19128V5.88378C16 5.75787 15.9429 5.64165 15.8382 5.56416L15.8287 5.55448ZM12.4402 1.92252H13.4206L13.3825 3.75303L12.4402 3.07506V1.92252ZM9.08031 13.2058H6.8721V8.2954H9.08031V13.2058ZM14.2106 13.2058H9.85128V7.90799C9.85128 7.69492 9.67995 7.52058 9.46103 7.52058H6.48186C6.27246 7.52058 6.09161 7.69492 6.09161 7.90799V13.2058H1.74182V6.66828L7.97621 2.17433L14.2106 6.64891V13.2058ZM15.229 6.42615L8.19512 1.38015C8.1285 1.33172 8.05235 1.31235 7.97621 1.31235C7.90006 1.31235 7.82391 1.3414 7.75729 1.38015L0.761452 6.42615V6.0678L7.97621 0.866828L15.229 6.0678V6.42615Z" fill="#3A4757"/>
</svg>