<svg width="20" height="20" viewBox="0 0 20 20" fill="none" xmlns="http://www.w3.org/2000/svg">
<path fill-rule="evenodd" clip-rule="evenodd" d="M3.13042 17.2668C1.20277 15.4438 0 12.8623 0 10C0 4.47748 4.47748 0 10 0C15.5225 0 20 4.47748 20 10C20 12.8623 18.7972 15.4439 16.8695 17.2668L16.8749 17.277L16.6766 17.4446C14.9061 19.0334 12.5659 20 10 20C7.43486 20 5.09519 19.034 3.32495 17.4459L3.125 17.277L3.13042 17.2668ZM7.70767 6.25024C8.39547 6.25024 8.95789 6.81269 8.95789 7.50045C8.95789 8.18822 8.39547 8.75067 7.70767 8.75067C7.01988 8.75067 6.45746 8.18822 6.45746 7.50045C6.45746 6.81269 7.01988 6.25024 7.70767 6.25024ZM7.70755 10.0009C9.08899 10.0009 10.208 8.88184 10.208 7.50043C10.208 6.11902 9.08899 5 7.70755 5C6.32668 5 5.20711 6.11902 5.20711 7.50043C5.20711 8.88184 6.32668 10.0009 7.70755 10.0009ZM7.57883 10.873C5.56015 10.873 3.82151 12.2509 3.35143 14.2242C3.27142 14.5589 3.46423 14.899 3.78151 14.9825C4.09878 15.0667 4.42106 14.8637 4.50108 14.5289C4.83891 13.1128 6.10469 12.1232 7.57883 12.1232C9.05298 12.1232 10.3193 13.1128 10.6566 14.5289C10.7238 14.8125 10.9661 15.002 11.2311 15.002C11.2789 15.002 11.3278 14.9955 11.3762 14.9825C11.6934 14.899 11.8862 14.5589 11.8062 14.2242C11.3361 12.2509 9.59751 10.873 7.57883 10.873ZM13.1247 6.77139C13.717 6.77139 14.201 7.25559 14.201 7.84804C14.201 8.43991 13.717 8.92411 13.1247 8.92411C12.5323 8.92411 12.0478 8.43991 12.0478 7.84804C12.0478 7.25559 12.5323 6.77139 13.1247 6.77139ZM13.1244 10.0008C14.3138 10.0008 15.2776 9.03771 15.2776 7.84809C15.2776 6.65848 14.3138 5.69478 13.1244 5.69478C11.9351 5.69478 10.9713 6.65848 10.9713 7.84809C10.9713 9.03771 11.9351 10.0008 13.1244 10.0008ZM16.6538 13.6497C16.6532 13.6456 16.6544 13.6415 16.6532 13.6373C16.2915 12.1183 15.0546 11.0157 13.5549 10.7974C13.3771 10.7715 13.1971 10.7515 13.0132 10.7515C12.9982 10.7515 12.9843 10.7551 12.9687 10.7557C12.7748 10.758 12.5831 10.7727 12.3964 10.8039C12.3131 10.818 12.2347 10.8439 12.153 10.8639C12.038 10.891 11.9213 10.9151 11.8102 10.9528C11.7179 10.9839 11.6313 11.0269 11.5424 11.0645C11.4485 11.1051 11.3534 11.1422 11.2634 11.1899C11.1773 11.2357 11.0967 11.2911 11.0145 11.3434C10.9484 11.3846 10.8834 11.427 10.8211 11.4723C11.0884 11.7064 11.3207 11.9782 11.534 12.2665C11.9635 11.9923 12.4692 11.8282 13.0132 11.8282C14.2828 11.8282 15.3725 12.6807 15.6636 13.8997C15.7148 14.1145 15.8826 14.2586 16.077 14.2927H16.1582C16.316 14.2927 16.4643 14.2163 16.561 14.0862C16.6082 14.0227 16.6394 13.9497 16.6555 13.8727C16.656 13.8703 16.6577 13.868 16.6583 13.8656C16.6721 13.795 16.6677 13.7215 16.6538 13.6497Z" fill="#3A4757"/>
</svg>