<svg width="16" height="14" viewBox="0 0 16 14" fill="none" xmlns="http://www.w3.org/2000/svg">
<path d="M10.6984 11.9129H13.4206C13.63 11.9129 13.8108 11.7386 13.8108 11.5255C13.8108 11.3415 13.6776 11.1865 13.4967 11.1575V7.91294C13.4967 7.69987 13.3254 7.52553 13.1065 7.52553H11.0125C10.8031 7.52553 10.6222 7.69987 10.6222 7.91294V11.1575C10.4414 11.1962 10.3082 11.3415 10.3082 11.5255C10.3082 11.7386 10.4795 11.9129 10.6984 11.9129ZM11.4027 8.29067H12.7258V11.1284H11.4027V8.29067Z" fill="#3A4757"/>
<path d="M5.40631 11.1478V7.90326C5.40631 7.69018 5.23498 7.51585 5.01606 7.51585H2.92207C2.71267 7.51585 2.53183 7.69018 2.53183 7.90326V11.1478C2.35098 11.1865 2.21773 11.3318 2.21773 11.5158C2.21773 11.7289 2.38905 11.9033 2.60797 11.9033H5.33016C5.53956 11.9033 5.72041 11.7289 5.72041 11.5158C5.72041 11.3318 5.58715 11.1769 5.40631 11.1478ZM4.62582 11.1381H3.3028V8.30035H4.62582V11.1381Z" fill="#3A4757"/>
<path d="M15.8287 5.5496L14.1344 4.32926L14.1916 1.55928C14.1916 1.45274 14.1535 1.35589 14.0869 1.27841C14.0202 1.20093 13.9155 1.16219 13.8203 1.16219L12.069 1.14282C11.9833 1.13313 11.8691 1.18156 11.793 1.25904C11.7168 1.33652 11.6788 1.43337 11.6788 1.53023V2.57623L8.19512 0.0677564C8.06187 -0.0290959 7.89054 -0.0290959 7.75729 0.0677564L0.161808 5.5496C0.0571089 5.62708 0 5.7433 0 5.86921V7.17671C0 7.32199 0.0761451 7.45759 0.209399 7.52538C0.333135 7.59318 0.485425 7.5835 0.599643 7.49633L0.970851 7.23483V13.2203H0.751933C0.542534 13.2203 0.361689 13.3946 0.361689 13.6077C0.361689 13.8208 0.533016 13.9951 0.751933 13.9951H15.21C15.4194 13.9951 15.6002 13.8208 15.6002 13.6077C15.6002 13.3946 15.4289 13.2203 15.21 13.2203H14.9911V7.21546L15.4004 7.50601C15.467 7.55444 15.5431 7.57381 15.6193 7.57381C15.6764 7.57381 15.743 7.55444 15.7906 7.53507C15.9143 7.46727 16 7.33168 16 7.1864V5.87889C16 5.75299 15.9429 5.63676 15.8382 5.55928L15.8287 5.5496ZM12.4402 1.91764H13.4206L13.3825 3.74814L12.4402 3.07018V1.91764ZM9.08031 13.2009H6.8721V8.29052H9.08031V13.2009ZM14.2106 13.2009H9.85128V7.90311C9.85128 7.69003 9.67995 7.5157 9.46103 7.5157H6.48186C6.27246 7.5157 6.09161 7.69003 6.09161 7.90311V13.2009H1.74182V6.6634L7.97621 2.16945L14.2106 6.64403V13.2009ZM15.229 6.42127L8.19512 1.37526C8.1285 1.32684 8.05235 1.30747 7.97621 1.30747C7.90006 1.30747 7.82391 1.33652 7.75729 1.37526L0.761452 6.42127V6.06291L7.97621 0.861945L15.229 6.06291V6.42127Z" fill="#3A4757"/>
</svg>