<svg width="20" height="15" viewBox="0 0 20 15" fill="none" xmlns="http://www.w3.org/2000/svg">
<path fill-rule="evenodd" clip-rule="evenodd" d="M10.3123 3.74991C10.3123 5.82163 8.6338 7.49982 6.56163 7.49982C4.49033 7.49982 2.81097 5.82163 2.81097 3.74991C2.81097 1.6782 4.49033 0 6.56163 0C8.6338 0 10.3123 1.6782 10.3123 3.74991ZM8.43696 3.74991C8.43696 2.71847 7.59332 1.87496 6.56163 1.87496C5.52993 1.87496 4.6863 2.71847 4.6863 3.74991C4.6863 4.78136 5.52993 5.62487 6.56163 5.62487C7.59332 5.62487 8.43696 4.78136 8.43696 3.74991Z" fill="#3A4757"/>
<path d="M0.0271471 13.8336C0.732271 10.8742 3.34023 8.80779 6.36826 8.80779C9.39629 8.80779 12.0042 10.8742 12.7094 13.8336C12.8294 14.3356 12.5402 14.8456 12.0643 14.9709C11.9917 14.9903 11.9184 15 11.8467 15C11.4491 15 11.0858 14.7159 10.9849 14.2906C10.479 12.1668 8.57948 10.6827 6.36826 10.6827C4.15704 10.6827 2.25837 12.1668 1.75162 14.2906C1.6316 14.7927 1.14818 15.0971 0.67226 14.9709C0.196343 14.8456 -0.0928739 14.3356 0.0271471 13.8336Z" fill="#3A4757"/>
<path fill-rule="evenodd" clip-rule="evenodd" d="M14.6866 7.49956C16.4707 7.49956 17.9164 6.05518 17.9164 4.2711C17.9164 2.48703 16.4707 1.04177 14.6866 1.04177C12.9026 1.04177 11.4569 2.48703 11.4569 4.2711C11.4569 6.05518 12.9026 7.49956 14.6866 7.49956ZM14.6866 2.65644C15.5751 2.65644 16.3011 3.3826 16.3011 4.2711C16.3011 5.15873 15.5751 5.88489 14.6866 5.88489C13.7981 5.88489 13.0713 5.15873 13.0713 4.2711C13.0713 3.3826 13.7981 2.65644 14.6866 2.65644Z" fill="#3A4757"/>
<path d="M19.9805 12.9642C19.9804 12.9668 19.9803 12.9695 19.9806 12.9721C20.0015 13.0798 20.0082 13.1901 19.9873 13.296C19.9865 13.2995 19.984 13.303 19.9831 13.3065C19.959 13.4221 19.9123 13.5315 19.8415 13.6268C19.6964 13.8218 19.4739 13.9365 19.2372 13.9365H19.1155C18.8238 13.8853 18.5721 13.6692 18.4954 13.3471C18.0586 11.5189 16.4242 10.2404 14.5197 10.2404C13.7037 10.2404 12.9452 10.4866 12.301 10.8978C11.9809 10.4654 11.6325 10.0578 11.2316 9.70662C11.325 9.63868 11.4225 9.57516 11.5217 9.51339C11.5508 9.49485 11.5798 9.47607 11.6088 9.45728C11.7025 9.39649 11.7964 9.33568 11.8951 9.2831C11.9977 9.22875 12.1048 9.18358 12.2121 9.13829C12.2459 9.12402 12.2797 9.10975 12.3135 9.09517C12.3543 9.07788 12.3948 9.05984 12.4354 9.0418C12.5272 9.00091 12.6192 8.95997 12.7152 8.92752C12.8513 8.88141 12.993 8.84883 13.1344 8.81633C13.1661 8.80903 13.1978 8.80174 13.2295 8.79429C13.2712 8.78407 13.3124 8.77281 13.3535 8.76158C13.433 8.73987 13.5121 8.71825 13.5945 8.7043C13.8746 8.65753 14.1621 8.63547 14.453 8.63194C14.4638 8.63154 14.4741 8.63019 14.4842 8.62885C14.496 8.6273 14.5076 8.62577 14.5197 8.62577C14.7956 8.62577 15.0656 8.65577 15.3323 8.69459C17.5819 9.02193 19.4372 10.6754 19.9798 12.9536C19.9808 12.9571 19.9806 12.9607 19.9805 12.9642Z" fill="#3A4757"/>
</svg>