<svg width="20" height="18" viewBox="0 0 20 18" fill="none" xmlns="http://www.w3.org/2000/svg">
<path d="M19.8347 1.01715C19.7347 0.825469 19.6046 0.662541 19.4445 0.518781C19.2244 0.307933 18.9442 0.145005 18.654 0.0683332C18.3338 -0.0179228 18.0036 -0.0275068 17.6534 0.0683332L13.811 1.20883C13.4208 1.33342 13.0806 1.56344 12.9005 1.81262C12.5703 2.15765 12.4002 2.61768 12.4202 3.08729C12.4402 3.52816 12.6303 3.94027 12.9205 4.23737L9.92863 7.17966C9.78855 7.02632 9.68848 6.86339 9.62845 6.67171C9.56841 6.48003 9.5584 6.26918 9.58842 6.0775C9.66847 5.64622 9.81856 5.23411 10.0487 4.84117C10.2488 4.49614 10.3289 4.09361 10.2688 3.70067C10.2188 3.30773 10.0287 2.94353 9.74852 2.6656C9.56841 2.4835 9.36829 2.34933 9.11813 2.2439C8.63783 2.05222 8.10751 2.04264 7.62721 2.2439C7.38706 2.34933 7.17693 2.4835 7.02684 2.63685C6.12628 3.47065 5.51591 4.54406 5.25575 5.73248C5.13567 6.30752 4.75544 6.82505 4.63536 6.87297C4.00497 6.87297 3.3946 6.99757 2.81424 7.23717C2.23388 7.47677 1.72356 7.82179 1.28329 8.26265C0.853027 8.70352 0.522823 9.21147 0.302687 9.77693C0.082551 10.3424 -0.0175108 10.9366 0.00250154 11.502C0.0225139 12.9972 0.632891 14.3964 1.72356 15.4315L2.57409 16.2845C3.10442 16.8212 3.7248 17.2429 4.42523 17.54C5.12567 17.8371 5.86612 17.9904 6.6366 18H6.71665V17.9617C7.30701 17.9617 7.89738 17.8562 8.44772 17.6454C9.02808 17.425 9.5484 17.0991 9.98867 16.6774C10.4389 16.2557 10.7792 15.7669 11.0193 15.2111C11.2595 14.6648 11.3695 14.0801 11.3695 13.4859C11.3695 13.4572 11.3695 13.3997 11.4596 13.3134C11.6097 13.1792 11.8898 13.0642 12.07 13.093C12.7003 13.1409 13.3407 13.0547 13.9311 12.8342C14.5115 12.6138 15.0518 12.2688 15.4821 11.8279C15.7222 11.5787 15.8823 11.272 15.9524 10.9462C16.0224 10.6203 15.9924 10.2753 15.8623 9.94944C15.7422 9.63317 15.5221 9.35523 15.2419 9.15397C14.9617 8.9527 14.6315 8.82811 14.2613 8.78977C13.841 8.75144 13.4708 8.72269 13.1506 8.70352C12.07 8.62685 11.6397 8.58851 11.3795 8.48309L14.3113 5.5983C14.4514 5.72289 14.6015 5.82832 14.7816 5.91457C15.0018 6.01041 15.2419 6.06792 15.4921 6.0775H15.5521C15.7722 6.0775 15.9924 6.03917 16.2025 5.96249C16.4427 5.87624 16.6428 5.75165 16.8229 5.58872L16.8529 5.55997L19.5446 2.92437C19.7047 2.75185 19.8247 2.55059 19.9048 2.33974C19.9748 2.11931 20.0149 1.89888 19.9948 1.66886C19.9948 1.43885 19.9248 1.21841 19.8147 1.01715H19.8347ZM13.8911 10.7162C13.701 10.8791 13.4808 11.0133 13.2407 11.0995C12.9305 11.2145 12.5903 11.2624 12.22 11.2337C11.4296 11.1858 10.6491 11.4925 10.0987 11.9908C9.63845 12.4029 9.3883 12.9588 9.3883 13.5434C9.3883 13.8885 9.31825 14.2143 9.18817 14.5306C9.05809 14.8469 8.85797 15.1248 8.60782 15.3644C8.34766 15.604 8.05748 15.7957 7.72727 15.9203C7.39707 16.0449 7.04685 16.1024 6.68663 16.1024C6.18632 16.1024 5.70602 15.9969 5.25575 15.8053C4.79546 15.6136 4.39521 15.3356 4.045 14.981L3.16445 14.1089C2.434 13.4093 2.02375 12.4892 2.01374 11.4637C1.99373 11.1187 2.05377 10.7737 2.17384 10.4574C2.30392 10.1315 2.48403 9.84401 2.73419 9.59483C2.98434 9.33606 3.27452 9.14438 3.60473 9.01021C3.93493 8.86645 4.28515 8.79936 4.64537 8.79936C6.12628 8.78019 6.99682 7.18925 7.21696 6.12542C7.36705 5.44496 7.68725 4.822 8.0975 4.29488L8.12752 4.31405C7.89738 4.78366 7.72727 5.28203 7.63722 5.79957C7.54716 6.28835 7.58719 6.7963 7.73728 7.2755C7.88737 7.74512 8.15754 8.18598 8.50775 8.55017C8.50775 8.55976 8.53777 8.57893 8.53777 8.57893L9.21819 9.22105C9.21819 9.22105 9.21819 9.23064 9.2282 9.24022C9.2282 9.24022 9.2382 9.24022 9.24821 9.24981L9.65846 9.64275C10.509 10.4766 11.2995 10.5341 13.0406 10.6587C13.2907 10.6682 13.5709 10.6874 13.8911 10.7162ZM17.6434 2.08097L15.5821 4.1032L15.0418 3.59525C15.0418 3.59525 15.0218 3.56649 15.0118 3.55691C15.0018 3.54733 14.9818 3.53774 14.9717 3.52816L14.4314 3.02021L17.6534 2.07139L17.6434 2.08097Z" fill="#3A4757"/>
<path d="M7.9374 8.93353C7.55717 8.55017 6.92678 8.55017 6.52653 8.91437C6.12628 9.27856 6.11628 9.89193 6.50652 10.2657L8.16754 11.895C8.36767 12.0867 8.62783 12.1825 8.88799 12.1825C9.13814 12.1825 9.3983 12.0963 9.57841 11.9142C9.97866 11.55 9.98867 10.9366 9.59843 10.5628L7.9374 8.93353Z" fill="#3A4757"/>
<path d="M7.09688 11.3775C6.88675 11.1762 6.64661 11.0228 6.38644 10.9174C5.84611 10.697 5.22573 10.7066 4.6954 10.9174C4.42523 11.0228 4.18508 11.1762 3.98496 11.3775C3.78484 11.5787 3.62474 11.8087 3.51467 12.0675C3.4046 12.3263 3.35457 12.5946 3.35457 12.8726C3.35457 13.1505 3.4046 13.4188 3.51467 13.6776C3.62474 13.9364 3.78484 14.1664 3.98496 14.3677C4.18508 14.5689 4.42523 14.7223 4.6954 14.8373C4.96557 14.9427 5.24574 15.0002 5.53592 15.0002H5.55593C5.84611 14.9906 6.12628 14.9331 6.39645 14.8277C6.65661 14.7223 6.89676 14.5593 7.10689 14.3581C7.30701 14.1664 7.45711 13.9364 7.56717 13.6776C7.67724 13.4188 7.72727 13.1505 7.72727 12.8726C7.72727 12.5946 7.67724 12.3263 7.56717 12.0675C7.45711 11.8087 7.29701 11.5787 7.09688 11.3775Z" fill="#3A4757"/>
</svg>