<svg width="20" height="20" viewBox="0 0 20 20" fill="none" xmlns="http://www.w3.org/2000/svg">
<path fill-rule="evenodd" clip-rule="evenodd" d="M19.8985 12.4255L19.8967 12.4198L19.8947 12.4141C19.7039 11.8735 19.3211 11.4271 18.815 11.1777C18.749 11.1439 18.6799 11.1154 18.6111 11.0919V7.19832H18.6518C19.0669 7.19832 19.446 6.8475 19.446 6.37985V3.3788C19.446 2.95104 19.1056 2.56034 18.6518 2.56034H16.7621C16.7985 2.40922 16.8192 2.25249 16.8192 2.09864C16.8192 0.932807 15.844 0 14.7016 0C13.9329 0 13.3604 0.247936 12.9101 0.633691C12.6158 0.885822 12.3799 1.19194 12.1761 1.50626C11.9721 1.19364 11.7359 0.891089 11.4412 0.642533C10.9902 0.262264 10.4182 0.0209863 9.65171 0.0209863C8.48907 0.0209863 7.53404 0.932688 7.53404 2.11962C7.53404 2.28041 7.55403 2.43505 7.58912 2.58132H5.7218C5.30675 2.58132 4.92767 2.93214 4.92767 3.39979V6.40084C4.92767 6.8286 5.26805 7.21931 5.7218 7.21931H5.76252V11.336C5.64882 11.3632 5.52899 11.3947 5.41608 11.4335L5.41515 11.4338L4.76848 11.6517C4.69503 11.2929 4.38596 10.9969 3.991 10.9969H0.794128C0.379085 10.9969 0 11.3477 0 11.8153V19.1815C0 19.6093 0.340386 20 0.794128 20H4.01137C4.38348 20 4.7267 19.718 4.79371 19.3226L10.9988 20H11.4232C12.411 20 13.3808 19.6608 14.1546 19.0006L14.156 18.9994L19.2236 14.7623L19.2251 14.761C19.897 14.1922 20.1644 13.2725 19.8985 12.4255ZM17.0229 11.1626L14.2739 12.2682V7.19832H17.0229V11.1626ZM11.6472 12.4128V4.17629H12.7061V12.8777C12.5673 12.7706 12.4073 12.6796 12.2269 12.612L12.2227 12.6105L11.6472 12.4128ZM11.7478 14.1486L11.7489 14.1489C11.7951 14.1651 11.8252 14.1923 11.8445 14.232C11.8579 14.2596 11.8672 14.2914 11.8479 14.3697C11.8111 14.4488 11.7376 14.4874 11.6773 14.482L7.82772 14.1042L7.8258 14.104C7.4085 14.0682 7.02121 14.3873 6.98538 14.8305C6.95067 15.2598 7.25922 15.6583 7.68802 15.6964L7.69024 15.6966L11.5503 16.0756H11.6879C12.4137 16.0756 13.0647 15.6116 13.3163 14.8932C13.3835 14.7177 13.418 14.5304 13.4187 14.3451L17.7279 12.6124C17.8822 12.5553 18.0103 12.5632 18.1192 12.6193C18.2567 12.6902 18.3542 12.7946 18.4041 12.9302C18.4636 13.1366 18.3994 13.3681 18.24 13.5087L13.1726 17.7457C12.5866 18.2364 11.8601 18.4587 11.1378 18.3657L11.1346 18.3652L4.80549 17.6828V13.3375L5.92663 12.9523C6.65389 12.7025 7.4368 12.7025 8.16405 12.9523L11.7478 14.1486ZM17.8577 4.19727V5.58237H14.2739V4.19727H17.8577ZM14.6812 2.58132L13.3781 2.5667C13.5417 2.29805 13.6843 2.09793 13.8373 1.95032C14.0495 1.74571 14.2885 1.63694 14.6812 1.63694C15.0219 1.63694 15.231 1.87471 15.231 2.11962C15.231 2.33787 15.0284 2.58057 14.6828 2.58132L14.6812 2.58132ZM9.65171 1.63694C10.0444 1.63694 10.2834 1.74571 10.4956 1.95032C10.6514 2.1006 10.7963 2.30529 10.9636 2.58132H9.63135C9.28873 2.58132 9.0862 2.34369 9.08165 2.12707C9.09736 1.87411 9.33387 1.63694 9.65171 1.63694ZM6.51592 4.19727H10.0793V5.58237H6.51592V4.19727ZM10.0793 7.19832V11.8983L8.63481 11.4128L8.63385 11.4125C8.21479 11.2686 7.76958 11.1828 7.33041 11.1544V7.19832H10.0793ZM3.21724 18.3631H1.56789V12.6128H3.21724V18.3631Z" fill="#3A4757"/>
</svg>