<svg width="14" height="15" viewBox="0 0 14 15" fill="none" xmlns="http://www.w3.org/2000/svg">
<path fill-rule="evenodd" clip-rule="evenodd" d="M11.9167 3.92997H5.38542V7.82312H11.1146V5.38179C11.1146 5.19208 11.2685 5.03828 11.4583 5.03828C11.6482 5.03828 11.8021 5.19208 11.8021 5.38179V8.16663C11.8021 8.35635 11.6482 8.51015 11.4583 8.51015H5.04167C4.85182 8.51015 4.69792 8.35635 4.69792 8.16663V3.92997H4.58333C4.39348 3.92997 4.23958 3.77617 4.23958 3.58645V2.2124C4.23958 2.02268 4.39348 1.86889 4.58333 1.86889H5.89767C5.70987 1.73973 5.54343 1.57742 5.45385 1.37375C5.38244 1.21138 5.364 1.03084 5.41544 0.846032C5.46502 0.66794 5.57291 0.508692 5.71526 0.366439C6.01224 0.0696651 6.35648 -0.0475907 6.71137 0.0173959C7.03905 0.0774007 7.3216 0.283566 7.54776 0.509569C7.81975 0.781376 8.05936 1.13205 8.25 1.46229C8.44063 1.13205 8.68023 0.781379 8.95221 0.509573C9.17837 0.283569 9.4609 0.0774017 9.78858 0.0173961C10.1435 -0.0475915 10.4877 0.0696669 10.7847 0.366439C10.927 0.508692 11.0349 0.667939 11.0845 0.846028C11.136 1.03083 11.1175 1.21138 11.0461 1.37374C10.9565 1.57742 10.7901 1.73973 10.6023 1.86889H11.9167C12.1065 1.86889 12.2604 2.02268 12.2604 2.2124V3.58645C12.2604 3.77617 12.1065 3.92997 11.9167 3.92997ZM4.92708 2.55591H11.5729V3.24294H4.92708V2.55591ZM10.0134 1.41959C9.69517 1.58138 9.26674 1.70735 8.85702 1.7858C9.02324 1.50026 9.22337 1.21021 9.43835 0.995369C9.62278 0.811065 9.78424 0.716658 9.9125 0.69317C10.0136 0.674665 10.1372 0.690995 10.2986 0.85224C10.3854 0.938996 10.4135 0.999216 10.4222 1.03016C10.4289 1.05438 10.4277 1.07243 10.4167 1.09733C10.3843 1.17107 10.2689 1.28969 10.0134 1.41959ZM7.06162 0.995372C7.27661 1.21021 7.47675 1.50026 7.64297 1.7858C7.23325 1.70735 6.80481 1.58138 6.4866 1.41959C6.23111 1.28969 6.11568 1.17107 6.08325 1.09732C6.0723 1.07243 6.07105 1.05438 6.07779 1.03015C6.0864 0.999215 6.11458 0.938996 6.2014 0.85224C6.36275 0.690996 6.48639 0.674664 6.58745 0.69317C6.71572 0.716659 6.87719 0.811068 7.06162 0.995372Z" fill="#3A4757"/>
<path fill-rule="evenodd" clip-rule="evenodd" d="M6.70562 10.2071C6.50898 10.0813 6.31889 9.94861 6.14191 9.82286C5.17836 9.13823 4.26724 8.5025 2.68098 8.78893C1.84679 8.91836 1.02293 9.11452 0.216371 9.37576C0.0853396 9.42398 -0.00187352 9.55637 3.05676e-05 9.7041V12.9177C3.05676e-05 13.1053 0.138826 13.2595 0.314693 13.267C0.347467 13.267 3.71663 13.3927 5.21768 14.6642C5.49142 14.8891 5.82912 15.0074 6.17469 14.9995H9.49797C10.0689 15.0026 10.6097 14.7272 10.9662 14.252L13.5882 10.6891C13.8039 10.4011 13.8039 9.99217 13.5882 9.7041C13.3318 9.34216 12.9169 9.14888 12.4935 9.19412C12.4001 9.19951 12.3126 9.24485 12.251 9.31987C11.6742 10.0744 10.8351 10.9057 10.5009 10.9057L10.5499 10.8993C10.5054 10.8884 10.4591 10.8869 10.414 10.8948L10.3744 10.9058L10.0916 10.906C9.22585 10.901 7.65817 10.835 6.70562 10.2071ZM0.655542 9.94861C1.35971 9.7531 2.07297 9.59687 2.79241 9.48055C4.12303 9.25001 4.85062 9.753 5.77484 10.4027C5.95838 10.5354 6.14847 10.6682 6.35166 10.8009C7.58326 11.6056 9.56281 11.6132 10.3797 11.5935C10.5087 11.6742 10.8399 11.91 10.7162 12.0757C10.5648 12.2786 9.42226 12.4255 8.30041 12.4255H6.9239L4.85914 11.2014C4.75291 11.1229 4.61196 11.1127 4.49584 11.1751C4.37972 11.2375 4.3087 11.3617 4.31278 11.4951C4.31685 11.6285 4.39531 11.748 4.51501 11.8029L6.6486 13.076C6.70243 13.1093 6.76452 13.1263 6.82755 13.1249H8.59636C9.62186 13.1249 11.1291 13.006 11.3563 12.3206C11.4461 11.9679 11.3675 11.6089 11.1687 11.3349C11.7597 10.9479 12.377 10.2229 12.6508 9.88574C12.7947 9.89232 12.9307 9.95731 13.031 10.0674C13.0401 10.093 13.0534 10.1166 13.0703 10.1372C13.0961 10.1667 13.0961 10.2125 13.0703 10.242L10.4484 13.8049C10.2209 14.1183 9.86979 14.3015 9.49797 14.3009H6.17469C5.97907 14.3093 5.78679 14.2451 5.63064 14.1193C4.23446 12.9386 1.57321 12.6662 0.655542 12.6103V9.94861Z" fill="#3A4757"/>
</svg>