<svg width="15" height="16" viewBox="0 0 15 16" fill="none" xmlns="http://www.w3.org/2000/svg">
<path fill-rule="evenodd" clip-rule="evenodd" d="M6.70027 10.3484C6.89334 10.4857 7.10071 10.6306 7.31523 10.7679C8.35436 11.4533 10.0646 11.5254 11.009 11.5308L11.3175 11.5307L11.3607 11.5186C11.4099 11.51 11.4604 11.5117 11.509 11.5236L11.4555 11.5305C11.8202 11.5305 12.7355 10.623 13.3647 9.79934C13.432 9.71745 13.5274 9.66795 13.6293 9.66206C14.0912 9.61268 14.5438 9.82368 14.8235 10.2188C15.0588 10.5333 15.0588 10.9796 14.8235 11.2941L11.9632 15.1836C11.5742 15.7023 10.9842 16.0029 10.3614 15.9996H6.73602C6.35905 16.0082 5.99064 15.8791 5.69202 15.6335C4.05451 14.2455 0.379054 14.1082 0.343301 14.1082C0.151447 14.1001 3.33465e-05 13.9317 3.33465e-05 13.7269V10.2188C-0.00204384 10.0575 0.0930977 9.913 0.236041 9.86035C1.11592 9.57517 2.01468 9.36103 2.9247 9.21973C4.65517 8.90705 5.64912 9.60105 6.70027 10.3484ZM3.04626 9.97475C2.26142 10.1017 1.48332 10.2723 0.715137 10.4857V13.3914C1.71623 13.4524 4.61941 13.7498 6.14251 15.0387C6.31286 15.176 6.52263 15.2461 6.73602 15.237H10.3614C10.767 15.2376 11.15 15.0376 11.3983 14.6955L14.2585 10.806C14.2867 10.7738 14.2867 10.7238 14.2585 10.6916C14.2401 10.6691 14.2256 10.6433 14.2156 10.6154C14.1062 10.4952 13.9578 10.4243 13.8009 10.4171C13.5022 10.7851 12.8287 11.5766 12.1841 11.999C12.4009 12.2981 12.4867 12.6901 12.3886 13.0751C12.1409 13.8234 10.4966 13.9532 9.37785 13.9532H7.44823C7.37948 13.9547 7.31174 13.9361 7.25302 13.8997L4.92547 12.51C4.79489 12.45 4.70929 12.3196 4.70485 12.174C4.7004 12.0283 4.77788 11.8928 4.90455 11.8246C5.03122 11.7565 5.18499 11.7676 5.30088 11.8533L7.55335 13.1896H9.05499C10.2788 13.1896 11.5252 13.0293 11.6904 12.8078C11.8253 12.6269 11.4641 12.3695 11.3233 12.2814C10.4322 12.3029 8.27264 12.2946 6.92909 11.4161C6.70742 11.2712 6.50005 11.1263 6.29983 10.9814C5.29158 10.2722 4.49785 9.72307 3.04626 9.97475ZM11.2941 0.367034L11.2919 0.431703L10.9209 3.77045C11.1323 4.24733 11.25 4.77637 11.25 5.33333C11.25 7.43728 9.57107 9.14286 7.5 9.14286C5.42893 9.14286 3.75 7.43728 3.75 5.33333C3.75 4.74615 3.88077 4.18999 4.11435 3.69327L3.75261 0.431703C3.71828 0.122635 4.02918 -0.0903245 4.28609 0.0380173L4.34017 0.0708324L6.53222 1.65188C6.84096 1.56834 7.16536 1.52381 7.5 1.52381C7.84636 1.52381 8.18175 1.57151 8.50016 1.6608L10.7043 0.0708324L10.7584 0.0380173C10.997 -0.0811572 11.2821 0.0939533 11.2941 0.367034ZM7.5 2.28571C5.84315 2.28571 4.5 3.65018 4.5 5.33333H4.49925H6C6.20711 5.33333 6.375 5.50389 6.375 5.71429C6.375 5.9013 6.24234 6.05684 6.06741 6.0891L6 6.09524L4.59466 6.09582C4.66323 6.36623 4.76741 6.62211 4.90183 6.85799L5.625 6.85714C5.83211 6.85714 6 7.0277 6 7.2381C6 7.42511 5.86734 7.58065 5.69241 7.61291L5.625 7.61905L5.51644 7.61978C6.04519 8.09352 6.73955 8.38095 7.5 8.38095C8.26045 8.38095 8.95481 8.09352 9.48356 7.61978L9.375 7.61905C9.16789 7.61905 9 7.44849 9 7.2381C9 7.05108 9.13266 6.89554 9.30759 6.86328L9.375 6.85714L10.0982 6.85799C10.2326 6.62211 10.3368 6.36623 10.4053 6.09582L9 6.09524C8.79289 6.09524 8.625 5.92468 8.625 5.71429C8.625 5.52727 8.75766 5.37173 8.93259 5.33947L9 5.33333L10.5 5.3341C10.5 5.33384 10.5 5.33359 10.5 5.33333C10.5 3.65018 9.15685 2.28571 7.5 2.28571ZM10.4528 1.19579L9.32926 2.00701C9.68524 2.20948 10.0054 2.46921 10.2776 2.77392L10.4528 1.19579ZM4.59168 1.19579L4.76246 2.72975C5.03233 2.43704 5.34716 2.18763 5.69577 1.9929L4.59168 1.19579Z" fill="#3A4757"/>
</svg>