<svg width="18" height="18" viewBox="0 0 18 18" fill="none" xmlns="http://www.w3.org/2000/svg">
<path fill-rule="evenodd" clip-rule="evenodd" d="M0.606079 3.07446C0.606079 4.32964 1.6236 5.34717 2.87878 5.34717C4.13396 5.34717 5.15149 4.32964 5.15149 3.07446C5.15149 1.81928 4.13396 0.801758 2.87878 0.801758C1.6236 0.801758 0.606079 1.81928 0.606079 3.07446ZM1.35608 3.07446C1.35608 3.91543 2.03782 4.59717 2.87878 4.59717C3.71975 4.59717 4.40149 3.91543 4.40149 3.07446C4.40149 2.2335 3.71975 1.55176 2.87878 1.55176C2.03782 1.55176 1.35608 2.2335 1.35608 3.07446Z" fill="#3A4757"/>
<path d="M4.18961 6.02979C4.75316 6.02979 5.28683 6.28326 5.64291 6.72006L6.58757 7.87887C6.80121 8.14095 7.12141 8.29304 7.45954 8.29304H8.35986C8.56697 8.29304 8.73486 8.46093 8.73486 8.66804V10.5886C8.73486 10.7957 8.56697 10.9636 8.35986 10.9636H6.7554C6.2909 10.9636 5.84293 10.7912 5.49829 10.4798L5.01424 10.0424L5.27687 17.0094C5.28467 17.2164 5.12322 17.3905 4.91626 17.3983C4.7093 17.4061 4.5352 17.2446 4.5274 17.0377L4.23128 9.18217C4.2256 9.03148 4.31073 8.89205 4.44737 8.82825C4.584 8.76446 4.74556 8.78871 4.85744 8.88981L6.00114 9.92331C6.20792 10.1102 6.4767 10.2136 6.7554 10.2136H7.98486V9.04304H7.45954C6.89599 9.04304 6.36233 8.78956 6.00625 8.35276L5.06159 7.19395C4.84794 6.93187 4.52774 6.77979 4.18961 6.77979H1.20115C0.994043 6.77979 0.82615 6.61189 0.82615 6.40479C0.82615 6.19768 0.994043 6.02979 1.20115 6.02979H4.18961Z" fill="#3A4757"/>
<path d="M12.5754 6.72006C12.9314 6.28326 13.4651 6.02979 14.0286 6.02979H17.0171C17.2242 6.02979 17.3921 6.19768 17.3921 6.40479C17.3921 6.61189 17.2242 6.77979 17.0171 6.77979H14.0286C13.6905 6.77979 13.3703 6.93187 13.1567 7.19395L12.212 8.35276C11.8559 8.78956 11.3223 9.04304 10.7587 9.04304H10.2334V10.2136H11.4629C11.7416 10.2136 12.0103 10.1102 12.2171 9.92331L13.3608 8.88981C13.4727 8.78871 13.6343 8.76446 13.7709 8.82825C13.9075 8.89205 13.9927 9.03148 13.987 9.18217L13.6909 17.0377C13.6831 17.2446 13.509 17.4061 13.302 17.3983C13.095 17.3905 12.9336 17.2164 12.9414 17.0094L13.204 10.0424L12.72 10.4798C12.3753 10.7912 11.9274 10.9636 11.4629 10.9636H9.8584C9.65129 10.9636 9.4834 10.7957 9.4834 10.5886V8.66804C9.4834 8.46093 9.65129 8.29304 9.8584 8.29304H10.7587C11.0969 8.29304 11.417 8.14095 11.6307 7.87887L12.5754 6.72006Z" fill="#3A4757"/>
<path fill-rule="evenodd" clip-rule="evenodd" d="M17.6122 3.07446C17.6122 4.32964 16.5947 5.34717 15.3395 5.34717C14.0843 5.34717 13.0668 4.32964 13.0668 3.07446C13.0668 1.81928 14.0843 0.801758 15.3395 0.801758C16.5947 0.801758 17.6122 1.81928 17.6122 3.07446ZM16.8622 3.07446C16.8622 3.91543 16.1804 4.59717 15.3395 4.59717C14.4985 4.59717 13.8168 3.91543 13.8168 3.07446C13.8168 2.2335 14.4985 1.55176 15.3395 1.55176C16.1804 1.55176 16.8622 2.2335 16.8622 3.07446Z" fill="#3A4757"/>
</svg>