<svg width="17" height="17" viewBox="0 0 17 17" fill="none" xmlns="http://www.w3.org/2000/svg">
<path fill-rule="evenodd" clip-rule="evenodd" d="M0 2.27271C0 3.52789 1.01752 4.54541 2.27271 4.54541C3.52789 4.54541 4.54541 3.52789 4.54541 2.27271C4.54541 1.01752 3.52789 0 2.27271 0C1.01752 0 0 1.01752 0 2.27271ZM0.75 2.27271C0.75 3.11367 1.43174 3.79541 2.27271 3.79541C3.11367 3.79541 3.79541 3.11367 3.79541 2.27271C3.79541 1.43174 3.11367 0.75 2.27271 0.75C1.43174 0.75 0.75 1.43174 0.75 2.27271Z" fill="#3A4757"/>
<path d="M3.58354 5.22803C4.14709 5.22803 4.68075 5.4815 5.03683 5.91831L5.98149 7.07711C6.19513 7.33919 6.51533 7.49128 6.85346 7.49128H7.75378C7.96089 7.49128 8.12878 7.65917 8.12878 7.86628V9.78687C8.12878 9.99397 7.96089 10.1619 7.75378 10.1619H6.14932C5.68482 10.1619 5.23685 9.98945 4.89221 9.67801L4.40816 9.2406L4.67079 16.2077C4.67859 16.4146 4.51714 16.5887 4.31018 16.5965C4.10322 16.6043 3.92912 16.4429 3.92132 16.2359L3.6252 8.38041C3.61952 8.22972 3.70465 8.09029 3.84129 8.02649C3.97792 7.9627 4.13948 7.98695 4.25136 8.08805L5.39506 9.12156C5.60184 9.30842 5.87062 9.41187 6.14932 9.41187H7.37878V8.24128H6.85346C6.28991 8.24128 5.75625 7.9878 5.40017 7.551L4.45551 6.39219C4.24186 6.13011 3.92167 5.97803 3.58354 5.97803H0.595071C0.387964 5.97803 0.220071 5.81013 0.220071 5.60303C0.220071 5.39592 0.387964 5.22803 0.595071 5.22803H3.58354Z" fill="#3A4757"/>
<path d="M11.9693 5.91831C12.3254 5.4815 12.859 5.22803 13.4226 5.22803H16.411C16.6181 5.22803 16.786 5.39592 16.786 5.60303C16.786 5.81013 16.6181 5.97803 16.411 5.97803H13.4226C13.0844 5.97803 12.7642 6.13011 12.5506 6.39219L11.6059 7.551C11.2499 7.9878 10.7162 8.24128 10.1526 8.24128H9.62732V9.41187H10.8568C11.1355 9.41187 11.4043 9.30842 11.611 9.12156L12.7547 8.08805C12.8666 7.98695 13.0282 7.9627 13.1648 8.02649C13.3014 8.09029 13.3866 8.22972 13.3809 8.38041L13.0848 16.2359C13.077 16.4429 12.9029 16.6043 12.6959 16.5965C12.489 16.5887 12.3275 16.4146 12.3353 16.2077L12.5979 9.2406L12.1139 9.67801C11.7693 9.98945 11.3213 10.1619 10.8568 10.1619H9.25232C9.04521 10.1619 8.87732 9.99397 8.87732 9.78687V7.86628C8.87732 7.65917 9.04521 7.49128 9.25232 7.49128H10.1526C10.4908 7.49128 10.811 7.33919 11.0246 7.07711L11.9693 5.91831Z" fill="#3A4757"/>
<path fill-rule="evenodd" clip-rule="evenodd" d="M17.0061 2.27271C17.0061 3.52789 15.9886 4.54541 14.7334 4.54541C13.4782 4.54541 12.4607 3.52789 12.4607 2.27271C12.4607 1.01752 13.4782 0 14.7334 0C15.9886 0 17.0061 1.01752 17.0061 2.27271ZM16.2561 2.27271C16.2561 3.11367 15.5744 3.79541 14.7334 3.79541C13.8924 3.79541 13.2107 3.11367 13.2107 2.27271C13.2107 1.43174 13.8924 0.75 14.7334 0.75C15.5744 0.75 16.2561 1.43174 16.2561 2.27271Z" fill="#3A4757"/>
</svg>