<svg width="20" height="20" viewBox="0 0 20 20" fill="none" xmlns="http://www.w3.org/2000/svg">
<path d="M6.39386 11.117C6.24604 10.5848 5.69483 10.2733 5.16269 10.4211C4.63056 10.5689 4.319 11.1201 4.46682 11.6523C5.31064 14.69 8.64079 16.5076 11.6518 15.6712C11.6768 15.6643 11.7015 15.6564 11.7259 15.6475C13.5168 14.9963 15.0227 13.5207 15.5336 11.6477C15.6789 11.1149 15.3647 10.5652 14.8319 10.4199C14.2991 10.2745 13.7494 10.5887 13.604 11.1215C13.2872 12.2832 12.317 13.2915 11.0793 13.7543C9.1153 14.2769 6.93126 13.0516 6.39386 11.117Z" fill="#3A4757"/>
<path d="M4.96764 5.54458C5.41484 5.09738 6.02138 4.84614 6.65382 4.84614C7.28626 4.84614 7.8928 5.09738 8.34 5.54458C8.7872 5.99178 9.03844 6.59832 9.03844 7.23075C9.03844 7.78304 8.59072 8.23075 8.03843 8.23075C7.48615 8.23075 7.03844 7.78304 7.03844 7.23075C7.03844 7.12875 6.99791 7.03092 6.92578 6.95879C6.85365 6.88666 6.75583 6.84614 6.65382 6.84614C6.55181 6.84614 6.45399 6.88666 6.38186 6.95879C6.30973 7.03092 6.2692 7.12875 6.2692 7.23075C6.2692 7.78304 5.82149 8.23075 5.26921 8.23075C4.71692 8.23075 4.26921 7.78304 4.26921 7.23075C4.26921 6.59832 4.52044 5.99178 4.96764 5.54458Z" fill="#3A4757"/>
<path d="M13.3457 4.84614C12.7133 4.84614 12.1067 5.09738 11.6595 5.54458C11.2123 5.99178 10.9611 6.59832 10.9611 7.23075C10.9611 7.78304 11.4088 8.23075 11.9611 8.23075C12.5134 8.23075 12.9611 7.78304 12.9611 7.23075C12.9611 7.12875 13.0016 7.03092 13.0738 6.95879C13.1459 6.88666 13.2437 6.84614 13.3457 6.84614C13.4477 6.84614 13.5455 6.88666 13.6177 6.95879C13.6898 7.03092 13.7303 7.12875 13.7303 7.23075C13.7303 7.78304 14.178 8.23075 14.7303 8.23075C15.2826 8.23075 15.7303 7.78304 15.7303 7.23075C15.7303 6.59832 15.4791 5.99178 15.0319 5.54458C14.5847 5.09738 13.9782 4.84614 13.3457 4.84614Z" fill="#3A4757"/>
<path fill-rule="evenodd" clip-rule="evenodd" d="M10 0C4.47715 0 0 4.47715 0 10C0 15.5229 4.47716 20 10 20C15.5229 20 20 15.5229 20 10C20 4.47716 15.5229 0 10 0ZM2 10C2 5.58172 5.58172 2 10 2C14.4183 2 18 5.58172 18 10C18 14.4183 14.4183 18 10 18C5.58172 18 2 14.4183 2 10Z" fill="#3A4757"/>
</svg>