<svg width="20" height="20" viewBox="0 0 20 20" fill="none" xmlns="http://www.w3.org/2000/svg">
<path d="M10 0C4.47154 0 0 4.47154 0 10C0 15.5285 4.47154 20 10 20C15.5285 20 20 15.5285 20 10C20 4.47154 15.5285 0 10 0ZM4.47155 11.7073C4.30894 11.2195 4.63415 10.6504 5.12195 10.4878C5.60976 10.3252 6.17886 10.6504 6.34146 11.1382C6.91057 13.0894 9.10569 14.3089 11.0569 13.8211C12.2764 13.3333 13.252 12.3577 13.5772 11.1382C13.7398 10.6504 14.2276 10.3252 14.7967 10.4878C15.2846 10.6504 15.6098 11.1382 15.4472 11.7073C14.9594 13.5772 13.4146 15.0407 11.626 15.6911H11.5447C8.61789 16.5041 5.28455 14.7154 4.47155 11.7073ZM6.6664 4.87803C7.3168 4.87803 7.88618 5.12195 8.37398 5.60976C8.86179 6.09756 9.10569 6.66667 9.10569 7.31707C9.10569 7.88618 8.69919 8.29268 8.13008 8.29268C7.56098 8.29268 7.15447 7.88618 7.15447 7.31707C7.15447 7.23577 7.07317 7.07317 7.07317 6.99187C7.07317 6.91057 6.7477 6.82925 6.6664 6.82925C6.5851 6.82925 6.42276 6.91057 6.34146 6.99187C6.26016 7.07317 6.25989 7.15445 6.25989 7.23575C6.25989 7.80486 5.85339 8.21136 5.28428 8.21136C4.71518 8.21136 4.30867 7.80486 4.30867 7.23575C4.30867 6.58535 4.55285 6.01626 5.04065 5.52846C5.52846 5.04065 6.01599 4.87803 6.6664 4.87803ZM14.7154 8.21138C14.1463 8.21138 13.7398 7.80488 13.7398 7.23577C13.7398 7.15447 13.6585 6.99187 13.6585 6.91057C13.6585 6.82927 13.4959 6.82927 13.3333 6.82927C13.252 6.82927 13.0894 6.91057 13.0081 6.91057C12.9268 6.99187 12.9268 7.07317 12.9268 7.23577C12.9268 7.80488 12.5203 8.21138 11.9512 8.21138C11.3821 8.21138 10.9756 7.80488 10.9756 7.23577C10.9756 6.58537 11.2195 6.01626 11.7073 5.52846C12.1138 5.12195 12.7642 4.79675 13.4146 4.79675C14.065 4.79675 14.6341 5.04065 15.122 5.52846C15.6098 6.01626 15.8537 6.58537 15.8537 7.23577C15.6911 7.80488 15.2846 8.21138 14.7154 8.21138Z" fill="#3A4757"/>
</svg>