<svg width="20" height="20" viewBox="0 0 20 20" fill="none" xmlns="http://www.w3.org/2000/svg">
<path fill-rule="evenodd" clip-rule="evenodd" d="M9.98175 2.00071C9.39756 1.99024 8.81704 2.09514 8.27345 2.30941C7.72987 2.52367 7.23391 2.8431 6.81399 3.24937C6.39406 3.65565 6.05844 4.14079 5.82633 4.677C5.59518 5.21101 5.47122 5.78523 5.46149 6.367V10.0004L5.46136 10.0171V12.7695C5.46136 13.2183 5.28307 13.6488 4.9657 13.9661C4.64834 14.2835 4.2179 14.4618 3.76909 14.4618H2.38454C1.75212 14.4618 1.1456 14.2106 0.698416 13.7634C0.251228 13.3162 0 12.7097 0 12.0772V9.30815C0 8.67573 0.251228 8.06921 0.698416 7.62203C1.1456 7.17484 1.75212 6.92361 2.38454 6.92361H3.4615V6.35906L3.46161 6.34396C3.47441 5.49664 3.65428 4.66019 3.99091 3.88251C4.32753 3.10484 4.8143 2.40123 5.42333 1.812C6.03235 1.22277 6.75165 0.759503 7.54002 0.448745C8.32283 0.140179 9.15846 -0.0120014 9.99968 0.000738619C10.8409 -0.0120014 11.6765 0.140179 12.4593 0.448745C13.2477 0.759503 13.967 1.22277 14.576 1.812C15.185 2.40123 15.6718 3.10484 16.0084 3.88251C16.3451 4.66019 16.5249 5.49665 16.5377 6.34396L16.5379 6.35906V6.92367H17.6146C18.247 6.92367 18.8535 7.17489 19.3007 7.62208C19.7479 8.06927 19.9991 8.67579 19.9991 9.30821V12.0773C19.9991 12.7097 19.7479 13.3162 19.3007 13.7634C18.8535 14.2106 18.247 14.4618 17.6146 14.4618H16.5375V14.5002C16.5375 15.4999 16.1404 16.4585 15.4335 17.1654C14.9297 17.6692 14.298 18.0156 13.6147 18.1731C13.4804 18.556 13.2612 18.9078 12.9688 19.2002C12.4567 19.7123 11.7622 20 11.038 20H8.96113C8.23691 20 7.54235 19.7123 7.03025 19.2002C6.51815 18.6881 6.23045 17.9935 6.23045 17.2693C6.23045 16.5451 6.51815 15.8505 7.03025 15.3384C7.54235 14.8263 8.23691 14.5386 8.96113 14.5386H11.038C11.7622 14.5386 12.4567 14.8263 12.9688 15.3384C13.194 15.5636 13.3758 15.8241 13.5089 16.1069C13.6969 16.0202 13.8701 15.9004 14.0193 15.7512C14.3511 15.4194 14.5375 14.9694 14.5375 14.5002V11.385C14.5375 11.3764 14.5376 11.3677 14.5378 11.3592V8.61593L14.5379 8.59986V6.36703C14.5281 5.78525 14.4042 5.21102 14.173 4.677C13.9409 4.14079 13.6053 3.65565 13.1854 3.24937C12.7654 2.8431 12.2695 2.52367 11.7259 2.30941C11.1823 2.09514 10.6018 1.99024 10.0176 2.00071C10.0057 2.00092 9.9937 2.00092 9.98175 2.00071ZM11.7685 17.2542C11.7646 17.0659 11.6881 16.8861 11.5546 16.7526C11.4176 16.6156 11.2317 16.5386 11.038 16.5386H8.96113C8.76734 16.5386 8.58149 16.6156 8.44446 16.7526C8.30743 16.8897 8.23045 17.0755 8.23045 17.2693C8.23045 17.4631 8.30743 17.649 8.44446 17.786C8.58149 17.923 8.76734 18 8.96113 18H11.038C11.2317 18 11.4176 17.923 11.5546 17.786C11.6881 17.6525 11.7646 17.4728 11.7685 17.2845C11.7684 17.2794 11.7684 17.2744 11.7684 17.2693C11.7684 17.2643 11.7684 17.2592 11.7685 17.2542ZM16.5378 10.0129V12.4618H17.6146C17.7166 12.4618 17.8144 12.4213 17.8865 12.3492C17.9586 12.2771 17.9991 12.1793 17.9991 12.0773V9.30821C17.9991 9.20622 17.9586 9.10841 17.8865 9.03629C17.8144 8.96417 17.7166 8.92366 17.6146 8.92366H16.5379V10.0004L16.5378 10.0129ZM2.38454 8.9236C2.28256 8.9236 2.18474 8.96412 2.11263 9.03624C2.04051 9.10835 2 9.20616 2 9.30815V12.0772C2 12.1792 2.04051 12.277 2.11263 12.3492C2.18474 12.4213 2.28256 12.4618 2.38454 12.4618H3.46136V8.9236H2.38454Z" fill="#3A4757"/>
</svg>