<svg width="17" height="12" viewBox="0 0 17 12" fill="none" xmlns="http://www.w3.org/2000/svg">
<path fill-rule="evenodd" clip-rule="evenodd" d="M8.864 2.14801C10.0012 2.21304 11.0405 3.36197 11.2438 3.5932L12.637 4.61928C12.7079 4.67177 12.7583 4.74557 12.7801 4.82884C12.9598 5.49842 12.8598 6.20886 12.5015 6.80874C12.2422 7.09219 11.8623 7.24653 11.4697 7.22785C10.7782 7.17078 10.101 7.44038 9.65476 7.95044C8.66066 9.14995 9.29327 11.5634 9.3008 11.5634C9.34357 11.7148 9.27968 11.8753 9.14265 11.9608C9.07263 11.9938 8.99409 12.0064 8.91672 11.997C8.83188 11.9959 8.74979 11.968 8.68326 11.9175L5.47505 9.41731C5.39571 9.35886 5.34449 9.27202 5.33313 9.17666C5.32177 9.0813 5.35125 8.98561 5.4148 8.91149C5.54904 8.75792 5.78659 8.73545 5.9495 8.86091L8.38202 10.7469C8.16636 9.60999 8.40284 8.43683 9.04475 7.45908C9.64657 6.76817 10.5661 6.40823 11.4999 6.49803C11.6613 6.50896 11.82 6.45383 11.9367 6.34628C12.1303 5.95966 12.1807 5.52127 12.0797 5.10342L10.7468 4.14237C10.7205 4.1245 10.6976 4.10252 10.679 4.07734C10.2213 3.48573 9.5683 3.06035 8.82635 2.8706C8.61838 2.86063 8.45823 2.69078 8.46862 2.49124C8.47902 2.2917 8.65604 2.13803 8.864 2.14801ZM3.90748 0.084538C3.98432 0.147341 4.03099 0.237602 4.03663 0.3343C4.06156 0.600126 4.0307 0.862529 3.95748 1.11935C3.99515 1.04921 4.0266 0.97508 4.05169 0.897923C4.07769 0.761061 4.18327 0.650677 4.32316 0.614108C4.46305 0.577539 4.61239 0.621282 4.70715 0.726578C4.8019 0.831874 4.82524 0.980017 4.76714 1.10748C4.52946 1.85576 3.89252 2.4178 3.10798 2.58914C2.64981 3.13325 2.1026 3.62076 1.65683 4.01953C1.05435 4.56148 0.798299 6.63532 0.760644 7.94322L4.37552 10.7469C4.16357 9.61001 4.39979 8.43814 5.03825 7.45908C5.63617 6.77589 6.54483 6.41688 7.47077 6.49803C7.63004 6.50968 7.78671 6.4543 7.90003 6.34628C8.09918 5.96136 8.15243 5.52192 8.05065 5.10342L6.7026 4.14237C6.67709 4.12596 6.65635 4.10358 6.64236 4.07734C6.18277 3.48294 5.52722 3.05512 4.7822 2.86338C4.68227 2.8578 4.58876 2.81427 4.52234 2.74241C4.45593 2.67055 4.42207 2.57627 4.42824 2.4804C4.43406 2.38452 4.47942 2.2948 4.55432 2.23108C4.62921 2.16735 4.72747 2.13486 4.82738 2.14079C5.96457 2.20582 7.00384 3.35474 7.19965 3.58597L8.60042 4.61206C8.66889 4.66528 8.71665 4.73911 8.73597 4.82161C8.92557 5.48741 8.83638 6.19795 8.48745 6.80152C8.2269 7.08322 7.84786 7.23718 7.4557 7.22062C6.76061 7.15471 6.07704 7.42573 5.6332 7.94322C4.63911 9.14272 5.27924 11.5562 5.28678 11.5562C5.32712 11.7074 5.26375 11.8667 5.12862 11.9536C5.05661 11.9889 4.97569 12.0039 4.89516 11.997C4.81033 11.9959 4.72824 11.968 4.6617 11.9175L0.143101 8.39123C0.0520246 8.32081 -0.000648085 8.21441 6.02089e-06 8.10219C6.02089e-06 7.73366 0.0903843 4.43863 1.09954 3.52817C1.51549 3.15635 2.04221 2.67826 2.47529 2.16382C2.50073 2.07401 2.5622 1.9975 2.64515 1.9503C3.0432 1.43786 3.32248 0.898413 3.29106 0.399333C3.28056 0.303413 3.31046 0.207445 3.37412 0.132798C3.43777 0.0581517 3.52989 0.0110236 3.62996 0.00190663C3.73035 -0.008127 3.83064 0.021735 3.90748 0.084538ZM13.0061 2.14079C14.1432 2.20582 15.1825 3.35474 15.3783 3.58597L16.7716 4.61206C16.8425 4.66314 16.8909 4.73793 16.9071 4.82161C17.094 5.48996 16.9965 6.20218 16.636 6.80152C16.3788 7.08768 15.9974 7.24261 15.6042 7.22062C14.9094 7.15601 14.2264 7.4268 13.7817 7.94322C12.7877 9.14272 13.4278 11.5562 13.4353 11.5562C13.4781 11.7076 13.4142 11.8681 13.2772 11.9536C13.2146 11.9851 13.1444 12 13.0738 11.997C12.9869 11.995 12.9027 11.9672 12.8328 11.9175L9.6171 9.41731C9.45798 9.29108 9.43446 9.06545 9.56438 8.91149C9.62641 8.83644 9.71748 8.7887 9.81681 8.77917C9.91615 8.76964 10.0153 8.79913 10.0916 8.86091L12.5316 10.7469C12.3159 9.60999 12.5524 8.43683 13.1943 7.45908C13.7899 6.77707 14.6957 6.41806 15.6193 6.49803C15.7822 6.52118 15.9464 6.46415 16.0561 6.34628C16.2497 5.95966 16.3002 5.52127 16.1992 5.10342L14.8813 4.14237L14.8135 4.07011C14.3544 3.47673 13.6983 3.05112 12.9533 2.86338C12.7471 2.84799 12.5906 2.67868 12.5994 2.4804C12.6051 2.38317 12.6515 2.29229 12.7281 2.22835C12.8047 2.16441 12.9049 2.13284 13.0061 2.14079ZM8.07325 0.3343C8.09055 0.533761 8.08434 0.73241 8.05595 0.926887L8.06571 0.897923C8.09357 0.804274 8.15965 0.725381 8.24897 0.679129C8.33829 0.632876 8.44329 0.623181 8.54017 0.652241C8.7378 0.714395 8.84797 0.916197 8.78869 1.10748C8.54319 1.8804 7.8717 2.45461 7.05157 2.60478C6.99883 2.62444 6.94121 2.63133 6.88335 2.62492C6.67538 2.6369 6.49668 2.48484 6.4842 2.2853C6.47354 2.11478 6.58773 1.96476 6.75096 1.91726C7.16021 1.51684 7.36944 0.963164 7.32015 0.399333C7.30143 0.199795 7.45484 0.0234779 7.66281 0.00551939C7.87077 -0.0124391 8.05453 0.134761 8.07325 0.3343ZM10.6413 2.2853C10.6325 2.14499 10.7083 2.01856 10.8264 1.9517L10.7468 2.02517C11.2285 1.61648 11.4823 1.01445 11.4321 0.399333C11.42 0.270254 11.4805 0.144782 11.591 0.0701821C11.7015 -0.00441815 11.845 -0.016813 11.9675 0.0376658C12.0901 0.0921446 12.1731 0.205221 12.1852 0.3343C12.2086 0.604777 12.1889 0.873762 12.1292 1.13287L12.1109 1.20442C12.1697 1.10919 12.2176 1.00655 12.253 0.897923C12.2808 0.804274 12.3469 0.725381 12.4362 0.679129C12.5255 0.632876 12.6305 0.623181 12.7274 0.652241C12.925 0.714395 13.0352 0.916197 12.9759 1.10748C12.7175 1.92104 11.9871 2.51445 11.1082 2.62492L11.0405 2.62494C10.8325 2.6369 10.6538 2.48484 10.6413 2.2853Z" fill="#3A4757"/>
</svg>