<svg width="14" height="10" viewBox="0 0 14 10" fill="none" xmlns="http://www.w3.org/2000/svg">
<path d="M7.67001 9.99951C6.32901 9.99951 5.6317 7.47824 5.6317 4.99951C5.6317 3.66972 5.8248 2.43568 6.15737 1.52079C6.41484 0.829299 6.88687 -0.000488281 7.67001 -0.000488281C10.3198 -0.000488281 13.9995 1.73355 13.9995 4.99951C13.9995 8.26547 10.3198 9.99951 7.67001 9.99951ZM8.41024 1.28675C7.85239 1.28675 7.39108 1.60589 7.23016 2.10589C6.98342 2.88249 6.84396 3.90377 6.84396 4.99951C6.84396 6.09526 6.98342 7.11653 7.23016 7.89313C7.39108 8.39313 7.85239 8.71228 8.39951 8.71228C8.49606 8.71228 8.58189 8.71228 8.67844 8.68036C10.7168 8.28675 12.7765 6.99951 12.7765 4.99951C12.7765 2.99951 10.7168 1.691 8.67844 1.30802C8.58189 1.28675 8.49606 1.28675 8.41024 1.28675ZM0.600278 9.71228C0.332079 9.71228 0.0960634 9.53143 0.0209677 9.27611C-0.0219442 9.12717 -0.000488281 8.9676 0.0853355 8.8293C0.171159 8.691 0.299895 8.59526 0.450086 8.5527L3.59338 7.76547C3.59338 7.76547 3.66848 7.75483 3.70066 7.75483C3.95813 7.75483 4.20488 7.9676 4.27997 8.24419C4.32288 8.39313 4.30143 8.53143 4.22633 8.65909C4.15124 8.78675 4.0225 8.88249 3.87231 8.91441L0.729014 9.70164C0.729014 9.70164 0.632462 9.72292 0.578822 9.72292L0.600278 9.71228ZM0.600278 6.16972C0.332079 6.16972 0.0960634 5.98887 0.0209677 5.72292C-0.0648561 5.40377 0.128247 5.08462 0.450086 4.99951L3.08917 4.30802C3.15353 4.28675 3.20717 4.28675 3.27154 4.28675C3.64702 4.28675 3.92595 4.59526 3.92595 4.99951C3.92595 5.20164 3.78648 5.37185 3.59338 5.42504L0.75047 6.13781C0.75047 6.13781 0.653918 6.15909 0.600278 6.15909V6.16972ZM0.675374 2.5527C0.407175 2.5527 0.171159 2.37185 0.0960634 2.10589C0.0531516 1.95696 0.0746075 1.78675 0.160431 1.65909C0.246255 1.53143 0.374991 1.42504 0.525182 1.38249L4.2156 0.435682C4.2156 0.435682 4.23706 0.435682 4.24779 0.435682C4.37652 0.435682 4.46235 0.488873 4.52671 0.563341C4.61254 0.669724 4.65545 0.808022 4.63399 0.935682C4.4838 1.38249 4.12978 1.72292 3.71139 1.8293L0.814837 2.53143C0.814837 2.53143 0.718286 2.5527 0.675374 2.5527Z" fill="#3A4757"/>
</svg>