<svg width="14" height="10" viewBox="0 0 14 10" fill="none" xmlns="http://www.w3.org/2000/svg">
<path d="M7.6705 10C6.3295 10 5.63218 7.47872 5.63218 5C5.63218 3.67021 5.82529 2.43617 6.15785 1.52128C6.41533 0.829787 6.88736 0 7.6705 0C10.3203 0 14 1.73404 14 5C14 8.26596 10.3203 10 7.6705 10ZM8.41073 1.28723C7.85287 1.28723 7.39157 1.60638 7.23065 2.10638C6.98391 2.88298 6.84444 3.90426 6.84444 5C6.84444 6.09574 6.98391 7.11702 7.23065 7.89362C7.39157 8.39362 7.85287 8.71277 8.4 8.71277C8.49655 8.71277 8.58238 8.71277 8.67893 8.68085C10.7172 8.28723 12.777 7 12.777 5C12.777 3 10.7172 1.69149 8.67893 1.30851C8.58238 1.28723 8.49655 1.28723 8.41073 1.28723ZM0.600766 9.71277C0.332567 9.71277 0.0965517 9.53192 0.0214559 9.2766C-0.0214559 9.12766 0 8.96809 0.0858238 8.82979C0.171648 8.69149 0.300383 8.59575 0.450575 8.55319L3.59387 7.76596C3.59387 7.76596 3.66897 7.75532 3.70115 7.75532C3.95862 7.75532 4.20536 7.96809 4.28046 8.24468C4.32337 8.39362 4.30192 8.53192 4.22682 8.65958C4.15172 8.78724 4.02299 8.88298 3.8728 8.91489L0.729502 9.70213C0.729502 9.70213 0.63295 9.7234 0.57931 9.7234L0.600766 9.71277ZM0.600766 6.17021C0.332567 6.17021 0.0965517 5.98936 0.0214559 5.7234C-0.0643678 5.40426 0.128736 5.08511 0.450575 5L3.08966 4.30851C3.15402 4.28723 3.20766 4.28723 3.27203 4.28723C3.64751 4.28723 3.92644 4.59574 3.92644 5C3.92644 5.20213 3.78697 5.37234 3.59387 5.42553L0.750958 6.1383C0.750958 6.1383 0.654406 6.15957 0.600766 6.15957V6.17021ZM0.675862 2.55319C0.407663 2.55319 0.171648 2.37234 0.0965517 2.10638C0.0536399 1.95745 0.0750958 1.78723 0.16092 1.65957C0.246743 1.53191 0.375479 1.42553 0.525671 1.38298L4.21609 0.43617C4.21609 0.43617 4.23755 0.43617 4.24828 0.43617C4.37701 0.43617 4.46284 0.489362 4.5272 0.56383C4.61303 0.670213 4.65594 0.808511 4.63448 0.93617C4.48429 1.38298 4.13027 1.7234 3.71188 1.82979L0.815326 2.53192C0.815326 2.53192 0.718774 2.55319 0.675862 2.55319Z" fill="#3A4757"/>
</svg>