<svg width="19" height="11" viewBox="0 0 19 11" fill="none" xmlns="http://www.w3.org/2000/svg">
<path fill-rule="evenodd" clip-rule="evenodd" d="M13.562 0.378504L13.5599 0.445193L13.406 1.91243L14.4794 3.26962C14.8535 3.11095 15.2608 3.02381 15.6869 3.02381C16.2358 3.02381 16.7536 3.16844 17.2094 3.42444L18.3687 2.09656L18.4151 2.05116C18.6401 1.86456 18.9738 2.02669 18.9973 2.33407L18.9975 2.40209L18.8076 5.40494C18.9312 5.77965 18.999 6.18314 19 6.60361L19 6.61309L18.9993 6.62214L18.9964 6.78206C18.915 8.68592 17.4644 10.2024 15.6869 10.2024C14.858 10.2024 14.1002 9.87264 13.5192 9.32765C13.6803 9.12507 13.8253 8.90777 13.953 8.67789L13.9603 8.68554C14.4173 9.13257 15.0227 9.40476 15.6869 9.40476C16.9848 9.40476 18.0586 8.3652 18.2375 7.01273L17.1731 7.0119C16.9713 7.0119 16.8077 6.83335 16.8077 6.61309C16.8077 6.41731 16.9369 6.25448 17.1074 6.22071L17.1731 6.21428L18.2375 6.21346C18.0586 4.86099 16.9848 3.82143 15.6869 3.82143C15.1421 3.82143 14.6368 4.00455 14.2206 4.31708L14.2135 4.30193L14.2103 4.3077L13.2956 2.96057L13.2207 3.6811C13.6414 4.41577 13.8846 5.28403 13.8846 6.21428H14.9808C15.1826 6.21428 15.3462 6.39284 15.3462 6.61309C15.3462 6.80888 15.2169 6.97171 15.0464 7.00548L14.9808 7.0119L13.8248 7.01227C13.4762 9.27524 11.6726 11 9.49999 11C7.32762 11 5.52424 9.27564 5.1761 7.01254L4.01922 7.0119L3.95354 7.00548C3.78309 6.97171 3.65384 6.80888 3.65384 6.61309C3.65384 6.39284 3.81743 6.21428 4.01922 6.21428H5.11538C5.11538 5.25715 5.37281 4.36564 5.81622 3.61774L5.74166 2.90478L4.78974 4.3077L4.78653 4.30193L4.77935 4.31708C4.36315 4.00455 3.85787 3.82143 3.31312 3.82143C2.0152 3.82143 0.941396 4.86099 0.762445 6.21346L1.82691 6.21428L1.89259 6.22071C2.06304 6.25448 2.1923 6.41731 2.1923 6.61309C2.1923 6.83335 2.02871 7.0119 1.82691 7.0119L0.762445 7.01273C0.941396 8.3652 2.0152 9.40476 3.31312 9.40476C3.97727 9.40476 4.58273 9.13257 5.03965 8.68554L5.04701 8.67789C5.17467 8.90777 5.31965 9.12507 5.48076 9.32765C4.89975 9.87264 4.14198 10.2024 3.31312 10.2024C1.53561 10.2024 0.0850338 8.68592 0.00359487 6.78206L0.000719392 6.62214L0 6.60361C0.0010035 6.18314 0.0687465 5.77965 0.192359 5.40494L0.00250768 2.40209L0.00265421 2.33407C0.0262032 2.02669 0.359897 1.86456 0.584919 2.05116L0.631323 2.09656L1.79055 3.42444C2.24643 3.16844 2.76418 3.02381 3.31312 3.02381C3.73922 3.02381 4.14653 3.11095 4.5206 3.26962L5.63204 1.86371L5.48313 0.445193C5.44968 0.126467 5.75261 -0.093147 6.00293 0.0392054L6.05562 0.073046L8.1395 1.66342C8.5678 1.51098 9.02508 1.42857 9.49999 1.42857C9.98592 1.42857 10.4534 1.51485 10.8902 1.67413L12.9874 0.073046L13.0401 0.0392054C13.2725 -0.0836933 13.5503 0.096889 13.562 0.378504ZM9.49999 2.22619C8.30256 2.22619 7.23965 2.85489 6.57325 3.82637L6.57454 3.83594L6.56624 3.83663C6.15154 4.44522 5.89205 5.18727 5.85168 5.99301L5.84615 6.21428H8.40384C8.60564 6.21428 8.76922 6.39284 8.76922 6.61309C8.76922 6.80888 8.63997 6.97171 8.46952 7.00548L8.40384 7.0119L5.91929 7.01217C5.97126 7.29153 6.04999 7.56029 6.15242 7.81512L6.21153 7.80952H7.67307C7.87487 7.80952 8.03846 7.98808 8.03846 8.20833C8.03846 8.40412 7.9092 8.56695 7.73875 8.60072L7.67307 8.60714L6.57704 8.60771C7.24368 9.57605 8.30482 10.2024 9.49999 10.2024C10.6952 10.2024 11.7563 9.57605 12.4229 8.60771L11.3269 8.60714C11.1251 8.60714 10.9615 8.42859 10.9615 8.20833C10.9615 8.01255 11.0908 7.84972 11.2612 7.81595L11.3269 7.80952H12.7885L12.8476 7.81512C12.95 7.56029 13.0287 7.29153 13.0807 7.01217L10.5961 7.0119C10.3944 7.0119 10.2308 6.83335 10.2308 6.61309C10.2308 6.41731 10.36 6.25448 10.5305 6.22071L10.5961 6.21428H13.1538C13.1538 4.01172 11.518 2.22619 9.49999 2.22619ZM0.730758 3.30498L0.730806 4.36419C0.867175 4.18065 1.01988 4.01194 1.18652 3.86067L0.730758 3.30498ZM18.2692 3.30498L17.8135 3.86067C17.9801 4.01194 18.1328 4.18065 18.2692 4.36419L18.2692 3.30498ZM12.7423 1.23315L11.6681 2.05361C12.0008 2.26062 12.3063 2.5138 12.5772 2.80517L12.7423 1.23315ZM6.30068 1.23315L6.46151 2.76401C6.72918 2.48313 7.02945 2.239 7.35552 2.03905L6.30068 1.23315Z" fill="#3A4757"/>
</svg>