<svg width="20" height="20" viewBox="0 0 20 20" fill="none" xmlns="http://www.w3.org/2000/svg">
<path fill-rule="evenodd" clip-rule="evenodd" d="M8.27345 2.30941C8.81704 2.09514 9.39756 1.99024 9.98175 2.00071C9.9937 2.00092 10.0057 2.00092 10.0176 2.00071C10.6018 1.99024 11.1823 2.09514 11.7259 2.30941C12.2695 2.52367 12.7654 2.8431 13.1854 3.24937C13.6053 3.65565 13.9409 4.14079 14.173 4.677C14.4042 5.21102 14.5281 5.78525 14.5379 6.36703V8.59986L14.5378 8.61593V11.3592C14.5376 11.3677 14.5375 11.3764 14.5375 11.385V14.5002C14.5375 14.9694 14.3511 15.4194 14.0193 15.7512C13.8701 15.9004 13.6969 16.0202 13.5089 16.1069C13.3758 15.8241 13.194 15.5636 12.9688 15.3384C12.4567 14.8263 11.7622 14.5386 11.038 14.5386H8.96113C8.23691 14.5386 7.54235 14.8263 7.03025 15.3384C6.51815 15.8505 6.23045 16.5451 6.23045 17.2693C6.23045 17.9935 6.51815 18.6881 7.03025 19.2002C7.54235 19.7123 8.23691 20 8.96113 20H11.038C11.7622 20 12.4567 19.7123 12.9688 19.2002C13.2612 18.9078 13.4804 18.556 13.6147 18.1731C14.298 18.0156 14.9297 17.6692 15.4335 17.1654C16.1404 16.4585 16.5375 15.4999 16.5375 14.5002V14.4618H17.6146C18.247 14.4618 18.8535 14.2106 19.3007 13.7634C19.7479 13.3162 19.9991 12.7097 19.9991 12.0773V9.30821C19.9991 8.67579 19.7479 8.06927 19.3007 7.62208C18.8535 7.17489 18.247 6.92367 17.6146 6.92367H16.5379V6.35906L16.5377 6.34396C16.5249 5.49665 16.3451 4.66019 16.0084 3.88251C15.6718 3.10484 15.185 2.40123 14.576 1.812C13.967 1.22277 13.2477 0.759503 12.4593 0.448745C11.6765 0.140179 10.8409 -0.0120014 9.99968 0.000738619C9.15846 -0.0120014 8.32283 0.140179 7.54002 0.448745C6.75165 0.759503 6.03235 1.22277 5.42333 1.812C4.8143 2.40123 4.32753 3.10484 3.99091 3.88251C3.65428 4.66019 3.47441 5.49664 3.46161 6.34396L3.4615 6.35906V6.92361H2.38454C1.75212 6.92361 1.1456 7.17484 0.698416 7.62203C0.251228 8.06921 0 8.67573 0 9.30815V12.0772C0 12.7097 0.251228 13.3162 0.698416 13.7634C1.1456 14.2106 1.75212 14.4618 2.38454 14.4618H3.76909C4.2179 14.4618 4.64834 14.2835 4.9657 13.9661C5.28307 13.6488 5.46136 13.2183 5.46136 12.7695V10.0171L5.46149 10.0004V6.367C5.47122 5.78523 5.59518 5.21101 5.82633 4.677C6.05844 4.14079 6.39406 3.65565 6.81399 3.24937C7.23391 2.8431 7.72987 2.52367 8.27345 2.30941ZM11.5546 16.7526C11.6881 16.8861 11.7646 17.0659 11.7685 17.2542L11.7684 17.2693L11.7685 17.2845C11.7646 17.4728 11.6881 17.6525 11.5546 17.786C11.4176 17.923 11.2317 18 11.038 18H8.96113C8.76734 18 8.58149 17.923 8.44446 17.786C8.30743 17.649 8.23045 17.4631 8.23045 17.2693C8.23045 17.0755 8.30743 16.8897 8.44446 16.7526C8.58149 16.6156 8.76734 16.5386 8.96113 16.5386H11.038C11.2317 16.5386 11.4176 16.6156 11.5546 16.7526ZM16.5378 12.4618V10.0129L16.5379 10.0004V8.92366H17.6146C17.7166 8.92366 17.8144 8.96417 17.8865 9.03629C17.9586 9.10841 17.9991 9.20622 17.9991 9.30821V12.0773C17.9991 12.1793 17.9586 12.2771 17.8865 12.3492C17.8144 12.4213 17.7166 12.4618 17.6146 12.4618H16.5378ZM2.11263 9.03624C2.18474 8.96412 2.28256 8.9236 2.38454 8.9236H3.46136V12.4618H2.38454C2.28256 12.4618 2.18474 12.4213 2.11263 12.3492C2.04051 12.277 2 12.1792 2 12.0772V9.30815C2 9.20616 2.04051 9.10835 2.11263 9.03624Z" fill="#3A4757"/>
<path d="M8.66785 10.4979C8.54844 10.0501 8.08856 9.78378 7.64068 9.90319C7.1928 10.0226 6.92653 10.4825 7.04593 10.9303C7.41032 12.2971 8.78428 12.9837 9.95383 13.0477C11.1757 13.1145 12.6105 12.5209 12.9629 10.8916C13.0609 10.4385 12.7731 9.99181 12.32 9.89382C11.867 9.79584 11.4203 10.0837 11.3223 10.5367C11.2583 10.8325 11.1057 11.0465 10.8917 11.1842C10.6756 11.3232 10.3872 11.3903 10.0455 11.3716C9.31281 11.3316 8.78004 10.9187 8.66785 10.4979Z" fill="#3A4757"/>
</svg>