<svg width="20" height="20" viewBox="0 0 20 20" fill="none" xmlns="http://www.w3.org/2000/svg">
<path d="M8.27381 2.30941C8.81741 2.09514 9.39796 1.99024 9.98218 2.00071C9.99413 2.00092 10.0061 2.00092 10.018 2.00071C10.6023 1.99024 11.1828 2.09514 11.7264 2.30941C12.27 2.52367 12.766 2.8431 13.1859 3.24937C13.6059 3.65565 13.9415 4.14079 14.1736 4.677C14.4048 5.21102 14.5288 5.78525 14.5385 6.36703V8.59986L14.5384 8.61593V11.3592C14.5382 11.3677 14.5381 11.3764 14.5381 11.385V14.5002C14.5381 14.9694 14.3517 15.4194 14.0199 15.7512C13.8707 15.9004 13.6975 16.0202 13.5094 16.1069C13.3764 15.8241 13.1946 15.5636 12.9694 15.3384C12.4573 14.8263 11.7627 14.5386 11.0384 14.5386H8.96152C8.23727 14.5386 7.54268 14.8263 7.03055 15.3384C6.51843 15.8505 6.23072 16.5451 6.23072 17.2693C6.23072 17.9935 6.51843 18.6881 7.03055 19.2002C7.54268 19.7123 8.23727 20 8.96152 20H11.0384C11.7627 20 12.4573 19.7123 12.9694 19.2002C13.2618 18.9078 13.481 18.556 13.6153 18.1731C14.2986 18.0156 14.9304 17.6692 15.4342 17.1654C16.141 16.4585 16.5382 15.4999 16.5382 14.5002V14.4618H17.6154C18.2478 14.4618 18.8543 14.2106 19.3016 13.7634C19.7488 13.3162 20 12.7097 20 12.0773V9.30821C20 8.67579 19.7488 8.06927 19.3016 7.62208C18.8543 7.17489 18.2478 6.92367 17.6154 6.92367H16.5386V6.35906L16.5385 6.34396C16.5256 5.49665 16.3458 4.66019 16.0091 3.88251C15.6725 3.10484 15.1857 2.40123 14.5767 1.812C13.9676 1.22277 13.2483 0.759503 12.4599 0.448745C11.677 0.140179 10.8414 -0.0120014 10.0001 0.000738619C9.15885 -0.0120014 8.32319 0.140179 7.54035 0.448745C6.75194 0.759503 6.03261 1.22277 5.42356 1.812C4.81451 2.40123 4.32772 3.10484 3.99108 3.88251C3.65444 4.66019 3.47456 5.49664 3.46176 6.34396L3.46165 6.35906V6.92361H2.38465C1.7522 6.92361 1.14565 7.17484 0.698446 7.62203C0.251239 8.06921 0 8.67573 0 9.30815V12.0772C0 12.7097 0.251239 13.3162 0.698446 13.7634C1.14565 14.2106 1.7522 14.4618 2.38465 14.4618H3.76925C4.21808 14.4618 4.64854 14.2835 4.96592 13.9661C5.28329 13.6488 5.46159 13.2183 5.46159 12.7695V10.0171L5.46173 10.0004V6.367C5.47146 5.78523 5.59542 5.21101 5.82658 4.677C6.0587 4.14079 6.39434 3.65565 6.81428 3.24937C7.23422 2.8431 7.7302 2.52367 8.27381 2.30941Z" fill="#3A4757"/>
<path d="M7.64101 9.90329C8.08891 9.78388 8.54881 10.0502 8.66822 10.498C8.78041 10.9188 9.31321 11.3317 10.0459 11.3717C10.3877 11.3904 10.676 11.3233 10.8922 11.1843C11.1062 11.0466 11.2588 10.8326 11.3228 10.5368C11.4207 10.0838 11.8675 9.79594 12.3205 9.89393C12.7736 9.99191 13.0615 10.4386 12.9635 10.8917C12.6111 12.521 11.1762 13.1146 9.95425 13.0478C8.78466 12.9838 7.41064 12.2972 7.04624 10.9305C6.92682 10.4826 7.19311 10.0227 7.64101 9.90329Z" fill="#3A4757"/>
</svg>