<svg width="20" height="18" viewBox="0 0 20 18" fill="none" xmlns="http://www.w3.org/2000/svg">
<path fill-rule="evenodd" clip-rule="evenodd" d="M5.61047 0C2.47262 0 0 2.7967 0 6.15721C0 8.91423 1.39876 10.8984 1.97217 11.6611C3.85936 14.1731 6.40205 15.8367 8.75649 17.377C9.01122 17.5436 9.26374 17.7089 9.51299 17.8735C9.76182 18.0379 10.0775 18.0424 10.3304 17.885C10.546 17.7508 10.7639 17.6162 10.9834 17.4807C13.4422 15.9622 16.1038 14.3184 18.0514 11.6945C18.6977 10.8253 19.9997 8.85644 20 6.15476C20.0034 2.7964 17.53 0 14.3925 0C12.6028 0 11.0234 0.916456 10.0008 2.32504C8.97944 0.916197 7.39988 0 5.61047 0Z" fill="#3A4757"/>
</svg>