<svg width="20" height="18" viewBox="0 0 20 18" fill="none" xmlns="http://www.w3.org/2000/svg">
<path d="M14.2833 0C12.5667 0 11.0417 0.827029 10 2.10675C8.95833 0.827029 7.43333 0 5.71667 0C2.50833 0 0 2.84672 0 6.24189C0 9.01026 1.40833 10.9951 1.975 11.7525C3.84167 14.2249 6.35 15.8615 8.64167 17.3502H8.65833C8.90833 17.5243 9.15 17.681 9.39167 17.8377C9.71667 18.0466 10.1167 18.0553 10.45 17.8551C10.6583 17.7245 10.875 17.5939 11.0833 17.4634H11.1C13.4917 15.9834 16.1167 14.3642 18.05 11.7786C18.6917 10.9168 20 8.94932 20 6.24189C20 2.84672 17.4917 0.00870556 14.2833 0.00870556V0ZM5.71667 2.11545C7.175 2.11545 8.475 3.07306 9.06667 4.50948C9.225 4.89253 9.59167 5.14499 9.99167 5.14499C10.3917 5.14499 10.7583 4.89253 10.9167 4.50948C11.5167 3.07306 12.8167 2.11545 14.275 2.11545C16.2667 2.11545 17.975 3.9088 17.9667 6.24189C17.9667 8.24417 16.9917 9.74153 16.4417 10.4815C14.7667 12.7362 12.4583 14.1552 10.0083 15.67L9.93333 15.7135L9.725 15.583C7.39167 14.0595 5.18333 12.6144 3.55 10.4467C3.04167 9.77635 2.00833 8.27029 2.00833 6.2506C2.00833 3.9175 3.70833 2.12416 5.70833 2.12416L5.71667 2.11545Z" fill="#3A4757"/>
</svg>