<svg width="20" height="18" viewBox="0 0 20 18" fill="none" xmlns="http://www.w3.org/2000/svg">
<path fill-rule="evenodd" clip-rule="evenodd" d="M1.6131 1.72335C-0.617864 4.10679 -0.500049 7.99016 1.75162 10.3957L8.08017 17.1568C9.13252 18.2811 10.8387 18.2811 11.8911 17.1568L16.533 12.1976L16.5498 12.2155L18.2484 10.4008C20.5001 7.99525 20.6178 4.11186 18.3869 1.72842C16.1561 -0.65486 12.5215 -0.529167 10.2698 1.87593L10.0021 2.16129L9.73068 1.87134C7.47901 -0.534225 3.84407 -0.660091 1.6131 1.72335ZM8.57148 3.68642L8.3016 3.39809C6.78281 1.77551 4.42867 1.76886 3.04219 3.25011C1.6557 4.73135 1.66192 7.24638 3.18071 8.86897L9.50925 15.63C9.77234 15.9111 10.1989 15.9111 10.462 15.63L10.7348 15.3386L9.16567 13.662C8.77107 13.2404 8.77112 12.5568 9.16579 12.1352C9.56046 11.7137 10.2003 11.7137 10.5949 12.1354L12.1638 13.8119L12.9193 13.0048L11.4872 11.4746C11.0926 11.053 11.0926 10.3694 11.4873 9.94784C11.882 9.52627 12.5218 9.52632 12.9164 9.94795L14.3484 11.478L15.105 10.6697L12.7123 8.10972C12.465 7.84516 12.0644 7.8427 11.8143 8.1042L11.0545 8.8987C9.8384 10.1702 7.8919 10.1624 6.68475 8.88126C5.85937 8.00527 5.85787 6.57933 6.68142 5.70137L8.57148 3.68642ZM11.6984 3.40317C13.2172 1.78058 15.5713 1.77394 16.9578 3.25518C18.3443 4.73643 18.3381 7.25148 16.8193 8.87406L16.5508 9.16087L14.1424 6.58408C13.1121 5.48169 11.4429 5.47143 10.4007 6.56109L9.64087 7.35558C9.21459 7.80129 8.53226 7.79856 8.10911 7.34947C8.07803 7.31649 8.07798 7.2628 8.10899 7.22975L11.6984 3.40317Z" fill="#3A4757"/>
</svg>