<svg width="20" height="20" viewBox="0 0 20 20" fill="none" xmlns="http://www.w3.org/2000/svg">
<path d="M10 16C10.5523 16 11 16.4477 11 17V19C11 19.5523 10.5523 20 10 20C9.44772 20 9 19.5523 9 19V17C9 16.4477 9.44772 16 10 16Z" fill="#3A4757"/>
<path d="M10 0C10.5523 2.41411e-08 11 0.447715 11 1V3C11 3.55228 10.5523 4 10 4C9.44772 4 9 3.55228 9 3V1C9 0.447715 9.44772 -2.41411e-08 10 0Z" fill="#3A4757"/>
<path d="M4 10C4 10.5523 3.55228 11 3 11H1C0.447715 11 -4.82823e-08 10.5523 0 10C4.82823e-08 9.44772 0.447715 9 1 9H3C3.55228 9 4 9.44772 4 10Z" fill="#3A4757"/>
<path d="M20 10C20 10.5523 19.5523 11 19 11H17C16.4477 11 16 10.5523 16 10C16 9.44772 16.4477 9 17 9H19C19.5523 9 20 9.44772 20 10Z" fill="#3A4757"/>
<path d="M5.05086 14.9491C5.44139 15.3397 5.44139 15.9728 5.05086 16.3633L3.91421 17.5C3.52369 17.8905 2.89052 17.8905 2.5 17.5C2.10948 17.1095 2.10948 16.4763 2.5 16.0858L3.63665 14.9491C4.02718 14.5586 4.66034 14.5586 5.05086 14.9491Z" fill="#3A4757"/>
<path d="M5.05489 5.05489C4.66437 5.44542 4.0312 5.44542 3.64068 5.05489L2.5 3.91421C2.10948 3.52369 2.10948 2.89053 2.5 2.5C2.89052 2.10948 3.52369 2.10948 3.91421 2.5L5.05489 3.64068C5.44542 4.0312 5.44542 4.66437 5.05489 5.05489Z" fill="#3A4757"/>
<path d="M17.5 2.5C17.8905 2.89052 17.8905 3.52369 17.5 3.91421L16.364 5.05025C15.9734 5.44078 15.3403 5.44078 14.9497 5.05025C14.5592 4.65973 14.5592 4.02656 14.9497 3.63604L16.0858 2.5C16.4763 2.10948 17.1095 2.10948 17.5 2.5Z" fill="#3A4757"/>
<path d="M17.5 17.5C17.1095 17.8905 16.4763 17.8905 16.0858 17.5L14.9497 16.364C14.5592 15.9734 14.5592 15.3403 14.9497 14.9497C15.3403 14.5592 15.9734 14.5592 16.364 14.9497L17.5 16.0858C17.8905 16.4763 17.8905 17.1095 17.5 17.5Z" fill="#3A4757"/>
<path fill-rule="evenodd" clip-rule="evenodd" d="M5 8C5 6.34315 6.34315 5 8 5H12C13.6569 5 15 6.34315 15 8V12C15 13.6569 13.6569 15 12 15H8C6.34315 15 5 13.6569 5 12V8ZM8 7C7.44772 7 7 7.44772 7 8V12C7 12.5523 7.44772 13 8 13H12C12.5523 13 13 12.5523 13 12V8C13 7.44772 12.5523 7 12 7H8Z" fill="#3A4757"/>
</svg>