<svg width="20" height="20" viewBox="0 0 20 20" fill="none" xmlns="http://www.w3.org/2000/svg">
<path d="M19.7386 9.5L10.4939 0.25C10.1608 -0.0833333 9.74438 -0.0833333 9.41124 0.25L0.249856 9.5C-0.0832853 9.83333 -0.0832853 10.25 0.249856 10.5833C0.582997 10.9167 0.999424 10.9167 1.33256 10.5833L2.66513 9.16667V19.1667C2.66513 19.5 2.91499 19.8333 3.24813 19.9167C3.33141 19.9167 3.49798 20 3.58127 20H16.4072C16.4905 20 16.6571 20 16.7403 19.9167C17.1568 19.9167 17.4899 19.5833 17.4899 19.1667V9.25L18.7392 10.5C19.0723 10.8333 19.4888 10.8333 19.8219 10.5C20.0718 10.25 20.0718 9.75 19.7386 9.5Z" fill="#3A4757"/>
</svg>