<svg width="20" height="20" viewBox="0 0 20 20" fill="none" xmlns="http://www.w3.org/2000/svg">
<path fill-rule="evenodd" clip-rule="evenodd" d="M19.7126 9.31056L10.683 0.28744C10.2999 -0.0958134 9.6918 -0.0958134 9.30862 0.28744L0.28738 9.31056C-0.0957934 9.69381 -0.0957934 10.302 0.28738 10.6853C0.670554 11.0685 1.27863 11.0685 1.66181 10.6853L10 2.35368L18.3382 10.6936C18.7214 11.0769 19.3294 11.0769 19.7126 10.6936C20.0958 10.3104 20.0958 9.70215 19.7126 9.31889V9.31056Z" fill="#3A4757"/>
<path fill-rule="evenodd" clip-rule="evenodd" d="M16.2474 11.1102C15.7143 11.1102 15.2728 11.5434 15.2728 12.085V18.0587H4.7272V12.085C4.7272 11.5518 4.29404 11.1102 3.7526 11.1102C3.21116 11.1102 2.77801 11.5434 2.77801 12.085V19.0252C2.77801 19.5584 3.21116 20 3.7526 20H16.2474C16.7805 20 17.222 19.5668 17.222 19.0252V12.085C17.222 11.5518 16.7888 11.1102 16.2474 11.1102Z" fill="#3A4757"/>
</svg>