<svg width="20" height="20" viewBox="0 0 20 20" fill="none" xmlns="http://www.w3.org/2000/svg">
<path fill-rule="evenodd" clip-rule="evenodd" d="M19.74 9.49994L10.49 0.249941C10.16 -0.0800586 9.74 -0.0800586 9.41 0.249941L0.250002 9.49994C-0.0799976 9.82994 -0.0799976 10.2499 0.250002 10.5799C0.580002 10.9099 1 10.9099 1.33 10.5799L2.66 9.15994V19.1599C2.66 19.4899 2.91 19.8299 3.24 19.9099C3.28 19.9099 3.34 19.9299 3.41 19.9499C3.47 19.9699 3.53 19.9899 3.58 19.9899H16.41C16.49 19.9899 16.66 19.9899 16.74 19.9099C17.16 19.9099 17.49 19.5799 17.49 19.1599V9.23994L18.74 10.4899C19.07 10.8199 19.49 10.8199 19.82 10.4899C20.07 10.2399 20.07 9.73994 19.74 9.48994V9.49994ZM14.32 11.4099L9.76 15.7599C9.42 16.0799 8.87 16.0799 8.53 15.7599L6.25 13.5899C5.91 13.2699 5.91 12.7399 6.25 12.4199C6.59 12.0999 7.14 12.0999 7.48 12.4199L9.15 14.0099L13.1 10.2499C13.44 9.92994 13.99 9.92994 14.33 10.2499C14.67 10.5699 14.67 11.0999 14.33 11.4199L14.32 11.4099Z" fill="#3A4757"/>
</svg>