<svg width="20" height="20" viewBox="0 0 20 20" fill="none" xmlns="http://www.w3.org/2000/svg">
<path fill-rule="evenodd" clip-rule="evenodd" d="M19.7375 9.4975L10.4875 0.2475C10.1575 -0.0825 9.7375 -0.0825 9.4075 0.2475L0.2475 9.4975C-0.0825 9.8275 -0.0825 10.2475 0.2475 10.5775C0.5775 10.9075 0.9975 10.9075 1.3275 10.5775L2.6575 9.1575V19.1575C2.6575 19.4875 2.9075 19.8275 3.2375 19.9075C3.2775 19.9075 3.3375 19.9275 3.4075 19.9475C3.4675 19.9675 3.5275 19.9875 3.5775 19.9875H16.4075C16.4875 19.9875 16.6575 19.9875 16.7375 19.9075C17.1575 19.9075 17.4875 19.5775 17.4875 19.1575V9.2375L18.7375 10.4875C19.0675 10.8175 19.4875 10.8175 19.8175 10.4875C20.0675 10.2375 20.0675 9.7375 19.7375 9.4875V9.4975ZM14.3175 11.4075L9.7575 15.7575C9.4175 16.0775 8.8675 16.0775 8.5275 15.7575L6.2475 13.5875C5.9075 13.2675 5.9075 12.7375 6.2475 12.4175C6.5875 12.0975 7.1375 12.0975 7.4775 12.4175L9.1475 14.0075L13.0975 10.2475C13.4375 9.9275 13.9875 9.9275 14.3275 10.2475C14.6675 10.5675 14.6675 11.0975 14.3275 11.4175L14.3175 11.4075Z" fill="#3A4757"/>
</svg>