<svg width="20" height="20" viewBox="0 0 20 20" fill="none" xmlns="http://www.w3.org/2000/svg">
<path fill-rule="evenodd" clip-rule="evenodd" d="M4.03509 10.6364C3.94737 10.6364 3.85965 10.5455 3.68421 10.5455C3.24561 10.5455 2.80702 10.9091 2.7193 11.2727C2.7193 11.3636 2.7193 11.4545 2.7193 11.5455V16.3636C2.7193 18.3636 4.29825 20 6.22807 20H13.7719C15.7018 20 17.2807 18.3636 17.2807 16.3636V11.7273C17.2807 11.6364 17.2807 11.5455 17.2807 11.4545C17.193 11 16.7544 10.7273 16.3158 10.7273C16.2281 10.7273 16.0526 10.7273 15.9649 10.8182C15.614 11 15.2632 11.3636 15.2632 11.8182V16.3636C15.2632 17.1818 14.5614 17.9091 13.7719 17.9091H6.22807C5.4386 17.9091 4.73684 17.1818 4.73684 16.3636V11.7273C4.73684 11.1818 4.47368 10.8182 4.03509 10.6364ZM12.0175 15.8182C12.5439 15.3636 12.8947 14.6364 12.8947 13.8182V12.0909C12.8947 10.6364 11.7544 9.45455 10.4386 9.45455H9.64912C8.24562 9.45455 7.19298 10.6364 7.19298 12.0909V13.8182C7.19298 14.6364 7.54386 15.3636 8.07018 15.8182C8.50877 16.1818 9.03509 16.4545 9.64912 16.4545H10.4386C11.0526 16.3636 11.5789 16.1818 12.0175 15.8182ZM12.4561 1.09091C11.0526 -0.363636 8.85965 -0.363636 7.54386 1.09091L0.263158 8.72727C-0.0877193 9.09091 -0.0877193 9.81818 0.263158 10.1818C0.438597 10.3636 0.701754 10.4545 0.964912 10.4545C1.22807 10.4545 1.49123 10.3636 1.66667 10.1818L8.94737 2.54545C9.5614 1.90909 10.4386 1.90909 11.0526 2.54545L18.3333 10.1818C18.5088 10.3636 18.7719 10.4545 19.0351 10.4545C19.2982 10.4545 19.5614 10.3636 19.7368 10.1818C20.0877 9.81818 20.0877 9.09091 19.7368 8.72727L12.4561 1.09091ZM10.4386 11.5455H9.64912C9.38597 11.5455 9.21053 11.7273 9.21053 12.0909V13.8182C9.21053 14.0909 9.38597 14.3636 9.64912 14.3636H10.4386C10.7018 14.3636 10.8772 14.1818 10.8772 13.8182V12.0909C10.8772 11.8182 10.7018 11.5455 10.4386 11.5455Z" fill="#3A4757"/>
</svg>