<svg width="15" height="15" viewBox="0 0 15 15" fill="none" xmlns="http://www.w3.org/2000/svg">
<path fill-rule="evenodd" clip-rule="evenodd" d="M7.31587 0.0756981C7.44557 -0.0256309 7.62771 -0.0251887 7.75692 0.0767692L14.8634 5.68463C15.1293 5.8945 14.981 6.32215 14.6422 6.32215L13.2366 6.32214L13.237 14.6429C13.237 14.8182 13.1107 14.964 12.9441 14.9942L12.8799 15H2.85758C2.66035 15 2.50047 14.8401 2.50047 14.6429V6.32214L0.357811 6.32215C0.0393967 6.32215 -0.110454 5.94468 0.0925979 5.72519L0.137968 5.68356L7.31587 0.0756981ZM7.53428 0.810714L1.39414 5.60786L2.85758 5.60786C3.03289 5.60786 3.1787 5.7342 3.20893 5.90081L3.21469 5.965V14.2857H12.5224L12.5228 5.965C12.5228 5.78968 12.6491 5.64386 12.8157 5.61362L12.8799 5.60786L13.6137 5.60786L7.53428 0.810714ZM7.53676 10.125C7.84739 10.125 8.0992 10.3768 8.0992 10.6875C8.0992 10.9982 7.84739 11.25 7.53676 11.25C7.22963 11.2417 6.98262 10.9947 6.97431 10.6875C6.97431 10.3768 7.22613 10.125 7.53676 10.125ZM8.85201 5.70897C9.21004 6.02745 9.39908 6.46811 9.37142 6.91973C9.39766 7.49888 9.10755 8.05315 8.59404 8.40499C8.24532 8.6186 8.01592 8.95647 7.96436 9.33241C7.96012 9.56845 7.74557 9.75776 7.48238 9.75776C7.35526 9.75776 7.23345 9.71201 7.14429 9.63073C7.05514 9.54944 7.0061 9.43945 7.00818 9.32543C7.01304 8.78934 7.30159 8.28722 7.78556 7.97266C8.16761 7.74145 8.39523 7.35403 8.39192 6.94065C8.4304 6.70766 8.35376 6.47121 8.18202 6.29305C8.01028 6.11489 7.7605 6.01272 7.49793 6.01323C7.06413 6.01073 6.67932 6.26253 6.54953 6.63383C6.48796 6.81909 6.29861 6.94647 6.0831 6.94762C5.83447 6.94403 5.6327 6.76611 5.62445 6.54318C5.62715 6.4739 5.64292 6.40552 5.67109 6.34096C5.95911 5.66601 6.69268 5.2292 7.49793 5.25317C8.00116 5.22459 8.49398 5.39048 8.85201 5.70897Z" fill="#3A4757"/>
</svg>