<svg width="20" height="15" viewBox="0 0 20 15" fill="none" xmlns="http://www.w3.org/2000/svg">
<path d="M19.5 0.5C19.1667 0.166667 18.8333 0 18.3333 0C9.66667 0 9.33333 0 1.66667 0C1.16667 0 0.833333 0.166667 0.5 0.5C0.166667 0.833333 0 1.25 0 1.66667V13.3333C0 13.8333 0.166667 14.1667 0.5 14.5C0.833333 14.8333 1.16667 15 1.66667 15H18.3333C18.75 15 19.1667 14.8333 19.5 14.5C19.8333 14.1667 20 13.75 20 13.3333V1.66667C20 1.25 19.8333 0.833333 19.5 0.5ZM5.83333 5.66667C6.08333 5.41667 6.41667 5.25 6.75 5.25C7.08333 5.25 7.41667 5.41667 7.66667 5.66667C7.91667 5.91667 8.08333 6.25 8.08333 6.66667C8.08333 7.08333 7.91667 7.33333 7.66667 7.66667C7.41667 7.91667 7.08333 8.08333 6.75 8.08333C6.41667 8.08333 6.08333 7.91667 5.83333 7.66667C5.58333 7.41667 5.41667 7.08333 5.41667 6.66667C5.41667 6.25 5.58333 5.91667 5.83333 5.66667ZM9.75 10.8333H3.75V10.5833C3.75 10.3333 3.83333 10.0833 4 9.83333C4.16667 9.58333 4.33333 9.41667 4.58333 9.33333C5 9.16667 5.33333 9.08333 5.75 9C6.08333 8.91667 6.5 8.91667 6.83333 8.91667C7.16667 8.91667 7.5 8.91667 7.83333 9C8.16667 9.08333 8.58333 9.16667 9 9.33333C9.25 9.41667 9.41667 9.58333 9.58333 9.83333C9.75 10.0833 9.83333 10.3333 9.83333 10.5833V10.8333H9.75ZM16 9.16667H12C11.6667 9.16667 11.4167 8.91667 11.4167 8.58333C11.4167 8.25 11.6667 8 12 8H16C16.3333 8 16.5833 8.25 16.5833 8.58333C16.5833 8.91667 16.3333 9.16667 16 9.16667ZM16 6.33333H12C11.6667 6.33333 11.4167 6.08333 11.4167 5.75C11.4167 5.41667 11.6667 5.16667 12 5.16667H16C16.3333 5.16667 16.5833 5.41667 16.5833 5.75C16.5833 6.08333 16.3333 6.33333 16 6.33333Z" fill="#3A4757"/>
</svg>