<svg width="20" height="15" viewBox="0 0 20 15" fill="none" xmlns="http://www.w3.org/2000/svg">
<path d="M11.9024 9.32759H15.8293C16.2764 9.32759 16.6341 8.97256 16.6341 8.52878C16.6341 8.08499 16.2764 7.72996 15.8293 7.72996H11.9024C11.4553 7.72996 11.0976 8.08499 11.0976 8.52878C11.0976 8.97256 11.4553 9.32759 11.9024 9.32759Z" fill="#3A4757"/>
<path d="M6.84553 8.21409C7.26829 8.21409 7.64228 8.06079 7.94309 7.75417C8.2439 7.44755 8.39837 7.07638 8.39837 6.64874C8.39837 6.22109 8.2439 5.84992 7.94309 5.5433C7.64228 5.23669 7.26829 5.08338 6.84553 5.08338C6.42276 5.08338 6.04878 5.23669 5.74797 5.5433C5.44715 5.84992 5.29268 6.22109 5.29268 6.64874C5.29268 7.07638 5.44715 7.44755 5.74797 7.75417C6.04878 8.06079 6.42276 8.21409 6.84553 8.21409Z" fill="#3A4757"/>
<path d="M11.9024 6.6326H15.8293C16.2764 6.6326 16.6341 6.27757 16.6341 5.83378C16.6341 5.38999 16.2764 5.03496 15.8293 5.03496H11.9024C11.4553 5.03496 11.0976 5.38999 11.0976 5.83378C11.0976 6.27757 11.4553 6.6326 11.9024 6.6326Z" fill="#3A4757"/>
<path d="M19.4553 0.548682C19.0976 0.185584 18.6504 0 18.1382 0H1.86179C1.34959 0 0.910569 0.185584 0.544715 0.548682C0.186992 0.91178 0 1.36364 0 1.87197V13.128C0 13.6444 0.186992 14.0882 0.544715 14.4513C0.902439 14.8144 1.34959 15 1.86179 15H18.1382C18.6504 15 19.0894 14.8144 19.4553 14.4513C19.8211 14.0882 20 13.6444 20 13.128V1.88004C20 1.36364 19.813 0.919849 19.4553 0.556751V0.548682ZM1.77236 1.88004C1.77236 1.82356 1.78862 1.80742 1.78862 1.79935C1.78862 1.79935 1.80488 1.78322 1.86179 1.78322H18.1382C18.187 1.78322 18.2032 1.79935 18.2114 1.79935C18.2114 1.79935 18.2276 1.82356 18.2276 1.88004V13.1361C18.2276 13.1926 18.2114 13.2087 18.2114 13.2168C18.2114 13.2168 18.1951 13.2329 18.1382 13.2329H1.86179C1.81301 13.2329 1.79675 13.2168 1.78862 13.2168C1.78862 13.2168 1.77236 13.1926 1.77236 13.1361V1.88004Z" fill="#3A4757"/>
<path d="M9.95935 10.4895C9.95935 10.1748 9.87805 9.87628 9.71545 9.61807C9.55285 9.35987 9.3252 9.16622 9.04065 9.04519C8.60163 8.86767 8.21138 8.74664 7.86179 8.68209C7.52032 8.61754 7.17886 8.58526 6.84553 8.58526C6.4878 8.58526 6.12195 8.61754 5.7561 8.69016C5.39024 8.76278 5 8.88381 4.5935 9.03712C4.30894 9.16622 4.0813 9.3518 3.91057 9.61C3.73984 9.86821 3.65041 10.1587 3.65041 10.4814V10.9817H9.96748V10.4814L9.95935 10.4895Z" fill="#3A4757"/>
</svg>