<svg width="20" height="20" viewBox="0 0 20 20" fill="none" xmlns="http://www.w3.org/2000/svg">
<path fill-rule="evenodd" clip-rule="evenodd" d="M18.0569 12.7691C17.2332 12.59 16.3915 12.4994 15.546 12.4998C14.1363 12.4969 12.7389 12.7442 11.4184 13.2286C11.0799 12.8699 10.7165 12.5323 10.3299 12.2186C8.27296 10.5497 5.69117 9.66512 3.04394 9.72211C2.68089 9.72152 2.31822 9.73753 1.95705 9.77006V2.36109C1.95705 2.13097 2.14346 1.94443 2.37342 1.94443H17.6405C17.8705 1.94443 18.0569 2.13097 18.0569 2.36109V12.7691ZM17.6405 19.9998H13.3415C13.3292 20.0001 13.3169 20.0001 13.3047 19.9998H2.37342C1.07033 19.9998 0.0139583 18.9427 0.0139583 17.6387V11.052C-0.00506954 10.9404 -0.00423128 10.8299 0.0139583 10.7241V2.36109C0.0139583 1.0571 1.07033 0 2.37342 0H17.6405C18.9436 0 20 1.0571 20 2.36109V17.6387C20 18.9427 18.9436 19.9998 17.6405 19.9998ZM13.116 3.47219C11.238 3.47219 9.71562 4.99565 9.71562 6.87494C9.71562 8.75422 11.238 10.2777 13.116 10.2777C14.994 10.2777 16.5164 8.75422 16.5164 6.87494C16.5164 4.99565 14.994 3.47219 13.116 3.47219Z" fill="#3A4757"/>
</svg>