<svg width="20" height="20" viewBox="0 0 20 20" fill="none" xmlns="http://www.w3.org/2000/svg">
<path fill-rule="evenodd" clip-rule="evenodd" d="M9.99978 0C10.5521 -7.4505e-06 10.9998 0.447703 10.9998 0.999989L10.9999 10.7583L13.3946 7.96461C13.754 7.54528 14.3853 7.49672 14.8046 7.85614C15.2239 8.21557 15.2725 8.84687 14.9131 9.26619L10.7592 14.1124C10.5692 14.334 10.2919 14.4616 9.99996 14.4616C9.70804 14.4616 9.43069 14.334 9.24071 14.1124L5.08685 9.26619C4.72743 8.84687 4.77599 8.21557 5.19532 7.85614C5.61464 7.49672 6.24595 7.54528 6.60537 7.96461L8.99993 10.7583L8.99979 1.00002C8.99979 0.44773 9.4475 7.45069e-06 9.99978 0ZM1 13.8461C1.55229 13.8461 2 14.2939 2 14.8461V16.2308C2 16.7 2.18641 17.15 2.5182 17.4818C2.85 17.8136 3.30001 18 3.76924 18H16.2308C16.7 18 17.15 17.8136 17.4818 17.4818C17.8136 17.15 18 16.7 18 16.2308V14.8461C18 14.2939 18.4478 13.8461 19 13.8461C19.5523 13.8461 20 14.2939 20 14.8461V16.2308C20 17.2304 19.6029 18.1891 18.8961 18.896C18.1892 19.6029 17.2305 20 16.2308 20H3.76924C2.76957 20 1.81085 19.6029 1.10398 18.896C0.397115 18.1891 0 17.2304 0 16.2308V14.8461C0 14.2939 0.447716 13.8461 1 13.8461Z" fill="#3A4757"/>
</svg>