<svg width="20" height="20" viewBox="0 0 20 20" fill="none" xmlns="http://www.w3.org/2000/svg">
<path d="M9.99986 14.8209C10.5673 14.8209 11.0267 14.3609 11.0267 13.7943L11.0267 9.15386C11.0267 8.58722 10.5673 8.12729 9.99986 8.12729C9.43243 8.12729 8.97299 8.58722 8.97299 9.15386L8.97299 13.7943C8.97299 14.361 9.43242 14.8209 9.99986 14.8209Z" fill="#3A4757"/>
<path d="M9.99993 7.15955C10.7809 7.15955 11.4135 6.52649 11.4135 5.74627C11.4135 4.96605 10.7809 4.333 9.99993 4.333C9.21894 4.333 8.58638 4.96605 8.58638 5.74627C8.58638 6.52649 9.21894 7.15955 9.99993 7.15955Z" fill="#3A4757"/>
<path fill-rule="evenodd" clip-rule="evenodd" d="M10 0C4.47684 0 0 4.47746 0 10C0 15.5225 4.47684 20 10 20C15.5232 20 20 15.5225 20 10C20 4.47746 15.5232 0 10 0ZM2.11228 10C2.11228 5.6431 5.64404 2.11169 10 2.11169C14.356 2.11169 17.8877 5.6431 17.8877 10C17.8877 14.3569 14.356 17.8883 10 17.8883C5.64404 17.8883 2.11228 14.3569 2.11228 10Z" fill="#3A4757"/>
</svg>