<svg width="20" height="20" viewBox="0 0 20 20" fill="none" xmlns="http://www.w3.org/2000/svg">
<path fill-rule="evenodd" clip-rule="evenodd" d="M20 10C20 15.5228 15.5228 20 10 20C4.47715 20 -3.91405e-07 15.5228 1.03312e-06 10C5.50298e-07 4.47715 4.47715 1.35705e-06 10 8.74227e-07C15.5228 3.91405e-07 20 4.47715 20 10ZM8.98442 14.2343C8.98442 14.8159 9.45584 15.2873 10.0374 15.2873C10.6189 15.2873 11.0903 14.8159 11.0903 14.2343L11.0903 9.41668C11.0903 8.83516 10.6189 8.36374 10.0374 8.36374C9.45584 8.36374 8.98442 8.83516 8.98442 9.41669L8.98442 14.2343ZM8.58288 5.87896C8.58288 6.68221 9.23404 7.33337 10.0373 7.33337C10.8405 7.33337 11.4917 6.68221 11.4917 5.87896C11.4917 5.07571 10.8405 4.42455 10.0373 4.42455C9.23404 4.42455 8.58288 5.07571 8.58288 5.87896Z" fill="#3A4757"/>
</svg>