<svg width="20" height="20" viewBox="0 0 20 20" fill="none" xmlns="http://www.w3.org/2000/svg">
<path fill-rule="evenodd" clip-rule="evenodd" d="M9.99998 1.80135C12.6701 1.80135 12.9864 1.81151 14.0408 1.85962C15.0158 1.90412 15.5453 2.06703 15.8977 2.20394C16.3644 2.38534 16.6976 2.60208 17.0475 2.95199C17.3974 3.3019 17.6142 3.63506 17.7955 4.1018C17.9325 4.45421 18.0954 4.9837 18.1399 5.95865C18.188 7.01315 18.1982 7.3294 18.1982 9.99953C18.1982 12.6697 18.188 12.9859 18.1399 14.0404C18.0954 15.0154 17.9325 15.5449 17.7955 15.8973C17.6142 16.364 17.3974 16.6972 17.0475 17.0471C16.6976 17.397 16.3644 17.6137 15.8977 17.7951C15.5453 17.932 15.0158 18.0949 14.0408 18.1394C12.9865 18.1876 12.6703 18.1977 9.99998 18.1977C7.32969 18.1977 7.01344 18.1876 5.95914 18.1394C4.98415 18.0949 4.45466 17.932 4.10229 17.7951C3.63551 17.6137 3.30235 17.397 2.95244 17.0471C2.60253 16.6972 2.38579 16.364 2.20443 15.8973C2.06748 15.5449 1.90457 15.0154 1.86007 14.0404C1.81196 12.9859 1.8018 12.6697 1.8018 9.99953C1.8018 7.3294 1.81196 7.01315 1.86007 5.95869C1.90457 4.9837 2.06748 4.45421 2.20443 4.1018C2.38579 3.63506 2.60253 3.3019 2.95244 2.95199C3.30235 2.60208 3.63551 2.38534 4.10229 2.20394C4.45466 2.06703 4.98415 1.90412 5.9591 1.85962C7.0136 1.81151 7.32985 1.80135 9.99998 1.80135ZM9.99998 -0.000488281C7.28412 -0.000488281 6.94362 0.0110233 5.87701 0.0596894C4.81259 0.108276 4.08569 0.277298 3.44958 0.524519C2.79199 0.780075 2.23432 1.12201 1.67839 1.67794C1.12246 2.23387 0.780524 2.79154 0.524967 3.44913C0.277746 4.08525 0.108725 4.81214 0.060138 5.87656C0.0114719 6.94313 0 7.28367 0 9.99953C0 12.7154 0.0114719 13.0559 0.060138 14.1225C0.108725 15.1869 0.277746 15.9138 0.524967 16.5499C0.780524 17.2075 1.12246 17.7652 1.67839 18.3211C2.23432 18.8771 2.79199 19.219 3.44958 19.4745C4.08569 19.7218 4.81259 19.8908 5.87701 19.9394C6.94362 19.988 7.28412 19.9995 9.99998 19.9995C12.7158 19.9995 13.0564 19.988 14.1229 19.9394C15.1874 19.8908 15.9143 19.7218 16.5504 19.4745C17.208 19.219 17.7656 18.8771 18.3216 18.3211C18.8775 17.7652 19.2194 17.2075 19.475 16.5499C19.7222 15.9138 19.8912 15.1869 19.9398 14.1225C19.9885 13.0559 20 12.7154 20 9.99953C20 7.28367 19.9885 6.94313 19.9398 5.87656C19.8912 4.81214 19.7222 4.08525 19.475 3.44913C19.2194 2.79154 18.8775 2.23387 18.3216 1.67794C17.7656 1.12201 17.208 0.780075 16.5504 0.524519C15.9143 0.277298 15.1874 0.108276 14.1229 0.0596894C13.0564 0.0110233 12.7158 -0.000488281 9.99998 -0.000488281ZM9.99998 4.86438C7.16393 4.86438 4.86483 7.16348 4.86483 9.99953C4.86483 12.8356 7.16393 15.1347 9.99998 15.1347C12.836 15.1347 15.1351 12.8356 15.1351 9.99953C15.1351 7.16348 12.836 4.86438 9.99998 4.86438ZM9.99998 13.3329C8.15904 13.3329 6.66663 11.8405 6.66663 9.99953C6.66663 8.15859 8.15904 6.66618 9.99998 6.66618C11.8409 6.66618 13.3333 8.15859 13.3333 9.99953C13.3333 11.8405 11.8409 13.3329 9.99998 13.3329ZM16.538 4.6615C16.538 5.32425 16.0008 5.86152 15.338 5.86152C14.6753 5.86152 14.138 5.32425 14.138 4.6615C14.138 3.99875 14.6753 3.46152 15.338 3.46152C16.0008 3.46152 16.538 3.99875 16.538 4.6615Z" fill="#3A4757"/>
</svg>