<svg width="15" height="12" viewBox="0 0 15 12" fill="none" xmlns="http://www.w3.org/2000/svg">
<path fill-rule="evenodd" clip-rule="evenodd" d="M4.42725 0C5.08125 0 5.62425 0.483852 5.73675 1.11752H13.7183C14.4248 1.11752 15 1.70304 15 2.42385V10.6929C15 11.4137 14.4248 12 13.7183 12H1.28175C0.57525 12 0 11.4137 0 10.6929V2.42385C0 1.70304 0.57525 1.11752 1.28175 1.11752H1.3395C1.452 0.483852 1.995 0 2.649 0H4.42725ZM1.3155 1.8819H1.28175C0.9885 1.8819 0.75 2.12498 0.75 2.42385V10.6929C0.75 10.9925 0.9885 11.2356 1.28175 11.2356H13.7183C14.0115 11.2356 14.25 10.9925 14.25 10.6929V2.42385C14.25 2.12498 14.0115 1.8819 13.7183 1.8819H5.76075V9.0128C5.76075 9.7619 5.163 10.3719 4.42725 10.3719H2.649C1.91325 10.3719 1.3155 9.7619 1.3155 9.0128V1.8819ZM4.42725 0.76438H2.649C2.32725 0.76438 2.0655 1.03115 2.0655 1.35907V9.0128C2.0655 9.33996 2.32725 9.60749 2.649 9.60749H4.42725C4.749 9.60749 5.01075 9.33996 5.01075 9.0128V1.35907C5.01075 1.03115 4.749 0.76438 4.42725 0.76438ZM8.17342 8.68198C8.38042 8.68198 8.54842 8.8532 8.54842 9.06417C8.54842 9.27514 8.38042 9.44636 8.17342 9.44636H7.32817C7.12042 9.44636 6.95317 9.27514 6.95317 9.06417C6.95317 8.8532 7.12042 8.68198 7.32817 8.68198H8.17342ZM10.3187 8.68198C10.5257 8.68198 10.6937 8.8532 10.6937 9.06417C10.6937 9.27514 10.5257 9.44636 10.3187 9.44636H9.47347C9.26573 9.44636 9.09847 9.27514 9.09847 9.06417C9.09847 8.8532 9.26573 8.68198 9.47347 8.68198H10.3187ZM12.464 8.68198C12.671 8.68198 12.839 8.8532 12.839 9.06417C12.839 9.27514 12.671 9.44636 12.464 9.44636H11.6188C11.411 9.44636 11.2438 9.27514 11.2438 9.06417C11.2438 8.8532 11.411 8.68198 11.6188 8.68198H12.464ZM12.065 2.68152C12.4918 2.68152 12.839 3.03466 12.839 3.47036V6.99721C12.839 7.43214 12.4918 7.78605 12.065 7.78605H7.72703C7.30027 7.78605 6.95303 7.43214 6.95303 6.99721V3.47036C6.95303 3.03466 7.30027 2.68152 7.72703 2.68152H12.065ZM7.72703 3.4459L7.70303 6.99721L12.065 7.02167C12.077 7.02167 12.089 7.0102 12.089 6.99721V3.47036L7.72703 3.4459Z" fill="#3A4757"/>
</svg>