<svg width="17" height="17" viewBox="0 0 17 17" fill="none" xmlns="http://www.w3.org/2000/svg">
<path fill-rule="evenodd" clip-rule="evenodd" d="M8.88025 0.00675616C11.1229 0.0947168 13.2362 1.03723 14.7513 2.62518C16.2764 4.20143 17.0833 6.29571 16.9932 8.44419C16.9031 10.5927 15.9234 12.618 14.2711 14.0717C12.754 15.4612 10.7416 16.2441 8.64377 16.2609C8.28099 16.2604 7.91901 16.2365 7.56025 16.1896C7.32632 16.6324 6.86952 16.9397 6.34076 16.9914L6.18019 17C5.8251 17.0027 5.48052 16.8846 5.20787 16.6665C4.88933 16.4203 4.68659 16.0624 4.64471 15.6723C4.60283 15.2821 4.72529 14.8921 4.98486 14.589C5.24276 14.2819 5.61911 14.0877 6.02854 14.0503C6.43592 14.013 6.84242 14.1295 7.16144 14.3752C7.49026 14.6331 7.68675 15.0029 7.72181 15.3934C9.89693 15.6653 12.1045 14.9729 13.6983 13.482C16.7876 10.7494 16.9818 6.13279 14.1321 3.17044C11.2824 0.208094 6.46795 0.021837 3.37866 2.75442C0.536489 5.13293 0.0314257 9.17168 2.16863 12.121C2.38803 11.9592 2.65236 11.8592 2.93244 11.8346C3.55463 11.7705 4.15536 12.0742 4.45227 12.6029C4.72797 13.0939 4.69078 13.6883 4.36552 14.1419L4.28536 14.244C3.98243 14.5933 3.53043 14.7914 3.05705 14.7823C2.46683 14.775 1.93356 14.4426 1.68645 13.9281C1.51323 13.5674 1.50225 13.1622 1.64119 12.8021C-0.934697 9.5097 -0.427749 4.86694 2.80581 2.15665C4.45109 0.692659 6.63761 -0.0812045 8.88025 0.00675616ZM6.18911 14.8967H6.11775C5.76334 14.937 5.5065 15.24 5.53792 15.5807C5.55338 15.7469 5.63674 15.9006 5.76985 16.0082C5.90781 16.1082 6.079 16.1569 6.25156 16.145C6.5125 16.1152 6.73013 15.9398 6.80565 15.6986C6.88116 15.4573 6.80017 15.1961 6.59945 15.0335C6.48141 14.9471 6.33762 14.8992 6.18911 14.8967ZM3.1431 12.6776L3.05705 12.6804C2.76525 12.7099 2.53025 12.9235 2.4836 13.2016C2.43695 13.4796 2.59023 13.7532 2.85763 13.8692C3.12503 13.9851 3.4402 13.9146 3.6267 13.6972C3.73794 13.5719 3.78958 13.4078 3.76912 13.2444C3.75336 13.0786 3.66927 12.9258 3.53554 12.8199C3.4241 12.7317 3.2859 12.6821 3.1431 12.6776ZM9.43391 1.84783C9.55735 1.84783 9.66726 1.93019 9.71704 2.0543L9.73456 2.10992C9.94748 2.71405 10.0526 3.0888 10.05 3.23418L10.0469 3.26322C10.0494 3.33409 10.0286 3.40736 9.97875 3.47118L9.18765 4.4832C11.4222 4.80091 13.1365 6.64374 13.1365 8.86957C13.132 11.317 11.0589 13.3001 8.5002 13.3043C5.93966 13.3043 3.86394 11.3188 3.86394 8.86957C3.86394 6.64348 5.57861 4.80048 7.81352 4.48309L7.02309 3.47118C6.96731 3.39972 6.94785 3.31641 6.9569 3.2379L6.95478 3.23588L6.96022 3.21582C6.96379 3.19655 6.96909 3.17767 6.97598 3.15945L7.26583 2.11481C7.29612 1.97751 7.39516 1.87608 7.51507 1.85286L7.56759 1.84783H9.43391ZM8.5002 5.21555C6.39046 5.21555 4.68018 6.85151 4.68018 8.86957C4.68018 10.8876 6.39046 12.5236 8.5002 12.5236C10.6099 12.5236 12.3202 10.8876 12.3202 8.86957C12.3157 6.85329 10.6081 5.21985 8.5002 5.21555ZM9.0938 3.59006H7.90742L8.5003 4.34968L9.0938 3.59006ZM9.1944 2.55276H7.81021L7.72091 2.95652H9.28874L9.1944 2.55276Z" fill="#3A4757"/>
</svg>