<svg width="20" height="11" viewBox="0 0 20 11" fill="none" xmlns="http://www.w3.org/2000/svg">
<path fill-rule="evenodd" clip-rule="evenodd" d="M5.45377 7.22268C4.4538 7.22268 3.63548 6.4102 3.63548 5.41773C3.63548 4.42525 4.4538 3.61277 5.45377 3.61277C6.45375 3.61277 7.27206 4.42525 7.27206 5.41773C7.27206 6.4102 6.45375 7.22268 5.45377 7.22268ZM10.5902 3.61271C9.72693 1.18443 7.18116 -0.449692 4.33539 0.110294C2.25378 0.525283 0.56299 2.17691 0.125501 4.24436C-0.61948 7.73677 2.05379 10.8334 5.4537 10.8334C7.82697 10.8334 9.84526 9.32506 10.5902 7.22261H14.5451V9.02757C14.5451 10.02 15.3635 10.8334 16.3634 10.8334C17.3634 10.8334 18.1817 10.02 18.1817 9.02757V7.22261C19.1825 7.22261 20 6.41013 20 5.41766C20 4.42518 19.1825 3.61271 18.1817 3.61271H10.5902Z" fill="#3A4757"/>
</svg>