<svg width="20" height="20" viewBox="0 0 20 20" fill="none" xmlns="http://www.w3.org/2000/svg">
<path d="M19.9333 9.60833C19.8833 9.48333 19.8083 9.36667 19.7082 9.275L10.7295 0.3C10.6378 0.2 10.5211 0.125 10.396 0.075C10.2709 0.025 10.1376 0 10.0042 0C9.87078 0 9.73739 0.025 9.61234 0.075C9.48729 0.125 9.37057 0.2 9.27887 0.3L0.300125 9.275C0.200083 9.36667 0.125052 9.48333 0.0750313 9.60833C0.0250104 9.73333 0 9.86667 0 10C0 10.1333 0.0250104 10.2667 0.0750313 10.3917C0.125052 10.5167 0.200083 10.6333 0.300125 10.725C0.39183 10.8167 0.508545 10.9 0.633597 10.95C0.758649 11 0.892038 11.025 1.02543 11.025C1.15882 11.025 1.29221 11 1.41726 10.95C1.54231 10.9 1.65902 10.825 1.75073 10.725L2.06753 10.4083V18.975C2.06753 19.25 2.17591 19.5083 2.36765 19.7C2.5594 19.8917 2.81784 20 3.09296 20H16.907C17.1822 20 17.4406 19.8917 17.6323 19.7C17.8241 19.5083 17.9325 19.25 17.9325 18.975V10.4083L18.2493 10.725C18.341 10.825 18.4577 10.9 18.5827 10.95C18.7078 11 18.8412 11.025 18.9746 11.025C19.108 11.025 19.2414 11 19.3664 10.95C19.4915 10.9 19.6082 10.825 19.6999 10.725C19.7916 10.6333 19.8749 10.5167 19.925 10.3917C19.975 10.2667 20 10.1333 20 10C20 9.86667 19.975 9.73333 19.925 9.60833H19.9333ZM4.12672 17.95V8.35L10.0042 2.475L15.8816 8.35V17.9417H4.12672V17.95Z" fill="#3A4757"/>
<path d="M11.3881 6.85C10.9712 6.48333 10.446 6.28333 9.88745 6.28333C9.32889 6.28333 8.80367 6.48333 8.38683 6.85C7.96999 7.21667 7.70321 7.71667 7.63652 8.26667C7.56982 8.81667 7.70321 9.36667 8.01167 9.825C8.27011 10.2083 8.63693 10.5 9.07045 10.6667V15.7917C9.07045 16.0083 9.15381 16.2167 9.31221 16.3667C9.46228 16.5167 9.6707 16.6083 9.88745 16.6083C10.1042 16.6083 10.3126 16.525 10.4627 16.3667C10.5294 16.3 10.5877 16.2167 10.6294 16.125H10.8462C11.0629 16.125 11.2714 16.0417 11.4214 15.8833C11.5715 15.7333 11.6632 15.525 11.6632 15.3083C11.6632 15.0917 11.5798 14.8833 11.4214 14.7333C11.2714 14.5833 11.0629 14.4917 10.8462 14.4917H10.6961V14.2H10.8462C11.0629 14.2 11.2714 14.1167 11.4214 13.9583C11.5715 13.8083 11.6632 13.6 11.6632 13.3833C11.6632 13.1667 11.5798 12.9583 11.4214 12.8083C11.2714 12.6583 11.0629 12.5667 10.8462 12.5667H10.6961V10.6667C11.1213 10.5 11.4965 10.2083 11.7549 9.825C12.0634 9.36667 12.1967 8.81667 12.1301 8.26667C12.0634 7.71667 11.7966 7.21667 11.3797 6.85H11.3881ZM9.37057 8.20833C9.43727 8.10833 9.53731 8.025 9.65402 7.975C9.77074 7.925 9.89579 7.91667 10.0208 7.94167C10.1459 7.96667 10.2543 8.025 10.346 8.11667C10.4377 8.20833 10.496 8.31667 10.5211 8.44167C10.5461 8.56667 10.5294 8.69167 10.4877 8.80833C10.4377 8.925 10.3627 9.025 10.2543 9.09167C10.1542 9.15833 10.0292 9.2 9.90413 9.2C9.73739 9.2 9.57899 9.13333 9.46228 9.01667C9.34556 8.9 9.27887 8.74167 9.27887 8.575C9.27887 8.45 9.29554 8.31667 9.37057 8.20833Z" fill="#3A4757"/>
</svg>