<svg width="12" height="14" viewBox="0 0 12 14" fill="none" xmlns="http://www.w3.org/2000/svg">
<path d="M4.49758 0.0285727C5.01577 0.207694 5.27684 0.692134 5.15421 1.24985C5.15421 1.26613 5.15421 1.27835 5.15421 1.31906C5.26893 1.31906 5.38364 1.31906 5.4944 1.31906C5.88997 1.31499 6.28157 1.3272 6.66527 1.45747C7.70956 1.81978 8.42949 2.83751 8.42949 3.9733C8.42949 6.43214 8.42949 8.89505 8.42949 11.3539C8.42949 12.8072 7.27049 13.9959 5.85832 14C4.7626 14 3.67084 14 2.57513 14C1.21834 14 0.09098 12.9008 0.0079113 11.5086C0.00395565 11.415 0 11.3213 0 11.2277C0 8.85027 0 6.46878 0 4.08729C0 3.35045 0.217561 2.70317 0.708062 2.16988C1.23416 1.59995 1.88685 1.32313 2.65029 1.3272C2.85598 1.3272 3.06563 1.3272 3.25946 1.3272C3.25946 1.16029 3.23968 1.00152 3.25946 0.846829C3.32275 0.427524 3.568 0.158842 3.95961 0.0285727C4.07432 -0.0121366 4.35517 -0.00806565 4.49758 0.0326436V0.0285727ZM7.78077 7.66971C7.78077 6.48099 7.78077 5.29228 7.78077 4.10357C7.78077 3.95295 7.78077 3.79825 7.75308 3.6517C7.56716 2.65432 6.78394 1.99076 5.79898 1.99076C4.74678 1.99076 3.69062 1.99076 2.63842 1.99076C1.51501 1.99076 0.656638 2.87415 0.652682 4.0303C0.652682 6.4525 0.652682 8.87877 0.652682 11.301C0.652682 11.4516 0.668505 11.6022 0.70015 11.7488C0.9098 12.7095 1.67324 13.3283 2.65424 13.3324C3.69853 13.3364 4.74283 13.3324 5.78316 13.3324C5.96512 13.3324 6.15104 13.312 6.32509 13.2672C7.21511 13.0311 7.78077 12.2536 7.78077 11.2684C7.78077 10.0716 7.78077 8.87063 7.78077 7.67378V7.66971ZM4.22068 1.31906C4.39473 1.31906 4.54109 1.16843 4.54109 0.993383C4.54109 0.818333 4.39868 0.667708 4.22464 0.663638C4.03872 0.663638 3.90027 0.80612 3.90027 0.997454C3.90027 1.18065 4.04268 1.31906 4.22068 1.31906Z" fill="#3A4757"/>
<path d="M11.996 3.83528C11.9802 5.00364 11.5847 6.01323 10.8014 6.85591C10.6669 6.99839 10.5206 7.02689 10.3782 6.94547C10.2476 6.86812 10.1764 6.70528 10.2279 6.55873C10.2556 6.48138 10.3149 6.40811 10.3742 6.34297C11.0269 5.61835 11.3552 4.75938 11.3434 3.77422C11.3315 2.85012 11.019 2.03593 10.4138 1.34794C10.4019 1.33166 10.3861 1.31538 10.3742 1.30316C10.1804 1.09147 10.1606 0.89607 10.3188 0.745446C10.4771 0.598892 10.6511 0.623318 10.8449 0.835006C11.6123 1.67769 11.9881 2.68321 12 3.83121L11.996 3.83528Z" fill="#3A4757"/>
<path d="M10.7104 3.6965C10.6867 4.62874 10.4256 5.32487 9.89163 5.90701C9.78878 6.021 9.65824 6.08613 9.52375 6.021C9.43277 5.97622 9.32993 5.8663 9.31015 5.7686C9.29037 5.6709 9.34575 5.52841 9.41299 5.45107C9.84416 4.95848 10.0657 4.39262 10.0419 3.72906C10.0222 3.14692 9.80856 2.65027 9.43277 2.21875C9.35761 2.13326 9.30619 2.00299 9.29828 1.889C9.29037 1.75873 9.3853 1.66103 9.51189 1.61625C9.65429 1.5674 9.769 1.61625 9.86789 1.7221C10.2041 2.08034 10.4533 2.49557 10.576 2.98001C10.6472 3.25684 10.6788 3.5418 10.7025 3.69242L10.7104 3.6965Z" fill="#3A4757"/>
<path d="M4.2247 9.16838C3.50478 9.16838 2.78485 9.16838 2.06887 9.16838C1.72473 9.16838 1.6298 9.0666 1.62584 8.71243C1.62584 7.99188 1.62584 7.27539 1.62584 6.55484C1.62584 6.29023 1.74847 6.15589 2.00558 6.15589C3.485 6.15589 4.96441 6.15589 6.44382 6.15589C6.68908 6.15589 6.81961 6.2943 6.81961 6.54263C6.81961 7.28761 6.81961 8.03259 6.81961 8.77757C6.81961 9.03811 6.68907 9.1643 6.41218 9.1643C5.68434 9.1643 4.95254 9.1643 4.2247 9.1643V9.16838ZM2.27852 8.48853H6.15111V6.84387H2.28644C2.28644 6.89273 2.27852 6.93751 2.27852 6.97821C2.27852 7.47894 2.27852 7.97559 2.27852 8.48853Z" fill="#3A4757"/>
<path d="M4.22486 9.6602C4.94875 9.6602 5.67263 9.6602 6.39651 9.6602C6.70506 9.6602 6.83559 9.79861 6.81581 10.1121C6.74066 11.5247 5.69636 12.5302 4.50176 12.6564C3.07377 12.8111 1.90685 11.8015 1.66556 10.4907C1.63787 10.3482 1.62996 10.2016 1.626 10.0551C1.61809 9.79454 1.74862 9.6602 2.00574 9.6602C2.57931 9.6602 3.14892 9.6602 3.72249 9.6602C3.88863 9.6602 4.05477 9.6602 4.22486 9.6602ZM2.32219 10.3441C2.36966 11.2112 3.31506 12.0173 4.24068 12.001C5.17422 11.9847 6.09589 11.1664 6.10775 10.3441H2.32219Z" fill="#3A4757"/>
<path d="M4.21277 5.66679C3.49284 5.66679 2.77686 5.66679 2.05694 5.66679C1.72466 5.66679 1.62181 5.55687 1.62577 5.21899C1.64159 4.0547 2.53557 2.95962 3.66689 2.71944C5.13443 2.40598 6.53078 3.38707 6.78394 4.90145C6.80372 5.0073 6.81163 5.11721 6.81558 5.22713C6.83141 5.52431 6.70483 5.66272 6.41606 5.66679C5.83458 5.66679 5.2531 5.66679 4.66767 5.66679C4.51735 5.66679 4.36308 5.66679 4.21277 5.66679ZM2.32592 4.99102H6.11543C6.06797 4.3071 5.34804 3.30158 4.15739 3.33415C3.25154 3.35857 2.31405 4.19718 2.32592 4.99102Z" fill="#3A4757"/>
</svg>