<svg width="20" height="12" viewBox="0 0 20 12" fill="none" xmlns="http://www.w3.org/2000/svg">
<path d="M5.90908 7.44738C5.00914 7.44738 4.27269 6.72136 4.27269 5.8345C4.27269 4.94763 5.00914 4.22161 5.90908 4.22161C6.80902 4.22161 7.54547 4.94763 7.54547 5.8345C7.54547 6.72136 6.80902 7.44738 5.90908 7.44738Z" fill="#3A4757"/>
<path fill-rule="evenodd" clip-rule="evenodd" d="M4.70942 0.117619C7.50942 -0.42946 10.0558 0.986662 11.1898 3.22864H17.3636C18.81 3.22864 20 4.39267 20 5.8344C20 6.92413 19.3202 7.85521 18.3636 8.24489V9.06017C18.3636 10.5016 17.1732 11.6667 15.7273 11.6667C14.2813 11.6667 13.0909 10.5016 13.0909 9.06017V8.44016H11.1903C10.2229 10.3539 8.22027 11.6667 5.90892 11.6667C2.23474 11.6667 -0.671467 8.33869 0.135611 4.57961C0.613685 2.33799 2.44796 0.565265 4.70698 0.118098L4.70942 0.117619ZM9.58942 4.55411C8.97217 2.83023 7.15247 1.66473 5.0968 2.06576C3.60989 2.36059 2.40159 3.539 2.09203 4.9915L2.09169 4.99309C1.55844 7.47522 3.46376 9.68092 5.90892 9.68092C7.61167 9.68092 9.05683 8.60708 9.58907 7.11567L9.82505 6.45441H15.0908V9.06017C15.0908 9.39246 15.3733 9.68092 15.7273 9.68092C16.0812 9.68092 16.3637 9.39246 16.3637 9.06017V6.45441H17.3636C17.7187 6.45441 18.0001 6.16639 18.0001 5.8344C18.0001 5.50241 17.7187 5.21439 17.3636 5.21439H9.82584L9.58942 4.55411Z" fill="#3A4757"/>
</svg>