<svg width="20" height="20" viewBox="0 0 20 20" fill="none" xmlns="http://www.w3.org/2000/svg">
<path d="M19 18H17.92V7.92C17.92 6.18 17.24 4.54 16 3.3C14.77 2.06 13.13 1.38 11.38 1.38H10.09C9.97 1.13 9.82 0.9 9.62 0.7C9.17 0.25 8.56 0 7.93 0H5.16C4.52 0 3.92 0.25 3.47 0.7C3.02 1.15 2.77 1.75 2.77 2.39V3.92C1.99 4.47 1.33 5.19 0.86 6.02C0.29 7.02 0 8.16 0 9.32C0 9.87 0.45 10.31 1 10.31H12.09C12.64 10.31 13.09 9.87 13.09 9.32C13.1 8.17 12.8 7.03 12.23 6.02C11.75 5.19 11.1 4.47 10.32 3.92V3.38H11.38C12.59 3.38 13.73 3.85 14.59 4.71C15.44 5.56 15.92 6.73 15.92 7.92V18H10.69C10.14 18 9.69 18.45 9.69 19C9.69 19.55 10.14 20 10.69 20H19C19.55 20 20 19.55 20 19C20 18.45 19.55 18 19 18ZM10.48 7.01C10.72 7.42 10.88 7.85 10.98 8.31H2.11C2.21 7.86 2.38 7.42 2.61 7.01C3.01 6.31 3.58 5.73 4.28 5.33C4.59 5.15 4.78 4.82 4.78 4.46V2.38C4.78 2.28 4.82 2.18 4.89 2.11C4.96 2.04 5.06 2 5.16 2H7.93C8.03 2 8.13 2.04 8.2 2.11C8.26 2.17 8.3 2.26 8.3 2.35C8.3 2.35 8.3 2.37 8.3 2.38C8.3 2.4 8.3 2.41 8.31 2.43V4.46C8.31 4.82 8.5 5.15 8.81 5.33C9.5 5.73 10.08 6.31 10.48 7.01Z" fill="#3A4757"/>
</svg>