<svg width="18" height="18" viewBox="0 0 18 18" fill="none" xmlns="http://www.w3.org/2000/svg">
<path fill-rule="evenodd" clip-rule="evenodd" d="M8.61115 2.17254C8.81596 1.94587 9.17423 1.94777 9.37526 2.17781C10.2983 3.23399 12.5813 5.79814 14.2796 7.70239C14.3474 7.77845 14.4143 7.85345 14.4802 7.92726C14.7142 8.18959 14.9348 8.43688 15.1366 8.66293C15.2378 8.77637 15.3343 8.88446 15.4253 8.98642C15.7343 9.33247 15.4443 9.87394 14.9844 9.81309L12.0137 9.41999C11.746 9.38458 11.4986 9.568 11.4547 9.83436L10.5075 15.5818C10.4677 15.8233 10.2589 16.0005 10.0142 16.0005H7.77881C7.53308 16.0005 7.32377 15.822 7.28505 15.5793L6.36965 9.84292C6.32695 9.57536 6.07891 9.39049 5.8103 9.42604L2.8965 9.8116C2.43529 9.87262 2.14802 9.32591 2.45991 8.98071L8.61115 2.17254ZM7.12716 0.831737C8.12989 -0.278085 9.88707 -0.275873 10.8812 0.861733C12.029 2.17517 15.3122 5.85649 16.9173 7.6545C18.4814 9.40659 16.9913 12.0961 14.722 11.7958L13.1918 11.5933L12.4809 15.9071C12.2819 17.1146 11.238 18.0005 10.0142 18.0005H7.77881C6.55021 18.0005 5.50366 17.1078 5.31004 15.8945L4.62479 11.6003L3.15885 11.7943C0.852803 12.0995 -0.583526 9.36589 0.975914 7.63991L7.12716 0.831737Z" fill="#3A4757"/>
</svg>