<svg width="18" height="18" viewBox="0 0 18 18" fill="none" xmlns="http://www.w3.org/2000/svg">
<path fill-rule="evenodd" clip-rule="evenodd" d="M8.28797 2.16863C8.49278 1.94196 8.85105 1.94387 9.05207 2.1739C9.97508 3.23009 12.2581 5.79423 13.9564 7.69849C14.0243 7.77454 14.0912 7.84954 14.157 7.92335C14.391 8.18568 14.6117 8.43298 14.8134 8.65902C14.9147 8.77246 15.0111 8.88056 15.1022 8.98251C15.4111 9.32856 15.1211 9.87003 14.6612 9.80918L11.6905 9.41609C11.4229 9.38067 11.1755 9.56409 11.1316 9.83046L10.1843 15.5779C10.1445 15.8194 9.93575 15.9966 9.69098 15.9966H7.45563C7.2099 15.9966 7.00059 15.8181 6.96187 15.5754L6.04646 9.83902C6.00377 9.57146 5.75573 9.38659 5.48712 9.42213L2.57332 9.80769C2.11211 9.86872 1.82484 9.32201 2.13673 8.97681L8.28797 2.16863ZM6.80398 0.82783C7.80671 -0.281991 9.56389 -0.279779 10.558 0.857827C11.7059 2.17127 14.989 5.85258 16.5941 7.6506C18.1583 9.40269 16.6681 12.0922 14.3989 11.7919L12.8686 11.5894L12.1577 15.9031C11.9587 17.1107 10.9148 17.9966 9.69098 17.9966H7.45563C6.22702 17.9966 5.18048 17.1039 4.98686 15.8906L4.3016 11.5964L2.83567 11.7904C0.529622 12.0955 -0.906707 9.36199 0.652732 7.63601L6.80398 0.82783Z" fill="#3A4757"/>
</svg>