<svg width="11" height="15" viewBox="0 0 11 15" fill="none" xmlns="http://www.w3.org/2000/svg">
<path fill-rule="evenodd" clip-rule="evenodd" d="M9.38845 0L9.45006 0.0046978C9.53092 0.0171298 9.60577 0.0538499 9.6646 0.11025C9.73814 0.18 9.7796 0.27525 9.7796 0.37425L9.78586 5.1105L10.5995 5.10975C10.8154 5.10975 10.9906 5.277 10.9914 5.48475L11 14.6182C11 14.8245 10.8248 14.9932 10.6088 14.9932L10.5386 14.9872C10.3562 14.9554 10.2177 14.8022 10.2177 14.6182L10.2091 5.85975L0.782306 5.86725L0.790911 14.625C0.790911 14.832 0.615674 15 0.399758 15L0.329477 14.994C0.147064 14.9623 0.00860511 14.8097 0.00860511 14.625L0 5.49225C0 5.39325 0.0406798 5.29725 0.114217 5.22675C0.186971 5.15625 0.287106 5.11725 0.39037 5.11725L1.21961 5.1165L1.21414 0.3855C1.21336 0.1785 1.38859 0.00975001 1.60451 0.00975001L9.38845 0ZM4.0913 12.6389L4.16158 12.645C4.344 12.6767 4.48245 12.8298 4.48245 13.0132L4.48402 14.6219C4.4848 14.8289 4.30956 14.9977 4.09365 14.9977C3.87773 14.9977 3.7025 14.8297 3.70171 14.6234L3.70015 13.3889L2.86152 13.3904L2.86386 14.6234C2.86386 14.8304 2.68941 14.9984 2.47271 14.9984L2.40243 14.9924C2.22002 14.9608 2.08156 14.8082 2.08156 14.6242L2.07921 13.0162C2.07921 12.9164 2.11989 12.8212 2.19343 12.7499C2.26618 12.6802 2.36554 12.6404 2.46958 12.6404L4.0913 12.6389ZM8.52729 12.6389L8.59757 12.645C8.77998 12.6767 8.91844 12.8298 8.91844 13.0132L8.92079 14.6219C8.92079 14.8289 8.74633 14.9977 8.52963 14.9977L8.45935 14.9916C8.27694 14.9599 8.13848 14.8068 8.13848 14.6234L8.13613 13.3889L7.29829 13.3904L7.29985 14.6234C7.30063 14.8304 7.1254 14.9984 6.90948 14.9984C6.69278 14.9984 6.51833 14.8312 6.51754 14.6242L6.5152 13.0162C6.5152 12.9164 6.55588 12.8212 6.62941 12.7499C6.70295 12.6802 6.8023 12.6404 6.90635 12.6404L8.52729 12.6389ZM4.09169 7.59548C4.19496 7.59548 4.29431 7.63523 4.36785 7.70498C4.44138 7.77548 4.48285 7.87073 4.48285 7.97048L4.48363 10.2715C4.68937 10.2835 4.85288 10.4425 4.85288 10.6427C4.85288 10.8497 4.67842 11.0177 4.46251 11.0177L2.10229 11.0185C1.88559 11.0185 1.71035 10.8512 1.71035 10.6435C1.71035 10.444 1.87542 10.2835 2.08117 10.2722L2.07882 7.97197C2.07882 7.76572 2.25406 7.59697 2.46997 7.59697L4.09091 7.59548H4.09169ZM8.52768 7.59548C8.63094 7.59548 8.7303 7.63523 8.80383 7.70498C8.87737 7.77548 8.91883 7.87073 8.91883 7.97048L8.9204 10.2715C9.12536 10.2835 9.28964 10.4425 9.28964 10.6427C9.28964 10.8497 9.11441 11.0177 8.89849 11.0177L6.53828 11.0185L6.468 11.0125C6.28558 10.9808 6.14712 10.8281 6.14712 10.6435C6.14712 10.444 6.31141 10.2835 6.51715 10.2722L6.51559 7.97197C6.51559 7.76572 6.69004 7.59697 6.90596 7.59697L8.5269 7.59548H8.52768ZM3.70054 8.34548L2.86191 8.34697L2.86347 10.2677H3.7021L3.70054 8.34548ZM8.13653 8.34548L7.29789 8.34697L7.29946 10.2677H8.13809L8.13653 8.34548ZM8.99808 0.75075L1.99644 0.759L2.00192 5.11575L9.00356 5.11125L8.99808 0.75075ZM6.30984 1.17652C6.41311 1.17652 6.51246 1.21627 6.586 1.28602C6.65953 1.35652 6.701 1.45178 6.701 1.55153L6.70178 3.85253C6.90674 3.86453 7.07103 4.02353 7.07103 4.22377C7.07103 4.43078 6.89657 4.59877 6.68066 4.59877L4.32044 4.59952C4.10374 4.59952 3.9285 4.43227 3.9285 4.22452C3.9285 4.02502 4.09357 3.86452 4.29932 3.85327L4.29697 1.55303C4.29697 1.34678 4.47221 1.17803 4.68812 1.17803L6.30906 1.17652H6.30984ZM5.91869 1.92653L5.08006 1.92803L5.08162 3.84877H5.91947L5.91869 1.92653Z" fill="#3A4757"/>
</svg>