<svg width="20" height="15" viewBox="0 0 20 15" fill="none" xmlns="http://www.w3.org/2000/svg">
<path d="M9.78462 0C10.31 0 10.8778 0.0839226 11.3481 0.286778L17.3976 2.8805C18.3467 3.28477 19.1641 3.96391 19.1641 4.91668C19.1641 5.86891 18.3477 6.54775 17.3994 6.9521L11.3481 9.54667C10.8778 9.74952 10.31 9.83344 9.78462 9.83344C9.25927 9.83344 8.69153 9.74951 8.22118 9.54667L2.16988 6.95217C1.22155 6.54782 0.405127 5.8689 0.405127 4.91668C0.405143 3.99369 1.17223 3.32754 2.08299 2.91927L2.17155 2.8805L8.22118 0.286778C8.69153 0.0839325 9.25927 2.90327e-06 9.78462 0ZM9.78462 1.48546C9.42696 1.48546 9.10669 1.54205 8.88974 1.6262L8.84768 1.64336L8.84554 1.64436L2.79424 4.23885L2.79257 4.23954C1.99828 4.57788 1.94367 4.88401 1.94364 4.91668C1.94364 4.94819 1.99469 5.23659 2.7202 5.56226L2.79257 5.5939L2.79424 5.59459L8.84768 8.19008C9.06408 8.28363 9.4031 8.34799 9.78462 8.34799C10.1661 8.34799 10.5052 8.28363 10.7216 8.19008L16.775 5.59459L16.7767 5.5939L16.849 5.56226C17.5746 5.23658 17.6257 4.9482 17.6257 4.91668C17.6256 4.88503 17.5744 4.59677 16.849 4.27118L16.7767 4.23954L16.775 4.23885L10.7238 1.64436L10.7216 1.64336C10.5052 1.54982 10.1661 1.48546 9.78462 1.48546Z" fill="#3A4757"/>
<path d="M0 8.96684C0 8.55665 0.344424 8.22411 0.769258 8.22411C1.19409 8.22411 1.53852 8.55665 1.53852 8.96684C1.53852 9.20786 1.63728 9.51732 1.83586 9.812C2.02202 10.0883 2.25588 10.2922 2.47275 10.3969L2.51584 10.4165L2.51775 10.4173L9.48035 13.4073C9.81746 13.5512 10.1945 13.5489 10.5146 13.4095L10.5182 13.408L17.4823 10.4173L17.4842 10.4165L17.5273 10.3969C17.7442 10.2922 17.9781 10.0882 18.1642 9.812C18.3628 9.51732 18.4616 9.20786 18.4616 8.96684C18.4616 8.55665 18.806 8.22411 19.2308 8.22411C19.6556 8.22412 20 8.55666 20 8.96684C20 9.55763 19.7757 10.1444 19.4538 10.6221C19.1322 11.0993 18.6677 11.5351 18.1074 11.7745L11.1434 14.7652C10.4409 15.0698 9.63837 15.0766 8.92678 14.794L8.85814 14.7658L8.85663 14.7652L1.89251 11.7746C1.33223 11.5351 0.867844 11.0993 0.546273 10.6221C0.224347 10.1443 0 9.55763 0 8.96684Z" fill="#3A4757"/>
</svg>