<svg width="22" height="18" viewBox="0 0 22 18" fill="none" xmlns="http://www.w3.org/2000/svg">
<path d="M14.1006 2C14.035 2.32314 14 2.6575 14 3C14 4.3258 14.5172 5.52993 15.3594 6.4248L10.2891 10.4209C10.2179 10.477 10.1143 10.5165 9.99609 10.5166C9.87768 10.5166 9.77345 10.4771 9.70215 10.4209L3.1377 5.24805C2.69859 4.90216 2.06841 4.9861 1.73047 5.43457C1.39325 5.88244 1.47473 6.52464 1.91309 6.87012L8.47656 12.043C8.91223 12.3863 9.45143 12.5664 9.99609 12.5664C10.5406 12.5663 11.0791 12.3862 11.5146 12.043L17.1123 7.62988C17.6949 7.86766 18.3319 8 19 8C19.3394 8 19.6708 7.96581 19.9912 7.90137V10.7432H20V14.5537C20 16.455 18.484 18 16.6182 18H3.38184C1.51599 18 0 16.455 0 14.5537V5.44629C0 3.54499 1.51599 2.00005 3.38184 2H14.1006Z" fill="#3A4757"/>
<path d="M22 3C22 4.65685 20.6569 6 19 6C17.3431 6 16 4.65685 16 3C16 1.34315 17.3431 0 19 0C20.6569 0 22 1.34315 22 3Z" fill="#3A4757"/>
</svg>