<svg width="20" height="16" viewBox="0 0 20 16" fill="none" xmlns="http://www.w3.org/2000/svg">
<path fill-rule="evenodd" clip-rule="evenodd" d="M19.9917 8.74271H20V12.5538C20 14.4552 18.484 16 16.6181 16H3.38192C1.51603 16 0 14.4552 0 12.5538V3.44615C0 1.54483 1.51603 0 3.38192 0H16.6181C18.4173 0 19.8917 1.44297 19.9917 3.25093V8.74271ZM8.47699 10.0434L1.91281 4.87052C1.47432 4.52497 1.39315 3.8821 1.73066 3.4342C2.06865 2.98568 2.69895 2.9019 3.13806 3.24794L9.70227 8.42088C9.77357 8.47708 9.87722 8.51685 9.99563 8.51685C10.1141 8.51685 10.2177 8.47709 10.289 8.4209L16.8532 3.24794C17.2923 2.9019 17.9226 2.98568 18.2606 3.4342C18.5981 3.8821 18.5169 4.52497 18.0785 4.87052L11.5143 10.0434C11.0786 10.3868 10.5403 10.5661 9.99563 10.5661C9.45096 10.5661 8.91266 10.3868 8.47699 10.0434Z" fill="#3A4757"/>
</svg>