<svg width="20" height="16" viewBox="0 0 20 16" fill="none" xmlns="http://www.w3.org/2000/svg">
<path d="M19.9917 8.74271V8.35225C19.9917 6.85836 19.9917 5.22016 19.9917 3.2679V3.25093C19.8917 1.44297 18.4173 0 16.6181 0H3.38192C1.51603 0 0 1.54483 0 3.44615V12.5538C0 14.4552 1.51603 16 3.38192 16H16.6181C18.484 16 20 14.4552 20 12.5538C20 11.3146 20 10.0838 20 8.74271H19.9917ZM17.7676 2.86897C17.7093 3.08966 17.551 3.32732 17.3344 3.49708L14.3357 5.84828C13.7276 6.3321 12.4365 7.23183 11.3286 8.00424C10.5373 8.54748 9.50437 8.5305 8.7297 7.9618C6.97209 6.67162 4.34819 4.74483 2.67389 3.48011C2.45731 3.31034 2.29071 3.08117 2.2324 2.86048C2.17409 2.64828 2.21574 2.46154 2.37401 2.30875C2.64057 2.0626 2.99042 1.9183 3.38192 1.9183H16.6181C17.0096 1.9183 17.3594 2.07109 17.626 2.31724C17.7843 2.46154 17.8176 2.64828 17.7676 2.86897ZM1.88255 5.27109C3.57351 6.5443 5.98917 8.3183 7.63015 9.51512C9.04623 10.5507 10.9454 10.5846 12.3865 9.58302C13.486 8.8191 14.8188 7.88541 15.4852 7.35915L18.1091 5.29655V12.5538C18.1091 13.3942 17.4427 14.0817 16.6097 14.0817H3.38192C2.55727 14.0817 1.88255 13.4027 1.88255 12.5538V5.27109Z" fill="#3A4757"/>
</svg>