<svg width="17" height="10" viewBox="0 0 17 10" fill="none" xmlns="http://www.w3.org/2000/svg">
<path fill-rule="evenodd" clip-rule="evenodd" d="M14.9762 0C16.0939 0 17 0.860991 17 1.92308V8.07692C17 9.13901 16.0939 10 14.9762 10H2.02381C0.90609 10 0 9.13901 0 8.07692V1.92308C0 0.860991 0.90609 0 2.02381 0H14.9762ZM15.0072 0.769231H1.99282C1.31898 0.769231 0.772727 1.28583 0.772727 1.92308V8.07692C0.772727 8.71418 1.31898 9.23077 1.99282 9.23077H15.0072C15.681 9.23077 16.2273 8.71418 16.2273 8.07692V1.92308C16.2273 1.28583 15.681 0.769231 15.0072 0.769231ZM5.72591 3.07692C5.98858 3.07995 6.2248 3.23672 6.32864 3.47692L6.545 4.3L7.055 4.19231C7.26325 4.15414 7.46459 4.28662 7.51091 4.49231C7.53142 4.59228 7.5112 4.69626 7.45468 4.78138C7.39816 4.8665 7.30998 4.92577 7.20955 4.94615L7.12072 4.96373C7.23354 5.119 7.29761 5.30573 7.30228 5.5V6.57692C7.30327 6.77518 7.15271 6.94171 6.95455 6.96154L6.83051 6.96128L6.83091 7.30769C6.8268 7.51839 6.6562 7.68822 6.44455 7.69231C6.23116 7.69231 6.05818 7.52011 6.05818 7.30769L6.05779 6.96128H3.6237L3.62409 7.30769C3.62409 7.52011 3.45111 7.69231 3.23773 7.69231C3.02434 7.69231 2.85136 7.52011 2.85136 7.30769L2.85097 6.96051L2.78964 6.95534C2.6094 6.92278 2.47273 6.76574 2.47273 6.57692V5.5C2.47779 5.29192 2.54951 5.10074 2.66726 4.94648L2.635 4.93846C2.52948 4.91995 2.43607 4.85947 2.3763 4.77095C2.31653 4.68242 2.29555 4.57349 2.31818 4.46923C2.34364 4.37019 2.40767 4.28532 2.49611 4.23335C2.58456 4.18139 2.69014 4.16662 2.78955 4.19231L3.19136 4.29231L3.4 3.52308C3.49177 3.24999 3.75221 3.06882 4.04136 3.07692H5.72591ZM13.5227 6.15385C13.7361 6.15385 13.9091 6.32604 13.9091 6.53846C13.9091 6.72728 13.7724 6.88431 13.5922 6.91688L13.5227 6.92308H8.88636C8.67298 6.92308 8.5 6.75088 8.5 6.53846C8.5 6.34965 8.63668 6.19261 8.81691 6.16004L8.88636 6.15385H13.5227ZM6.32091 5.33077C6.28524 5.33824 6.2484 5.33824 6.21273 5.33077L3.53867 5.33174C3.50827 5.33715 3.47696 5.33689 3.44636 5.33077C3.44636 5.33077 3.24545 5.33077 3.24545 5.49231L3.28215 6.15743L3.30718 6.16004C3.34126 6.1662 3.37379 6.17681 3.40412 6.19125H6.27815C6.32854 6.16727 6.38497 6.15385 6.44455 6.15385C6.4739 6.15385 6.50249 6.1571 6.52997 6.16328L6.52955 5.5C6.52955 5.36298 6.34617 5.3409 6.30415 5.33233L6.32091 5.33077ZM15.0682 4.61538C15.2816 4.61538 15.4545 4.78758 15.4545 5C15.4545 5.18882 15.3179 5.34585 15.1376 5.37842L15.0682 5.38462H8.88636C8.67298 5.38462 8.5 5.21242 8.5 5C8.5 4.81118 8.63668 4.65415 8.81691 4.62158L8.88636 4.61538H15.0682ZM5.62545 3.84615H4.11091L3.96138 4.56897H5.81824L5.62545 3.84615ZM15.0682 3.07692C15.2816 3.07692 15.4545 3.24912 15.4545 3.46154C15.4545 3.65035 15.3179 3.80739 15.1376 3.83996L15.0682 3.84615H8.88636C8.67298 3.84615 8.5 3.67396 8.5 3.46154C8.5 3.27272 8.63668 3.11569 8.81691 3.08312L8.88636 3.07692H15.0682Z" fill="#3A4757"/>
</svg>