<svg width="15" height="15" viewBox="0 0 15 15" fill="none" xmlns="http://www.w3.org/2000/svg">
<path fill-rule="evenodd" clip-rule="evenodd" d="M14.625 0C14.832 0 15 0.168 15 0.375V14.625C15 14.832 14.832 15 14.625 15H12.0233C11.8155 15 11.6483 14.832 11.6483 14.625V14.334H3.35175V14.625C3.35175 14.832 3.1845 15 2.97675 15H0.375C0.168 15 0 14.832 0 14.625V0.375C0 0.168 0.168 0 0.375 0H14.625ZM14.25 0.75H0.75V14.25H2.60175V3.612C2.60175 3.405 2.76975 3.237 2.97675 3.237H12.0233C12.2303 3.237 12.3983 3.405 12.3983 3.612V14.25H14.25V0.75ZM11.6483 3.987H7.875V13.584H11.6483V3.987ZM7.125 3.987H3.35175V13.584H7.125V3.987ZM13.3088 7.7154C13.5158 7.7154 13.7296 7.9284 13.7296 8.1354C13.7296 8.34315 13.5158 8.5554 13.3088 8.5554C13.1018 8.5554 12.8881 8.34315 12.8881 8.1354C12.8881 7.9284 13.1018 7.7154 13.3088 7.7154ZM13.3088 6.41393C13.5158 6.41393 13.7296 6.62693 13.7296 6.83393C13.7296 7.04168 13.5158 7.25467 13.3088 7.25467C13.1018 7.25467 12.8881 7.04168 12.8881 6.83393C12.8881 6.62693 13.1018 6.41393 13.3088 6.41393ZM5.2737 1.36065C5.4147 1.2069 5.6817 1.2069 5.82345 1.36065L6.5802 2.1774C6.7212 2.3289 6.7122 2.56665 6.55995 2.70765C6.4077 2.8479 6.1707 2.8389 6.0297 2.6874L5.5482 2.1669L5.06745 2.6874C4.99395 2.7669 4.8927 2.8074 4.7922 2.8074C4.7007 2.8074 4.6092 2.7744 4.5372 2.70765C4.3857 2.5674 4.37595 2.32965 4.51695 2.1774L5.2737 1.36065ZM9.9021 1.3605C10.0424 1.20825 10.2801 1.2 10.4324 1.34025C10.5838 1.48125 10.5936 1.71825 10.4526 1.8705L9.69585 2.68725C9.62535 2.7645 9.5256 2.80725 9.42135 2.80725C9.3171 2.80725 9.2166 2.7645 9.1461 2.68725L8.3901 1.8705C8.2491 1.71825 8.2581 1.48125 8.41035 1.34025C8.56185 1.2 8.7996 1.20825 8.93985 1.3605L9.42135 1.88025L9.9021 1.3605Z" fill="#3A4757"/>
</svg>