<svg width="20" height="20" viewBox="0 0 20 20" fill="none" xmlns="http://www.w3.org/2000/svg">
<path d="M8.325 20C7.91667 20 7.53333 19.8399 7.24167 19.5535C6.95 19.2671 6.78333 18.8795 6.76667 18.4667V16.5375C6.04167 16.0741 5.425 15.4591 4.95833 14.7262C4.375 13.8163 4.04167 12.7633 3.99167 11.6849C3.94167 10.6066 4.18333 9.52822 4.68333 8.56782C5.18333 7.60741 5.93333 6.80708 6.84167 6.2342C7.75833 5.66133 8.8 5.34962 9.875 5.33277C10.95 5.31592 12.0083 5.57709 12.9417 6.10783C13.875 6.63858 14.6583 7.41365 15.2 8.34878C15.7417 9.28391 16.025 10.3538 16.0167 11.4322C16 12.5611 15.6833 13.6563 15.1 14.5998C14.625 15.3665 13.9917 16.0067 13.2417 16.4954V18.4414C13.2333 18.8795 13.0667 19.2671 12.775 19.5535C12.4833 19.8399 12.0917 20 11.6833 20H8.325ZM8.76667 17.9781H11.2333V15.9056C11.2333 15.5181 11.45 15.1727 11.7917 15.0042C12.45 14.6672 13.0083 14.1618 13.4 13.5299C13.7917 12.8981 14.0083 12.1735 14.0167 11.4238C14.0167 10.6992 13.8333 9.99158 13.4667 9.36815C13.1083 8.74473 12.5833 8.22241 11.9583 7.86858C11.3333 7.51474 10.6083 7.34625 9.90833 7.35468C9.19167 7.37152 8.49167 7.58214 7.88333 7.96125C7.275 8.34035 6.775 8.87953 6.44167 9.5198C6.10833 10.1601 5.95 10.8762 5.98333 11.6007C6.01667 12.3252 6.24167 13.0244 6.63333 13.631C7.025 14.2376 7.56667 14.7262 8.20833 15.0463C8.55 15.2148 8.76667 15.5687 8.76667 15.9478V17.9781ZM19 8.58467H16.85C16.3 8.58467 15.85 8.12974 15.85 7.57372C15.85 7.01769 16.3 6.56276 16.85 6.56276H19C19.55 6.56276 20 7.01769 20 7.57372C20 8.12974 19.55 8.58467 19 8.58467ZM3.15 8.58467H1C0.45 8.58467 0 8.12974 0 7.57372C0 7.01769 0.45 6.56276 1 6.56276H3.15C3.7 6.56276 4.15 7.01769 4.15 7.57372C4.15 8.12974 3.7 8.58467 3.15 8.58467ZM5.78333 5.64448C5.525 5.64448 5.26667 5.54339 5.075 5.3412L3.55833 3.79107C3.16667 3.39511 3.175 2.75484 3.55833 2.35889C3.95 1.96293 4.58333 1.97136 4.975 2.35889L6.49167 3.90901C6.88333 4.30497 6.875 4.94524 6.49167 5.3412C6.3 5.53496 6.04167 5.63606 5.79167 5.63606L5.78333 5.64448ZM14.2083 5.64448C13.95 5.64448 13.7 5.54339 13.5083 5.34962C13.1167 4.95366 13.1167 4.3134 13.5083 3.91744L15.025 2.36731C15.4167 1.97136 16.05 1.97136 16.4417 2.36731C16.8333 2.76327 16.8333 3.40354 16.4417 3.79949L14.925 5.34962C14.7333 5.55181 14.475 5.65291 14.2167 5.65291L14.2083 5.64448ZM9.99167 4.19545C9.44167 4.19545 8.99167 3.74052 8.99167 3.1845V1.01095C8.99167 0.454928 9.44167 0 9.99167 0C10.5417 0 10.9917 0.454928 10.9917 1.01095V3.1845C10.9917 3.74052 10.5417 4.19545 9.99167 4.19545Z" fill="#3A4757"/>
</svg>