<svg width="15" height="20" viewBox="0 0 15 20" fill="none" xmlns="http://www.w3.org/2000/svg">
<path fill-rule="evenodd" clip-rule="evenodd" d="M8.19751 0.556176C9.05332 -0.577192 10.8275 0.151507 10.6765 1.57438L10.1338 6.69058H13.6095C14.7618 6.69058 15.4123 8.04165 14.7086 8.97353L6.80249 19.4438C5.94668 20.5772 4.17254 19.8485 4.32349 18.4256L4.86622 13.3094H1.39051C0.2382 13.3094 -0.412268 11.9583 0.291393 11.0265L8.19751 0.556176ZM8.50986 3.41943L2.55291 11.3084H5.50299C6.3287 11.3084 6.97181 12.0401 6.88287 12.8784L6.49014 16.5806L12.4471 8.69162H9.49701C8.6713 8.69162 8.02819 7.95989 8.11712 7.12156L8.50986 3.41943Z" fill="#3A4757"/>
</svg>