<svg width="20" height="20" viewBox="0 0 20 20" fill="none" xmlns="http://www.w3.org/2000/svg">
<path d="M11.6764 19.9998H8.34029C7.93501 19.9997 7.54586 19.8395 7.25606 19.5533C7.1096 19.4129 6.99217 19.2446 6.91057 19.058C6.82897 18.8715 6.7848 18.6705 6.78066 18.4666V16.5289C5.92131 15.9751 5.21518 15.21 4.72847 14.3053C4.24176 13.4006 3.99038 12.3859 3.99788 11.3563C4.00538 10.3267 4.27155 9.3159 4.77139 8.41855C5.27122 7.52119 5.98837 6.76668 6.85569 6.22573C7.77195 5.6617 8.8189 5.35084 9.89157 5.3243C10.9652 5.29755 12.0259 5.5654 12.9608 6.09934C13.8972 6.63119 14.6772 7.4045 15.221 8.34029C15.7689 9.27346 16.057 10.3387 16.0551 11.4236C16.0466 12.4334 15.7881 13.4249 15.3029 14.3078C14.8178 15.1908 14.1216 15.9369 13.2777 16.4783V18.4244C13.2691 18.846 13.0986 19.2478 12.8023 19.5449C12.654 19.6924 12.478 19.8087 12.2847 19.8868C12.0914 19.9649 11.8846 20.0033 11.6764 19.9998ZM18.9992 8.58458H16.8474C16.582 8.58458 16.3274 8.4781 16.1397 8.28851C15.952 8.09892 15.8466 7.84175 15.8466 7.57363C15.8466 7.30551 15.952 7.04839 16.1397 6.8588C16.3274 6.66921 16.582 6.56273 16.8474 6.56273H18.9992C19.2646 6.56273 19.5192 6.66921 19.7069 6.8588C19.8946 7.04839 20 7.30551 20 7.57363C20 7.84175 19.8946 8.09892 19.7069 8.28851C19.5192 8.4781 19.2646 8.58458 18.9992 8.58458ZM3.1526 8.58458H1.00084C0.735407 8.58458 0.480804 8.4781 0.293112 8.28851C0.105419 8.09892 0 7.84175 0 7.57363C0 7.30551 0.105419 7.04839 0.293112 6.8588C0.480804 6.66921 0.735407 6.56273 1.00084 6.56273H3.1526C3.41804 6.56273 3.67264 6.66921 3.86034 6.8588C4.04803 7.04839 4.15345 7.30551 4.15345 7.57363C4.15345 7.84175 4.04803 8.09892 3.86034 8.28851C3.67264 8.4781 3.41804 8.58458 3.1526 8.58458ZM5.79651 5.64443C5.65824 5.64662 5.52098 5.6201 5.39329 5.56648C5.2656 5.51286 5.1502 5.43329 5.05421 5.33273L3.53627 3.7826C3.44373 3.68801 3.37051 3.57596 3.32084 3.4528C3.27118 3.32963 3.24605 3.19778 3.24683 3.06479C3.2476 2.9318 3.27428 2.80027 3.32538 2.6777C3.37647 2.55514 3.45098 2.44396 3.54462 2.35047C3.63827 2.25699 3.74925 2.18304 3.87118 2.13287C3.99311 2.0827 4.1236 2.05727 4.25526 2.05805C4.38692 2.05883 4.51713 2.08583 4.63847 2.13744C4.75981 2.18906 4.86993 2.26426 4.96248 2.35885L6.48042 3.90899C6.60396 4.05319 6.68495 4.22949 6.71423 4.41788C6.74351 4.60627 6.71986 4.79919 6.64602 4.9747C6.57217 5.15021 6.4511 5.30128 6.2965 5.41073C6.1419 5.52019 5.95999 5.58364 5.77147 5.59389L5.79651 5.64443ZM14.2285 5.64443C13.9632 5.64327 13.7088 5.53749 13.5196 5.3496C13.4263 5.25568 13.3523 5.14406 13.3018 5.02118C13.2512 4.8983 13.2252 4.76654 13.2252 4.63348C13.2252 4.50043 13.2512 4.36871 13.3018 4.24583C13.3523 4.12295 13.4263 4.01134 13.5196 3.91742L15.0375 2.36729C15.1283 2.26554 15.2385 2.18348 15.3616 2.12608C15.4847 2.06868 15.6181 2.03714 15.7536 2.03337C15.8891 2.0296 16.024 2.0537 16.15 2.10417C16.276 2.15465 16.3906 2.23048 16.4867 2.32702C16.5829 2.42357 16.6586 2.53883 16.7093 2.66583C16.76 2.79283 16.7847 2.92891 16.7817 3.06581C16.7788 3.20272 16.7483 3.33759 16.6922 3.46226C16.6361 3.58692 16.5556 3.69877 16.4554 3.79103L14.9291 5.33273C14.8392 5.42971 14.7308 5.50731 14.6104 5.56088C14.49 5.61444 14.3601 5.64286 14.2285 5.64443ZM10.0083 4.19544C9.74291 4.19544 9.48836 4.08891 9.30067 3.89932C9.11297 3.70973 9.0075 3.45261 9.0075 3.18449V1.01095C9.0075 0.742833 9.11297 0.485711 9.30067 0.296123C9.48836 0.106535 9.74291 0 10.0083 0C10.2738 0 10.5283 0.106535 10.716 0.296123C10.9037 0.485711 11.0092 0.742833 11.0092 1.01095V3.18449C11.0092 3.31796 10.983 3.45012 10.9322 3.57332C10.8814 3.69653 10.8069 3.80832 10.7131 3.9023C10.6193 3.99629 10.5079 4.07058 10.3856 4.12088C10.2632 4.17119 10.1321 4.19655 10 4.19544H10.0083Z" fill="#3A4757"/>
</svg>