<svg width="16" height="15" viewBox="0 0 16 15" fill="none" xmlns="http://www.w3.org/2000/svg">
<path fill-rule="evenodd" clip-rule="evenodd" d="M0.940272 15C0.420974 15 0 14.5849 0 14.0729V7.424C0 6.94138 0.39682 6.55014 0.886322 6.55014H5.42583C6.19655 6.55014 6.58961 5.79026 6.75146 5.15956L7.36032 1.71732C7.43027 0.775631 8.20682 0.0361755 9.1638 0C10.343 0 10.7515 0.957445 10.9596 1.67933C11.2493 2.77573 11.1846 3.93397 10.7746 4.99239H13.6262C14.2938 4.97141 14.9348 5.25105 15.368 5.75227C15.9177 6.55951 16.1201 7.54883 15.9307 8.50302L15.3372 12.9711C15.3372 13.5105 15.1194 14.0277 14.7318 14.4084C14.3442 14.7891 13.8188 15.002 13.2717 15H0.940272ZM5.0397 7.31002H0.863201C0.799353 7.31002 0.747593 7.36105 0.747593 7.424V14.0729C0.747593 14.1173 0.765457 14.1598 0.797255 14.1911C0.829054 14.2225 0.872181 14.2401 0.91715 14.2401H5.0397V7.31002ZM9.14838 0.752278C8.57356 0.798427 8.12563 1.26296 8.10792 1.8313L7.49135 5.31154C7.24956 6.41078 6.63318 7.09453 5.81054 7.26725L5.81042 14.2401H13.264C13.9791 14.2401 14.5588 13.6685 14.5588 12.9635L15.16 8.40424C15.3109 7.66327 15.1674 6.89347 14.7592 6.25379C14.468 5.92272 14.0394 5.74083 13.5954 5.75987L11.6514 5.7595C10.3624 5.75658 10.1066 5.73032 9.94222 5.49391C9.86972 5.37773 9.8528 5.23597 9.89598 5.10637C10.3479 4.09869 10.4587 2.9743 10.212 1.89969C9.90368 0.835865 9.50291 0.752278 9.14838 0.752278Z" fill="#3A4757"/>
</svg>