<svg width="15" height="14" viewBox="0 0 15 14" fill="none" xmlns="http://www.w3.org/2000/svg">
<path fill-rule="evenodd" clip-rule="evenodd" d="M13.5 0C14.3284 0 15 0.659791 15 1.47368C15 1.914 14.8034 2.30921 14.4918 2.57925C14.8034 2.84868 15 3.2439 15 3.68421C15 4.12445 14.8035 4.51961 14.492 4.78964C14.8031 5.05856 15 5.45406 15 5.89474C15 6.33505 14.8034 6.73026 14.4918 7.0003C14.8034 7.26974 15 7.66495 15 8.10526C15 8.54551 14.8035 8.94066 14.492 9.2107C14.8031 9.47961 15 9.87511 15 10.3158C15 10.7561 14.8034 11.1513 14.4918 11.4214C14.8034 11.6908 15 12.086 15 12.5263C15 13.3032 14.3881 13.9397 13.6119 13.996L13.5 14H1.89704C0.84715 14 0 12.8407 0 11.4132C0 10.4715 0.365492 9.65339 0.91565 9.20559C0.366299 8.7535 0 7.93078 0 6.99211C0 6.05045 0.365492 5.23234 0.91565 4.78454C0.366299 4.33245 0 3.50973 0 2.57106C0 1.14357 0.83991 0 1.8898 0H13.5ZM13.5 9.57895H4.40229C3.76511 9.57895 3.22931 10.4194 3.22931 11.4132C3.22931 12.4069 3.76511 13.2632 4.40229 13.2632H13.5C13.9142 13.2632 14.25 12.9333 14.25 12.5263C14.25 12.1484 13.9605 11.837 13.5875 11.7944L13.5 11.7895H6.375C6.16789 11.7895 6 11.6245 6 11.4211C6 11.2402 6.13266 11.0898 6.30759 11.0586L6.375 11.0526H13.5C13.9142 11.0526 14.25 10.7227 14.25 10.3158C14.25 9.93791 13.9605 9.62647 13.5875 9.5839L13.5 9.57895ZM1.8898 9.57895C1.25262 9.57895 0.71682 10.4194 0.71682 11.4132C0.71682 12.4069 1.25262 13.2632 1.8898 13.2632L3.0863 13.2638C2.73284 12.7939 2.51249 12.1381 2.51249 11.4132C2.51249 10.6928 2.7282 10.0448 3.0759 9.57952L1.8898 9.57895ZM13.5 5.15789H4.40229C3.76511 5.15789 3.22931 5.99839 3.22931 6.99211C3.22931 7.98584 3.76511 8.8421 4.40229 8.8421H13.5C13.9142 8.8421 14.25 8.51221 14.25 8.10526C14.25 7.72738 13.9605 7.41594 13.5875 7.37338L13.5 7.36842H6.375C6.16789 7.36842 6 7.20347 6 7C6 6.81913 6.13266 6.66871 6.30759 6.63752L6.375 6.63158H13.5C13.9142 6.63158 14.25 6.30168 14.25 5.89474C14.25 5.51686 13.9605 5.20542 13.5875 5.16285L13.5 5.15789ZM3.0759 5.15847L1.8898 5.15789C1.25262 5.15789 0.71682 5.99839 0.71682 6.99211C0.71682 7.98584 1.25262 8.8421 1.8898 8.8421L3.0863 8.84275C2.73284 8.37285 2.51249 7.71706 2.51249 6.99211C2.51249 6.27178 2.7282 5.62375 3.0759 5.15847ZM13.5 0.736842H4.40229C3.76511 0.736842 3.22931 1.57734 3.22931 2.57106C3.22931 3.56478 3.76511 4.42105 4.40229 4.42105H13.5C13.9142 4.42105 14.25 4.09116 14.25 3.68421C14.25 3.30633 13.9605 2.99489 13.5875 2.95233L13.5 2.94737H6.375C6.16789 2.94737 6 2.78242 6 2.57895C6 2.39808 6.13266 2.24766 6.30759 2.21646L6.375 2.21053H13.5C13.9142 2.21053 14.25 1.88063 14.25 1.47368C14.25 1.09581 13.9605 0.784363 13.5875 0.7418L13.5 0.736842ZM3.07643 0.736704L1.8898 0.736842C1.25262 0.736842 0.71682 1.57734 0.71682 2.57106C0.71682 3.56478 1.25262 4.42105 1.8898 4.42105L3.0863 4.4217C2.73284 3.9518 2.51249 3.29601 2.51249 2.57106C2.51249 1.85036 2.72842 1.20204 3.07643 0.736704Z" fill="#3A4757"/>
</svg>