<svg width="20" height="20" viewBox="0 0 20 20" fill="none" xmlns="http://www.w3.org/2000/svg">
<path fill-rule="evenodd" clip-rule="evenodd" d="M16.6667 2H3.33333C2.59695 2 2 2.59695 2 3.33333V16.6667C2 17.403 2.59695 18 3.33333 18H16.6667C17.403 18 18 17.403 18 16.6667V3.33333C18 2.59695 17.403 2 16.6667 2ZM3.33333 0C1.49238 0 0 1.49238 0 3.33333V16.6667C0 18.5076 1.49238 20 3.33333 20H16.6667C18.5076 20 20 18.5076 20 16.6667V3.33333C20 1.49238 18.5076 0 16.6667 0H3.33333Z" fill="#3A4757"/>
<path d="M16.262 10.9705V15.6133H13.5703V11.2813C13.5703 10.1928 13.1808 9.45032 12.2068 9.45032C11.4631 9.45032 11.0201 9.95116 10.8257 10.435C10.7546 10.608 10.7364 10.849 10.7364 11.0913V15.6133H8.04343C8.04343 15.6133 8.07992 8.27687 8.04343 7.51618H10.7364V8.66383L10.7188 8.69025H10.7364V8.66383C11.0938 8.11328 11.7324 7.32616 13.1626 7.32616C14.9337 7.32616 16.262 8.48388 16.262 10.9705ZM5.22715 3.61328C4.30664 3.61328 3.70387 4.21731 3.70387 5.01198C3.70387 5.78904 4.28902 6.41131 5.19192 6.41131H5.20954C6.14892 6.41131 6.73219 5.78904 6.73219 5.01198C6.71583 4.21731 6.14892 3.61328 5.22715 3.61328ZM3.86369 15.6133H6.55538V7.51618H3.86369V15.6133Z" fill="#3A4757"/>
</svg>