<svg width="15" height="11" viewBox="0 0 15 11" fill="none" xmlns="http://www.w3.org/2000/svg">
<path fill-rule="evenodd" clip-rule="evenodd" d="M13.5 7.85714C14.3284 7.85714 15 8.56069 15 9.42857C15 10.257 14.3881 10.9357 13.6119 10.9957L13.5 11H5.25C4.42157 11 3.75 10.2964 3.75 9.42857C3.75 8.60014 4.36191 7.92144 5.13805 7.86145L5.25 7.85714H13.5ZM0.75017 7.98954L1.50075 8.77486L2.24346 7.99319C2.35541 7.87586 2.51859 7.83003 2.67152 7.87298C2.82446 7.91593 2.94391 8.04113 2.98489 8.20141C3.02587 8.3617 2.98214 8.53272 2.87019 8.65006L2.124 9.42779L2.87355 10.2126C3.04215 10.3927 3.04215 10.681 2.87355 10.8611C2.80028 10.9393 2.70332 10.9884 2.59928 11C2.48259 10.9983 2.37129 10.9483 2.28962 10.8611L1.5135 10.0658L0.751655 10.8612C0.670733 10.9492 0.559325 10.9993 0.442702 11C0.325649 11.0015 0.213441 10.9511 0.133749 10.8612C0.0484097 10.7773 0 10.6601 0 10.5374C0 10.4147 0.0484097 10.2975 0.133749 10.2136L0.88575 9.4215L0.130852 8.64721C0.0471059 8.56024 0 8.44186 0 8.31837C0 8.19488 0.0471059 8.0765 0.130852 7.98954C0.302865 7.81301 0.578158 7.81301 0.75017 7.98954ZM13.5 8.64286H5.25C4.83579 8.64286 4.5 8.99463 4.5 9.42857C4.5 9.83151 4.78953 10.1636 5.16253 10.209L5.25 10.2143H13.5C13.9142 10.2143 14.25 9.86251 14.25 9.42857C14.25 8.99463 13.9142 8.64286 13.5 8.64286ZM13.5 3.92857C14.3284 3.92857 15 4.63212 15 5.5C15 6.32843 14.3881 7.00713 13.6119 7.06712L13.5 7.07143H5.25C4.42157 7.07143 3.75 6.36788 3.75 5.5C3.75 4.67157 4.36191 3.99287 5.13805 3.93288L5.25 3.92857H13.5ZM0.75017 4.06097L1.50075 4.84629L2.24346 4.06462C2.35541 3.94729 2.51859 3.90146 2.67152 3.94441C2.82446 3.98736 2.94391 4.11256 2.98489 4.27284C3.02587 4.43313 2.98214 4.60415 2.87019 4.72149L2.124 5.49921L2.87355 6.28408C3.04215 6.46417 3.04215 6.75239 2.87355 6.93248C2.80028 7.01069 2.70332 7.05981 2.59928 7.07143C2.48259 7.06969 2.37129 7.01975 2.28962 6.93248L1.5135 6.13722L0.751655 6.93262C0.670733 7.02064 0.559325 7.07068 0.442702 7.0714C0.325649 7.07289 0.213441 7.02249 0.133749 6.93262C0.0484097 6.84868 0 6.73148 0 6.60882C0 6.48615 0.0484097 6.36895 0.133749 6.28501L0.88575 5.49293L0.130852 4.71864C0.0471059 4.63167 0 4.51329 0 4.3898C0 4.26631 0.0471059 4.14793 0.130852 4.06097C0.302865 3.88444 0.578158 3.88444 0.75017 4.06097ZM13.5 4.71429H5.25C4.83579 4.71429 4.5 5.06606 4.5 5.5C4.5 5.90294 4.78953 6.23504 5.16253 6.28043L5.25 6.28571H13.5C13.9142 6.28571 14.25 5.93394 14.25 5.5C14.25 5.06606 13.9142 4.71429 13.5 4.71429ZM13.5 2.65668e-07C14.3284 2.65668e-07 15 0.703553 15 1.57143C15 2.39986 14.3881 3.07856 13.6119 3.13855L13.5 3.14286H5.25C4.42157 3.14286 3.75 2.4393 3.75 1.57143C3.75 0.743002 4.36191 0.0642989 5.13805 0.00431033L5.25 2.65668e-07H13.5ZM0.75017 0.132395L1.50075 0.917715L2.24346 0.136052C2.35541 0.0187145 2.51859 -0.0271115 2.67152 0.015837C2.82446 0.0587856 2.94391 0.183984 2.98489 0.34427C3.02587 0.504556 2.98214 0.675579 2.87019 0.792916L2.124 1.57064L2.87355 2.35551C3.04215 2.5356 3.04215 2.82382 2.87355 3.00391C2.80028 3.08212 2.70332 3.13124 2.59928 3.14286C2.48259 3.14112 2.37129 3.09118 2.28962 3.00391L1.5135 2.20864L0.751655 3.00405C0.670733 3.09207 0.559325 3.14211 0.442702 3.14283C0.325649 3.14432 0.213441 3.09392 0.133749 3.00405C0.0484097 2.92011 0 2.80291 0 2.68024C0 2.55758 0.0484097 2.44038 0.133749 2.35644L0.88575 1.56436L0.130852 0.790065C0.0471059 0.703101 0 0.584722 0 0.461229C0 0.337737 0.0471059 0.219358 0.130852 0.132395C0.302865 -0.044131 0.578158 -0.044131 0.75017 0.132395ZM13.5 0.785715H5.25C4.83579 0.785715 4.5 1.13749 4.5 1.57143C4.5 1.97437 4.78953 2.30647 5.16253 2.35186L5.25 2.35714H13.5C13.9142 2.35714 14.25 2.00537 14.25 1.57143C14.25 1.13749 13.9142 0.785715 13.5 0.785715Z" fill="#3A4757"/>
</svg>