<svg width="20" height="17" viewBox="0 0 20 17" fill="none" xmlns="http://www.w3.org/2000/svg">
<path d="M7.80073 3.00465H18.922C19.5198 3.00465 20 2.52351 20 1.92455C20 1.32558 19.5198 0.844445 18.922 0.844445H7.80073C7.20294 0.844445 6.72274 1.32558 6.72274 1.92455C6.72274 2.52351 7.20294 3.00465 7.80073 3.00465Z" fill="#3A4757"/>
<path d="M1.92078 13.1509C0.862393 13.1509 0 14.015 0 15.0755C0 16.1359 0.862393 17 1.92078 17C2.97918 17 3.84157 16.1359 3.84157 15.0755C3.84157 14.015 2.97918 13.1509 1.92078 13.1509Z" fill="#3A4757"/>
<path d="M18.922 7.41499H7.80073C7.20294 7.41499 6.72274 7.89612 6.72274 8.49509C6.72274 9.09406 7.20294 9.57519 7.80073 9.57519H18.922C19.5198 9.57519 20 9.09406 20 8.49509C20 7.89612 19.5198 7.41499 18.922 7.41499Z" fill="#3A4757"/>
<path d="M18.922 13.9953H7.80073C7.20294 13.9953 6.72274 14.4765 6.72274 15.0755C6.72274 15.6744 7.20294 16.1556 7.80073 16.1556H18.922C19.5198 16.1556 20 15.6744 20 15.0755C20 14.4765 19.5198 13.9953 18.922 13.9953Z" fill="#3A4757"/>
<path d="M1.92078 0C0.862393 0 0 0.864083 0 1.92455C0 2.98501 0.862393 3.8491 1.92078 3.8491C2.97918 3.8491 3.84157 2.98501 3.84157 1.92455C3.84157 0.864083 2.97918 0 1.92078 0Z" fill="#3A4757"/>
<path d="M1.92078 6.57054C0.862393 6.57054 0 7.43463 0 8.49509C0 9.55556 0.862393 10.4196 1.92078 10.4196C2.97918 10.4196 3.84157 9.55556 3.84157 8.49509C3.84157 7.43463 2.97918 6.57054 1.92078 6.57054Z" fill="#3A4757"/>
</svg>