<svg width="14" height="17" viewBox="0 0 14 17" fill="none" xmlns="http://www.w3.org/2000/svg">
<path d="M6.99999 8.0999C7.69999 8.0999 8.29999 7.7999 8.79999 7.2999C9.29999 6.7999 9.59999 6.1999 9.59999 5.4999C9.59999 4.0999 8.39999 2.8999 6.99999 2.8999C5.59999 2.8999 4.39999 4.0999 4.39999 5.4999C4.39999 6.8999 5.59999 8.0999 6.99999 8.0999ZM6.99999 3.6999C7.99999 3.6999 8.79999 4.4999 8.79999 5.4999C8.79999 6.4999 7.99999 7.2999 6.99999 7.2999C5.99999 7.2999 5.19999 6.4999 5.19999 5.4999C5.19999 4.4999 5.99999 3.6999 6.99999 3.6999Z" fill="#3A4757"/>
<path d="M12.1 12.2999C11.5 11.8999 10.7 11.6999 9.69999 11.4999C10.3 10.4999 10.9 9.5999 11.2 8.6999C11.7 7.5999 12 6.5999 12 5.7999C12 3.0999 9.79999 0.899902 6.99999 0.899902C4.19999 0.899902 1.99999 3.0999 1.99999 5.7999C1.99999 6.5999 2.19999 7.5999 2.69999 8.6999C3.09999 9.5999 3.59999 10.4999 4.19999 11.4999C3.19999 11.6999 2.39999 11.9999 1.79999 12.2999C1.19999 12.6999 0.799988 13.1999 0.799988 13.6999C0.799988 14.0999 0.999988 14.4999 1.39999 14.7999C1.69999 15.0999 2.19999 15.2999 2.79999 15.4999C3.99999 15.8999 5.49999 16.0999 6.99999 16.0999C8.49999 16.0999 9.99999 15.8999 11.1 15.4999C11.7 15.2999 12.2 14.9999 12.5 14.7999C12.9 14.4999 13.1 14.0999 13.1 13.6999C13.1 13.1999 12.8 12.6999 12.1 12.2999ZM3.39999 7.9999C2.99999 7.1999 2.79999 6.3999 2.79999 5.7999C2.79999 3.4999 4.69999 1.6999 6.99999 1.6999C9.29999 1.6999 11.2 3.4999 11.2 5.7999C11.2 6.3999 11 7.1999 10.7 7.9999C10.4 8.6999 9.99999 9.4999 9.49999 10.3999C8.49999 11.9999 7.39999 13.2999 6.99999 13.8999C6.59999 13.2999 5.49999 11.9999 4.59999 10.4999C4.09999 9.5999 3.69999 8.7999 3.39999 7.9999ZM11.9 14.1999C11.6 14.3999 11.3 14.5999 10.8 14.6999C9.79999 15.0999 8.39999 15.2999 6.89999 15.2999C5.39999 15.2999 4.09999 15.0999 2.99999 14.6999C2.49999 14.4999 2.19999 14.3999 1.89999 14.1999C1.69999 13.9999 1.49999 13.7999 1.49999 13.6999C1.49999 13.5999 1.59999 13.4999 1.69999 13.2999C1.99999 13.1999 2.19999 12.9999 2.49999 12.8999C3.09999 12.5999 3.89999 12.3999 4.79999 12.1999C5.79999 13.6999 6.69999 14.6999 6.69999 14.6999C6.79999 14.7999 6.89999 14.7999 6.99999 14.7999C7.09999 14.7999 7.19999 14.7999 7.29999 14.6999C7.29999 14.6999 8.19999 13.5999 9.19999 12.1999C10.1 12.2999 10.9 12.5999 11.5 12.8999C11.8 12.9999 12 13.1999 12.1 13.2999C12.2 13.3999 12.3 13.5999 12.3 13.6999C12.3 13.7999 12.2 13.9999 11.9 14.1999Z" fill="#3A4757"/>
</svg>