<svg width="13" height="16" viewBox="0 0 13 16" fill="none" xmlns="http://www.w3.org/2000/svg">
<path d="M6.2 7.2C6.9 7.2 7.5 6.9 8 6.4C8.5 5.9 8.8 5.3 8.8 4.6C8.8 3.2 7.6 2 6.2 2C4.8 2 3.6 3.2 3.6 4.6C3.6 6 4.8 7.2 6.2 7.2ZM6.2 2.8C7.2 2.8 8 3.6 8 4.6C8 5.6 7.2 6.4 6.2 6.4C5.2 6.4 4.4 5.6 4.4 4.6C4.4 3.6 5.2 2.8 6.2 2.8Z" fill="#3A4757"/>
<path d="M11.3 11.4C10.7 11 9.9 10.8 8.9 10.6C9.5 9.6 10.1 8.7 10.4 7.8C10.9 6.7 11.2 5.7 11.2 4.9C11.2 2.2 9 0 6.2 0C3.4 0 1.2 2.2 1.2 4.9C1.2 5.7 1.4 6.7 1.9 7.8C2.3 8.7 2.8 9.6 3.4 10.6C2.4 10.8 1.6 11.1 1 11.4C0.4 11.8 0 12.3 0 12.8C0 13.2 0.2 13.6 0.6 13.9C0.9 14.2 1.4 14.4 2 14.6C3.2 15 4.7 15.2 6.2 15.2C7.7 15.2 9.2 15 10.3 14.6C10.9 14.4 11.4 14.1 11.7 13.9C12.1 13.6 12.3 13.2 12.3 12.8C12.3 12.3 12 11.8 11.3 11.4ZM2.6 7.1C2.2 6.3 2 5.5 2 4.9C2 2.6 3.9 0.8 6.2 0.8C8.5 0.8 10.4 2.6 10.4 4.9C10.4 5.5 10.2 6.3 9.9 7.1C9.6 7.8 9.2 8.6 8.7 9.5C7.7 11.1 6.6 12.4 6.2 13C5.8 12.4 4.7 11.1 3.8 9.6C3.3 8.7 2.9 7.9 2.6 7.1ZM11.1 13.3C10.8 13.5 10.5 13.7 10 13.8C9 14.2 7.6 14.4 6.1 14.4C4.6 14.4 3.3 14.2 2.2 13.8C1.7 13.6 1.4 13.5 1.1 13.3C0.9 13.1 0.7 12.9 0.7 12.8C0.7 12.7 0.8 12.6 0.9 12.4C1.2 12.3 1.4 12.1 1.7 12C2.3 11.7 3.1 11.5 4 11.3C5 12.8 5.9 13.8 5.9 13.8C6 13.9 6.1 13.9 6.2 13.9C6.3 13.9 6.4 13.9 6.5 13.8C6.5 13.8 7.4 12.7 8.4 11.3C9.3 11.4 10.1 11.7 10.7 12C11 12.1 11.2 12.3 11.3 12.4C11.4 12.5 11.5 12.7 11.5 12.8C11.5 12.9 11.4 13.1 11.1 13.3Z" fill="#3A4757"/>
</svg>