<svg width="24" height="24" viewBox="0 0 24 24" fill="none" xmlns="http://www.w3.org/2000/svg">
<path fill-rule="evenodd" clip-rule="evenodd" d="M4.94129 2C3.3037 2 2 3.46229 2 5.23516V18.7648C2 20.5377 3.3037 22 4.94129 22H19.0587C20.6963 22 22 20.5377 22 18.7648V5.23516C22 3.46229 20.6963 2 19.0587 2H4.94129ZM4 5.23516C4 4.56442 4.55666 4.00391 5.13041 4.00391H11V20.0039H5.1907C4.61696 20.0039 4 19.4403 4 18.7695V5.23516ZM13.0023 20.0005V4.00881H18.8266C19.4004 4.00881 20.0085 4.56442 20.0085 5.23516V18.783C20.0085 19.4538 19.4469 20.0005 18.8732 20.0005H13.0023Z" fill="#3A4757"/>
<path d="M5.77465 8.3371H9.20361C9.65076 8.3371 10.0085 7.98207 10.0085 7.53828C10.0085 7.0945 9.65076 6.73947 9.20361 6.73947H5.77465C5.3275 6.73947 4.96977 7.0945 4.96977 7.53828C4.96977 7.98207 5.3275 8.3371 5.77465 8.3371Z" fill="#3A4757"/>
<path d="M5.77465 10.9556H9.2036C9.65076 10.9556 10.0085 10.6006 10.0085 10.1568C10.0085 9.71298 9.65076 9.35795 9.2036 9.35795H5.77465C5.3275 9.35795 4.96977 9.71298 4.96977 10.1568C4.96977 10.6006 5.3275 10.9556 5.77465 10.9556Z" fill="#3A4757"/>
<path d="M14.7747 8.3371H18.2036C18.6508 8.3371 19.0085 7.98207 19.0085 7.53828C19.0085 7.0945 18.6508 6.73947 18.2036 6.73947H14.7747C14.3275 6.73947 13.9698 7.0945 13.9698 7.53828C13.9698 7.98207 14.3275 8.3371 14.7747 8.3371Z" fill="#3A4757"/>
<path d="M14.7747 10.9556H18.2036C18.6508 10.9556 19.0085 10.6006 19.0085 10.1568C19.0085 9.71298 18.6508 9.35795 18.2036 9.35795H14.7747C14.3275 9.35795 13.9698 9.71298 13.9698 10.1568C13.9698 10.6006 14.3275 10.9556 14.7747 10.9556Z" fill="#3A4757"/>
<path d="M17.7747 14.5849H18.2036C18.6508 14.5849 19.0085 14.2299 19.0085 13.7861C19.0085 13.3423 18.6508 12.9873 18.2036 12.9873H17.7747C17.3275 12.9873 16.9698 13.3423 16.9698 13.7861C16.9698 14.2299 17.3275 14.5849 17.7747 14.5849Z" fill="#3A4757"/>
<path d="M8.77465 14.5849H9.2036C9.65076 14.5849 10.0085 14.2299 10.0085 13.7861C10.0085 13.3423 9.65076 12.9873 9.2036 12.9873H8.77465C8.32749 12.9873 7.96977 13.3423 7.96977 13.7861C7.96977 14.2299 8.32749 14.5849 8.77465 14.5849Z" fill="#3A4757"/>
</svg>