<svg width="20" height="20" viewBox="0 0 20 20" fill="none" xmlns="http://www.w3.org/2000/svg">
<path fill-rule="evenodd" clip-rule="evenodd" d="M2.94129 0C1.3037 0 0 1.46229 0 3.23516V16.7648C0 18.5377 1.3037 20 2.94129 20H17.0587C18.6963 20 20 18.5377 20 16.7648V3.23516C20 1.46229 18.6963 0 17.0587 0H2.94129ZM2 3.23516C2 2.56442 2.55666 2.00391 3.13041 2.00391H9V18.0039H3.1907C2.61696 18.0039 2 17.4403 2 16.7695V3.23516ZM11.0023 18.0005V2.00881H16.8266C17.4004 2.00881 18.0085 2.56442 18.0085 3.23516V16.783C18.0085 17.4538 17.4469 18.0005 16.8732 18.0005H11.0023Z" fill="#3A4757"/>
<path d="M3.77465 6.3371H7.20361C7.65076 6.3371 8.00848 5.98207 8.00848 5.53828C8.00848 5.0945 7.65076 4.73947 7.20361 4.73947H3.77465C3.3275 4.73947 2.96977 5.0945 2.96977 5.53828C2.96977 5.98207 3.3275 6.3371 3.77465 6.3371Z" fill="#3A4757"/>
<path d="M3.77465 8.95558H7.2036C7.65076 8.95558 8.00848 8.60055 8.00848 8.15676C8.00848 7.71298 7.65076 7.35795 7.2036 7.35795H3.77465C3.3275 7.35795 2.96977 7.71298 2.96977 8.15676C2.96977 8.60055 3.3275 8.95558 3.77465 8.95558Z" fill="#3A4757"/>
<path d="M12.7747 6.3371H16.2036C16.6508 6.3371 17.0085 5.98207 17.0085 5.53828C17.0085 5.0945 16.6508 4.73947 16.2036 4.73947H12.7747C12.3275 4.73947 11.9698 5.0945 11.9698 5.53828C11.9698 5.98207 12.3275 6.3371 12.7747 6.3371Z" fill="#3A4757"/>
<path d="M12.7747 8.95558H16.2036C16.6508 8.95558 17.0085 8.60055 17.0085 8.15676C17.0085 7.71298 16.6508 7.35795 16.2036 7.35795H12.7747C12.3275 7.35795 11.9698 7.71298 11.9698 8.15676C11.9698 8.60055 12.3275 8.95558 12.7747 8.95558Z" fill="#3A4757"/>
<path d="M15.7747 12.5849H16.2036C16.6508 12.5849 17.0085 12.2299 17.0085 11.7861C17.0085 11.3423 16.6508 10.9873 16.2036 10.9873H15.7747C15.3275 10.9873 14.9698 11.3423 14.9698 11.7861C14.9698 12.2299 15.3275 12.5849 15.7747 12.5849Z" fill="#3A4757"/>
<path d="M6.77465 12.5849H7.2036C7.65076 12.5849 8.00848 12.2299 8.00848 11.7861C8.00848 11.3423 7.65076 10.9873 7.2036 10.9873H6.77465C6.32749 10.9873 5.96977 11.3423 5.96977 11.7861C5.96977 12.2299 6.32749 12.5849 6.77465 12.5849Z" fill="#3A4757"/>
</svg>