<svg width="16" height="20" viewBox="0 0 16 20" fill="none" xmlns="http://www.w3.org/2000/svg">
<path d="M13.8958 6.95833V5.85C13.8958 4.30833 13.2646 2.80833 12.1704 1.71667C11.051 0.608333 9.5697 0 7.99579 0C6.42188 0 4.93214 0.608333 3.82115 1.71667C2.70174 2.81667 2.09574 4.29167 2.09574 5.85V6.95833C0.917412 7.10833 0 8.1 0 9.30833V17.6167C0 18.9333 1.07733 20 2.40715 20H13.5928C14.9227 20 16 18.9333 16 17.6167V9.30833C16 8.1 15.0826 7.10833 13.9043 6.95833H13.8958ZM7.90321 15.775C6.79221 15.775 5.88322 14.875 5.88322 13.775C5.88322 12.675 6.79221 11.775 7.90321 11.775C9.0142 11.775 9.9232 12.675 9.9232 13.775C9.9232 14.875 9.0142 15.775 7.90321 15.775ZM11.8759 6.925H4.10731V5.85C4.10731 4.825 4.51131 3.85833 5.24356 3.13333C5.9758 2.40833 6.95213 2.00833 7.98737 2.00833C9.02262 2.00833 9.99895 2.40833 10.7312 3.13333C11.455 3.85 11.8674 4.84167 11.8674 5.85V6.925H11.8759Z" fill="#3A4757"/>
</svg>