<svg width="16" height="20" viewBox="0 0 16 20" fill="none" xmlns="http://www.w3.org/2000/svg">
<path d="M13.5928 20H2.40715C1.07733 20 0 18.9333 0 17.6167V9.30833C0 8.1 0.917412 7.09167 2.09574 6.94167V5.84167C2.09574 4.28333 2.71015 2.80833 3.82115 1.70833C4.94056 0.608333 6.42188 0 8.00421 0C9.58653 0 11.0594 0.608333 12.1789 1.70833C13.2983 2.81667 13.9043 4.28333 13.9043 5.84167V6.94167C15.0826 7.09167 16 8.09167 16 9.30833V17.6167C16 18.9333 14.9227 20 13.5928 20ZM2.40715 8.925C2.19674 8.925 2.01999 9.1 2.01999 9.30833V17.6167C2.01999 17.825 2.19674 18 2.40715 18H13.5928C13.8033 18 13.98 17.825 13.98 17.6167V9.30833C13.98 9.1 13.8033 8.925 13.5928 8.925H2.40715ZM4.11573 6.925H11.8843V5.85C11.8843 4.825 11.4803 3.85833 10.748 3.13333C10.0158 2.40833 9.03945 2.00833 8.00421 2.00833C6.96896 2.00833 5.99264 2.40833 5.26039 3.13333C4.52814 3.85833 4.12415 4.825 4.12415 5.85V6.925H4.11573ZM7.91163 15.6667C6.80063 15.6667 5.89164 14.7667 5.89164 13.6667C5.89164 12.5667 6.80063 11.6667 7.91163 11.6667C9.02262 11.6667 9.93161 12.5667 9.93161 13.6667C9.93161 14.7667 9.02262 15.6667 7.91163 15.6667Z" fill="#3A4757"/>
</svg>