<svg width="15" height="13" viewBox="0 0 15 13" fill="none" xmlns="http://www.w3.org/2000/svg">
<path fill-rule="evenodd" clip-rule="evenodd" d="M14.2725 0C14.4795 0 14.6475 0.171274 14.6475 0.382308C14.6475 0.593342 14.4795 0.764616 14.2725 0.764616H14.229V12.2262H14.625C14.832 12.2262 15 12.3975 15 12.6085C15 12.8203 14.832 12.9908 14.625 12.9908H4.99725C4.98225 12.9931 4.96875 13 4.95375 13H2.85075C2.835 13 2.82225 12.9931 2.80725 12.9908H0.375C0.168 12.9908 0 12.8203 0 12.6085C0 12.3975 0.168 12.2262 0.375 12.2262H0.77175V0.764616H0.74775C0.54075 0.764616 0.37275 0.593342 0.37275 0.382308C0.37275 0.171274 0.54075 0 0.74775 0H14.2725ZM4.57875 9.15628H3.22575V12.227H4.57875V9.15628ZM13.479 0.764616H1.52175V12.2262H2.47575V8.77397C2.47575 8.56217 2.643 8.39166 2.85075 8.39166H4.95375C5.16075 8.39166 5.32875 8.56217 5.32875 8.77397V12.2262H13.479V0.764616ZM12.5685 8.39166C12.7755 8.39166 12.9435 8.56217 12.9435 8.77397V11.0288C12.9435 11.2399 12.7755 11.4111 12.5685 11.4111H7.5285C7.32075 11.4111 7.1535 11.2399 7.1535 11.0288V8.77397C7.1535 8.56217 7.32075 8.39166 7.5285 8.39166H12.5685ZM12.1935 9.15628H10.4415V10.6465H12.1935V9.15628ZM9.6915 9.15628H7.9035V10.6465H9.6915V9.15628ZM12.5685 1.47877C12.7755 1.47877 12.9435 1.64928 12.9435 1.86108V7.3686C12.9435 7.57964 12.7755 7.75091 12.5685 7.75091H2.41575C2.208 7.75091 2.04075 7.57964 2.04075 7.3686V1.86108C2.04075 1.64928 2.208 1.47877 2.41575 1.47877H12.5685ZM12.1935 4.99676H10.4415V6.98629H12.1935V4.99676ZM7.1535 4.99676H5.32875V6.98629H7.1535V4.99676ZM9.6915 4.99676H7.9035V6.98629H9.6915V4.99676ZM4.57875 4.99676H2.79075V6.98629H4.57875V4.99676ZM9.6915 2.24338H7.9035V4.23291H9.6915V2.24338ZM12.1935 2.24262H10.4415V4.23215H12.1935V2.24262ZM4.57875 2.24262H2.79075V4.23215H4.57875V2.24262ZM7.1535 2.24262H5.32875V4.23215H7.1535V2.24262Z" fill="#3A4757"/>
</svg>