<svg width="14" height="14" viewBox="0 0 14 14" fill="none" xmlns="http://www.w3.org/2000/svg">
<path fill-rule="evenodd" clip-rule="evenodd" d="M13.6097 0.0100002C13.8199 0.0100002 14 0.18 14 0.4V11.29C14 11.5 13.8299 11.68 13.6097 11.68H6.21444V13.62C6.21444 13.81 6.07434 13.97 5.89421 14H5.82416H1.93138C1.74124 14 1.58113 13.86 1.55111 13.68V13.61V11.67H0.380271C0.190135 11.67 0.0300214 11.53 0 11.35V11.28V0.39C0 0.18 0.170121 0 0.390279 0H13.6197L13.6097 0.0100002ZM5.43388 10.9H2.32166V13.23H5.43388V10.9ZM6.60472 0.79H0.77055V10.9H1.55111V10.51C1.55111 10.32 1.69121 10.16 1.87134 10.13H1.94139H3.5025V9.14C3.20229 9.39 2.77198 9.48 2.3817 9.35L2.28163 9.31C1.63116 9.02 0.950679 8.16 1.22087 7.56C1.39099 7.18 1.88134 7.01 2.39171 7.01C2.36169 6.89 2.34167 6.76 2.34167 6.63C2.34167 5.65 3.04217 4.3 3.90279 4.3C4.7634 4.3 5.4639 5.65 5.4639 6.63C5.4639 7.35 4.96355 7.96 4.29307 8.14V9.19L4.79342 8.69C4.94353 8.54 5.19371 8.54 5.34382 8.69C5.48392 8.83 5.49392 9.03 5.39385 9.19L5.34382 9.24L4.56326 10.02C4.50322 10.08 4.43317 10.11 4.36312 10.13H4.29307H5.85418C6.04432 10.13 6.20443 10.27 6.23445 10.45V10.52V10.91H6.62473V0.79H6.60472ZM13.2194 0.79H7.38528V5.46H8.16583C8.37598 5.46 8.55611 5.63 8.55611 5.85C8.55611 6.04 8.41601 6.2 8.23588 6.23H8.16583H7.38528V10.9H13.2194V0.79ZM1.91137 7.87C1.87134 7.96 2.27162 8.46 2.58184 8.59C2.78199 8.68 3.01215 8.59 3.09221 8.39C3.18227 8.19 3.09221 7.96 2.89207 7.88C2.58184 7.74 1.94139 7.78 1.90136 7.87H1.91137ZM3.88277 5.07C3.60257 5.07 3.10222 6.02 3.10222 6.63C3.10222 7.06 3.45247 7.41 3.88277 7.41C4.31308 7.41 4.66333 7.06 4.66333 6.63C4.66333 6.02 4.17298 5.07 3.88277 5.07Z" fill="#3A4757"/>
</svg>