<svg width="15" height="13" viewBox="0 0 15 13" fill="none" xmlns="http://www.w3.org/2000/svg">
<path fill-rule="evenodd" clip-rule="evenodd" d="M11.4049 11.907C10.3443 12.4029 9.25234 12.306 8.53009 12.1412C8.53309 12.1404 8.53609 12.1389 8.53834 12.1382C8.62009 12.1061 8.71609 12.0657 8.82334 12.0176C8.83759 12.0115 8.85034 12.0054 8.86459 11.9993C8.97934 11.9474 9.10384 11.8872 9.23884 11.8162C9.24334 11.8139 9.24709 11.8116 9.25084 11.8101C10.1081 11.3585 11.3066 10.511 12.0176 9.08821C12.0251 9.07296 12.0356 9.06075 12.0431 9.04473C12.8674 8.98675 13.6346 9.08593 14.0989 9.1706C13.6916 9.87168 12.7429 11.283 11.4049 11.907ZM3.59431 11.907C2.25706 11.283 1.30905 9.87168 0.901051 9.1706C1.3638 9.08593 2.12956 8.98446 2.95531 9.04473C2.96656 9.06838 2.98156 9.08745 2.99356 9.11034C3.10081 9.32318 3.21706 9.52686 3.34381 9.71453C3.35056 9.72521 3.35806 9.73436 3.36556 9.74504C3.49306 9.93042 3.62881 10.1021 3.76982 10.2646C3.78782 10.2852 3.80432 10.3065 3.82232 10.3263C3.96332 10.4843 4.10882 10.6292 4.25732 10.7642C4.28282 10.7886 4.30907 10.8115 4.33457 10.8352C4.48232 10.9656 4.63007 11.0869 4.77707 11.1968C4.79882 11.2136 4.82057 11.2281 4.84232 11.2441C5.15357 11.4706 5.45507 11.6537 5.72583 11.7972C5.74008 11.8048 5.75433 11.8124 5.76858 11.82C5.89983 11.8887 6.01983 11.9467 6.13083 11.997C6.14733 12.0047 6.16158 12.0115 6.17733 12.0184C6.28458 12.0657 6.38058 12.1061 6.46158 12.1382C6.46383 12.1389 6.46758 12.1404 6.46908 12.1412C5.74758 12.306 4.65482 12.4021 3.59431 11.907ZM3.19531 3.83359C3.57706 4.05559 4.18232 4.4416 4.79207 4.9695C4.71782 5.26854 4.66157 5.57445 4.61882 5.88494C4.60982 5.94444 4.60307 6.00318 4.59557 6.06192C4.56182 6.35181 4.53782 6.64323 4.53782 6.93846C4.53782 7.14748 4.54757 7.35269 4.56557 7.55333C4.57682 7.68607 4.59707 7.81423 4.61582 7.94315C4.62407 8.00494 4.63007 8.06826 4.64057 8.12853C4.67057 8.30551 4.70732 8.47716 4.74857 8.64651C4.75007 8.65262 4.75157 8.65948 4.75307 8.66559C4.96982 9.5467 5.32532 10.3157 5.70483 10.9496C5.63282 10.9054 5.55857 10.855 5.48357 10.8047C5.41232 10.7574 5.34107 10.7108 5.26832 10.6574C5.15732 10.5766 5.04557 10.4843 4.93382 10.3904C4.87007 10.3363 4.80707 10.2813 4.74407 10.2234C4.63007 10.1181 4.51757 10.0059 4.40732 9.88617C4.34657 9.81904 4.28807 9.74581 4.22882 9.6741C4.12607 9.54975 4.02482 9.42311 3.93032 9.28351C3.84257 9.1523 3.76532 9.00735 3.68806 8.86317C3.63481 8.76552 3.57556 8.67627 3.52756 8.57175C2.77081 6.87056 3.02806 4.74903 3.19531 3.83359ZM7.49958 0.956825C7.98559 1.6373 8.98834 3.19126 9.47284 4.99773C9.54935 5.28456 9.60635 5.56606 9.6506 5.84375C9.65735 5.88723 9.6701 5.92919 9.6761 5.97191C9.7241 6.30375 9.7481 6.62645 9.7481 6.93846C9.7481 7.23903 9.72185 7.52892 9.6821 7.81118C9.6686 7.90577 9.6476 7.99579 9.63035 8.0881C9.59585 8.27347 9.55834 8.45656 9.51034 8.63202C9.48335 8.72967 9.45334 8.82426 9.42334 8.91886C9.37009 9.08669 9.31234 9.24994 9.24934 9.40786C9.21784 9.48719 9.18634 9.56806 9.15259 9.64434C9.07159 9.82972 8.98534 10.0082 8.89609 10.1776C8.87734 10.2127 8.86009 10.2508 8.84134 10.2852C8.35984 11.1647 7.80634 11.8078 7.49958 12.1298C7.19283 11.8078 6.63858 11.1632 6.15708 10.2829C6.13983 10.2523 6.12408 10.218 6.10833 10.1867C6.01608 10.0136 5.92908 9.83125 5.84583 9.64129C5.81283 9.56729 5.78283 9.48948 5.75208 9.41167C5.68757 9.25223 5.62982 9.08593 5.57507 8.91581C5.54582 8.82274 5.51657 8.72967 5.49032 8.63431C5.44157 8.45732 5.40407 8.27195 5.36882 8.08581C5.35232 7.99426 5.33132 7.90501 5.31782 7.81194C5.27807 7.52968 5.25182 7.23903 5.25182 6.93846C5.25182 6.62645 5.27657 6.30375 5.32307 5.97343C5.33132 5.91698 5.34782 5.86358 5.35682 5.80789C5.40032 5.54318 5.45357 5.27465 5.52632 5.00002C6.01083 3.19279 7.01433 1.6373 7.49958 0.956825ZM11.8054 3.83283C11.9741 4.75361 12.2366 6.89574 11.4596 8.60608C11.3374 8.87461 11.1911 9.1172 11.0344 9.34301C10.9834 9.41625 10.9279 9.48109 10.8739 9.55051C10.7629 9.69546 10.6481 9.83506 10.5281 9.9617C10.4636 10.0296 10.3976 10.0944 10.3316 10.157C10.2123 10.2699 10.0923 10.3767 9.97085 10.4736C9.9071 10.5247 9.8441 10.5773 9.78035 10.6239C9.6446 10.7246 9.5111 10.8153 9.37984 10.8977C9.35059 10.916 9.32134 10.9374 9.29209 10.9542C9.67235 10.3187 10.0301 9.54822 10.2476 8.6633C10.2483 8.66101 10.2483 8.65872 10.2491 8.65643C10.2911 8.48402 10.3286 8.30857 10.3593 8.12777C10.3698 8.06979 10.3751 8.00876 10.3833 7.95002C10.4028 7.81881 10.4223 7.68835 10.4344 7.55333C10.4523 7.35269 10.4628 7.14748 10.4628 6.93846C10.4628 6.64323 10.4381 6.35105 10.4043 6.06116C10.3976 6.00395 10.3901 5.94597 10.3818 5.88723C10.3383 5.57674 10.2821 5.26931 10.2078 4.9695C10.8184 4.4416 11.4229 4.05559 11.8054 3.83283ZM14.9674 8.76552C14.9231 8.66711 14.8384 8.59388 14.7356 8.56641C14.6854 8.55268 13.6294 8.26737 12.3386 8.30246C13.1021 5.95894 12.4309 3.31256 12.3994 3.19126C12.3724 3.08675 12.3004 3.00054 12.2044 2.95553C12.1076 2.909 11.9974 2.91052 11.9006 2.95706C11.8579 2.97766 10.9699 3.41249 9.9866 4.2135C9.23659 1.94397 7.85434 0.222948 7.77484 0.125301C7.63908 -0.0417669 7.36083 -0.0417669 7.22508 0.125301C7.14558 0.222948 5.76333 1.94397 5.01332 4.2135C4.03007 3.41249 3.14131 2.97766 3.09931 2.95706C3.00256 2.90976 2.89231 2.909 2.79556 2.95553C2.69956 3.00054 2.62756 3.08675 2.60056 3.19126C2.56906 3.31256 1.89781 5.95894 2.66056 8.30322C1.3698 8.26813 0.314547 8.55268 0.264297 8.56641C0.161547 8.59388 0.0767962 8.66711 0.0325459 8.76552C-0.0117043 8.86393 -0.0109543 8.97684 0.035546 9.07372C0.0835462 9.17747 1.25055 11.6125 3.29656 12.5676C3.99032 12.8911 4.69082 13.0002 5.31782 13.0002C6.04908 13.0002 6.66783 12.8537 7.07508 12.7271C7.17858 12.8301 7.24908 12.8957 7.26558 12.9094C7.33233 12.9697 7.41633 12.9994 7.49958 12.9994C7.58358 12.9994 7.66759 12.9697 7.73434 12.9094C7.75009 12.8957 7.82134 12.8301 7.92484 12.7271C8.33209 12.8537 8.95084 13.0002 9.6821 13.0002C10.3091 13.0002 11.0089 12.8911 11.7026 12.5676C13.7486 11.6125 14.9164 9.17747 14.9651 9.07372C15.0109 8.97684 15.0116 8.86393 14.9674 8.76552Z" fill="#3A4757"/>
</svg>