<svg width="20" height="20" viewBox="0 0 20 20" fill="none" xmlns="http://www.w3.org/2000/svg">
<path fill-rule="evenodd" clip-rule="evenodd" d="M0.264941 5.89677C0.45434 5.69137 0.721007 5.57453 1.0004 5.57453H18.9996C19.279 5.57453 19.5457 5.69137 19.7351 5.89677C19.9245 6.10218 20.0193 6.37743 19.9967 6.65591L19.1629 16.9225C19.02 18.6523 17.5759 20 15.8256 20H4.17437C2.42413 20 0.980033 18.6523 0.83707 16.9225L0.003286 6.65591C-0.0193304 6.37743 0.0755413 6.10218 0.264941 5.89677ZM2.08535 7.57533L2.83108 16.7577C2.88929 17.4582 3.47403 17.9992 4.17437 17.9992H15.8256C16.5262 17.9992 17.111 17.4585 17.1689 16.7577L17.9147 7.57533H2.08535Z" fill="#3A4757"/>
<path fill-rule="evenodd" clip-rule="evenodd" d="M4.00161 5.52396C4.00161 2.38378 6.78917 0 10.004 0C13.2189 0 16.0064 2.38378 16.0064 5.52396V10.004C16.0064 10.5565 15.5585 11.0044 15.006 11.0044C14.4535 11.0044 14.0056 10.5565 14.0056 10.004V5.52396C14.0056 3.67331 12.3079 2.0008 10.004 2.0008C7.70017 2.0008 6.00241 3.67331 6.00241 5.52396V10.004C6.00241 10.5565 5.55452 11.0044 5.00201 11.0044C4.4495 11.0044 4.00161 10.5565 4.00161 10.004V5.52396Z" fill="#3A4757"/>
</svg>