<svg width="20" height="20" viewBox="0 0 20 20" fill="none" xmlns="http://www.w3.org/2000/svg">
<path fill-rule="evenodd" clip-rule="evenodd" d="M8.50063 1.95122C4.8835 1.95122 1.95124 4.88345 1.95124 8.50055C1.95124 12.1176 4.8835 15.0499 8.50063 15.0499C12.1178 15.0499 15.05 12.1176 15.05 8.50055C15.05 4.88345 12.1178 1.95122 8.50063 1.95122ZM0 8.50055C0 3.80583 3.80586 0 8.50063 0C13.1954 0 17.0013 3.80583 17.0013 8.50055C17.0013 13.1953 13.1954 17.0011 8.50063 17.0011C3.80586 17.0011 0 13.1953 0 8.50055Z" fill="#3A4757"/>
<path fill-rule="evenodd" clip-rule="evenodd" d="M13.1281 13.1282C13.5091 12.7472 14.1268 12.7472 14.5078 13.1282L19.7142 18.3345C20.0953 18.7155 20.0953 19.3333 19.7142 19.7143C19.3332 20.0953 18.7155 20.0953 18.3345 19.7143L13.1281 14.5079C12.7471 14.1269 12.7471 13.5092 13.1281 13.1282Z" fill="#3A4757"/>
<path d="M13.75 8.5C13.75 11.3995 11.3995 13.75 8.5 13.75C5.6005 13.75 3.25 11.3995 3.25 8.5C3.25 5.6005 5.6005 3.25 8.5 3.25C11.3995 3.25 13.75 5.6005 13.75 8.5Z" fill="#3A4757"/>
</svg>