<svg width="20" height="20" viewBox="0 0 20 20" fill="none" xmlns="http://www.w3.org/2000/svg">
<path fill-rule="evenodd" clip-rule="evenodd" d="M5 2C3.34 2 2 3.34 2 5V7C2 7.55 1.55 8 1 8C0.45 8 0 7.55 0 7V5C0 2.24 2.24 0 5 0H7C7.55 0 8 0.45 8 1C8 1.55 7.55 2 7 2H5Z" fill="#3A4757"/>
<path fill-rule="evenodd" clip-rule="evenodd" d="M5 18C3.34 18 2 16.66 2 15V13C2 12.45 1.55 12 1 12C0.45 12 0 12.45 0 13V15C0 17.76 2.24 20 5 20H7C7.55 20 8 19.55 8 19C8 18.45 7.55 18 7 18H5Z" fill="#3A4757"/>
<path fill-rule="evenodd" clip-rule="evenodd" d="M15 2C16.66 2 18 3.34 18 5V7C18 7.55 18.45 8 19 8C19.55 8 20 7.55 20 7V5C20 2.24 17.76 0 15 0H13C12.45 0 12 0.45 12 1C12 1.55 12.45 2 13 2H15Z" fill="#3A4757"/>
<path fill-rule="evenodd" clip-rule="evenodd" d="M15 18C16.66 18 18 16.66 18 15V13C18 12.45 18.45 12 19 12C19.55 12 20 12.45 20 13V15C20 17.76 17.76 20 15 20H13C12.45 20 12 19.55 12 19C12 18.45 12.45 18 13 18H15Z" fill="#3A4757"/>
<path d="M15.28 13.86L15.21 13.78L13.68 12.25C14.2 11.46 14.5 10.52 14.5 9.5C14.5 6.74 12.26 4.5 9.5 4.5C6.74 4.5 4.5 6.74 4.5 9.5C4.5 12.26 6.74 14.5 9.5 14.5C10.52 14.5 11.46 14.2 12.25 13.68L13.78 15.21L13.86 15.28C14.26 15.6 14.84 15.58 15.21 15.21C15.58 14.84 15.6 14.26 15.28 13.86ZM6.51 9.51C6.51 7.85 7.85 6.51 9.51 6.51C11.17 6.51 12.51 7.85 12.51 9.51C12.51 11.17 11.17 12.51 9.51 12.51C7.85 12.51 6.51 11.17 6.51 9.51Z" fill="#3A4757"/>
</svg>