<svg width="22" height="16" viewBox="0 0 22 16" fill="none" xmlns="http://www.w3.org/2000/svg">
<path d="M0.989101 13.8627C0.419618 13.8627 0 14.3021 0 14.9313C0 15.5605 0.409628 16 0.989101 16H6.00454V13.8627H0.989101Z" fill="#3A4757"/>
<path fill-rule="evenodd" clip-rule="evenodd" d="M17.0045 0H6.59401C4.0663 0 2.01817 2.18727 2.01817 4.88389V13.3134C2.01817 14.7915 3.13715 15.98 4.51589 15.98H19.5023C20.881 15.98 22 14.7915 22 13.3134V5.32335C22 2.38702 19.762 0 17.0045 0ZM4.51589 13.8527C4.23615 13.8527 4.01635 13.613 4.01635 13.3233V5.33333C4.01635 3.64544 5.24523 2.27715 6.80381 2.16729C8.12262 2.28714 9.18165 3.45568 9.18165 4.89388V13.3233C9.18165 13.613 8.96185 13.8527 8.68211 13.8527H4.51589ZM20.0018 13.3233C20.0018 13.613 19.772 13.8527 19.5023 13.8527H11.1299C11.1599 13.6829 11.1798 13.5031 11.1798 13.3233V4.89388C11.1798 3.87516 10.8901 2.92634 10.3806 2.13733H17.0045C18.663 2.13733 20.0018 3.56554 20.0018 5.33333V13.3233Z" fill="#3A4757"/>
<path fill-rule="evenodd" clip-rule="evenodd" d="M13.4178 11.975C14.0073 11.975 14.4868 11.5256 14.4868 10.9763V8.22971H15.6458C16.2352 8.22971 16.7148 7.78027 16.7148 7.23096C16.7148 6.68165 16.2352 6.23221 15.6458 6.23221H12.3588V10.9763C12.3588 11.5256 12.8383 11.975 13.4278 11.975H13.4178Z" fill="#3A4757"/>
</svg>