<svg width="20" height="16" viewBox="0 0 20 16" fill="none" xmlns="http://www.w3.org/2000/svg">
<path fill-rule="evenodd" clip-rule="evenodd" d="M15 0H5C4.93333 0 4.85833 0 4.79167 0.00888889C4.725 0.00888889 4.65 0 4.58333 0C2.05 0 0 2.18667 0 4.88889V13.3333C0 14.8089 1.11667 16 2.5 16H17.5C18.8833 16 20 14.8089 20 13.3333V5.33333C20 2.39111 17.7583 0 15 0ZM2.5 13.8667C2.225 13.8667 2 13.6267 2 13.3333V5.33333C2 3.64444 3.23333 2.27556 4.79167 2.16C6.11667 2.27556 7.16667 3.44889 7.16667 4.88889V13.3333C7.16667 13.6267 6.94167 13.8667 6.66667 13.8667H2.5ZM18 13.3333C18 13.6267 17.775 13.8667 17.5 13.8667H9.11667C9.15 13.6978 9.16667 13.52 9.16667 13.3333V4.88889C9.16667 3.86667 8.875 2.91556 8.36667 2.13333H15C16.6583 2.13333 18 3.56444 18 5.33333V13.3333Z" fill="#3A4757"/>
<path fill-rule="evenodd" clip-rule="evenodd" d="M5.83333 4.26667H3.33333C2.78333 4.26667 2.33333 4.74667 2.33333 5.33333C2.33333 5.92 2.78333 6.4 3.33333 6.4H5.83333C6.38333 6.4 6.83333 5.92 6.83333 5.33333C6.83333 4.74667 6.38333 4.26667 5.83333 4.26667Z" fill="#3A4757"/>
<path fill-rule="evenodd" clip-rule="evenodd" d="M10.6667 8C10.6667 8.58667 11.1167 9.06667 11.6667 9.06667H14.4167V10.2222C14.4167 10.8089 14.8667 11.2889 15.4167 11.2889C15.9667 11.2889 16.4167 10.8089 16.4167 10.2222V6.93333H11.6667C11.1167 6.93333 10.6667 7.41333 10.6667 8Z" fill="#3A4757"/>
</svg>