<svg width="20" height="16" viewBox="0 0 20 16" fill="none" xmlns="http://www.w3.org/2000/svg">
<path d="M5.74074 13.3333V4.88889C5.74074 3.46667 4.53704 2.31111 3.14815 2.13333C3.05556 2.13333 2.96296 2.13333 2.96296 2.13333C1.2963 2.13333 0 3.37778 0 4.88889V13.3333C0 13.6 0.277778 13.8667 0.555555 13.8667H5.18519C5.55556 13.8667 5.74074 13.6 5.74074 13.3333ZM4.25926 5.95556H1.48148C1.11111 5.95556 0.833333 5.68889 0.833333 5.33333C0.833333 4.97778 1.11111 4.71111 1.48148 4.71111H4.25926C4.62963 4.71111 4.90741 4.97778 4.90741 5.33333C4.90741 5.68889 4.62963 5.95556 4.25926 5.95556Z" fill="#3A4757"/>
<path d="M14.4444 0H3.33333C3.24074 0 3.14815 0 3.14815 0C4.25926 0.0888889 5.27778 0.444445 6.11111 1.06667C6.48148 1.33333 6.85185 1.68889 7.12963 2.13333C7.68518 2.93333 8.05556 3.91111 8.05556 4.88889V13.3333C8.05556 13.5111 8.05556 13.6889 7.96296 13.8667C7.87037 14.2222 7.68518 14.5778 7.40741 14.9333C6.94444 15.5556 6.11111 16 5.18519 16H17.2222C18.7963 16 20 14.8444 20 13.3333V5.33333C20 2.4 17.5926 0 14.4444 0ZM10.7407 9.06667C10.0926 9.06667 9.62963 8.62222 9.62963 8C9.62963 7.37778 10.0926 6.93333 10.7407 6.93333H16.0185V10.2222C16.0185 10.8444 15.5556 11.2889 14.9074 11.2889C14.2593 11.2889 13.7963 10.8444 13.7963 10.2222V9.06667H10.7407Z" fill="#3A4757"/>
</svg>