<svg width="22" height="16" viewBox="0 0 22 16" fill="none" xmlns="http://www.w3.org/2000/svg">
<path d="M17.54 0.03L7.01 0C11 0 11.18 4.75 11.18 5.27V13.7C11.18 13.75 11.17 13.8 11.17 13.86H9.19V4.88C9.19 3.44 8.13 2.27 6.81 2.15C5.25 2.26 4.02 3.63 4.02 5.32V13.86H0.99C0.42 13.86 0 14.3 0 14.93C0 15.56 0.41 16 0.99 16H19.5C21.76 16 22 13.7 22 13.7V5.71C22 1.31 18.72 0.03 17.54 0.03ZM15.65 8.23H14.49V10.98C14.49 11.53 14.01 11.98 13.43 11.98C12.84 11.98 12.37 11.53 12.37 10.98V6.23H15.66C16.25 6.23 16.73 6.68 16.73 7.23C16.73 7.78 16.25 8.23 15.66 8.23H15.65Z" fill="#3A4757"/>
</svg>