<svg width="15" height="15" viewBox="0 0 15 15" fill="none" xmlns="http://www.w3.org/2000/svg">
<path fill-rule="evenodd" clip-rule="evenodd" d="M7.37949 0.0303742C7.47259 -0.0101247 7.57922 -0.0101247 7.67307 0.0303742L10.3124 1.1531C10.4505 1.21159 10.5406 1.34809 10.5406 1.49809V1.64733H13.1747C13.3271 1.64733 13.4645 1.73958 13.5223 1.88133L14.7913 4.99525C14.8386 5.11075 14.825 5.24199 14.7552 5.34624C14.6854 5.44974 14.5683 5.51199 14.4436 5.51199H14.1673V14.25H14.6246C14.8318 14.25 15 14.418 15 14.625C15 14.832 14.8318 15 14.6246 15H0.375432C0.168193 15 0 14.832 0 14.625C0 14.418 0.168193 14.25 0.375432 14.25H0.797417V5.51199H0.521099C0.395705 5.51199 0.279321 5.44974 0.209491 5.34624C0.13966 5.24199 0.126145 5.11075 0.173449 4.99525L1.44241 1.88133C1.50023 1.73958 1.63763 1.64733 1.79006 1.64733H4.49617V1.49809C4.49617 1.34734 4.58627 1.21159 4.72518 1.1531L7.37949 0.0303742ZM4.8228 5.51199H1.54828V14.25H4.8228V5.51199ZM7.5184 1.99383L5.57366 2.79255V14.25H5.98138V10.3524C5.98138 10.1446 6.14957 9.97738 6.35681 9.97738H8.64244C8.85043 9.97738 9.01787 10.1446 9.01787 10.3524V14.25H9.39105V2.76256L7.5184 1.99383ZM8.26701 10.7274H6.73224V14.25H8.26701V10.7274ZM13.4164 5.51199H10.1419V14.25H13.4164V5.51199ZM4.07418 9.97738C4.28217 9.97738 4.44962 10.1446 4.44962 10.3524V12.6338C4.44962 12.8408 4.28217 13.0088 4.07418 13.0088H2.37048C2.16249 13.0088 1.99504 12.8408 1.99504 12.6338V10.3524C1.99504 10.1446 2.16249 9.97738 2.37048 9.97738H4.07418ZM12.5942 9.97738C12.8022 9.97738 12.9697 10.1446 12.9697 10.3524V12.6338C12.9697 12.8408 12.8022 13.0088 12.5942 13.0088H10.8905C10.6833 13.0088 10.5151 12.8408 10.5151 12.6338V10.3524C10.5151 10.1446 10.6833 9.97738 10.8905 9.97738H12.5942ZM3.69875 10.7274H2.74516V12.2588H3.69875V10.7274ZM12.2196 10.7274H11.266V12.2588H12.2196V10.7274ZM4.07418 5.99348C4.28217 5.99348 4.44962 6.16147 4.44962 6.36847V8.64991C4.44962 8.85765 4.28217 9.0249 4.07418 9.0249H2.37048C2.16249 9.0249 1.99504 8.85765 1.99504 8.64991V6.36847C1.99504 6.16147 2.16249 5.99348 2.37048 5.99348H4.07418ZM8.64244 5.99348C8.85043 5.99348 9.01787 6.16147 9.01787 6.36847V8.64991C9.01787 8.85765 8.85043 9.0249 8.64244 9.0249H6.35681C6.14957 9.0249 5.98138 8.85765 5.98138 8.64991V6.36847C5.98138 6.16147 6.14957 5.99348 6.35681 5.99348H8.64244ZM12.5942 5.99348C12.8022 5.99348 12.9697 6.16147 12.9697 6.36847V8.64991C12.9697 8.85765 12.8022 9.0249 12.5942 9.0249H10.8905C10.6833 9.0249 10.5151 8.85765 10.5151 8.64991V6.36847C10.5151 6.16147 10.6833 5.99348 10.8905 5.99348H12.5942ZM3.69875 6.74346H2.74516V8.27492H3.69875V6.74346ZM8.26701 6.74346H6.73224V8.27492H8.26701V6.74346ZM12.2196 6.74346H11.266V8.27492H12.2196V6.74346ZM7.49985 2.73443C8.20641 2.73443 8.78157 3.30892 8.78157 4.01465C8.78157 4.72038 8.20641 5.29487 7.49985 5.29487C6.79329 5.29487 6.21813 4.72038 6.21813 4.01465C6.21813 3.30892 6.79329 2.73443 7.49985 2.73443ZM4.49617 2.39732H2.0431L1.07899 4.76201H4.8228V3.04305C4.76648 3.03555 4.71092 3.0183 4.66286 2.9853C4.55849 2.9163 4.49617 2.7993 4.49617 2.67406V2.39732ZM12.9216 2.39732H10.5406V2.67406C10.5406 2.7993 10.4783 2.9163 10.3739 2.9853C10.3116 3.02805 10.2388 3.04905 10.1652 3.04905C10.1569 3.04905 10.1494 3.0453 10.1419 3.0453V4.76201H13.8857L12.9216 2.39732ZM7.49985 3.48441C7.20701 3.48441 6.96899 3.72216 6.96899 4.01465C6.96899 4.30714 7.20701 4.54489 7.49985 4.54489C7.79269 4.54489 8.03071 4.30714 8.03071 4.01465C8.03071 3.72216 7.79269 3.48441 7.49985 3.48441ZM7.52515 0.782606L5.24703 1.74633V2.11457L7.37573 1.24084C7.42153 1.22284 7.47034 1.21309 7.5184 1.21309C7.5672 1.21309 7.61526 1.22284 7.66106 1.24084L9.78976 2.11457V1.74558L7.52515 0.782606Z" fill="#3A4757"/>
</svg>