<svg width="12" height="15" viewBox="0 0 12 15" fill="none" xmlns="http://www.w3.org/2000/svg">
<path fill-rule="evenodd" clip-rule="evenodd" d="M6.004 0C7.64121 0 8.97278 1.32075 8.97278 2.9445V3.0525C8.98186 3.08775 8.99018 3.12375 8.98715 3.162C8.98564 3.18 8.97732 3.19575 8.97278 3.213V4.94325C8.97278 5.6325 8.72311 6.25875 8.32137 6.7605V7.45875L9.42369 8.655C9.87915 8.70075 11.1154 8.892 11.6979 9.6705C11.9854 10.0545 12.0702 10.5322 11.9416 11.0505L11.1441 14.7075C11.1071 14.8777 10.9542 15 10.7772 15H1.23005C1.05377 15 0.900939 14.8777 0.863111 14.7075L0.064174 11.0407C-0.0765479 10.464 0.0142399 9.96225 0.335782 9.558C0.927419 8.8125 2.14096 8.6745 2.59036 8.64825L3.68663 7.45875V6.76125C3.28489 6.25875 3.03446 5.6325 3.03446 4.94325V2.9445C3.03446 2.87325 3.05035 2.80725 3.05565 2.73825C3.0564 2.724 3.05111 2.71125 3.05338 2.697C3.05489 2.688 3.06019 2.68125 3.0617 2.67375C3.20242 1.179 4.45984 0 6.004 0ZM9.41688 9.40275L7.73276 11.757C7.67072 11.8432 7.57539 11.8995 7.46872 11.9115C7.4551 11.913 7.44148 11.9137 7.42711 11.9137C7.3348 11.9137 7.24629 11.88 7.17668 11.8185L6.37623 11.1075V14.2567H10.4753L11.2107 10.8832C11.2886 10.5682 11.2501 10.3207 11.0965 10.1152C10.7507 9.65025 9.89125 9.4605 9.41688 9.40275ZM2.58355 9.393C2.12431 9.42375 1.27998 9.57 0.924393 10.0192C0.750382 10.239 0.708014 10.5188 0.79502 10.875L1.53267 14.2567H5.62647V11.1127L4.83056 11.8185C4.76171 11.88 4.67244 11.9137 4.58089 11.9137C4.56652 11.9137 4.5529 11.913 4.53928 11.9115C4.4326 11.8995 4.33728 11.8432 4.27524 11.757L2.58355 9.393ZM9.65104 12.4631C9.85834 12.4631 10.0263 12.6296 10.0263 12.8351C10.0263 13.0414 9.85834 13.2071 9.65104 13.2071H8.58352C8.37622 13.2071 8.20826 13.0414 8.20826 12.8351C8.20826 12.6296 8.37622 12.4631 8.58352 12.4631H9.65104ZM4.05735 8.1585L3.24782 9.03675L4.64293 10.9875L5.50618 10.2202L4.05735 8.1585ZM7.95065 8.1585L6.50107 10.2202L7.36507 10.9875L8.75942 9.03675L7.95065 8.1585ZM7.53227 7.4535C7.08362 7.72275 6.56462 7.88625 6.004 7.88625C5.44262 7.88625 4.92362 7.72275 4.47573 7.45425L6.004 9.62775L7.53227 7.4535ZM6.8506 2.54925C5.51601 3.3585 4.43336 3.29325 3.78498 3.192V4.94325C3.78498 6.156 4.77987 7.143 6.004 7.143C7.22737 7.143 8.22302 6.156 8.22302 4.94325V3.44475C7.6397 3.324 7.17517 3.0315 6.8506 2.54925ZM6.004 0.74325C4.95312 0.74325 4.07475 1.47375 3.84702 2.448C4.48103 2.553 5.45927 2.62875 6.76586 1.7145C6.85741 1.65075 6.97165 1.6305 7.0806 1.65975C7.18803 1.689 7.27731 1.764 7.32346 1.86525C7.55345 2.36475 7.87651 2.583 8.19654 2.68275C8.06414 1.59375 7.13734 0.74325 6.004 0.74325Z" fill="#3A4757"/>
</svg>