<svg width="14" height="20" viewBox="0 0 14 20" fill="none" xmlns="http://www.w3.org/2000/svg">
<path d="M7.95342 5.4394H8.01142C9.46972 5.4394 10.6877 4.24823 10.7209 2.78217C10.7374 2.05748 10.4723 1.3661 9.96686 0.841316C9.46972 0.316535 8.79028 0.0166597 8.01142 0C6.55313 0 5.33512 1.19117 5.30198 2.66556C5.26884 4.16493 6.4537 5.41441 7.94514 5.44773L7.95342 5.4394ZM8.03628 1.61599C8.32628 1.61599 8.59971 1.74094 8.80686 1.95752C9.00571 2.17409 9.12171 2.44898 9.11343 2.74052C9.09686 3.33194 8.608 3.81508 7.99485 3.81508C7.38999 3.79842 6.90942 3.29863 6.92599 2.69055C6.94256 2.09913 7.43142 1.61599 8.01971 1.61599H8.04457H8.03628Z" fill="#3A4757"/>
<path d="M11.8892 8.97126L10.0911 8.37151L8.16885 6.43898C8.06942 6.33903 7.96999 6.26406 7.92028 6.23074C7.87885 6.19742 7.82914 6.1641 7.77942 6.13078C7.59714 6.02249 7.39828 5.93919 7.19942 5.88921C7.14142 5.87255 7.07513 5.85589 7.01713 5.84756C6.94256 5.83923 6.87627 5.81424 6.80999 5.8309C6.63599 5.81424 6.46199 5.8309 6.31284 5.85589C6.26313 5.85589 6.2217 5.87255 6.17198 5.88088L3.12283 6.64723C2.60911 6.78051 2.16168 7.08871 1.87168 7.53853L0.355382 9.82091C0.0405235 10.2957 -0.0671914 10.8621 0.0405235 11.4286C0.148238 11.9867 0.471383 12.4698 0.943671 12.7863C1.29167 13.0196 1.69768 13.1445 2.12025 13.1445C2.78311 13.1445 3.39626 12.8446 3.79397 12.3282C3.76911 12.6114 3.80226 12.8946 3.8934 13.1778C3.71111 13.2695 3.5454 13.4111 3.42111 13.5777L1.17567 16.5848C0.835956 17.0429 0.695098 17.601 0.76967 18.1674C0.852528 18.7339 1.14253 19.2337 1.59825 19.5752C1.97111 19.8584 2.41025 20 2.87425 20C3.5454 20 4.17512 19.6835 4.57283 19.142L6.60284 16.4265L7.79599 18.8172C8.16057 19.5419 8.88971 20 9.70172 20C10.0249 20 10.3563 19.925 10.6463 19.7751C11.16 19.5169 11.5329 19.0837 11.7152 18.5339C11.8974 17.9925 11.856 17.4094 11.5992 16.9013L10.0829 13.8526C9.98343 13.6443 9.84258 13.4611 9.68515 13.2945L8.84828 12.4531L10.5386 13.0196C10.754 13.0945 10.986 13.1279 11.2097 13.1279C12.1294 13.1279 12.9332 12.5364 13.2232 11.6618C13.596 10.5456 12.9912 9.32945 11.8809 8.96293L11.8892 8.97126ZM6.46199 12.3449L8.55 14.444C8.55 14.444 8.62457 14.5273 8.64943 14.5773L10.1657 17.626C10.29 17.8842 10.1906 18.1924 9.93372 18.3174C9.67686 18.4423 9.362 18.334 9.23771 18.0841L7.77942 15.1437L5.55055 12.878C5.43455 12.7613 5.37655 12.5948 5.4097 12.4282L6.03941 8.63807L3.96797 9.16285L2.55939 11.2786C2.41025 11.5119 2.07053 11.5785 1.84682 11.4202C1.60653 11.262 1.54853 10.9371 1.70596 10.7039L3.22225 8.42149C3.29683 8.3132 3.40454 8.23823 3.52883 8.20492L6.57799 7.43857C6.57799 7.43857 6.63599 7.43024 6.66913 7.43024C6.69399 7.43024 6.71884 7.43024 6.71056 7.43024H6.77684C6.84313 7.45523 6.89285 7.47189 6.93427 7.49688L6.98399 7.53853C6.98399 7.53853 7.02542 7.56352 7.04199 7.58017L9.188 9.73761L11.3837 10.504C11.6489 10.5956 11.798 10.8871 11.7069 11.162C11.6157 11.4286 11.3257 11.5785 11.0523 11.4869L8.782 10.7289C8.70743 10.7039 8.63285 10.6622 8.58314 10.6039L7.01713 9.02957L6.47027 12.3449H6.46199ZM5.27712 15.5019L3.28854 18.1674C3.12283 18.3923 2.7914 18.434 2.56768 18.2674C2.45996 18.1841 2.38539 18.0675 2.36882 17.9259C2.35225 17.7926 2.38539 17.651 2.46825 17.5427L4.54798 14.7605L5.28541 15.5019H5.27712Z" fill="#3A4757"/>
</svg>