<svg width="15" height="20" viewBox="0 0 15 20" fill="none" xmlns="http://www.w3.org/2000/svg">
<path d="M13.0699 8.66799L10.6515 7.833L8.23308 5.41749C8.17337 5.35785 8.1037 5.30815 8.03404 5.25845L7.99423 5.22863C7.99423 5.22863 7.93451 5.18887 7.90466 5.16899C7.76533 5.08946 7.59614 5.01988 7.40704 4.98012L7.27766 4.96024C7.2279 4.96024 7.17814 4.9503 7.11842 4.9503C7.09852 4.9503 7.08857 4.9503 7.06866 4.9503H7.04876C6.95919 4.9503 6.84971 4.96024 6.74024 4.98012L3.04792 5.89463C2.64983 5.99404 2.3214 6.2326 2.0925 6.56064L0.271222 9.28429C-0.226394 10.0298 -0.0173955 11.0338 0.719077 11.5209C0.977837 11.6899 1.28636 11.7893 1.60483 11.7893C2.15221 11.7893 2.65978 11.5209 2.95835 11.0736L4.43129 8.8668L5.0782 8.70775L4.57063 11.7396C4.48106 12.2565 4.65025 12.7734 5.01848 13.1412L7.58618 15.7256L9.26813 19.0855C9.53684 19.6223 10.1041 19.9702 10.7212 19.9702C10.97 19.9702 11.2188 19.9105 11.4377 19.8012C12.2339 19.4036 12.5623 18.4294 12.1643 17.6342L10.343 13.996C10.2634 13.837 10.1638 13.6978 10.0444 13.5785L7.90466 11.4414L8.16342 9.89066L8.68094 10.4076C8.86008 10.5865 9.06908 10.7157 9.30794 10.7952L12.0448 11.7097C12.214 11.7594 12.3832 11.7893 12.5424 11.7893C13.2391 11.7893 13.8661 11.3519 14.0851 10.6859C14.3637 9.84095 13.9059 8.92644 13.06 8.64811L13.0699 8.66799Z" fill="#3A4757"/>
<path d="M4.83934 14.5626C4.65025 14.3738 4.40144 14.2744 4.13273 14.2744C4.11282 14.2744 4.08296 14.2744 4.06306 14.2744C3.77444 14.2942 3.50573 14.4433 3.33654 14.672L1.2565 17.4254C0.997742 17.7734 0.888266 18.1909 0.94798 18.6183C1.00769 19.0457 1.2366 19.4235 1.57498 19.6819C1.85364 19.8907 2.18207 20 2.54035 20C3.05787 20 3.53559 19.7614 3.83416 19.3539L5.80472 16.7495C6.10329 16.3519 6.06348 15.8052 5.71515 15.4473L4.82939 14.5626H4.83934Z" fill="#3A4757"/>
<path d="M8.65108 4.62227C9.93493 4.62227 10.9899 3.60835 11.0098 2.36581C11.0197 1.7495 10.7908 1.16302 10.3629 0.715706C9.94489 0.26839 9.3776 0.00994036 8.76056 0C8.76056 0 8.72075 0 8.7108 0C7.46675 0 6.42176 1.01392 6.40186 2.25646C6.372 3.52883 7.38714 4.59244 8.66103 4.61233L8.65108 4.62227Z" fill="#3A4757"/>
</svg>