<svg width="14" height="14" viewBox="0 0 14 14" fill="none" xmlns="http://www.w3.org/2000/svg">
<path fill-rule="evenodd" clip-rule="evenodd" d="M4.1478 0C4.20124 0.00111606 4.25187 0.0144567 4.29739 0.0375309L5.89348 0.0387811C6.09106 0.0429075 6.25032 0.214143 6.25415 0.426593V13.6122C6.25415 13.8264 6.09267 14 5.89348 14L4.37173 13.9999C4.36923 14 4.36672 14 4.3642 14L4.35621 13.9992L0.360678 14C0.161481 14 0 13.8264 0 13.6122V0.426593C0.00383769 0.214143 0.163092 0.0429075 0.360678 0.0387811L1.61419 0.0374723C1.65689 0.0183281 1.70374 0.00775607 1.75289 0.00775607C1.80031 0.00874641 1.84553 0.0193623 1.88691 0.0378632L3.99392 0.0369624C4.04059 0.0132565 4.09275 0 4.1478 0ZM12.7969 0.0387811C12.996 0.0387811 13.1575 0.21241 13.1575 0.426593V7.47701C13.1575 7.69119 12.996 7.86482 12.7969 7.86482C12.5977 7.86482 12.4362 7.69119 12.4362 7.47701V0.783379H7.63194V13.1934H12.4362V10.3468C12.4362 10.1326 12.5977 9.959 12.7969 9.959C12.996 9.959 13.1575 10.1326 13.1575 10.3468V13.6122C13.1575 13.8264 12.996 14 12.7969 14H7.27127C7.07207 14 6.91059 13.8264 6.91059 13.6122V0.426593C6.91059 0.21241 7.07207 0.0387811 7.27127 0.0387811H12.7969ZM1.39189 0.814333L0.714142 0.814404V13.2244L1.39189 13.2238L1.39222 8.93518C1.39222 8.721 1.5537 8.54737 1.75289 8.54737C1.95209 8.54737 2.11357 8.721 2.11357 8.93518L2.11326 13.2238H4.00326L4.00352 9.73407C4.00352 9.51989 4.16501 9.34626 4.3642 9.34626C4.5634 9.34626 4.72488 9.51989 4.72488 9.73407L4.72463 13.2238L5.52558 13.2244V0.814404L4.508 0.814333L4.50847 4.26593C4.50464 4.47838 4.34538 4.64961 4.1478 4.65374C3.9486 4.65374 3.78712 4.48011 3.78712 4.26593L3.78663 0.814333H2.11326L2.11357 2.28033C2.10973 2.49278 1.95048 2.66402 1.75289 2.66814C1.5537 2.66814 1.39222 2.49452 1.39222 2.28033L1.39189 0.814333ZM2.87821 5.71634C3.07741 5.71634 3.23889 5.88997 3.23889 6.10416V10.5097C3.23889 10.7239 3.07741 10.8975 2.87821 10.8975C2.67901 10.8975 2.51753 10.7239 2.51753 10.5097V6.10416C2.51753 5.88997 2.67901 5.71634 2.87821 5.71634ZM4.73209 5.71634C4.93129 5.71634 5.09277 5.88997 5.09277 6.10416V7.92687C5.09277 8.14105 4.93129 8.31468 4.73209 8.31468C4.5329 8.31468 4.37142 8.14105 4.37142 7.92687V6.10416C4.37142 5.88997 4.5329 5.71634 4.73209 5.71634ZM10.135 1.50471L11.9024 3.05596C11.9773 3.11984 12.025 3.21363 12.0345 3.31593C12.044 3.41824 12.0145 3.52032 11.9529 3.59889C11.8834 3.68858 11.7801 3.73985 11.6715 3.7385C11.5883 3.73634 11.5076 3.70654 11.4407 3.65319L9.67338 2.10194C9.52362 1.96169 9.50148 1.72024 9.62289 1.55125C9.75355 1.38881 9.98089 1.36816 10.135 1.50471ZM11.3181 1.14792L11.9961 1.75291C12.1163 1.85654 12.162 2.03079 12.1099 2.18666C12.0578 2.34252 11.9193 2.44559 11.7653 2.44321H11.7509C11.6713 2.43823 11.5953 2.40556 11.5345 2.35014L10.8131 1.74515C10.6748 1.59172 10.6748 1.34789 10.8131 1.19446C10.8736 1.11504 10.9613 1.06528 11.0565 1.05652C11.1516 1.04775 11.2459 1.08072 11.3181 1.14792ZM13.726 7.71892C13.8493 7.75442 13.9455 7.8579 13.9785 7.99039C14.0115 8.12287 13.9763 8.26423 13.8861 8.36122L13.4749 8.80332C13.4098 8.87867 13.3181 8.92092 13.2225 8.91967C13.1268 8.92092 13.0351 8.87867 12.97 8.80332C12.9002 8.73295 12.8607 8.63469 12.8607 8.53186C12.8607 8.42902 12.9002 8.33076 12.97 8.26039L13.3811 7.81828C13.4713 7.7213 13.6028 7.68342 13.726 7.71892ZM12.6309 9.16787C12.7724 9.31994 12.7724 9.56649 12.6309 9.71856L12.2198 10.1607C12.151 10.2349 12.0576 10.2768 11.9601 10.277C11.8648 10.2764 11.7737 10.2345 11.7076 10.1607C11.6393 10.0878 11.6009 9.98872 11.6009 9.88532C11.6009 9.78191 11.6393 9.68279 11.7076 9.60997L12.1188 9.16787C12.2602 9.0158 12.4895 9.0158 12.6309 9.16787ZM13.4821 9.16787L13.8933 9.60997C13.9616 9.68279 14 9.78191 14 9.88532C14 9.98872 13.9616 10.0878 13.8933 10.1607C13.8265 10.2381 13.7318 10.2805 13.6336 10.277C13.538 10.2783 13.4463 10.236 13.3811 10.1607L12.9772 9.71856C12.9089 9.64574 12.8705 9.54662 12.8705 9.44321C12.8705 9.33981 12.9089 9.24069 12.9772 9.16787C13.1174 9.02006 13.3419 9.02006 13.4821 9.16787ZM11.9637 7.73459C12.0599 7.73459 12.152 7.77589 12.2198 7.84931L12.6309 8.29141C12.7684 8.44221 12.7684 8.68355 12.6309 8.83435C12.5577 8.89735 12.4648 8.92787 12.3713 8.91967C12.2759 8.91907 12.1849 8.87712 12.1188 8.80332L11.7076 8.39224C11.6379 8.32187 11.5983 8.22361 11.5983 8.12078C11.5983 8.01794 11.6379 7.91968 11.7076 7.84931C11.7753 7.77589 11.8675 7.73459 11.9637 7.73459Z" fill="#3A4757"/>
</svg>