<svg width="20" height="18" viewBox="0 0 20 18" fill="none" xmlns="http://www.w3.org/2000/svg">
<path d="M19.9628 8.48307L18.1232 2.84058C17.7228 1.54182 16.6623 0.570482 15.2664 0.243064L13.8705 0.0138719C13.0481 -0.0952672 12.2365 0.450428 12.0525 1.26897L11.6305 3.12434H8.39496L7.97293 1.26897C7.77815 0.450428 6.96656 -0.106181 6.12251 0.0247858L4.62919 0.253978C3.29818 0.592309 2.27017 1.56365 1.86979 2.84058L0.0410113 8.48307C-0.110485 8.99602 0.170865 9.55263 0.668639 9.71634L2.91944 10.4694C2.90862 10.6331 2.8978 10.8077 2.8978 10.9933C2.8978 14.8568 6.05758 17.9891 9.94238 18C13.8272 18 16.987 14.8568 16.987 10.9933C16.987 10.8296 16.987 10.6659 16.9761 10.5021L19.3243 9.71634C19.5732 9.62903 19.7788 9.44349 19.8979 9.2143C20.0169 8.98511 20.0277 8.71226 19.952 8.48307H19.9628ZM14.7794 3.57181C14.4548 3.24439 13.957 3.20073 13.5783 3.42993L13.8921 2.04386L14.8877 2.19665C15.5369 2.36036 16.0455 2.84058 16.2403 3.47358L17.7769 8.17748L16.5649 8.58129C16.3377 7.9592 16.0131 7.38076 15.6127 6.83507C15.9698 5.67819 15.6451 4.41218 14.7686 3.57181H14.7794ZM9.9532 16.0355C7.15052 16.0355 4.87808 13.7763 4.87808 11.0042C4.87808 10.142 5.11614 9.27978 5.53817 8.52672C6.09005 8.90871 6.75014 9.11608 7.45351 9.11608C8.33003 9.10516 9.14162 8.75592 9.73678 8.15565C9.85581 8.04651 9.93156 7.90463 9.98567 7.75184C10.029 7.91554 10.1155 8.07925 10.2562 8.21022C11.3383 9.25796 13.1563 9.37801 14.3791 8.53764C14.8119 9.30161 15.0392 10.1529 15.0392 11.0151C15.0392 13.7872 12.7559 16.0464 9.96403 16.0464L9.9532 16.0355ZM4.30455 6.83507C3.90417 7.35894 3.59036 7.93737 3.35229 8.55947L2.22689 8.17748L3.76349 3.46267C3.95828 2.84058 4.46687 2.36036 5.06203 2.20757L6.11169 2.03295L6.46879 3.58272C6.07923 3.21165 5.47324 3.22256 5.08368 3.60455C4.47769 4.22664 4.15306 5.04519 4.16388 5.90738C4.16388 6.21297 4.20716 6.52948 4.30455 6.82415V6.83507ZM13.4052 4.9797C13.654 5.20889 13.7839 5.5254 13.7839 5.85282C13.7839 6.18023 13.654 6.50765 13.4268 6.74776C12.9398 7.2498 12.1283 7.26071 11.6197 6.76958C11.2301 6.39851 10.6241 6.39851 10.2346 6.7805C10.1155 6.90055 10.0398 7.03152 9.99649 7.18431C9.95321 7.00969 9.85581 6.8569 9.72596 6.72593C9.53118 6.54039 9.29311 6.45308 9.04423 6.45308C8.79534 6.45308 8.53563 6.55131 8.34085 6.74776C8.09196 6.98786 7.77815 7.12974 7.44269 7.12974C7.06395 7.12974 6.77178 7.0206 6.52289 6.76958C6.27401 6.52948 6.13333 6.22389 6.13333 5.88556C6.13333 5.53631 6.25236 5.23072 6.49043 4.99062C6.66357 4.82691 6.76096 4.59772 6.7826 4.35761C7.10724 4.82691 7.6483 5.12158 8.24346 5.12158H11.7928C12.3339 5.12158 12.8208 4.88148 13.1454 4.49949C13.1887 4.67411 13.2861 4.83782 13.416 4.9797H13.4052Z" fill="#3A4757"/>
</svg>