<svg width="14" height="14" viewBox="0 0 14 14" fill="none" xmlns="http://www.w3.org/2000/svg">
<path fill-rule="evenodd" clip-rule="evenodd" d="M13.6316 0C13.8351 0 14 0.164948 14 0.368421V13.6316C14 13.8351 13.8351 14 13.6316 14H0.368421C0.164948 14 0 13.8351 0 13.6316V0.368421C0 0.164948 0.164948 0 0.368421 0H13.6316ZM13.2222 0.777778H0.777778V13.2222H13.2222V0.777778ZM3.188 11.5143L3.21912 11.5515C3.1957 11.5268 3.17616 11.4997 3.1605 11.4712L3.14932 11.4492C3.14263 11.4348 3.13688 11.4203 3.13204 11.4055C3.13018 11.3997 3.12844 11.3939 3.12684 11.3881C3.12254 11.3726 3.11922 11.3568 3.11689 11.3409C3.11596 11.3344 3.11517 11.3278 3.11455 11.3213L3.11322 11.3027L3.11343 11.2621L3.11455 11.2474C3.11517 11.2409 3.11596 11.2343 3.1169 11.2278C3.11922 11.2119 3.12254 11.1961 3.12685 11.1805L3.13205 11.1633C3.13688 11.1484 3.14263 11.1339 3.14929 11.1196L3.16052 11.0975C3.16705 11.0856 3.17428 11.0739 3.18219 11.0625C3.18404 11.0598 3.186 11.0571 3.188 11.0544L3.20251 11.0359C3.20781 11.0295 3.21335 11.0233 3.21912 11.0172L3.22713 11.0107L3.23449 11.0018L4.36474 9.93301C4.5208 9.78545 4.76693 9.79233 4.9145 9.94838C5.04567 10.0871 5.05481 10.297 4.94562 10.4456L4.89913 10.4981L4.48467 10.8889H10.8889V4.47611L10.4916 4.89745C10.344 5.0535 10.0979 5.06038 9.94181 4.91282C9.80309 4.78165 9.78224 4.57259 9.88296 4.41816L9.92644 4.36306L10.9952 3.23281L11.0106 3.21744L11.0304 3.20056L11.0203 3.20833L11.0296 3.20133L11.0478 3.18632C11.0505 3.18432 11.0533 3.18236 11.056 3.18043L11.0514 3.18344L11.091 3.15882C11.0982 3.15486 11.1055 3.15113 11.113 3.14764C11.1273 3.14094 11.1419 3.13519 11.1567 3.13036L11.174 3.12515C11.1895 3.12085 11.2053 3.11753 11.2213 3.11521C11.2278 3.11427 11.2343 3.11349 11.2408 3.11287C11.2531 3.11168 11.2656 3.1111 11.2781 3.11111L11.3001 3.11174L11.3147 3.11287C11.3213 3.11349 11.3278 3.11427 11.3343 3.11522C11.3502 3.11753 11.3661 3.12085 11.3817 3.12517L11.3989 3.13037C11.4137 3.13519 11.4283 3.14094 11.4425 3.14761C11.45 3.15113 11.4574 3.15486 11.4647 3.15884C11.4766 3.16537 11.4882 3.1726 11.4996 3.18051C11.5023 3.18236 11.505 3.18432 11.5078 3.18632L11.5263 3.20083C11.5326 3.20613 11.5389 3.21166 11.545 3.21744L11.5514 3.22544L11.5603 3.23281L12.6291 4.36306C12.7767 4.51911 12.7698 4.76525 12.6137 4.91282C12.475 5.04399 12.2651 5.05312 12.1166 4.94393L12.064 4.89745L11.6667 4.47689V11.2778C11.6667 11.4687 11.5291 11.6275 11.3477 11.6604L11.2778 11.6667H4.47144L4.89913 12.0706C5.05519 12.2181 5.06207 12.4643 4.9145 12.6203C4.78333 12.759 4.57428 12.7799 4.41984 12.6792L4.36474 12.6357L3.23449 11.5669L3.21912 11.5515L3.185 11.5096L3.1869 11.5128L3.20289 11.5321L3.188 11.5143Z" fill="#3A4757"/>
</svg>