<svg width="20" height="20" viewBox="0 0 20 20" fill="none" xmlns="http://www.w3.org/2000/svg">
<path d="M6.63839 9.03131C6.63839 7.14047 8.14339 5.60881 10.0001 5.60881C11.8567 5.60881 13.3617 7.14047 13.3617 9.03131C13.3617 10.9213 11.8567 12.4538 10.0001 12.4538C8.14339 12.4538 6.63839 10.9213 6.63839 9.03131Z" fill="#3A4757"/>
<path fill-rule="evenodd" clip-rule="evenodd" d="M16.7225 11.855V12.8817L20 16.2183L17.6467 16.8175L17.0592 19.2133L13.6975 15.7908H12.7733L11.1767 17.4167C10.5042 18.1008 9.49583 18.1008 8.82333 17.4167L7.22667 15.7908H6.3025L2.94083 19.2133L2.35333 16.8175L0 16.2183L3.2775 12.8817V11.855L1.68083 10.2292C1.00833 9.545 1.00833 8.5175 1.68083 7.83333L3.2775 6.2075V3.8975C3.2775 2.95583 4.03333 2.18583 4.95833 2.18583H7.22667L8.82333 0.56C9.49583 -0.124167 10.5042 -0.124167 11.1767 0.56L12.7733 2.18583H15.0417C15.9667 2.18583 16.7225 2.95583 16.7225 3.8975V6.2075L18.3192 7.83333C18.9917 8.4325 18.9917 9.545 18.3192 10.2292L16.7225 11.855ZM4.95834 9.03071C4.95834 11.8549 7.22668 14.1649 10 14.1649C12.7733 14.1649 15.0417 11.8549 15.0417 9.03071C15.0417 6.20738 12.7733 3.89738 10 3.89738C7.22668 3.89738 4.95834 6.20738 4.95834 9.03071Z" fill="#3A4757"/>
</svg>