<svg width="12" height="17" viewBox="0 0 12 17" fill="none" xmlns="http://www.w3.org/2000/svg">
<path fill-rule="evenodd" clip-rule="evenodd" d="M7.80804 16.9939L7.75501 16.9798C7.72894 16.9707 7.70414 16.9588 7.68099 16.9443L5.982 15.9043L4.31944 16.944C4.31278 16.9482 4.30888 16.9505 4.30493 16.9527L4.31944 16.944C4.26041 16.9809 4.19543 16.999 4.13105 17C4.11983 17 4.11468 16.9999 4.10956 16.9997C4.07219 16.9981 4.03545 16.9907 4.00044 16.9781C3.98978 16.9743 3.97914 16.9699 3.96876 16.965C3.95904 16.9603 3.94941 16.9553 3.94 16.9498C3.93218 16.9452 3.92452 16.9403 3.91705 16.9352C3.9069 16.9283 3.89702 16.9208 3.88749 16.9127C3.87766 16.9043 3.86814 16.8954 3.85908 16.886C3.85427 16.8812 3.8493 16.8757 3.84446 16.8701C3.83291 16.8563 3.82468 16.8454 3.81703 16.8341L3.80435 16.814C3.79819 16.8034 3.79403 16.7956 3.79012 16.7877L3.80435 16.814C3.76855 16.7531 3.75097 16.6862 3.74999 16.6199L3.75 12.75L3.75604 12.6805C3.78779 12.5003 3.94091 12.3636 4.125 12.3636C4.33211 12.3636 4.5 12.5366 4.5 12.75L4.49925 15.9274L5.78584 15.1242C5.88453 15.0625 6.00402 15.0517 6.11002 15.092L6.17173 15.1223L7.49925 15.9344L7.5 12.75L7.50604 12.6805C7.53779 12.5003 7.69091 12.3636 7.875 12.3636C8.08211 12.3636 8.25 12.5366 8.25 12.75L8.25 16.6069C8.25075 16.6495 8.24469 16.6925 8.23138 16.7341C8.21589 16.7828 8.19132 16.8271 8.15973 16.8651L8.19744 16.8109C8.18184 16.838 8.16353 16.8624 8.14308 16.8839C8.13344 16.8939 8.12316 16.9036 8.11239 16.9127C8.10518 16.9189 8.0973 16.9251 8.08922 16.9309C8.08009 16.9373 8.07088 16.9433 8.06141 16.9489C8.04825 16.9567 8.03454 16.9637 8.0205 16.9697C8.01502 16.9722 8.00939 16.9745 8.00369 16.9766C7.96577 16.9908 7.92577 16.9987 7.8853 16.9999L7.875 17C7.85097 16.9999 7.82942 16.9979 7.80804 16.9939ZM6 0C9.31371 0 12 2.76769 12 6.18181C12 9.59593 9.31371 12.3636 6 12.3636C2.68629 12.3636 0 9.59593 0 6.18181C0 2.76769 2.68629 0 6 0ZM6 0.772727C3.10051 0.772727 0.75 3.19446 0.75 6.18181C0.75 9.16917 3.10051 11.5909 6 11.5909C8.8995 11.5909 11.25 9.16917 11.25 6.18181C11.25 3.19446 8.8995 0.772727 6 0.772727ZM6.01416 2.31818C6.32854 2.31818 6.61024 2.52737 6.72208 2.84388L7.24594 4.57499H8.98742C9.31748 4.57261 9.61097 4.80075 9.71291 5.13892C9.81486 5.4771 9.70179 5.84746 9.43341 6.05444L8.08128 7.16784L8.58391 8.95995C8.68879 9.29721 8.57671 9.66869 8.30782 9.87508C8.04788 10.1022 7.67578 10.1022 7.41584 9.87508L6.01416 8.80743L4.59832 9.87508C4.47332 9.9755 4.32238 10.0315 4.16649 10.0352C3.92579 10.0284 3.70213 9.89992 3.56284 9.68835C3.42355 9.47679 3.38492 9.2069 3.45857 8.95995L3.98243 7.22884L2.56659 6.09257C2.29821 5.88559 2.18514 5.51523 2.28709 5.17705C2.38903 4.83888 2.68252 4.61074 3.01258 4.61311H4.70451L5.30624 2.84388C5.41808 2.52737 5.69978 2.31818 6.01416 2.31818ZM5.98585 3.09091L5.41274 4.84851C5.31679 5.18096 5.03017 5.40806 4.70519 5.40912H3V5.51518L4.33726 6.61365C4.60602 6.81868 4.71803 7.18771 4.61321 7.52273L4.098 9.21167L4.17453 9.27272L5.54009 8.20455C5.80647 7.99971 6.16522 7.99971 6.4316 8.20455L7.79717 9.27272L8.21462 9.0909L7.88208 9.20454L7.35849 7.48486C7.27061 7.16123 7.38082 6.81328 7.63443 6.61365L9 5.55305V5.44699H7.28066C6.95568 5.44593 6.66906 5.21884 6.57311 4.88639L6.03538 3.12883C6.02892 3.10555 6.00851 3.08995 5.98585 3.09091Z" fill="#3A4757"/>
</svg>