<svg width="20" height="20" viewBox="0 0 20 20" fill="none" xmlns="http://www.w3.org/2000/svg">
<path d="M6.63839 8.98443C6.63839 7.0936 8.14339 5.56193 10.0001 5.56193C11.8567 5.56193 13.3617 7.0936 13.3617 8.98443C13.3617 10.8744 11.8567 12.4069 10.0001 12.4069C8.14339 12.4069 6.63839 10.8744 6.63839 8.98443Z" fill="#3A4757"/>
<path fill-rule="evenodd" clip-rule="evenodd" d="M16.7225 11.8081V12.8348L20 16.1715L17.6467 16.7706L17.0592 19.1665L13.6975 15.744H12.7733L11.1767 17.3698C10.5042 18.054 9.49583 18.054 8.82333 17.3698L7.22667 15.744H6.3025L2.94083 19.1665L2.35333 16.7706L0 16.1715L3.2775 12.8348V11.8081L1.68083 10.1823C1.00833 9.49813 1.00833 8.47062 1.68083 7.78646L3.2775 6.16062V3.85062C3.2775 2.90896 4.03333 2.13896 4.95833 2.13896H7.22667L8.82333 0.513125C9.49583 -0.171042 10.5042 -0.171042 11.1767 0.513125L12.7733 2.13896H15.0417C15.9667 2.13896 16.7225 2.90896 16.7225 3.85062V6.16062L18.3192 7.78646C18.9917 8.38562 18.9917 9.49813 18.3192 10.1823L16.7225 11.8081ZM4.95834 8.98384C4.95834 11.808 7.22668 14.118 10 14.118C12.7733 14.118 15.0417 11.808 15.0417 8.98384C15.0417 6.1605 12.7733 3.8505 10 3.8505C7.22668 3.8505 4.95834 6.1605 4.95834 8.98384Z" fill="#3A4757"/>
</svg>