<svg width="17" height="20" viewBox="0 0 17 20" fill="none" xmlns="http://www.w3.org/2000/svg">
<path d="M17 4.06391C17 3.80826 16.915 3.63782 16.83 3.38216C16.745 3.29694 16.66 3.1265 16.575 3.04128L15.3 4.91611V15.3981L9.435 13.3529L8.415 14.8016L9.265 15.0573C9.095 15.3981 8.925 15.739 8.585 15.9947C8.16 16.3356 7.735 16.506 7.225 16.506L6.12 18.1252C6.375 18.2104 6.545 18.2104 6.8 18.2104C7.82 18.2956 8.84 17.9547 9.69 17.273C10.2 16.8469 10.625 16.2503 10.88 15.6538L15.13 17.1025C15.385 17.1877 15.555 17.1877 15.81 17.1877C16.065 17.1877 16.235 17.1025 16.405 16.9321C16.575 16.7617 16.745 16.5912 16.83 16.4208C16.915 16.2503 17 15.9947 17 15.739V4.06391Z" fill="#3A4757"/>
<path d="M7.565 14.5459L8.585 13.0972L14.45 4.74567L15.895 2.7004L16.745 1.4221C16.915 1.16644 16.915 0.825566 16.83 0.569907C16.745 0.399467 16.66 0.229028 16.49 0.143808C16.065 -0.111851 15.47 -0.0266312 15.215 0.399467L13.09 3.46738L1.36 7.38748C0.935 7.55792 0.595 7.81358 0.34 8.15446C0.17 8.49534 0 8.83622 0 9.26232V10.5406C0 10.9667 0.17 11.3076 0.425 11.6485C0.68 11.9893 1.02 12.245 1.36 12.3302L2.975 12.8415V14.1198C2.975 14.972 3.315 15.8242 3.825 16.506L2.465 18.3808C2.21 18.8069 2.295 19.4035 2.72 19.6591C2.89 20 3.06 20 3.23 20H3.315C3.57 20 3.825 19.8296 3.995 19.5739L5.27 17.7843L6.29 16.3356L7.565 14.5459ZM1.955 10.7963C1.87 10.7963 1.87 10.7111 1.785 10.7111C1.7 10.6258 1.7 10.6258 1.7 10.5406V9.26232C1.7 9.1771 1.7 9.09188 1.785 9.09188C1.785 9.00666 1.87 9.00666 1.955 9.00666L11.39 5.76831L6.715 12.5007L1.955 10.7963ZM4.675 14.2051V13.5233L5.78 13.8642L4.93 15.1425C4.675 14.8868 4.675 14.5459 4.675 14.2051Z" fill="#3A4757"/>
</svg>