<svg width="20" height="19" viewBox="0 0 20 19" fill="none" xmlns="http://www.w3.org/2000/svg">
<path fill-rule="evenodd" clip-rule="evenodd" d="M20 1.63347C19.9998 1.37314 19.9339 1.1169 19.8083 0.887769C19.6908 0.65519 19.5161 0.455224 19.3 0.306015C19.083 0.158643 18.8353 0.0606406 18.575 0.0191889C18.3123 -0.0206935 18.0437 0.00179686 17.7916 0.0847562L1.5833 5.67318C1.12891 5.82967 0.731713 6.11476 0.44164 6.4926C0.156403 6.88475 0.00209871 7.35434 0 7.83646V9.36056C0.0160759 9.82777 0.175878 10.2792 0.458323 10.6553C0.74144 11.033 1.13333 11.3184 1.5833 11.4747L3.46664 12.122V13.6379C3.46977 14.5328 3.73207 15.4084 4.22282 16.1622C4.71357 16.9159 5.41246 17.5166 6.23774 17.894C7.06303 18.2713 7.98056 18.4098 8.88295 18.2931C9.78535 18.1764 10.6353 17.8095 11.3333 17.2351C11.964 16.7171 12.4441 16.0443 12.725 15.2849L17.7833 17.0221C18.0354 17.105 18.3039 17.1275 18.5666 17.0877C18.827 17.0462 19.0746 16.9482 19.2916 16.8009C19.5078 16.6517 19.6825 16.4517 19.8 16.2191C19.9256 15.9899 19.9915 15.7337 19.9917 15.4734V1.64167L20 1.63347ZM10.0833 15.752C9.67048 16.0938 9.16694 16.3126 8.63195 16.3826C8.09696 16.4526 7.55276 16.3709 7.0634 16.1471C6.57403 15.9232 6.15985 15.5666 5.8696 15.1192C5.57934 14.6718 5.42508 14.1522 5.42496 13.6215V12.8021L10.8916 14.6786C10.7153 15.0959 10.4378 15.4644 10.0833 15.752Z" fill="#3A4757"/>
</svg>