<svg width="20" height="19" viewBox="0 0 20 19" fill="none" xmlns="http://www.w3.org/2000/svg">
<path fill-rule="evenodd" clip-rule="evenodd" d="M18.5548 0.0178398C18.29 -0.0206039 18.0197 0.00328778 17.7661 0.0875526L1.5977 5.62093C1.13237 5.78095 0.728882 6.0789 0.442768 6.47378C0.156653 6.86866 0.00196377 7.34106 0 7.82597V9.31455C0 9.32576 0.000194808 9.33697 0.000584522 9.34818C0.0170243 9.82098 0.178399 10.2778 0.463527 10.6588C0.748654 11.0398 1.14432 11.327 1.59838 11.4829L3.46151 12.1221L3.4615 13.6187L3.46152 13.6226C3.46636 14.826 3.93731 15.9823 4.77847 16.856C5.61962 17.7297 6.76771 18.2551 7.9889 18.3253C9.2101 18.3954 10.4125 18.005 11.3514 17.2335C11.9818 16.7155 12.4615 16.0518 12.7532 15.3099L17.7568 17.0266L17.7661 17.0296C18.0197 17.1139 18.29 17.1378 18.5548 17.0994C18.8196 17.0609 19.0713 16.9612 19.2893 16.8085C19.5074 16.6558 19.6855 16.4543 19.809 16.2207C19.9325 15.9872 19.998 15.7281 20 15.4648L20 1.65971L19.9999 1.65242C19.998 1.38912 19.9325 1.13004 19.809 0.896456C19.6855 0.662868 19.5074 0.461436 19.2893 0.308701C19.0713 0.155967 18.8196 0.0562838 18.5548 0.0178398ZM10.8629 14.6614L5.46151 12.8083V13.6166C5.4648 14.3188 5.73978 14.9933 6.2306 15.5031C6.72183 16.0134 7.39231 16.3202 8.10549 16.3612C8.81867 16.4022 9.5209 16.1742 10.0692 15.7236C10.4199 15.4354 10.6908 15.0699 10.8629 14.6614ZM18 15.0263V2.09057L2.25711 7.47836C2.1823 7.50421 2.11743 7.55219 2.0714 7.61572C2.02552 7.67904 2.00059 7.75472 2 7.83246V9.29252C2.00476 9.36463 2.03043 9.43399 2.07408 9.49231C2.12007 9.55376 2.18387 9.60009 2.2571 9.62522L18 15.0263Z" fill="#3A4757"/>
</svg>