<svg width="17" height="20" viewBox="0 0 17 20" fill="none" xmlns="http://www.w3.org/2000/svg">
<path d="M16.6634 3.38216C16.5792 3.21172 16.4109 3.04128 16.2426 2.87084C16.1584 2.78562 16.0743 2.78562 15.9901 2.7004L7.82673 14.6312L9.25743 15.1425C9.08911 15.4834 8.83663 15.8242 8.58416 16.0799C8.24752 16.3356 7.82673 16.5912 7.32178 16.5912C7.06931 16.5912 6.81683 16.5912 6.56436 16.5912L5.55446 18.0399C6.14356 18.2956 6.90099 18.3808 7.57426 18.2956C8.33168 18.2104 9.08911 17.8695 9.67822 17.3582C10.1832 16.9321 10.604 16.3356 10.8564 15.6538L15.1485 17.1025C15.401 17.1877 15.5693 17.1877 15.8218 17.1877C16.0743 17.1877 16.2426 17.1025 16.4109 16.9321C16.5792 16.8469 16.7475 16.6764 16.8317 16.4208C16.9158 16.2503 17 15.9947 17 15.8242V3.97869C16.8317 3.80826 16.7475 3.5526 16.6634 3.38216Z" fill="#3A4757"/>
<path d="M6.90099 14.3755L14.896 2.7004L15.8218 1.4221C15.9901 1.16644 15.9901 0.825566 15.9059 0.569907C15.8218 0.399467 15.7376 0.229028 15.5693 0.143808C15.1485 -0.111851 14.5594 -0.0266312 14.3069 0.399467L11.9505 3.80826L1.34653 7.4727C0.925743 7.64314 0.589109 7.81358 0.420792 8.15446C0.168317 8.49534 0 8.92144 0 9.26232V10.6258C0 11.0519 0.168317 11.3928 0.420792 11.7337C0.673267 12.0746 1.0099 12.3302 1.34653 12.4154L2.94554 12.9268V14.2051C2.94554 14.8868 3.11386 15.5686 3.4505 16.1651L1.76733 18.5513C1.51485 18.9774 1.59901 19.5739 2.0198 19.8296C2.18812 20 2.35644 20 2.52475 20H2.60891C2.86139 20 3.11386 19.8296 3.28218 19.5739L4.71287 17.5286L5.63861 16.1651L6.90099 14.3755ZM4.54455 14.2051V13.5233L5.13366 13.6937L4.62871 14.4607C4.54455 14.3755 4.54455 14.2903 4.54455 14.2051Z" fill="#3A4757"/>
</svg>