<svg width="24" height="24" viewBox="0 0 24 24" fill="none" xmlns="http://www.w3.org/2000/svg">
<path d="M20.5 6.06391C20.5 5.80826 20.415 5.63782 20.33 5.38216C20.245 5.29694 20.16 5.1265 20.075 5.04128L18.8 6.91611V17.3981L12.935 15.3529L11.915 16.8016L12.765 17.0573C12.595 17.3981 12.425 17.739 12.085 17.9947C11.66 18.3356 11.235 18.506 10.725 18.506L9.62 20.1252C9.875 20.2104 10.045 20.2104 10.3 20.2104C11.32 20.2956 12.34 19.9547 13.19 19.273C13.7 18.8469 14.125 18.2503 14.38 17.6538L18.63 19.1025C18.885 19.1877 19.055 19.1877 19.31 19.1877C19.565 19.1877 19.735 19.1025 19.905 18.9321C20.075 18.7617 20.245 18.5912 20.33 18.4208C20.415 18.2503 20.5 17.9947 20.5 17.739V6.06391Z" fill="#3A4757"/>
<path d="M11.065 16.5459L12.085 15.0972L17.95 6.74567L19.395 4.7004L20.245 3.4221C20.415 3.16644 20.415 2.82557 20.33 2.56991C20.245 2.39947 20.16 2.22903 19.99 2.14381C19.565 1.88815 18.97 1.97337 18.715 2.39947L16.59 5.46738L4.86 9.38748C4.435 9.55792 4.095 9.81358 3.84 10.1545C3.67 10.4953 3.5 10.8362 3.5 11.2623V12.5406C3.5 12.9667 3.67 13.3076 3.925 13.6485C4.18 13.9893 4.52 14.245 4.86 14.3302L6.475 14.8415V16.1198C6.475 16.972 6.815 17.8242 7.325 18.506L5.965 20.3808C5.71 20.8069 5.795 21.4035 6.22 21.6591C6.39 22 6.56 22 6.73 22H6.815C7.07 22 7.325 21.8296 7.495 21.5739L8.77 19.7843L9.79 18.3356L11.065 16.5459ZM5.455 12.7963C5.37 12.7963 5.37 12.7111 5.285 12.7111C5.2 12.6258 5.2 12.6258 5.2 12.5406V11.2623C5.2 11.1771 5.2 11.0919 5.285 11.0919C5.285 11.0067 5.37 11.0067 5.455 11.0067L14.89 7.76831L10.215 14.5007L5.455 12.7963ZM8.175 16.2051V15.5233L9.28 15.8642L8.43 17.1425C8.175 16.8868 8.175 16.5459 8.175 16.2051Z" fill="#3A4757"/>
</svg>