<svg width="20" height="21" viewBox="0 0 20 21" fill="none" xmlns="http://www.w3.org/2000/svg">
<path fill-rule="evenodd" clip-rule="evenodd" d="M10 0.399902C4.36 0.399902 0 4.53006 0 10.1003C0 13.0104 1.19 15.5405 3.14 17.2705C3.3 17.4005 3.4 17.6205 3.41 17.8406L3.46 19.6206C3.5 20.1906 4.07 20.5607 4.59 20.3306L6.57 19.4606C6.74 19.4006 6.93 19.3706 7.1 19.4006C8 19.6706 9 19.8006 10 19.8006C15.64 19.8006 20 15.6705 20 10.1003C20 4.53006 15.64 0.399902 10 0.399902ZM16.5834 7.81593L13.572 12.5668C13.0889 13.3094 12.0611 13.5027 11.3417 12.9432L8.93665 11.1832C8.72082 11.0205 8.41248 11.0205 8.19664 11.1832L4.94883 13.6248C4.51716 13.9605 3.95188 13.4518 4.24994 12.9839L7.26136 8.23302C7.74442 7.49039 8.77221 7.2971 9.49166 7.8261L11.8967 9.61657C12.1228 9.77934 12.4209 9.77934 12.6367 9.61657L15.8845 7.17502C16.3162 6.8393 16.8815 7.34796 16.5834 7.81593Z" fill="#3A4757"/>
</svg>