<svg width="20" height="20" viewBox="0 0 20 20" fill="none" xmlns="http://www.w3.org/2000/svg">
<path fill-rule="evenodd" clip-rule="evenodd" d="M10 0C4.36 0 0 4.13015 0 9.70036C0 12.6105 1.19 15.1406 3.14 16.8706C3.3 17.0006 3.4 17.2206 3.41 17.4407L3.46 19.2207C3.5 19.7907 4.07 20.1608 4.59 19.9307L6.57 19.0607C6.74 19.0007 6.93 18.9707 7.1 19.0007C8 19.2707 9 19.4007 10 19.4007C15.64 19.4007 20 15.2706 20 9.70036C20 4.13015 15.64 0 10 0ZM16.5834 7.41602L13.572 12.1669C13.0889 12.9095 12.0611 13.1028 11.3417 12.5433L8.93665 10.7833C8.72082 10.6206 8.41248 10.6206 8.19664 10.7833L4.94883 13.2249C4.51716 13.5606 3.95188 13.0519 4.24994 12.584L7.26136 7.83312C7.74442 7.09048 8.77221 6.89719 9.49166 7.4262L11.8967 9.21667C12.1228 9.37944 12.4209 9.37944 12.6367 9.21667L15.8845 6.77512C16.3162 6.4394 16.8815 6.94806 16.5834 7.41602Z" fill="#3A4757"/>
</svg>