<svg width="15" height="9" viewBox="0 0 15 9" fill="none" xmlns="http://www.w3.org/2000/svg">
<path fill-rule="evenodd" clip-rule="evenodd" d="M14.3 0C14.6866 0 15 0.297146 15 0.663695V8.3363C15 8.70285 14.6866 9 14.3 9H0.7C0.313401 9 0 8.70285 0 8.3363V0.663695C0 0.297146 0.313401 0 0.7 0H14.3ZM2.25 0.75H0.75V6.74925L10.1162 6.75C10.3282 6.75 10.5 6.91789 10.5 7.125C10.5 7.30909 10.3642 7.46221 10.1852 7.49396L10.1162 7.5L0.75 7.49925V8.25H14.25V0.75H12V3.33333C12 3.56345 11.8321 3.75 11.625 3.75C11.4409 3.75 11.2878 3.6026 11.256 3.40823L11.25 3.33333V0.75H9.75V2.51299C9.75 2.78196 9.58211 3 9.375 3C9.1909 3 9.03779 2.82772 9.00604 2.60053L9 2.51299V0.75H7.5V3.33333C7.5 3.56345 7.33211 3.75 7.125 3.75C6.94091 3.75 6.78779 3.6026 6.75604 3.40823L6.75 3.33333V0.75H5.25V2.51299C5.25 2.78196 5.08211 3 4.875 3C4.69091 3 4.53779 2.82772 4.50604 2.60053L4.5 2.51299V0.75H3V3.33333C3 3.56345 2.83211 3.75 2.625 3.75C2.44091 3.75 2.28779 3.6026 2.25604 3.40823L2.25 3.33333V0.75Z" fill="#3A4757"/>
</svg>