<svg width="12" height="15" viewBox="0 0 12 15" fill="none" xmlns="http://www.w3.org/2000/svg">
<path fill-rule="evenodd" clip-rule="evenodd" d="M5.99771 0C9.38186 0 11.9413 1.14675 11.9947 2.6745H11.9992L11.9996 2.71613L12 2.7195H11.9992V10.6185C11.9992 12.1163 10.7607 13.3342 9.23857 13.3342H8.9154L10.032 14.3497C10.186 14.49 10.1959 14.7277 10.0526 14.88C9.9779 14.9595 9.87576 15 9.77287 15C9.68064 15 9.58765 14.967 9.51448 14.9003L7.79268 13.3342H4.20732L2.48552 14.9003C2.41235 14.967 2.31936 15 2.22637 15C2.12424 15 2.0221 14.9595 1.94665 14.88C1.80412 14.7277 1.81326 14.49 1.96799 14.3497L3.08384 13.3342H2.76067C1.23857 13.3342 0 12.1163 0 10.6185V2.6745C0.058689 1.146 2.61433 0 5.99771 0ZM11.237 7.16475H0.762195V10.6185C0.762195 11.703 1.6593 12.5842 2.76067 12.5842H9.23857C10.3399 12.5842 11.237 11.703 11.237 10.6185V7.16475ZM8.78796 8.29838C9.51814 8.29838 10.1127 8.88338 10.1127 9.60188C10.1127 10.3204 9.51814 10.9054 8.78796 10.9054C8.05778 10.9054 7.46403 10.3204 7.46403 9.60188C7.46403 8.88338 8.05778 8.29838 8.78796 8.29838ZM3.21143 8.29838C3.94162 8.29838 4.53613 8.88338 4.53613 9.60188C4.53613 10.3204 3.94162 10.9054 3.21143 10.9054C2.48125 10.9054 1.88674 10.3204 1.88674 9.60188C1.88674 8.88338 2.48125 8.29838 3.21143 8.29838ZM8.78796 9.04838C8.47775 9.04838 8.22622 9.29663 8.22622 9.60188C8.22622 9.90712 8.47775 10.1554 8.78796 10.1554C9.09817 10.1554 9.35046 9.90712 9.35046 9.60188C9.35046 9.29663 9.09817 9.04838 8.78796 9.04838ZM3.21143 9.04838C2.90122 9.04838 2.64893 9.29663 2.64893 9.60188C2.64893 9.90712 2.90122 10.1554 3.21143 10.1554C3.52165 10.1554 3.77393 9.90712 3.77393 9.60188C3.77393 9.29663 3.52165 9.04838 3.21143 9.04838ZM11.237 3.4245H6.3811V6.414H11.237V3.4245ZM5.61814 3.4245H0.762195V6.414H5.61814V3.4245ZM5.99771 0.75C2.9657 0.75 0.841463 1.75425 0.769055 2.6745H11.2309C11.1593 1.755 9.03201 0.75 5.99771 0.75Z" fill="#3A4757"/>
</svg>