<svg width="20" height="14" viewBox="0 0 20 14" fill="none" xmlns="http://www.w3.org/2000/svg">
<path fill-rule="evenodd" clip-rule="evenodd" d="M0 1.6383C0 0.733497 0.75767 0 1.69231 0H18.3077C19.2422 0 20 0.733444 20 1.6383V12.3617C20 13.2665 19.2423 14 18.3077 14H1.69231C0.757618 14 0 13.2664 0 12.3617V1.6383ZM2 1.93617V12.0638H18V1.93617H2Z" fill="#3A4757"/>
<path fill-rule="evenodd" clip-rule="evenodd" d="M2.76904 4.31914C2.76904 3.41434 3.52672 2.68085 4.46135 2.68085H12.0767C13.0114 2.68085 13.769 3.41434 13.769 4.31914V9.68085C13.769 10.5857 13.0114 11.3191 12.0767 11.3191H4.46135C3.52672 11.3191 2.76904 10.5857 2.76904 9.68085V4.31914ZM4.76904 4.61702V9.38297H11.769V4.61702H4.76904Z" fill="#3A4757"/>
<path fill-rule="evenodd" clip-rule="evenodd" d="M14.5386 4.31916C14.5386 3.7845 14.9863 3.35107 15.5386 3.35107H16.2309C16.7832 3.35107 17.2309 3.7845 17.2309 4.31916C17.2309 4.85382 16.7832 5.28724 16.2309 5.28724H15.5386C14.9863 5.28724 14.5386 4.85382 14.5386 4.31916Z" fill="#3A4757"/>
<path fill-rule="evenodd" clip-rule="evenodd" d="M14.5386 7C14.5386 6.46535 14.9863 6.03192 15.5386 6.03192H16.2309C16.7832 6.03192 17.2309 6.46535 17.2309 7C17.2309 7.53466 16.7832 7.96809 16.2309 7.96809H15.5386C14.9863 7.96809 14.5386 7.53466 14.5386 7Z" fill="#3A4757"/>
</svg>