<svg width="20" height="20" viewBox="0 0 20 20" fill="none" xmlns="http://www.w3.org/2000/svg">
<path d="M16.8739 9.04568C16.2942 9.04568 15.8801 9.46062 15.8801 10.0415C15.8801 10.7054 15.7145 11.3693 15.4661 12.0332C15.2176 12.6971 14.8035 13.278 14.3066 13.693C13.8098 14.1079 13.23 14.5228 12.6503 14.8548C11.9878 15.1038 11.3253 15.2697 10.6628 15.2697H9.2549C9.00646 15.2697 8.84083 15.2697 8.59238 15.2697C8.01267 15.2697 7.59859 15.6847 7.51578 16.1826C7.51578 16.7635 7.92986 17.1784 8.42675 17.2614C8.59238 17.2614 8.75801 17.2614 8.92364 17.2614V19.0042C8.92364 19.5851 9.33772 20 9.91743 20C10.4971 20 10.9112 19.5851 10.9112 19.0042V17.2614C11.7394 17.2614 12.5675 17.0125 13.3957 16.7635C14.3066 16.4315 15.052 15.8506 15.7145 15.1867C16.377 14.5228 16.8739 13.693 17.288 12.8631C17.6193 11.9502 17.8677 11.0374 17.8677 10.1245C17.8677 9.46061 17.4536 9.04568 16.8739 9.04568Z" fill="#3A4757"/>
<path d="M11.4077 13.4439C11.5733 13.4439 11.6561 13.4439 11.8218 13.3609C12.8156 12.946 13.6437 12.1161 14.0578 11.1203C14.3062 10.6224 14.0578 10.0414 13.5609 9.79248C13.064 9.54352 12.4843 9.79248 12.2358 10.2904C11.9874 10.8713 11.5733 11.2863 10.9936 11.5352C10.4967 11.7842 10.2483 12.3651 10.4967 12.863C10.6624 13.2779 10.9936 13.4439 11.4077 13.4439Z" fill="#3A4757"/>
<path d="M19.6894 0.331949C19.2753 -0.0829873 18.6956 -0.0829873 18.2815 0.331949L14.472 4.14937C14.3892 3.07053 13.9751 2.07468 13.147 1.3278C12.3188 0.497924 11.1594 0 9.99997 0C8.84055 0.0829873 7.76395 0.497924 6.9358 1.3278C6.10764 2.15767 5.61075 3.31949 5.61075 4.48131V9.29458C5.61075 9.95848 5.77638 10.7054 6.10764 11.2863C6.27327 11.5352 6.4389 11.7842 6.60454 12.0332L5.3623 13.278C5.11386 12.946 4.86541 12.5311 4.61696 12.1161C4.2857 11.4522 4.12007 10.7054 4.12007 9.95848C4.12007 9.37757 3.70599 8.96263 3.12628 8.96263C2.54658 8.96263 2.1325 9.37757 2.1325 9.95848C2.1325 10.9543 2.38095 12.0332 2.79502 12.946C3.04347 13.5269 3.45755 14.1078 3.87162 14.6058L0.310558 18.1742C-0.103519 18.5892 -0.103519 19.1701 0.310558 19.585C0.476189 19.751 0.724635 19.917 0.973082 19.917C1.22153 19.917 1.46997 19.834 1.63561 19.585L8.50929 12.6971L19.6894 1.74273C20.1035 1.3278 20.1035 0.746886 19.6894 0.331949Z" fill="#3A4757"/>
</svg>