<svg width="15" height="15" viewBox="0 0 15 15" fill="none" xmlns="http://www.w3.org/2000/svg">
<path fill-rule="evenodd" clip-rule="evenodd" d="M13.2143 0C14.2005 0 15 0.799492 15 1.78571V13.2143C15 14.2005 14.2005 15 13.2143 15H1.78571C0.799492 15 0 14.2005 0 13.2143V1.78571C0 0.799492 0.799492 0 1.78571 0H13.2143ZM13.1842 0.75H1.81579C1.22717 0.75 0.75 1.22717 0.75 1.81579V13.1842C0.75 13.7728 1.22717 14.25 1.81579 14.25H13.1842C13.7728 14.25 14.25 13.7728 14.25 13.1842V1.81579C14.25 1.22717 13.7728 0.75 13.1842 0.75ZM10.875 1.5C11.0591 1.5 11.2122 1.63266 11.244 1.80759L11.25 1.875V2.25H12.3462C12.5469 2.25 12.7134 2.39645 12.7447 2.58834L12.75 2.65385V3.75H13.125C13.3321 3.75 13.5 3.91789 13.5 4.125C13.5 4.30909 13.3673 4.46221 13.1924 4.49396L13.125 4.5H12.75V6H13.125C13.3321 6 13.5 6.16789 13.5 6.375C13.5 6.55909 13.3673 6.71221 13.1924 6.74396L13.125 6.75H12.75V8.25H13.125C13.3321 8.25 13.5 8.41789 13.5 8.625C13.5 8.8091 13.3673 8.96221 13.1924 8.99396L13.125 9H12.75V10.5H13.125C13.3321 10.5 13.5 10.6679 13.5 10.875C13.5 11.0591 13.3673 11.2122 13.1924 11.244L13.125 11.25H12.75V12.3462C12.75 12.5469 12.6035 12.7134 12.4117 12.7447L12.3462 12.75H11.25V13.125C11.25 13.3321 11.0821 13.5 10.875 13.5C10.6909 13.5 10.5378 13.3673 10.506 13.1924L10.5 13.125V12.75H9V13.125C9 13.3321 8.83211 13.5 8.625 13.5C8.4409 13.5 8.28779 13.3673 8.25604 13.1924L8.25 13.125V12.75H6.75V13.125C6.75 13.3321 6.58211 13.5 6.375 13.5C6.19091 13.5 6.03779 13.3673 6.00604 13.1924L6 13.125V12.75H4.5V13.125C4.5 13.3321 4.33211 13.5 4.125 13.5C3.94091 13.5 3.78779 13.3673 3.75604 13.1924L3.75 13.125V12.75H2.65385C2.45311 12.75 2.28658 12.6035 2.25529 12.4117L2.25 12.3462V11.25H1.875C1.66789 11.25 1.5 11.0821 1.5 10.875C1.5 10.6909 1.63266 10.5378 1.80759 10.506L1.875 10.5H2.25V9H1.875C1.66789 9 1.5 8.83211 1.5 8.625C1.5 8.4409 1.63266 8.28779 1.80759 8.25604L1.875 8.25H2.25V6.75H1.875C1.66789 6.75 1.5 6.58211 1.5 6.375C1.5 6.19091 1.63266 6.03779 1.80759 6.00604L1.875 6H2.25V4.5H1.875C1.66789 4.5 1.5 4.33211 1.5 4.125C1.5 3.94091 1.63266 3.78779 1.80759 3.75604L1.875 3.75H2.25V2.65385C2.25 2.45311 2.39645 2.28658 2.58834 2.25529L2.65385 2.25H3.75V1.875C3.75 1.66789 3.91789 1.5 4.125 1.5C4.30909 1.5 4.46221 1.63266 4.49396 1.80759L4.5 1.875V2.25H6V1.875C6 1.66789 6.16789 1.5 6.375 1.5C6.55909 1.5 6.71221 1.63266 6.74396 1.80759L6.75 1.875V2.25H8.25V1.875C8.25 1.66789 8.41789 1.5 8.625 1.5C8.8091 1.5 8.96221 1.63266 8.99396 1.80759L9 1.875V2.25H10.5V1.875C10.5 1.66789 10.6679 1.5 10.875 1.5ZM4.1175 2.99925L3 3L2.99992 4.11735C2.99997 4.11989 3 4.12244 3 4.125L2.99925 4.1325L2.99992 6.36735C2.99997 6.36989 3 6.37244 3 6.375L2.99925 6.3825L2.99992 8.61735C2.99997 8.61989 3 8.62244 3 8.625L2.99925 8.6325L2.99992 10.8673C2.99997 10.8699 3 10.8724 3 10.875L2.99925 10.8825L3 12H12V3L10.8827 2.99992C10.8802 2.99997 10.8776 3 10.875 3L10.8675 2.99925L8.63274 2.99992C8.63016 2.99997 8.62759 3 8.625 3L8.6175 2.99925L6.38274 2.99992C6.38017 2.99997 6.37759 3 6.375 3L6.3675 2.99925L4.13274 2.99992C4.13017 2.99997 4.12759 3 4.125 3L4.1175 2.99925Z" fill="#3A4757"/>
</svg>