<svg width="20" height="20" viewBox="0 0 20 20" fill="none" xmlns="http://www.w3.org/2000/svg">
<path d="M16.9784 9.00002C16.3979 9.00002 15.9833 9.41669 15.9833 10C15.9833 10.6667 15.8175 11.3333 15.5687 12C15.3199 12.6667 14.9053 13.25 14.4078 13.6667C13.9102 14.1667 13.3298 14.5 12.7493 14.8333C12.086 15.0833 11.4226 15.1667 10.7592 15.25H9.34955C9.10078 15.25 8.93494 15.25 8.68617 15.25C8.10572 15.25 7.69111 15.6667 7.60819 16.1667C7.60819 16.75 8.0228 17.1667 8.52033 17.25C8.68617 17.25 8.85202 17.25 9.01786 17.25V19C9.01786 19.5833 9.43247 20 10.0129 20C10.5934 20 11.008 19.5833 11.008 19V17.25C11.8372 17.25 12.6664 17 13.4956 16.75C14.4078 16.4167 15.1541 15.8333 15.8175 15.1667C16.4808 14.5 16.9784 13.6667 17.393 12.8333C17.7247 11.9167 17.9734 11 17.9734 10.0834C17.9734 9.50002 17.4759 9.00002 16.9784 9.00002Z" fill="#3A4757"/>
<path d="M19.7147 0.333333C19.3001 -0.0833332 18.7196 -0.0833332 18.305 0.333333L14.4906 4.16666C14.4077 3.08333 13.9931 2.08333 13.1638 1.33333C12.3346 0.499999 11.1737 0 10.0128 0C8.85191 0 7.77392 0.499999 6.94471 1.33333C6.11549 2.16666 5.61796 3.33333 5.61796 4.49999V9.33332C5.61796 9.99998 5.7838 10.75 6.11549 11.3333C6.28133 11.5833 6.44718 11.8333 6.61302 12.0833L5.36919 13.3333C5.12042 13 4.87166 12.5833 4.62289 12.1666C4.29121 11.5 4.12536 10.75 4.12536 9.99998C4.12536 9.41665 3.71075 8.99998 3.1303 8.99998C2.54985 8.99998 2.13524 9.41665 2.13524 9.99998C2.13524 11 2.384 12.0833 2.79861 13C3.04738 13.5833 3.46199 14.1666 3.8766 14.6666L0.310957 18.25C-0.103652 18.6666 -0.103652 19.25 0.310957 19.6666C0.476801 19.8333 0.725566 20 0.974332 20C1.2231 20 1.47186 19.9166 1.63771 19.6666L13.9101 7.33332C13.9101 7.33332 13.9101 7.33332 13.9931 7.24999L19.4659 1.75C20.1293 1.33333 20.1293 0.749999 19.7147 0.333333ZM12.5005 6.16666L8.02269 10.6666C7.93977 10.5833 7.93977 10.5 7.85685 10.4166C7.691 10.0833 7.60808 9.66665 7.60808 9.33332V4.49999C7.60808 3.83333 7.85685 3.24999 8.35438 2.75C8.85191 2.25 9.43236 2 10.0957 2C10.7591 2 11.3396 2.25 11.8371 2.75C12.3346 3.24999 12.5834 3.83333 12.5834 4.49999V6.16666H12.5005Z" fill="#3A4757"/>
<path d="M11.4226 13.4999C11.5884 13.4999 11.6713 13.4999 11.8372 13.4166C12.8322 12.9999 13.6615 12.1666 14.0761 11.1666C14.3248 10.6666 14.0761 10.0833 13.5785 9.83327C13.081 9.58327 12.5005 9.83327 12.2518 10.3333C12.003 10.9166 11.5884 11.3333 11.008 11.5833C10.5104 11.8333 10.2617 12.4166 10.5104 12.9166C10.6763 13.2499 11.0909 13.4999 11.4226 13.4999Z" fill="#3A4757"/>
</svg>