<svg width="16" height="20" viewBox="0 0 16 20" fill="none" xmlns="http://www.w3.org/2000/svg">
<path d="M7.99994 0C6.80764 0 5.66418 0.468824 4.82111 1.30334C3.97803 2.13785 3.50439 3.26969 3.50439 4.44987V9.30623C3.50439 10.4864 3.97803 11.6182 4.82111 12.4528C5.66418 13.2873 6.80764 13.7561 7.99994 13.7561C9.19223 13.7561 10.3357 13.2873 11.1788 12.4528C12.0218 11.6182 12.4955 10.4864 12.4955 9.30623V4.44987C12.4955 3.26969 12.0218 2.13785 11.1788 1.30334C10.3357 0.468824 9.19223 0 7.99994 0Z" fill="#3A4757"/>
<path d="M1.98224 10.0022C1.98346 9.46034 1.54071 9.02013 0.993337 9.01893C0.445963 9.01772 0.0012386 9.45597 1.81103e-05 9.99778C-0.00212109 10.9475 0.185273 11.8882 0.55144 12.766C0.917607 13.6438 1.45534 14.4413 2.13375 15.1128C2.81217 15.7844 3.6179 16.3166 4.5047 16.6791C5.30127 17.0046 6.14914 17.1874 7.00878 17.2197V19.019C7.00878 19.5608 7.45252 20 7.99989 20C8.54727 20 8.991 19.5608 8.991 19.019V17.2197C9.85071 17.1875 10.6987 17.0047 11.4953 16.6791C12.3821 16.3166 13.1878 15.7844 13.8662 15.1128C14.5447 14.4413 15.0824 13.6438 15.4486 12.766C15.8147 11.8882 16.0021 10.9475 16 9.99778C15.9988 9.45597 15.554 9.01772 15.0067 9.01893C14.4593 9.02013 14.0165 9.46034 14.0178 10.0022C14.0193 10.6934 13.8829 11.3782 13.6164 12.0171C13.3498 12.6561 12.9584 13.2366 12.4646 13.7254C11.9708 14.2142 11.3843 14.6017 10.7388 14.8655C10.0933 15.1293 9.40146 15.2644 8.7031 15.2628L8.70089 15.2628L7.29911 15.2628L7.2969 15.2628C6.59853 15.2644 5.90674 15.1293 5.26123 14.8655C4.61572 14.6017 4.02922 14.2142 3.53539 13.7254C3.04157 13.2366 2.65016 12.6561 2.38362 12.0171C2.11708 11.3782 1.98068 10.6934 1.98224 10.0022Z" fill="#3A4757"/>
</svg>