<svg width="16" height="20" viewBox="0 0 16 20" fill="none" xmlns="http://www.w3.org/2000/svg">
<path fill-rule="evenodd" clip-rule="evenodd" d="M7.99993 2C7.34075 2 6.70857 2.25934 6.24246 2.72097C5.77635 3.18259 5.5145 3.80869 5.5145 4.46153V9.30768C5.5145 9.96052 5.77635 10.5866 6.24246 11.0482C6.70857 11.5099 7.34075 11.7692 7.99993 11.7692C8.65911 11.7692 9.29128 11.5099 9.75739 11.0482C10.2235 10.5866 10.4854 9.96052 10.4854 9.30768V4.46153C10.4854 3.80869 10.2235 3.18259 9.75739 2.72097C9.29128 2.25934 8.65911 2 7.99993 2ZM4.81452 1.30675C5.65934 0.470053 6.80517 0 7.99993 0C9.19469 0 10.3405 0.470053 11.1853 1.30675C12.0302 2.14345 12.5048 3.27826 12.5048 4.46153V9.30768C12.5048 10.491 12.0302 11.6258 11.1853 12.4625C10.3405 13.2992 9.19469 13.7692 7.99993 13.7692C6.80517 13.7692 5.65934 13.2992 4.81452 12.4625C3.9697 11.6258 3.49508 10.491 3.49508 9.30768V4.46153C3.49508 3.27826 3.9697 2.14345 4.81452 1.30675ZM1.01198 8.99996C1.56962 9.00119 2.02067 9.4499 2.01943 10.0022C2.01788 10.6892 2.15338 11.3698 2.41814 12.0049C2.6829 12.6399 3.07171 13.2169 3.56225 13.7027C4.05278 14.1886 4.63538 14.5736 5.27659 14.8358C5.91781 15.0981 6.605 15.2323 7.29872 15.2307L7.30097 15.2307L8.69903 15.2307L8.70128 15.2307C9.395 15.2323 10.0822 15.0981 10.7234 14.8358C11.3646 14.5736 11.9472 14.1886 12.4377 13.7027C12.9283 13.2169 13.3171 12.6399 13.5819 12.0049C13.8466 11.3698 13.9821 10.6892 13.9806 10.0022C13.9793 9.4499 14.4304 9.00119 14.988 8.99996C15.5457 8.99873 15.9987 9.44544 16 9.99773C16.0021 10.9482 15.8147 11.8897 15.4484 12.7682C15.0822 13.6467 14.5443 14.4449 13.8657 15.1169C13.1871 15.789 12.3812 16.3217 11.4941 16.6845C10.7036 17.0077 9.86253 17.1903 9.00958 17.2248V19C9.00958 19.5523 8.55752 20 7.99987 20C7.44223 20 6.99016 19.5523 6.99016 19V17.2247C6.1373 17.1903 5.29633 17.0077 4.50588 16.6845C3.61885 16.3217 2.8129 15.789 2.13431 15.1169C1.45571 14.4449 0.917846 13.6467 0.551584 12.7682C0.185321 11.8897 -0.0021217 10.9482 1.8116e-05 9.99773C0.0012614 9.44544 0.45433 8.99873 1.01198 8.99996Z" fill="#3A4757"/>
</svg>