<svg width="17" height="17" viewBox="0 0 17 17" fill="none" xmlns="http://www.w3.org/2000/svg">
<path fill-rule="evenodd" clip-rule="evenodd" d="M8.5 0C13.1944 0 17 3.80558 17 8.5C16.9988 9.73502 16.7346 10.9084 16.2602 11.9672C16.2624 11.9773 16.2629 11.9885 16.2629 11.9998C16.2629 12.1284 16.1975 12.2424 16.097 12.3126C14.6982 15.0901 11.822 16.9969 8.5 17C3.80558 17 0 13.1944 0 8.5C0 3.80558 3.80558 0 8.5 0ZM15.1479 12.3869H1.85205C3.18856 14.6679 5.6654 16.1996 8.5 16.1996C11.3346 16.1996 13.8114 14.6679 15.1479 12.3869ZM8.5 0.800376C4.24762 0.800376 0.800376 4.24762 0.800376 8.5C0.800376 9.60814 1.03447 10.6616 1.45591 11.6136L7.90345 11.6133L10.1468 8.64697C10.2756 8.48231 10.5072 8.45158 10.6722 8.57729C10.8365 8.71074 10.8666 8.9555 10.7397 9.12702L8.85932 11.6133L15.5441 11.6136C15.9655 10.6616 16.1996 9.60814 16.1996 8.5C16.1952 4.24944 12.7506 0.804788 8.5 0.800376ZM4.25 5.79545C4.25 6.00884 4.07702 6.18182 3.86364 6.18182C3.67396 6.18182 3.51621 6.04514 3.4835 5.8649L3.47727 5.79545V4.25C3.47727 4.03662 3.65025 3.86364 3.86364 3.86364C4.05331 3.86364 4.21106 4.00031 4.24377 4.18055L4.25 4.25L4.24923 4.63559H8.11286L8.11364 4.25C8.11364 4.03662 8.28662 3.86364 8.5 3.86364C8.68967 3.86364 8.84742 4.00031 8.88014 4.18055L8.88636 4.25L8.88559 4.63559H12.7492L12.75 4.25C12.75 4.03662 12.923 3.86364 13.1364 3.86364C13.326 3.86364 13.4838 4.00031 13.5165 4.18055L13.5227 4.25V5.79545C13.5227 6.00884 13.3497 6.18182 13.1364 6.18182C12.9467 6.18182 12.7889 6.04514 12.7562 5.8649L12.75 5.79545L12.7492 5.40832H8.88559L8.88636 5.79545C8.88636 6.00884 8.71338 6.18182 8.5 6.18182C8.31033 6.18182 8.15258 6.04514 8.11986 5.8649L8.11364 5.79545L8.11286 5.40832H4.24923L4.25 5.79545Z" fill="#3A4757"/>
</svg>