<svg width="20" height="21" viewBox="0 0 20 21" fill="none" xmlns="http://www.w3.org/2000/svg">
<path d="M5.90895 9.14471C5.3429 9.14471 4.88402 9.59243 4.88402 10.1447C4.88402 10.697 5.3429 11.1447 5.90895 11.1447H14.4238C14.9898 11.1447 15.4487 10.697 15.4487 10.1447C15.4487 9.59243 14.9898 9.14471 14.4238 9.14471H5.90895Z" fill="#3A4757"/>
<path fill-rule="evenodd" clip-rule="evenodd" d="M10 0.199707C4.45086 0.199707 0 4.70286 0 10.1997C0 15.6965 4.45086 20.1997 10 20.1997C15.5491 20.1997 20 15.6965 20 10.1997C20 4.70286 15.5491 0.199707 10 0.199707ZM2.04986 10.1997C2.04986 5.75542 5.63555 2.19971 10 2.19971C14.3644 2.19971 17.9501 5.75542 17.9501 10.1997C17.9501 14.644 14.3644 18.1997 10 18.1997C5.63555 18.1997 2.04986 14.644 2.04986 10.1997Z" fill="#3A4757"/>
</svg>