<svg width="20" height="20" viewBox="0 0 20 20" fill="none" xmlns="http://www.w3.org/2000/svg">
<path d="M5.90895 8.94501C5.3429 8.94501 4.88402 9.39272 4.88402 9.94501C4.88402 10.4973 5.3429 10.945 5.90895 10.945H14.4238C14.9898 10.945 15.4487 10.4973 15.4487 9.94501C15.4487 9.39272 14.9898 8.94501 14.4238 8.94501H5.90895Z" fill="#3A4757"/>
<path fill-rule="evenodd" clip-rule="evenodd" d="M10 0C4.45086 0 0 4.50316 0 10C0 15.4968 4.45086 20 10 20C15.5491 20 20 15.4968 20 10C20 4.50316 15.5491 0 10 0ZM2.04986 10C2.04986 5.55572 5.63555 2 10 2C14.3644 2 17.9501 5.55572 17.9501 10C17.9501 14.4443 14.3644 18 10 18C5.63555 18 2.04986 14.4443 2.04986 10Z" fill="#3A4757"/>
</svg>