<svg width="12" height="20" viewBox="0 0 12 20" fill="none" xmlns="http://www.w3.org/2000/svg">
<path d="M6.66628 16.9084C6.66628 17.2844 6.36787 17.5892 5.99976 17.5892C5.63165 17.5892 5.33324 17.2844 5.33324 16.9084C5.33324 16.5325 5.63165 16.2277 5.99976 16.2277C6.36787 16.2277 6.66628 16.5325 6.66628 16.9084Z" fill="#3A4757"/>
<path fill-rule="evenodd" clip-rule="evenodd" d="M2.96436 0C1.32719 0 0 1.35545 0 3.02749V16.9725C0 18.6445 1.32719 20 2.96437 20H9.03563C10.6728 20 12 18.6445 12 16.9725V3.02749C12 1.35545 10.6728 0 9.03563 0H2.96436ZM1.97624 3.02749C1.97624 2.47014 2.41864 2.01833 2.96436 2.01833H3.96C3.95998 2.0213 3.95996 2.02428 3.95996 2.02727C3.95996 2.58461 4.40236 3.03643 4.94809 3.03643H7.0517C7.59743 3.03643 8.03983 2.58461 8.03983 2.02727C8.03983 2.02428 8.03981 2.0213 8.03979 2.01833H9.03563C9.58136 2.01833 10.0238 2.47014 10.0238 3.02749V13.8643H1.97624V3.02749ZM1.97624 15.8826V16.9725C1.97624 17.5299 2.41864 17.9817 2.96437 17.9817H9.03563C9.58136 17.9817 10.0238 17.5299 10.0238 16.9725V15.8826H1.97624Z" fill="#3A4757"/>
</svg>