<svg width="10" height="16" viewBox="0 0 10 16" fill="none" xmlns="http://www.w3.org/2000/svg">
<path fill-rule="evenodd" clip-rule="evenodd" d="M8.20001 0.5C8.90001 0.5 9.40001 1 9.40001 1.7V14.4C9.40001 15 8.90001 15.6 8.20001 15.6H1.80001C1.10001 15.6 0.600006 15.1 0.600006 14.4V1.7C0.600006 1.1 1.10001 0.5 1.80001 0.5H8.20001ZM8.70001 13.2H1.30001V14.3C1.30001 14.5 1.50001 14.7 1.70001 14.7H1.80001H8.30001C8.60001 14.7 8.80001 14.5 8.80001 14.3V13.2H8.70001ZM8.70001 3.5H1.30001V12.5H8.70001V3.5ZM5.00001 9.4C5.20001 9.4 5.40001 9.6 5.40001 9.8C5.40001 10 5.20001 10.2 5.00001 10.2C4.80001 10.2 4.60001 10 4.60001 9.8C4.50001 9.6 4.70001 9.4 5.00001 9.4ZM6.10001 5.4C6.40001 5.7 6.50001 6.1 6.50001 6.5C6.50001 7 6.30001 7.5 5.90001 7.8C5.60001 8 5.40001 8.3 5.40001 8.6C5.40001 8.8 5.20001 9 5.00001 9C4.90001 9 4.80001 9 4.70001 8.9C4.60001 8.8 4.60001 8.7 4.60001 8.6C4.60001 8.1 4.80001 7.7 5.20001 7.4C5.50001 7.2 5.70001 6.9 5.70001 6.5C5.70001 6.3 5.70001 6.1 5.50001 5.9C5.40001 5.7 5.20001 5.7 4.90001 5.7C4.60001 5.7 4.30001 5.9 4.20001 6.2C4.20001 6.4 4.00001 6.5 3.80001 6.5C3.60001 6.5 3.40001 6.3 3.40001 6.1C3.40001 6 3.40001 6 3.40001 5.9C3.60001 5.3 4.20001 4.9 4.80001 4.9C5.40001 5 5.80001 5.1 6.10001 5.4ZM8.20001 1.2H1.80001C1.50001 1.2 1.30001 1.4 1.30001 1.6V2.7H8.70001V1.7C8.70001 1.4 8.50001 1.3 8.20001 1.2Z" fill="#3A4757"/>
</svg>