<svg width="16" height="20" viewBox="0 0 16 20" fill="none" xmlns="http://www.w3.org/2000/svg">
<path d="M5.95972 17.8585H2.69527C2.37719 17.8585 2.12608 17.6003 2.12608 17.2921V16.7257H5.95135C6.53727 16.7257 7.01439 16.2509 7.01439 15.6678C7.01439 15.0848 6.53727 14.61 5.95135 14.61H2.12608V5.35589H11.4256V12.4193C11.4256 13.0024 11.9027 13.4772 12.4886 13.4772C13.0745 13.4772 13.5517 13.0024 13.5517 12.4193V2.68211C13.5517 1.19945 12.3463 0 10.8564 0H2.69527C1.20534 0 0 1.19945 0 2.68211V17.2921C0 18.7748 1.20534 19.9742 2.69527 19.9742H5.95972C6.54564 19.9742 7.02276 19.4994 7.02276 18.9164C7.02276 18.3333 6.54564 17.8585 5.95972 17.8585ZM11.4256 3.24852H2.12608V2.68211C2.12608 2.36559 2.38556 2.1157 2.69527 2.1157H10.8564C11.1745 2.1157 11.4256 2.37392 11.4256 2.68211V3.24852Z" fill="#3A4757"/>
<path d="M15.6861 13.7354L15.5103 13.5605L15.4936 13.5855C15.0834 13.3356 14.5477 13.3856 14.1878 13.7437L10.463 17.4504L9.27439 16.2676C8.85587 15.8511 8.18624 15.8511 7.77609 16.2676C7.36594 16.684 7.36594 17.3504 7.77609 17.7586L9.71802 19.691C9.76824 19.741 9.82684 19.791 9.88543 19.8243C10.2956 20.0992 10.8564 20.0492 11.2163 19.691H11.2247V19.6827L15.6861 15.243C16.1046 14.8266 16.1046 14.1602 15.6861 13.7521V13.7354Z" fill="#3A4757"/>
</svg>