<svg width="9" height="16" viewBox="0 0 9 16" fill="none" xmlns="http://www.w3.org/2000/svg">
<path fill-rule="evenodd" clip-rule="evenodd" d="M7.6 0C8.3 0 8.8 0.5 8.8 1.2V13.9C8.8 14.5 8.3 15.1 7.6 15.1H1.2C0.5 15.1 0 14.6 0 13.9V1.2C0 0.6 0.5 0 1.2 0H7.6ZM8.1 12.7H0.7V13.8C0.7 14 0.9 14.2 1.1 14.2H1.2H7.7C8 14.2 8.2 14 8.2 13.8V12.7H8.1ZM8.1 3H0.7V12H8.1V3ZM4.4 8.9C4.6 8.9 4.8 9.1 4.8 9.3C4.8 9.5 4.6 9.7 4.4 9.7C4.2 9.7 4 9.5 4 9.3C3.9 9.1 4.1 8.9 4.4 8.9ZM5.5 4.9C5.8 5.2 5.9 5.6 5.9 6C5.9 6.5 5.7 7 5.3 7.3C5 7.5 4.8 7.8 4.8 8.1C4.8 8.3 4.6 8.5 4.4 8.5C4.3 8.5 4.2 8.5 4.1 8.4C4 8.3 4 8.2 4 8.1C4 7.6 4.2 7.2 4.6 6.9C4.9 6.7 5.1 6.4 5.1 6C5.1 5.8 5.1 5.6 4.9 5.4C4.8 5.2 4.6 5.2 4.3 5.2C4 5.2 3.7 5.4 3.6 5.7C3.6 5.9 3.4 6 3.2 6C3 6 2.8 5.8 2.8 5.6C2.8 5.5 2.8 5.5 2.8 5.4C3 4.8 3.6 4.4 4.2 4.4C4.8 4.5 5.2 4.6 5.5 4.9ZM7.6 0.7H1.2C0.9 0.7 0.7 0.9 0.7 1.1V2.2H8.1V1.2C8.1 0.9 7.9 0.8 7.6 0.7Z" fill="#3A4757"/>
</svg>