<svg width="10" height="15" viewBox="0 0 10 15" fill="none" xmlns="http://www.w3.org/2000/svg">
<path fill-rule="evenodd" clip-rule="evenodd" d="M8.8 0C9.46274 0 10 0.518071 10 1.15714V13.8429C10 14.4819 9.46274 15 8.8 15H2.31111C1.64837 15 1.11111 14.4819 1.11111 13.8429V1.15714C1.11111 0.518071 1.64837 0 2.31111 0H8.8ZM9.25926 12.75H1.85185V13.8429C1.85185 14.063 2.0184 14.2456 2.23662 14.2799L2.31111 14.2857H8.8C9.05364 14.2857 9.25926 14.0874 9.25926 13.8429V12.75ZM9.25926 2.99925H1.85185V11.9993H9.25926V2.99925ZM5.8158 3.86151C5.94632 3.99366 5.96082 4.19881 5.8593 4.34719L5.8158 4.39991L3.60485 6.63849C3.45801 6.78717 3.21994 6.78717 3.07309 6.63849C2.94257 6.50634 2.92807 6.30119 3.02959 6.15281L3.07309 6.10009L5.28404 3.86151C5.43088 3.71283 5.66895 3.71283 5.8158 3.86151ZM0.384615 3C0.573431 3 0.730468 3.1234 0.763034 3.28613L0.769231 3.34884V5.65116C0.769231 5.84382 0.597033 6 0.384615 6C0.1958 6 0.0387629 5.8766 0.00619676 5.71387L0 5.65116V3.34884C0 3.15618 0.172198 3 0.384615 3ZM4.32863 3.49226C4.46589 3.63124 4.48114 3.84697 4.37438 4.003L4.32863 4.05845L2.89723 5.50774C2.74282 5.66409 2.49245 5.66409 2.33804 5.50774C2.20077 5.36876 2.18552 5.15303 2.29228 4.997L2.33804 4.94155L3.76943 3.49226C3.92385 3.33591 4.17421 3.33591 4.32863 3.49226ZM8.8 0.714286H2.31111C2.05747 0.714286 1.85185 0.91256 1.85185 1.15714V2.25H9.25926V1.15714C9.25926 0.937018 9.09271 0.754404 8.87449 0.720082L8.8 0.714286Z" fill="#3A4757"/>
</svg>