<svg width="20" height="20" viewBox="0 0 20 20" fill="none" xmlns="http://www.w3.org/2000/svg">
<path d="M15.8086 8.04878C15.5207 8.04878 15.2583 8.14634 15.055 8.34146C14.8603 8.53658 14.7587 8.77236 14.7587 9.04878V15.3252C14.7587 15.6098 14.8518 15.8537 15.055 16.0569C15.2583 16.252 15.5123 16.3496 15.8086 16.3496C16.105 16.3496 16.359 16.252 16.5622 16.0569C16.757 15.8618 16.8586 15.626 16.8586 15.3496V9.07317C16.8586 8.78862 16.7655 8.54471 16.5622 8.34146C16.359 8.14634 16.105 8.04878 15.8086 8.04878Z" fill="#3A4757"/>
<path d="M18.84 6.45528C19.1533 6.45528 19.4242 6.34959 19.6528 6.13821C19.8815 5.92683 19.9915 5.65854 19.9915 5.34959C19.9915 5.12195 19.9407 4.91057 19.8307 4.71545C19.7206 4.52033 19.5597 4.36585 19.3649 4.25203L10.9568 0.211382C10.6605 0.0731707 10.3387 0 10 0C9.6613 0 9.34801 0.0650406 9.04318 0.203252L0.685859 4.26829C0.685859 4.26829 0.685859 4.26829 0.694327 4.26829L0.787468 4.49593L0.668925 4.27642C0.448772 4.36585 0.279424 4.5122 0.160881 4.71545C0.0508044 4.91057 0 5.12195 0 5.34959C0 5.65854 0.110076 5.92683 0.338696 6.13821C0.558848 6.34959 0.838273 6.45528 1.15157 6.45528H18.84Z" fill="#3A4757"/>
<path d="M18.9754 17.9512H1.04996C0.762066 17.9512 0.499577 18.0488 0.304826 18.2439C0.101609 18.439 0.0084674 18.6911 0.0084674 18.9756C0.0084674 19.2602 0.101609 19.5041 0.287892 19.6992C0.482642 19.9024 0.736664 20 1.03302 20H18.95C19.2379 20 19.5004 19.9024 19.7036 19.7073C19.9069 19.5122 20 19.2602 20 18.9756C20 18.6911 19.9069 18.4472 19.7206 18.252C19.5258 18.0488 19.2718 17.9512 18.9754 17.9512Z" fill="#3A4757"/>
<path d="M3.44623 8.34146C3.25148 8.53658 3.14987 8.77236 3.14987 9.04878V15.3252C3.14987 15.6098 3.24301 15.8618 3.44623 16.0569C3.64945 16.252 3.90347 16.3496 4.19136 16.3496C4.47925 16.3496 4.74174 16.252 4.93649 16.0569C5.13124 15.8618 5.23285 15.626 5.23285 15.3496V9.07317C5.23285 8.78862 5.13971 8.53658 4.93649 8.34146C4.73328 8.14634 4.47925 8.04878 4.19136 8.04878C3.90347 8.04878 3.64098 8.14634 3.44623 8.34146Z" fill="#3A4757"/>
<path d="M10 8.04878C9.71211 8.04878 9.44962 8.14634 9.25487 8.34146C9.06012 8.53658 8.95851 8.77236 8.95851 9.04878V15.3252C8.95851 15.6098 9.05165 15.8618 9.25487 16.0569C9.45809 16.252 9.71211 16.3496 10 16.3496C10.2879 16.3496 10.5504 16.252 10.7536 16.0569C10.9483 15.8618 11.05 15.626 11.05 15.3496V9.07317C11.05 8.78862 10.9568 8.54471 10.7536 8.34146C10.5504 8.14634 10.2964 8.04878 10 8.04878Z" fill="#3A4757"/>
</svg>