<svg width="20" height="20" viewBox="0 0 20 20" fill="none" xmlns="http://www.w3.org/2000/svg">
<path d="M1.16762 6.4661H18.8324C19.1508 6.4661 19.425 6.35593 19.655 6.14407C19.885 5.9322 20 5.66102 20 5.34746C20 5.11864 19.9469 4.8983 19.8408 4.70339C19.7258 4.50847 19.5754 4.34746 19.372 4.23729L10.9686 0.211864C10.6678 0.0677966 10.3494 0 10.0133 0C9.67713 0 9.35869 0.0677966 9.05794 0.20339L0.68996 4.26271C0.459973 4.35593 0.291906 4.50847 0.168067 4.71186C0.0619195 4.90678 0 5.12712 0 5.35593C0 5.66102 0.114993 5.9322 0.34498 6.15254C0.566121 6.36441 0.849182 6.47458 1.16762 6.47458V6.4661ZM5.13932 4.3983L9.99558 2.07627L14.8518 4.3983H5.13932Z" fill="#3A4757"/>
<path d="M15.8072 8.04237C15.5153 8.04237 15.2499 8.14407 15.0464 8.33898C14.8518 8.5339 14.7457 8.77966 14.7457 9.05085V15.322C14.7457 15.6102 14.843 15.8559 15.0464 16.0593C15.2499 16.2627 15.5064 16.3559 15.8072 16.3559C16.1079 16.3559 16.3644 16.2542 16.5679 16.0593C16.7625 15.8644 16.8686 15.6186 16.8686 15.3475V9.07627C16.8686 8.78813 16.7713 8.54237 16.5679 8.33898C16.3644 8.13559 16.1079 8.04237 15.8072 8.04237Z" fill="#3A4757"/>
<path d="M3.4498 8.33898C3.2552 8.5339 3.14905 8.77966 3.14905 9.05085V15.322C3.14905 15.6102 3.24635 15.8559 3.4498 16.0593C3.65325 16.2627 3.90977 16.3559 4.21053 16.3559C4.51128 16.3559 4.7678 16.2542 4.97125 16.0593C5.16586 15.8644 5.272 15.6186 5.272 15.3475V9.07627C5.272 8.78813 5.1747 8.54237 4.97125 8.33898C4.7678 8.13559 4.51128 8.04237 4.21053 8.04237C3.90977 8.04237 3.65325 8.14407 3.4498 8.33898Z" fill="#3A4757"/>
<path d="M18.9739 17.9322H1.06148C0.769571 17.9322 0.504202 18.0339 0.300752 18.2288C0.0973021 18.4322 0 18.678 0 18.9661C0 19.2542 0.0884564 19.5 0.283061 19.6949C0.477665 19.8983 0.734188 20 1.03494 20H18.9385C19.2304 20 19.4958 19.8983 19.6992 19.7034C19.9027 19.5 20 19.2542 20 18.9661C20 18.678 19.9115 18.4322 19.7169 18.2373C19.5223 18.0339 19.2658 17.9322 18.9651 17.9322H18.9739Z" fill="#3A4757"/>
<path d="M10.0044 8.04237C9.71252 8.04237 9.44715 8.14407 9.2437 8.33898C9.04909 8.5339 8.94295 8.77966 8.94295 9.05085V15.322C8.94295 15.6102 9.04025 15.8559 9.2437 16.0593C9.44715 16.2627 9.70367 16.3559 10.0044 16.3559C10.3052 16.3559 10.5617 16.2542 10.7651 16.0593C10.9598 15.8644 11.0659 15.6186 11.0659 15.3475V9.07627C11.0659 8.78813 10.9686 8.54237 10.7651 8.33898C10.5617 8.13559 10.3052 8.04237 10.0044 8.04237Z" fill="#3A4757"/>
</svg>