<svg width="18" height="19" viewBox="0 0 18 19" fill="none" xmlns="http://www.w3.org/2000/svg">
<path d="M6.74899 1.17127C8.53512 1.67761 10.0502 2.86314 10.9678 4.4725C11.8854 6.08185 12.1322 7.98626 11.655 9.77553C11.1778 11.5648 10.0148 13.0957 8.41642 14.0386C6.81809 14.9815 4.91234 15.2609 3.10967 14.8166C2.99908 14.789 2.88244 14.7987 2.77797 14.8443C2.67351 14.8898 2.58711 14.9685 2.53229 15.0682C2.47746 15.1678 2.4573 15.2828 2.47494 15.3951C2.49259 15.5074 2.54706 15.6106 2.62983 15.6888C3.77729 16.7362 5.17614 17.4713 6.69153 17.823C8.20691 18.1748 9.78772 18.1313 11.2815 17.6969C12.7753 17.2625 14.1317 16.4518 15.22 15.3428C16.3083 14.2339 17.0917 12.8643 17.4947 11.3659C17.8977 9.86757 17.9067 8.29104 17.5208 6.78835C17.1349 5.28567 16.3672 3.9075 15.2917 2.78673C14.2162 1.66597 12.8691 0.8404 11.3804 0.38963C9.89161 -0.0611388 8.31141 -0.121906 6.7921 0.213187C6.68367 0.23504 6.58568 0.292422 6.51373 0.3762C6.44178 0.459978 6.4 0.565336 6.39504 0.675507C6.39009 0.785678 6.42224 0.894329 6.48638 0.984166C6.55052 1.074 6.64296 1.13987 6.74899 1.17127Z" fill="#3A4757"/>
<path fill-rule="evenodd" clip-rule="evenodd" d="M3.4534 6.52535C3.3445 6.23103 3.0638 6.03563 2.75 6.03563C2.4362 6.03563 2.1555 6.23103 2.0466 6.52535L1.6261 7.66174L0.4897 8.08224C0.1954 8.19115 0 8.4718 0 8.78563C0 9.09946 0.1954 9.38011 0.4897 9.48902L1.6261 9.90952L2.0466 11.0459C2.1555 11.3402 2.4362 11.5356 2.75 11.5356C3.0638 11.5356 3.3445 11.3402 3.4534 11.0459L3.8739 9.90952L5.0103 9.48902C5.3046 9.38011 5.5 9.09946 5.5 8.78563C5.5 8.4718 5.3046 8.19115 5.0103 8.08224L3.8739 7.66174L3.4534 6.52535ZM2.7301 8.78563C2.7369 8.77912 2.7435 8.77249 2.75 8.76574C2.7565 8.77249 2.7631 8.77912 2.7699 8.78563C2.7631 8.79214 2.7565 8.79877 2.75 8.80552C2.7435 8.79877 2.7369 8.79214 2.7301 8.78563Z" fill="#3A4757"/>
</svg>