<svg width="18" height="20" viewBox="0 0 18 20" fill="none" xmlns="http://www.w3.org/2000/svg">
<path d="M6.84714 2.14222C8.63327 2.64856 10.1483 3.83409 11.0659 5.44345C11.9836 7.0528 12.2304 8.95721 11.7531 10.7465C11.2759 12.5357 10.1129 14.0667 8.51457 15.0096C6.91623 15.9525 5.01049 16.2318 3.20782 15.7875C3.09722 15.7599 2.98058 15.7697 2.87612 15.8152C2.77165 15.8607 2.68526 15.9395 2.63043 16.0391C2.5756 16.1388 2.55544 16.2537 2.57309 16.366C2.59074 16.4783 2.64521 16.5816 2.72798 16.6597C3.87543 17.7072 5.27429 18.4422 6.78967 18.794C8.30506 19.1457 9.88586 19.1023 11.3797 18.6679C12.8735 18.2334 14.2299 17.4227 15.3182 16.3138C16.4064 15.2049 17.1898 13.8352 17.5928 12.3369C17.9958 10.8385 18.0048 9.26199 17.6189 7.7593C17.2331 6.25661 16.4654 4.87845 15.3899 3.75768C14.3143 2.63691 12.9673 1.81135 11.4785 1.36058C9.98976 0.909808 8.40955 0.849041 6.89025 1.18413C6.78182 1.20599 6.68383 1.26337 6.61188 1.34715C6.53992 1.43092 6.49815 1.53628 6.49319 1.64645C6.48823 1.75662 6.52038 1.86528 6.58452 1.95511C6.64866 2.04495 6.7411 2.11081 6.84714 2.14222Z" fill="#3A4757"/>
<path fill-rule="evenodd" clip-rule="evenodd" d="M3.55154 7.4963C3.44264 7.20198 3.16194 7.00658 2.84814 7.00658C2.53434 7.00658 2.25364 7.20198 2.14474 7.4963L1.72425 8.63269L0.587845 9.05319C0.293545 9.1621 0.0981445 9.44275 0.0981445 9.75658C0.0981445 10.0704 0.293545 10.3511 0.587845 10.46L1.72425 10.8805L2.14474 12.0169C2.25364 12.3112 2.53434 12.5066 2.84814 12.5066C3.16194 12.5066 3.44264 12.3112 3.55154 12.0169L3.97204 10.8805L5.10844 10.46C5.40274 10.3511 5.59814 10.0704 5.59814 9.75658C5.59814 9.44275 5.40274 9.1621 5.10844 9.05319L3.97204 8.63269L3.55154 7.4963ZM2.82825 9.75658C2.83505 9.75007 2.84164 9.74344 2.84814 9.73669C2.85464 9.74344 2.86124 9.75007 2.86804 9.75658C2.86124 9.76309 2.85464 9.76972 2.84814 9.77647C2.84164 9.76972 2.83505 9.76309 2.82825 9.75658Z" fill="#3A4757"/>
</svg>