<svg width="18" height="20" viewBox="0 0 18 20" fill="none" xmlns="http://www.w3.org/2000/svg">
<path fill-rule="evenodd" clip-rule="evenodd" d="M17.04 5.99401H14.7C14.7 5.99401 14.66 5.92408 14.64 5.88412C14.38 5.54446 14.04 5.26474 13.66 5.07492C13.58 5.03497 13.49 5.01498 13.41 4.98501V4.5954C13.41 3.37662 12.95 2.20779 12.12 1.34865C11.29 0.48951 10.17 0 9.01 0C7.85 0 6.72 0.47952 5.9 1.34865C5.07 2.20779 4.61 3.37662 4.61 4.5954V4.98501C4.53 5.01498 4.44 5.03497 4.36 5.07492C3.98 5.26474 3.65 5.54446 3.38 5.88412C3.35 5.91409 3.34 5.95405 3.32 5.99401H0.96C0.43 5.99401 0 6.44356 0 6.99301C0 7.54246 0.43 7.99201 0.96 7.99201H2.78C2.78 8.09191 2.79 8.2018 2.81 8.3017C2.81 8.31169 2.81 8.32168 2.81 8.34166C2.81 8.34166 2.81 8.35165 2.81 8.36164L4.34 15.6444C4.46 16.2038 4.76 16.7033 5.19 17.0629C5.62 17.4126 6.15 17.6024 6.7 17.6024H6.89V17.8022C6.89 18.3816 7.11 18.9411 7.51 19.3606C7.91 19.7702 8.44 20 9 20C9.56 20 10.09 19.7702 10.49 19.3606C10.89 18.951 11.11 18.3916 11.11 17.8022V17.6024H11.3C11.85 17.6024 12.38 17.4226 12.81 17.0629C13.24 16.7133 13.54 16.2138 13.66 15.6543L15.19 8.37163C15.19 8.37163 15.19 8.36164 15.19 8.35165C15.19 8.34166 15.19 8.33167 15.19 8.31169C15.21 8.21179 15.21 8.1019 15.22 8.002H17.04C17.57 8.002 18 7.55245 18 7.003C18 6.45355 17.57 6.004 17.04 6.004V5.99401ZM6.51 4.5954C6.51 3.90609 6.77 3.24675 7.24 2.75724C7.71 2.26773 8.34 1.998 9 1.998C9.66 1.998 10.29 2.26773 10.76 2.75724C11.23 3.24675 11.49 3.90609 11.49 4.5954V4.7952H6.51V4.5954ZM9.14 17.9221C9.14 17.9221 9.06 17.982 9 17.982C8.94 17.982 8.9 17.962 8.86 17.9221C8.82 17.8821 8.8 17.8322 8.8 17.7822V12.987C8.8 12.9371 8.82 12.8871 8.86 12.8472C8.9 12.8072 8.94 12.7872 9 12.7872C9.06 12.7872 9.1 12.8072 9.14 12.8472C9.18 12.8871 9.2 12.9371 9.2 12.987V17.7822C9.2 17.8322 9.18 17.8821 9.14 17.9221ZM11.78 15.1948C11.76 15.3047 11.7 15.4046 11.61 15.4745C11.52 15.5445 11.42 15.5844 11.31 15.5844H11.11V12.987C11.11 12.4076 10.89 11.8482 10.49 11.4286C10.09 11.019 9.56 10.7892 9 10.7892C8.44 10.7892 7.91 11.019 7.51 11.4286C7.11 11.8382 6.89 12.3976 6.89 12.987V15.5844H6.69C6.58 15.5844 6.47 15.5445 6.39 15.4745C6.3 15.4046 6.25 15.3047 6.22 15.1948L5.01 9.43057L6.51 9.76024C7.03 9.88012 7.54 9.53047 7.65 8.99101C7.76 8.45155 7.43 7.92208 6.91 7.8022L4.77 7.32268C4.8 7.25275 4.82 7.18282 4.86 7.12288C4.94 7.01299 5.05 6.93307 5.17 6.87313C5.29 6.81319 5.42 6.78322 5.55 6.78322H12.44C12.57 6.78322 12.7 6.81319 12.82 6.87313C12.94 6.93307 13.04 7.02298 13.13 7.12288C13.18 7.18282 13.19 7.25275 13.22 7.32268L11.08 7.8022C10.56 7.92208 10.23 8.45155 10.34 8.99101C10.45 9.53047 10.96 9.87013 11.48 9.76024L12.98 9.43057L11.77 15.1948H11.78Z" fill="#3A4757"/>
</svg>