<svg width="17" height="11" viewBox="0 0 17 11" fill="none" xmlns="http://www.w3.org/2000/svg">
<path fill-rule="evenodd" clip-rule="evenodd" d="M12.3401 0.059199C12.4242 0.111854 12.4829 0.1943 12.5034 0.288373L12.7125 1.18888C12.979 1.19271 13.2414 1.26618 13.4699 1.40385C13.9098 1.7091 14.2046 2.16884 14.2896 2.68185C14.6917 4.40308 13.6169 4.77244 13.5705 4.78722L13.5513 4.79307L13.6232 5.10253L13.7652 5.09315C15.3481 5.02281 16.7429 6.11371 16.9687 7.6283C17.2019 9.19175 16.107 10.654 14.4829 10.9482C14.2971 10.9837 14.1079 11.001 13.9184 11C12.5573 11.0049 11.3909 10.1671 10.9756 8.99051L6.14585 8.99019C5.73449 10.1575 4.5977 10.971 3.2863 10.9999C1.57809 10.9999 0.193312 9.67695 0.193312 8.045C0.188623 7.98333 0.186802 7.92151 0.187849 7.85972C0.0722826 7.62114 0.00551741 7.35645 0 7.07727V5.06054C0.00248771 4.44262 0.310204 3.89377 0.786406 3.54413C0.587602 3.34444 0.466649 3.0734 0.466649 2.77788C0.466649 2.2114 0.911077 1.73488 1.5001 1.66979H5.08796C5.67698 1.73488 6.12141 2.2114 6.12141 2.77788C6.12141 2.90707 6.09829 3.03158 6.05562 3.14759L6.72724 3.14724C6.9772 3.12141 7.22631 3.20254 7.4077 3.36886C7.52475 3.53063 7.55887 3.73432 7.50049 3.92291C7.43446 4.09436 7.48333 4.28693 7.62421 4.41047C7.93463 4.774 8.67625 5.67026 9.16051 6.47153L11.2888 6.471C11.6537 5.9179 12.2067 5.48553 12.8692 5.26065L11.8307 0.805481L10.4698 1.07142C10.2584 1.10771 10.0554 0.975707 10.0133 0.774497C9.97119 0.573288 10.1054 0.376876 10.3151 0.332696L12.0549 0.0076561C12.1533 -0.0119987 12.2559 0.00654446 12.3401 0.059199ZM1.10574 8.77634V8.78372C1.43263 9.66704 2.30562 10.2585 3.2863 10.2612C4.19766 10.2833 5.03471 9.78313 5.41272 8.99057H2.01817C1.70037 8.99074 1.38726 8.91722 1.10574 8.77634ZM13.7909 5.82193L14.2896 7.96374C14.3126 8.05978 14.2945 8.16062 14.2394 8.24386C14.1842 8.32709 14.0965 8.38582 13.9958 8.40697L13.9184 8.45868C13.7389 8.45879 13.5839 8.3385 13.5473 8.17058L13.0311 5.95657C12.5674 6.13643 12.1788 6.45458 11.9213 6.85932L11.9235 6.84087C11.9235 6.93884 11.8827 7.03278 11.8102 7.10205L11.7743 7.13126C11.7152 7.26189 11.6689 7.39919 11.6366 7.5418C11.4381 8.41936 11.8134 9.32463 12.587 9.83435C13.3606 10.3441 14.3797 10.3575 15.1678 9.86838C15.9121 9.40643 16.3114 8.58241 16.2076 7.74888L16.184 7.60176C15.9578 6.57835 15.0133 5.84542 13.9184 5.84359V5.82882L13.7909 5.82193ZM10.9388 7.21065L9.5311 7.21119C9.58242 7.35486 9.61148 7.48465 9.61148 7.59438C9.61295 7.86152 9.55809 8.07755 9.4632 8.25225L10.8213 8.25227C10.8198 8.23218 10.8186 8.21202 10.8175 8.19182C10.7998 7.85132 10.8432 7.52093 10.9388 7.21065ZM6.72724 3.88595H2.01817C1.69005 3.884 1.37454 4.00665 1.14107 4.22693C0.907602 4.44721 0.77529 4.74707 0.773246 5.06054V7.07727C0.784237 7.64644 1.21012 8.11765 1.77365 8.22766C1.84328 8.23875 1.9148 8.24466 1.98724 8.24445H5.85347L5.92245 8.25159L7.34584 8.25184C8.49797 8.25184 8.84593 8.09671 8.84593 7.59438C8.84593 7.2324 7.91804 5.91008 7.052 4.89802C6.77605 4.63227 6.65461 4.25382 6.72724 3.88595ZM12.8927 1.96229L13.3777 4.04812C13.491 3.95277 13.7261 3.64777 13.5395 2.83698C13.4983 2.51653 13.3224 2.22588 13.0524 2.03177C13.0018 2.00273 12.9482 1.97949 12.8927 1.96229ZM5.08796 2.40852H1.5001C1.31594 2.44388 1.18345 2.59843 1.18345 2.77788C1.18345 2.95733 1.31594 3.11188 1.5001 3.14724H5.08796C5.27212 3.11188 5.4046 2.95733 5.4046 2.77788C5.4046 2.59843 5.27212 2.44388 5.08796 2.40852Z" fill="#3A4757"/>
</svg>