<svg width="15" height="15" viewBox="0 0 15 15" fill="none" xmlns="http://www.w3.org/2000/svg">
<path fill-rule="evenodd" clip-rule="evenodd" d="M13.8023 5.04063C13.7219 5.04063 13.6424 5.00763 13.5652 4.94162C13.4015 4.80437 13.1528 4.81862 13.0092 4.97837C12.9868 5.00238 12.976 5.03163 12.9613 5.05938C12.9227 5.11863 12.8941 5.18538 12.8941 5.26113L12.8949 7.48641L11.7983 8.11041C11.7952 8.11191 11.7921 8.11041 11.7898 8.11191L5.81652 11.5095L5.1269 11.9017L5.12536 10.7032C5.82655 10.7677 6.39261 10.2472 6.41964 9.48968L6.42272 8.70067L14.2085 4.25012L14.2077 4.57337C14.1969 4.86587 14.0447 5.04063 13.8023 5.04063ZM11.6732 9.64493L5.80957 12.99L3.79865 14.1367C3.77471 14.1022 3.75154 14.0512 3.72915 13.998C3.7222 13.9815 3.7137 13.9725 3.70753 13.9537C3.6805 13.8757 3.6581 13.7805 3.65038 13.665C3.62799 13.3635 3.7222 13.0702 3.90368 12.882C3.94847 12.8347 3.99557 12.798 4.04345 12.7717C4.04809 12.7695 4.05195 12.7695 4.05658 12.7672C4.09982 12.7447 4.14384 12.729 4.18786 12.7252C4.20022 12.7237 4.21334 12.729 4.22493 12.7297C4.26122 12.7305 4.29675 12.732 4.33227 12.7447C4.35544 12.7537 4.3786 12.7732 4.40177 12.7875C4.41722 12.798 4.43266 12.8062 4.44811 12.8175C4.52378 12.9 4.62418 12.9555 4.73461 12.9555C4.80256 12.9555 4.87052 12.9375 4.93385 12.9022L11.555 9.13568C11.5743 9.31268 11.6145 9.48518 11.6732 9.64493ZM0.78923 12.3315L0.817031 5.95039L5.63504 8.69992L5.63195 9.47468C5.62114 9.76719 5.46901 9.94194 5.22652 9.94194C5.14621 9.94194 5.06667 9.90819 4.98867 9.84294C4.87207 9.74393 4.70681 9.72068 4.56703 9.78293C4.42571 9.84593 4.33536 9.98244 4.33613 10.1324L4.33922 11.961C4.23651 11.952 4.13458 11.9595 4.03418 11.9775C4.02569 11.9782 4.01797 11.982 4.01025 11.9835C3.9029 12.0045 3.79942 12.042 3.6998 12.0922C3.67432 12.105 3.65038 12.117 3.6249 12.1312C3.5191 12.1935 3.41716 12.2655 3.32604 12.36C3.24573 12.444 3.17623 12.537 3.11522 12.6367C3.09514 12.6697 3.08201 12.708 3.06348 12.7425C3.02796 12.8107 2.99243 12.8797 2.96618 12.954C2.94996 12.9982 2.94224 13.0462 2.92911 13.092C2.91057 13.161 2.89204 13.23 2.88123 13.302C2.87428 13.3522 2.87351 13.404 2.87042 13.4557C2.86656 13.509 2.85806 13.5607 2.85883 13.6155L0.78923 12.3315ZM9.00201 0.826323L13.8285 3.57961L6.02965 8.03691L1.38694 5.38788L1.20315 5.28288L9.00201 0.826323ZM15 3.57961C15 3.57811 14.9985 3.57661 14.9985 3.57511C14.9977 3.51361 14.9799 3.45886 14.9529 3.4071C14.9444 3.3921 14.9344 3.38011 14.9243 3.36585C14.8973 3.32835 14.8656 3.2976 14.8278 3.27135C14.8185 3.26535 14.8154 3.25485 14.8054 3.2496L9.20125 0.0523132C9.07846 -0.0174377 8.92478 -0.0174377 8.802 0.0523132L0.231672 4.95062H0.230128C0.230128 4.95062 0.230128 4.95137 0.229355 4.95137L0.225494 4.95362C0.193833 4.97162 0.175299 5.00238 0.149815 5.02788C0.128192 5.05038 0.100391 5.06613 0.0849466 5.09163C0.0610071 5.13288 0.0540567 5.18088 0.0471066 5.22738C0.0440176 5.24613 0.0316618 5.26263 0.0316618 5.28138L0 12.5392C0 12.6705 0.0687295 12.7927 0.182249 12.8632L3.52914 14.9392C3.59401 14.9797 3.66737 15 3.74151 15C3.81101 15 3.87974 14.982 3.94152 14.9475L6.20959 13.6492C6.21036 13.6492 6.21036 13.6492 6.21036 13.6485L12.3836 10.1272C12.4748 10.0747 12.5412 9.98919 12.5659 9.88869C12.5914 9.78819 12.5744 9.68168 12.518 9.59468C12.3968 9.40568 12.3296 9.15593 12.3296 8.89042C12.3296 8.81917 12.345 8.75017 12.3543 8.68117L13.4887 8.03541C13.6092 7.96641 13.6833 7.84116 13.6833 7.70541L13.6826 5.78389C13.7227 5.78838 13.7613 5.80639 13.8023 5.80639C14.4787 5.80639 14.9699 5.30988 14.9954 4.58762L15 3.58111V3.58036V3.57961Z" fill="#3A4757"/>
</svg>