<svg width="10" height="16" viewBox="0 0 10 16" fill="none" xmlns="http://www.w3.org/2000/svg">
<path d="M5 15.5C2.24 15.5 0 13.26 0 10.5V5.5C0 2.74 2.24 0.5 5 0.5C7.76 0.5 10 2.74 10 5.5V10.5C10 13.26 7.76 15.5 5 15.5ZM5 1.25C2.66 1.25 0.75 3.16 0.75 5.5V10.5C0.75 12.84 2.66 14.75 5 14.75C7.34 14.75 9.25 12.84 9.25 10.5V5.5C9.25 3.16 7.34 1.25 5 1.25Z" fill="#3A4757"/>
<path d="M5 6.88C4.79 6.88 4.62 6.71 4.62 6.5V3.5C4.62 3.29 4.79 3.12 5 3.12C5.21 3.12 5.38 3.29 5.38 3.5V6.5C5.38 6.71 5.21 6.88 5 6.88Z" fill="#3A4757"/>
</svg>