<svg width="18" height="20" viewBox="0 0 18 20" fill="none" xmlns="http://www.w3.org/2000/svg">
<path d="M17.0242 1.38861C16.4928 1.38861 16.058 1.83816 16.058 2.38761V4.46553C16.058 4.93507 15.8841 5.38462 15.5556 5.71429C14.9082 6.38362 13.7874 6.38362 13.1401 5.71429C12.8213 5.38462 12.6377 4.93507 12.6377 4.46553V4.11588C12.6377 3.01698 12.2222 1.98801 11.4686 1.20879C10.7246 0.439561 9.70048 0 8.65701 0C7.61353 0 6.59903 0.429571 5.84541 1.20879C5.22705 1.84815 4.85024 2.66733 4.7343 3.54645C2.05797 4.00599 0 6.41359 0 9.31069V14.1558C0 17.3726 2.5314 20 5.65217 20C8.77295 20 11.3043 17.3826 11.3043 14.1558V9.31069C11.3043 6.46354 9.31401 4.08591 6.70531 3.57642C6.79227 3.22677 6.96618 2.8971 7.22705 2.62737C8 1.83816 9.35266 1.83816 10.1159 2.62737C10.5024 3.02697 10.715 3.55644 10.715 4.12587V4.47552C10.715 5.48452 11.0918 6.42358 11.7874 7.14286C13.1594 8.56144 15.5556 8.56144 16.9372 7.14286C17.6232 6.43357 18 5.48452 18 4.47552V2.3976C18 1.84815 17.5652 1.3986 17.0338 1.3986L17.0242 1.38861ZM4.68599 5.61439V9.001H1.96135C2.08696 7.37263 3.19807 6.03397 4.68599 5.61439ZM5.65217 17.992C3.60386 17.992 1.93237 16.2637 1.93237 14.1459V10.999H9.36232V14.1459C9.36232 16.2637 7.69082 17.992 5.64251 17.992H5.65217ZM9.33333 9.001H6.61836V5.61439C8.10628 6.03397 9.20773 7.37263 9.33333 9.001Z" fill="#3A4757"/>
</svg>