<svg width="20" height="15" viewBox="0 0 20 15" fill="none" xmlns="http://www.w3.org/2000/svg">
<path fill-rule="evenodd" clip-rule="evenodd" d="M2.85005 0.379229C3.02729 0.196167 3.29234 0.196167 3.46957 0.379229L5.94766 2.85178C6.21352 3.21871 5.94766 3.67677 5.594 3.67677H4.00048V13.842C4.00048 14.3008 3.64681 14.7581 3.1151 14.7581C2.58419 14.7581 2.23053 14.3008 2.23053 13.842V3.67677H0.637008C0.283344 3.67677 0.106105 3.12677 0.37115 2.85178L2.85005 0.379229ZM9.31188 6.3323H7.54112C7.01021 6.3323 6.65655 5.87504 6.65655 5.41618C6.65655 4.95893 7.01021 4.50087 7.54112 4.50087H9.31188C9.84278 4.50087 10.1973 4.95893 10.1973 5.41618C10.1973 5.87504 9.84278 6.3323 9.31188 6.3323ZM14.6222 10.5456H7.36435C7.00987 10.5456 6.65621 10.1787 6.65621 9.62951C6.65621 9.08032 6.92207 8.7142 7.36435 8.7142H14.6222C15.0653 8.7142 15.3303 9.08032 15.3303 9.62951C15.3303 10.1787 15.0653 10.5456 14.6222 10.5456ZM19.048 12.9263H7.36403C6.92174 12.9263 6.65588 13.3844 6.65588 13.8424C6.65588 14.3916 7.01036 14.7577 7.36403 14.7577H18.9593C19.4024 14.7577 19.7561 14.3916 19.7561 13.8424C19.7561 13.3844 19.4024 12.9263 19.048 12.9263Z" fill="#3A4757"/>
<path fill-rule="evenodd" clip-rule="evenodd" d="M3.64389 0.210002L6.13436 2.6949L6.14572 2.71058C6.51618 3.22187 6.16559 3.9187 5.594 3.9187H4.24438V13.842C4.24438 14.4085 3.80628 15 3.1151 15C2.42458 15 1.98662 14.4083 1.98662 13.842V3.9187H0.637008C0.314913 3.9187 0.113653 3.67043 0.0397373 3.44106C-0.0353449 3.20807 -0.0147452 2.90206 0.194848 2.68459L0.19817 2.68115L2.67574 0.20999C2.94849 -0.0700007 3.37115 -0.0699966 3.64389 0.210002ZM3.29365 0.546807C3.2124 0.462884 3.10722 0.462884 3.02597 0.546807L3.02302 0.54985L0.546164 3.02031C0.491642 3.07815 0.468975 3.18384 0.504389 3.29373C0.541248 3.40811 0.605439 3.43483 0.637008 3.43483H2.47444V13.842C2.47444 14.1933 2.74381 14.5161 3.1151 14.5161C3.48734 14.5161 3.75657 14.1932 3.75657 13.842V3.43483H5.594C5.72687 3.43483 5.90325 3.22469 5.75935 3.00704L3.29365 0.546807ZM6.41264 5.41618C6.41264 4.85143 6.8506 4.25894 7.54112 4.25894H9.31188C10.0021 4.25894 10.4412 4.85112 10.4412 5.41618C10.4412 5.98285 10.0021 6.57423 9.31188 6.57423H7.54112C6.8506 6.57423 6.41264 5.98254 6.41264 5.41618ZM7.54112 4.7428C7.16983 4.7428 6.90046 5.06642 6.90046 5.41618C6.90046 5.76755 7.16983 6.09036 7.54112 6.09036H9.31188C9.68345 6.09036 9.95335 5.76724 9.95335 5.41618C9.95335 5.06673 9.68345 4.7428 9.31188 4.7428H7.54112ZM6.64967 8.82026C6.81784 8.59901 7.06722 8.47227 7.36435 8.47227H14.6222C14.9196 8.47227 15.1691 8.59893 15.3372 8.82034C15.4998 9.03445 15.5742 9.31968 15.5742 9.62951C15.5742 9.93933 15.4998 10.2247 15.3373 10.439C15.1693 10.6605 14.9198 10.7876 14.6222 10.7876H7.36435C6.83235 10.7876 6.4123 10.2655 6.4123 9.62951C6.4123 9.31952 6.48697 9.03431 6.64967 8.82026ZM7.03918 9.11155C6.95837 9.21787 6.90012 9.39031 6.90012 9.62951C6.90012 10.0919 7.1874 10.3037 7.36435 10.3037H14.6222C14.7677 10.3037 14.8723 10.2473 14.9475 10.1481C15.0283 10.0416 15.0864 9.86887 15.0864 9.62951C15.0864 9.39015 15.0283 9.21773 14.9476 9.11148C14.8725 9.01253 14.7678 8.95613 14.6222 8.95613H7.36435C7.2192 8.95613 7.11451 9.01245 7.03918 9.11155ZM7.04363 13.3517C6.95462 13.4773 6.89979 13.6561 6.89979 13.8424C6.89979 14.3044 7.18748 14.5158 7.36403 14.5158H18.9593C19.2419 14.5158 19.5122 14.2852 19.5122 13.8424C19.5122 13.6721 19.445 13.4939 19.3414 13.3598C19.2336 13.2203 19.1202 13.1683 19.048 13.1683H7.36403C7.23853 13.1683 7.12991 13.23 7.04363 13.3517ZM6.64457 13.0735C6.80178 12.8517 7.04724 12.6844 7.36403 12.6844H19.048C19.3302 12.6844 19.5708 12.8613 19.7285 13.0654C19.8904 13.2749 20 13.5548 20 13.8424C20 14.4981 19.563 14.9997 18.9593 14.9997H7.36403C6.83325 14.9997 6.41198 14.4789 6.41198 13.8424C6.41198 13.5707 6.49008 13.2914 6.64457 13.0735Z" fill="#3A4757"/>
</svg>