<svg width="20" height="18" viewBox="0 0 20 18" fill="none" xmlns="http://www.w3.org/2000/svg">
<path d="M18.68 4.59205C17.95 3.49773 16.94 2.62841 15.78 2.03523C15.66 0.5625 14.41 0 13.6 0H2.2C0.6 0 0 1.38068 0 2.25V15.75C0 17.3864 1.35 18 2.2 18H13.6C15.1 18 15.72 16.783 15.79 15.9239C16.95 15.3307 17.95 14.4818 18.68 13.367C19.54 12.0682 20 10.5545 20 8.97954C20 7.40454 19.55 5.89091 18.68 4.59205ZM13.8 15.7295C13.8 15.8114 13.76 15.9136 13.74 15.9341C13.74 15.9341 13.7 15.9545 13.6 15.9545H2.22C2.14 15.9545 2.04 15.9136 2.02 15.8932C2.02 15.8932 2 15.8523 2 15.75V2.27045C2 2.18864 2.04 2.08636 2.06 2.06591C2.06 2.06591 2.1 2.04545 2.2 2.04545H13.58C13.66 2.04545 13.76 2.08636 13.78 2.10682C13.78 2.10682 13.8 2.14773 13.8 2.25V15.7295ZM17.03 12.2216C16.69 12.733 16.27 13.1727 15.8 13.5409V4.43864C16.27 4.80682 16.69 5.24659 17.03 5.75795C17.67 6.71932 18.01 7.83409 18.01 8.98977C18.01 10.1455 17.67 11.2602 17.03 12.2216Z" fill="#3A4757"/>
<path d="M10.98 7.46591L6.35 5.10341C6.09 4.97045 5.81 4.90909 5.52 4.91932C5.24 4.92955 4.96 5.02159 4.71 5.175C4.47 5.32841 4.27 5.54318 4.13 5.79886C3.98 6.05455 3.91 6.34091 3.91 6.6375V11.3727C3.91 11.6693 3.98 11.9557 4.12 12.2114C4.26 12.467 4.46 12.6818 4.7 12.8352C4.95 12.9886 5.23 13.0807 5.51 13.0909H5.59V13.1114C5.86 13.1114 6.12 13.05 6.35 12.9273L10.99 10.5545C11.27 10.4114 11.5 10.1864 11.66 9.92045C11.82 9.64432 11.91 9.32727 11.91 9.01023C11.91 8.69318 11.83 8.37614 11.66 8.1C11.49 7.82386 11.26 7.60909 10.98 7.46591ZM5.9 10.8511V7.16932L9.51 9.01023L5.9 10.8511Z" fill="#3A4757"/>
</svg>