<svg width="20" height="20" viewBox="0 0 20 20" fill="none" xmlns="http://www.w3.org/2000/svg">
<path d="M14.1571 16.54H2.38119C1.06053 16.54 0 15.47 0 14.16V2.38C0 1.07 1.07054 0 2.38119 0H14.1571C15.4777 0 16.5383 1.07 16.5383 2.38V14.15C16.5383 15.47 15.4677 16.53 14.1571 16.53V16.54ZM2.38119 2C2.17109 2 2.001 2.17 2.001 2.38V14.15C2.001 14.36 2.17109 14.53 2.38119 14.53H14.1571C14.3672 14.53 14.5373 14.36 14.5373 14.15V2.38C14.5373 2.17 14.3672 2 14.1571 2H2.38119Z" fill="#3A4757"/>
<path d="M17.6288 20H5.15258C4.6023 20 4.15208 19.55 4.15208 19C4.15208 18.45 4.6023 18 5.15258 18H17.6188C17.7189 18 17.8189 17.96 17.8889 17.89C17.959 17.82 17.999 17.72 17.999 17.62V5.15C17.999 4.6 18.4492 4.15 18.9995 4.15C19.5498 4.15 20 4.6 20 5.15V17.61C20 18.25 19.7499 18.84 19.2997 19.3C18.8594 19.74 18.2391 20 17.6088 20H17.6288Z" fill="#3A4757"/>
<path d="M5.993 12.46C5.71286 12.44 5.42271 12.38 5.17259 12.22C4.92246 12.06 4.74237 11.84 4.62231 11.57C4.52226 11.33 4.47224 11.08 4.50225 10.82V5.65C4.50225 5.39 4.57229 5.12 4.70235 4.89C4.83242 4.66 5.02251 4.47 5.26263 4.34C5.50275 4.21 5.77289 4.14 6.03302 4.14C6.30315 4.14 6.56328 4.22 6.7934 4.36L11.2956 6.96C11.5258 7.1 11.7159 7.29 11.8459 7.51C11.976 7.74 12.046 7.99 12.046 8.25C12.046 8.51 11.976 8.77 11.8459 8.99C11.7159 9.21 11.5258 9.41 11.3057 9.54L6.77339 12.23C6.56328 12.37 6.28314 12.45 5.993 12.45V12.46ZM6.50325 6.52V10.09L9.54477 8.28L6.50325 6.52Z" fill="#3A4757"/>
</svg>