<svg width="16" height="14" viewBox="0 0 16 14" fill="none" xmlns="http://www.w3.org/2000/svg">
<path d="M13.914 13.0891H2.08596C0.939828 13.0891 0 12.1607 0 11.0032V2.08587C0 0.928326 0.928367 0 2.08596 0H13.914C15.0602 0 16 0.928326 16 2.08587V11.0032C16 12.1493 15.0716 13.0891 13.914 13.0891ZM2.08596 0.859562C1.40974 0.859562 0.859599 1.40968 0.859599 2.08587V11.0032C0.859599 11.6794 1.40974 12.2295 2.08596 12.2295H13.914C14.5903 12.2295 15.1404 11.6794 15.1404 11.0032V2.08587C15.1404 1.40968 14.5903 0.859562 13.914 0.859562H2.08596Z" fill="#3A4757"/>
<path d="M11.9938 9.3445V10.0112H7.93242C7.86438 9.81647 7.73748 9.64775 7.56931 9.52837C7.40113 9.40899 7.19999 9.34486 6.99375 9.34486C6.78751 9.34486 6.58637 9.40899 6.41819 9.52837C6.25002 9.64775 6.12312 9.81647 6.05508 10.0112H3.99375V9.3445H3.32708V11.3445H3.99375V10.6778H6.05508C6.12312 10.8725 6.25002 11.0412 6.41819 11.1606C6.58637 11.28 6.78751 11.3441 6.99375 11.3441C7.19999 11.3441 7.40113 11.28 7.56931 11.1606C7.73748 11.0412 7.86438 10.8725 7.93242 10.6778H11.9938V11.3445H12.6604V9.3445H11.9938ZM6.99375 3.84452V6.84417L9.66042 5.34451L6.99375 3.84452Z" fill="#3A4757"/>
<path d="M7.99375 8.67783C7.33448 8.67783 6.69001 8.48234 6.14185 8.11607C5.59369 7.7498 5.16644 7.2292 4.91415 6.62012C4.66186 6.01103 4.59585 5.34081 4.72447 4.69421C4.85308 4.04761 5.17055 3.45367 5.63673 2.9875C6.1029 2.52132 6.69685 2.20386 7.34345 2.07524C7.99005 1.94662 8.66027 2.01263 9.26936 2.26492C9.87845 2.51722 10.399 2.94446 10.7653 3.49262C11.1316 4.04078 11.3271 4.68524 11.3271 5.34451C11.3261 6.22827 10.9746 7.07554 10.3497 7.70045C9.72479 8.32536 8.87751 8.67686 7.99375 8.67783ZM7.99375 2.67785C7.46633 2.67785 6.95076 2.83425 6.51223 3.12727C6.0737 3.42028 5.73191 3.83676 5.53007 4.32403C5.32824 4.81129 5.27543 5.34747 5.37832 5.86475C5.48122 6.38203 5.73519 6.85718 6.10813 7.23012C6.48107 7.60306 6.95623 7.85704 7.47351 7.95993C7.99079 8.06282 8.52697 8.01001 9.01424 7.80818C9.50151 7.60635 9.91798 7.26456 10.211 6.82603C10.504 6.3875 10.6604 5.87193 10.6604 5.34451C10.6595 4.63754 10.3783 3.95978 9.87839 3.45987C9.37849 2.95997 8.70072 2.67874 7.99375 2.67785Z" fill="#3A4757"/>
</svg>