<svg width="16" height="20" viewBox="0 0 16 20" fill="none" xmlns="http://www.w3.org/2000/svg">
<path fill-rule="evenodd" clip-rule="evenodd" d="M8.63778 8.26827C10.9385 8.26827 12.8053 6.41642 12.8053 4.13413C12.8053 1.85185 10.9385 0 8.63778 0C6.33706 0 4.47025 1.85185 4.47025 4.13413C4.47025 6.41642 6.33706 8.26827 8.63778 8.26827ZM8.63778 2.21221C9.70741 2.21221 10.5752 3.07307 10.5752 4.13413C10.5752 5.1952 9.70741 6.05606 8.63778 6.05606C7.56815 6.05606 6.70033 5.1952 6.70033 4.13413C6.70033 3.07307 7.56815 2.21221 8.63778 2.21221Z" fill="#3A4757"/>
<path fill-rule="evenodd" clip-rule="evenodd" d="M3.57217 16.6667H2.24017V15.956C2.24017 13.5536 4.1978 11.6116 6.61961 11.6116C6.78106 11.6116 6.95261 11.6116 7.10397 11.6416C7.71951 11.7117 8.26442 11.2713 8.33505 10.6607C8.40569 10.05 7.96169 9.50951 7.34615 9.43944C7.10397 9.40941 6.86179 9.3994 6.60952 9.3994C2.95662 9.3994 0 12.3323 0 15.956V17.7678C0 18.3784 0.494452 18.8689 1.11 18.8689H3.55198C4.16753 18.8689 4.66198 18.3784 4.66198 17.7678C4.66198 17.1572 4.16753 16.6667 3.55198 16.6667H3.57217Z" fill="#3A4757"/>
<path fill-rule="evenodd" clip-rule="evenodd" d="M15.9436 13.1932C15.55 12.0921 14.8235 11.1411 13.8648 10.4605C12.9062 9.77978 11.7659 9.40941 10.5853 9.3994C10.2927 9.3994 10 9.50951 9.78814 9.71972C9.57623 9.92993 9.45514 10.2102 9.45514 10.5005V13.8338C9.15241 13.7437 8.8396 13.6737 8.5066 13.6737C6.7407 13.6737 5.31788 15.0951 5.31788 16.8368C5.31788 18.5786 6.75079 20 8.5066 20C10.2624 20 11.6953 18.5786 11.6953 16.8368C11.6953 16.7868 11.6852 16.7367 11.6751 16.6867V11.7918C11.9879 11.9019 12.2907 12.0521 12.5631 12.2422C13.1484 12.6527 13.5924 13.2432 13.8346 13.9139C14.0364 14.4845 14.6721 14.7948 15.2574 14.5846C15.8326 14.3844 16.1454 13.7538 15.9335 13.1732L15.9436 13.1932ZM8.51669 17.8078C7.98187 17.8078 7.54797 17.3774 7.54797 16.8468C7.54797 16.3163 7.98187 15.8859 8.51669 15.8859C9.05151 15.8859 9.42487 16.2763 9.46523 16.7668V16.8468C9.46523 16.8468 9.46523 16.8669 9.46523 16.8869C9.44505 17.3974 9.03132 17.8078 8.5066 17.8078H8.51669Z" fill="#3A4757"/>
</svg>