<svg width="20" height="20" viewBox="0 0 20 20" fill="none" xmlns="http://www.w3.org/2000/svg">
<path fill-rule="evenodd" clip-rule="evenodd" d="M11.14 4.42221C10.28 3.81191 9.25 3.47174 8.19 3.46173C7.92 3.46173 7.67 3.56178 7.48 3.75188C7.29 3.94197 7.18 4.1921 7.18 4.46223V7.48374C6.91 7.3937 6.62 7.34367 6.32 7.34367C4.74 7.34367 3.45 8.62431 3.45 10.2151C3.45 11.8059 4.73 13.0865 6.32 13.0865C7.91 13.0865 9.19 11.8059 9.19 10.2151C9.19 10.1651 9.18 10.1251 9.18 10.075V5.64282C9.46 5.74287 9.73 5.88294 9.97 6.05303C10.5 6.43322 10.89 6.96348 11.11 7.57379C11.29 8.09405 11.87 8.36418 12.39 8.18409C12.91 8.004 13.18 7.42371 13 6.90345C12.65 5.90295 12 5.04252 11.14 4.42221ZM6.33 11.0855C5.85 11.0855 5.46 10.6953 5.46 10.2151C5.46 9.73487 5.85 9.34467 6.33 9.34467C6.79 9.34467 7.15 9.69485 7.19 10.1451V10.2151C7.19 10.2151 7.19 10.2351 7.19 10.2451C7.17 10.7054 6.8 11.0755 6.33 11.0755V11.0855Z" fill="#3A4757"/>
<path fill-rule="evenodd" clip-rule="evenodd" d="M16.54 14.1571V2.38119C16.54 1.06053 15.47 0 14.16 0H2.38C1.07 0 0 1.07054 0 2.38119V14.1571C0 15.4777 1.07 16.5383 2.38 16.5383H14.15C15.47 16.5383 16.53 15.4677 16.53 14.1571H16.54ZM2 14.1571V2.38119C2 2.17109 2.17 2.001 2.38 2.001H14.15C14.36 2.001 14.53 2.17109 14.53 2.38119V14.1571C14.53 14.3672 14.36 14.5373 14.15 14.5373H2.38C2.17 14.5373 2 14.3672 2 14.1571Z" fill="#3A4757"/>
<path fill-rule="evenodd" clip-rule="evenodd" d="M19 4.15208C18.45 4.15208 18 4.6023 18 5.15258V17.6188C18 17.7189 17.96 17.8189 17.89 17.8889C17.82 17.959 17.72 17.999 17.62 17.999H5.15C4.6 17.999 4.15 18.4492 4.15 18.9995C4.15 19.5498 4.6 20 5.15 20H17.61C18.24 20 18.85 19.7499 19.3 19.2997C19.75 18.8494 20 18.2491 20 17.6088V5.15258C20 4.6023 19.55 4.15208 19 4.15208Z" fill="#3A4757"/>
</svg>