<svg width="20" height="20" viewBox="0 0 20 20" fill="none" xmlns="http://www.w3.org/2000/svg">
<path d="M10 0C4.47154 0 0 4.47154 0 10C0 15.5285 4.47154 20 10 20C15.5285 20 20 15.5285 20 10C20 4.47154 15.5285 0 10 0ZM14.8781 14.4716H5.12205C4.55295 14.4716 4.14644 14.0651 4.14644 13.496C4.14644 12.9268 4.55295 12.5203 5.12205 12.5203H14.8781C15.4473 12.5203 15.8538 12.9268 15.8538 13.496C15.8538 14.0651 15.366 14.4716 14.8781 14.4716ZM5.60962 7.56099C5.60962 6.82928 6.17873 6.26017 6.91044 6.26017C7.64214 6.26017 8.21125 6.82928 8.21125 7.56099C8.21125 8.29269 7.64214 8.8618 6.91044 8.8618C6.17873 8.8618 5.60962 8.29269 5.60962 7.56099ZM13.0894 6.17886C13.8211 6.17886 14.3902 6.74797 14.3902 7.47968C14.3902 8.21138 13.8211 8.78049 13.0894 8.78049C12.3577 8.78049 11.7886 8.21138 11.7886 7.47968C11.7073 6.82927 12.3577 6.17886 13.0894 6.17886Z" fill="#3A4757"/>
</svg>