<svg width="20" height="20" viewBox="0 0 20 20" fill="none" xmlns="http://www.w3.org/2000/svg">
<path fill-rule="evenodd" clip-rule="evenodd" d="M13.05 8.85C13.7917 8.85 14.4 8.25 14.4 7.5C14.4 6.75 13.8 6.15 13.05 6.15C12.3 6.15 11.7 6.75 11.7 7.5C11.7 8.25 12.3 8.85 13.05 8.85Z" fill="#3A4757"/>
<path fill-rule="evenodd" clip-rule="evenodd" d="M14.85 12.4583H5.15C4.6 12.4583 4.15 12.9083 4.15 13.4583C4.15 14.0083 4.6 14.4583 5.15 14.4583H14.8417C15.3917 14.4583 15.8417 14.0083 15.8417 13.4583C15.8417 12.9083 15.3917 12.4583 14.8417 12.4583H14.85Z" fill="#3A4757"/>
<path fill-rule="evenodd" clip-rule="evenodd" d="M10 0C4.475 0 0 4.475 0 10C0 15.525 4.475 20 10 20C15.525 20 20 15.525 20 10C20 4.475 15.525 0 10 0ZM10 18C5.58333 18 2 14.4167 2 10C2 5.58333 5.58333 2 10 2C14.4167 2 18 5.58333 18 10C18 14.4167 14.4167 18 10 18Z" fill="#3A4757"/>
<path fill-rule="evenodd" clip-rule="evenodd" d="M6.95 8.85C7.69167 8.85 8.3 8.25 8.3 7.5C8.3 6.75 7.7 6.15 6.95 6.15C6.2 6.15 5.6 6.75 5.6 7.5C5.6 8.25 6.2 8.85 6.95 8.85Z" fill="#3A4757"/>
</svg>