<svg width="22" height="20" viewBox="0 0 22 20" fill="none" xmlns="http://www.w3.org/2000/svg">
<path d="M17.722 13.3221C17.722 12.7404 17.7158 12.6003 17.6865 12.4817C17.6552 12.3546 17.6039 12.2351 17.5357 12.1285C17.4734 12.0311 17.3828 11.937 16.9661 11.5475L14.7015 9.43071C14.319 9.07316 14.0692 8.84108 13.8648 8.67809C13.6689 8.52191 13.5716 8.47681 13.512 8.45812C13.3184 8.39744 13.1123 8.39748 12.9187 8.45812C12.8594 8.47673 12.7617 8.52189 12.5659 8.67809C12.3619 8.84089 12.113 9.07286 11.7312 9.42973L9.4656 11.5475C9.04819 11.9377 8.95711 12.0315 8.895 12.1285C8.82671 12.2352 8.77557 12.3548 8.74422 12.4817C8.715 12.5999 8.70874 12.7388 8.70874 13.3221V18.1811H17.722V13.3221ZM3.78624 5.03038V18.1811H6.89249V14.8776H6.32387C5.82239 14.8776 5.41544 14.471 5.41525 13.9691C5.41525 13.4671 5.82227 13.0597 6.32387 13.0597H6.89249C6.89357 12.6827 6.90373 12.3581 6.98119 12.0447C7.0012 11.9637 7.02459 11.8838 7.05116 11.805H6.32387C5.82227 11.805 5.41525 11.3976 5.41525 10.8955C5.41537 10.3936 5.82234 9.98705 6.32387 9.98705H7.35764C7.65487 9.98712 7.91831 10.13 8.08395 10.351C8.13008 10.3078 8.17755 10.264 8.22585 10.2188L9.84599 8.70374V2.31285L3.78624 5.03038ZM7.35764 6.91342C7.85913 6.91354 8.26528 7.32089 8.26528 7.82288C8.26517 8.32478 7.85907 8.73123 7.35764 8.73136H6.32387C5.82233 8.73136 5.41535 8.32486 5.41525 7.82288C5.41525 7.32082 5.82227 6.91342 6.32387 6.91342H7.35764ZM17.2293 7.82189L17.2184 7.59502C17.1102 6.47996 16.2126 5.65788 15.1844 5.65773C14.6828 5.65773 14.2758 5.25033 14.2758 4.74827C14.2759 4.27793 14.6331 3.89151 15.0908 3.84473L15.3874 3.82894C16.3956 3.7219 17.2292 2.82761 17.2293 1.67563C17.2293 1.17357 17.6363 0.766169 18.1379 0.766169C18.6394 0.766247 19.0455 1.17361 19.0455 1.67563C19.0455 2.90423 19.9945 3.83979 21.0914 3.83979C21.5929 3.83979 21.9998 4.24638 22 4.74827C22 5.25033 21.593 5.65773 21.0914 5.65773C19.9945 5.65773 19.0455 6.59327 19.0455 7.82189L19.0416 7.91462C18.9951 8.373 18.6081 8.7303 18.1379 8.73037C17.6676 8.73037 17.2807 8.37303 17.2342 7.91462L17.2293 7.82189ZM18.1369 4.23929C17.9865 4.42374 17.8206 4.59436 17.6402 4.74827C17.8208 4.90231 17.9864 5.0736 18.1369 5.25824C18.2875 5.07342 18.4538 4.90244 18.6346 4.74827C18.454 4.59422 18.2873 4.42392 18.1369 4.23929ZM19.5383 18.1811H20.5996C21.1012 18.1811 21.5082 18.5885 21.5082 19.0905C21.5082 19.5926 21.1012 20 20.5996 20H0.908619C0.40702 20 1.70026e-07 19.5926 0 19.0905C0 18.5885 0.40702 18.1811 0.908619 18.1811H1.969V4.44249C1.96902 4.08433 2.17959 3.75945 2.50609 3.61292L10.3831 0.0796343C10.664 -0.046389 10.9899 -0.0217234 11.2483 0.145723C11.5068 0.313282 11.6632 0.600983 11.6632 0.909197L11.6622 7.08505C11.8781 6.93434 12.1104 6.80725 12.3757 6.72403C12.923 6.55243 13.5077 6.55239 14.055 6.72403C14.4162 6.83729 14.7158 7.03229 14.9971 7.25669C15.2702 7.47446 15.5795 7.76394 15.9412 8.10203L18.2059 10.2188C18.5581 10.5481 18.8516 10.8143 19.0652 11.148L19.1884 11.3601C19.3029 11.5765 19.3907 11.8063 19.4496 12.0447C19.5206 12.332 19.5354 12.6284 19.5383 12.967V18.1811Z" fill="#3A4757"/>
</svg>