<svg width="24" height="24" viewBox="0 0 24 24" fill="none" xmlns="http://www.w3.org/2000/svg">
<path d="M9.2306 2C6.95786 2 5.11543 3.84257 5.11543 6.11549C5.11543 8.38842 6.95786 10.231 9.2306 10.231C11.5033 10.231 13.3458 8.38842 13.3458 6.11549C13.3458 3.84257 11.5033 2 9.2306 2Z" fill="#3A4757"/>
<path d="M9.22099 10.9732C8.68331 10.9729 8.14557 11.0326 7.61792 11.1525C6.55724 11.3935 5.56475 11.8711 4.71464 12.5497C3.86454 13.2283 3.17881 14.0903 2.70873 15.0712C2.23891 16.0517 1.99665 17.1256 2.00004 18.2127V20.2881C2.00004 20.8404 2.44775 21.2882 3.00004 21.2882H10.6149C10.9843 21.2882 11.3236 21.0845 11.4974 20.7585C11.6711 20.4325 11.651 20.0373 11.4451 19.7306C10.8724 18.8777 10.483 17.5626 10.2826 16.097C10.0849 14.6516 10.0866 13.1767 10.2136 12.0893C10.2467 11.8059 10.1572 11.5219 9.96759 11.3087C9.77797 11.0954 9.50632 10.9734 9.22099 10.9732Z" fill="#3A4757"/>
<path d="M16.6097 10.1923C16.293 10.1923 15.9084 10.2888 15.5875 10.3858C15.2316 10.4933 14.8258 10.6422 14.4202 10.8153C13.6514 11.1435 12.721 11.627 12.1735 12.1745C12.0073 12.3408 11.8784 12.5407 11.7957 12.7608C11.7177 12.9682 11.6823 13.1891 11.6915 13.4103L11.6915 15.1998C11.6931 16.6421 12.1276 18.0507 12.9388 19.2432C13.75 20.4357 14.9005 21.3572 16.2413 21.8885C16.2507 21.8922 16.2602 21.8957 16.2696 21.8992C16.6415 22.0336 17.0486 22.0336 17.4204 21.8992C17.4299 21.8957 17.4393 21.8922 17.4487 21.8885C18.7895 21.3572 19.94 20.4357 20.7512 19.2432C21.5624 18.0507 21.9969 16.6421 21.9986 15.1998V13.4103C22.0078 13.1891 21.9724 12.9682 21.8944 12.7608C21.8116 12.5407 21.6828 12.3408 21.5165 12.1745C21.1936 11.8515 20.7551 11.5828 20.3385 11.368C19.9061 11.1452 19.4257 10.9446 18.9657 10.7768C18.5046 10.6087 18.0481 10.4678 17.6581 10.3675C17.3031 10.2762 16.9057 10.1923 16.6097 10.1923Z" fill="#3A4757"/>
</svg>