<svg width="24" height="24" viewBox="0 0 24 24" fill="none" xmlns="http://www.w3.org/2000/svg">
<path fill-rule="evenodd" clip-rule="evenodd" d="M14.8076 3.52636C16.3104 1.63427 19.1174 1.47661 20.8203 3.1914C22.5177 4.90115 22.3636 7.71564 20.4872 9.22753L13.3417 14.9844C13.3686 15.1539 13.3872 15.3256 13.3974 15.499C13.4814 16.9369 12.9666 18.4198 11.7089 19.6865C9.22808 22.1853 5.66326 22.3932 2.72553 21.5547C2.3857 21.4575 2.12162 21.1886 2.03217 20.8467C1.94294 20.5045 2.04086 20.1396 2.28998 19.8887C2.94422 19.2296 2.88892 18.3483 2.72162 16.7539C2.57527 15.3591 2.35229 13.3814 3.89057 11.832C5.14826 10.5653 6.62372 10.043 8.05854 10.1279C8.50863 10.1546 8.94661 10.2414 9.36518 10.3769L14.8076 3.52636ZM7.94037 12.125C7.10895 12.0758 6.18472 12.3597 5.30951 13.2412C4.52501 14.0315 4.55143 15.0252 4.71088 16.5449C4.80869 17.477 4.98687 18.7357 4.57611 19.9082C6.69582 20.2117 8.80872 19.7693 10.29 18.2773C11.1652 17.3957 11.4506 16.461 11.4013 15.6162C11.3505 14.7474 10.9394 13.8955 10.29 13.2412C9.9952 12.9443 9.65922 12.7004 9.3017 12.5146C9.24954 12.4933 9.19834 12.4682 9.14936 12.4375C8.76286 12.2587 8.35322 12.1495 7.94037 12.125ZM19.4003 4.60058C18.5425 3.73721 17.1329 3.81506 16.374 4.7705L11.1552 11.3389C11.3502 11.4924 11.5353 11.6572 11.7089 11.832C12.0547 12.1803 12.3608 12.5744 12.6152 13.0019L19.2324 7.66992C20.1836 6.9035 20.2632 5.46972 19.4003 4.60058Z" fill="#3A4757"/>
<path d="M17.336 15.1686C17.6085 14.2815 18.8695 14.2754 19.1496 15.1606L19.1741 15.2525L19.1998 15.3648C19.4254 16.3668 20.2218 17.1337 21.2204 17.3099C22.2605 17.4933 22.2599 19.0069 21.2204 19.1904C20.2217 19.3665 19.4253 20.1333 19.1998 21.1354L19.1741 21.2478C18.9475 22.2553 17.5302 22.2488 17.3121 21.2397L17.2913 21.1429C17.0741 20.1374 16.2787 19.3649 15.2786 19.1885C14.2412 19.0051 14.2404 17.4949 15.2786 17.3117L15.4636 17.2714C16.3758 17.0374 17.0878 16.2994 17.2913 15.3568L17.3121 15.2605L17.336 15.1686Z" fill="#3A4757"/>
</svg>