<svg width="20" height="20" viewBox="0 0 20 20" fill="none" xmlns="http://www.w3.org/2000/svg">
<path fill-rule="evenodd" clip-rule="evenodd" d="M10.4901 14.1529C10.4901 15.4723 9.41946 16.5317 8.10871 16.5317C6.79795 16.5317 5.72734 15.4623 5.72734 14.1529C5.72734 12.8436 6.79795 11.7741 8.10871 11.7741C9.41946 11.7741 10.4901 12.8436 10.4901 14.1529ZM8.10871 14.5427C8.31883 14.5427 8.48892 14.3728 8.48892 14.1629C8.48892 13.953 8.31883 13.7831 8.10871 13.7831C7.89859 13.7831 7.72849 13.953 7.72849 14.1629C7.72849 14.3728 7.89859 14.5427 8.10871 14.5427Z" fill="#3A4757"/>
<path fill-rule="evenodd" clip-rule="evenodd" d="M15.3429 6.54673C15.3429 7.47626 14.5824 8.23588 13.6519 8.23588C12.7214 8.23588 11.9609 7.47626 11.9609 6.54673C11.9609 5.61719 12.7214 4.85757 13.6519 4.85757C14.5824 4.85757 15.3429 5.61719 15.3429 6.54673ZM13.6519 6.23688C13.4818 6.23688 13.3417 6.37681 13.3417 6.54673C13.3417 6.71664 13.4818 6.85657 13.6519 6.85657C13.822 6.85657 13.9621 6.71664 13.9621 6.54673C13.9621 6.37681 13.822 6.23688 13.6519 6.23688Z" fill="#3A4757"/>
<path fill-rule="evenodd" clip-rule="evenodd" d="M16.0333 12.084C16.0333 13.4033 14.9626 14.4628 13.6519 14.4628C12.3411 14.4628 11.2705 13.3933 11.2705 12.084C11.2705 10.7746 12.3411 9.70515 13.6519 9.70515C14.9626 9.70515 16.0333 10.7746 16.0333 12.084ZM13.6519 12.4638C13.862 12.4638 14.0321 12.2939 14.0321 12.084C14.0321 11.8741 13.862 11.7041 13.6519 11.7041C13.4418 11.7041 13.2717 11.8741 13.2717 12.084C13.2717 12.2939 13.4418 12.4638 13.6519 12.4638Z" fill="#3A4757"/>
<path d="M9.81969 20C9.35942 20 8.88915 19.97 8.42889 19.91C6.57783 19.6602 4.83683 18.9205 3.396 17.7611C1.94517 16.6017 0.84454 15.0725 0.224185 13.3533C0.014064 12.7836 -0.0459704 12.1639 0.0340755 11.5642C0.114121 10.9645 0.354259 10.3848 0.70446 9.89505C1.05466 9.4053 1.53494 9.0055 2.07525 8.72564C2.61556 8.45577 3.2159 8.30585 3.81624 8.30585H6.47777C6.91802 8.30585 7.33826 8.15592 7.66845 7.87606C7.99864 7.6062 8.21877 7.22639 8.2788 6.81659C8.34884 6.4068 8.25879 5.98701 8.03867 5.62719C7.81854 5.26737 7.45833 4.9975 7.0481 4.85757C6.56782 4.68766 6.1876 4.4078 5.90744 4.03798C5.62728 3.66817 5.46719 3.23838 5.43717 2.78861C5.37714 2.26887 5.50721 1.73913 5.80739 1.28936C6.11756 0.83958 6.56782 0.509745 7.08812 0.369815C7.95862 0.129935 8.86914 0 9.77966 0H9.81969C11.6808 0 13.5118 0.49975 15.1027 1.44928C16.6936 2.3988 17.9944 3.75812 18.8549 5.38731C19.7154 7.01649 20.1056 8.84558 19.9755 10.6747C19.8454 12.5037 19.2051 14.2629 18.1245 15.7621C17.0438 17.2614 15.573 18.4308 13.852 19.1604C12.5713 19.7001 11.1905 19.98 9.80968 19.98L9.81969 20ZM3.82625 10.3148C3.53608 10.3148 3.24592 10.3848 2.98577 10.5147C2.72562 10.6447 2.50549 10.8346 2.3354 11.0645C2.1653 11.2944 2.06524 11.5642 2.02522 11.8341C1.98519 12.1139 2.02522 12.3938 2.11527 12.6637C2.61556 14.043 3.49606 15.2624 4.65673 16.1919C5.81739 17.1214 7.2182 17.7211 8.70905 17.921C10.1999 18.1209 11.7108 17.921 13.0916 17.3313C14.4724 16.7516 15.653 15.8021 16.5235 14.6027C17.384 13.4033 17.8943 12.004 17.9944 10.5447C18.0944 9.08546 17.7843 7.62619 17.1039 6.32684C16.4135 5.02749 15.3729 3.92804 14.0921 3.16842C12.8014 2.3988 11.3406 2.01899 9.79968 1.999C9.06926 1.999 8.33884 2.09895 7.63844 2.28886C7.5684 2.30885 7.51837 2.34883 7.47834 2.3988C7.44833 2.43878 7.43832 2.49875 7.43832 2.54873C7.43832 2.56872 7.43832 2.5987 7.43832 2.61869C7.43832 2.68866 7.46834 2.75862 7.50836 2.81859C7.54839 2.87856 7.61842 2.92854 7.69847 2.95852C8.52895 3.22839 9.25937 3.7981 9.73964 4.55772C10.2199 5.32734 10.4 6.23688 10.2499 7.12644C10.0998 8.01599 9.63958 8.82559 8.93918 9.4053C8.24879 9.97501 7.36828 10.2949 6.46776 10.2949H3.80624L3.82625 10.3148Z" fill="#3A4757"/>
</svg>