<svg width="20" height="16" viewBox="0 0 20 16" fill="none" xmlns="http://www.w3.org/2000/svg">
<path fill-rule="evenodd" clip-rule="evenodd" d="M0.7568 1.80961L6.30318 0.0535655C6.31639 0.0493447 6.32967 0.0453695 6.34302 0.0416411C6.44251 0.013848 6.54445 0.000117205 6.64588 8.83653e-07C6.72501 -9.79399e-05 6.80454 0.00809168 6.88309 0.0248279C6.90341 0.0291557 6.92361 0.0340444 6.94367 0.0394901L13.2615 1.73209L18.5606 0.0527418C18.895 -0.0532416 19.2616 0.0024246 19.5465 0.202444C19.8314 0.402463 20 0.7226 20 1.06338V13.1797C20 13.6395 19.6948 14.0473 19.2435 14.1903L13.6996 15.9473C13.5631 15.9905 13.4212 16.0068 13.2817 15.9974C13.159 16.0057 13.0342 15.9941 12.9126 15.9615L6.67367 14.29L1.43914 15.9474C1.10474 16.0532 0.73821 15.9975 0.4534 15.7975C0.16859 15.5974 0 15.2773 0 14.9366V2.82034C0 2.36037 0.305369 1.95253 0.7568 1.80961ZM7.28538 12.1166V2.20699L12.73 3.79196V13.7016L7.28538 12.1166Z" fill="#3A4757"/>
</svg>