<svg width="20" height="16" viewBox="0 0 20 16" fill="none" xmlns="http://www.w3.org/2000/svg">
<path fill-rule="evenodd" clip-rule="evenodd" d="M19.543 0.202443C19.8301 0.402462 20 0.7226 20 1.06338V13.1797C20 13.6395 19.6924 14.0473 19.2377 14.1903L13.6511 15.9473C13.4441 16.0123 13.2218 16.0173 13.012 15.9615L6.72505 14.29L1.45022 15.9474C1.11325 16.0532 0.743893 15.9975 0.45689 15.7975C0.169888 15.5974 0 15.2773 0 14.9366V2.82034C0 2.36037 0.307719 1.95253 0.762626 1.80961L6.35462 0.0526466C6.56147 -0.0123429 6.78366 -0.0172644 6.99341 0.0384978L13.2802 1.70991L18.5495 0.0527409C18.8865 -0.0532425 19.2559 0.00242372 19.543 0.202443ZM12.2006 3.6295L7.80484 2.46085V12.3705L12.2006 13.5392V3.6295ZM14.4134 13.4698L17.7872 12.4088V2.53021L14.4134 3.59123V13.4698ZM5.592 12.4085V2.52977L2.21285 3.59147V13.4702L5.592 12.4085Z" fill="#3A4757"/>
</svg>