<svg width="12" height="15" viewBox="0 0 12 15" fill="none" xmlns="http://www.w3.org/2000/svg">
<path fill-rule="evenodd" clip-rule="evenodd" d="M11.9997 12.3603L11.9999 12.3674L12 12.375L11.997 12.4147L11.9977 12.4095C11.9965 12.4282 11.9944 12.4412 11.9917 12.4539C11.9892 12.4654 11.9862 12.4769 11.9826 12.4883L11.9717 12.5183C11.9675 12.5284 11.9627 12.5387 11.9574 12.5488C11.9525 12.558 11.9475 12.5668 11.9421 12.5753C11.9394 12.5795 11.9366 12.5839 11.9336 12.5882L11.9238 12.6016C11.9161 12.6118 11.9078 12.6216 11.8991 12.631L9.63096 14.8991L9.61661 14.9118L9.60825 14.9183L9.64017 14.8902L9.6045 14.9205L9.5751 14.9422C9.56676 14.9475 9.55804 14.9525 9.5491 14.9572C9.53871 14.9627 9.5284 14.9675 9.51795 14.9718C9.50852 14.9757 9.49855 14.9793 9.4884 14.9825C9.47688 14.9862 9.46535 14.9892 9.45374 14.9917C9.44573 14.9934 9.43744 14.9949 9.42906 14.9961C9.41615 14.998 9.4033 14.9992 9.39043 14.9997C9.38532 14.9999 9.38017 15 9.375 15L9.33075 14.9963H9.32925L9.34066 14.9984L9.35625 14.9993L9.33493 14.9979L9.32775 14.9963L9.28681 15H0.375C0.190905 15 0.0377937 14.8737 0.00604177 14.7071L0 14.6429V0.357143C0 0.181814 0.132657 0.0359938 0.307594 0.00575387L0.375 0H11.625C11.8091 0 11.9622 0.126339 11.994 0.292946L12 0.357143V12.2999L11.997 12.3307L11.9997 12.3603ZM11.2493 0.713571H0.74925V14.285L9 14.2853V12.375C9 12.1679 9.16789 12 9.375 12H11.25L11.2493 0.713571ZM10.719 12.75H9.75V13.719L10.719 12.75ZM6.375 4.5C6.58211 4.5 6.75 4.66789 6.75 4.875C6.75 5.05909 6.61734 5.21221 6.44241 5.24396L6.375 5.25H2.625C2.41789 5.25 2.25 5.08211 2.25 4.875C2.25 4.69091 2.38266 4.53779 2.55759 4.50604L2.625 4.5H6.375ZM9.375 3C9.58211 3 9.75 3.16789 9.75 3.375C9.75 3.55909 9.61734 3.71221 9.44241 3.74396L9.375 3.75H2.625C2.41789 3.75 2.25 3.58211 2.25 3.375C2.25 3.19091 2.38266 3.03779 2.55759 3.00604L2.625 3H9.375Z" fill="#3A4757"/>
</svg>