<svg width="12" height="15" viewBox="0 0 12 15" fill="none" xmlns="http://www.w3.org/2000/svg">
<path fill-rule="evenodd" clip-rule="evenodd" d="M11.6121 0C11.8025 0 11.9609 0.132278 11.9937 0.306717L12 0.373932V14.6261C12 14.8096 11.8628 14.9623 11.6818 14.994L11.6121 15H0.387897C0.197471 15 0.0390932 14.8677 0.00624919 14.6933L0 14.6261V2.98799C0 2.92083 0.018749 2.85534 0.0536907 2.79817L0.0939353 2.74402L2.42852 0.129961C2.48747 0.0639538 2.56795 0.0203831 2.65561 0.00559509L2.72248 0H11.6121ZM11.25 0.747864L2.991 0.74775L2.96539 3.00233C2.96539 3.22389 3 3.75 2.6578 3.74396L2.59039 3.75H0.75V14.252H11.25V0.747864ZM9.375 12C9.58211 12 9.75 12.1679 9.75 12.375C9.75 12.5591 9.61734 12.7122 9.44241 12.744L9.375 12.75H7.875C7.66789 12.75 7.5 12.5821 7.5 12.375C7.5 12.1909 7.63266 12.0378 7.80759 12.006L7.875 12H9.375ZM6.375 8.25C6.58211 8.25 6.75 8.41789 6.75 8.625C6.75 8.8091 6.61734 8.96221 6.44241 8.99396L6.375 9H2.625C2.41789 9 2.25 8.83211 2.25 8.625C2.25 8.4409 2.38266 8.28779 2.55759 8.25604L2.625 8.25H6.375ZM8.625 6.75C8.83211 6.75 9 6.91789 9 7.125C9 7.30909 8.86734 7.46221 8.69241 7.49396L8.625 7.5H2.625C2.41789 7.5 2.25 7.33211 2.25 7.125C2.25 6.94091 2.38266 6.78779 2.55759 6.75604L2.625 6.75H8.625ZM2.25 1.446L0.75 3V3.00225L2.25 3.00233V1.446ZM9.375 1.5C9.58211 1.5 9.75 1.66789 9.75 1.875C9.75 2.05909 9.61734 2.21221 9.44241 2.24396L9.375 2.25H5.625C5.41789 2.25 5.25 2.08211 5.25 1.875C5.25 1.69091 5.38266 1.53779 5.55759 1.50604L5.625 1.5H9.375Z" fill="#3A4757"/>
</svg>