<svg width="20" height="20" viewBox="0 0 20 20" fill="none" xmlns="http://www.w3.org/2000/svg">
<path d="M18.4174 19.7173L11.6346 12.9319L12.9346 11.6313L19.7174 18.4167C19.9058 18.6052 20 18.822 20 19.067C20 19.312 19.9058 19.5288 19.7174 19.7173C19.529 19.9058 19.3123 20 19.0674 20C18.8224 20 18.6058 19.9058 18.4174 19.7173ZM2.25173 18.1906C0.932862 16.4 0.19335 14.4162 0.0332016 12.2392C-0.126947 10.0622 0.292266 8.01244 1.29084 6.08991C1.32852 6.7119 1.46512 7.40458 1.70063 8.16794C1.93615 8.9313 2.27058 9.72764 2.70392 10.557C3.13726 11.3863 3.65539 12.2439 4.25831 13.1298C4.86122 14.0156 5.5395 14.8827 6.29314 15.7308L3.7496 18.2754C3.52351 18.5016 3.26444 18.6052 2.9724 18.5864C2.68037 18.5675 2.44015 18.4356 2.25173 18.1906ZM7.45186 14.5717C6.52865 13.6293 5.72791 12.6256 5.04963 11.5606C4.37135 10.4957 3.85793 9.46848 3.50937 8.47894C3.16082 7.4894 2.98654 6.57996 2.98654 5.75064C2.98654 4.92131 3.19379 4.28046 3.60829 3.8281C4.06048 3.33805 4.7152 3.08359 5.57247 3.06474C6.42974 3.0459 7.3765 3.20611 8.41276 3.54538C9.44902 3.88465 10.5135 4.38884 11.6063 5.05796C12.6991 5.72708 13.6882 6.52342 14.5738 7.44699L7.45186 14.5717ZM18.276 3.74329L15.7325 6.28782C14.9035 5.53388 14.0509 4.85534 13.1748 4.25219C12.2987 3.64904 11.432 3.13543 10.5748 2.71134C9.7175 2.28725 8.8932 1.96211 8.10188 1.73593C7.31056 1.50975 6.5946 1.38724 5.954 1.36839C7.89463 0.331731 9.96714 -0.115917 12.1715 0.0254453C14.3759 0.166808 16.3825 0.906607 18.1913 2.24484C18.4362 2.43332 18.5681 2.67364 18.5869 2.96579C18.6058 3.25794 18.5021 3.5171 18.276 3.74329Z" fill="#3A4757"/>
</svg>