<svg width="20" height="20" viewBox="0 0 20 20" fill="none" xmlns="http://www.w3.org/2000/svg">
<path d="M18.5052 19.7448L11.719 12.964L12.9746 11.7095L19.7608 18.4902C19.9203 18.6495 20 18.8586 20 19.1175C20 19.3764 19.9203 19.5855 19.7608 19.7448C19.5815 19.924 19.3722 20.0088 19.133 19.9993C18.8939 19.9889 18.6846 19.9041 18.5052 19.7448ZM1.67414 17.5044C1.11609 16.5685 0.697559 15.5927 0.418535 14.5771C0.139512 13.5615 0 12.5259 0 11.4705C0 9.99685 0.279024 8.55786 0.837071 7.15352C1.39512 5.74998 2.23219 4.49062 3.34828 3.37543C4.4843 2.24033 5.75984 1.39398 7.17489 0.836389C8.58994 0.278796 10.0249 0 11.4798 0C12.5561 0 13.5976 0.139398 14.6045 0.418195C15.6106 0.696991 16.572 1.11519 17.4888 1.67278C17.987 1.97149 18.2561 2.40442 18.296 2.97157C18.3358 3.53952 18.1365 4.04255 17.6981 4.48066L4.4843 17.6837C4.04584 18.1218 3.5428 18.3209 2.97519 18.2811C2.40678 18.2413 1.97309 17.9824 1.67414 17.5044ZM3.16891 16.459L5.05232 14.5771C4.73343 14.139 4.42451 13.6857 4.12556 13.2173C3.82661 12.7498 3.55755 12.267 3.31839 11.7692C3.07922 11.2713 2.87992 10.7536 2.72048 10.2159C2.56104 9.67822 2.44145 9.13059 2.36173 8.57299C1.88341 9.88732 1.71918 11.2315 1.86906 12.6056C2.01814 13.9797 2.45142 15.2641 3.16891 16.459ZM6.36771 13.2926L13.3034 6.30279C12.4464 5.64563 11.5795 5.12269 10.7025 4.73397C9.82561 4.34604 8.9985 4.08238 8.22123 3.94298C7.44395 3.80358 6.7416 3.79362 6.1142 3.91311C5.486 4.03259 5.00249 4.2616 4.66368 4.60014C4.30493 4.9586 4.07095 5.45167 3.96173 6.07936C3.85172 6.70625 3.86129 7.40802 3.99043 8.18467C4.12038 8.96132 4.38465 9.78775 4.78326 10.664C5.18186 11.5402 5.71001 12.4164 6.36771 13.2926ZM16.5321 3.16633C15.2965 2.42951 13.991 1.9914 12.6158 1.85201C11.2407 1.71261 9.89537 1.87192 8.57997 2.32994C9.15795 2.4096 9.71121 2.53386 10.2398 2.70273C10.7675 2.8724 11.2857 3.07154 11.7943 3.30015C12.3021 3.52956 12.7853 3.79362 13.2436 4.09234C13.702 4.39105 14.1505 4.70967 14.5889 5.04821L16.5321 3.16633Z" fill="#3A4757"/>
</svg>