<svg width="15" height="12" viewBox="0 0 15 12" fill="none" xmlns="http://www.w3.org/2000/svg">
<path fill-rule="evenodd" clip-rule="evenodd" d="M0.388466 0.0018156H0.449516C3.85813 0.398366 5.20123 1.76087 6.27978 2.85901C6.4731 3.0522 6.65625 3.23522 6.84957 3.40808H8.91509C9.95294 3.40808 10.6245 4.29269 10.6245 5.66537V9.18348C10.6245 9.40717 10.4413 9.59019 10.2175 9.59019H7.6127C7.4092 10.9527 6.24925 12 4.83493 12C3.42061 12 2.26066 10.9527 2.05716 9.59019H0.408816C0.184966 9.60036 0.00181685 9.41734 0.00181685 9.19364C0.00181685 8.96995 0.184966 8.78693 0.408816 8.78693H2.05716C2.05716 8.78693 2.07751 8.73609 2.07751 8.70558C2.08769 8.62424 2.10804 8.55306 2.12839 8.48189C2.15891 8.38021 2.17926 8.2887 2.21996 8.19719C2.25049 8.12601 2.28101 8.05483 2.31154 7.98366C2.35224 7.89215 2.40311 7.8108 2.45399 7.72946C2.49469 7.66845 2.53538 7.59728 2.57608 7.53627C2.63713 7.45493 2.69818 7.38375 2.75923 7.31257C2.81011 7.25157 2.86098 7.20073 2.91186 7.14989C2.98308 7.07871 3.06448 7.0177 3.14588 6.9567C3.20693 6.91602 3.25781 6.86518 3.32903 6.82451C3.42061 6.7635 3.51218 6.72283 3.60376 6.67199C3.66481 6.64149 3.72586 6.61098 3.78691 6.58048C3.89883 6.53981 4.01076 6.50931 4.12268 6.4788C4.18373 6.46863 4.23461 6.43813 4.29566 6.42796C4.46863 6.39746 4.65178 6.37712 4.83493 6.37712C5.01808 6.37712 5.20123 6.39746 5.3742 6.42796C5.43525 6.43813 5.48613 6.45847 5.54718 6.4788C5.6591 6.50931 5.77103 6.53981 5.88295 6.58048C5.944 6.61098 6.00505 6.64149 6.0661 6.67199C6.15768 6.72283 6.24925 6.7635 6.34083 6.82451C6.40188 6.86518 6.46292 6.90586 6.52397 6.9567C6.60537 7.0177 6.6766 7.07871 6.758 7.14989C6.80887 7.20073 6.85975 7.25157 6.91062 7.31257C6.97167 7.38375 7.0429 7.45493 7.09377 7.53627C7.13447 7.59728 7.18535 7.65828 7.21587 7.72946C7.26675 7.8108 7.31762 7.90232 7.35832 7.98366C7.38885 8.05483 7.41937 8.12601 7.4499 8.19719C7.4906 8.2887 7.51095 8.39038 7.54147 8.48189C7.56182 8.55306 7.58217 8.62424 7.59235 8.70558C7.59235 8.73609 7.6127 8.75642 7.6127 8.78693H9.79014V6.26527H8.16215C7.9383 6.26527 7.75515 6.08225 7.75515 5.85856C7.75515 5.63486 7.9383 5.45184 8.16215 5.45184H9.77997C9.74944 5.02478 9.59682 4.23168 8.90492 4.23168H0.408816C0.184966 4.23168 0.00181685 4.04866 0.00181685 3.82497C0.00181685 3.60127 0.184966 3.41825 0.408816 3.41825H5.68963C4.65178 2.36078 3.47148 1.17113 0.357941 0.815252C0.134091 0.784748 -0.0185331 0.581389 0.00181685 0.357694C0.0323418 0.133999 0.235841 -0.0185203 0.459691 0.0018156H0.388466ZM4.83493 7.19056C3.72586 7.19056 2.83046 8.08534 2.83046 9.19364C2.83046 10.302 3.72586 11.1967 4.83493 11.1967C5.944 11.1967 6.8394 10.302 6.8394 9.19364C6.8394 8.08534 5.944 7.19056 4.83493 7.19056Z" fill="#3A4757"/>
<path d="M12.8524 3.30613C13.771 4.16116 14.2791 5.2746 14.3234 6.52155C14.3677 7.76849 13.9399 8.91514 13.0843 9.83312C12.9527 9.97434 12.9603 10.1887 13.1016 10.3202C13.2429 10.4517 13.4574 10.4441 13.5793 10.3033C14.5571 9.25414 15.0473 7.93946 14.9964 6.50743C14.9455 5.07539 14.3633 3.79875 13.3135 2.82158C13.1722 2.69004 12.9577 2.69765 12.8358 2.83853C12.7139 2.97941 12.7118 3.19407 12.8528 3.31588L12.8524 3.30613Z" fill="#3A4757"/>
<path d="M12.4047 4.17083C12.2634 4.03928 12.049 4.04689 11.9271 4.18777C11.8052 4.32865 11.8031 4.54332 11.944 4.66512C12.4589 5.14431 12.7338 5.73931 12.759 6.45046C12.7843 7.1616 12.5338 7.8045 12.0728 8.28906C11.9412 8.43028 11.9488 8.6446 12.0901 8.77614C12.2314 8.90769 12.4459 8.90008 12.5678 8.7592C13.1507 8.13376 13.4621 7.28387 13.4317 6.42659C13.4012 5.56932 13.0505 4.76242 12.4047 4.17083Z" fill="#3A4757"/>
</svg>