<svg width="16" height="13" viewBox="0 0 16 13" fill="none" xmlns="http://www.w3.org/2000/svg">
<path fill-rule="evenodd" clip-rule="evenodd" d="M1.25956 0.898788H1.32061C4.72923 1.29534 6.07232 2.65784 7.15087 3.75598C7.34419 3.94917 7.52734 4.1322 7.72067 4.30505H9.78619C10.824 4.30505 11.4956 5.18966 11.4956 6.56234V10.0804C11.4956 10.3041 11.3124 10.4872 11.0886 10.4872H8.48379C8.28029 11.8497 7.12034 12.897 5.70602 12.897C4.2917 12.897 3.13175 11.8497 2.92826 10.4872H1.27991C1.05606 10.4973 0.872911 10.3143 0.872911 10.0906C0.872911 9.86692 1.05606 9.6839 1.27991 9.6839H2.92826C2.92826 9.6839 2.94861 9.63306 2.94861 9.60256C2.95878 9.52121 2.97913 9.45004 2.99948 9.37886C3.03 9.27718 3.05035 9.18567 3.09105 9.09416C3.12158 9.02298 3.1521 8.95181 3.18263 8.88063C3.22333 8.78912 3.2742 8.70778 3.32508 8.62643C3.36578 8.56542 3.40648 8.49425 3.44718 8.43324C3.50823 8.3519 3.56928 8.28072 3.63033 8.20955C3.6812 8.14854 3.73208 8.0977 3.78295 8.04686C3.85418 7.97568 3.93558 7.91468 4.01698 7.85367C4.07803 7.813 4.1289 7.76216 4.20013 7.72148C4.2917 7.66048 4.38328 7.61981 4.47485 7.56897C4.5359 7.53846 4.59695 7.50796 4.658 7.47745C4.76993 7.43678 4.88185 7.40628 4.99377 7.37577C5.05482 7.36561 5.1057 7.3351 5.16675 7.32493C5.33972 7.29443 5.52287 7.27409 5.70602 7.27409C5.88917 7.27409 6.07232 7.29443 6.2453 7.32493C6.30635 7.3351 6.35722 7.35544 6.41827 7.37577C6.5302 7.40628 6.64212 7.43678 6.75405 7.47745C6.8151 7.50796 6.87614 7.53846 6.93719 7.56897C7.02877 7.61981 7.12034 7.66048 7.21192 7.72148C7.27297 7.76216 7.33402 7.80283 7.39507 7.85367C7.47647 7.91468 7.54769 7.97568 7.62909 8.04686C7.67997 8.0977 7.73084 8.14854 7.78172 8.20955C7.84277 8.28072 7.91399 8.3519 7.96487 8.43324C8.00557 8.49425 8.05644 8.55526 8.08697 8.62643C8.13784 8.70778 8.18872 8.79929 8.22942 8.88063C8.25994 8.95181 8.29047 9.02298 8.32099 9.09416C8.36169 9.18567 8.38204 9.28735 8.41257 9.37886C8.43292 9.45004 8.45327 9.52121 8.46344 9.60256C8.46344 9.63306 8.48379 9.6534 8.48379 9.6839H10.6612V7.16225H9.03324C8.80939 7.16225 8.62624 6.97922 8.62624 6.75553C8.62624 6.53183 8.80939 6.34881 9.03324 6.34881H10.6511C10.6205 5.92176 10.4679 5.12866 9.77601 5.12866H1.27991C1.05606 5.12866 0.872911 4.94563 0.872911 4.72194C0.872911 4.49824 1.05606 4.31522 1.27991 4.31522H6.56072C5.52287 3.25775 4.34258 2.0681 1.22903 1.71222C1.00519 1.68172 0.852561 1.47836 0.872911 1.25467C0.903436 1.03097 1.10693 0.878452 1.33078 0.898788H1.25956ZM5.70602 8.08753C4.59695 8.08753 3.70155 8.98231 3.70155 10.0906C3.70155 11.1989 4.59695 12.0937 5.70602 12.0937C6.81509 12.0937 7.71049 11.1989 7.71049 10.0906C7.71049 8.98231 6.81509 8.08753 5.70602 8.08753Z" fill="#3A4757"/>
<path d="M13.7235 4.20311C14.6421 5.05813 15.1502 6.17158 15.1945 7.41852C15.2388 8.66547 14.811 9.81211 13.9554 10.7301C13.8238 10.8713 13.8314 11.0856 13.9727 11.2172C14.114 11.3487 14.3285 11.3411 14.4504 11.2002C15.4282 10.1511 15.9184 8.83644 15.8675 7.4044C15.8166 5.97236 15.2344 4.69573 14.1846 3.71855C14.0433 3.58701 13.8288 3.59462 13.7069 3.7355C13.585 3.87638 13.5829 4.09105 13.7239 4.21285L13.7235 4.20311Z" fill="#3A4757"/>
<path d="M13.2758 5.0678C13.1345 4.93626 12.9201 4.94387 12.7982 5.08475C12.6763 5.22563 12.6741 5.44029 12.8151 5.56209C13.33 6.04128 13.6049 6.63628 13.6301 7.34743C13.6554 8.05858 13.4049 8.70148 12.9439 9.18603C12.8122 9.32726 12.8199 9.54157 12.9612 9.67312C13.1025 9.80466 13.317 9.79705 13.4389 9.65617C14.0218 9.03074 14.3332 8.18084 14.3028 7.32356C14.2723 6.46629 13.9216 5.65939 13.2758 5.0678Z" fill="#3A4757"/>
</svg>