<svg width="14" height="15" viewBox="0 0 14 15" fill="none" xmlns="http://www.w3.org/2000/svg">
<path fill-rule="evenodd" clip-rule="evenodd" d="M4.4006 0C6.16265 0 7.62309 1.51249 7.75973 3.48897L7.76826 3.75083C7.76826 5.82236 6.26051 7.50167 4.4006 7.50167H1.55365V11.2382C1.55365 11.6604 1.20585 12.0027 0.776826 12.0027C0.395467 12.0027 0.0782911 11.7322 0.0125158 11.3756L0 11.2382V0.7645C0 0.655827 0.0230409 0.55245 0.0645764 0.458842C0.176599 0.187885 0.422346 0 0.707492 0H4.4006ZM4.4006 1.57598L1.55365 1.57535V5.92482L4.4006 5.92569C5.4156 5.92569 6.24972 5.06316 6.34477 3.98556L6.3538 3.78115L6.34738 3.58002C6.26918 2.45326 5.42209 1.57598 4.4006 1.57598Z" fill="#3A4757"/>
<path d="M10.8738 10.5439C11.9237 9.09623 12.3231 7.39716 12.0228 5.63404L12.0146 5.64535C11.9602 5.38541 12.1522 5.14465 12.4165 5.09116C12.6809 5.03767 12.934 5.21511 12.9802 5.48636C13.3234 7.50136 12.8651 9.44915 11.6593 11.1117C10.4535 12.7742 8.72986 13.8349 6.6805 14.1723C6.41613 14.2258 6.16307 14.0484 6.11688 13.7771C6.07068 13.5059 6.25114 13.257 6.52701 13.2116C8.32019 12.9164 9.82383 11.9915 10.8738 10.5439Z" fill="#3A4757"/>
<path d="M10.1816 5.82778C10.446 5.77429 10.6991 5.95173 10.7452 6.22298C10.9646 7.45167 10.6552 8.66785 9.93337 9.66311C9.21153 10.6584 8.10351 11.3487 6.88178 11.5499C6.61741 11.6034 6.36435 11.426 6.31815 11.1547C6.27195 10.8835 6.45241 10.6346 6.72829 10.5892C7.68564 10.4415 8.54089 9.93223 9.13969 9.10661C9.73849 8.281 9.94799 7.37009 9.77969 6.38197C9.72529 6.12203 9.91725 5.88127 10.1816 5.82778Z" fill="#3A4757"/>
</svg>