<svg width="14" height="15" viewBox="0 0 14 15" fill="none" xmlns="http://www.w3.org/2000/svg">
<path fill-rule="evenodd" clip-rule="evenodd" d="M4.85507 0.45459C6.61712 0.45459 8.07755 1.96708 8.2142 3.94356L8.22273 4.20542C8.22273 6.27695 6.71497 7.95626 4.85507 7.95626H2.00812V11.6928C2.00812 12.115 1.66032 12.4573 1.23129 12.4573C0.849934 12.4573 0.532759 12.1868 0.466984 11.8302L0.454468 11.6928V1.21909C0.454468 1.11042 0.477509 1.00704 0.519044 0.913432C0.631066 0.642474 0.876813 0.45459 1.16196 0.45459H4.85507ZM4.85507 2.03057L2.00812 2.02994V6.37941L4.85507 6.38028C5.87006 6.38028 6.70418 5.51775 6.79924 4.44015L6.80827 4.23574L6.80185 4.03461C6.72364 2.90785 5.87656 2.03057 4.85507 2.03057Z" fill="#3A4757"/>
<path d="M11.3282 10.9985C12.3782 9.55082 12.7776 7.85175 12.4773 6.08863L12.4691 6.09994C12.4147 5.83999 12.6066 5.59924 12.871 5.54575C13.1354 5.49226 13.3884 5.6697 13.4346 5.94095C13.7778 7.95595 13.3195 9.90374 12.1137 11.5663C10.9079 13.2288 9.18433 14.2895 7.13497 14.6269C6.8706 14.6804 6.61754 14.5029 6.57134 14.2317C6.52514 13.9604 6.7056 13.7116 6.98148 13.6662C8.77466 13.3709 10.2783 12.4461 11.3282 10.9985Z" fill="#3A4757"/>
<path d="M10.6361 6.28237C10.9005 6.22888 11.1535 6.40632 11.1997 6.67757C11.4191 7.90626 11.1097 9.12244 10.3878 10.1177C9.666 11.113 8.55798 11.8033 7.33625 12.0045C7.07188 12.058 6.81882 11.8805 6.77262 11.6093C6.72642 11.338 6.90688 11.0892 7.18275 11.0438C8.14011 10.8961 8.99536 10.3868 9.59416 9.5612C10.193 8.73559 10.4025 7.82468 10.2342 6.83656C10.1798 6.57661 10.3717 6.33586 10.6361 6.28237Z" fill="#3A4757"/>
</svg>