<svg width="11" height="16" viewBox="0 0 11 16" fill="none" xmlns="http://www.w3.org/2000/svg">
<path fill-rule="evenodd" clip-rule="evenodd" d="M10.6333 0C10.8358 0 11 0.159188 11 0.355556V10.3111C11 10.5075 10.8358 10.6667 10.6333 10.6667H7.46429V15.619C7.46429 15.8061 7.32531 15.9616 7.14205 15.9939L7.07143 16H3.92857C3.7116 16 3.53571 15.8294 3.53571 15.619V10.6667H0.366666C0.186662 10.6667 0.036954 10.5409 0.0059076 10.375L0 10.3111V0.355556C0 0.159188 0.164162 0 0.366666 0H10.6333ZM6.67857 10.6667H4.32143V15.2381H6.67857V10.6667ZM10.2143 0.761905H0.785714V9.90476H10.2143V0.761905ZM1.96429 8.38095C2.18125 8.38095 2.35714 8.55151 2.35714 8.7619C2.35714 8.9723 2.18125 9.14286 1.96429 9.14286C1.74732 9.14286 1.57143 8.9723 1.57143 8.7619C1.57143 8.55151 1.74732 8.38095 1.96429 8.38095ZM9.03571 8.38095C9.25268 8.38095 9.42857 8.55151 9.42857 8.7619C9.42857 8.9723 9.25268 9.14286 9.03571 9.14286C8.81874 9.14286 8.64286 8.9723 8.64286 8.7619C8.64286 8.55151 8.81874 8.38095 9.03571 8.38095ZM6.15405 2.28571C7.04515 2.28571 7.78373 3.05379 7.85283 4.0575L7.85714 4.19048C7.85714 5.24245 7.09464 6.09524 6.15405 6.09524H4.71429V7.99272C4.71429 8.20714 4.5384 8.38095 4.32143 8.38095C4.12857 8.38095 3.96816 8.24362 3.9349 8.06251L3.92857 7.99272V2.67395C3.92857 2.61876 3.94022 2.56626 3.96123 2.51873C4.01788 2.38113 4.14216 2.28571 4.28637 2.28571H6.15405ZM6.15405 3.08603L4.71429 3.08571V5.29448L6.15405 5.29492C6.66735 5.29492 7.08918 4.85691 7.13726 4.30968L7.14182 4.20587L7.13857 4.10373C7.09903 3.53154 6.67064 3.08603 6.15405 3.08603ZM9.03571 1.52381C9.25268 1.52381 9.42857 1.69437 9.42857 1.90476C9.42857 2.11516 9.25268 2.28571 9.03571 2.28571C8.81874 2.28571 8.64286 2.11516 8.64286 1.90476C8.64286 1.69437 8.81874 1.52381 9.03571 1.52381ZM1.96429 1.52381C2.18125 1.52381 2.35714 1.69437 2.35714 1.90476C2.35714 2.11516 2.18125 2.28571 1.96429 2.28571C1.74732 2.28571 1.57143 2.11516 1.57143 1.90476C1.57143 1.69437 1.74732 1.52381 1.96429 1.52381Z" fill="#3A4757"/>
</svg>