<svg width="15" height="15" viewBox="0 0 15 15" fill="none" xmlns="http://www.w3.org/2000/svg">
<path fill-rule="evenodd" clip-rule="evenodd" d="M12.8085 14.2386L11.241 12.6724L12.6833 11.2313L14.25 12.7975V14.2386H12.8085ZM0.75 11.1788L3.81225 14.2386H0.75V11.1788ZM2.19225 0.7494L3.687 2.24296L2.24625 3.68405L0.75 2.18975V0.7494H2.19225ZM14.25 3.83243L11.1645 0.7494H14.25V3.83243ZM11.577 5.14988C11.5583 5.10267 11.532 5.05695 11.493 5.01799C11.454 4.97977 11.409 4.95204 11.361 4.93405L9.57 3.14448L11.0355 1.68016L14.25 4.89209V7.82149L11.577 5.14988ZM9.774 7.26544L11.2035 5.83708L14.25 8.88114V11.7379L9.774 7.26544ZM10.104 0.7494L10.5052 1.15033L9.03975 2.61466L7.17225 0.7494H10.104ZM6.11175 0.7494L10.6733 5.30725L9.24375 6.73561L3.25275 0.7494H6.11175ZM2.7765 4.21388L4.21725 2.77278L12.1523 10.7014L10.7108 12.1425L2.7765 4.21388ZM0.75 7.21448L2.59275 9.05575L1.13925 10.5081L0.75 10.1192V7.21448ZM1.9215 4.41921C1.9365 4.44394 1.94775 4.46942 1.96875 4.49041C1.98975 4.51214 2.01525 4.52263 2.03925 4.53762L6.74175 9.23561L5.2875 10.6887L0.75 6.15483V3.2494L1.9215 4.41921ZM4.87275 14.2386L1.6695 11.0379L3.123 9.58558L7.77975 14.2386H4.87275ZM8.84025 14.2386L5.81775 11.2185L7.272 9.76544L10.3868 12.8784C10.4018 12.9024 10.413 12.9279 10.4333 12.9489C10.4543 12.9706 10.4805 12.9811 10.5045 12.9961L11.748 14.2386H8.84025ZM14.625 0H0.375C0.168 0 0 0.167866 0 0.3747V14.6133C0 14.8201 0.168 14.988 0.375 14.988H4.6695C4.68975 14.9918 4.70925 15 4.7295 15C4.74975 15 4.76925 14.9918 4.7895 14.988H14.625C14.8328 14.988 15 14.8201 15 14.6133V0.3747C15 0.167866 14.8328 0 14.625 0Z" fill="#3A4757"/>
</svg>