<svg width="16" height="18" viewBox="0 0 16 18" fill="none" xmlns="http://www.w3.org/2000/svg">
<path fill-rule="evenodd" clip-rule="evenodd" d="M8.00001 8.2C8.80001 8.2 9.30001 8.6 9.80001 9.6L10 10C10.2 10.5 10.4 10.7 10.6 11C10.8 11.2 11 11.3 11.3 11.5L11.6 11.7C11.6 11.7 11.6 11.7 11.7 11.7C12.8 12.2 13.2 12.7 13.2 13.6C13.2 16.4 11.2 17.9 8.20001 18H8.00001C4.90001 18 2.80001 16.5 2.80001 13.6C2.80001 12.7 3.20001 12.3 4.10001 11.8L4.50001 11.6C5.00001 11.4 5.20001 11.2 5.40001 11C5.60001 10.8 5.70001 10.6 5.90001 10.3L6.20001 9.8C6.70001 8.7 7.10001 8.2 8.00001 8.2ZM8.00001 9C7.50001 9 7.30001 9.3 6.80001 10.2L6.70001 10.4C6.40001 11 6.20001 11.3 6.00001 11.6C5.70001 11.8 5.40001 12 5.00001 12.2L4.60001 12.4C3.80001 12.8 3.50001 13.1 3.50001 13.6C3.50001 15.8 5.10001 17.1 7.70001 17.2H7.90001C10.6 17.2 12.3 15.9 12.3 13.6C12.3 13.1 12.1 12.9 11.4 12.5L11 12.3C10.5 12 10.2 11.8 9.90001 11.5C9.70001 11.2 9.50001 11 9.30001 10.5L9.10001 10.1C8.70001 9.3 8.40001 9 8.00001 9ZM14.5 6.5C15.1 6.5 15.6 6.8 15.8 7.3C15.9 7.6 15.9 7.9 15.9 8.5V9.3C15.9 10.7 14.8 11.8 13.5 11.8C12.2 11.8 11.7 10.8 11.7 9.1C11.9 7.6 13.1 6.5 14.5 6.5ZM1.50001 6.5C2.90001 6.5 4.20001 7.6 4.30001 9.2C4.30001 10.9 3.80001 11.9 2.50001 11.9C1.10001 11.9 5.64009e-06 10.7 0.100006 9.2V8.4C0.100006 7.9 0.100006 7.6 0.200006 7.3C0.400006 6.8 0.800006 6.5 1.50001 6.5ZM1.50001 7.3H1.40001C1.10001 7.3 1.00001 7.4 1.00001 7.6C0.900006 7.8 0.900006 8 0.900006 8.5V9.3C0.900006 10.2 1.70001 11 2.60001 11C3.30001 11 3.60001 10.4 3.60001 9.2C3.40001 8.1 2.50001 7.3 1.50001 7.3ZM14.5 7.3H14.4C13.4 7.4 12.6 8.2 12.5 9.2C12.5 10.5 12.8 11.1 13.5 11.1C14.4 11.1 15.2 10.2 15.2 9.2V8.6C15.2 8.1 15.2 7.9 15.1 7.7C15 7.4 14.9 7.3 14.5 7.3ZM5.40001 0C6.80001 0 7.80001 1.6 7.80001 3.6C7.80001 5.5 6.80001 7.2 5.40001 7.2C3.90001 7.2 3.00001 6.4 3.00001 4.6C3.10001 2.9 4.60001 0 5.40001 0ZM10.6 0C11.4 0 13 2.9 13 4.5C13 6.3 12.1 7.1 10.6 7.1C9.20001 7.1 8.20001 5.5 8.20001 3.5C8.20001 1.6 9.20001 0 10.6 0ZM5.40001 0.8C5.10001 0.8 3.80001 3.2 3.80001 4.5C3.80001 5.8 4.30001 6.3 5.40001 6.3C6.30001 6.3 7.00001 5.1 7.00001 3.6C7.10001 2 6.30001 0.8 5.40001 0.8ZM10.6 0.8C9.70001 0.8 9.00001 2 9.00001 3.5C9.00001 5 9.80001 6.2 10.6 6.2C11.7 6.2 12.2 5.7 12.2 4.4C12.2 3.3 10.8 0.8 10.6 0.8Z" fill="#3A4757"/>
</svg>