<svg width="16" height="18" viewBox="0 0 16 18" fill="none" xmlns="http://www.w3.org/2000/svg">
<path fill-rule="evenodd" clip-rule="evenodd" d="M7.90632 8.2C8.70632 8.2 9.20632 8.6 9.70632 9.6L9.90632 10C10.1063 10.5 10.3063 10.7 10.5063 11C10.7063 11.2 10.9063 11.3 11.2063 11.5L11.5063 11.7C11.5063 11.7 11.5063 11.7 11.6063 11.7C12.7063 12.2 13.1063 12.7 13.1063 13.6C13.1063 16.4 11.1063 17.9 8.10632 18H7.90632C4.80632 18 2.70632 16.5 2.70632 13.6C2.70632 12.7 3.10632 12.3 4.00632 11.8L4.40632 11.6C4.90632 11.4 5.10632 11.2 5.30632 11C5.50632 10.8 5.60632 10.6 5.80632 10.3L6.10632 9.8C6.60632 8.7 7.00632 8.2 7.90632 8.2ZM7.90632 9C7.40632 9 7.20632 9.3 6.70632 10.2L6.60632 10.4C6.30632 11 6.10632 11.3 5.90632 11.6C5.60632 11.8 5.30632 12 4.90632 12.2L4.50632 12.4C3.70632 12.8 3.40632 13.1 3.40632 13.6C3.40632 15.8 5.00632 17.1 7.60632 17.2H7.80632C10.5063 17.2 12.2063 15.9 12.2063 13.6C12.2063 13.1 12.0063 12.9 11.3063 12.5L10.9063 12.3C10.4063 12 10.1063 11.8 9.80632 11.5C9.60632 11.2 9.40632 11 9.20632 10.5L9.00632 10.1C8.60632 9.3 8.30632 9 7.90632 9ZM14.4063 6.5C15.0063 6.5 15.5063 6.8 15.7063 7.3C15.8063 7.6 15.8063 7.9 15.8063 8.5V9.3C15.8063 10.7 14.7063 11.8 13.4063 11.8C12.1063 11.8 11.6063 10.8 11.6063 9.1C11.8063 7.6 13.0063 6.5 14.4063 6.5ZM1.40632 6.5C2.80632 6.5 4.10632 7.6 4.20632 9.2C4.20632 10.9 3.70632 11.9 2.40632 11.9C1.00632 11.9 -0.0936833 10.7 0.00631668 9.2V8.4C0.00631668 7.9 0.00631658 7.6 0.106317 7.3C0.306317 6.8 0.706317 6.5 1.40632 6.5ZM1.40632 7.3H1.30632C1.00632 7.3 0.906317 7.4 0.906317 7.6C0.806317 7.8 0.806317 8 0.806317 8.5V9.3C0.806317 10.2 1.60632 11 2.50632 11C3.20632 11 3.50632 10.4 3.50632 9.2C3.30632 8.1 2.40632 7.3 1.40632 7.3ZM14.4063 7.3H14.3063C13.3063 7.4 12.5063 8.2 12.4063 9.2C12.4063 10.5 12.7063 11.1 13.4063 11.1C14.3063 11.1 15.1063 10.2 15.1063 9.2V8.6C15.1063 8.1 15.1063 7.9 15.0063 7.7C14.9063 7.4 14.8063 7.3 14.4063 7.3ZM5.30632 0C6.70632 0 7.70632 1.6 7.70632 3.6C7.70632 5.5 6.70632 7.2 5.30632 7.2C3.80632 7.2 2.90632 6.4 2.90632 4.6C3.00632 2.9 4.50632 0 5.30632 0ZM10.5063 0C11.3063 0 12.9063 2.9 12.9063 4.5C12.9063 6.3 12.0063 7.1 10.5063 7.1C9.10632 7.1 8.10632 5.5 8.10632 3.5C8.10632 1.6 9.10632 0 10.5063 0ZM5.30632 0.8C5.00632 0.8 3.70632 3.2 3.70632 4.5C3.70632 5.8 4.20632 6.3 5.30632 6.3C6.20632 6.3 6.90632 5.1 6.90632 3.6C7.00632 2 6.20632 0.8 5.30632 0.8ZM10.5063 0.8C9.60632 0.8 8.90632 2 8.90632 3.5C8.90632 5 9.70632 6.2 10.5063 6.2C11.6063 6.2 12.1063 5.7 12.1063 4.4C12.1063 3.3 10.7063 0.8 10.5063 0.8Z" fill="#3A4757"/>
</svg>