<svg width="16" height="20" viewBox="0 0 16 20" fill="none" xmlns="http://www.w3.org/2000/svg">
<path fill-rule="evenodd" clip-rule="evenodd" d="M15.9509 18.6949L14.9655 15.5849C14.7607 14.9449 14.3022 14.4449 13.7266 14.1749C14.429 9.96492 14.3509 7.17492 13.8046 5.23492C13.1998 3.07492 12.0681 2.05492 11.1608 1.31492C10.2731 0.584921 8.8585 0.224921 7.6488 0.0849214C6.4391 -0.0650786 5.09282 -0.0250786 4.26359 0.274921C4.00994 0.364921 3.80507 0.564921 3.69776 0.814921C3.59045 1.06492 3.59045 1.35492 3.69776 1.60492L4.24408 2.90492L2.55635 5.90492C1.94174 7.00492 2.13686 8.41492 3.05389 9.27492C3.89287 10.0649 5.12208 10.2049 6.09765 9.61492L7.24882 8.92492C7.02444 9.42492 6.55616 10.0849 5.64889 10.8349C5.11233 11.2749 4.41968 11.8649 3.83434 12.5049C3.45387 12.9249 3.05389 13.4349 2.78073 14.0049C1.96125 14.1549 1.28811 14.7549 1.02471 15.5749L0.0491457 18.6949C-0.0484108 18.9949 0.000367492 19.3349 0.185725 19.5949C0.371082 19.8549 0.663752 20.0049 0.975933 20.0049H15.0241C15.3363 20.0049 15.6289 19.8549 15.8143 19.5949C15.9996 19.3349 16.0484 19.0049 15.9509 18.6949ZM6.8781 12.4149C8.27316 11.2649 9.00483 10.1249 9.27799 9.09492C9.43408 8.50492 9.43408 7.93492 9.30726 7.44492C9.58042 7.07492 9.83406 6.61492 9.96089 6.03492C10.078 5.49492 9.74626 4.96492 9.21946 4.83492C8.69265 4.71492 8.1756 5.05492 8.04878 5.59492C7.96098 5.98492 7.76587 6.25492 7.58051 6.42492L5.11233 7.90492C4.87819 8.04492 4.58552 8.01492 4.3709 7.81492C4.13676 7.59492 4.07823 7.21492 4.24408 6.91492L6.17569 3.47492C6.33178 3.20492 6.3513 2.86492 6.22447 2.57492L5.98058 1.99492C6.39032 1.98492 6.88786 1.99492 7.40491 2.06492C8.53656 2.20492 9.48286 2.50492 9.93162 2.87492C10.7023 3.50492 11.473 4.20492 11.912 5.78492C12.3413 7.33492 12.4681 9.82492 11.7657 13.9749H5.17086C5.17086 13.9749 5.21964 13.9149 5.24891 13.8849C5.73669 13.3549 6.34154 12.8449 6.86835 12.4049L6.8781 12.4149ZM2.32221 18.0049L2.88804 16.2049C2.93682 16.0549 3.05389 15.9749 3.17095 15.9749H12.8193C12.9364 15.9749 13.0534 16.0549 13.1022 16.2049L13.668 18.0049H2.32221Z" fill="#3A4757"/>
</svg>