<svg width="17" height="14" viewBox="0 0 17 14" fill="none" xmlns="http://www.w3.org/2000/svg">
<path fill-rule="evenodd" clip-rule="evenodd" d="M13.2978 0C13.4842 0 13.6393 0.130329 13.6714 0.302197L13.6775 0.368421V5.76766C13.6775 5.97113 13.5075 6.13608 13.2978 6.13608C13.1114 6.13608 12.9564 6.00575 12.9242 5.83389L12.9181 5.76766V0.736842H3.8052V13.2632H12.9181V11.7025C12.9181 11.5217 13.0524 11.3712 13.2296 11.3401L13.2978 11.3341C13.4842 11.3341 13.6393 11.4644 13.6714 11.6363L13.6775 11.7025V13.6316C13.6775 13.8124 13.5432 13.9629 13.3661 13.9941L13.2978 14H3.42549C3.23909 14 3.08406 13.8697 3.05191 13.6978L3.04579 13.6316L3.04523 11.312L3.034 11.2891L0.0230024 3.26227C-0.0407518 3.09231 0.0324442 2.90638 0.187898 2.81828L0.249942 2.79006L3.04523 1.80232L3.04579 0.368421C3.04579 0.187556 3.18011 0.0371307 3.35724 0.00593577L3.42549 0H13.2978ZM14.9278 4.23957C15.1345 3.89216 15.5966 3.77547 15.9598 3.97895L16.6174 4.34737C16.9807 4.55084 17.1075 4.99742 16.9008 5.34483L13.7632 10.6178C13.705 10.7155 13.6238 10.7986 13.526 10.8603C12.4677 11.5285 12.2106 11.6633 11.922 11.5016C11.6728 11.362 11.6326 11.1315 11.6696 10.2836L11.6924 9.83366C11.6985 9.72035 11.732 9.61033 11.7903 9.51236L14.9278 4.23957ZM15.5855 4.60799L12.448 9.88078L12.4321 10.211C12.43 10.2619 12.4283 10.3108 12.4268 10.3575L12.4207 10.662L12.5729 10.5754C12.6856 10.5092 12.8138 10.4315 12.9572 10.3422L13.1057 10.2491L16.2431 4.97641L15.5855 4.60799ZM3.04523 2.58632L0.865776 3.3567L3.04523 9.16632V2.58632ZM11.0196 8.10526C11.2293 8.10526 11.3993 8.27021 11.3993 8.47368C11.3993 8.65455 11.265 8.80497 11.0878 8.83617L11.0196 8.8421H5.70372C5.49402 8.8421 5.32402 8.67716 5.32402 8.47368C5.32402 8.29282 5.45834 8.14239 5.63547 8.1112L5.70372 8.10526H11.0196ZM11.0196 5.89474C11.2293 5.89474 11.3993 6.05968 11.3993 6.26316C11.3993 6.44402 11.265 6.59445 11.0878 6.62564L11.0196 6.63158H5.70372C5.49402 6.63158 5.32402 6.46663 5.32402 6.26316C5.32402 6.08229 5.45834 5.93187 5.63547 5.90067L5.70372 5.89474H11.0196ZM7.98195 2.21053C8.19166 2.21053 8.36166 2.37547 8.36166 2.57895C8.36166 2.75981 8.22734 2.91024 8.05021 2.94143L7.98195 2.94737H5.70372C5.49402 2.94737 5.32402 2.78242 5.32402 2.57895C5.32402 2.39808 5.45834 2.24766 5.63547 2.21646L5.70372 2.21053H7.98195Z" fill="#3A4757"/>
</svg>