<svg width="20" height="20" viewBox="0 0 20 20" fill="none" xmlns="http://www.w3.org/2000/svg">
<path fill-rule="evenodd" clip-rule="evenodd" d="M19.8336 3.91027C19.7504 3.66068 19.584 3.41109 19.3344 3.2447L16.8385 0.748776C16.6721 0.582381 16.4225 0.415987 16.1729 0.249592C15.8401 0.0831973 15.5905 0 15.3409 0C15.0914 0 14.7586 0.0831973 14.509 0.166395C14.2594 0.249592 14.0098 0.415987 13.8434 0.665579L2.11257 12.3132C2.02937 12.3964 1.94618 12.4796 1.94618 12.646L0.0326387 19.0522C-0.0505586 19.3018 0.0326387 19.5514 0.199033 19.801C0.448625 19.9674 0.698217 20.0506 0.947809 19.9674L7.354 18.137C7.4372 18.137 7.6036 18.0538 7.68679 17.9706L19.3344 6.2398C19.5008 6.07341 19.6672 5.82381 19.8336 5.57422C19.9168 5.24143 20 4.99184 20 4.74225C20 4.49266 19.9168 4.15987 19.8336 3.91027Z" fill="#3A4757"/>
</svg>