<svg width="20" height="20" viewBox="0 0 20 20" fill="none" xmlns="http://www.w3.org/2000/svg">
<path fill-rule="evenodd" clip-rule="evenodd" d="M15.1622 1.95122C15.1072 1.95122 15.0528 1.9622 15.0021 1.98352C14.9514 2.00484 14.9055 2.03607 14.867 2.07538L14.8576 2.08484L3.59635 13.2875L2.3836 17.6172L6.71485 16.4049L17.926 5.14308C17.9647 5.10472 17.9954 5.05909 18.0163 5.00881C18.0373 4.95852 18.0481 4.90458 18.0481 4.8501C18.0481 4.79563 18.0373 4.74169 18.0163 4.6914C17.9954 4.64112 17.9647 4.59547 17.926 4.55711L17.9212 4.55236L15.4573 2.0754C15.4189 2.0361 15.373 2.00484 15.3223 1.98352C15.2716 1.9622 15.2172 1.95122 15.1622 1.95122ZM14.245 0.185052C14.5353 0.0629155 14.8472 0 15.1622 0C15.4772 0 15.789 0.0629155 16.0794 0.185052C16.3683 0.306576 16.6301 0.484291 16.8496 0.70785L19.3005 3.17175L19.3032 3.17443C19.5236 3.39363 19.6986 3.65412 19.8181 3.94101C19.9382 4.22907 20 4.53804 20 4.8501C20 5.16217 19.9382 5.47114 19.8181 5.7592C19.6986 6.04614 19.5235 6.30667 19.3031 6.52589L19.3005 6.52846L7.91718 17.9633C7.79839 18.0827 7.65073 18.1692 7.48855 18.2146L1.23912 19.9638C0.899595 20.0589 0.535189 19.9635 0.285873 19.7142C0.0365574 19.465 -0.0588991 19.1007 0.0361685 18.7613L1.78601 12.5141C1.83142 12.352 1.91802 12.2044 2.03739 12.0856L13.4767 0.705869C13.6958 0.483241 13.957 0.306216 14.245 0.185052Z" fill="#3A4757"/>
</svg>