<svg width="20" height="17" viewBox="0 0 20 17" fill="none" xmlns="http://www.w3.org/2000/svg">
<path d="M6.6 16.275C6.5 16.575 6.3 16.775 6.1 16.875C5.9 16.975 5.7 16.975 5.4 16.875C5.2 16.875 5 16.675 4.8 16.575C4.6 16.375 4.6 16.275 4.5 15.975C4.5 15.775 4.5 15.475 4.7 15.175L13.3 0.575C13.5 0.275 13.6 0.075 13.9 0.075C14.1 -0.025 14.4 -0.025 14.6 0.075C14.8 0.075 15 0.275 15.2 0.375C15.4 0.575 15.4 0.775 15.5 0.975C15.5 1.175 15.5 1.475 15.3 1.675L6.6 16.275ZM4.1 9.975C2.8 9.975 1.8 9.575 1 8.675C0.4 7.775 0 6.575 0 5.075C0 4.075 0.2 3.175 0.5 2.475C0.8 1.775 1.3 1.175 1.9 0.775C2.5 0.375 3.3 0.175 4.1 0.175C5.5 0.175 6.5 0.575 7.2 1.475C7.9 2.375 8.3 3.575 8.3 5.075C8.3 6.075 8.1 6.975 7.8 7.775C7.5 8.475 7 9.075 6.4 9.475C5.8 9.775 5 9.975 4.1 9.975ZM4.1 8.075C4.5 8.075 4.8 7.975 5.1 7.775C5.4 7.575 5.6 7.175 5.7 6.775C5.8 6.375 5.9 5.775 5.9 5.075C5.9 4.075 5.7 3.275 5.4 2.775C5.1 2.275 4.7 2.075 4.1 2.075C3.7 2.075 3.4 2.175 3.1 2.375C2.8 2.575 2.6 2.875 2.5 3.375C2.4 3.875 2.3 4.375 2.3 5.075C2.3 6.075 2.5 6.875 2.8 7.375C3.2 7.875 3.6 8.075 4.1 8.075ZM15.9 16.775C14.6 16.775 13.6 16.375 12.8 15.475C12.1 14.575 11.7 13.375 11.7 11.875C11.7 10.875 11.9 9.975 12.2 9.275C12.5 8.575 13 7.975 13.6 7.575C14.2 7.175 15 6.975 15.8 6.975C17.1 6.975 18.1 7.375 18.9 8.275C19.6 9.175 20 10.375 20 11.875C20 12.875 19.8 13.775 19.5 14.575C19.2 15.275 18.7 15.875 18.1 16.275C17.5 16.575 16.7 16.775 15.9 16.775ZM15.9 14.775C16.3 14.775 16.6 14.675 16.9 14.475C17.2 14.275 17.4 13.975 17.5 13.475C17.6 12.975 17.7 12.475 17.7 11.775C17.7 10.775 17.5 9.975 17.2 9.475C16.9 8.975 16.5 8.775 15.9 8.775C15.5 8.775 15.2 8.875 14.9 9.075C14.6 9.275 14.4 9.575 14.3 10.075C14.2 10.475 14.1 11.075 14.1 11.775C14.1 12.775 14.3 13.575 14.6 14.075C14.9 14.575 15.3 14.775 15.9 14.775Z" fill="#3A4757"/>
</svg>