<svg width="12" height="16" viewBox="0 0 12 16" fill="none" xmlns="http://www.w3.org/2000/svg">
<path d="M11.4178 10.38C10.9153 9.8175 10.0978 9.795 10.1053 9.8175C8.39527 9.795 8.11027 8.0475 8.08777 7.8675C8.53777 7.365 8.81527 6.7125 8.81527 5.985V5.835C9.34777 5.6775 9.73777 5.1825 9.73777 4.605V3.33C9.74527 1.4925 8.25277 0 6.41527 0H5.36527C3.52777 0 2.03527 1.4925 2.03527 3.33V4.605C2.03527 5.1975 2.43277 5.6925 2.98027 5.8425V5.985C2.98027 6.705 3.25777 7.365 3.70777 7.86C3.68527 8.025 3.41527 9.795 1.69777 9.8175C1.64527 9.8175 0.872773 9.825 0.377773 10.38C0.0627729 10.74 -0.057228 11.22 0.025272 11.85L0.790272 15.63C0.827772 15.8025 0.977772 15.93 1.15777 15.93H10.6528C10.8328 15.93 10.9828 15.8025 11.0203 15.63L11.7928 11.82C11.8678 11.22 11.7478 10.74 11.4328 10.38H11.4178ZM7.88527 9.3675C6.63277 9.915 5.14777 9.9225 3.89527 9.3825C4.11277 9.06 4.26277 8.715 4.34527 8.4075C4.77277 8.67 5.26777 8.8275 5.80777 8.8275H5.98027C6.52027 8.8275 7.01527 8.67 7.44277 8.4075C7.53277 8.715 7.67527 9.0525 7.88527 9.3675ZM8.06527 5.985C8.06527 7.1325 7.12777 8.07 5.98027 8.07H5.80777C4.66027 8.07 3.72277 7.1325 3.72277 5.985V4.305C4.86277 4.4775 5.84527 4.2 6.73027 3.5925C7.09777 4.0125 7.55527 4.335 8.07277 4.545V5.985H8.06527ZM3.11527 3.555C3.02527 3.6225 2.97277 3.7425 2.97277 3.855V5.01C2.86027 4.9125 2.77777 4.77 2.77777 4.605V3.33C2.77777 1.905 3.93277 0.75 5.35777 0.75H6.40777C7.83277 0.75 8.98777 1.905 8.98777 3.33V4.605C8.98777 4.7625 8.92027 4.8975 8.81527 4.995V4.275C8.81527 4.11 8.71027 3.9675 8.55277 3.915C7.96777 3.7275 7.45027 3.3525 7.09777 2.85C7.03777 2.7675 6.94777 2.7075 6.84277 2.6925C6.73777 2.6775 6.63277 2.7075 6.55027 2.775C5.89777 3.315 5.11777 3.6 4.30027 3.6C4.03027 3.6 3.76027 3.5625 3.43777 3.48C3.32527 3.4575 3.20527 3.48 3.11527 3.555ZM10.3303 15.1875H1.45027L0.745273 11.73C0.700273 11.355 0.752772 11.0775 0.917772 10.8825C1.18777 10.575 1.67527 10.5675 1.68277 10.5675C2.40277 10.56 2.95777 10.3125 3.37027 9.9675C4.14277 10.3425 4.99777 10.5525 5.86777 10.5525C6.73777 10.5525 7.60777 10.3425 8.38777 9.9525C8.80027 10.305 9.36277 10.5525 10.0978 10.56C10.0978 10.56 10.5853 10.575 10.8553 10.875C11.0203 11.0625 11.0803 11.3475 11.0353 11.7L10.3303 15.18V15.1875Z" fill="#3A4757"/>
</svg>