<svg width="12" height="17" viewBox="0 0 12 17" fill="none" xmlns="http://www.w3.org/2000/svg">
<path d="M11.5145 10.9728C11.012 10.4103 10.1945 10.3878 10.202 10.4103C8.49195 10.3878 8.20695 8.64027 8.18445 8.46027C8.63445 7.95777 8.91195 7.30527 8.91195 6.57777V6.42777C9.44445 6.27027 9.83445 5.77527 9.83445 5.19777V3.92277C9.84195 2.08527 8.34945 0.592773 6.51195 0.592773H5.46195C3.62445 0.592773 2.13195 2.08527 2.13195 3.92277V5.19777C2.13195 5.79027 2.52945 6.28527 3.07695 6.43527V6.57777C3.07695 7.29777 3.35445 7.95777 3.80445 8.45277C3.78195 8.61777 3.51195 10.3878 1.79445 10.4103C1.74195 10.4103 0.969453 10.4178 0.474453 10.9728C0.159453 11.3328 0.0394517 11.8128 0.121952 12.4428L0.886952 16.2228C0.924452 16.3953 1.07445 16.5228 1.25445 16.5228H10.7495C10.9295 16.5228 11.0795 16.3953 11.117 16.2228L11.8895 12.4128C11.9645 11.8128 11.8445 11.3328 11.5295 10.9728H11.5145ZM7.98195 9.96027C6.72945 10.5078 5.24445 10.5153 3.99195 9.97527C4.20945 9.65277 4.35945 9.30777 4.44195 9.00027C4.86945 9.26277 5.36445 9.42027 5.90445 9.42027H6.07695C6.61695 9.42027 7.11195 9.26277 7.53945 9.00027C7.62945 9.30777 7.77195 9.64527 7.98195 9.96027ZM8.16195 6.57777C8.16195 7.72527 7.22445 8.66277 6.07695 8.66277H5.90445C4.75695 8.66277 3.81945 7.72527 3.81945 6.57777V4.89777C4.95945 5.07027 5.94195 4.79277 6.82695 4.18527C7.19445 4.60527 7.65195 4.92777 8.16945 5.13777V6.57777H8.16195ZM3.21195 4.14777C3.12195 4.21527 3.06945 4.33527 3.06945 4.44777V5.60277C2.95695 5.50527 2.87445 5.36277 2.87445 5.19777V3.92277C2.87445 2.49777 4.02945 1.34277 5.45445 1.34277H6.50445C7.92945 1.34277 9.08445 2.49777 9.08445 3.92277V5.19777C9.08445 5.35527 9.01695 5.49027 8.91195 5.58777V4.86777C8.91195 4.70277 8.80695 4.56027 8.64945 4.50777C8.06445 4.32027 7.54695 3.94527 7.19445 3.44277C7.13445 3.36027 7.04445 3.30027 6.93945 3.28527C6.83445 3.27027 6.72945 3.30027 6.64695 3.36777C5.99445 3.90777 5.21445 4.19277 4.39695 4.19277C4.12695 4.19277 3.85695 4.15527 3.53445 4.07277C3.42195 4.05027 3.30195 4.07277 3.21195 4.14777ZM10.427 15.7803H1.54695L0.841952 12.3228C0.796952 11.9478 0.849452 11.6703 1.01445 11.4753C1.28445 11.1678 1.77195 11.1603 1.77945 11.1603C2.49945 11.1528 3.05445 10.9053 3.46695 10.5603C4.23945 10.9353 5.09445 11.1453 5.96445 11.1453C6.83445 11.1453 7.70445 10.9353 8.48445 10.5453C8.89695 10.8978 9.45945 11.1453 10.1945 11.1528C10.1945 11.1528 10.682 11.1678 10.952 11.4678C11.117 11.6553 11.177 11.9403 11.132 12.2928L10.427 15.7728V15.7803Z" fill="#3A4757"/>
</svg>