<svg width="15" height="10" viewBox="0 0 15 10" fill="none" xmlns="http://www.w3.org/2000/svg">
<path d="M7.5 0C3.3 0 0 1.51562 0 3.4375V6.5625C0 8.48438 3.26667 9.98438 7.43333 10C7.43333 10 7.43333 10 7.45 10H7.5C11.7 10 15 8.48438 15 6.5625V3.4375C15 1.51562 11.7 0 7.5 0ZM7.5 0.625C11.2 0.625 14.3333 1.90625 14.3333 3.4375C14.3333 3.90625 14.0167 4.3125 13.6833 4.59375C12.3 3.67188 10.0167 3.125 7.5 3.125C4.98333 3.125 2.7 3.67188 1.31667 4.59375C0.983333 4.3125 0.666667 3.90625 0.666667 3.4375C0.666667 1.90625 3.8 0.625 7.5 0.625ZM1.86667 5C3.15 4.21875 5.25 3.75 7.5 3.75C9.75 3.75 11.85 4.21875 13.1333 5C11.85 5.78125 9.75 6.25 7.5 6.25C5.25 6.25 3.15 5.78125 1.86667 5ZM0.666667 6.5625V4.875C0.783333 5 0.933333 5.125 1.08333 5.23438C2.18333 6.0625 3.98333 6.625 6.05 6.79688C5.7 7.14062 5.5 7.59375 5.5 8.07812V8.14062C5.5 8.5625 5.65 8.96875 5.91667 9.28125C2.95 9 0.666667 7.85938 0.666667 6.5625ZM14.3333 6.5625C14.3333 8.09375 11.2 9.375 7.5 9.375C7.48333 9.375 7.45 9.375 7.43333 9.375C6.73333 9.375 6.16667 8.82812 6.16667 8.15625V8.09375C6.16667 7.76562 6.3 7.46875 6.55 7.23438C6.8 7 7.13333 6.875 7.48333 6.875H7.5C10.15 6.875 12.55 6.26562 13.9167 5.25C14.0667 5.125 14.2167 5.01562 14.3333 4.875V6.5625ZM7.73333 7.90625C7.8 7.96875 7.83333 8.04688 7.83333 8.125C7.83333 8.17188 7.83333 8.20312 7.8 8.25C7.78333 8.28125 7.76667 8.32812 7.73333 8.34375C7.7 8.375 7.66667 8.39062 7.63333 8.40625C7.58333 8.4375 7.55 8.4375 7.5 8.4375C7.45 8.4375 7.41667 8.4375 7.36667 8.40625C7.33333 8.39062 7.28333 8.375 7.26667 8.34375C7.23333 8.3125 7.21667 8.28125 7.2 8.25C7.16667 8.20312 7.16667 8.17188 7.16667 8.125C7.16667 8.04688 7.2 7.96875 7.26667 7.90625C7.38333 7.78125 7.61667 7.78125 7.73333 7.90625ZM9.4 7.75C9.46667 7.8125 9.5 7.89062 9.5 7.96875C9.5 8.04688 9.46667 8.125 9.4 8.1875C9.38333 8.20312 9.36667 8.21875 9.35 8.21875C9.33333 8.23438 9.31667 8.23438 9.3 8.25C9.28333 8.25 9.26667 8.26562 9.23333 8.26562C9.21667 8.26562 9.18333 8.26562 9.16667 8.26562C9.11667 8.26562 9.08333 8.26562 9.03333 8.23438C9 8.21875 8.95 8.20312 8.93333 8.17188C8.86667 8.125 8.83333 8.04688 8.83333 7.96875C8.83333 7.89062 8.86667 7.8125 8.93333 7.75C9.01667 7.67188 9.13333 7.64062 9.23333 7.67188C9.25 7.67188 9.26667 7.6875 9.3 7.6875C9.31667 7.70312 9.33333 7.70312 9.35 7.71875C9.36667 7.71875 9.38333 7.73438 9.4 7.75ZM11.0667 7.59375C11.1333 7.65625 11.1667 7.73438 11.1667 7.8125C11.1667 7.85938 11.1667 7.89063 11.1333 7.9375C11.1167 7.96875 11.1 8.01562 11.0667 8.03125C11.05 8.04688 11.0333 8.0625 11.0167 8.0625C11 8.07812 10.9833 8.07812 10.9667 8.09375C10.95 8.09375 10.9333 8.10938 10.9 8.10938C10.8833 8.10938 10.85 8.10938 10.8333 8.10938C10.75 8.10938 10.6667 8.07812 10.6 8.01562C10.5667 7.98438 10.55 7.95312 10.5333 7.92187C10.5 7.89062 10.5 7.85938 10.5 7.8125C10.5 7.73438 10.5333 7.65625 10.6 7.59375C10.6833 7.51562 10.8 7.48438 10.9 7.51562C10.9167 7.51562 10.9333 7.53125 10.9667 7.53125C10.9833 7.54687 11 7.54688 11.0167 7.5625C11.0333 7.5625 11.05 7.57812 11.0667 7.59375Z" fill="#3A4757"/>
</svg>