<svg width="20" height="16" viewBox="0 0 20 16" fill="none" xmlns="http://www.w3.org/2000/svg">
<path d="M2.38 12.4994C1.04 12.4994 0 11.1375 0 9.39218C0 7.64691 1.05 6.28499 2.38 6.28499C3.71 6.28499 4.76 7.64691 4.76 9.39218C4.76 11.1375 3.71 12.4994 2.38 12.4994ZM2.37 8.31274C2.29 8.35309 2 8.73644 2 9.40227C2 10.0681 2.27 10.4212 2.38 10.4817C2.5 10.4212 2.76 10.0378 2.76 9.40227C2.76 8.76671 2.47 8.35309 2.36 8.31274H2.37Z" fill="#3A4757"/>
<path d="M6.54 6.21438C5.2 6.21438 4.16 4.85246 4.16 3.10719C4.16 1.36192 5.2 0.0100883 6.54 0.0100883C7.88 0.0100883 8.92 1.372 8.92 3.11728C8.92 4.86255 7.87 6.22446 6.54 6.22446V6.21438ZM6.52 2.02774C6.44 2.0681 6.15 2.45145 6.15 3.11728C6.15 3.7831 6.42 4.13619 6.53 4.19672C6.65 4.13619 6.91 3.74275 6.91 3.11728C6.91 2.4918 6.62 2.0681 6.51 2.02774H6.52Z" fill="#3A4757"/>
<path d="M13.46 6.21438C12.12 6.21438 11.08 4.85246 11.08 3.10719C11.08 1.36192 12.13 0 13.46 0C14.79 0 15.84 1.36192 15.84 3.10719C15.84 4.85246 14.79 6.21438 13.46 6.21438ZM13.45 2.02774C13.37 2.0681 13.08 2.45145 13.08 3.11728C13.08 3.7831 13.35 4.13619 13.46 4.19672C13.58 4.13619 13.84 3.74275 13.84 3.11728C13.84 2.4918 13.55 2.0681 13.44 2.02774H13.45Z" fill="#3A4757"/>
<path d="M17.62 12.4994C16.28 12.4994 15.24 11.1375 15.24 9.39218C15.24 7.64691 16.29 6.28499 17.62 6.28499C18.95 6.28499 20 7.64691 20 9.39218C20 11.1375 18.95 12.4994 17.62 12.4994ZM17.6 8.31274C17.52 8.35309 17.23 8.73644 17.23 9.40227C17.23 10.0681 17.5 10.4212 17.61 10.4817C17.73 10.4212 17.99 10.0378 17.99 9.40227C17.99 8.76671 17.7 8.35309 17.59 8.31274H17.6Z" fill="#3A4757"/>
<path d="M10 16C7.44 16 4.85 14.6986 4.85 12.1967C4.85 9.69483 6.64 6.29508 10 6.29508C13.36 6.29508 15.15 9.72509 15.15 12.1967C15.15 14.6683 12.56 16 10 16ZM10 8.31274C7.8 8.31274 6.85 10.8852 6.85 12.1967C6.85 13.5082 8.78 13.9823 10 13.9823C11.22 13.9823 13.15 13.4981 13.15 12.1967C13.15 10.8953 12.2 8.31274 10 8.31274Z" fill="#3A4757"/>
</svg>