<svg width="20" height="20" viewBox="0 0 20 20" fill="none" xmlns="http://www.w3.org/2000/svg">
<path d="M3.96894 0C3.31577 0 2.68855 0.256015 2.22151 0.713256C2.21609 0.71856 2.21073 0.723925 2.20544 0.72935L1.60406 1.34524C0.722933 2.21896 0.168064 3.36926 0.0324586 4.60374C-0.103493 5.84138 0.190252 7.08815 0.864305 8.13441C0.868539 8.14099 0.87285 8.14751 0.877237 8.15398C3.80683 12.4774 7.53439 16.2005 11.8594 19.123L11.8768 19.1345C12.9216 19.8095 14.1667 20.1036 15.4026 19.9675C16.6354 19.8317 17.7841 19.2761 18.6566 18.3937L19.2717 17.7915C19.2771 17.7862 19.2824 17.7808 19.2877 17.7754C19.7443 17.3077 20 16.6796 20 16.0256C20 15.3715 19.7443 14.7434 19.2877 14.2757L19.276 14.2639L16.6394 11.6514L16.637 11.6489C16.1721 11.1914 15.5464 10.9351 14.8946 10.9351C14.2428 10.9351 13.6171 11.1914 13.1522 11.6489L13.1541 11.6471C13.064 11.7353 12.9431 11.7846 12.8171 11.7846C12.6926 11.7846 12.5729 11.7363 12.4831 11.65L8.34719 7.50825L8.34193 7.50306C8.29903 7.46073 8.26497 7.41028 8.24171 7.35464C8.21846 7.29901 8.20649 7.2393 8.20649 7.17899C8.20649 7.11868 8.21846 7.05897 8.24171 7.00333C8.26497 6.94769 8.29903 6.89724 8.34193 6.85491L8.35334 6.84346C8.81021 6.37794 9.06622 5.75136 9.06622 5.09866C9.06622 4.44596 8.81024 3.81934 8.35337 3.35382L5.72451 0.721234L5.71636 0.713256C5.24932 0.256015 4.6221 0 3.96894 0Z" fill="#3A4757"/>
</svg>