<svg width="20" height="20" viewBox="0 0 20 20" fill="none" xmlns="http://www.w3.org/2000/svg">
<path fill-rule="evenodd" clip-rule="evenodd" d="M3.43006 3.28446C2.84046 3.28446 2.27829 3.51652 1.86281 3.92465C1.85741 3.92996 1.85207 3.93532 1.8468 3.94074L1.3573 4.44376C0.609668 5.18808 0.141728 6.16461 0.0273928 7.20898C-0.0872777 8.25641 0.160136 9.31308 0.730825 10.2019C0.734996 10.2084 0.739242 10.2148 0.743563 10.2212C3.14535 13.7778 6.20218 16.8417 9.7504 19.2473L9.76793 19.259C10.6583 19.8361 11.7219 20.089 12.7793 19.9721C13.8334 19.8556 14.8121 19.3794 15.5532 18.6279L16.0538 18.1361C16.0592 18.1308 16.0645 18.1254 16.0698 18.12C16.4751 17.7035 16.6987 17.1481 16.6987 16.5737C16.6987 15.9992 16.4751 15.4439 16.0698 15.0273L16.0581 15.0155L13.9076 12.8774L13.9051 12.8749C13.4914 12.4664 12.9303 12.2339 12.3416 12.2339C11.7534 12.2339 11.1927 12.4661 10.7791 12.874C10.7403 12.9116 10.6927 12.9292 10.6471 12.9292C10.6022 12.9292 10.5552 12.9121 10.5167 12.8754L7.14463 9.48725L7.13938 9.48206C7.12163 9.46448 7.10646 9.44244 7.09574 9.4167C7.085 9.39092 7.07922 9.36257 7.07922 9.33346C7.07922 9.30435 7.085 9.276 7.09574 9.25022C7.10646 9.22447 7.12163 9.20244 7.13938 9.18486L7.15076 9.17342C7.55648 8.75861 7.78046 8.20433 7.78046 7.63088C7.78046 7.05744 7.55651 6.50313 7.15078 6.08832L5.00543 3.93263L4.9973 3.92465C4.58182 3.51652 4.01965 3.28446 3.43006 3.28446ZM2.81779 5.8343L3.30202 5.33671C3.34005 5.30164 3.38605 5.28522 3.43006 5.28522C3.475 5.28522 3.52204 5.30235 3.56052 5.33898L5.6897 7.47832C5.7258 7.51618 5.74921 7.57052 5.74921 7.63088C5.74921 7.69079 5.72615 7.74476 5.69051 7.78259C5.48707 7.98631 5.32634 8.22708 5.21649 8.4908C5.10508 8.75828 5.04796 9.04466 5.04796 9.33346C5.04796 9.62226 5.10508 9.90864 5.21649 10.1761C5.32738 10.4423 5.49012 10.6852 5.69631 10.8901L9.07177 14.2818L9.0799 14.2898C9.49537 14.6979 10.0575 14.93 10.6471 14.93C11.2367 14.93 11.7989 14.6979 12.2144 14.2898L12.2163 14.2879C12.2531 14.2515 12.2985 14.2347 12.3416 14.2347C12.3845 14.2347 12.4296 14.2513 12.4663 14.2873L14.6067 16.4153C14.6437 16.4552 14.6674 16.5114 14.6674 16.5737C14.6674 16.6352 14.6442 16.6909 14.6079 16.7307L14.1127 17.2173L14.0999 17.23C13.6827 17.6549 13.1359 17.9194 12.5528 17.9838C11.9731 18.0479 11.3875 17.911 10.8928 17.5929C7.56668 15.3361 4.69819 12.4619 2.44178 9.12343C2.12193 8.62075 1.98156 8.02067 2.04694 7.42349C2.1127 6.82282 2.38202 6.26659 2.8051 5.84712L2.81779 5.8343Z" fill="#3A4757"/>
<path fill-rule="evenodd" clip-rule="evenodd" d="M12.3942 0.415298C12.8636 0.440001 13.2208 0.836075 13.1921 1.29995L12.9503 5.20689C12.9503 5.20689 18.2389 0.507674 18.5974 0.204243C18.9559 -0.0991883 19.4932 -0.060022 19.7976 0.291722C20.102 0.643466 20.0581 1.17459 19.6996 1.47802L14.0525 6.48067L17.9928 6.84795C18.4606 6.89156 18.8011 7.30183 18.7533 7.76431C18.7054 8.2268 18.2874 8.56636 17.8196 8.52276L11.8918 7.97021C11.4374 7.92786 11.1006 7.53863 11.1285 7.08808L11.4923 1.2105C11.521 0.746617 11.9248 0.390595 12.3942 0.415298Z" fill="#3A4757"/>
</svg>