<svg width="20" height="20" viewBox="0 0 20 20" fill="none" xmlns="http://www.w3.org/2000/svg">
<path d="M14.2066 0H16.7926C18.5642 0 20 1.40486 20 3.18602V4.55743C19.9916 6.35531 18.5223 7.80198 16.7254 7.80198H13.5936L12.1411 8.88071C11.9144 9.04795 11.6121 9.07304 11.3518 8.94761C11.0915 8.82217 10.932 8.56294 10.932 8.27863V3.26128C10.932 1.46339 12.4014 0 14.2066 0Z" fill="#3A4757"/>
<path d="M1.84801 3.87499C2.26019 3.4656 2.8179 3.23282 3.4028 3.23282C3.98771 3.23282 4.54542 3.4656 4.95759 3.87499L4.96565 3.883L7.09397 6.04534C7.49647 6.46143 7.71864 7.01745 7.71864 7.59267C7.71864 8.16789 7.49644 8.72388 7.09394 9.13997L7.08266 9.15145C7.06505 9.16908 7.04999 9.19118 7.03936 9.21701C7.0287 9.24287 7.02297 9.27131 7.02297 9.30051C7.02297 9.32971 7.0287 9.35815 7.03936 9.38401C7.04999 9.40983 7.06505 9.43194 7.08266 9.44957L7.08786 9.45477L10.4331 12.8534C10.4713 12.8902 10.518 12.9073 10.5625 12.9073C10.6077 12.9073 10.655 12.8897 10.6935 12.852C11.1038 12.4428 11.66 12.2099 12.2436 12.2099C12.8276 12.2099 13.3842 12.4431 13.7946 12.8529L13.7971 12.8554L15.9305 15.0001L15.9421 15.012C16.3442 15.4298 16.566 15.9869 16.566 16.5631C16.566 17.1393 16.3442 17.6964 15.9421 18.1142C15.9369 18.1196 15.9316 18.125 15.9262 18.1303L15.4296 18.6236C14.6944 19.3774 13.7235 19.8552 12.6778 19.972C11.6287 20.0893 10.5736 19.8356 9.69032 19.2567L9.67293 19.245C6.1529 16.8319 3.12036 13.7585 0.737655 10.191C0.733368 10.1846 0.729156 10.1781 0.725018 10.1716C0.158864 9.28006 -0.0865842 8.22013 0.0271752 7.16947C0.140602 6.12187 0.604824 5.14232 1.34651 4.3957L1.83212 3.89113C1.83736 3.88569 1.84265 3.88031 1.84801 3.87499Z" fill="#3A4757"/>
</svg>