<svg width="20" height="20" viewBox="0 0 20 20" fill="none" xmlns="http://www.w3.org/2000/svg">
<path fill-rule="evenodd" clip-rule="evenodd" d="M14.236 0C12.2885 0 10.7095 1.57217 10.7095 3.51197V8.38359C10.7095 8.76487 10.9265 9.11322 11.2695 9.2826C11.6125 9.45199 12.0222 9.41315 12.327 9.18236L13.6496 8.18068H16.4748C18.4138 8.18068 19.9918 6.62093 19.9975 4.68616C19.9987 4.27609 19.9996 3.85009 20 3.43737C20.0018 1.51867 18.4456 0 16.536 0H14.236ZM12.7247 3.51197C12.7247 2.68076 13.4012 2.00694 14.236 2.00694H16.536C17.3489 2.00694 17.9856 2.64277 17.9849 3.4355C17.9845 3.84656 17.9835 4.27119 17.9823 4.68029C17.9799 5.50523 17.3069 6.17374 16.4748 6.17374H13.3101C13.0999 6.17374 12.8953 6.23918 12.7247 6.36049V3.51197Z" fill="#3A4757"/>
<path fill-rule="evenodd" clip-rule="evenodd" d="M3.40285 3.23282C2.81793 3.23282 2.26022 3.4656 1.84803 3.87499C1.84268 3.88031 1.83738 3.88569 1.83215 3.89113L1.34653 4.3957C0.604832 5.14232 0.140603 6.12187 0.0271755 7.16947C-0.0865854 8.22013 0.158866 9.28006 0.725028 10.1716C0.729165 10.1781 0.733378 10.1846 0.737664 10.191C3.1204 13.7585 6.15298 16.8319 9.67305 19.245L9.69044 19.2567C10.5737 19.8356 11.6289 20.0893 12.6779 19.972C13.7237 19.8552 14.6946 19.3774 15.4298 18.6236L15.9264 18.1303C15.9318 18.125 15.9371 18.1196 15.9423 18.1142C16.3444 17.6964 16.5662 17.1393 16.5662 16.5631C16.5662 15.9869 16.3444 15.4298 15.9423 15.012L15.9307 15.0001L13.7973 12.8554L13.7948 12.8529C13.3844 12.4431 12.8277 12.2099 12.2437 12.2099C11.6602 12.2099 11.1039 12.4428 10.6936 12.852C10.6551 12.8897 10.6078 12.9073 10.5627 12.9073C10.5181 12.9073 10.4714 12.8902 10.4332 12.8534L7.08795 9.45477L7.08275 9.44957C7.06514 9.43194 7.05009 9.40983 7.03945 9.38401C7.02879 9.35815 7.02306 9.32971 7.02306 9.30051C7.02306 9.27131 7.02879 9.24287 7.03945 9.21701C7.05008 9.19118 7.06514 9.16908 7.08275 9.15145L7.09403 9.13997C7.49654 8.72388 7.71874 8.16789 7.71874 7.59267C7.71874 7.01745 7.49657 6.46143 7.09406 6.04534L4.96572 3.883L4.95766 3.87499C4.54548 3.4656 3.98776 3.23282 3.40285 3.23282ZM2.79544 5.79054L3.27582 5.29141C3.31355 5.25624 3.35919 5.23976 3.40285 5.23976C3.44744 5.23976 3.4941 5.25695 3.53228 5.29369L5.64456 7.43963C5.68038 7.47762 5.7036 7.53212 5.7036 7.59267C5.7036 7.65276 5.68073 7.7069 5.64537 7.74485C5.44354 7.9492 5.28409 8.19071 5.17511 8.45525C5.06458 8.72355 5.00792 9.01082 5.00792 9.30051C5.00792 9.5902 5.06458 9.87746 5.17511 10.1458C5.28512 10.4128 5.44657 10.6564 5.65112 10.862L8.99981 14.2641L9.00786 14.2721C9.42005 14.6815 9.97776 14.9143 10.5627 14.9143C11.1476 14.9143 11.7053 14.6815 12.1175 14.2721L12.1193 14.2703C12.1559 14.2337 12.201 14.2169 12.2437 14.2169C12.2862 14.2169 12.331 14.2335 12.3674 14.2696L12.3681 14.2703L14.4908 16.4042C14.5275 16.4442 14.5511 16.5007 14.5511 16.5631C14.5511 16.6248 14.5281 16.6807 14.492 16.7206L14.0007 17.2087L13.9881 17.2215C13.5741 17.6476 13.0317 17.913 12.4532 17.9776C11.8781 18.0419 11.2971 17.9045 10.8064 17.5855C7.50665 15.3217 4.66092 12.4386 2.42241 9.08983C2.1051 8.5856 1.96584 7.98366 2.0307 7.38464C2.09594 6.78211 2.36312 6.22416 2.78285 5.80339L2.79544 5.79054Z" fill="#3A4757"/>
</svg>