<svg width="20" height="20" viewBox="0 0 20 20" fill="none" xmlns="http://www.w3.org/2000/svg">
<path fill-rule="evenodd" clip-rule="evenodd" d="M2.22152 0.713271C2.68857 0.25602 3.3158 0 3.96898 0C4.62216 0 5.24939 0.25602 5.71644 0.713271L5.72459 0.721249L8.35343 3.35382C8.81031 3.81935 9.06629 4.44598 9.06629 5.09869C9.06629 5.7514 8.81028 6.37801 8.3534 6.84354L8.34199 6.85498C8.2991 6.89731 8.26504 6.94775 8.24179 7.00338C8.21854 7.059 8.20657 7.1187 8.20657 7.17901C8.20657 7.23931 8.21854 7.29901 8.24179 7.35463C8.26504 7.41026 8.2991 7.46071 8.34199 7.50303L8.34725 7.50822L12.4832 11.6499C12.5729 11.7362 12.6925 11.7845 12.8171 11.7845C12.943 11.7845 13.0639 11.7352 13.154 11.647L13.1521 11.6489C13.617 11.1914 14.2427 10.935 14.8945 10.935C15.5464 10.935 16.1721 11.1914 16.637 11.6489L16.6394 11.6513L19.2759 14.2638L19.2877 14.2757C19.7443 14.7434 20 15.3715 20 16.0255C20 16.6796 19.7443 17.3077 19.2877 17.7754C19.2824 17.7808 19.2771 17.7862 19.2716 17.7915L18.6566 18.3937C17.7841 19.2761 16.6354 19.8317 15.4026 19.9675C14.1666 20.1036 12.9216 19.8095 11.8768 19.1345L11.8594 19.123C7.53436 16.2006 3.80682 12.4775 0.877243 8.15404C0.872856 8.14756 0.868545 8.14104 0.86431 8.13446C0.190254 7.08819 -0.103494 5.84141 0.0324588 4.60377C0.168065 3.36928 0.722937 2.21897 1.60407 1.34525L2.20544 0.729366C2.21074 0.723941 2.2161 0.718575 2.22152 0.713271ZM3.63804 2.15236L3.04081 2.764L3.02807 2.77682C2.47298 3.32532 2.12341 4.04847 2.03814 4.8247C1.95328 5.59727 2.13538 6.37551 2.5539 7.02979C5.33602 11.1328 8.87426 14.6667 12.9789 17.4419C13.6325 17.8615 14.4101 18.0441 15.182 17.959C15.9571 17.8737 16.6793 17.5236 17.227 16.9678L17.2398 16.955L17.8506 16.3569C17.9351 16.2674 17.9822 16.1489 17.9822 16.0255C17.9822 15.9015 17.9345 15.7822 17.8491 15.6925L15.2226 13.09L15.2217 13.0891C15.1343 13.0035 15.0169 12.9556 14.8945 12.9556C14.7718 12.9556 14.654 13.0038 14.5664 13.09L14.5646 13.0918C14.0975 13.5491 13.4703 13.8051 12.8171 13.8051C12.1639 13.8051 11.5367 13.5491 11.0696 13.0918L11.0615 13.0839L6.92277 8.93932C6.69074 8.70959 6.50642 8.43613 6.38044 8.1347C6.25394 7.832 6.18879 7.50714 6.18879 7.17901C6.18879 6.85087 6.25394 6.52601 6.38044 6.22331C6.5055 5.92409 6.68805 5.65242 6.91768 5.42374C7.00157 5.33646 7.04851 5.21997 7.04851 5.09869C7.04851 4.97684 7.00113 4.85983 6.91649 4.7724L4.3029 2.1552C4.21318 2.06885 4.09352 2.02057 3.96898 2.02057C3.84581 2.02057 3.72742 2.06779 3.63804 2.15236Z" fill="#3A4757"/>
</svg>