<svg width="24" height="24" viewBox="0 0 24 24" fill="none" xmlns="http://www.w3.org/2000/svg">
<path fill-rule="evenodd" clip-rule="evenodd" d="M16.236 2C14.2885 2 12.7095 3.57217 12.7095 5.51197V10.3836C12.7095 10.7649 12.9265 11.1132 13.2695 11.2826C13.6125 11.452 14.0222 11.4131 14.327 11.1824L15.6496 10.1807H18.4748C20.4138 10.1807 21.9918 8.62093 21.9975 6.68616C21.9987 6.27609 21.9996 5.85009 22 5.43737C22.0018 3.51867 20.4456 2 18.536 2H16.236ZM14.7247 5.51197C14.7247 4.68076 15.4012 4.00694 16.236 4.00694H18.536C19.3489 4.00694 19.9856 4.64277 19.9849 5.4355C19.9845 5.84656 19.9835 6.27119 19.9823 6.68029C19.9799 7.50523 19.3069 8.17374 18.4748 8.17374H15.3101C15.0999 8.17374 14.8953 8.23918 14.7247 8.36049V5.51197Z" fill="#3A4757"/>
<path fill-rule="evenodd" clip-rule="evenodd" d="M5.40285 5.23282C4.81793 5.23282 4.26022 5.4656 3.84803 5.87499C3.84268 5.88031 3.83738 5.88569 3.83215 5.89113L3.34653 6.3957C2.60483 7.14232 2.1406 8.12187 2.02718 9.16947C1.91341 10.2201 2.15887 11.2801 2.72503 12.1716C2.72917 12.1781 2.73338 12.1846 2.73766 12.191C5.1204 15.7585 8.15298 18.8319 11.6731 21.245L11.6904 21.2567C12.5737 21.8356 13.6289 22.0893 14.6779 21.972C15.7237 21.8552 16.6946 21.3774 17.4298 20.6236L17.9264 20.1303C17.9318 20.125 17.9371 20.1196 17.9423 20.1142C18.3444 19.6964 18.5662 19.1393 18.5662 18.5631C18.5662 17.9869 18.3444 17.4298 17.9423 17.012L17.9307 17.0001L15.7973 14.8554L15.7948 14.8529C15.3844 14.4431 14.8277 14.2099 14.2437 14.2099C13.6602 14.2099 13.1039 14.4428 12.6936 14.852C12.6551 14.8897 12.6078 14.9073 12.5627 14.9073C12.5181 14.9073 12.4714 14.8902 12.4332 14.8534L9.08795 11.4548L9.08275 11.4496C9.06514 11.4319 9.05009 11.4098 9.03945 11.384C9.02879 11.3581 9.02306 11.3297 9.02306 11.3005C9.02306 11.2713 9.02879 11.2429 9.03945 11.217C9.05008 11.1912 9.06514 11.1691 9.08275 11.1514L9.09403 11.14C9.49654 10.7239 9.71874 10.1679 9.71874 9.59267C9.71874 9.01745 9.49657 8.46143 9.09406 8.04534L6.96572 5.883L6.95766 5.87499C6.54548 5.4656 5.98776 5.23282 5.40285 5.23282ZM4.79544 7.79054L5.27582 7.29141C5.31355 7.25624 5.35919 7.23976 5.40285 7.23976C5.44744 7.23976 5.4941 7.25695 5.53228 7.29369L7.64456 9.43963C7.68038 9.47762 7.7036 9.53212 7.7036 9.59267C7.7036 9.65276 7.68073 9.7069 7.64537 9.74485C7.44354 9.9492 7.28409 10.1907 7.17511 10.4552C7.06458 10.7236 7.00792 11.0108 7.00792 11.3005C7.00792 11.5902 7.06458 11.8775 7.17511 12.1458C7.28512 12.4128 7.44657 12.6564 7.65112 12.862L10.9998 16.2641L11.0079 16.2721C11.42 16.6815 11.9778 16.9143 12.5627 16.9143C13.1476 16.9143 13.7053 16.6815 14.1175 16.2721L14.1193 16.2703C14.1559 16.2337 14.201 16.2169 14.2437 16.2169C14.2862 16.2169 14.331 16.2335 14.3674 16.2696L14.3681 16.2703L16.4908 18.4042C16.5275 18.4442 16.5511 18.5007 16.5511 18.5631C16.5511 18.6248 16.5281 18.6807 16.492 18.7206L16.0007 19.2087L15.9881 19.2215C15.5741 19.6476 15.0317 19.913 14.4532 19.9776C13.8781 20.0419 13.2971 19.9045 12.8064 19.5855C9.50665 17.3217 6.66092 14.4386 4.42241 11.0898C4.1051 10.5856 3.96584 9.98366 4.0307 9.38464C4.09594 8.78211 4.36312 8.22416 4.78285 7.80339L4.79544 7.79054Z" fill="#3A4757"/>
</svg>