<svg width="16" height="16" viewBox="0 0 16 16" fill="none" xmlns="http://www.w3.org/2000/svg">
<path d="M0 3C0 1.34315 1.34315 0 3 0H8.87692C9.42921 0 9.87692 0.447715 9.87692 1C9.87692 1.55228 9.42921 2 8.87692 2H3C2.44772 2 2 2.44772 2 3V13.0034C2 13.5557 2.44772 14.0034 3 14.0034H13.0034C13.5557 14.0034 14.0034 13.5557 14.0034 13.0034V7.1265C14.0034 6.57421 14.4511 6.1265 15.0034 6.1265C15.5557 6.1265 16.0034 6.57421 16.0034 7.1265V13.0034C16.0034 14.6603 14.6603 16.0034 13.0034 16.0034H3C1.34315 16.0034 0 14.6603 0 13.0034V3Z" fill="#3A4757"/>
<path d="M14.2529 1C14.2529 0.447715 13.8052 0 13.2529 0C12.7007 0 12.2529 0.447715 12.2529 1V1.75042H11.5025C10.9502 1.75042 10.5025 2.19814 10.5025 2.75042C10.5025 3.30271 10.9502 3.75042 11.5025 3.75042H12.2529V4.50085C12.2529 5.05314 12.7007 5.50085 13.2529 5.50085C13.8052 5.50085 14.2529 5.05314 14.2529 4.50085V3.75042H15.0034C15.5557 3.75042 16.0034 3.30271 16.0034 2.75042C16.0034 2.19814 15.5557 1.75042 15.0034 1.75042H14.2529V1Z" fill="#3A4757"/>
<path d="M2.91168 10.8231L4.54401 8.37456C4.93984 7.78082 5.81229 7.78082 6.20812 8.37455L6.24995 8.43731C6.65717 9.04813 7.5618 9.02661 7.9395 8.39711L8.91205 6.7762C9.29634 6.1357 10.2217 6.12729 10.6175 6.7607L13.172 10.8478C13.5882 11.5138 13.1094 12.3778 12.324 12.3778H3.74373C2.94503 12.3778 2.46864 11.4876 2.91168 10.8231Z" fill="#3A4757"/>
</svg>