<svg width="15" height="15" viewBox="0 0 15 15" fill="none" xmlns="http://www.w3.org/2000/svg">
<path fill-rule="evenodd" clip-rule="evenodd" d="M10 5C10 5.55228 9.55228 6 9 6C8.44772 6 8 5.55228 8 5C8 4.44772 8.44772 4 9 4C9.55228 4 10 4.44772 10 5ZM9.25 5C9.25 5.13807 9.13807 5.25 9 5.25C8.86193 5.25 8.75 5.13807 8.75 5C8.75 4.86193 8.86193 4.75 9 4.75C9.13807 4.75 9.25 4.86193 9.25 5Z" fill="#3A4757"/>
<path fill-rule="evenodd" clip-rule="evenodd" d="M2 3C2 2.44772 2.44772 2 3 2H12C12.5523 2 13 2.44772 13 3V12C13 12.5523 12.5523 13 12 13H3C2.44772 13 2 12.5523 2 12V3ZM3 2.75H12C12.1381 2.75 12.25 2.86193 12.25 3V7.58724L11.1418 6.202C10.816 5.79477 10.2086 5.76113 9.83983 6.12989L7.977 7.99273L5.62419 6.03205C5.25295 5.72268 4.7012 5.77284 4.39183 6.14408L2.75 8.11429V3C2.75 2.86193 2.86193 2.75 3 2.75ZM12.2072 8.7343C12.2204 8.75083 12.2347 8.76595 12.25 8.77962V11.3305L8.56555 8.46483L10.3702 6.66022C10.4228 6.60754 10.5096 6.61235 10.5562 6.67052L12.2072 8.7343ZM7.7598 8.78829L12.1481 12.2014C12.1067 12.232 12.0554 12.25 12 12.25H3C2.86193 12.25 2.75 12.1381 2.75 12V9.27963C2.76345 9.26757 2.77619 9.2544 2.78809 9.24011L4.968 6.62422C5.0122 6.57119 5.09102 6.56402 5.14405 6.60822L7.7598 8.78829Z" fill="#3A4757"/>
<path fill-rule="evenodd" clip-rule="evenodd" d="M0 2C0 0.89543 0.895431 0 2 0H13C14.1046 0 15 0.895431 15 2V13C15 14.1046 14.1046 15 13 15H2C0.89543 15 0 14.1046 0 13V2ZM2 0.75H13C13.6904 0.75 14.25 1.30964 14.25 2V13C14.25 13.6904 13.6904 14.25 13 14.25H2C1.30964 14.25 0.75 13.6904 0.75 13V2C0.75 1.30964 1.30964 0.75 2 0.75Z" fill="#3A4757"/>
</svg>