<svg width="20" height="20" viewBox="0 0 20 20" fill="none" xmlns="http://www.w3.org/2000/svg">
<path fill-rule="evenodd" clip-rule="evenodd" d="M17.2414 6.98384C17.5604 7.33393 17.8535 7.71096 18.1035 8.12388V8.1149H20V15.1436H18.1552C17.7673 15.781 17.2845 16.3555 16.7155 16.8582C16.8793 17.7917 16.6638 18.6176 16.1035 19.2011C15.6121 19.7127 14.9483 20 14.2414 20C13.5345 20 12.8707 19.7127 12.3793 19.2011L12.181 18.9946C11.5776 19.1113 11.0172 19.2011 10.3966 19.2011C9.77587 19.2011 9.21551 19.1113 8.60344 18.9946L8.40518 19.2011C7.9138 19.7127 7.25 20 6.54311 20C5.83621 20 5.17241 19.7127 4.68103 19.2011C4.10345 18.5996 3.88793 17.7558 4.06897 16.8043C2.44828 15.3591 1.56034 13.5278 1.56034 11.6337C1.56034 11.4004 1.57757 11.1849 1.60344 10.9785C0.663781 10.6912 0 9.81149 0 8.78815C0 8.05206 0.353445 7.35188 0.939653 6.921L1.14654 6.7684L2.3362 8.50987C2.93965 7.36984 3.86206 6.37344 5.05172 5.60144C4.80171 5.06284 4.6724 4.50628 4.6724 3.9228C4.6724 1.75942 6.36208 0 8.43967 0C10.5173 0 12.2069 1.75942 12.2069 3.9228C12.2069 4.03152 12.1994 4.13246 12.1914 4.24011C12.1908 4.24801 12.1902 4.25594 12.1897 4.26392C12.5 4.32675 12.8017 4.39856 13.1121 4.48833C14.7241 3.29444 16.5431 3.24955 16.6207 3.24955H17.6638V4.56015L17.2414 6.98384ZM8.43967 2.17235C7.49139 2.17235 6.74999 2.94435 6.74999 3.93178C6.74999 4.20108 6.81035 4.4614 6.92242 4.69479C7.96552 4.30879 9.0431 4.10233 10.1207 4.0754C10.1293 4.02154 10.1293 3.97667 10.1293 3.93178C10.1293 2.94435 9.38795 2.17235 8.43967 2.17235ZM2.31034 8.55476L2.12931 8.6894V8.68043C2.06897 8.72531 2.06896 8.77019 2.06896 8.78815C2.06896 8.85098 2.09481 8.89587 2.13792 8.91382C2.18964 8.79712 2.25 8.67145 2.31034 8.55476ZM16.1033 10.8258C16.1033 11.4208 15.6401 11.903 15.0688 11.903C14.4975 11.903 14.0343 11.4208 14.0343 10.8258C14.0343 10.2309 14.4975 9.74864 15.0688 9.74864C15.6401 9.74864 16.1033 10.2309 16.1033 10.8258Z" fill="#3A4757"/>
</svg>