<svg width="20" height="20" viewBox="0 0 20 20" fill="none" xmlns="http://www.w3.org/2000/svg">
<path d="M15.0688 11.903C15.6401 11.903 16.1033 11.4208 16.1033 10.8258C16.1033 10.2309 15.6401 9.74864 15.0688 9.74864C14.4974 9.74864 14.0343 10.2309 14.0343 10.8258C14.0343 11.4208 14.4974 11.903 15.0688 11.903Z" fill="#3A4757"/>
<path d="M18.1034 8.12388C17.8534 7.71095 17.5603 7.33393 17.2414 6.98384L17.6638 4.56014V3.24955H16.6207C16.5431 3.24955 14.7241 3.29443 13.1121 4.48833C12.8017 4.39856 12.5 4.32675 12.1897 4.26391C12.1983 4.14722 12.2069 4.0395 12.2069 3.9228C12.2069 1.75943 10.5172 0 8.43965 0C6.36207 0 4.67241 1.75943 4.67241 3.9228C4.67241 4.50628 4.80172 5.06284 5.05172 5.60144C3.86207 6.37343 2.93966 7.36984 2.33621 8.50987L1.14655 6.7684L0.939655 6.92101C0.353448 7.35189 0 8.05206 0 8.78815C0 9.81149 0.663793 10.6912 1.60345 10.9785C1.57759 11.1849 1.56034 11.4004 1.56034 11.6338C1.56034 13.5278 2.44828 15.3591 4.06896 16.8043C3.88793 17.7558 4.10345 18.5996 4.68103 19.2011C5.17241 19.7127 5.83621 20 6.5431 20C7.25 20 7.91379 19.7127 8.40517 19.2011L8.60345 18.9946C9.21552 19.1113 9.77586 19.2011 10.3966 19.2011C11.0172 19.2011 11.5776 19.1113 12.181 18.9946L12.3793 19.2011C12.8707 19.7127 13.5345 20 14.2414 20C14.9483 20 15.6121 19.7127 16.1034 19.2011C16.6638 18.6176 16.8793 17.7917 16.7155 16.8582C17.2845 16.3555 17.7672 15.781 18.1552 15.1436H20V8.1149H18.1034V8.12388ZM15.0259 7.68402L15.4741 8.08797C15.9914 8.56373 16.3966 9.09336 16.681 9.67684L16.9741 10.2783H17.9224V12.9892H16.9741L16.681 13.5907C16.3276 14.3178 15.7672 14.9731 15.0086 15.5476L14.2672 16.1131L14.7241 16.9838C14.8534 17.2172 14.8276 17.4776 14.6466 17.675C14.4224 17.9084 14.0948 17.9084 13.8707 17.675L12.8879 16.6786L12.3448 16.8133C11.1207 17.1095 9.69827 17.1095 8.46552 16.8133L7.91379 16.6786L6.93103 17.675C6.71552 17.8995 6.37069 17.8995 6.15517 17.675C5.97414 17.4865 5.93965 17.2172 6.07759 16.9749L6.52586 16.1131L5.78448 15.5386C4.40517 14.4973 3.65517 13.1059 3.65517 11.6248C3.65517 8.64452 6.68965 6.21185 10.4138 6.21185C11.3362 6.21185 12.2241 6.35548 13.0345 6.62478L13.5862 6.83124L14.0431 6.41831C14.4655 6.03232 14.9569 5.78995 15.3793 5.64632L15.0517 7.66607L15.0259 7.68402ZM6.75 3.93178C6.75 2.94434 7.49138 2.17235 8.43965 2.17235C9.38793 2.17235 10.1293 2.94434 10.1293 3.93178C10.1293 3.97666 10.1293 4.02154 10.1207 4.0754C9.0431 4.10233 7.96552 4.3088 6.92241 4.69479C6.81034 4.4614 6.75 4.20108 6.75 3.93178ZM2.12931 8.68941L2.31034 8.55476C2.25 8.67145 2.18966 8.79713 2.13793 8.91382C2.09483 8.89587 2.06897 8.85099 2.06897 8.78815C2.06897 8.7702 2.06897 8.72531 2.12931 8.68043V8.68941Z" fill="#3A4757"/>
</svg>