<svg width="16" height="20" viewBox="0 0 16 20" fill="none" xmlns="http://www.w3.org/2000/svg">
<path fill-rule="evenodd" clip-rule="evenodd" d="M0 7.75078C0 3.47014 3.58172 0 8 0C12.4183 0 16 3.47014 16 7.75078C16 8.88654 15.587 10.2049 15.0254 11.4751C14.4539 12.7679 13.6844 14.1076 12.8778 15.316C12.0719 16.5232 11.211 17.6263 10.4449 18.4398C10.0641 18.8442 9.68576 19.1995 9.33242 19.4623C9.15585 19.5935 8.9647 19.7174 8.76544 19.8121C8.57772 19.9013 8.31011 20 8 20C7.68989 20 7.42228 19.9013 7.23456 19.8121C7.0353 19.7174 6.84415 19.5935 6.66758 19.4623C6.31424 19.1995 5.9359 18.8442 5.55506 18.4398C4.78895 17.6263 3.92805 16.5232 3.12222 15.316C2.31556 14.1076 1.5461 12.7679 0.974587 11.4751C0.413043 10.2049 0 8.88654 0 7.75078ZM8.00016 9.57048C9.52382 9.57048 10.759 8.37378 10.759 6.89759C10.759 5.42139 9.52382 4.22469 8.00016 4.22469C6.47649 4.22469 5.24132 5.42139 5.24132 6.89759C5.24132 8.37378 6.47649 9.57048 8.00016 9.57048Z" fill="#3A4757"/>
</svg>