<svg width="16" height="20" viewBox="0 0 16 20" fill="none" xmlns="http://www.w3.org/2000/svg">
<path fill-rule="evenodd" clip-rule="evenodd" d="M11.3754 6.89759C11.3754 8.70354 9.86434 10.1676 8.00031 10.1676C6.13629 10.1676 4.6252 8.70354 4.6252 6.89759C4.6252 5.09163 6.13629 3.62761 8.00031 3.62761C9.86434 3.62761 11.3754 5.09163 11.3754 6.89759ZM9.3044 6.89759C9.3044 7.59537 8.72054 8.16104 8.00031 8.16104C7.28009 8.16104 6.69623 7.59537 6.69623 6.89759C6.69623 6.1998 7.28009 5.63413 8.00031 5.63413C8.72054 5.63413 9.3044 6.1998 9.3044 6.89759Z" fill="#3A4757"/>
<path fill-rule="evenodd" clip-rule="evenodd" d="M8 0C3.58172 0 0 3.47014 0 7.75078C0 8.88654 0.413043 10.2049 0.974587 11.4751C1.5461 12.7679 2.31556 14.1076 3.12222 15.316C3.92805 16.5232 4.78895 17.6263 5.55506 18.4398C5.9359 18.8442 6.31424 19.1995 6.66758 19.4623C6.84415 19.5935 7.0353 19.7174 7.23456 19.8121C7.42228 19.9013 7.68989 20 8 20C8.31011 20 8.57772 19.9013 8.76544 19.8121C8.9647 19.7174 9.15585 19.5935 9.33242 19.4623C9.68576 19.1995 10.0641 18.8442 10.4449 18.4398C11.211 17.6263 12.0719 16.5232 12.8778 15.316C13.6844 14.1076 14.4539 12.7679 15.0254 11.4751C15.587 10.2049 16 8.88654 16 7.75078C16 3.47014 12.4183 0 8 0ZM2.07104 7.75078C2.07104 4.57831 4.72552 2.00652 8 2.00652C11.2745 2.00652 13.929 4.57831 13.929 7.75078C13.929 8.4783 13.6468 9.49729 13.1217 10.6851C12.6065 11.8503 11.8978 13.0892 11.1387 14.2264C10.3788 15.3649 9.58623 16.3746 8.91499 17.0874C8.57716 17.4462 8.29086 17.7074 8.07155 17.8705C8.04561 17.8897 8.02176 17.9068 8 17.9218C7.97823 17.9068 7.95439 17.8897 7.92845 17.8705C7.70914 17.7074 7.42284 17.4462 7.08501 17.0874C6.41377 16.3746 5.62122 15.3649 4.86127 14.2264C4.10215 13.0892 3.39349 11.8503 2.87834 10.6851C2.35322 9.49729 2.07104 8.4783 2.07104 7.75078Z" fill="#3A4757"/>
</svg>