<svg width="20" height="20" viewBox="0 0 20 20" fill="none" xmlns="http://www.w3.org/2000/svg">
<path fill-rule="evenodd" clip-rule="evenodd" d="M0 9.99988C0 14.0946 2.46233 17.6123 5.98584 19.1589C5.95771 18.4607 5.98084 17.6224 6.1599 16.8627C6.35216 16.0509 7.44661 11.4138 7.44661 11.4138C7.44661 11.4138 7.12716 10.7753 7.12716 9.83161C7.12716 8.34969 7.98606 7.24293 9.05575 7.24293C9.96535 7.24293 10.4048 7.92611 10.4048 8.74421C10.4048 9.65856 9.8216 11.0263 9.52168 12.293C9.27114 13.3538 10.0536 14.219 11.1 14.219C12.9947 14.219 14.2708 11.7855 14.2708 8.90233C14.2708 6.71068 12.7946 5.07025 10.1097 5.07025C7.0763 5.07025 5.18654 7.33238 5.18654 9.85918C5.18654 10.7304 5.44342 11.3448 5.84576 11.8205C6.03076 12.039 6.05646 12.1269 5.98951 12.3779C5.94154 12.5618 5.83138 13.0048 5.78576 13.1803C5.7192 13.4336 5.51396 13.5242 5.28506 13.4306C3.88788 12.8603 3.23717 11.3302 3.23717 9.61028C3.23717 6.76966 5.63295 3.3635 10.3842 3.3635C14.2021 3.3635 16.715 6.12624 16.715 9.09186C16.715 13.0146 14.5341 15.9453 11.3193 15.9453C10.2396 15.9453 9.2241 15.3617 8.87621 14.6988C8.87621 14.6988 8.29567 17.0028 8.1727 17.4477C7.96067 18.2187 7.54567 18.9893 7.16622 19.5899C8.06559 19.8554 9.01567 20 10.0004 20C15.5225 20 20 15.5229 20 9.99988C20 4.47714 15.5225 0 10.0004 0C4.47764 0 0 4.47714 0 9.99988Z" fill="#3A4757"/>
</svg>