<svg width="20" height="21" viewBox="0 0 20 21" fill="none" xmlns="http://www.w3.org/2000/svg">
<path fill-rule="evenodd" clip-rule="evenodd" d="M0 10.3998C0 14.4945 2.46233 18.0122 5.98584 19.5588C5.95771 18.8606 5.98084 18.0223 6.1599 17.2626C6.35216 16.4508 7.44661 11.8137 7.44661 11.8137C7.44661 11.8137 7.12716 11.1752 7.12716 10.2315C7.12716 8.7496 7.98606 7.64283 9.05575 7.64283C9.96535 7.64283 10.4048 8.32601 10.4048 9.14412C10.4048 10.0585 9.8216 11.4262 9.52168 12.6929C9.27114 13.7537 10.0536 14.6189 11.1 14.6189C12.9947 14.6189 14.2708 12.1854 14.2708 9.30224C14.2708 7.11058 12.7946 5.47015 10.1097 5.47015C7.0763 5.47015 5.18654 7.73228 5.18654 10.2591C5.18654 11.1303 5.44342 11.7447 5.84576 12.2204C6.03076 12.4389 6.05646 12.5268 5.98951 12.7778C5.94154 12.9617 5.83138 13.4047 5.78576 13.5802C5.7192 13.8335 5.51396 13.9241 5.28506 13.8306C3.88788 13.2602 3.23717 11.7301 3.23717 10.0102C3.23717 7.16956 5.63295 3.7634 10.3842 3.7634C14.2021 3.7634 16.715 6.52614 16.715 9.49176C16.715 13.4145 14.5341 16.3452 11.3193 16.3452C10.2396 16.3452 9.2241 15.7616 8.87621 15.0987C8.87621 15.0987 8.29567 17.4027 8.1727 17.8476C7.96067 18.6186 7.54567 19.3892 7.16622 19.9898C8.06559 20.2553 9.01567 20.3999 10.0004 20.3999C15.5225 20.3999 20 15.9228 20 10.3998C20 4.87705 15.5225 0.399902 10.0004 0.399902C4.47764 0.399902 0 4.87705 0 10.3998Z" fill="#3A4757"/>
</svg>