<svg width="21" height="20" viewBox="0 0 21 20" fill="none" xmlns="http://www.w3.org/2000/svg">
<path d="M2.5 4C2.5 2.89543 3.39543 2 4.5 2H8C8.55229 2 9 1.55228 9 1C9 0.447715 8.55229 0 8 0H4.5C2.29086 0 0.5 1.79086 0.5 4V7.5C0.5 8.05228 0.947715 8.5 1.5 8.5C2.05228 8.5 2.5 8.05228 2.5 7.5V4Z" fill="#3A4757"/>
<path d="M13 0C12.4477 0 12 0.447715 12 1C12 1.55228 12.4477 2 13 2H16.5C17.6046 2 18.5 2.89543 18.5 4V7.5C18.5 8.05229 18.9477 8.5 19.5 8.5C20.0523 8.5 20.5 8.05229 20.5 7.5V4C20.5 1.79086 18.7091 0 16.5 0H13Z" fill="#3A4757"/>
<path d="M2.5 12.5C2.5 11.9477 2.05228 11.5 1.5 11.5C0.947715 11.5 0.5 11.9477 0.5 12.5V16C0.5 18.2091 2.29086 20 4.5 20H8C8.55228 20 9 19.5523 9 19C9 18.4477 8.55228 18 8 18H4.5C3.39543 18 2.5 17.1046 2.5 16V12.5Z" fill="#3A4757"/>
<path d="M20.5 12.5C20.5 11.9477 20.0523 11.5 19.5 11.5C18.9477 11.5 18.5 11.9477 18.5 12.5V16C18.5 17.1046 17.6046 18 16.5 18H13C12.4477 18 12 18.4477 12 19C12 19.5523 12.4477 20 13 20H16.5C18.7091 20 20.5 18.2091 20.5 16V12.5Z" fill="#3A4757"/>
<path d="M7.92184 6.71L10.5002 9.28833L13.0785 6.71L10.5002 4.13167L7.92184 6.71Z" fill="#3A4757"/>
<path d="M11.2118 10L13.7902 12.5783L16.3685 10L13.7902 7.42167L11.2118 10Z" fill="#3A4757"/>
<path d="M4.63184 10L7.21017 12.5783L9.7885 10L7.21017 7.42167L4.63184 10Z" fill="#3A4757"/>
<path d="M7.92184 13.29L10.5002 15.8683L13.0785 13.29L10.5002 10.7117L7.92184 13.29Z" fill="#3A4757"/>
</svg>