<svg width="24" height="24" viewBox="0 0 24 24" fill="none" xmlns="http://www.w3.org/2000/svg">
<path d="M4 6C4 4.89543 4.89543 4 6 4H9.5C10.0523 4 10.5 3.55228 10.5 3C10.5 2.44772 10.0523 2 9.5 2H6C3.79086 2 2 3.79086 2 6V9.5C2 10.0523 2.44772 10.5 3 10.5C3.55228 10.5 4 10.0523 4 9.5V6Z" fill="#3A4757"/>
<path d="M14.5 2C13.9477 2 13.5 2.44772 13.5 3C13.5 3.55228 13.9477 4 14.5 4H18C19.1046 4 20 4.89543 20 6V9.5C20 10.0523 20.4477 10.5 21 10.5C21.5523 10.5 22 10.0523 22 9.5V6C22 3.79086 20.2091 2 18 2H14.5Z" fill="#3A4757"/>
<path d="M4 14.5C4 13.9477 3.55228 13.5 3 13.5C2.44772 13.5 2 13.9477 2 14.5V18C2 20.2091 3.79086 22 6 22H9.5C10.0523 22 10.5 21.5523 10.5 21C10.5 20.4477 10.0523 20 9.5 20H6C4.89543 20 4 19.1046 4 18V14.5Z" fill="#3A4757"/>
<path d="M22 14.5C22 13.9477 21.5523 13.5 21 13.5C20.4477 13.5 20 13.9477 20 14.5V18C20 19.1046 19.1046 20 18 20H14.5C13.9477 20 13.5 20.4477 13.5 21C13.5 21.5523 13.9477 22 14.5 22H18C20.2091 22 22 20.2091 22 18V14.5Z" fill="#3A4757"/>
<path d="M9.42184 8.71L12.0002 11.2883L14.5785 8.71L12.0002 6.13167L9.42184 8.71Z" fill="#3A4757"/>
<path d="M12.7118 12L15.2902 14.5783L17.8685 12L15.2902 9.42167L12.7118 12Z" fill="#3A4757"/>
<path d="M6.13184 12L8.71017 14.5783L11.2885 12L8.71017 9.42167L6.13184 12Z" fill="#3A4757"/>
<path d="M9.42184 15.29L12.0002 17.8683L14.5785 15.29L12.0002 12.7117L9.42184 15.29Z" fill="#3A4757"/>
</svg>