<svg width="20" height="20" viewBox="0 0 20 20" fill="none" xmlns="http://www.w3.org/2000/svg">
<path d="M2 4C2 2.89543 2.89543 2 4 2H7.5C8.05229 2 8.5 1.55228 8.5 1C8.5 0.447715 8.05229 0 7.5 0H4C1.79086 0 0 1.79086 0 4V7.5C0 8.05228 0.447715 8.5 1 8.5C1.55228 8.5 2 8.05228 2 7.5V4Z" fill="#3A4757"/>
<path d="M12.5 0C11.9477 0 11.5 0.447715 11.5 1C11.5 1.55228 11.9477 2 12.5 2H16C17.1046 2 18 2.89543 18 4V7.5C18 8.05229 18.4477 8.5 19 8.5C19.5523 8.5 20 8.05229 20 7.5V4C20 1.79086 18.2091 0 16 0H12.5Z" fill="#3A4757"/>
<path d="M2 12.5C2 11.9477 1.55228 11.5 1 11.5C0.447715 11.5 0 11.9477 0 12.5V16C0 18.2091 1.79086 20 4 20H7.5C8.05228 20 8.5 19.5523 8.5 19C8.5 18.4477 8.05228 18 7.5 18H4C2.89543 18 2 17.1046 2 16V12.5Z" fill="#3A4757"/>
<path d="M20 12.5C20 11.9477 19.5523 11.5 19 11.5C18.4477 11.5 18 11.9477 18 12.5V16C18 17.1046 17.1046 18 16 18H12.5C11.9477 18 11.5 18.4477 11.5 19C11.5 19.5523 11.9477 20 12.5 20H16C18.2091 20 20 18.2091 20 16V12.5Z" fill="#3A4757"/>
<path d="M7.42184 6.71L10.0002 9.28833L12.5785 6.71L10.0002 4.13167L7.42184 6.71Z" fill="#3A4757"/>
<path d="M10.7118 10L13.2902 12.5783L15.8685 10L13.2902 7.42167L10.7118 10Z" fill="#3A4757"/>
<path d="M4.13184 10L6.71017 12.5783L9.2885 10L6.71017 7.42167L4.13184 10Z" fill="#3A4757"/>
<path d="M7.42184 13.29L10.0002 15.8683L12.5785 13.29L10.0002 10.7117L7.42184 13.29Z" fill="#3A4757"/>
</svg>