<svg width="20" height="20" viewBox="0 0 20 20" fill="none" xmlns="http://www.w3.org/2000/svg">
<path fill-rule="evenodd" clip-rule="evenodd" d="M19.1109 3.00833H19.1025H19.0608C19.0608 3.00833 18.9856 2.99167 18.9272 2.98333C18.8103 2.96667 18.6433 2.95 18.4429 2.93333C18.0422 2.89167 17.4828 2.85 16.8817 2.84167C16.2889 2.83333 15.6126 2.84167 14.9865 2.94167C14.402 3.025 13.7174 3.2 13.1831 3.6C12.7573 3.9 12.3983 4.275 12.1227 4.71667C11.8472 5.15833 11.6635 5.65833 11.5801 6.16667C11.4966 6.675 11.5383 7.20833 11.6719 7.70833C11.6886 7.775 11.7053 7.83333 11.7303 7.9C11.6469 8.00833 11.5634 8.125 11.4882 8.23333C11.196 8.63333 10.9205 9.05833 10.6784 9.44167C10.4279 8.83333 10.119 8.25833 9.75998 7.70833C9.52621 7.35833 9.27574 7.03333 9.00857 6.71667C9.31748 6.125 9.49281 5.475 9.51786 4.80833C9.5596 3.64167 9.1505 2.50833 8.37404 1.625C8.35735 1.6 8.3323 1.58333 8.3156 1.56667C7.75622 1.025 6.95472 0.716667 6.22835 0.525C5.46859 0.325 4.64204 0.2 3.89063 0.133333C3.13087 0.0416667 2.42956 0.0166667 1.91192 0C1.6531 0 1.44438 0 1.29409 0C1.21895 0 1.16051 0 1.11877 0H1.06867H1.05197C0.484242 0.0166667 0.016698 0.466667 0 1.03333V1.05V1.1C0 1.1 0 1.2 0 1.26667C0 1.40833 0 1.61667 0 1.86667C0.008349 2.36667 0.041745 3.05 0.125235 3.775C0.200376 4.5 0.33396 5.30833 0.542685 6.04167C0.75141 6.74167 1.06867 7.525 1.62805 8.06667C1.64475 8.08333 1.6698 8.1 1.6865 8.125C2.59654 8.88333 3.75705 9.275 4.95096 9.23333C5.90274 9.2 6.81278 8.88333 7.57254 8.34167C7.70612 8.50833 7.82301 8.675 7.9399 8.85C8.7414 10.0583 9.21729 11.4833 9.27574 13.2167C5.95284 13.5083 3.13922 15.875 3.13922 19.025C3.13922 19.5667 3.59007 20 4.13275 20C4.67544 20 5.12628 19.5667 5.12628 19.025C5.12628 17.0167 7.13839 15.1333 9.9687 15.1333C12.799 15.1333 14.8111 17.0167 14.8111 19.025C14.8111 19.5667 15.262 20 15.8047 20C16.3473 20 16.7982 19.5667 16.7982 19.025C16.7982 16.1333 14.4187 13.8917 11.4548 13.325C11.555 12.55 11.7888 11.7917 12.1645 11.0917C12.3482 10.7417 12.6571 10.2417 13.0161 9.725C13.1914 9.85833 13.3751 9.975 13.5671 10.075C14.0347 10.325 14.5523 10.475 15.0783 10.525C15.6043 10.575 16.147 10.525 16.6479 10.3583C17.1488 10.2 17.608 9.95 18.0088 9.61667C18.5348 9.20833 18.8687 8.6 19.0942 8.06667C19.3363 7.5 19.5116 6.86667 19.6452 6.3C19.7788 5.725 19.8623 5.19167 19.9207 4.8C19.9458 4.6 19.9708 4.44167 19.9792 4.325C19.9792 4.26667 19.9875 4.225 19.9958 4.19167V4.15833V4.14167C20.0459 3.575 19.6368 3.075 19.0775 3L19.1109 3.00833ZM15.3121 8.43333C15.0699 8.40833 14.8362 8.34167 14.6274 8.225C14.5523 8.18333 14.4855 8.14167 14.4187 8.09167C14.4187 8.09167 14.4271 8.08333 14.4354 8.075C14.8946 7.70833 14.9698 7.04167 14.5857 6.58333C14.377 6.33333 14.0848 6.20833 13.7758 6.2C13.8176 6.05833 13.8844 5.925 13.9595 5.80833C14.0848 5.60833 14.2517 5.43333 14.4521 5.3C14.4688 5.29167 14.4855 5.275 14.4939 5.26667C14.5774 5.2 14.8195 5.09167 15.3121 5.01667C15.7629 4.95 16.3056 4.93333 16.8316 4.94167C17.1572 4.94167 17.4661 4.96667 17.7416 4.98333C17.6999 5.24167 17.6414 5.54167 17.5746 5.84167C17.4578 6.35 17.3158 6.84167 17.1405 7.25833C16.9485 7.7 16.7815 7.90833 16.698 7.975C16.6813 7.98333 16.6646 8 16.6563 8.00833C16.4726 8.15833 16.2638 8.275 16.0301 8.35C15.7963 8.425 15.5542 8.45 15.3121 8.425V8.43333ZM3.13087 6.54167C2.97224 6.375 2.78857 6.025 2.62159 5.45833C2.45461 4.88333 2.34607 4.21667 2.27093 3.55C2.21248 3.025 2.18744 2.525 2.17074 2.11667C2.60489 2.13333 3.13087 2.15833 3.67356 2.20833C4.36653 2.275 5.05949 2.375 5.65227 2.53333C6.24505 2.69167 6.59571 2.86667 6.77104 3.01667C7.17179 3.49167 7.38051 4.09167 7.35547 4.7C7.35547 4.825 7.33877 4.94167 7.31372 5.05833C6.67085 4.53333 5.96118 4.05833 5.20143 3.61667C4.69214 3.31667 4.03257 3.475 3.72365 3.975C3.41474 4.475 3.58172 5.125 4.09101 5.425C4.81737 5.85 5.46859 6.3 6.05302 6.775C5.69402 6.975 5.29326 7.08333 4.86747 7.1C4.23294 7.125 3.60677 6.91667 3.12253 6.525L3.13087 6.54167Z" fill="#3A4757"/>
</svg>