<svg width="14" height="14" viewBox="0 0 14 14" fill="none" xmlns="http://www.w3.org/2000/svg">
<path fill-rule="evenodd" clip-rule="evenodd" d="M0.368421 14C0.164948 14 0 13.8351 0 13.6316V0.368421C0 0.164948 0.164948 0 0.368421 0H13.6316C13.8351 0 14 0.164948 14 0.368421V13.6316C14 13.8351 13.8351 14 13.6316 14H0.368421ZM13.2222 0.777778L4.66667 0.777V3.88889H5.83333C6.04811 3.88889 6.22222 4.063 6.22222 4.27778C6.22222 4.46869 6.08465 4.62747 5.90324 4.6604L5.83333 4.66667H4.66667V5.05556C4.66667 5.27033 4.49256 5.44444 4.27778 5.44444C4.08686 5.44444 3.92808 5.30687 3.89515 5.12546L3.88889 5.05556V0.777L0.777778 0.777778L0.777 7.77778H5.83333C6.04811 7.77778 6.22222 7.95189 6.22222 8.16667C6.22222 8.35758 6.08465 8.51636 5.90324 8.54929L5.83333 8.55556H0.777L0.777778 13.2222L3.88889 13.2214V12.0556C3.88889 11.8408 4.063 11.6667 4.27778 11.6667C4.46869 11.6667 4.62747 11.8042 4.6604 11.9857L4.66667 12.0556V13.2214L13.2222 13.2222L13.2214 8.55556H8.16667C7.95189 8.55556 7.77778 8.38144 7.77778 8.16667C7.77778 7.97575 7.91535 7.81697 8.09676 7.78404L8.16667 7.77778H13.2214V5.44444H8.16667C7.95189 5.44444 7.77778 5.27033 7.77778 5.05556C7.77778 4.86464 7.91535 4.70586 8.09676 4.67293L8.16667 4.66667H13.2214L13.2222 0.777778Z" fill="#3A4757"/>
</svg>