<svg width="24" height="24" viewBox="0 0 24 24" fill="none" xmlns="http://www.w3.org/2000/svg">
<path d="M5.84821 21C5.54118 20.9994 5.2396 20.9208 4.9731 20.7716C4.37306 20.439 4 19.7933 4 19.0924V4.9077C4 4.20481 4.37306 3.56111 4.9731 3.22851C5.24594 3.07514 5.55589 2.99624 5.87063 3.00014C6.18524 3.004 6.49309 3.09048 6.76185 3.25051L19.1562 10.5072C19.4144 10.6656 19.6274 10.8856 19.7749 11.1466C19.9226 11.4075 20 11.7008 20 11.9991C20 12.2973 19.9226 12.5906 19.7749 12.8515C19.6274 13.1125 19.4144 13.3325 19.1562 13.4909L6.75989 20.7496C6.48479 20.9123 6.16971 20.9988 5.84821 21Z" fill="#3A4757"/>
</svg>