<svg width="20" height="20" viewBox="0 0 20 20" fill="none" xmlns="http://www.w3.org/2000/svg">
<path fill-rule="evenodd" clip-rule="evenodd" d="M10 0C4.48 0 0 4.48 0 10C0 15.52 4.48 20 10 20C15.52 20 20 15.52 20 10C20 4.48 15.52 0 10 0ZM14.34 10.54C14.24 10.7 14.09 10.83 13.92 10.91L8.23 14.35C8.23 14.35 8.23 14.35 8.22 14.35C8.05 14.45 7.85 14.49 7.66 14.49C7.47 14.49 7.27 14.44 7.1 14.35C6.93 14.26 6.78 14.13 6.68 13.97C6.57 13.81 6.52 13.62 6.51 13.43V6.56C6.51 6.37 6.57 6.18 6.68 6.02C6.78 5.86 6.93 5.73 7.1 5.64C7.27 5.55 7.46 5.5 7.66 5.5C7.86 5.5 8.05 5.55 8.22 5.64C8.22 5.64 8.22 5.64 8.23 5.64L13.92 9.05C14.09 9.13 14.24 9.26 14.34 9.42C14.45 9.59 14.5 9.78 14.5 9.97C14.5 10.16 14.44 10.36 14.34 10.52V10.54Z" fill="#3A4757"/>
</svg>