<svg width="12" height="14" viewBox="0 0 12 14" fill="none" xmlns="http://www.w3.org/2000/svg">
<path fill-rule="evenodd" clip-rule="evenodd" d="M10.4516 6.63158C10.6416 6.63158 10.7997 6.76191 10.8325 6.93378L10.8387 7V8.10453L11.6888 8.10455C11.8867 8.42985 12 8.8076 12 9.21053C12 10.22 11.289 11.0714 10.3177 11.336L10.3332 11.2908C9.74225 13.0535 8.04607 13.9326 6.09491 14C3.58276 14 1.54839 11.8686 1.54839 9.25547C1.54839 9.05391 1.72089 8.89051 1.93369 8.89051C2.14648 8.89051 2.31898 9.05391 2.31898 9.25547C2.31898 11.4453 4.0143 13.2701 6.09491 13.2701C7.58087 13.2106 8.88466 12.6354 9.46687 11.4116C8.28241 11.3104 7.35484 10.3636 7.35484 9.21053C7.35484 8.8076 7.46811 8.42985 7.66599 8.10455L8.51613 8.10453V7C8.51613 6.79653 8.68944 6.63158 8.90323 6.63158C9.09326 6.63158 9.25131 6.76191 9.28409 6.93378L9.29032 7V8.10526H10.0645V7C10.0645 6.79653 10.2378 6.63158 10.4516 6.63158ZM11.1771 8.84239H8.17774C8.14594 8.96006 8.12903 9.08341 8.12903 9.21053C8.12903 10.0244 8.82227 10.6842 9.67742 10.6842C10.5326 10.6842 11.2258 10.0244 11.2258 9.21053C11.2258 9.08341 11.2089 8.96006 11.1771 8.84239ZM10.8387 2.21053C11.2663 2.21053 11.6129 2.54042 11.6129 2.94737V4.42105C11.6129 4.828 11.2663 5.15789 10.8387 5.15789H3.09677V7.36842C3.09677 7.77537 2.75016 8.10526 2.32258 8.10526H0.774194C0.346618 8.10526 0 7.77537 0 7.36842V5.15789H0.00869456C0.00869456 3.29365 1.01799 2.27346 2.91621 2.21335L3.09677 2.21053H10.8387ZM10.8387 2.94737H3.09677C1.5649 2.94737 0.834068 3.59474 0.785488 5.00398L0.782888 5.15789H0.774194V7.36842H2.32258V4.78947C2.32258 4.586 2.49589 4.42105 2.70968 4.42105H10.8387V2.94737ZM8.12903 0.736842C9.20995 0.736842 10.143 1.33922 10.5779 2.2105L9.67759 2.21056C9.32448 1.76311 8.76227 1.47368 8.12903 1.47368C7.4958 1.47368 6.93359 1.76311 6.58048 2.21056L5.68013 2.2105C6.11502 1.33922 7.04811 0.736842 8.12903 0.736842ZM11.2258 0C11.4396 0 11.6129 0.164948 11.6129 0.368421C11.6129 0.549286 11.476 0.699711 11.2954 0.730906L11.2258 0.736842H5.03226C4.81847 0.736842 4.64516 0.571894 4.64516 0.368421C4.64516 0.187556 4.7821 0.0371307 4.96268 0.00593577L5.03226 0H11.2258Z" fill="#3A4757"/>
</svg>