<svg width="20" height="20" viewBox="0 0 20 20" fill="none" xmlns="http://www.w3.org/2000/svg">
<path fill-rule="evenodd" clip-rule="evenodd" d="M9.99977 0C10.5521 0 10.9998 0.447715 10.9998 1V8.94466H19C19.5523 8.94466 20 9.39237 20 9.94466C20 10.4969 19.5523 10.9447 19 10.9447H10.9998V19C10.9998 19.5523 10.5521 20 9.99977 20C9.44749 20 8.99977 19.5523 8.99977 19V10.9447H1C0.447715 10.9447 0 10.4969 0 9.94466C0 9.39237 0.447715 8.94466 1 8.94466H8.99977V1C8.99977 0.447715 9.44749 0 9.99977 0Z" fill="#3A4757"/>
</svg>