<svg width="15" height="13" viewBox="0 0 15 13" fill="none" xmlns="http://www.w3.org/2000/svg">
<path fill-rule="evenodd" clip-rule="evenodd" d="M13.0189 11.9166C13.2079 11.9166 13.3803 11.9752 13.5221 12.0799C13.7576 12.2662 14.0883 12.3709 14.4183 12.3709C14.6538 12.3709 14.8428 12.511 14.9996 12.6858C14.9996 12.8606 14.8113 13 14.5758 13C14.0568 13 13.5536 12.8606 13.1606 12.5927C12.7676 12.8483 12.2644 13 11.7454 13C11.2264 13 10.7232 12.8606 10.3302 12.5927C9.9372 12.8483 9.43397 13 8.91498 13C8.39675 13 7.89351 12.8606 7.49978 12.5927C7.10754 12.8483 6.6043 13 6.08532 13C5.56633 13 5.0631 12.8606 4.67011 12.5927C4.27712 12.8483 3.77389 13 3.2549 13C2.73592 13 2.23268 12.8483 1.84044 12.5811C1.44671 12.8483 0.944222 13 0.425237 13C0.188994 13 0 12.8606 0 12.6858C0 12.511 0.188994 12.3709 0.425237 12.3709C0.755227 12.3709 1.06947 12.2662 1.32146 12.0799C1.44671 11.9752 1.6357 11.9166 1.82469 11.9166C2.01294 11.9166 2.18543 11.9752 2.32718 12.0799C2.56342 12.2662 2.89341 12.3709 3.2234 12.3709C3.55414 12.3709 3.86838 12.2662 4.11963 12.0799C4.26137 11.9752 4.43387 11.9166 4.62286 11.9166C4.81186 11.9166 4.98435 11.9752 5.1261 12.0799C5.36159 12.2662 5.69233 12.3709 6.02232 12.3709C6.35231 12.3709 6.6673 12.2662 6.91854 12.0799C7.05954 11.9752 7.23278 11.9166 7.42178 11.9166C7.61002 11.9166 7.78327 11.9752 7.92501 12.0799C8.16051 12.2662 8.49125 12.3709 8.82049 12.3709C9.15123 12.3709 9.46547 12.2662 9.71671 12.0799C9.85845 11.9752 10.0309 11.9166 10.2199 11.9166C10.4089 11.9166 10.5822 11.9752 10.7232 12.0799C10.9594 12.2662 11.2894 12.3709 11.6202 12.3709C11.9501 12.3709 12.2644 12.2662 12.5156 12.0799C12.6574 11.9752 12.8306 11.9166 13.0189 11.9166ZM5.0628 2.15243e-08C6.20185 2.15243e-08 7.12524 0.896506 7.12524 2.0024C7.12524 2.20495 6.95612 2.36914 6.7475 2.36914C6.53888 2.36914 6.36976 2.20495 6.36976 2.0024C6.36976 1.3016 5.78462 0.733481 5.0628 0.733481C4.37897 0.733481 3.8178 1.24337 3.76063 1.89292L3.75583 2.0024L3.75514 3.61117H8.62474L8.62519 2.0024C8.62519 1.28701 9.01829 0.625966 9.65641 0.268271C10.2945 -0.0894237 11.0807 -0.0894237 11.7188 0.268271C12.357 0.625966 12.7501 1.28701 12.7501 2.0024C12.7501 2.20495 12.5809 2.36914 12.3723 2.36914C12.1637 2.36914 11.9946 2.20495 11.9946 2.0024C11.9946 1.54906 11.7455 1.13016 11.3411 0.903484C10.9367 0.676813 10.4385 0.676813 10.0341 0.903484C9.66347 1.11127 9.42326 1.48058 9.3858 1.88988L9.38066 2.0024V10.4668C9.38066 10.6693 9.21154 10.8335 9.00293 10.8335C8.81749 10.8335 8.66326 10.7038 8.63128 10.5327L8.62519 10.4668L8.62474 8.66681H3.75514L3.75583 10.4668C3.75583 10.6693 3.58671 10.8335 3.3781 10.8335C3.19266 10.8335 3.03843 10.7038 3.00645 10.5327L3.00036 10.4668V2.0024C3.00036 0.896506 3.92374 2.15243e-08 5.0628 2.15243e-08ZM14.7115 8.66681C14.8709 8.66681 15 8.82849 15 9.02793C15 9.20521 14.898 9.35265 14.7634 9.38323L14.7115 9.38905H10.7886C10.6293 9.38905 10.5001 9.22737 10.5001 9.02793C10.5001 8.85065 10.6022 8.70321 10.7367 8.67263L10.7886 8.66681H14.7115ZM1.96558 8.66681C2.12287 8.66681 2.25038 8.82849 2.25038 9.02793C2.25038 9.20521 2.14963 9.35265 2.01677 9.38323L1.96558 9.38905H0.285252C0.12796 9.38905 0.000449882 9.22737 0.000449882 9.02793C0.000449882 8.85065 0.101198 8.70321 0.234058 8.67263L0.285252 8.66681H1.96558ZM8.62474 6.50011H3.75514V7.94458H8.62474V6.50011ZM8.62474 4.33341H3.75514V5.77787H8.62474V4.33341Z" fill="#3A4757"/>
</svg>