<svg width="12" height="13" viewBox="0 0 12 13" fill="none" xmlns="http://www.w3.org/2000/svg">
<path fill-rule="evenodd" clip-rule="evenodd" d="M5.35757 6.28315C5.35757 6.45554 5.4253 6.62087 5.54586 6.74276C5.66642 6.86466 5.82993 6.93314 6.00043 6.93314C6.17093 6.93314 6.33444 6.86466 6.455 6.74276C6.57556 6.62087 6.64329 6.45554 6.64329 6.28315V0.649982C6.64329 0.477596 6.57556 0.31227 6.455 0.190375C6.33444 0.06848 6.17093 0 6.00043 0C5.82993 0 5.66642 0.06848 5.54586 0.190375C5.4253 0.31227 5.35757 0.477596 5.35757 0.649982V6.28315ZM8.82043 10.7524C8.31413 11.135 7.73692 11.4108 7.1231 11.5633C6.50928 11.7158 5.8714 11.7419 5.24739 11.6401C4.62338 11.5383 4.02599 11.3107 3.49073 10.9708C2.95548 10.6309 2.4933 10.1856 2.13167 9.66148C1.77004 9.13732 1.51636 8.54499 1.3857 7.91972C1.25505 7.29444 1.25008 6.64898 1.37112 6.02172C1.49215 5.39447 1.7367 4.79822 2.09022 4.26845C2.44375 3.73868 2.89903 3.2862 3.429 2.93792C3.50151 2.89219 3.56427 2.8323 3.61362 2.76175C3.66296 2.69121 3.6979 2.61142 3.71639 2.52706C3.73488 2.4427 3.73655 2.35546 3.7213 2.27044C3.70605 2.18543 3.67418 2.10433 3.62757 2.03191C3.58096 1.95949 3.52053 1.89719 3.44983 1.84866C3.37912 1.80013 3.29956 1.76634 3.21579 1.74927C3.13201 1.7322 3.04571 1.73218 2.96193 1.74923C2.87815 1.76627 2.79858 1.80004 2.72786 1.84855C1.64365 2.56178 0.816438 3.61017 0.36952 4.83745C-0.0773986 6.06472 -0.120089 7.40517 0.247812 8.65897C0.615714 9.91278 1.37451 11.0128 2.41108 11.7951C3.44766 12.5774 4.70651 13 6 13C7.29349 13 8.55234 12.5774 9.58892 11.7951C10.6255 11.0128 11.3843 9.91278 11.7522 8.65897C12.1201 7.40517 12.0774 6.06472 11.6305 4.83745C11.1836 3.61017 10.3563 2.56178 9.27214 1.84855C9.12935 1.76136 8.95862 1.73371 8.79603 1.77144C8.63344 1.80916 8.49173 1.90932 8.40082 2.05073C8.30991 2.19215 8.27693 2.36376 8.30885 2.5293C8.34076 2.69485 8.43507 2.84137 8.57186 2.93792C9.20826 3.3566 9.73523 3.92451 10.1079 4.59334C10.4806 5.26216 10.6881 6.01211 10.7126 6.77939C10.7371 7.54667 10.5779 8.30858 10.2486 9.00031C9.91932 9.69204 9.42967 10.2931 8.82129 10.7524H8.82043Z" fill="#3A4757"/>
</svg>