<svg width="20" height="20" viewBox="0 0 20 20" fill="none" xmlns="http://www.w3.org/2000/svg">
<path d="M19.6149 6.83333C19.3437 6.58333 18.8918 6.41667 18.5302 6.41667H1.53665C1.0847 6.41667 0.723131 6.58333 0.451957 6.83333C0.180783 7.08333 0 7.5 0 7.83333V14.25C0 14.6667 0.180783 15 0.451957 15.25C0.723131 15.5 1.17509 15.6667 1.53665 15.6667H3.79644V18.5C3.79644 18.9167 3.97722 19.25 4.24839 19.5C4.60996 19.8333 4.97152 20 5.42348 20H14.6434C15.0954 20 15.4569 19.8333 15.7281 19.5833C15.9993 19.3333 16.18 18.9167 16.18 18.5833V15.75H18.4398C18.8918 15.75 19.2534 15.5833 19.5245 15.3333C19.7957 15.0833 19.9765 14.6667 19.9765 14.3333V7.83333C20.0669 7.5 19.8861 7.16667 19.6149 6.83333ZM14.6434 18.5H5.42348V15.6667H14.6434V18.5ZM16.18 10.75H14.6434C14.1914 10.75 13.8299 10.4167 13.8299 10C13.8299 9.58333 14.1914 9.25 14.6434 9.25H16.18C16.632 9.25 16.9936 9.58333 16.9936 10C16.9936 10.4167 16.632 10.75 16.18 10.75Z" fill="#3A4757"/>
<path d="M16.2704 0.583333C16.2704 0.416667 16.1801 0.25 15.9993 0.166667C15.8185 0.0833333 15.6377 0 15.3665 0H4.70035C4.42918 0 4.24839 0.0833333 4.06761 0.166667C3.88683 0.333333 3.79644 0.416667 3.79644 0.583333V4.91667H16.2704V0.583333Z" fill="#3A4757"/>
</svg>