<svg width="20" height="20" viewBox="0 0 20 20" fill="none" xmlns="http://www.w3.org/2000/svg">
<path fill-rule="evenodd" clip-rule="evenodd" d="M19.3006 6.25312C18.8593 5.81182 18.2598 5.56203 17.627 5.56203H15.8285V1.67361C15.8285 1.23231 15.6536 0.80766 15.3372 0.491257C15.0208 0.174854 14.5962 0 14.1549 0H5.8368C5.3955 0 4.97086 0.174854 4.65445 0.491257C4.33805 0.80766 4.1632 1.23231 4.1632 1.67361V5.55371H2.3647C1.74022 5.55371 1.14072 5.8035 0.691091 6.2448C0.249792 6.68609 0 7.2856 0 7.9184V14.1632C0 14.7877 0.249792 15.3872 0.691091 15.8368C1.13239 16.2864 1.73189 16.5279 2.3647 16.5279H4.1632V18.3264C4.1632 18.7677 4.33805 19.1923 4.65445 19.5087C4.97086 19.8251 5.3955 20 5.8368 20H14.1632C14.6045 20 15.0291 19.8251 15.3455 19.5087C15.6619 19.1923 15.8368 18.7677 15.8368 18.3264V16.5279H17.6353C18.2598 16.5279 18.8593 16.2781 19.3089 15.8368C19.7502 15.3955 20 14.796 20 14.1632V7.9184C20 7.29392 19.7502 6.69442 19.3089 6.2448L19.3006 6.25312ZM6.1199 1.9567H13.8801V5.55371H6.1199V1.9567ZM6.1199 18.0433V14.4463H13.8801V18.0433H6.1199ZM18.0433 14.1632C18.0433 14.2714 18.0017 14.3797 17.9184 14.4546C17.8351 14.5296 17.7352 14.5712 17.627 14.5712H15.8285V13.4638C15.8285 12.9226 15.3955 12.4896 14.8543 12.4896H5.14571C4.6045 12.4896 4.17152 12.9226 4.17152 13.4638V14.5712H2.37302C2.26478 14.5712 2.15654 14.5296 2.0816 14.4546C2.00666 14.3797 1.9567 14.2714 1.9567 14.1632V7.9184C1.9567 7.81016 1.99833 7.70191 2.0816 7.62698C2.15654 7.55204 2.26478 7.50208 2.37302 7.50208H17.6353C17.7435 7.50208 17.8518 7.54371 17.9267 7.62698C18.0017 7.71024 18.0516 7.81016 18.0516 7.9184V14.1632H18.0433Z" fill="#3A4757"/>
<path fill-rule="evenodd" clip-rule="evenodd" d="M15.5454 9.02581H14.1549C13.6137 9.02581 13.1807 9.45878 13.1807 10C13.1807 10.5412 13.6137 10.9742 14.1549 10.9742H15.5454C16.0866 10.9742 16.5196 10.5412 16.5196 10C16.5196 9.45878 16.0866 9.02581 15.5454 9.02581Z" fill="#3A4757"/>
</svg>