<svg width="19" height="20" viewBox="0 0 19 20" fill="none" xmlns="http://www.w3.org/2000/svg">
<path fill-rule="evenodd" clip-rule="evenodd" d="M10.2518 0.185382C9.54925 -0.0617952 8.78397 -0.0617938 8.08138 0.185386L2.18486 2.25985C0.87287 2.72142 -0.0301668 3.97217 0.000771012 5.39285C0.0697124 8.55867 0.430051 11.4549 2.27853 14.4514C3.77478 16.8769 5.9048 18.7596 8.39979 19.8416L8.40383 19.8433C8.89338 20.0522 9.43984 20.0522 9.92939 19.8433L9.93343 19.8416C12.4306 18.7587 14.5621 16.8737 16.0585 14.4452C17.9065 11.4462 18.2641 8.55718 18.3326 5.39301C18.3633 3.97236 17.4604 2.7214 16.1482 2.25976L10.2518 0.185382ZM9.28478 17.0366C7.31627 17.0367 4.95407 14.9859 4.16667 13.345C6.13517 11.7044 11.647 11.2943 14.1667 13.345C13.6155 14.5756 11.647 17.0367 9.28478 17.0366ZM12.0833 6.99135C12.0833 8.51108 10.8708 9.74307 9.375 9.74307C7.87923 9.74307 6.66667 8.51108 6.66667 6.99135C6.66667 5.47161 7.87923 4.23962 9.375 4.23962C10.8708 4.23962 12.0833 5.47161 12.0833 6.99135Z" fill="#3A4757"/>
</svg>