<svg width="19" height="21" viewBox="0 0 19 21" fill="none" xmlns="http://www.w3.org/2000/svg">
<path fill-rule="evenodd" clip-rule="evenodd" d="M9.25507 5.28347C7.92399 5.28347 6.84494 6.36776 6.84494 7.70531C6.84494 9.04285 7.92399 10.1271 9.25507 10.1271C10.5862 10.1271 11.6652 9.04285 11.6652 7.70531C11.6652 6.36776 10.5862 5.28347 9.25507 5.28347ZM5.32275 7.70531C5.32275 5.523 7.08331 3.75389 9.25507 3.75389C11.4268 3.75389 13.1874 5.523 13.1874 7.70531C13.1874 9.88762 11.4268 11.6567 9.25507 11.6567C7.08331 11.6567 5.32275 9.88762 5.32275 7.70531Z" fill="#3A4757"/>
<path fill-rule="evenodd" clip-rule="evenodd" d="M15.0993 16.4795C13.7525 18.0772 12.0893 19.3346 10.2221 20.144L10.2182 20.1457C9.7358 20.3515 9.1974 20.3515 8.71496 20.1457L8.7111 20.144C6.21343 19.0613 4.08058 17.1769 2.58208 14.7485C0.731327 11.7492 0.369912 8.85015 0.300753 5.67532C0.270049 4.2658 1.16631 3.02431 2.46922 2.56608L8.38905 0.484065C9.08667 0.238712 9.84653 0.23871 10.5441 0.484061L16.4638 2.566C17.7669 3.0243 18.6631 4.26598 18.6326 5.67549C18.5639 8.84866 18.2052 11.7405 16.355 14.7422C16.0063 15.3078 15.6233 15.844 15.2092 16.3474C15.1865 16.3824 15.1605 16.4158 15.1311 16.4473C15.1207 16.4585 15.1101 16.4692 15.0993 16.4795ZM8.86796 1.85902C9.25553 1.72272 9.67767 1.72272 10.0652 1.85902L15.9849 3.94096C16.7169 4.1984 17.1996 4.88722 17.1832 5.64383C17.1167 8.71605 16.7719 11.2993 15.1225 13.9752C14.9247 14.2961 14.7149 14.606 14.4939 14.9043C14.0111 14.533 13.4862 14.2174 12.9289 13.9646C11.8979 13.4969 10.7796 13.2551 9.64839 13.2551C8.51716 13.2551 7.39888 13.4969 6.36784 13.9646C5.72205 14.2576 5.11974 14.6349 4.57593 15.0855C4.30574 14.7338 4.05135 14.3652 3.81416 13.9808C2.16453 11.3075 1.81707 8.71727 1.75011 5.64344C1.73363 4.88713 2.21619 4.19847 2.94813 3.94104L8.86796 1.85902ZM5.52617 16.1864C6.6159 17.3107 7.88971 18.201 9.28307 18.8054C9.4025 18.8559 9.53073 18.8559 9.65016 18.8054C11.1104 18.172 12.4393 17.2246 13.5626 16.0229C13.1815 15.7357 12.7691 15.4904 12.3325 15.2924C11.4889 14.9097 10.5739 14.7118 9.64839 14.7118C8.72284 14.7118 7.80788 14.9097 6.9643 15.2924C6.44697 15.527 5.96375 15.8279 5.52617 16.1864Z" fill="#3A4757"/>
<path fill-rule="evenodd" clip-rule="evenodd" d="M9.25507 5.28347C7.92399 5.28347 6.84494 6.36776 6.84494 7.70531C6.84494 9.04285 7.92399 10.1271 9.25507 10.1271C10.5862 10.1271 11.6652 9.04285 11.6652 7.70531C11.6652 6.36776 10.5862 5.28347 9.25507 5.28347ZM5.32275 7.70531C5.32275 5.523 7.08331 3.75389 9.25507 3.75389C11.4268 3.75389 13.1874 5.523 13.1874 7.70531C13.1874 9.88762 11.4268 11.6567 9.25507 11.6567C7.08331 11.6567 5.32275 9.88762 5.32275 7.70531Z" stroke="#3A4757" stroke-width="0.6" stroke-linecap="round" stroke-linejoin="round"/>
<path fill-rule="evenodd" clip-rule="evenodd" d="M15.0993 16.4795C13.7525 18.0772 12.0893 19.3346 10.2221 20.144L10.2182 20.1457C9.7358 20.3515 9.1974 20.3515 8.71496 20.1457L8.7111 20.144C6.21343 19.0613 4.08058 17.1769 2.58208 14.7485C0.731327 11.7492 0.369912 8.85015 0.300753 5.67532C0.270049 4.2658 1.16631 3.02431 2.46922 2.56608L8.38905 0.484065C9.08667 0.238712 9.84653 0.23871 10.5441 0.484061L16.4638 2.566C17.7669 3.0243 18.6631 4.26598 18.6326 5.67549C18.5639 8.84866 18.2052 11.7405 16.355 14.7422C16.0063 15.3078 15.6233 15.844 15.2092 16.3474C15.1865 16.3824 15.1605 16.4158 15.1311 16.4473C15.1207 16.4585 15.1101 16.4692 15.0993 16.4795ZM8.86796 1.85902C9.25553 1.72272 9.67767 1.72272 10.0652 1.85902L15.9849 3.94096C16.7169 4.1984 17.1996 4.88722 17.1832 5.64383C17.1167 8.71605 16.7719 11.2993 15.1225 13.9752C14.9247 14.2961 14.7149 14.606 14.4939 14.9043C14.0111 14.533 13.4862 14.2174 12.9289 13.9646C11.8979 13.4969 10.7796 13.2551 9.64839 13.2551C8.51716 13.2551 7.39888 13.4969 6.36784 13.9646C5.72205 14.2576 5.11974 14.6349 4.57593 15.0855C4.30574 14.7338 4.05135 14.3652 3.81416 13.9808C2.16453 11.3075 1.81707 8.71727 1.75011 5.64344C1.73363 4.88713 2.21619 4.19847 2.94813 3.94104L8.86796 1.85902ZM5.52617 16.1864C6.6159 17.3107 7.88971 18.201 9.28307 18.8054C9.4025 18.8559 9.53073 18.8559 9.65016 18.8054C11.1104 18.172 12.4393 17.2246 13.5626 16.0229C13.1815 15.7357 12.7691 15.4904 12.3325 15.2924C11.4889 14.9097 10.5739 14.7118 9.64839 14.7118C8.72284 14.7118 7.80788 14.9097 6.9643 15.2924C6.44697 15.527 5.96375 15.8279 5.52617 16.1864Z" stroke="#3A4757" stroke-width="0.6" stroke-linecap="round" stroke-linejoin="round"/>
</svg>