<svg width="20" height="20" viewBox="0 0 20 20" fill="none" xmlns="http://www.w3.org/2000/svg">
<path d="M19.6717 13.4537C17.0741 8.49533 13.5972 3.47548 11.7589 0.924574C11.5591 0.637726 11.2893 0.4021 10.9796 0.238187C10.3702 -0.0793956 9.61084 -0.0793956 8.9914 0.238187C8.68168 0.4021 8.42192 0.637726 8.2221 0.91433C6.37377 3.47548 2.89692 8.49533 0.309266 13.4435C0.13942 13.761 0.0395109 14.1094 0.00953801 14.4782C-0.0204348 14.8367 0.019529 15.1953 0.13942 15.5436C0.249321 15.8919 0.429158 16.1993 0.668941 16.4759C0.908723 16.7525 1.18847 16.9574 1.51817 17.111C4.32563 18.4326 8.07223 20 10.0005 20C11.9287 20 15.6753 18.4223 18.4828 17.111C18.8025 16.9574 19.0922 16.7422 19.332 16.4759C19.5718 16.2095 19.7516 15.8919 19.8616 15.5436C19.9715 15.1953 20.0214 14.8367 19.9914 14.4782C19.9615 14.1094 19.8616 13.7713 19.6917 13.4537H19.6717ZM2.1476 15.1031C2.09765 15.0416 2.04769 14.9699 2.02771 14.8879C1.99774 14.806 1.98775 14.724 1.99774 14.6523C1.99774 14.5704 2.02771 14.4884 2.06767 14.4167C4.2457 10.2369 7.08313 6.00589 8.9914 3.31156V17.8077C7.53272 17.4798 5.17486 16.5783 2.33743 15.2465C2.26749 15.2158 2.19756 15.1646 2.1476 15.1031ZM17.9533 14.8982C17.9233 14.9801 17.8833 15.0519 17.8334 15.1031C17.7834 15.1646 17.7135 15.2158 17.6436 15.2465C14.8161 16.5783 12.4583 17.4798 10.9996 17.8077V3.31156C12.8979 6.00589 15.7353 10.2369 17.9233 14.4269C17.9633 14.4987 17.9833 14.5806 17.9932 14.6626C17.9932 14.7445 17.9932 14.8265 17.9633 14.8982H17.9533Z" fill="#3A4757"/>
</svg>