<svg width="20" height="20" viewBox="0 0 20 20" fill="none" xmlns="http://www.w3.org/2000/svg">
<path d="M10 20C4.48333 20 0 15.5167 0 10C0 4.48333 4.48333 0 10 0C15.5167 0 20 4.48333 20 10C20 15.5167 15.5167 20 10 20ZM10 2C5.59167 2 2 5.59167 2 10C2 14.4083 5.59167 18 10 18C14.4083 18 18 14.4083 18 10C18 5.59167 14.4083 2 10 2Z" fill="#3A4757"/>
<path d="M10 12.3833C9.45 12.3833 9 11.9333 9 11.3833V10C9 9.45 9.45 9 10 9C10.2167 9 10.4167 8.93333 10.6 8.81667C10.775 8.7 10.9167 8.53333 11 8.33333C11.0833 8.13333 11.1 7.91667 11.0583 7.70833C11.0167 7.5 10.9167 7.30833 10.7667 7.15833C10.6167 7.00833 10.425 6.90833 10.2167 6.86667C10.0083 6.825 9.79167 6.85 9.59167 6.925C9.39167 7.00833 9.225 7.14167 9.10833 7.325C8.99167 7.5 8.925 7.70833 8.925 7.925C8.925 8.475 8.475 8.925 7.925 8.925C7.375 8.925 6.925 8.475 6.925 7.925C6.925 7.31667 7.10833 6.725 7.44167 6.21667C7.78333 5.70833 8.25833 5.31667 8.825 5.08333C9.39167 4.85 10 4.79167 10.6 4.90833C11.2 5.025 11.7417 5.31667 12.175 5.75C12.6083 6.18333 12.9 6.725 13.0167 7.325C13.1333 7.925 13.075 8.54167 12.8417 9.1C12.6083 9.66667 12.2167 10.1417 11.7083 10.4833C11.4833 10.6333 11.25 10.75 11 10.8333V11.3833C11 11.9333 10.55 12.3833 10 12.3833Z" fill="#3A4757"/>
<path d="M10 13.4583C9.79167 13.4583 9.58333 13.5167 9.40833 13.6333C9.23333 13.75 9.1 13.9167 9.01667 14.1083C8.93333 14.3 8.91667 14.5167 8.95833 14.725C9 14.9333 9.1 15.1167 9.25 15.2667C9.4 15.4167 9.59167 15.5167 9.79167 15.5583C10 15.6 10.2083 15.575 10.4083 15.5C10.6 15.4167 10.7667 15.2833 10.8833 15.1083C11 14.9333 11.0583 14.725 11.0583 14.5167C11.0583 14.2333 10.9417 13.9667 10.7417 13.7667C10.5417 13.5667 10.275 13.4583 9.99167 13.45L10 13.4583Z" fill="#3A4757"/>
</svg>