<svg width="20" height="20" viewBox="0 0 20 20" fill="none" xmlns="http://www.w3.org/2000/svg">
<path fill-rule="evenodd" clip-rule="evenodd" d="M10 0C4.47715 0 0 4.47715 0 10C0 15.5228 4.47715 20 10 20C15.5228 20 20 15.5228 20 10C20 4.47715 15.5228 0 10 0ZM10.2101 6.86685C10.0012 6.82529 9.78471 6.84662 9.58793 6.92813C9.39115 7.00964 9.22295 7.14767 9.10462 7.32477C8.98629 7.50187 8.92313 7.71008 8.92313 7.92308C8.92313 8.47536 8.47541 8.92308 7.92313 8.92308C7.37084 8.92308 6.92313 8.47536 6.92313 7.92308C6.92313 7.31452 7.10358 6.71963 7.44168 6.21363C7.77978 5.70763 8.26033 5.31325 8.82256 5.08037C9.3848 4.84749 10.0035 4.78655 10.6003 4.90528C11.1972 5.024 11.7454 5.31705 12.1758 5.74736C12.6061 6.17768 12.8991 6.72593 13.0178 7.3228C13.1366 7.91966 13.0756 8.53833 12.8428 9.10056C12.6099 9.6628 12.2155 10.1433 11.7095 10.4814C11.488 10.6295 11.2494 10.7473 11 10.833V11.3846C11 11.9369 10.5523 12.3846 10 12.3846C9.44776 12.3846 9.00005 11.9369 9.00005 11.3846V10C9.00005 9.44771 9.44776 9 10 9C10.213 9 10.4213 8.93684 10.5984 8.8185C10.7755 8.70017 10.9135 8.53198 10.995 8.3352C11.0765 8.13841 11.0978 7.92188 11.0563 7.71298C11.0147 7.50408 10.9122 7.31219 10.7615 7.16158C10.6109 7.01097 10.419 6.9084 10.2101 6.86685ZM9.40982 13.6405C9.58449 13.5238 9.78983 13.4615 9.9999 13.4615C10.2804 13.4652 10.5485 13.5783 10.7469 13.7767C10.9453 13.9751 11.0583 14.2431 11.062 14.5237C11.062 14.7337 10.9997 14.9391 10.883 15.1137C10.7663 15.2884 10.6004 15.4245 10.4064 15.5049C10.2123 15.5853 9.99872 15.6063 9.79269 15.5654C9.58666 15.5244 9.39741 15.4232 9.24887 15.2747C9.10033 15.1261 8.99918 14.9369 8.95819 14.7309C8.91721 14.5248 8.93824 14.3113 9.01863 14.1172C9.09902 13.9231 9.23516 13.7572 9.40982 13.6405Z" fill="#3A4757"/>
</svg>