<svg width="24" height="24" viewBox="0 0 24 24" fill="none" xmlns="http://www.w3.org/2000/svg">
<path d="M12 22C6.48333 22 2 17.5167 2 12C2 6.48333 6.48333 2 12 2C17.5167 2 22 6.48333 22 12C22 17.5167 17.5167 22 12 22ZM12 4C7.59167 4 4 7.59167 4 12C4 16.4083 7.59167 20 12 20C16.4083 20 20 16.4083 20 12C20 7.59167 16.4083 4 12 4Z" fill="#3A4757"/>
<path d="M12 14.3833C11.45 14.3833 11 13.9333 11 13.3833V12C11 11.45 11.45 11 12 11C12.2167 11 12.4167 10.9333 12.6 10.8167C12.775 10.7 12.9167 10.5333 13 10.3333C13.0833 10.1333 13.1 9.91667 13.0583 9.70833C13.0167 9.5 12.9167 9.30833 12.7667 9.15833C12.6167 9.00833 12.425 8.90833 12.2167 8.86667C12.0083 8.825 11.7917 8.85 11.5917 8.925C11.3917 9.00833 11.225 9.14167 11.1083 9.325C10.9917 9.5 10.925 9.70833 10.925 9.925C10.925 10.475 10.475 10.925 9.925 10.925C9.375 10.925 8.925 10.475 8.925 9.925C8.925 9.31667 9.10833 8.725 9.44167 8.21667C9.78333 7.70833 10.2583 7.31667 10.825 7.08333C11.3917 6.85 12 6.79167 12.6 6.90833C13.2 7.025 13.7417 7.31667 14.175 7.75C14.6083 8.18333 14.9 8.725 15.0167 9.325C15.1333 9.925 15.075 10.5417 14.8417 11.1C14.6083 11.6667 14.2167 12.1417 13.7083 12.4833C13.4833 12.6333 13.25 12.75 13 12.8333V13.3833C13 13.9333 12.55 14.3833 12 14.3833Z" fill="#3A4757"/>
<path d="M12 15.4583C11.7917 15.4583 11.5833 15.5167 11.4083 15.6333C11.2333 15.75 11.1 15.9167 11.0167 16.1083C10.9333 16.3 10.9167 16.5167 10.9583 16.725C11 16.9333 11.1 17.1167 11.25 17.2667C11.4 17.4167 11.5917 17.5167 11.7917 17.5583C12 17.6 12.2083 17.575 12.4083 17.5C12.6 17.4167 12.7667 17.2833 12.8833 17.1083C13 16.9333 13.0583 16.725 13.0583 16.5167C13.0583 16.2333 12.9417 15.9667 12.7417 15.7667C12.5417 15.5667 12.275 15.4583 11.9917 15.45L12 15.4583Z" fill="#3A4757"/>
</svg>