<svg width="17" height="15" viewBox="0 0 17 15" fill="none" xmlns="http://www.w3.org/2000/svg">
<path d="M13.0002 6.08054H13.1009C13.3225 6.0604 13.5239 5.95973 13.685 5.78859C13.8361 5.63758 13.9368 5.42617 13.9569 5.2047V5.10403H14.8331V5.22483C14.8129 5.67785 14.6216 6.0906 14.3094 6.41275C13.9972 6.7349 13.5743 6.91611 13.1211 6.93624H13.0002V6.07047V6.08054Z" fill="#3A4757"/>
<path d="M13.1211 8.21477C12.3356 8.21477 11.5501 7.89262 11.0063 7.33893C10.4424 6.77517 10.1302 6.0302 10.1302 5.22483C10.1402 4.64094 10.3215 4.07718 10.6337 3.57383L12.7384 0.191275C12.7888 0.130872 12.8391 0.0805369 12.8995 0.0503356C12.96 0.0100671 13.0405 0 13.1009 0C13.1614 0 13.2419 0.0100671 13.3024 0.0503356C13.3628 0.090604 13.4131 0.120805 13.4635 0.191275L15.5984 3.57383C15.9106 4.07718 16.0919 4.65101 16.1019 5.2349C16.1019 6.0302 15.7897 6.78524 15.2258 7.34899C14.6619 7.91275 13.8965 8.22483 13.111 8.22483H13.1211V8.21477ZM11.3688 4.02685C11.1473 4.38926 11.0063 4.80201 10.9962 5.22483C10.9962 5.78859 11.2178 6.32215 11.6206 6.72483C12.0234 7.12752 12.5571 7.34899 13.1211 7.34899C13.685 7.34899 14.2188 7.12752 14.6216 6.72483C15.0244 6.32215 15.2459 5.78859 15.2459 5.22483C15.2359 4.80201 15.0949 4.3792 14.8733 4.01678L13.1211 1.24832L11.3688 4.03691V4.02685Z" fill="#3A4757"/>
<path fill-rule="evenodd" clip-rule="evenodd" d="M7.85425 15C7.76362 15 7.66291 14.9799 7.55214 14.9396C7.39101 14.8893 7.23996 14.7785 7.11911 14.6275C7.00834 14.4866 6.94792 14.3154 6.94792 14.1242C6.94792 13.9329 6.99827 13.7517 7.09897 13.6007L7.18961 13.4597L6.85728 12.1107L6.55517 12.151C5.98115 12.2114 5.37693 12.3121 4.76263 12.453C4.29939 12.5537 3.76566 12.6846 3.25207 12.8557C3.17151 12.8758 3.12116 12.8859 3.10101 12.8859C3.02045 12.8859 2.93989 12.8658 2.87947 12.8456C2.77876 12.7953 2.6982 12.7047 2.63778 12.5738L0.130241 5.9094C0.100029 5.80873 0.0899589 5.70805 0.12017 5.60738C0.150381 5.49664 0.210804 5.41611 0.281297 5.3557C0.8251 4.92282 1.53003 4.65101 2.14432 4.44967C3.26214 4.05705 5.19566 3.59396 8.10601 3.59396C8.6901 3.59396 9.21376 3.61409 9.72735 3.65436H9.76763V3.68456C9.62665 3.95638 9.52594 4.26846 9.45545 4.58054V4.60067H9.41517C9.00228 4.58054 8.57932 4.55034 8.11608 4.55034C5.39707 4.55034 3.55418 4.99329 2.48672 5.3557C2.13425 5.47651 1.79186 5.60738 1.46961 5.76846L1.18763 5.9094L3.39306 11.7886L3.69517 11.698C4.52094 11.4866 5.36686 11.3154 6.2027 11.1846L6.58538 11.1342L5.67904 7.75168C5.6589 7.69128 5.6589 7.64094 5.66897 7.57047C5.66897 7.5 5.70925 7.4396 5.72939 7.38926C5.76968 7.32886 5.80996 7.27852 5.86031 7.23826C5.91066 7.19799 5.96101 7.17785 6.03151 7.15772H6.21277C6.28327 7.15772 6.34369 7.17785 6.40411 7.20805C6.46454 7.23826 6.51489 7.28859 6.55517 7.33893C6.59545 7.38926 6.61559 7.44966 6.63573 7.52013L7.59242 11.0738H8.10601C9.20369 11.0738 10.392 11.2148 11.6508 11.4966C11.9428 11.557 12.2248 11.6376 12.5068 11.7081L12.819 11.7987L13.8663 9.0302C14.2792 8.9396 14.6619 8.76846 15.0244 8.55705L15.0848 8.51678L13.5541 12.5638C13.5138 12.6846 13.4131 12.7852 13.3024 12.8356C13.2419 12.8658 13.1815 12.8758 13.0909 12.8758C13.0405 12.8758 12.9902 12.8758 12.96 12.8658C12.396 12.6846 11.9026 12.5537 11.4192 12.453C10.8049 12.3121 9.58637 12.0805 8.27721 12.0503H7.81397L8.11608 13.3087H8.19665C8.39806 13.3792 8.53904 13.5 8.61961 13.6611C8.71024 13.8121 8.74045 13.9933 8.72031 14.1846C8.70017 14.3758 8.62968 14.5369 8.50883 14.6779C8.39806 14.8188 8.23693 14.9094 8.05566 14.9597C8.02545 14.9597 7.99524 14.9799 7.96503 14.9799H7.82404L7.85425 15Z" fill="#3A4757"/>
</svg>