<svg width="16" height="15" viewBox="0 0 16 15" fill="none" xmlns="http://www.w3.org/2000/svg">
<path d="M12.8983 6.08054H12.999C13.2206 6.0604 13.422 5.95973 13.5831 5.78859C13.7342 5.63758 13.8349 5.42617 13.855 5.2047V5.10403H14.7311V5.22483C14.711 5.67785 14.5196 6.0906 14.2075 6.41275C13.8953 6.7349 13.4723 6.91611 13.0192 6.93624H12.8983V6.07047V6.08054Z" fill="#3A4757"/>
<path d="M13.0192 8.21477C12.2337 8.21477 11.4482 7.89262 10.9044 7.33893C10.3404 6.77517 10.0282 6.0302 10.0282 5.22483C10.0383 4.64094 10.2196 4.07718 10.5318 3.57383L12.6365 0.191275C12.6868 0.130872 12.7372 0.0805369 12.7976 0.0503356C12.858 0.0100671 12.9386 0 12.999 0C13.0594 0 13.14 0.0100671 13.2004 0.0503356C13.2608 0.090604 13.3112 0.120805 13.3615 0.191275L15.4965 3.57383C15.8087 4.07718 15.9899 4.65101 16 5.2349C16 6.0302 15.6878 6.78524 15.1239 7.34899C14.5599 7.91275 13.7946 8.22483 13.0091 8.22483H13.0192V8.21477ZM11.2669 4.02685C11.0454 4.38926 10.9044 4.80201 10.8943 5.22483C10.8943 5.78859 11.1158 6.32215 11.5187 6.72483C11.9215 7.12752 12.4552 7.34899 13.0192 7.34899C13.5831 7.34899 14.1168 7.12752 14.5196 6.72483C14.9225 6.32215 15.144 5.78859 15.144 5.22483C15.1339 4.80201 14.993 4.3792 14.7714 4.01678L13.0192 1.24832L11.2669 4.03691V4.02685Z" fill="#3A4757"/>
<path fill-rule="evenodd" clip-rule="evenodd" d="M7.75232 15C7.66169 15 7.56099 14.9799 7.45021 14.9396C7.28908 14.8893 7.13803 14.7785 7.01718 14.6275C6.90641 14.4866 6.84599 14.3154 6.84599 14.1242C6.84599 13.9329 6.89634 13.7517 6.99704 13.6007L7.08768 13.4597L6.75535 12.1107L6.45324 12.151C5.87923 12.2114 5.275 12.3121 4.66071 12.453C4.19747 12.5537 3.66373 12.6846 3.15014 12.8557C3.06958 12.8758 3.01923 12.8859 2.99909 12.8859C2.91852 12.8859 2.83796 12.8658 2.77754 12.8456C2.67683 12.7953 2.59627 12.7047 2.53585 12.5738L0.0283119 5.9094C-0.0018994 5.80873 -0.0119698 5.70805 0.0182414 5.60738C0.0484527 5.49664 0.108875 5.41611 0.179368 5.3557C0.723171 4.92282 1.4281 4.65101 2.0424 4.44967C3.16021 4.05705 5.09373 3.59396 8.00408 3.59396C8.58817 3.59396 9.11183 3.61409 9.62542 3.65436H9.6657V3.68456C9.52472 3.95638 9.42402 4.26846 9.35352 4.58054V4.60067H9.31324C8.90035 4.58054 8.4774 4.55034 8.01416 4.55034C5.29514 4.55034 3.45225 4.99329 2.38479 5.3557C2.03233 5.47651 1.68993 5.60738 1.36768 5.76846L1.08571 5.9094L3.29113 11.7886L3.59324 11.698C4.41902 11.4866 5.26493 11.3154 6.10078 11.1846L6.48345 11.1342L5.57711 7.75168C5.55697 7.69128 5.55697 7.64094 5.56704 7.57047C5.56704 7.5 5.60732 7.4396 5.62747 7.38926C5.66775 7.32886 5.70803 7.27852 5.75838 7.23826C5.80873 7.19799 5.85909 7.17785 5.92958 7.15772H6.11085C6.18134 7.15772 6.24176 7.17785 6.30218 7.20805C6.36261 7.23826 6.41296 7.28859 6.45324 7.33893C6.49352 7.38926 6.51366 7.44966 6.5338 7.52013L7.49049 11.0738H8.00408C9.10176 11.0738 10.2901 11.2148 11.5489 11.4966C11.8409 11.557 12.1229 11.6376 12.4049 11.7081L12.717 11.7987L13.7644 9.0302C14.1773 8.9396 14.5599 8.76846 14.9225 8.55705L14.9829 8.51678L13.4522 12.5638C13.4119 12.6846 13.3112 12.7852 13.2004 12.8356C13.14 12.8658 13.0796 12.8758 12.9889 12.8758C12.9386 12.8758 12.8882 12.8758 12.858 12.8658C12.2941 12.6846 11.8006 12.5537 11.3173 12.453C10.703 12.3121 9.48444 12.0805 8.17528 12.0503H7.71204L8.01416 13.3087H8.09472C8.29613 13.3792 8.43711 13.5 8.51768 13.6611C8.60831 13.8121 8.63852 13.9933 8.61838 14.1846C8.59824 14.3758 8.52775 14.5369 8.4069 14.6779C8.29613 14.8188 8.135 14.9094 7.95373 14.9597C7.92352 14.9597 7.89331 14.9799 7.8631 14.9799H7.72211L7.75232 15Z" fill="#3A4757"/>
</svg>