<svg width="16" height="13" viewBox="0 0 16 13" fill="none" xmlns="http://www.w3.org/2000/svg">
<path d="M1.98327 2.34816C1.74258 2.34816 1.54774 2.15801 1.54774 1.92312C1.54774 1.68823 1.74258 1.49808 1.98327 1.49808H4.37869C4.61937 1.49808 4.81422 1.68823 4.81422 1.92312C4.81422 2.15801 4.61937 2.34816 4.37869 2.34816H1.98327Z" fill="#3A4757"/>
<path d="M1.98327 3.4672C1.74258 3.4672 1.54774 3.27705 1.54774 3.04216C1.54774 2.80727 1.74258 2.61712 1.98327 2.61712H4.37869C4.61937 2.61712 4.81422 2.80727 4.81422 3.04216C4.81422 3.27705 4.61937 3.4672 4.37869 3.4672H1.98327Z" fill="#3A4757"/>
<path d="M9.90193 8.9862H5.43202C5.19133 8.9862 4.99649 8.79605 4.99649 8.56116C4.99649 8.32627 5.19133 8.13612 5.43202 8.13612H9.90193C10.1426 8.13612 10.3375 8.32627 10.3375 8.56116C10.3375 8.79605 10.1426 8.9862 9.90193 8.9862Z" fill="#3A4757"/>
<path d="M8.4694 5.9548H7.32327C7.08258 5.9548 6.88774 5.76465 6.88774 5.52976C6.88774 5.29487 7.08258 5.10472 7.32327 5.10472H8.4694C8.71009 5.10472 8.90493 5.29487 8.90493 5.52976C8.90493 5.76465 8.71009 5.9548 8.4694 5.9548Z" fill="#3A4757"/>
<path d="M11.2432 5.9548H9.84493C9.60425 5.9548 9.4094 5.76465 9.4094 5.52976C9.4094 5.29487 9.60425 5.10472 9.84493 5.10472H11.2432C11.4839 5.10472 11.6787 5.29487 11.6787 5.52976C11.6787 5.76465 11.4839 5.9548 11.2432 5.9548Z" fill="#3A4757"/>
<path d="M13.914 12.8H2.08596C0.939828 12.8 0 11.894 0 10.7643V2.03572C0 0.906006 0.928367 0 2.08596 0H13.914C15.0602 0 16 0.906006 16 2.03572V10.7643C16 11.8828 15.0716 12.8 13.914 12.8ZM2.08596 0.838894C1.40974 0.838894 0.859599 1.37579 0.859599 2.03572V10.7643C0.859599 11.4242 1.40974 11.9611 2.08596 11.9611H13.914C14.5903 11.9611 15.1404 11.4242 15.1404 10.7643V2.03572C15.1404 1.37579 14.5903 0.838894 13.914 0.838894H2.08596Z" fill="#3A4757"/>
<path d="M1.98327 11.11C1.74258 11.11 1.54774 10.9198 1.54774 10.6849C1.54774 10.4501 1.73112 10.2599 1.97181 10.2599C2.2125 10.2599 2.40734 10.4501 2.40734 10.6849C2.40734 10.9198 2.2125 11.11 1.97181 11.11H1.98327Z" fill="#3A4757"/>
<path d="M14.0627 2.34816C13.822 2.34816 13.6271 2.15801 13.6271 1.92312C13.6271 1.68823 13.8105 1.49808 14.0512 1.49808C14.2919 1.49808 14.4867 1.68823 14.4867 1.92312C14.4867 2.15801 14.2919 2.34816 14.0512 2.34816H14.0627Z" fill="#3A4757"/>
<path d="M3.22068 12.7993C2.97999 12.7993 2.78515 12.6092 2.78515 12.3743C2.78515 7.51986 6.33816 4.22021 6.48716 4.08599C6.65908 3.92939 6.93415 3.94058 7.09461 4.10836C7.25507 4.27614 7.2436 4.54458 7.07168 4.70118C7.0373 4.73473 3.64475 7.88898 3.64475 12.3743C3.64475 12.6092 3.44991 12.7993 3.20922 12.7993H3.22068Z" fill="#3A4757"/>
<path d="M10.612 12.7997C10.3713 12.7997 10.1764 12.6095 10.1764 12.3746C10.1764 7.5426 12.9157 4.26532 13.0303 4.11991C13.1793 3.94095 13.4544 3.91858 13.6378 4.06399C13.8211 4.2094 13.8441 4.47784 13.6951 4.65681C13.6721 4.69036 11.036 7.85579 11.036 12.3746C11.036 12.6095 10.8412 12.7997 10.6005 12.7997H10.612Z" fill="#3A4757"/>
<path d="M1.98327 9.9919C1.74258 9.9919 1.54774 9.80175 1.54774 9.56686C1.54774 9.33197 1.73112 9.14182 1.97181 9.14182C2.2125 9.14182 2.40734 9.33197 2.40734 9.56686C2.40734 9.80175 2.2125 9.9919 1.97181 9.9919H1.98327Z" fill="#3A4757"/>
<path d="M1.98327 8.87287C1.74258 8.87287 1.54774 8.68272 1.54774 8.44783C1.54774 8.21294 1.73112 8.02279 1.97181 8.02279C2.2125 8.02279 2.40734 8.21294 2.40734 8.44783C2.40734 8.68272 2.2125 8.87287 1.97181 8.87287H1.98327Z" fill="#3A4757"/>
</svg>