<svg width="16" height="16" viewBox="0 0 16 16" fill="none" xmlns="http://www.w3.org/2000/svg">
<path fill-rule="evenodd" clip-rule="evenodd" d="M7.46513 2.79997C11.4659 2.79997 15.7475 4.64237 15.9883 7.72477C16.0723 8.79837 15.6987 9.81837 14.9059 10.676C13.4035 12.3032 10.5859 13.2016 6.97073 13.208H0.400326C0.178726 13.208 0.000325521 13.0288 0.000325521 12.808V9.98237C0.000325521 9.76077 0.178726 9.58237 0.400326 9.58237H2.48753C2.07873 7.99997 2.38673 6.17357 3.32513 4.84477C4.25713 3.52557 5.72753 2.79997 7.46513 2.79997ZM7.46513 3.59997C5.57953 3.59997 4.52913 4.52797 3.97873 5.30637C3.09473 6.55677 2.86433 8.32637 3.39153 9.81357C3.40113 9.84077 3.41473 9.90397 3.41873 9.93197C3.43313 10.0464 3.39793 10.1608 3.32193 10.2472C3.24593 10.3328 3.13633 10.3824 3.02193 10.3824H2.07153V12.408H6.96993C10.3099 12.4024 12.9891 11.5736 14.3187 10.1336C14.9555 9.44397 15.2571 8.63277 15.1915 7.78717C15.0107 5.47837 11.5443 3.59997 7.46513 3.59997ZM1.27233 10.3824H0.800326V12.408H1.27233V10.3824ZM7.75561 3.93053C11.1004 3.93053 14.6804 5.37133 14.8844 7.78093C14.9524 8.58333 14.6716 9.35213 14.0724 10.0041C12.8436 11.3417 10.4444 12.0777 7.31641 12.0777C5.19401 12.0777 4.01961 10.4793 3.69481 9.63373C3.19801 8.33933 3.37561 6.82653 4.15881 5.68653C4.93641 4.55373 6.21401 3.93053 7.75561 3.93053ZM7.75561 4.73053C6.12841 4.73053 5.26041 5.49693 4.81801 6.14013C4.19161 7.05133 4.04361 8.31053 4.44121 9.34573C4.44841 9.36573 5.20681 11.2777 7.31641 11.2777C10.1756 11.2777 12.4244 10.6153 13.4836 9.46253C13.9332 8.97373 14.1364 8.43053 14.0876 7.84813C13.942 6.12893 11.1012 4.73053 7.75561 4.73053ZM11.0336 7.92813C11.232 7.83373 11.4712 7.91213 11.5688 8.11133C11.6656 8.31053 11.5832 8.54973 11.3848 8.64653L8.29521 10.1569C8.23841 10.1841 8.17921 10.1977 8.11921 10.1977C7.97201 10.1977 7.82961 10.1153 7.76001 9.97373C7.66321 9.77533 7.74561 9.53533 7.94401 9.43853L11.0336 7.92813ZM11.5726 6.37733C11.7686 6.28133 12.0094 6.36053 12.1078 6.56053C12.2046 6.75973 12.1222 6.99893 11.9238 7.09573L6.74065 9.63013C6.68465 9.65813 6.62385 9.67093 6.56465 9.67093C6.41745 9.67093 6.27505 9.58933 6.20545 9.44693C6.10865 9.24853 6.19025 9.00853 6.38945 8.91173L11.5726 6.37733ZM10.0183 5.85069C10.2159 5.75549 10.4551 5.83549 10.5535 6.03469C10.6503 6.23309 10.5679 6.47229 10.3695 6.56989L7.27993 8.07949C7.22233 8.10669 7.16313 8.12029 7.10393 8.12029C6.95593 8.12029 6.81433 8.03789 6.74473 7.89629C6.64793 7.69789 6.72953 7.45789 6.92793 7.36109L10.0183 5.85069Z" fill="#3A4757"/>
</svg>