<svg width="18" height="15" viewBox="0 0 18 15" fill="none" xmlns="http://www.w3.org/2000/svg">
<path d="M14.7071 0.292893C14.3166 -0.0976311 13.6834 -0.0976311 13.2929 0.292893C12.9024 0.683417 12.9024 1.31658 13.2929 1.70711L14.5858 3L5.8 3C2.6 3 0 5.6 0 8.8C0 11.9 2.4 14.9 5.5 15L12 15C12.6 15 13 14.6 13 14C13 13.4 12.6 13 12 13L5.5 13C3.5 13 2 10.7 2 8.8C2 6.9 3.5 5 5.5 5H14.5858L13.2929 6.29289C12.9024 6.68342 12.9024 7.31658 13.2929 7.70711C13.6834 8.09763 14.3166 8.09763 14.7071 7.70711L17.7071 4.70711C18.0976 4.31658 18.0976 3.68342 17.7071 3.29289L14.7071 0.292893Z" fill="#3A4757"/>
</svg>