<svg width="20" height="19" viewBox="0 0 20 19" fill="none" xmlns="http://www.w3.org/2000/svg">
<path fill-rule="evenodd" clip-rule="evenodd" d="M19.9446 13.7104L19.2536 10.9783C19.2536 10.9783 19.2203 10.92 19.212 10.895C19.187 10.8367 19.162 10.7784 19.1287 10.7201C19.0954 10.6702 19.0621 10.6202 19.0205 10.5785C18.9789 10.5369 18.9372 10.4952 18.8873 10.4619C18.8373 10.4203 18.779 10.3869 18.7208 10.362C18.6875 10.3453 18.6708 10.3286 18.6375 10.312C18.6125 10.3037 18.5792 10.312 18.5543 10.3036C18.4877 10.287 18.4294 10.2787 18.3628 10.2787C18.2962 10.2787 18.2296 10.2787 18.163 10.287C18.138 10.287 18.1047 10.287 18.0797 10.287L15.3074 10.97C14.7829 11.095 14.4665 11.6197 14.5997 12.1362C14.7329 12.6526 15.2574 12.9608 15.7819 12.8358L16.4979 12.6609C15.9651 13.4689 15.3074 14.1852 14.5248 14.7683C13.2011 15.7428 11.6193 16.3176 9.97919 16.4092C8.48063 16.4092 7.01538 15.9511 5.79155 15.1015C4.55941 14.2519 3.61865 13.0441 3.10248 11.6447C2.91932 11.1449 2.36153 10.8867 1.85368 11.07C1.34584 11.2532 1.08775 11.803 1.27091 12.3027C1.92028 14.0686 3.1108 15.6012 4.67596 16.6758C6.24112 17.7586 8.10599 18.3333 10.0125 18.3333C10.0291 18.3333 10.0458 18.3333 10.0624 18.3333C12.1021 18.225 14.0669 17.517 15.6987 16.3093C16.6061 15.6429 17.3804 14.8349 18.0131 13.927L18.0797 14.1936C18.2129 14.71 18.7374 15.0182 19.2619 14.8932C19.7864 14.7683 20.1028 14.2435 19.9696 13.7271L19.9446 13.7104Z" fill="#3A4757"/>
<path fill-rule="evenodd" clip-rule="evenodd" d="M1.08775 7.86309C1.1377 7.90474 1.19598 7.93806 1.25426 7.96305C1.27923 7.97971 1.30421 7.99637 1.32919 8.01302C1.36249 8.02135 1.38746 8.01303 1.42076 8.02968C1.48737 8.04634 1.54564 8.05467 1.61225 8.05467C1.67885 8.05467 1.74545 8.05467 1.81205 8.04634C1.84536 8.04634 1.87033 8.04634 1.90363 8.04634L4.67596 7.36332C5.20046 7.23838 5.51682 6.71362 5.38361 6.19718C5.25041 5.68075 4.72591 5.37256 4.20142 5.4975L3.55204 5.65576C4.08487 4.9061 4.75089 4.20642 5.52514 3.61502C6.8905 2.5655 8.47231 1.92413 9.98751 1.92413C11.5027 1.92413 12.9763 2.39891 14.2168 3.25685C15.4572 4.12313 16.3897 5.33924 16.8975 6.74693C17.0807 7.24671 17.6301 7.51325 18.138 7.33C18.6458 7.15508 18.9122 6.60533 18.7291 6.10556C18.088 4.32304 16.9058 2.78207 15.3407 1.68257C13.7755 0.591398 11.9107 0 9.98751 0C7.92283 0 5.93308 0.857943 4.31797 2.09905C3.43549 2.78207 2.64459 3.59836 2.00354 4.4813L1.92028 4.13978C1.78708 3.62335 1.26258 3.31516 0.738089 3.4401C0.213594 3.56505 -0.102768 4.08981 0.0304371 4.60624L0.721438 7.33833C0.721438 7.33833 0.746414 7.38831 0.763065 7.42163C0.788041 7.48826 0.813017 7.53824 0.846318 7.59655C0.879619 7.64652 0.91292 7.6965 0.954547 7.73815C0.996174 7.7798 1.0378 7.82144 1.08775 7.86309Z" fill="#3A4757"/>
</svg>