<svg width="20" height="19" viewBox="0 0 20 19" fill="none" xmlns="http://www.w3.org/2000/svg">
<path d="M17.9375 3.34777C19.0158 4.73987 19.7624 6.45953 19.9283 8.26107C20.1771 10.0626 19.7624 11.8642 18.9329 13.5838C18.0205 15.1397 16.6933 16.4499 15.1173 17.2688C13.7901 18.0058 12.2971 18.3333 10.804 18.3333C10.6381 18.3333 10.4929 18.3129 10.3478 18.2924C10.2026 18.2719 10.0575 18.2514 9.89156 18.2514C8.14965 18.0877 6.40774 17.3507 4.99762 16.2042C4.58288 15.8767 4.49993 15.2216 4.83173 14.8121C5.16352 14.4027 5.8271 14.3208 6.24184 14.6484C7.32017 15.5491 8.64734 16.0405 9.97451 16.2042C11.4676 16.368 12.8777 16.0405 14.1219 15.3854C15.3661 14.7303 16.4445 13.6657 17.108 12.4374C17.7716 11.2091 18.1034 9.81695 17.9375 8.42485C17.8546 7.03275 17.2739 5.64065 16.3615 4.5761C15.4491 3.51155 14.2049 2.69267 12.8777 2.28323C11.5505 1.87378 10.1404 1.87378 8.73029 2.28323C7.32017 2.69267 6.1589 3.51155 5.24647 4.5761C4.08519 5.9682 3.42161 7.68785 3.42161 9.4894L3.9193 8.99807C4.16814 8.7524 4.66583 8.7524 4.91467 8.99807C5.16352 9.24373 5.16352 9.73506 4.91467 9.98073L3.00687 11.7823C2.84097 11.8642 2.67508 11.946 2.50918 11.946C2.34328 11.946 2.17739 11.8642 2.01149 11.7823L0.186633 9.89884C-0.0622111 9.65317 -0.0622111 9.16184 0.186633 8.91618C0.435477 8.67051 0.933166 8.67051 1.18201 8.91618L1.43085 9.16184C1.5138 7.03275 2.34328 4.98554 3.67045 3.34777C4.83173 1.95567 6.40774 0.973013 8.2326 0.399794C9.97451 -0.173424 11.7994 -0.0915356 13.5413 0.399794C15.2832 0.973013 16.7762 1.95567 17.9375 3.34777Z" fill="#3A4757"/>
<path d="M7.32002 10.5539C6.90528 10.5539 6.57349 10.2264 6.57349 9.81693C6.57349 9.40749 6.90528 9.07993 7.32002 8.99804H7.81771V8.75238H7.32002C6.90528 8.75238 6.57349 8.42483 6.57349 8.01538C6.57349 7.60594 6.90528 7.27839 7.32002 7.27839H8.06655C8.23245 6.78706 8.56424 6.21384 8.97898 5.8044C9.80846 4.98552 10.8868 4.49419 12.131 4.4123C12.6287 4.4123 13.0434 4.49419 13.4582 4.65796C13.9559 4.82174 14.2047 5.39496 13.9559 5.8044C13.79 6.29573 13.2093 6.54139 12.7116 6.37762C12.4628 6.29573 12.2969 6.29573 12.0481 6.29573C11.4674 6.37762 10.8038 6.62328 10.3891 7.11461C10.3891 7.14941 10.3891 7.16942 10.3827 7.18721C10.3741 7.21129 10.3538 7.2313 10.3062 7.27839H10.8868C11.3015 7.27839 11.6333 7.60594 11.6333 8.01538C11.6333 8.42483 11.3015 8.75238 10.8868 8.75238H9.80846V8.99804H10.8868C11.3015 8.99804 11.6333 9.3256 11.6333 9.73504C11.6333 10.1445 11.3015 10.472 10.8868 10.472H10.3062C10.3062 10.5539 10.3061 10.5539 10.3891 10.6358C10.8868 11.1271 11.4674 11.4547 12.131 11.4547C12.3799 11.4547 12.6287 11.3728 12.8775 11.2909C13.3752 11.0453 13.9559 11.2909 14.2047 11.7822C14.4536 12.2736 14.2047 12.8468 13.707 13.0925C13.2093 13.3381 12.7116 13.42 12.131 13.42C10.8868 13.42 9.80846 12.9287 8.97898 12.0279C8.56424 11.6185 8.23245 11.1271 8.06655 10.5539H7.32002Z" fill="#3A4757"/>
</svg>