<svg width="20" height="20" viewBox="0 0 20 20" fill="none" xmlns="http://www.w3.org/2000/svg">
<path fill-rule="evenodd" clip-rule="evenodd" d="M17.6406 0.0360821C19.0242 -0.229203 20.2338 1.00911 19.9614 2.41195L19.7842 3.3245C19.2178 6.24125 17.8245 8.91138 15.7944 11.0165L15.8319 14.54C15.844 15.6784 15.2177 16.7247 14.2171 17.2379L12.3018 18.2201C11.0703 18.8517 9.56779 18.3547 8.93882 17.1077L7.8709 14.9906L5.19422 12.2723L3.11028 11.1883C1.88241 10.5495 1.39301 9.02366 2.0149 7.77306L2.98211 5.82805C3.48745 4.81182 4.51781 4.1758 5.63879 4.1881L9.12057 4.22633C11.2143 2.16506 13.8669 0.759673 16.7592 0.205086L17.6406 0.0360821ZM4.69875 9.64614L7.32317 6.31468L5.61635 6.29594C5.28665 6.29232 4.9836 6.47939 4.83497 6.77828L3.86776 8.72329C3.8447 8.76967 3.8305 8.81825 3.82453 8.86703C3.80274 9.04501 3.89046 9.22568 4.05662 9.31211L4.69875 9.64614ZM9.27063 13.4309L6.73069 10.8515L11.285 5.08278C12.9601 3.66508 14.9739 2.69262 17.1444 2.27645L17.9001 2.13153L17.7477 2.9167C17.3274 5.08133 16.3782 7.08826 15.005 8.76204L9.27063 13.4309ZM10.4575 15.4948L10.7863 16.1467C10.8714 16.3154 11.0493 16.4045 11.2246 16.3824C11.2726 16.3763 11.3204 16.3619 11.3661 16.3385L13.2814 15.3563C13.5757 15.2053 13.7599 14.8976 13.7563 14.5628L13.7379 12.8298L10.4575 15.4948Z" fill="#3A4757"/>
<path fill-rule="evenodd" clip-rule="evenodd" d="M6.40015 16.7502C6.40015 14.9554 4.96743 13.5005 3.20008 13.5005C1.43272 13.5005 0 14.9554 0 16.7502V20H3.20008C4.96743 20 6.40015 18.545 6.40015 16.7502ZM3.20008 15.6084C3.82104 15.6084 4.32443 16.1196 4.32443 16.7502C4.32443 17.3808 3.82104 17.892 3.20008 17.892H2.07572V16.7502C2.07572 16.1196 2.57911 15.6084 3.20008 15.6084Z" fill="#3A4757"/>
</svg>