<svg width="20" height="20" viewBox="0 0 20 20" fill="none" xmlns="http://www.w3.org/2000/svg">
<path fill-rule="evenodd" clip-rule="evenodd" d="M17.6406 0.0360821C19.0242 -0.229203 20.2338 1.00911 19.9614 2.41195L19.7842 3.3245C19.2178 6.24125 17.8245 8.91137 15.7944 11.0165L15.8319 14.5399C15.844 15.6783 15.2177 16.7246 14.2171 17.2378L12.3018 18.22C11.0703 18.8516 9.56779 18.3546 8.93882 17.1076L7.87101 14.9907L5.19422 12.2723L3.11028 11.1883C1.88241 10.5495 1.39301 9.02366 2.0149 7.77306L2.98211 5.82805C3.48745 4.81182 4.51781 4.1758 5.63879 4.1881L9.12057 4.22633C11.2143 2.16506 13.8669 0.759673 16.7592 0.205086L17.6406 0.0360821ZM4.69875 9.64614L7.32317 6.31468L5.61635 6.29594C5.28665 6.29232 4.9836 6.47939 4.83497 6.77828L3.86776 8.72329C3.8447 8.76967 3.8305 8.81825 3.82453 8.86703C3.80274 9.04501 3.89046 9.22568 4.05662 9.31211L4.69875 9.64614ZM10.4575 15.4948L10.7863 16.1466C10.8714 16.3153 11.0493 16.4044 11.2246 16.3823C11.2726 16.3762 11.3204 16.3618 11.3661 16.3384L13.2814 15.3562C13.5757 15.2052 13.7599 14.8975 13.7563 14.5626L13.7379 12.8298L10.4575 15.4948Z" fill="#3A4757"/>
<path fill-rule="evenodd" clip-rule="evenodd" d="M6.40015 16.7502C6.40015 14.9554 4.96743 13.5005 3.20008 13.5005C1.43272 13.5005 0 14.9554 0 16.7502V20H3.20008C4.96743 20 6.40015 18.545 6.40015 16.7502ZM3.20008 15.6084C3.82104 15.6084 4.32443 16.1196 4.32443 16.7502C4.32443 17.3808 3.82104 17.892 3.20008 17.892H2.07572V16.7502C2.07572 16.1196 2.57911 15.6084 3.20008 15.6084Z" fill="#3A4757"/>
</svg>