<svg width="20" height="20" viewBox="0 0 20 20" fill="none" xmlns="http://www.w3.org/2000/svg">
<path d="M1.00175 10.9902C1.26485 10.9865 1.51667 10.8827 1.7061 10.6998C1.89017 10.5111 1.99415 10.2584 1.99616 9.99466C1.99458 8.36284 2.49212 6.76967 3.42191 5.4294C4.35169 4.08913 5.66911 3.06605 7.197 2.49773C8.72488 1.92942 10.3899 1.84313 11.9683 2.25047C13.5466 2.65782 14.9625 3.53929 16.0255 4.77629L14.7576 4.5191C14.6274 4.48619 14.4918 4.48026 14.3592 4.50168C14.2266 4.5231 14.0998 4.57137 13.9865 4.64362C13.8733 4.71586 13.7759 4.81056 13.7005 4.92182C13.625 5.03307 13.5731 5.15858 13.5478 5.29065C13.5217 5.4228 13.5226 5.55886 13.5505 5.69063C13.5784 5.82241 13.6328 5.94716 13.7102 6.0573C13.7877 6.16743 13.8867 6.26067 14.0012 6.33139C14.1157 6.40211 14.2434 6.44883 14.3765 6.46872L18.0475 7.22366C18.1924 7.25173 18.3416 7.24775 18.4848 7.21192C18.6279 7.17608 18.7615 7.10928 18.8762 7.01625C19.0527 6.86968 19.1752 6.66822 19.2242 6.44386L19.97 2.77684C20.0029 2.64646 20.0088 2.51073 19.9874 2.37798C19.966 2.24522 19.9178 2.11825 19.8456 2.00483C19.7734 1.89142 19.6789 1.79396 19.5678 1.71843C19.4566 1.6429 19.3313 1.5909 19.1994 1.56561C19.067 1.53703 18.9301 1.53625 18.7975 1.56338C18.6648 1.59052 18.5393 1.64498 18.4287 1.72324C18.3202 1.79823 18.2277 1.89404 18.1566 2.00514C18.0855 2.11623 18.0371 2.24036 18.0144 2.37033L17.7492 3.68947C16.7845 2.50185 15.5602 1.55185 14.1708 0.9128C12.7814 0.273748 11.264 -0.0373149 9.73551 0.00356622C8.20704 0.0444474 6.70838 0.436205 5.35505 1.14862C4.00171 1.86103 2.82986 2.87504 1.92985 4.11254C0.689578 5.8223 0.0223418 7.88157 0.0239243 9.99466C0.0259371 10.2584 0.129862 10.5111 0.313938 10.6998C0.497333 10.8816 0.7437 10.9857 1.00175 10.9902Z" fill="#3A4757"/>
<path d="M19.6716 9.28946C19.4829 9.10599 19.2302 9.00336 18.9672 9.00336C18.7042 9.00336 18.4515 9.10599 18.2628 9.28946C18.1694 9.38131 18.0956 9.49112 18.0458 9.61232C17.9959 9.73352 17.9711 9.86357 17.9728 9.99463C17.9773 11.6279 17.4811 13.2232 16.5514 14.5652C15.6216 15.9072 14.303 16.9313 12.7735 17.4994C11.244 18.0674 9.57722 18.1519 7.99819 17.7416C6.41917 17.3313 5.00389 16.4458 3.94341 15.2047L5.203 15.4619C5.33317 15.495 5.46869 15.5012 5.60135 15.4804C5.73402 15.4596 5.86109 15.4121 5.97492 15.3408C6.08875 15.2695 6.18698 15.1758 6.26367 15.0654C6.34036 14.9551 6.39391 14.8303 6.42112 14.6986C6.44966 14.5661 6.45045 14.4291 6.42335 14.2963C6.39624 14.1635 6.34184 14.0378 6.26367 13.9271C6.18982 13.8175 6.09441 13.7242 5.98327 13.6529C5.87212 13.5816 5.74761 13.5337 5.61734 13.5123L1.94633 12.7656C1.81847 12.7389 1.6866 12.7377 1.55825 12.762C1.4299 12.7863 1.30756 12.8357 1.19829 12.9073C1.08901 12.979 0.994928 13.0715 0.921372 13.1795C0.847815 13.2876 0.796221 13.4091 0.769587 13.5372L0.0238146 17.2124C-0.00523555 17.3413 -0.00774187 17.4747 0.0164807 17.6045C0.0407034 17.7343 0.0911313 17.8578 0.164674 17.9674C0.313122 18.1873 0.542562 18.3395 0.802766 18.3905C0.947565 18.421 1.09738 18.4181 1.24092 18.3822C1.38446 18.3463 1.51798 18.2782 1.63144 18.1831C1.81335 18.0412 1.93713 17.8376 1.97946 17.6107L2.24464 16.2998C3.18198 17.4524 4.36326 18.3822 5.70317 19.0221C7.04307 19.6619 8.50815 19.9959 9.99269 20C11.5698 19.9904 13.1227 19.6101 14.526 18.8895C15.9294 18.169 17.1441 17.1285 18.0722 15.8518C19.3125 14.1421 19.9798 12.0829 19.9782 9.96976C19.9697 9.71136 19.8595 9.46679 19.6716 9.28946Z" fill="#3A4757"/>
<path d="M11.8821 5.99579H8.08676C7.53072 5.99579 6.99749 6.21694 6.60432 6.61057C6.21114 7.0042 5.99025 7.5381 5.99025 8.09478V11.8945C5.99243 12.4505 6.21399 12.9831 6.60669 13.3763C6.9994 13.7694 7.53139 13.9913 8.08676 13.9935H11.8821C12.4374 13.9913 12.9694 13.7694 13.3621 13.3763C13.7548 12.9831 13.9764 12.4505 13.9786 11.8945V8.09478C13.9786 7.5381 13.7577 7.0042 13.3646 6.61057C12.9714 6.21694 12.4381 5.99579 11.8821 5.99579ZM11.9815 8.09478V11.8945C11.9781 11.9197 11.9666 11.9431 11.9486 11.9611C11.9306 11.979 11.9073 11.9906 11.8821 11.994H8.08676C8.06039 11.994 8.0351 11.9836 8.01645 11.9649C7.99781 11.9462 7.98732 11.9209 7.98732 11.8945V8.09478C7.98019 8.07041 7.98019 8.04447 7.98732 8.0201H11.8572C11.8703 8.01639 11.884 8.01542 11.8975 8.01721C11.9109 8.019 11.9238 8.02353 11.9355 8.03053C11.9471 8.03752 11.9572 8.04682 11.9651 8.05787C11.973 8.06892 11.9786 8.0815 11.9815 8.09478Z" fill="#3A4757"/>
</svg>