<svg width="20" height="20" viewBox="0 0 20 20" fill="none" xmlns="http://www.w3.org/2000/svg">
<path fill-rule="evenodd" clip-rule="evenodd" d="M10 0C4.475 0 0 4.475 0 10C0 15.525 4.475 20 10 20C15.525 20 20 15.525 20 10C20 4.475 15.525 0 10 0ZM5.26667 5.25C5.81667 5.25 6.26667 5.7 6.26667 6.25C6.26667 6.35 6.30833 6.45 6.38333 6.525C6.45833 6.6 6.55 6.64167 6.65833 6.64167C6.76667 6.64167 6.85833 6.6 6.93333 6.525C7.00833 6.45 7.05 6.35833 7.05 6.25C7.05 5.7 7.5 5.25 8.05 5.25C8.6 5.25 9.05 5.7 9.05 6.25C9.05 6.88333 8.8 7.49167 8.35 7.93333C7.9 8.38333 7.3 8.63333 6.66667 8.63333C6.03333 8.63333 5.425 8.38333 4.98333 7.93333C4.53333 7.48333 4.28333 6.88333 4.28333 6.25C4.28333 5.7 4.73333 5.25 5.28333 5.25H5.26667ZM14.85 15.0167C14.3583 15.2583 13.7583 15.0583 13.5083 14.5667C12.9833 13.5 12.1083 12.7583 11.1167 12.4917C9.21667 11.9917 7.35 12.9333 6.59167 14.55C6.35833 15.05 5.76667 15.2667 5.26667 15.0333C4.76667 14.8 4.55 14.2083 4.78333 13.7083C5.94167 11.2167 8.8 9.81667 11.6333 10.5667H11.6417C13.2417 11.0083 14.55 12.1667 15.3 13.6917C15.5417 14.1833 15.3417 14.7833 14.85 15.0333V15.0167ZM15.025 7.93333C14.575 8.38333 13.975 8.63333 13.3417 8.63333C12.7083 8.63333 12.1 8.38333 11.6583 7.93333C11.2083 7.48333 10.9583 6.88333 10.9583 6.25C10.9583 5.7 11.4083 5.25 11.9583 5.25C12.5083 5.25 12.9583 5.7 12.9583 6.25C12.9583 6.35 13 6.45 13.075 6.525C13.15 6.6 13.2417 6.64167 13.35 6.64167C13.4583 6.64167 13.55 6.6 13.625 6.525C13.7 6.45 13.7417 6.35833 13.7417 6.25C13.7417 5.7 14.1917 5.25 14.7417 5.25C15.2917 5.25 15.7417 5.7 15.7417 6.25C15.7417 6.88333 15.4917 7.49167 15.0417 7.93333H15.025Z" fill="#3A4757"/>
</svg>