<svg width="20" height="20" viewBox="0 0 20 20" fill="none" xmlns="http://www.w3.org/2000/svg">
<path d="M6.60412 14.5444C7.35501 12.9327 9.22789 11.9919 11.1256 12.4891C12.1099 12.7589 12.9865 13.4978 13.5135 14.5649C13.7581 15.0601 14.3577 15.2633 14.8529 15.0187C15.3481 14.7742 15.5513 14.1745 15.3067 13.6793C14.555 12.157 13.2469 10.9946 11.6476 10.5584L11.639 10.5561C8.80797 9.81106 5.95293 11.2063 4.79122 13.6998C4.55799 14.2004 4.77474 14.7953 5.27536 15.0286C5.77598 15.2618 6.37089 15.0451 6.60412 14.5444Z" fill="#3A4757"/>
<path d="M5.26921 5.25004C5.82149 5.25004 6.2692 5.69776 6.2692 6.25004C6.2692 6.35205 6.30973 6.44987 6.38186 6.522C6.45399 6.59413 6.55181 6.63465 6.65382 6.63465C6.75583 6.63465 6.85365 6.59413 6.92578 6.522C6.99791 6.44987 7.03844 6.35205 7.03844 6.25004C7.03844 5.69776 7.48615 5.25004 8.03843 5.25004C8.59072 5.25004 9.03844 5.69776 9.03844 6.25004C9.03844 6.88248 8.7872 7.48902 8.34 7.93622C7.8928 8.38342 7.28626 8.63465 6.65382 8.63465C6.02138 8.63465 5.41484 8.38342 4.96764 7.93622C4.52044 7.48902 4.26921 6.88248 4.26921 6.25004C4.26921 5.69776 4.71692 5.25004 5.26921 5.25004Z" fill="#3A4757"/>
<path d="M12.9611 6.25004C12.9611 5.69776 12.5134 5.25004 11.9611 5.25004C11.4088 5.25004 10.9611 5.69776 10.9611 6.25004C10.9611 6.88248 11.2123 7.48902 11.6595 7.93622C12.1067 8.38342 12.7133 8.63465 13.3457 8.63465C13.9782 8.63465 14.5847 8.38342 15.0319 7.93622C15.4791 7.48902 15.7303 6.88248 15.7303 6.25004C15.7303 5.69776 15.2826 5.25004 14.7303 5.25004C14.178 5.25004 13.7303 5.69776 13.7303 6.25004C13.7303 6.35205 13.6898 6.44987 13.6177 6.522C13.5455 6.59413 13.4477 6.63465 13.3457 6.63465C13.2437 6.63465 13.1459 6.59413 13.0738 6.522C13.0016 6.44987 12.9611 6.35205 12.9611 6.25004Z" fill="#3A4757"/>
<path fill-rule="evenodd" clip-rule="evenodd" d="M10 0C4.47715 0 0 4.47715 0 10C0 15.5229 4.47716 20 10 20C15.5229 20 20 15.5229 20 10C20 4.47716 15.5229 0 10 0ZM2 10C2 5.58172 5.58172 2 10 2C14.4183 2 18 5.58172 18 10C18 14.4183 14.4183 18 10 18C5.58172 18 2 14.4183 2 10Z" fill="#3A4757"/>
</svg>