<svg width="20" height="20" viewBox="0 0 20 20" fill="none" xmlns="http://www.w3.org/2000/svg">
<path d="M19.8205 12.89C19.6405 12.62 19.3305 12.46 19.0005 12.46H10.3105V1C10.3105 1 10.3105 0.97 10.3005 0.95C10.3005 0.88 10.2805 0.82 10.2605 0.76C10.2405 0.7 10.2305 0.64 10.2105 0.58C10.1805 0.52 10.1405 0.47 10.1005 0.41C10.0605 0.36 10.0305 0.31 9.9905 0.27C9.9805 0.26 9.9705 0.24 9.9605 0.23C9.9205 0.2 9.8705 0.19 9.8305 0.16C9.7705 0.12 9.7205 0.09 9.6505 0.07C9.5905 0.05 9.5305 0.04 9.4605 0.03C9.4105 0.03 9.3705 0 9.3105 0C9.2905 0 9.2805 0 9.2605 0.01C9.1905 0.01 9.1305 0.03 9.0705 0.05C9.0105 0.07 8.9505 0.08 8.8905 0.1C8.8305 0.13 8.7805 0.17 8.7205 0.21C8.6705 0.25 8.6205 0.28 8.5805 0.32C8.5705 0.33 8.5505 0.34 8.5405 0.35L1.6105 8.67C1.3605 8.96 1.3105 9.38 1.4705 9.73C1.6405 10.09 1.9905 10.31 2.3805 10.31H8.3105V12.46H1.0005C0.6705 12.46 0.3705 12.62 0.1805 12.89C-0.0095 13.16 -0.0495 13.5 0.0605 13.81L1.4405 17.55C1.7105 18.27 2.1905 18.89 2.8305 19.33C3.4705 19.77 4.2105 20 4.9705 20H14.9905C15.7505 20 16.5005 19.77 17.1305 19.33C17.7705 18.89 18.2505 18.27 18.5205 17.55L19.9305 13.81C20.0505 13.5 20.0105 13.16 19.8205 12.89ZM4.5205 8.31L8.3105 3.76V8.31H4.5205ZM16.6605 16.84C16.5305 17.18 16.3105 17.47 16.0105 17.68C15.7105 17.88 15.3505 17.94 14.9905 17.99H4.9805C4.6205 17.99 4.2805 17.89 3.9805 17.68C3.6805 17.48 3.4605 17.19 3.3305 16.85L2.4405 14.46L9.2605 14.45C9.2805 14.45 9.2905 14.46 9.3105 14.46C9.3305 14.46 9.3405 14.46 9.3605 14.45H17.5605L16.6605 16.84Z" fill="#3A4757"/>
<path d="M11.0705 9.31C11.0705 9.86 11.5205 10.31 12.0705 10.31H16.9205C17.3105 10.31 17.6705 10.08 17.8305 9.72C17.9905 9.36 17.9305 8.94 17.6705 8.65L12.8205 3.11C12.4605 2.7 11.8305 2.66 11.4105 3.02C11.0005 3.38 10.9605 4.01 11.3205 4.43L14.7105 8.31H12.0705C11.5205 8.31 11.0705 8.76 11.0705 9.31Z" fill="#3A4757"/>
</svg>