<svg width="14" height="20" viewBox="0 0 14 20" fill="none" xmlns="http://www.w3.org/2000/svg">
<path fill-rule="evenodd" clip-rule="evenodd" d="M0.999419 0C0.446466 0 -0.00178995 0.448643 -0.00178995 1.00207C-0.00178995 1.5555 0.446466 2.00415 0.999419 2.00415L0.999419 4.34678C0.999419 6.11192 1.70001 7.80476 2.94708 9.05291C3.31015 9.41629 3.71088 9.73331 4.14008 10.0002C3.71086 10.267 3.31012 10.5841 2.94704 10.9474C1.69997 12.1956 0.999375 13.8884 0.999375 15.6536L0.999256 17.9952C0.446303 17.9952 -0.00195312 18.4439 -0.00195312 18.9973C-0.00195312 19.5507 0.446303 19.9994 0.999256 19.9994H1.31017C1.32204 19.9998 1.33396 20 1.34592 20H12.643C12.6549 20 12.6669 19.9998 12.6787 19.9994H12.9968C13.5498 19.9994 13.998 19.5507 13.998 18.9973C13.998 18.4439 13.5498 17.9952 12.9968 17.9952V15.6536C12.9968 13.8884 12.3173 12.1956 11.0703 10.9474C10.7072 10.5841 10.2854 10.267 9.85618 10.0002C10.2854 9.73333 10.6861 9.4163 11.0492 9.05291C12.2963 7.80476 12.9969 6.11192 12.9969 4.34678L12.9891 2.00415C13.542 2.00415 13.9903 1.5555 13.9903 1.00207C13.9903 0.448643 13.542 0 12.9891 0H0.999419ZM9.65438 5.26335C9.75665 4.87992 9.42604 4.55287 9.02953 4.55287H4.95995C4.56343 4.55287 4.23283 4.87992 4.33509 5.26335C4.45888 5.72751 4.70297 6.15545 5.04825 6.50103C5.56449 7.01772 6.26466 7.30799 6.99474 7.30799C7.72481 7.30799 8.42498 7.01772 8.94122 6.50103C9.28651 6.15545 9.53059 5.72751 9.65438 5.26335Z" fill="#3A4757"/>
</svg>