<svg width="14" height="20" viewBox="0 0 14 20" fill="none" xmlns="http://www.w3.org/2000/svg">
<path d="M9.03147 4.55287C9.42799 4.55287 9.75859 4.87992 9.65633 5.26335C9.53254 5.72752 9.28845 6.15545 8.94317 6.50104C8.42693 7.01772 7.72676 7.30799 6.99668 7.30799C6.26661 7.30799 5.56644 7.01772 5.0502 6.50104C4.70491 6.15545 4.46083 5.72752 4.33703 5.26335C4.23477 4.87992 4.56538 4.55287 4.96189 4.55287H9.03147Z" fill="#3A4757"/>
<path fill-rule="evenodd" clip-rule="evenodd" d="M0.000163176 1.00207C0.000163176 0.448643 0.44842 0 1.00137 0L12.991 0C13.544 0 13.9922 0.448643 13.9922 1.00207C13.9922 1.5555 13.544 2.00415 12.991 2.00415L12.9988 4.34678C12.9988 6.11192 12.2982 7.80476 11.0512 9.05291C10.6881 9.4163 10.2874 9.73333 9.85813 10.0002C10.2873 10.267 10.7091 10.5841 11.0722 10.9474C12.3193 12.1956 12.9988 13.8884 12.9988 15.6536V17.9952C13.5517 17.9952 14 18.4439 14 18.9973C14 19.5507 13.5517 19.9994 12.9988 19.9994H12.6807C12.6688 19.9998 12.6569 20 12.6449 20H1.34788C1.33591 20 1.32399 19.9998 1.31213 19.9994H1.00121C0.448257 19.9994 0 19.5507 0 18.9973C0 18.4439 0.448257 17.9952 1.00121 17.9952L1.00133 15.6536C1.00133 13.8884 1.70192 12.1956 2.94899 10.9474C3.31207 10.5841 3.71281 10.267 4.14203 10.0002C3.71283 9.73331 3.3121 9.41629 2.94903 9.05291C1.70197 7.80476 1.00137 6.11192 1.00137 4.34678L1.00137 2.00415C0.44842 2.00415 0.000163176 1.5555 0.000163176 1.00207ZM10.9964 17.9952H3.00375V15.6536C3.00375 14.42 3.49337 13.2369 4.36491 12.3646C5.23645 11.4923 5.76385 11.0022 6.9964 11.0022C8.22894 11.0022 8.76367 11.4923 9.63521 12.3646C10.5067 13.2369 10.9964 14.42 10.9964 15.6536V17.9952ZM9.63525 7.63576C8.76371 8.50805 8.22899 8.9981 6.99644 8.9981C5.7639 8.9981 5.2365 8.50805 4.36496 7.63576C3.49342 6.76347 3.00379 5.58039 3.00379 4.34678V2.0045L10.9964 2.0045V4.34678C10.9964 5.58039 10.5068 6.76347 9.63525 7.63576Z" fill="#3A4757"/>
</svg>