<svg width="14" height="20" viewBox="0 0 14 20" fill="none" xmlns="http://www.w3.org/2000/svg">
<path fill-rule="evenodd" clip-rule="evenodd" d="M1.00137 0C0.44842 0 0.000163176 0.448643 0.000163176 1.00207C0.000163176 1.5555 0.44842 2.00415 1.00137 2.00415L1.00137 4.34678C1.00137 6.11192 1.70197 7.80476 2.94903 9.05291C3.3121 9.41629 3.71283 9.73331 4.14203 10.0002C3.71281 10.267 3.31207 10.5841 2.94899 10.9474C1.70192 12.1956 1.00133 13.8884 1.00133 15.6536L1.00121 17.9952C0.448256 17.9952 0 18.4439 0 18.9973C0 19.5507 0.448256 19.9994 1.00121 19.9994H1.31213C1.32399 19.9998 1.33591 20 1.34788 20H12.6449C12.6569 20 12.6688 19.9998 12.6807 19.9994H12.9988C13.5517 19.9994 14 19.5507 14 18.9973C14 18.4439 13.5517 17.9952 12.9988 17.9952V15.6536C12.9988 13.8884 12.3193 12.1956 11.0722 10.9474C10.7091 10.5841 10.2873 10.267 9.85813 10.0002C10.2874 9.73333 10.6881 9.4163 11.0512 9.05291C12.2982 7.80476 12.9988 6.11192 12.9988 4.34678L12.991 2.00415C13.544 2.00415 13.9922 1.5555 13.9922 1.00207C13.9922 0.448643 13.544 0 12.991 0H1.00137ZM9.65634 5.26335C9.7586 4.87992 9.42799 4.55287 9.03148 4.55287H4.9619C4.56539 4.55287 4.23478 4.87992 4.33704 5.26335C4.46084 5.72751 4.70492 6.15545 5.05021 6.50103C5.56645 7.01772 6.26662 7.30799 6.99669 7.30799C7.72676 7.30799 8.42693 7.01772 8.94317 6.50103C9.28846 6.15545 9.53254 5.72751 9.65634 5.26335Z" fill="#3A4757"/>
</svg>