<svg width="14" height="20" viewBox="0 0 14 20" fill="none" xmlns="http://www.w3.org/2000/svg">
<path d="M9.02952 4.55287C9.42603 4.55287 9.75664 4.87992 9.65438 5.26335C9.53058 5.72752 9.2865 6.15545 8.94121 6.50104C8.42497 7.01772 7.7248 7.30799 6.99473 7.30799C6.26466 7.30799 5.56449 7.01772 5.04825 6.50104C4.70296 6.15545 4.45888 5.72752 4.33508 5.26335C4.23282 4.87992 4.56343 4.55287 4.95994 4.55287H9.02952Z" fill="#3A4757"/>
<path fill-rule="evenodd" clip-rule="evenodd" d="M-0.00178995 1.00207C-0.00178995 0.448643 0.446466 0 0.999419 0L12.9891 0C13.542 0 13.9903 0.448643 13.9903 1.00207C13.9903 1.5555 13.542 2.00415 12.9891 2.00415L12.9969 4.34678C12.9969 6.11192 12.2963 7.80476 11.0492 9.05291C10.6861 9.4163 10.2854 9.73333 9.85618 10.0002C10.2854 10.267 10.7072 10.5841 11.0703 10.9474C12.3173 12.1956 12.9968 13.8884 12.9968 15.6536V17.9952C13.5498 17.9952 13.998 18.4439 13.998 18.9973C13.998 19.5507 13.5498 19.9994 12.9968 19.9994H12.6787C12.6669 19.9998 12.6549 20 12.643 20H1.34592C1.33396 20 1.32204 19.9998 1.31017 19.9994H0.999256C0.446303 19.9994 -0.00195313 19.5507 -0.00195312 18.9973C-0.00195312 18.4439 0.446303 17.9952 0.999256 17.9952L0.999375 15.6536C0.999375 13.8884 1.69997 12.1956 2.94704 10.9474C3.31012 10.5841 3.71086 10.267 4.14008 10.0002C3.71088 9.73331 3.31015 9.41629 2.94708 9.05291C1.70001 7.80476 0.999419 6.11192 0.999419 4.34678L0.999419 2.00415C0.446466 2.00415 -0.00178995 1.5555 -0.00178995 1.00207ZM10.9944 17.9952H3.00179V15.6536C3.00179 14.42 3.49142 13.2369 4.36296 12.3646C5.2345 11.4923 5.7619 11.0022 6.99445 11.0022C8.22699 11.0022 8.76171 11.4923 9.63325 12.3646C10.5048 13.2369 10.9944 14.42 10.9944 15.6536V17.9952ZM9.6333 7.63576C8.76176 8.50805 8.22703 8.9981 6.99449 8.9981C5.76194 8.9981 5.23454 8.50805 4.363 7.63576C3.49146 6.76347 3.00184 5.58039 3.00184 4.34678V2.0045L10.9945 2.0045V4.34678C10.9945 5.58039 10.5048 6.76347 9.6333 7.63576Z" fill="#3A4757"/>
</svg>