<svg width="20" height="20" viewBox="0 0 20 20" fill="none" xmlns="http://www.w3.org/2000/svg">
<path fill-rule="evenodd" clip-rule="evenodd" d="M0.692393 0.692393C1.13572 0.249061 1.73701 0 2.36398 0H4.44653C4.98534 0 5.42214 0.436795 5.42214 0.97561C5.42214 1.51442 4.98534 1.95122 4.44653 1.95122H2.36398C2.25451 1.95122 2.14952 1.99471 2.07211 2.07211C1.99471 2.14952 1.95122 2.25451 1.95122 2.36398V4.44653C1.95122 4.98534 1.51442 5.42214 0.97561 5.42214C0.436795 5.42214 0 4.98534 0 4.44653V2.36398C0 1.73701 0.249061 1.13572 0.692393 0.692393Z" fill="#3A4757"/>
<path fill-rule="evenodd" clip-rule="evenodd" d="M14.5779 0.97561C14.5779 0.436795 15.0147 0 15.5535 0H17.636C18.263 0 18.8643 0.249061 19.3076 0.692393C19.7509 1.13572 20 1.73701 20 2.36398V4.44653C20 4.98534 19.5632 5.42214 19.0244 5.42214C18.4856 5.42214 18.0488 4.98534 18.0488 4.44653V2.36398C18.0488 2.25451 18.0053 2.14952 17.9279 2.07211C17.8505 1.99471 17.7455 1.95122 17.636 1.95122H15.5535C15.0147 1.95122 14.5779 1.51442 14.5779 0.97561Z" fill="#3A4757"/>
<path fill-rule="evenodd" clip-rule="evenodd" d="M0.97561 14.5779C1.51442 14.5779 1.95122 15.0147 1.95122 15.5535V17.636C1.95122 17.7455 1.99471 17.8505 2.07211 17.9279C2.14952 18.0053 2.25451 18.0488 2.36398 18.0488H4.44653C4.98534 18.0488 5.42214 18.4856 5.42214 19.0244C5.42214 19.5632 4.98534 20 4.44653 20H2.36398C1.73701 20 1.13572 19.7509 0.692393 19.3076C0.249061 18.8643 0 18.263 0 17.636V15.5535C0 15.0147 0.436795 14.5779 0.97561 14.5779Z" fill="#3A4757"/>
<path fill-rule="evenodd" clip-rule="evenodd" d="M19.0244 14.5779C19.5632 14.5779 20 15.0147 20 15.5535V17.636C20 18.263 19.7509 18.8643 19.3076 19.3076C18.8643 19.7509 18.263 20 17.636 20H15.5535C15.0147 20 14.5779 19.5632 14.5779 19.0244C14.5779 18.4856 15.0147 18.0488 15.5535 18.0488H17.636C17.7455 18.0488 17.8505 18.0053 17.9279 17.9279C18.0053 17.8505 18.0488 17.7455 18.0488 17.636V15.5535C18.0488 15.0147 18.4856 14.5779 19.0244 14.5779Z" fill="#3A4757"/>
<path fill-rule="evenodd" clip-rule="evenodd" d="M4.331 4.16527C4.86982 4.16527 5.30661 4.60207 5.30661 5.14088V12.4298C5.30661 12.9686 4.86982 13.4054 4.331 13.4054C3.79219 13.4054 3.35539 12.9686 3.35539 12.4298V5.14088C3.35539 4.60207 3.79219 4.16527 4.331 4.16527Z" fill="#3A4757"/>
<path fill-rule="evenodd" clip-rule="evenodd" d="M6.76064 4.16527C7.29946 4.16527 7.73625 4.60207 7.73625 5.14088V12.4298C7.73625 12.9686 7.29946 13.4054 6.76064 13.4054C6.22183 13.4054 5.78504 12.9686 5.78504 12.4298V5.14088C5.78504 4.60207 6.22183 4.16527 6.76064 4.16527Z" fill="#3A4757"/>
<path fill-rule="evenodd" clip-rule="evenodd" d="M10.0002 4.16527C10.539 4.16527 10.9758 4.60207 10.9758 5.14088V12.4298C10.9758 12.9686 10.539 13.4054 10.0002 13.4054C9.46136 13.4054 9.02456 12.9686 9.02456 12.4298V5.14088C9.02456 4.60207 9.46136 4.16527 10.0002 4.16527Z" fill="#3A4757"/>
<path fill-rule="evenodd" clip-rule="evenodd" d="M13.2397 4.16527C13.7785 4.16527 14.2153 4.60207 14.2153 5.14088V12.4298C14.2153 12.9686 13.7785 13.4054 13.2397 13.4054C12.7009 13.4054 12.2641 12.9686 12.2641 12.4298V5.14088C12.2641 4.60207 12.7009 4.16527 13.2397 4.16527Z" fill="#3A4757"/>
<path fill-rule="evenodd" clip-rule="evenodd" d="M15.6693 4.16527C16.2082 4.16527 16.6449 4.60207 16.6449 5.14088V12.4298C16.6449 12.9686 16.2082 13.4054 15.6693 13.4054C15.1305 13.4054 14.6937 12.9686 14.6937 12.4298V5.14088C14.6937 4.60207 15.1305 4.16527 15.6693 4.16527Z" fill="#3A4757"/>
<path fill-rule="evenodd" clip-rule="evenodd" d="M3.35539 14.8595C3.35539 14.3206 3.79219 13.8838 4.331 13.8838H15.6693C16.2082 13.8838 16.6449 14.3206 16.6449 14.8595C16.6449 15.3983 16.2082 15.8351 15.6693 15.8351H4.331C3.79219 15.8351 3.35539 15.3983 3.35539 14.8595Z" fill="#3A4757"/>
</svg>