<svg width="20" height="20" viewBox="0 0 20 20" fill="none" xmlns="http://www.w3.org/2000/svg">
<path d="M19.2997 11.7615C18.8494 11.3104 18.2591 11.0599 17.6288 11.0599H16.5383V10.7291C16.5383 10.7291 16.5483 10.6991 16.5483 10.679C16.5483 10.659 16.5483 10.649 16.5383 10.6289V7.2012C16.5383 6.19895 16.1381 5.22676 15.4377 4.52518C14.9575 4.05412 14.3772 3.7334 13.7469 3.56302C13.7069 2.6209 13.3367 1.72889 12.6663 1.0674C11.2456 -0.355801 8.75438 -0.355801 7.33367 1.0674C6.66333 1.74894 6.29315 2.6209 6.25313 3.56302C5.62281 3.7334 5.04252 4.0441 4.56228 4.52518C3.86193 5.22676 3.46173 6.20897 3.46173 7.2012V11.0499H2.3912C1.76088 11.0499 1.15058 11.3004 0.70035 11.7514C0.250125 12.2025 0 12.8138 0 13.4453V18.9977C0 19.549 0.450225 20 1.0005 20H18.9995C19.5498 20 20 19.559 20 19.0078V13.4553C20 12.8239 19.7399 12.2025 19.2997 11.7615ZM5.47274 12.1022C5.47274 12.1022 5.47274 12.0722 5.47274 12.0521C5.47274 12.0321 5.47274 12.022 5.47274 12.002V11.6813H9.01451V12.0621C9.01451 12.6134 9.46473 13.0644 10.015 13.0644C10.5653 13.0644 11.0155 12.6134 11.0155 12.0621V11.6813H14.5573V17.9955H5.47274V12.1022ZM11.2556 2.4906C11.5158 2.74117 11.6858 3.07191 11.7459 3.4227H8.26413C8.33417 3.07191 8.49425 2.74117 8.75438 2.4906C9.42471 1.81909 10.5853 1.81909 11.2556 2.4906ZM5.993 5.94838C6.31316 5.61764 6.75338 5.43723 7.21361 5.42721C7.22361 5.42721 7.23362 5.42721 7.24362 5.42721C7.26363 5.42721 7.27364 5.42721 7.29365 5.41719H12.7364C12.7364 5.41719 12.7664 5.41719 12.7764 5.41719C12.7864 5.41719 12.7964 5.41719 12.8064 5.41719C13.2666 5.41719 13.6968 5.60762 14.027 5.93836C14.3572 6.26911 14.5473 6.72012 14.5473 7.19118V9.66675H11.0055V9.27587C11.0055 8.72463 10.5553 8.27362 10.005 8.27362C9.45473 8.27362 9.0045 8.72463 9.0045 9.27587V9.66675H5.46273V7.19118C5.46273 6.72012 5.65283 6.26911 5.98299 5.93836L5.993 5.94838ZM2.02101 13.4352C2.02101 13.335 2.06103 13.2348 2.13107 13.1646C2.2011 13.0945 2.30115 13.0544 2.4012 13.0544H3.47174V17.9855H2.02101V13.4352ZM18.009 18.0055H16.5383V13.0744H17.6288C17.7289 13.0744 17.8289 13.1145 17.899 13.1847C17.969 13.2548 18.009 13.355 18.009 13.4553V18.0055Z" fill="#3A4757"/>
</svg>