<svg width="13" height="15" viewBox="0 0 13 15" fill="none" xmlns="http://www.w3.org/2000/svg">
<path fill-rule="evenodd" clip-rule="evenodd" d="M4.34024 15C3.82132 15 2.61385 15 2.09493 13.0815C1.6758 11.501 0.558139 4.62227 0.508243 4.334C-0.419819 2.00795 0.129035 0.934394 0.53818 0.497018C0.837555 0.178926 1.23672 0 1.65585 0C1.82549 0 2.00512 0.0298211 2.17476 0.0795229C2.95314 0.328032 3.51197 1.07356 3.63172 2.02783L3.65168 2.23658C3.72153 3.02187 3.74149 3.17097 3.68162 3.48907C4.42007 4.46322 6.12651 7.40557 5.38805 10.2783L5.34813 10.4175L5.48784 10.3976C6.39595 10.2982 9.36974 9.9503 9.75892 9.87078C9.88865 9.84095 10.0783 9.82107 10.2978 9.82107C10.7069 9.82107 11.4853 9.89066 12.114 10.3777C12.6229 10.7753 12.9123 11.3618 12.9523 12.0875C12.9922 12.8728 13.0121 13.5189 12.9922 14.006C12.9123 14.3936 12.7028 15 12.5032 15H4.34024ZM2.95314 4.20477C2.56395 4.30417 1.99514 4.4334 1.56603 4.5328L1.47622 4.55268L1.49618 4.64215C1.75564 6.2326 2.64378 11.5408 2.99305 12.8429C3.32237 14.0855 3.85126 14.0855 4.35022 14.0855H12.0841V13.9861C12.094 13.668 12.104 13.0915 12.0441 12.1372C12.0242 11.6799 11.8645 11.332 11.5552 11.1034C11.1261 10.7753 10.5273 10.7455 10.2878 10.7455C10.1481 10.7455 10.0284 10.7555 9.93855 10.7753C9.38969 10.8847 4.89907 11.3917 4.70947 11.4115H4.69949C4.49991 11.4115 4.38016 11.3419 4.29034 11.2326C4.19055 11.1034 4.17059 10.9245 4.24045 10.7753C5.38805 8.22068 3.73151 5.12922 3.06291 4.24453L3.02299 4.19483L2.96312 4.21471L2.95314 4.20477ZM1.66583 0.914513C1.49618 0.914513 1.33651 0.984095 1.20678 1.11332C0.827576 1.52087 0.827576 2.44533 1.20678 3.57853L1.23672 3.66799L1.32653 3.64811C1.81551 3.53877 2.36437 3.40954 2.70366 3.33002L2.77351 3.31014V3.24056C2.80345 3.05169 2.77351 2.85288 2.7336 2.32604L2.71364 2.13718C2.62382 1.43141 2.22466 1.06362 1.88537 0.964215C1.83547 0.944334 1.75564 0.924453 1.65585 0.924453L1.66583 0.914513Z" fill="#3A4757"/>
</svg>