<svg width="13" height="15" viewBox="0 0 13 15" fill="none" xmlns="http://www.w3.org/2000/svg">
<path fill-rule="evenodd" clip-rule="evenodd" d="M4.34122 15C3.8223 15 2.61482 15 2.09591 13.0815C1.67678 11.501 0.559115 4.62227 0.509219 4.334C-0.418842 2.00795 0.130011 0.934394 0.539157 0.497018C0.838532 0.178926 1.2377 0 1.65682 0C1.82647 0 2.00609 0.0298211 2.17574 0.0795229C2.95411 0.328032 3.51295 1.07356 3.6327 2.02783L3.65265 2.23658C3.72251 3.02187 3.74247 3.17097 3.68259 3.48907C4.42105 4.46322 6.12749 7.40557 5.38903 10.2783L5.34911 10.4175L5.48882 10.3976C6.39692 10.2982 9.37071 9.9503 9.7599 9.87078C9.88963 9.84095 10.0792 9.82107 10.2988 9.82107C10.7079 9.82107 11.4863 9.89066 12.115 10.3777C12.6239 10.7753 12.9133 11.3618 12.9532 12.0875C12.9931 12.8728 13.0131 13.5189 12.9931 14.006C12.9133 14.3936 12.7038 15 12.5042 15H4.34122ZM2.95411 4.20477C2.56493 4.30417 1.99611 4.4334 1.56701 4.5328L1.4772 4.55268L1.49716 4.64215C1.75661 6.2326 2.64476 11.5408 2.99403 12.8429C3.32334 14.0855 3.85224 14.0855 4.3512 14.0855H12.085V13.9861C12.095 13.668 12.105 13.0915 12.0451 12.1372C12.0252 11.6799 11.8655 11.332 11.5561 11.1034C11.127 10.7753 10.5283 10.7455 10.2888 10.7455C10.1491 10.7455 10.0293 10.7555 9.93952 10.7753C9.39067 10.8847 4.90005 11.3917 4.71044 11.4115H4.70047C4.50088 11.4115 4.38113 11.3419 4.29132 11.2326C4.19153 11.1034 4.17157 10.9245 4.24142 10.7753C5.38903 8.22068 3.73249 5.12922 3.06388 4.24453L3.02397 4.19483L2.96409 4.21471L2.95411 4.20477ZM1.6668 0.914513C1.49716 0.914513 1.33749 0.984095 1.20776 1.11332C0.828553 1.52087 0.828553 2.44533 1.20776 3.57853L1.2377 3.66799L1.32751 3.64811C1.81649 3.53877 2.36534 3.40954 2.70463 3.33002L2.77449 3.31014V3.24056C2.80443 3.05169 2.77449 2.85288 2.73457 2.32604L2.71461 2.13718C2.6248 1.43141 2.22563 1.06362 1.88634 0.964215C1.83645 0.944334 1.75661 0.924453 1.65682 0.924453L1.6668 0.914513Z" fill="#3A4757"/>
</svg>