<svg width="14" height="15" viewBox="0 0 14 15" fill="none" xmlns="http://www.w3.org/2000/svg">
<path fill-rule="evenodd" clip-rule="evenodd" d="M0.368421 15C0.187556 15 0.0371307 14.8673 0.00593577 14.6924L0 14.625V6.375C0 5.38089 0.760079 4.56747 1.72099 4.50399L1.84211 4.5H2.57895V3.75H1.47368C1.29282 3.75 1.14239 3.61734 1.1112 3.44241L1.10526 3.375V1.875C1.10526 0.880887 1.86534 0.067471 2.82625 0.00398827L2.94737 0H4.42105C5.39772 0 6.19687 0.773652 6.25924 1.75172L6.26316 1.875V3.375C6.26316 3.55909 6.13283 3.71221 5.96096 3.74396L5.89474 3.75H4.78947V4.5H5.52632C6.12934 4.5 6.66468 4.79493 7.00072 5.2508C7.30958 4.82999 7.78949 4.54633 8.33579 4.50517L8.47368 4.5H9.21053V3.75H8.10526C7.9244 3.75 7.77397 3.61734 7.74278 3.44241L7.73684 3.375V1.875C7.73684 0.880887 8.49692 0.067471 9.45783 0.00398827L9.57895 0H11.0526C12.0293 0 12.8284 0.773652 12.8908 1.75172L12.8947 1.875V3.375C12.8947 3.55909 12.7644 3.71221 12.5925 3.74396L12.5263 3.75H11.4211V4.5H12.1579C13.1346 4.5 13.9337 5.27365 13.9961 6.25172L14 6.375V14.625C14 14.8091 13.8697 14.9622 13.6978 14.994L13.6316 15H0.368421ZM5.52632 12H1.84211C1.23169 12 0.736842 12.5037 0.736842 13.125V14.25H6.63158V13.125L6.62652 13.0167C6.57631 12.4818 6.15821 12.0563 5.63276 12.0051L5.52632 12ZM12.1579 12H8.47368C7.86326 12 7.36842 12.5037 7.36842 13.125V14.25H13.2632V13.125C13.2632 12.5402 12.8248 12.0597 12.2643 12.0051L12.1579 12ZM5.52632 5.25H1.84211C1.26759 5.25 0.795459 5.69617 0.741902 6.26665L0.736842 6.375L0.736875 11.6248C1.04474 11.3895 1.42742 11.25 1.84211 11.25H5.52632C5.94133 11.25 6.3243 11.3897 6.63229 11.6254L6.63158 6.375C6.63158 5.82678 6.24632 5.37014 5.73634 5.27029L5.63276 5.25515L5.52632 5.25ZM12.1579 5.25H8.47368C7.89917 5.25 7.42704 5.69617 7.37348 6.26665L7.36842 6.375L7.36845 11.6248C7.67632 11.3895 8.059 11.25 8.47368 11.25H12.1579C12.5729 11.25 12.9559 11.3897 13.2639 11.6254L13.2632 6.375C13.2632 5.82678 12.8779 5.37014 12.3679 5.27029L12.2643 5.25515L12.1579 5.25ZM1.33757 7.40525C1.53803 7.40525 1.70054 7.559 1.70054 7.74866C1.70054 8.27211 2.14907 8.69646 2.70236 8.69646H4.42287C4.62171 8.70011 4.78198 8.85174 4.78584 9.03986C4.78584 9.22952 4.62333 9.38327 4.42287 9.38327H2.70236C1.74979 9.3795 0.978569 8.64987 0.974592 7.74866C0.974592 7.559 1.1371 7.40525 1.33757 7.40525ZM8.09982 7.40525C8.30028 7.40525 8.4628 7.559 8.4628 7.74866C8.4628 8.27211 8.91132 8.69646 9.46461 8.69646H11.1851C11.384 8.70011 11.5442 8.85174 11.5481 9.03986C11.5481 9.22952 11.3856 9.38327 11.1851 9.38327H9.46461C8.51204 9.3795 7.74082 8.64987 7.73684 7.74866C7.73684 7.559 7.89935 7.40525 8.09982 7.40525ZM10.6842 3.75H9.94737V4.5H10.6842V3.75ZM4.05263 3.75H3.31579V4.5H4.05263V3.75ZM4.42105 0.75H2.94737C2.37286 0.75 1.90072 1.19617 1.84716 1.76666L1.84211 1.875V3H5.52632V1.875C5.52632 1.32678 5.14106 0.870141 4.63108 0.770285L4.5275 0.75515L4.42105 0.75ZM11.0526 0.75H9.57895C9.00443 0.75 8.5323 1.19617 8.47874 1.76666L8.47368 1.875V3H12.1579V1.875C12.1579 1.32678 11.7726 0.870141 11.2627 0.770285L11.1591 0.75515L11.0526 0.75Z" fill="#3A4757"/>
</svg>