<svg width="15" height="15" viewBox="0 0 15 15" fill="none" xmlns="http://www.w3.org/2000/svg">
<path fill-rule="evenodd" clip-rule="evenodd" d="M14.5595 0L14.6294 0.00561495C14.8344 0.0388693 14.9911 0.215891 14.9911 0.430889L14.9955 7.57144C14.9955 7.57888 14.9993 7.58409 14.9993 7.59154C14.9993 7.59898 14.9955 7.60344 14.9955 7.61088L15 14.5594C15 14.6733 14.9554 14.7834 14.8743 14.8638C14.7931 14.9449 14.6838 14.9903 14.5699 14.9903L0.44273 15C0.203879 15 0.0111615 14.8073 0.0111615 14.5691L0.00669699 7.62428C0.0059529 7.61237 0 7.6027 0 7.59154L0.00669699 7.55879L0.00223245 0.439819C0.00223245 0.325958 0.0476214 0.216561 0.127982 0.135444C0.208344 0.0550706 0.318468 0.00893041 0.432313 0.00893041L3.23082 0.00669763H3.25835L14.5595 0ZM1.60425 8.02317H0.869091L0.872811 14.1382L2.13031 14.1375C2.16082 12.8158 2.05963 9.05909 1.60425 8.02317ZM10.508 9.45128C10.063 9.45128 9.8554 9.51677 9.61506 9.59119C9.35463 9.67379 9.05849 9.76682 8.49968 9.76682C7.94087 9.76682 7.64547 9.67379 7.38504 9.59119C7.14544 9.51677 6.93859 9.45128 6.49437 9.45128C6.05015 9.45128 5.8433 9.51677 5.6037 9.59119C5.34327 9.67379 5.04787 9.76682 4.48981 9.76682C3.93174 9.76682 3.63634 9.67379 3.37591 9.59119C3.19659 9.53537 3.03587 9.48477 2.7799 9.46244C2.98973 11.1533 2.9942 13.272 2.98452 14.1367L12.0155 14.13C12.0065 13.3099 12.0118 11.3847 12.1874 9.75268C11.8332 9.7244 11.604 9.65519 11.4009 9.59119C11.1605 9.51677 10.9529 9.45128 10.508 9.45128ZM14.1339 8.02317H13.395C12.9411 9.05686 12.8384 12.8016 12.8689 14.1293L14.1383 14.1285L14.1339 8.02317ZM8.36247 12.1968C8.56784 12.1968 8.73451 12.3635 8.73451 12.5689C8.73451 12.7743 8.56784 12.941 8.36247 12.941C8.20547 12.941 8.13924 12.9619 8.04623 12.9909L7.99284 13.0076C7.88142 13.0415 7.73892 13.0765 7.50677 13.0765C7.23518 13.0765 7.08636 13.0289 6.96657 12.9909C6.8743 12.9619 6.80733 12.941 6.65107 12.941C6.44571 12.941 6.27903 12.7743 6.27903 12.5689C6.27903 12.3635 6.44571 12.1968 6.65107 12.1968C6.92192 12.1968 7.07074 12.2437 7.19054 12.2817C7.28355 12.3107 7.34977 12.3323 7.50677 12.3323C7.66303 12.3323 7.73 12.3107 7.82226 12.2817C7.94206 12.2437 8.09088 12.1968 8.36247 12.1968ZM6.00923 10.8458C6.21459 10.8458 6.38127 11.0125 6.38127 11.2179C6.38127 11.4233 6.21459 11.59 6.00923 11.59C5.85222 11.59 5.786 11.6109 5.69299 11.6399C5.57319 11.6778 5.42438 11.7255 5.15353 11.7255C4.88194 11.7255 4.73312 11.6778 4.61332 11.6399C4.52106 11.6109 4.45409 11.59 4.29783 11.59C4.09246 11.59 3.92579 11.4233 3.92579 11.2179C3.92579 11.0125 4.09246 10.8458 4.29783 10.8458C4.56868 10.8458 4.7175 10.8927 4.83729 10.9307C4.9303 10.9597 4.99653 10.9813 5.15353 10.9813C5.30979 10.9813 5.37676 10.9597 5.46902 10.9307C5.58882 10.8927 5.73764 10.8458 6.00923 10.8458ZM10.7153 10.8458C10.9207 10.8458 11.0874 11.0125 11.0874 11.2179C11.0874 11.4233 10.9207 11.59 10.7153 11.59C10.5583 11.59 10.4921 11.6109 10.3991 11.6399C10.2793 11.6778 10.1305 11.7255 9.85964 11.7255C9.58805 11.7255 9.43923 11.6778 9.31944 11.6399C9.22717 11.6109 9.1602 11.59 9.00394 11.59C8.79858 11.59 8.6319 11.4233 8.6319 11.2179C8.6319 11.0125 8.79858 10.8458 9.00394 10.8458C9.27479 10.8458 9.42361 10.8927 9.5434 10.9307L9.59694 10.9471C9.66654 10.9675 9.73404 10.9813 9.85964 10.9813C10.0159 10.9813 10.0829 10.9597 10.1751 10.9307C10.2949 10.8927 10.4437 10.8458 10.7153 10.8458ZM7.50112 5.19448C6.10447 5.19448 4.96825 6.33087 4.96825 7.72698C4.96825 8.14298 5.07391 8.55229 5.26812 8.9162C5.30532 8.9043 5.34253 8.89388 5.38048 8.88197C5.6409 8.80011 5.93631 8.70709 6.49437 8.70709C7.05318 8.70709 7.34783 8.80011 7.60826 8.88197C7.84786 8.95713 8.05546 9.02262 8.49968 9.02262C8.94464 9.02262 9.15224 8.95713 9.39258 8.88197C9.51759 8.84253 9.65227 8.8016 9.8182 8.76885C9.82192 8.75546 9.82043 8.74355 9.82638 8.7309C9.96404 8.41238 10.0332 8.07452 10.0332 7.72698C10.0332 6.33087 8.89776 5.19448 7.50112 5.19448ZM11.1791 0.864011L3.82087 0.86922C4.22342 3.78126 3.34912 6.6665 2.39446 7.69275C2.50384 7.9614 2.5909 8.31638 2.66457 8.71453C3.10283 8.73313 3.36996 8.81053 3.59914 8.88197C3.83873 8.95713 4.04633 9.02262 4.48981 9.02262C4.3209 8.61481 4.22417 8.17424 4.22417 7.72698C4.22417 5.92082 5.69448 4.45029 7.50112 4.45029C9.30775 4.45029 10.7773 5.92082 10.7773 7.72698C10.7773 8.06559 10.7104 8.39229 10.6084 8.71155C11.098 8.72197 11.3808 8.80606 11.6241 8.88197C11.8161 8.94151 11.9932 8.99434 12.2826 9.01295C12.3637 8.48978 12.4686 8.02838 12.6048 7.69275C11.6501 6.66576 10.7751 3.77828 11.1791 0.864011ZM2.94657 0.869964L0.863882 0.871453L0.868347 7.1599H1.70544C2.38107 6.57869 3.40865 3.88619 2.94657 0.869964ZM14.1294 0.861778L12.0542 0.863266C11.5891 3.88172 12.6167 6.57794 13.2938 7.1599H14.1331L14.1294 0.861778Z" fill="#3A4757"/>
</svg>