<svg width="16" height="16" viewBox="0 0 16 16" fill="none" xmlns="http://www.w3.org/2000/svg">
<path fill-rule="evenodd" clip-rule="evenodd" d="M2.77792 1.22208C3.19634 0.803661 3.89644 0.82537 4.34164 1.27057C4.78683 1.71577 4.80854 2.41586 4.39012 2.83428L4.13759 3.08682L5.21239 4.16162L5.46493 3.90909C5.5889 3.78511 5.78147 3.77146 5.92083 3.86805L5.97036 3.90944L14.063 12.0021C14.1871 12.1262 14.2011 12.3188 14.1047 12.458L14.0633 12.5075L13.3057 13.2651L15.1866 15.146C15.335 15.2944 15.3423 15.5278 15.2028 15.6673C15.0788 15.7912 14.8807 15.7993 14.7339 15.6953L14.6816 15.6511L12.8007 13.7702L12.043 14.5278C11.9191 14.6518 11.7265 14.6654 11.5871 14.5688L11.5376 14.5275L3.44498 6.43482C3.32083 6.31067 3.30691 6.11808 3.4033 5.97886L3.44462 5.92939L3.69716 5.67685L2.62236 4.60205L2.36982 4.85459C1.97601 5.2484 1.33269 5.25233 0.887203 4.88027L0.806102 4.8061C0.360904 4.3609 0.339196 3.6608 0.757614 3.24239L2.77792 1.22208ZM12.736 11.6852L11.2208 13.2005L11.7582 13.7379L13.2734 12.2226L12.736 11.6852ZM5.74979 4.69903L4.23456 6.21425L5.84676 7.82646L6.60438 7.06884C6.74385 6.92937 6.97722 6.93661 7.12562 7.08501C7.25753 7.21692 7.2779 7.41596 7.18284 7.55652L7.14178 7.60624L6.38416 8.36386L7.45897 9.43866L8.21658 8.68105C8.35605 8.54157 8.58942 8.54881 8.73782 8.69721C8.86973 8.82912 8.89011 9.02816 8.79505 9.16872L8.75398 9.21845L7.99637 9.97606L9.07117 11.0509L9.82878 10.2933C9.96826 10.1538 10.2016 10.161 10.35 10.3094C10.4819 10.4413 10.5023 10.6404 10.4073 10.7809L10.3662 10.8307L9.60857 11.5883L10.6834 12.6631L12.1986 11.1478L5.74979 4.69903ZM3.63251 3.5919L3.12743 4.09697L4.20223 5.17178L4.70731 4.6667L3.63251 3.5919ZM3.31532 1.75948L1.29502 3.77979C1.15554 3.91926 1.16278 4.15263 1.31118 4.30103C1.45958 4.44942 1.69294 4.45666 1.83242 4.31719L3.85272 2.29688C3.99219 2.15741 3.98496 1.92404 3.83656 1.77564C3.68816 1.62724 3.45479 1.62001 3.31532 1.75948Z" fill="#3A4757"/>
</svg>