<svg width="15" height="15" viewBox="0 0 15 15" fill="none" xmlns="http://www.w3.org/2000/svg">
<path fill-rule="evenodd" clip-rule="evenodd" d="M2.32046 0.300205C2.73888 -0.118214 3.43898 -0.0965051 3.88418 0.348693C4.32938 0.79389 4.35108 1.49399 3.93266 1.91241L3.68013 2.16495L4.75493 3.23975L5.00747 2.98721C5.13144 2.86324 5.32401 2.84959 5.46337 2.94618L5.5129 2.98757L13.6055 11.0802C13.7297 11.2043 13.7436 11.3969 13.6472 11.5362L13.6059 11.5856L12.8483 12.3432L14.7292 14.2241C14.8776 14.3725 14.8848 14.6059 14.7453 14.7454C14.6214 14.8694 14.4232 14.8774 14.2765 14.7735L14.2241 14.7292L12.3432 12.8483L11.5856 13.6059C11.4616 13.7299 11.269 13.7436 11.1297 13.647L11.0801 13.6056L2.98752 5.51295C2.86337 5.3888 2.84945 5.19621 2.94584 5.05698L2.98716 5.00752L3.2397 4.75498L2.1649 3.68018L1.91236 3.93271C1.51855 4.32652 0.875231 4.33046 0.429744 3.95839L0.348643 3.88423C-0.0965545 3.43903 -0.118263 2.73893 0.300156 2.32051L2.32046 0.300205ZM12.2785 10.7634L10.7633 12.2786L11.3007 12.816L12.8159 11.3008L12.2785 10.7634ZM5.29233 3.77715L3.7771 5.29238L5.3893 6.90458L6.14692 6.14697C6.28639 6.0075 6.51976 6.01473 6.66816 6.16313C6.80007 6.29504 6.82044 6.49409 6.72539 6.63465L6.68432 6.68437L5.92671 7.44198L7.00151 8.51679L7.75912 7.75917C7.8986 7.6197 8.13196 7.62694 8.28036 7.77533C8.41227 7.90724 8.43265 8.10629 8.33759 8.24685L8.29652 8.29657L7.53891 9.05419L8.61371 10.129L9.37133 9.37138C9.5108 9.2319 9.74417 9.23914 9.89257 9.38754C10.0245 9.51945 10.0448 9.71849 9.94979 9.85905L9.90873 9.90878L9.15111 10.6664L10.2259 11.7412L11.7411 10.226L5.29233 3.77715ZM3.17505 2.67002L2.66997 3.1751L3.74478 4.2499L4.24985 3.74483L3.17505 2.67002ZM2.85786 0.837606L0.837557 2.85791C0.698084 2.99738 0.70532 3.23075 0.85372 3.37915C1.00212 3.52755 1.23549 3.53479 1.37496 3.39531L3.39526 1.37501C3.53474 1.23553 3.5275 1.00217 3.3791 0.853769C3.2307 0.70537 2.99734 0.698134 2.85786 0.837606Z" fill="#3A4757"/>
</svg>