<svg width="20" height="20" viewBox="0 0 20 20" fill="none" xmlns="http://www.w3.org/2000/svg">
<path d="M16.231 0C14.1493 0 12.4617 1.68754 12.4617 3.76923L12.4619 3.8009L5.5446 6.67423C5.01557 6.39123 4.41114 6.23077 3.76923 6.23077C1.68754 6.23077 0 7.91831 0 10C0 12.0817 1.68754 13.7692 3.76923 13.7692C4.41112 13.7692 5.01554 13.6088 5.54456 13.3258L12.4619 16.1991C12.4618 16.2097 12.4617 16.2202 12.4617 16.2308C12.4617 18.3125 14.1493 20 16.231 20C18.3127 20 20.0002 18.3125 20.0002 16.2308C20.0002 14.1491 18.3127 12.4615 16.231 12.4615C14.8703 12.4615 13.678 13.1825 13.0153 14.2634L7.08232 11.7989C7.3732 11.2643 7.53846 10.6514 7.53846 10C7.53846 9.34858 7.3732 8.73575 7.08233 8.20116L13.0153 5.73668C13.678 6.81746 14.8703 7.53846 16.231 7.53846C18.3127 7.53846 20.0002 5.85092 20.0002 3.76923C20.0002 1.68754 18.3127 0 16.231 0Z" fill="#3A4757"/>
</svg>