<svg width="20" height="20" viewBox="0 0 20 20" fill="none" xmlns="http://www.w3.org/2000/svg">
<path fill-rule="evenodd" clip-rule="evenodd" d="M12.4613 3.76923L12.4615 3.80107L5.5446 6.67423C5.01557 6.39123 4.41114 6.23077 3.76923 6.23077C1.68754 6.23077 0 7.91831 0 10C0 12.0817 1.68754 13.7692 3.76923 13.7692C4.41112 13.7692 5.01554 13.6088 5.54456 13.3258L12.4615 16.199C12.4614 16.2096 12.4613 16.2202 12.4613 16.2308C12.4613 18.3125 14.1489 20 16.2306 20C18.3123 20 19.9998 18.3125 19.9998 16.2308C19.9998 14.1491 18.3123 12.4615 16.2306 12.4615C14.8699 12.4615 13.6777 13.1825 13.015 14.2632L7.08232 11.7989C7.3732 11.2643 7.53846 10.6514 7.53846 10C7.53846 9.34858 7.3732 8.73575 7.08233 8.20116L13.015 5.73681C13.6777 6.81752 14.87 7.53846 16.2306 7.53846C18.3123 7.53846 19.9998 5.85092 19.9998 3.76923C19.9998 1.68754 18.3123 0 16.2306 0C14.1489 0 12.4613 1.68754 12.4613 3.76923ZM16.2306 2C15.2534 2 14.4613 2.79211 14.4613 3.76923C14.4613 3.89465 14.4744 4.01702 14.4992 4.13505C14.5118 4.17498 14.5217 4.21521 14.529 4.25554C14.7403 4.99619 15.4221 5.53846 16.2306 5.53846C17.2077 5.53846 17.9998 4.74635 17.9998 3.76923C17.9998 2.79211 17.2077 2 16.2306 2ZM4.8872 11.3713C5.28467 11.0469 5.53846 10.5531 5.53846 10C5.53846 9.44704 5.28478 8.95332 4.88745 8.62889C4.85405 8.60651 4.82192 8.58208 4.79127 8.55566C4.50263 8.35104 4.14997 8.23077 3.76923 8.23077C2.79211 8.23077 2 9.02288 2 10C2 10.9771 2.79211 11.7692 3.76923 11.7692C4.15008 11.7692 4.50282 11.6489 4.79151 11.4442C4.82201 11.4179 4.85398 11.3936 4.8872 11.3713ZM14.4992 15.8651C14.5118 15.8251 14.5217 15.7848 14.529 15.7444C14.7403 15.0038 15.4221 14.4615 16.2306 14.4615C17.2077 14.4615 17.9998 15.2537 17.9998 16.2308C17.9998 17.2079 17.2077 18 16.2306 18C15.2534 18 14.4613 17.2079 14.4613 16.2308C14.4613 16.1054 14.4744 15.9831 14.4992 15.8651Z" fill="#3A4757"/>
</svg>