<svg width="20" height="20" viewBox="0 0 20 20" fill="none" xmlns="http://www.w3.org/2000/svg">
<path fill-rule="evenodd" clip-rule="evenodd" d="M19 10.3917C18.45 10.3917 18 10.8417 18 11.3917V17.625C18 17.725 17.9583 17.825 17.8833 17.9C17.8083 17.975 17.7167 18.0167 17.6083 18.0167H2.38333C2.28333 18.0167 2.18333 17.975 2.10833 17.9C2.03333 17.825 1.99167 17.7333 1.99167 17.625V2.39167C1.99167 2.29167 2.03333 2.19167 2.10833 2.11667C2.18333 2.04167 2.275 2 2.38333 2H8.61667C9.16667 2 9.61667 1.55 9.61667 1C9.61667 0.45 9.16667 0 8.61667 0H2.38333C1.75 0 1.14167 0.25 0.7 0.7C0.25 1.15 0 1.75 0 2.38333V17.6167C0 18.25 0.25 18.8583 0.7 19.3C1.15 19.75 1.75 20 2.38333 20H17.6167C18.25 20 18.8583 19.75 19.3 19.3C19.75 18.85 20 18.25 20 17.6167V11.3833C20 10.8333 19.55 10.3833 19 10.3833V10.3917Z" fill="#3A4757"/>
<path fill-rule="evenodd" clip-rule="evenodd" d="M19.925 0.625C19.825 0.383333 19.625 0.183333 19.3833 0.0833333C19.2583 0.0333333 19.1333 0.00833333 19 0.00833333H14.15C13.6 0.00833333 13.15 0.458333 13.15 1.00833C13.15 1.55833 13.6 2.00833 14.15 2.00833H16.5833L9.29167 9.3C8.9 9.69167 8.9 10.325 9.29167 10.7167C9.68333 11.1083 10.3167 11.1083 10.7083 10.7167L18 3.425V5.85833C18 6.40833 18.45 6.85833 19 6.85833C19.55 6.85833 20 6.40833 20 5.85833V1.00833C20 0.875 19.975 0.75 19.925 0.625Z" fill="#3A4757"/>
</svg>