<svg width="19" height="20" viewBox="0 0 19 20" fill="none" xmlns="http://www.w3.org/2000/svg">
<path d="M8.14621 3.41399V10.6918C8.14621 11.2441 8.6031 11.6918 9.16671 11.6918C9.73031 11.6918 10.1872 11.2441 10.1872 10.6918V3.41346L11.2714 4.47585C11.6699 4.86637 12.316 4.86637 12.7146 4.47585C13.1131 4.08532 13.1131 3.45216 12.7146 3.06164L9.88858 0.292405C9.76176 0.168129 9.60986 0.0834009 9.44885 0.0382212C9.35924 0.0130139 9.26458 -0.000488281 9.16671 -0.000488281C8.87772 -0.000488281 8.61678 0.117224 8.43111 0.306387L5.61939 3.06164C5.22086 3.45216 5.22086 4.08532 5.61939 4.47585C6.01792 4.86637 6.66406 4.86637 7.06259 4.47585L8.14621 3.41399Z" fill="#3A4757"/>
<path d="M2.041 7.89968H3.46435C4.02795 7.89968 4.48485 7.45196 4.48485 6.89968C4.48485 6.34739 4.02795 5.89968 3.46435 5.89968H1.83511C1.38379 5.89968 0.930705 6.05528 0.579942 6.36176C0.225355 6.67157 0 7.11802 0 7.61143V18.2878C0 18.7812 0.225354 19.2276 0.579942 19.5374C0.930706 19.8439 1.38379 19.9995 1.83511 19.9995H16.4982C16.9495 19.9995 17.4026 19.8439 17.7534 19.5374C18.108 19.2276 18.3333 18.7812 18.3333 18.2878V7.61143C18.3333 7.11802 18.108 6.67157 17.7534 6.36176C17.4026 6.05528 16.9495 5.89968 16.4982 5.89968H14.869C14.3054 5.89968 13.8485 6.34739 13.8485 6.89968C13.8485 7.45196 14.3054 7.89968 14.869 7.89968H16.2923V17.9995H2.041V7.89968Z" fill="#3A4757"/>
</svg>