<svg width="19" height="20" viewBox="0 0 19 20" fill="none" xmlns="http://www.w3.org/2000/svg">
<path d="M8.14621 3.41448V10.6923C8.14621 11.2446 8.6031 11.6923 9.16671 11.6923C9.73031 11.6923 10.1872 11.2446 10.1872 10.6923V3.41394L11.2714 4.47634C11.6699 4.86686 12.316 4.86686 12.7146 4.47634C13.1131 4.08581 13.1131 3.45265 12.7146 3.06212L9.88858 0.292893C9.76176 0.168617 9.60986 0.0838892 9.44885 0.0387095C9.35924 0.0135022 9.26458 0 9.16671 0C8.87772 0 8.61678 0.117712 8.43111 0.306876L5.61939 3.06212C5.22086 3.45265 5.22086 4.08581 5.61939 4.47634C6.01792 4.86686 6.66406 4.86686 7.06259 4.47634L8.14621 3.41448Z" fill="#3A4757"/>
<path d="M2.041 7.90016H3.46435C4.02795 7.90016 4.48485 7.45245 4.48485 6.90016C4.48485 6.34788 4.02795 5.90017 3.46435 5.90017H1.83511C1.38379 5.90017 0.930705 6.05577 0.579942 6.36224C0.225355 6.67206 0 7.11851 0 7.61192V18.2882C0 18.7817 0.225354 19.2281 0.579942 19.5379C0.930706 19.8444 1.38379 20 1.83511 20H16.4982C16.9495 20 17.4026 19.8444 17.7534 19.5379C18.108 19.2281 18.3333 18.7817 18.3333 18.2882V7.61192C18.3333 7.11851 18.108 6.67206 17.7534 6.36224C17.4026 6.05577 16.9495 5.90017 16.4982 5.90017H14.869C14.3054 5.90017 13.8485 6.34788 13.8485 6.90016C13.8485 7.45245 14.3054 7.90016 14.869 7.90016H16.2923V18H2.041V7.90016Z" fill="#3A4757"/>
</svg>