<svg width="20" height="20" viewBox="0 0 20 20" fill="none" xmlns="http://www.w3.org/2000/svg">
<path fill-rule="evenodd" clip-rule="evenodd" d="M19 10.3912C18.45 10.3912 18 10.8412 18 11.3912V17.6245C18 17.7245 17.9583 17.8245 17.8833 17.8995C17.8083 17.9745 17.7167 18.0162 17.6083 18.0162H2.38333C2.28333 18.0162 2.18333 17.9745 2.10833 17.8995C2.03333 17.8245 1.99167 17.7328 1.99167 17.6245V2.39118C1.99167 2.29118 2.03333 2.19118 2.10833 2.11618C2.18333 2.04118 2.275 1.99951 2.38333 1.99951H8.61667C9.16667 1.99951 9.61667 1.54951 9.61667 0.999512C9.61667 0.449512 9.16667 -0.000488281 8.61667 -0.000488281H2.38333C1.75 -0.000488281 1.14167 0.249512 0.7 0.699512C0.25 1.14951 0 1.74951 0 2.38284V17.6162C0 18.2495 0.25 18.8578 0.7 19.2995C1.15 19.7495 1.75 19.9995 2.38333 19.9995H17.6167C18.25 19.9995 18.8583 19.7495 19.3 19.2995C19.75 18.8495 20 18.2495 20 17.6162V11.3828C20 10.8328 19.55 10.3828 19 10.3828V10.3912Z" fill="#3A4757"/>
<path fill-rule="evenodd" clip-rule="evenodd" d="M19.925 0.624512C19.825 0.382845 19.625 0.182845 19.3833 0.0828451C19.2583 0.0328451 19.1333 0.00784505 19 0.00784505H14.15C13.6 0.00784505 13.15 0.457845 13.15 1.00785C13.15 1.55785 13.6 2.00785 14.15 2.00785H16.5833L9.29167 9.29951C8.9 9.69118 8.9 10.3245 9.29167 10.7162C9.68333 11.1078 10.3167 11.1078 10.7083 10.7162L18 3.42451V5.85785C18 6.40785 18.45 6.85785 19 6.85785C19.55 6.85785 20 6.40785 20 5.85785V1.00785C20 0.874512 19.975 0.749512 19.925 0.624512Z" fill="#3A4757"/>
</svg>