<svg width="14" height="17" viewBox="0 0 14 17" fill="none" xmlns="http://www.w3.org/2000/svg">
<path fill-rule="evenodd" clip-rule="evenodd" d="M4.95822 10.054L9.90856 11.2196C12.6675 11.8645 13.9997 12.8825 13.9997 14.3278L13.9992 15.0574L14 15.0682V16.6136C14 16.8033 13.8624 16.9611 13.681 16.9938L13.6111 17H0.388889C0.197976 17 0.0391935 16.8633 0.00626553 16.6831L0 16.6136V11.3284C0.000995657 11.1535 0.120371 11.0008 0.29166 10.9554C0.464761 10.9145 0.645116 10.9862 0.740974 11.1341C1.09627 11.7472 1.75889 12.1243 2.47517 12.121C3.49123 12.1147 4.34797 11.3728 4.48526 10.3803C4.49698 10.2741 4.55438 10.1779 4.64291 10.1161C4.73504 10.0539 4.84892 10.0315 4.95822 10.054ZM13.2222 15.4545H0.777778V16.2273H13.2222V15.4545ZM5.17105 10.9087C4.91042 11.7793 4.23419 12.4692 3.36048 12.7557C2.48676 13.0423 1.52608 12.8894 0.788271 12.3463V14.6775H13.2193V14.3433C13.2193 13.3099 12.0527 12.5173 9.73514 11.9733L8.078 11.5863L7.69222 12.5763C7.63879 12.7266 7.49478 12.8261 7.33444 12.8236C7.28807 12.831 7.24082 12.831 7.19444 12.8236C7.09705 12.7873 7.01837 12.7137 6.97598 12.6193C6.9336 12.5249 6.93104 12.4176 6.96889 12.3213L7.31967 11.4093L6.65856 11.2555L6.37778 11.9582C6.30846 12.0946 6.16599 12.1789 6.01222 12.1745C5.96585 12.1819 5.91859 12.1819 5.87222 12.1745C5.77624 12.1367 5.69935 12.0625 5.6585 11.9683C5.61764 11.874 5.61619 11.7675 5.65444 11.6723L5.89244 11.077L5.17105 10.9087ZM12.1865 0.00938899C12.3219 0.0400436 12.4305 0.142203 12.4707 0.276709L13.163 2.53545C13.3035 3.02285 13.1896 3.54589 12.8672 3.92706L12.5553 8.90666C12.5395 9.11083 12.3729 9.26934 12.1707 9.27273H11.1476C10.9369 9.26858 10.7671 9.09663 10.763 8.88329L10.7629 5.90595L7.59369 8.86771C7.34236 9.09563 7.02508 9.23266 6.69139 9.25999L6.54752 9.26494L1.16281 9.17147C0.955114 9.16326 0.789795 8.99245 0.785878 8.78204C0.710961 7.93476 1.16102 7.12877 1.91667 6.75696L4.2244 5.76C4.31804 5.72105 4.42307 5.72105 4.51671 5.76C4.90068 5.89385 5.29412 5.998 5.69366 6.07155C6.01812 6.15534 6.36262 6.08039 6.62444 5.86904L11.8168 0.128722C11.9098 0.0243387 12.051 -0.0212656 12.1865 0.00938899ZM12.0524 4.7005L11.5321 5.18732L11.5322 8.49385H11.8092L12.0524 4.7005ZM11.9322 1.13347L7.16292 6.41425C6.72845 6.80879 6.13203 6.96556 5.56289 6.83485C5.16653 6.76517 4.77574 6.66625 4.39363 6.53887L2.20129 7.47352C1.85886 7.66206 1.62907 8.00816 1.58589 8.40039L6.53214 8.48606C6.72425 8.49395 6.91096 8.42059 7.04753 8.28355L10.8778 4.7088C10.8805 4.70608 10.8833 4.70338 10.8861 4.70072L12.2399 3.43895C12.4196 3.25801 12.49 2.99361 12.4245 2.74575L11.9322 1.13347Z" fill="#3A4757"/>
</svg>