<svg width="20" height="12" viewBox="0 0 20 12" fill="none" xmlns="http://www.w3.org/2000/svg">
<path d="M18.54 5.42786L18.21 5.2378C18.09 5.18778 17.99 5.15777 17.84 5.15777H17.7C14.54 5.15777 9.93 3.12711 8.82 0.516263C8.63 0.0861226 8.13 -0.113942 7.7 0.0661161C7.27 0.236171 7.07 0.736334 7.25 1.15647C7.3 1.27651 7.35 1.37654 7.41 1.48658C5.78 2.44689 3.9 2.35686 2.75 1.97674C2.34 1.83669 1.9 2.02675 1.71 2.40688C1.71 2.42688 0.7 4.43754 0.67 7.50854C0.67 7.59857 0.56 7.82864 0.48 7.9987L0.46 8.04871C0.25 8.47885 0 9.03904 0 9.69925C0 11.97 2.51 11.97 3.46 11.97C5.72 11.97 8.08 11.4698 8.62 11.3398C9.18 11.4298 12.73 11.97 15.23 11.97V12C17.95 12 20 9.74927 20 8.28879C20 7.34849 19.61 6.10808 18.54 5.42786ZM15.23 10.2894H15.03C12.69 10.2594 9.4 9.76927 8.73 9.65924C8.61 9.62923 8.49 9.63923 8.38 9.65924C8.35 9.65924 5.82 10.2794 3.46 10.2794C1.69 10.2794 1.69 9.94933 1.69 9.67924C1.69 9.37915 1.83 9.08905 2.01 8.72894V8.70893C2.98 9.17908 4.01 9.2291 4.83 8.83897C6.41 9.40916 9.56 9.77928 11.86 9.40916C12.74 9.71926 14.29 10.0294 15.82 10.0294C16.07 10.0294 16.31 10.0294 16.55 9.99935C16.18 10.1594 15.74 10.2794 15.22 10.2794L15.23 10.2894ZM11.79 7.75862C9.52 8.18876 6.19 7.7086 5.14 7.18843C4.86 7.03839 4.5 7.0684 4.25 7.26846C3.65 7.7086 2.77 7.29847 2.39 7.01838C2.47 5.56791 2.78 4.42754 3 3.78733C4.82 4.16745 6.82 3.82734 8.38 2.87703C8.44 2.93705 8.49 2.99707 8.55 3.04709L7.75 3.82734C7.58 3.97739 7.49 4.19746 7.49 4.41753C7.49 4.6376 7.58 4.84767 7.74 5.00772C8.06 5.32783 8.62 5.31783 8.94 5.00772L9.82 4.14744C9.93 4.22747 10.05 4.29749 10.15 4.37752L9.6 5.06774C9.46 5.2378 9.39 5.46787 9.42 5.68795C9.45 5.90802 9.56 6.11809 9.73 6.24813C10.08 6.51822 10.64 6.4582 10.93 6.10808L11.63 5.2478C11.72 5.28782 11.81 5.33783 11.89 5.37785L11.61 6.12809C11.53 6.32815 11.54 6.55823 11.63 6.7683C11.73 6.96836 11.89 7.12841 12.11 7.19844C12.53 7.34849 13.05 7.11841 13.21 6.70828L13.47 6.01805C14.9 6.51822 16.37 6.79831 17.66 6.80831C18.08 7.0884 18.24 7.58856 18.29 7.87866C16.9 8.69893 13.63 8.3088 12.33 7.76862C12.1366 7.68068 11.9834 7.70333 11.79 7.75862Z" fill="#3A4757"/>
</svg>