<svg width="20" height="20" viewBox="0 0 20 20" fill="none" xmlns="http://www.w3.org/2000/svg">
<path d="M5.16717 16.6129C4.27558 16.6129 3.46505 17.3387 3.46505 18.3065C3.46505 19.2742 4.19453 20 5.16717 20C6.13982 20 6.8693 19.2742 6.8693 18.3065C6.8693 17.3387 6.05876 16.6129 5.16717 16.6129Z" fill="#3A4757"/>
<path d="M12.1378 16.6129C11.2462 16.6129 10.4357 17.3387 10.4357 18.3065C10.4357 19.2742 11.1651 20 12.1378 20C13.0294 20 13.8399 19.2742 13.8399 18.3065C13.8399 17.3387 13.0294 16.6129 12.1378 16.6129Z" fill="#3A4757"/>
<path d="M4.92401 8.14516C5.00507 8.3871 5.16717 8.62903 5.32928 8.70968C5.49139 8.79032 5.65349 8.87097 5.8156 8.87097C5.89666 8.87097 5.97771 8.87097 6.05876 8.87097C6.54509 8.70968 6.8693 8.22581 6.78825 7.66129L6.46403 6.29032C6.30192 5.72581 5.8156 5.40323 5.24823 5.56452C4.7619 5.72581 4.43769 6.20968 4.5998 6.77419L4.92401 8.14516Z" fill="#3A4757"/>
<path d="M9.78723 8.79032C9.86829 8.79032 9.94934 8.79032 10.0304 8.79032C10.1925 8.79032 10.3546 8.70968 10.5167 8.62903C10.7599 8.46774 10.922 8.30645 10.922 8.06452L11.2462 6.69355C11.3273 6.45161 11.2462 6.20968 11.1651 5.96774C11.0841 5.72581 10.8409 5.56452 10.5978 5.56452C10.1114 5.40323 9.54407 5.72581 9.38196 6.29032L9.05775 7.66129C8.9767 8.14516 9.30091 8.70968 9.78723 8.79032Z" fill="#3A4757"/>
<path d="M19.0274 0H16.8389C16.4336 0 16.1094 0.16129 15.7852 0.403226C15.461 0.645161 15.2989 0.967742 15.2178 1.29032L14.8126 2.74194H1.68186C1.4387 2.74194 1.19554 2.82258 0.952381 2.90323C0.790274 3.06452 0.547112 3.14516 0.385005 3.3871C0.222898 3.54839 0.141844 3.79032 0.0607903 4.03226C-0.0202634 4.27419 -0.0202634 4.51613 0.0607903 4.75806L1.19554 10.2419C1.2766 10.6452 1.4387 10.9677 1.76292 11.2097C2.08713 11.4516 2.41135 11.6129 2.81662 11.6129H13.0294L12.7052 13.1452H4.43769C3.87031 13.1452 3.46505 13.5484 3.46505 14.1129C3.46505 14.6774 3.87031 15.0806 4.43769 15.0806H12.8673C13.2725 15.0806 13.5968 14.9194 13.921 14.6774C14.2452 14.4355 14.4073 14.1129 14.4883 13.7097L15.0557 10.8065L16.4336 3.95161L17.001 1.93548H19.0274C19.5947 1.93548 20 1.53226 20 0.967742C20 0.403226 19.5947 0 19.0274 0ZM13.3536 9.67742H3.05978L2.00608 4.67742H14.4073L13.3536 9.67742Z" fill="#3A4757"/>
</svg>