<svg width="20" height="20" viewBox="0 0 20 20" fill="none" xmlns="http://www.w3.org/2000/svg">
<path d="M19.2523 0H17.0093C16.6771 0 16.3448 0.0833334 16.0955 0.333333C15.8463 0.5 15.6802 0.833333 15.5971 1.08333L15.1817 2.91667H1.47456C1.30841 2.91667 1.05919 2.91667 0.893043 3C0.726895 3.08333 0.477674 3.25 0.3946 3.41667C0.228453 3.58333 0.145379 3.75 0.0623053 4C-0.0207684 4.16667 -0.0207684 4.41667 0.0623053 4.66667L1.22534 10.3333C1.30841 10.6667 1.47456 11 1.72378 11.1667C1.973 11.3333 2.3053 11.5 2.63759 11.5H13.4372L13.0218 13.6667H4.29907C3.8837 13.6667 3.5514 14 3.5514 14.4167C3.5514 14.8333 3.8837 15.1667 4.29907 15.1667H12.9387C13.271 15.1667 13.6033 15.0833 13.8525 14.8333C14.1018 14.6667 14.2679 14.3333 14.351 14L14.9325 11L16.3448 3.83333L17.0093 1.5H19.2523C19.6677 1.5 20 1.16667 20 0.75C20 0.333333 19.6677 0 19.2523 0ZM5.96054 8.58333C5.87747 8.58333 5.87747 8.58333 5.79439 8.58333C5.4621 8.58333 5.21288 8.33333 5.1298 8.08333L4.71443 6.66667C4.63136 6.25 4.88058 5.83333 5.21288 5.75C5.62825 5.66667 5.96054 5.91667 6.04361 6.25L6.37591 7.66667C6.54206 8.08333 6.29284 8.5 5.96054 8.58333ZM11.028 6.66667L10.6957 8.08333C10.6127 8.41667 10.3634 8.58333 10.0312 8.58333C9.94808 8.58333 9.94808 8.58333 9.86501 8.58333C9.44964 8.5 9.28349 8.08333 9.36656 7.75L9.69886 6.33333C9.78193 5.91667 10.1973 5.75 10.5296 5.83333C10.945 5.83333 11.1942 6.25 11.028 6.66667Z" fill="#3A4757"/>
<path d="M5.04673 17.1667C4.29907 17.1667 3.63448 17.8333 3.63448 18.5833C3.63448 19.3333 4.29907 20 5.04673 20C5.79439 20 6.45898 19.3333 6.45898 18.5833C6.45898 17.8333 5.79439 17.1667 5.04673 17.1667Z" fill="#3A4757"/>
<path d="M12.1911 17.1667C11.4434 17.1667 10.7788 17.8333 10.7788 18.5833C10.7788 19.3333 11.4434 20 12.1911 20C12.9387 20 13.6033 19.3333 13.6033 18.5833C13.6033 17.8333 12.9387 17.1667 12.1911 17.1667Z" fill="#3A4757"/>
</svg>