<svg width="13" height="15" viewBox="0 0 13 15" fill="none" xmlns="http://www.w3.org/2000/svg">
<path d="M3.74328 8.28358H3.02765V0.559702C3.02765 0.335821 2.86251 0.16791 2.64231 0.16791C2.36707 0.16791 2.20193 0.335821 2.20193 0.559702V8.28358H1.43125C0.660579 8.28358 0 8.95522 0 9.73881V14.6082C0 14.8321 0.165145 15 0.385338 15H4.73415C4.95434 15 5.11948 14.8321 5.11948 14.6082V9.73881C5.17453 8.95522 4.51395 8.28358 3.74328 8.28358ZM4.40386 14.1045V14.2164H0.770675V9.79478C0.770675 9.40299 1.04592 9.12313 1.43125 9.12313H2.14688V11.0821C2.14688 11.306 2.31203 11.4739 2.53222 11.4739C2.75241 11.4739 2.91756 11.306 2.91756 11.0821V9.12313H3.63318C4.01852 9.12313 4.29376 9.40299 4.29376 9.79478V14.1045H4.40386Z" fill="#3A4757"/>
<path d="M12.6611 0C12.4409 0 12.2758 0.16791 12.2758 0.391791V1.06343C12.2758 1.45522 11.9455 1.79104 11.5601 1.79104H11.3399V0.391791C11.3399 0.16791 11.1748 0 10.9546 0C10.7344 0 10.5693 0.16791 10.5693 0.391791V1.79104H9.52334V0.391791C9.52334 0.279851 9.46829 0.16791 9.41324 0.11194C9.3582 0.0559702 9.2481 0 9.138 0C8.91781 0 8.75267 0.16791 8.75267 0.391791V1.79104H7.81685V0.391791C7.81685 0.16791 7.6517 0 7.43151 0C7.21132 0 7.04617 0.16791 7.04617 0.391791V1.79104H6.77093C6.38559 1.79104 6.0553 1.45522 6.0553 1.06343V0.391791C6.0553 0.223881 5.83511 0 5.66997 0C5.50482 0 5.28463 0.16791 5.28463 0.391791V1.06343C5.28463 1.90299 5.94521 2.57463 6.77093 2.57463H8.75267V14.6082C8.75267 14.8321 8.91781 15 9.138 15C9.3582 15 9.52334 14.8321 9.52334 14.6082V2.57463H11.5051C12.3308 2.57463 12.9914 1.90299 12.9914 1.06343V0.391791C13.0464 0.223881 12.8262 0 12.6611 0Z" fill="#3A4757"/>
</svg>