<svg width="10" height="15" viewBox="0 0 10 15" fill="none" xmlns="http://www.w3.org/2000/svg">
<path fill-rule="evenodd" clip-rule="evenodd" d="M3.9203 0.000470765C4.98158 -0.0160287 5.99645 0.401709 6.76019 1.17043C7.51877 1.93241 7.93782 2.94563 7.94298 4.02334C9.09263 4.19509 9.98893 5.19556 9.99999 6.41127C10.0007 6.51177 9.96242 6.60776 9.89319 6.67901C9.82396 6.74951 9.72969 6.79001 9.63174 6.79001H5.56266C5.46471 6.79001 5.37044 6.74951 5.30121 6.67901C5.23198 6.60776 5.19369 6.51177 5.19442 6.41127C5.20547 5.21056 6.07894 4.21759 7.20723 4.02709C7.20281 3.15037 6.86182 2.32615 6.24318 1.70367C5.62011 1.07819 4.78125 0.728698 3.92988 0.750447C2.16895 0.774446 0.736484 2.2744 0.736484 4.09609V8.7092C0.884517 8.6432 1.04802 8.6057 1.22035 8.6057C1.8935 8.6057 2.44144 9.16368 2.44144 9.84916C2.44144 10.5346 1.8935 11.0919 1.22035 11.0919C1.04802 11.0919 0.884517 11.0551 0.736484 10.9899V14.625C0.736484 14.8328 0.571512 15 0.368242 15C0.164236 15 0 14.8328 0 14.625V4.09609C0 1.86716 1.75872 0.0289699 3.9203 0.000470765ZM7.59698 9.63174C7.80025 9.63174 7.96522 9.79974 7.96522 10.0067V10.468C7.96522 10.6757 7.80025 10.843 7.59698 10.843C7.39371 10.843 7.22874 10.6757 7.22874 10.468V10.0067C7.22874 9.79974 7.39371 9.63174 7.59698 9.63174ZM1.22035 9.35568C0.954483 9.35568 0.738693 9.57467 0.736484 9.84541V9.85291C0.738693 10.1229 0.954483 10.3419 1.22035 10.3419C1.4877 10.3419 1.70496 10.1207 1.70496 9.84916C1.70496 9.57692 1.4877 9.35568 1.22035 9.35568ZM8.23028 8.34928C8.43355 8.34928 8.59852 8.51728 8.59852 8.72427V9.18476C8.59852 9.3925 8.43355 9.55974 8.23028 9.55974C8.02701 9.55974 7.86204 9.3925 7.86204 9.18476V8.72427C7.86204 8.51728 8.02701 8.34928 8.23028 8.34928ZM6.96405 8.34928C7.16732 8.34928 7.33229 8.51728 7.33229 8.72427V9.18476C7.33229 9.3925 7.16732 9.55974 6.96405 9.55974C6.76078 9.55974 6.5958 9.3925 6.5958 9.18476V8.72427C6.5958 8.51728 6.76078 8.34928 6.96405 8.34928ZM7.59698 7.0663C7.80025 7.0663 7.96522 7.23354 7.96522 7.44129V7.90252C7.96522 8.10952 7.80025 8.27751 7.59698 8.27751C7.39371 8.27751 7.22874 8.10952 7.22874 7.90252V7.44129C7.22874 7.23354 7.39371 7.0663 7.59698 7.0663ZM6.33082 7.06615C6.53409 7.06615 6.69906 7.23414 6.69906 7.44114V7.90237C6.69906 8.11012 6.53409 8.27736 6.33082 8.27736C6.12755 8.27736 5.96257 8.11012 5.96257 7.90237V7.44114C5.96257 7.23414 6.12755 7.06615 6.33082 7.06615ZM8.86314 7.06615C9.06641 7.06615 9.23139 7.23414 9.23139 7.44114V7.90237C9.23139 8.11012 9.06641 8.27736 8.86314 8.27736C8.65987 8.27736 8.4949 8.11012 8.4949 7.90237V7.44114C8.4949 7.23414 8.65987 7.06615 8.86314 7.06615ZM7.59683 4.73732C6.81469 4.73732 6.15259 5.29455 5.97657 6.04003H9.21783C9.04181 5.29455 8.37971 4.73732 7.59683 4.73732Z" fill="#3A4757"/>
</svg>