<svg width="12" height="15" viewBox="0 0 12 15" fill="none" xmlns="http://www.w3.org/2000/svg">
<path fill-rule="evenodd" clip-rule="evenodd" d="M11.6371 0C11.8375 0 12 0.16446 12 0.367332V14.6327C12 14.8355 11.8375 15 11.6371 15H0.362889C0.162471 15 0 14.8355 0 14.6327V3.35686C0 3.26916 0.0309983 3.18435 0.0873907 3.11777L2.61944 0.128243C2.68839 0.0468449 2.78902 0 2.89494 0H11.6371ZM11.2742 0.734665H3.06166L0.725778 3.49144V14.2653H11.2742V0.734665ZM10.1443 10.5C10.3407 10.5 10.5 10.6375 10.5 10.8072V13.1928C10.5 13.3625 10.3407 13.5 10.1443 13.5H1.85572C1.65926 13.5 1.5 13.3625 1.5 13.1928V10.8072C1.5 10.6375 1.65926 10.5 1.85572 10.5H10.1443ZM9.78856 11.1137H2.21143V12.8851H9.78856V11.1137ZM4.875 1.5C5.05909 1.5 5.21221 1.62478 5.24396 1.78933L5.25 1.85274V4.14726C5.25 4.34207 5.08211 4.5 4.875 4.5C4.69091 4.5 4.53779 4.37522 4.50604 4.21067L4.5 4.14726V1.85274C4.5 1.65793 4.66789 1.5 4.875 1.5ZM6.375 1.5C6.55909 1.5 6.71221 1.62478 6.74396 1.78933L6.75 1.85274V4.14726C6.75 4.34207 6.58211 4.5 6.375 4.5C6.19091 4.5 6.03779 4.37522 6.00604 4.21067L6 4.14726V1.85274C6 1.65793 6.16789 1.5 6.375 1.5ZM7.875 1.5C8.0591 1.5 8.21221 1.62478 8.24396 1.78933L8.25 1.85274V4.14726C8.25 4.34207 8.08211 4.5 7.875 4.5C7.69091 4.5 7.53779 4.37522 7.50604 4.21067L7.5 4.14726V1.85274C7.5 1.65793 7.66789 1.5 7.875 1.5ZM9.375 1.5C9.5591 1.5 9.71221 1.62478 9.74396 1.78933L9.75 1.85274V4.14726C9.75 4.34207 9.58211 4.5 9.375 4.5C9.1909 4.5 9.03779 4.37522 9.00604 4.21067L9 4.14726V1.85274C9 1.65793 9.16789 1.5 9.375 1.5Z" fill="#3A4757"/>
</svg>