<svg width="15" height="11" viewBox="0 0 15 11" fill="none" xmlns="http://www.w3.org/2000/svg">
<path d="M1.22699 4.65C1.18641 4.4495 1.00536 4.30553 0.820642 4.3506C0.45725 4.43611 0.159704 4.73529 0.0435135 5.13224C-0.0606669 5.49831 0.0136999 5.92148 0.359485 6.28969C0.635641 6.59297 0.736316 7.10657 0.732603 7.57958L0.732145 7.60802L0.736427 7.67201C0.761856 7.85919 0.897955 8 1.07532 8H1.08637L1.14513 7.99391L1.20668 7.97359C1.34333 7.91509 1.42956 7.78152 1.42956 7.62313L1.43003 7.51179L1.42524 7.35912C1.39517 6.74993 1.2315 6.16215 0.841625 5.7421L0.791454 5.68192C0.701674 5.56312 0.674833 5.45395 0.703432 5.35974C0.7436 5.22741 0.83817 5.12818 0.958321 5.09519L1.01035 5.07762C1.16143 5.01186 1.26393 4.83256 1.22699 4.65Z" fill="#3A4757"/>
<path d="M2.21546 0.113669C2.07745 -0.0378897 1.85754 -0.0378897 1.71952 0.113669C1.39126 0.474137 1.07934 1.04829 1.08846 1.72914C1.10083 2.23236 1.29984 2.68624 1.67893 3.07651C2.12865 3.52549 2.34327 4.04341 2.29373 4.52216C2.26505 4.84738 2.10456 5.12825 1.84604 5.30699C1.68562 5.41709 1.62978 5.65554 1.73078 5.83299C1.83109 6.00923 2.03342 6.06805 2.20315 5.9645C2.65143 5.66384 2.94099 5.16521 2.98948 4.60613C3.06131 3.87005 2.7634 3.12717 2.15574 2.51122C1.92558 2.30209 1.7952 2.0185 1.7858 1.70882C1.78164 1.46592 1.8591 1.21379 1.99241 0.973771L2.04195 0.889463C2.07561 0.835208 2.11028 0.785117 2.14417 0.740761L2.16761 0.70946L2.16777 0.701146C2.16599 0.694059 2.15484 0.688454 2.1056 0.708246L2.21546 0.658274L2.25636 0.604671C2.35178 0.454162 2.33815 0.248388 2.21546 0.113669Z" fill="#3A4757"/>
<path fill-rule="evenodd" clip-rule="evenodd" d="M14.6674 4.52766L14.6311 4.44573C14.4435 4.07708 14.0084 3.90285 13.6165 4.055L1.5238 8.68417L1.44182 8.72113C1.07638 8.91057 0.903731 9.34961 1.05449 9.7452L1.33258 10.4723L1.3689 10.5543C1.55654 10.9229 1.99157 11.0972 2.38355 10.945L14.4762 6.31583L14.5576 6.27911C14.9236 6.08943 15.0963 5.65039 14.9455 5.2548L14.6674 4.52766ZM1.80086 9.44064L2.15421 9.30093L2.44423 10.0628L2.09087 10.2024L2.07834 10.2014L2.06913 10.1918L1.79052 9.46321L1.79133 9.45001L1.80086 9.44064ZM2.90342 9.019L10.1652 6.23845L10.4552 7.00031L3.19272 9.78157L2.90342 9.019ZM13.9077 4.79814L13.917 4.79731L13.9256 4.8015L13.9315 4.80985L14.2095 5.53679L14.2087 5.54999C14.2068 5.55418 14.2034 5.55774 14.1992 5.55936L11.2044 6.70762L10.9151 5.94577L13.9077 4.79814Z" fill="#3A4757"/>
</svg>