<svg width="14" height="15" viewBox="0 0 14 15" fill="none" xmlns="http://www.w3.org/2000/svg">
<path fill-rule="evenodd" clip-rule="evenodd" d="M8.71304 8.4629L7.01046 9.42576L5.30714 8.4629V6.53717L7.01046 5.57431L8.71304 6.53717V8.4629ZM9.44251 6.5186L10.5535 5.89074L13.5414 6.67432C13.5728 6.68289 13.6049 6.68646 13.6362 6.68646C13.7967 6.68646 13.9441 6.58146 13.9878 6.42217C14.0396 6.23146 13.9244 6.03574 13.7296 5.98431L11.4471 5.38574L13.4925 4.22931C13.6669 4.13073 13.7267 3.91216 13.626 3.74145C13.5246 3.57002 13.3014 3.51145 13.1278 3.61073L11.0525 4.78359L11.6637 2.54858C11.7163 2.35858 11.6003 2.16215 11.4062 2.11144C11.2122 2.06072 11.0116 2.17287 10.9598 2.36358L10.1596 5.2886L9.06173 5.90931L7.37227 4.95431V3.71359L9.55923 1.57215C9.70147 1.43286 9.70147 1.20643 9.55923 1.06715C9.41625 0.927862 9.18574 0.927862 9.04349 1.06715L7.37227 2.70358V0.357145C7.37227 0.159286 7.20887 0 7.00754 0C6.8062 0 6.6428 0.159286 6.6428 0.357145V2.67001L4.97158 1.03358C4.82934 0.893576 4.5981 0.893576 4.45585 1.03358C4.3136 1.17286 4.3136 1.39858 4.45585 1.53858L6.6428 3.68002V4.95717L4.94897 5.91503L3.84091 5.2886L3.04068 2.36358C2.98815 2.17287 2.78828 2.06001 2.59351 2.11144C2.39947 2.16215 2.28349 2.35858 2.33601 2.54858L2.9473 4.78359L0.87269 3.61073C0.698346 3.51145 0.475128 3.57002 0.374461 3.74145C0.273794 3.91216 0.333611 4.13073 0.507954 4.22931L2.55339 5.38574L0.270147 5.98431C0.0761077 6.03574 -0.0398782 6.23146 0.0126437 6.42217C0.0556825 6.58146 0.203036 6.68646 0.364249 6.68646C0.395616 6.68646 0.427712 6.68289 0.45908 6.67432L3.44699 5.89074L4.57767 6.53003V8.44433L3.46085 9.07576L0.474399 8.29218C0.280359 8.24147 0.079755 8.35433 0.0272331 8.54433C-0.0245593 8.73504 0.090697 8.93076 0.285466 8.98219L2.56798 9.58076L0.492635 10.7536C0.318292 10.8522 0.258475 11.0708 0.359142 11.2415C0.426983 11.3565 0.549534 11.4201 0.675732 11.4201C0.737737 11.4201 0.800472 11.4051 0.857371 11.3722L2.90281 10.2165L2.29078 12.4508C2.23899 12.6415 2.35424 12.8379 2.54901 12.8886C2.58038 12.8972 2.61248 12.9008 2.64384 12.9008C2.80433 12.9008 2.95168 12.7958 2.99545 12.6358L3.79568 9.71147L4.92636 9.07219L6.6428 10.0429V11.3201L4.45585 13.4615C4.3136 13.6008 4.3136 13.8272 4.45585 13.9665C4.52734 14.0365 4.62071 14.0715 4.71408 14.0715C4.80745 14.0715 4.9001 14.0365 4.97158 13.9665L6.6428 12.3308V14.6429C6.6428 14.8401 6.8062 15.0001 7.00754 15.0001C7.20887 15.0001 7.37227 14.8401 7.37227 14.6429V12.2972L9.04349 13.9329C9.18574 14.0729 9.41625 14.0729 9.55923 13.9329C9.70147 13.7936 9.70147 13.5672 9.55923 13.4279L7.37227 11.2872V10.0458L9.08361 9.0779L10.2041 9.71147L11.0043 12.6358C11.0481 12.7958 11.1954 12.9008 11.3566 12.9008C11.388 12.9008 11.4194 12.8972 11.4507 12.8886C11.6455 12.8379 11.7608 12.6415 11.709 12.4508L11.0977 10.2165L13.1424 11.3722C13.2 11.4051 13.2627 11.4201 13.3248 11.4201C13.451 11.4201 13.5735 11.3565 13.6406 11.2415C13.742 11.0708 13.6822 10.8522 13.5071 10.7536L11.4325 9.58076L13.715 8.98219C13.9098 8.93076 14.025 8.73504 13.9725 8.54433C13.9207 8.35361 13.7209 8.24075 13.5261 8.29218L10.5389 9.07576L9.44251 8.45575V6.5186Z" fill="#3A4757"/>
</svg>