<svg width="14" height="15" viewBox="0 0 14 15" fill="none" xmlns="http://www.w3.org/2000/svg">
<path d="M3.13649 0.375C3.13649 0.167893 2.9686 0 2.76149 0C2.55438 0 2.38649 0.167893 2.38649 0.375L2.38648 13.5321L0.640165 11.7858C0.493719 11.6393 0.256282 11.6393 0.109835 11.7858C-0.0366117 11.9322 -0.0366117 12.1697 0.109835 12.3161L2.49632 14.7026C2.64277 14.849 2.8802 14.849 3.02665 14.7026L5.41314 12.3161C5.55958 12.1697 5.55958 11.9322 5.41314 11.7858C5.26669 11.6393 5.02925 11.6393 4.88281 11.7858L3.13649 13.5321L3.13649 0.375Z" fill="#3A4757"/>
<path fill-rule="evenodd" clip-rule="evenodd" d="M13.3599 2.63333C13.3599 2.84044 13.192 3.00833 12.9849 3.00833H5.4093C5.20219 3.00833 5.0343 2.84044 5.0343 2.63333V0.383331C5.0343 0.176224 5.20219 0.0083313 5.4093 0.0083313H12.9849C13.192 0.0083313 13.3599 0.176224 13.3599 0.383331V2.63333ZM5.7843 2.25833H12.6099V0.758331H5.7843V2.25833Z" fill="#3A4757"/>
<path fill-rule="evenodd" clip-rule="evenodd" d="M11.8599 6.38333C11.8599 6.59044 11.692 6.75833 11.4849 6.75833H5.4093C5.20219 6.75833 5.0343 6.59044 5.0343 6.38333V4.13333C5.0343 3.92622 5.20219 3.75833 5.4093 3.75833H11.4849C11.692 3.75833 11.8599 3.92622 11.8599 4.13333V6.38333ZM5.7843 6.00833H11.1099V4.50833H5.7843V6.00833Z" fill="#3A4757"/>
<path fill-rule="evenodd" clip-rule="evenodd" d="M10.3599 10.1333C10.3599 10.3404 10.192 10.5083 9.98492 10.5083H5.4093C5.20219 10.5083 5.0343 10.3404 5.0343 10.1333V7.88333C5.0343 7.67622 5.20219 7.50833 5.4093 7.50833H9.98492C10.192 7.50833 10.3599 7.67622 10.3599 7.88333V10.1333ZM5.7843 9.75833H9.60992V8.25833H5.7843V9.75833Z" fill="#3A4757"/>
</svg>