<svg width="20" height="20" viewBox="0 0 20 20" fill="none" xmlns="http://www.w3.org/2000/svg">
<path fill-rule="evenodd" clip-rule="evenodd" d="M9.7236 5.53868C9.34417 5.9371 8.71617 5.95002 8.32092 5.56754L5.99205 3.34622L5.99205 15C5.99205 15.5523 5.54789 16 5 16C4.4521 16 4.00795 15.5523 4.00795 15L4.00795 3.34622L1.67908 5.56754C1.28383 5.95001 0.655833 5.9371 0.276399 5.53868C-0.103035 5.14027 -0.0902188 4.50724 0.305025 4.12477L4.31297 0.278613C4.69686 -0.0928709 5.30314 -0.0928709 5.68703 0.278613L9.69497 4.12477C10.0902 4.50724 10.103 5.14027 9.7236 5.53868Z" fill="#3A4757"/>
<path fill-rule="evenodd" clip-rule="evenodd" d="M10.2764 14.4613C10.6558 14.0629 11.2838 14.05 11.6791 14.4325L14.0079 16.6538V5C14.0079 4.44771 14.4521 4 15 4C15.5479 4 15.9921 4.44771 15.9921 5V16.6538L18.3209 14.4325C18.7162 14.05 19.3442 14.0629 19.7236 14.4613C20.103 14.8597 20.0902 15.4928 19.695 15.8752L15.687 19.7214C15.3031 20.0929 14.6969 20.0929 14.313 19.7214L10.305 15.8752C9.90978 15.4928 9.89697 14.8597 10.2764 14.4613Z" fill="#3A4757"/>
</svg>