<svg width="14" height="15" viewBox="0 0 14 15" fill="none" xmlns="http://www.w3.org/2000/svg">
<path d="M3.25538 0.507812C3.25539 0.300706 3.08749 0.132812 2.88038 0.132812C2.67328 0.132812 2.50538 0.300705 2.50538 0.507812L2.50538 13.6649L0.759062 11.9186C0.612615 11.7721 0.375178 11.7721 0.228732 11.9186C0.0822848 12.065 0.0822848 12.3025 0.228731 12.4489L2.61522 14.8354C2.76166 14.9818 2.9991 14.9818 3.14555 14.8354L5.53203 12.4489C5.67848 12.3025 5.67848 12.065 5.53203 11.9186C5.38559 11.7721 5.14815 11.7721 5.0017 11.9186L3.25538 13.6649L3.25538 0.507812Z" fill="#3A4757"/>
<path fill-rule="evenodd" clip-rule="evenodd" d="M13.4788 2.76614C13.4788 2.97325 13.3109 3.14114 13.1038 3.14114H5.5282C5.32109 3.14114 5.1532 2.97325 5.1532 2.76614V0.516144C5.1532 0.309037 5.32109 0.141144 5.5282 0.141144H13.1038C13.3109 0.141144 13.4788 0.309037 13.4788 0.516144V2.76614ZM5.9032 2.39114H12.7288V0.891144H5.9032V2.39114Z" fill="#3A4757"/>
<path fill-rule="evenodd" clip-rule="evenodd" d="M11.9788 6.51614C11.9788 6.72325 11.8109 6.89114 11.6038 6.89114H5.5282C5.32109 6.89114 5.1532 6.72325 5.1532 6.51614V4.26614C5.1532 4.05904 5.32109 3.89114 5.5282 3.89114H11.6038C11.8109 3.89114 11.9788 4.05904 11.9788 4.26614V6.51614ZM5.9032 6.14114H11.2288V4.64114H5.9032V6.14114Z" fill="#3A4757"/>
<path fill-rule="evenodd" clip-rule="evenodd" d="M10.4788 10.2661C10.4788 10.4733 10.3109 10.6411 10.1038 10.6411H5.5282C5.32109 10.6411 5.1532 10.4733 5.1532 10.2661V8.01614C5.1532 7.80904 5.32109 7.64114 5.5282 7.64114H10.1038C10.3109 7.64114 10.4788 7.80904 10.4788 8.01614V10.2661ZM5.9032 9.89114H9.72881V8.39114H5.9032V9.89114Z" fill="#3A4757"/>
</svg>