<svg width="10" height="16" viewBox="0 0 10 16" fill="none" xmlns="http://www.w3.org/2000/svg">
<path d="M9 15.5H1C0.45 15.5 0 15.05 0 14.5V1.5C0 0.95 0.45 0.5 1 0.5H9C9.55 0.5 10 0.95 10 1.5V14.5C10 15.05 9.55 15.5 9 15.5ZM1 1.25C0.86 1.25 0.75 1.36 0.75 1.5V14.5C0.75 14.63 0.86 14.75 1 14.75H9C9.13 14.75 9.25 14.64 9.25 14.5V1.5C9.25 1.36 9.14 1.25 9 1.25H1Z" fill="#3A4757"/>
<path d="M5 6.5C3.89 6.5 3 5.6 3 4.5C3 3.4 3.9 2.5 5 2.5C6.1 2.5 7 3.4 7 4.5C7 5.6 6.1 6.5 5 6.5ZM5 3.24C4.31 3.24 3.75 3.8 3.75 4.49C3.75 5.18 4.3 5.75 5 5.75C5.69 5.75 6.25 5.19 6.25 4.5C6.25 3.81 5.69 3.24 5 3.24ZM5 11.49C4.45 11.49 4 11.04 4 10.49C4 9.94 4.45 9.49 5 9.49C5.55 9.49 6 9.94 6 10.49C6 11.04 5.54 11.49 5 11.49ZM5 10.25C4.86 10.25 4.75 10.36 4.75 10.5C4.75 10.77 5.24 10.77 5.24 10.5C5.24 10.36 5.13 10.25 5 10.25Z" fill="#3A4757"/>
<path d="M5 13.49C3.35 13.49 2 12.15 2 10.49C2 8.83 3.34 7.49 5 7.49C6.66 7.49 8 8.83 8 10.49C8 12.15 6.65 13.49 5 13.49ZM5 8.25C3.76 8.25 2.75 9.26 2.75 10.5C2.75 11.74 3.76 12.75 5 12.75C6.24 12.75 7.25 11.74 7.25 10.5C7.25 9.26 6.23 8.25 5 8.25Z" fill="#3A4757"/>
</svg>