<svg width="10" height="15" viewBox="0 0 10 15" fill="none" xmlns="http://www.w3.org/2000/svg">
<path d="M9 15H1C0.45 15 0 14.55 0 14V1C0 0.45 0.45 0 1 0H9C9.55 0 10 0.45 10 1V14C10 14.55 9.55 15 9 15ZM1 0.75C0.86 0.75 0.75 0.86 0.75 1V14C0.75 14.13 0.86 14.25 1 14.25H9C9.13 14.25 9.25 14.14 9.25 14V1C9.25 0.86 9.14 0.75 9 0.75H1Z" fill="#3A4757"/>
<path d="M5 6C3.89 6 3 5.1 3 4C3 2.9 3.9 2 5 2C6.1 2 7 2.9 7 4C7 5.1 6.1 6 5 6ZM5 2.74C4.31 2.74 3.75 3.3 3.75 3.99C3.75 4.68 4.3 5.25 5 5.25C5.69 5.25 6.25 4.69 6.25 4C6.25 3.31 5.69 2.74 5 2.74ZM5 10.99C4.45 10.99 4 10.54 4 9.99C4 9.44 4.45 8.99 5 8.99C5.55 8.99 6 9.44 6 9.99C6 10.54 5.54 10.99 5 10.99ZM5 9.75C4.86 9.75 4.75 9.86 4.75 10C4.75 10.27 5.24 10.27 5.24 10C5.24 9.86 5.13 9.75 5 9.75Z" fill="#3A4757"/>
<path d="M5 12.99C3.35 12.99 2 11.65 2 9.99C2 8.33 3.34 6.99 5 6.99C6.66 6.99 8 8.33 8 9.99C8 11.65 6.65 12.99 5 12.99ZM5 7.75C3.76 7.75 2.75 8.76 2.75 10C2.75 11.24 3.76 12.25 5 12.25C6.24 12.25 7.25 11.24 7.25 10C7.25 8.76 6.23 7.75 5 7.75Z" fill="#3A4757"/>
</svg>