<svg width="15" height="15" viewBox="0 0 15 15" fill="none" xmlns="http://www.w3.org/2000/svg">
<path fill-rule="evenodd" clip-rule="evenodd" d="M9.225 0C10.4676 0 11.475 1.00736 11.475 2.25C11.475 3.21014 10.8736 4.02982 10.0269 4.35289L8.7375 9H10.875C11.8691 9 12.6825 9.77365 12.746 10.7517L12.75 10.875V11.25H13.0263C14.0744 11.25 14.9317 12.0261 14.9961 13.0064L15 13.125V14.625C15 14.8091 14.8604 14.9622 14.6762 14.994L14.6053 15H0.394737C0.200953 15 0.0397828 14.8673 0.0063597 14.6924L0 14.625V13.125C0 12.1293 0.816983 11.3149 1.84887 11.2537L1.97368 11.25H2.25V10.875C2.25 9.88089 3.02365 9.06747 4.00172 9.00399L4.125 9H6.084L7.51363 3.84569C7.52268 3.81301 7.5358 3.78254 7.55228 3.75469C7.19382 3.35721 6.975 2.82916 6.975 2.25C6.975 1.00736 7.98236 0 9.225 0ZM13.0263 12H1.97368C1.356 12 0.848766 12.4493 0.794313 13.0226L0.789474 13.125V14.25H14.2105V13.125C14.2105 12.5746 13.7945 12.1166 13.2449 12.0191L13.1404 12.0051L13.0263 12ZM10.875 9.75H4.125C3.54023 9.75 3.05966 10.1962 3.00515 10.7667L3 10.875V11.25H12V10.875C12 10.3268 11.6079 9.87014 11.0888 9.77029L10.9833 9.75515L10.875 9.75ZM8.18108 4.24369L6.8625 9H7.959L9.207 4.49925L9.0928 4.49618C8.76516 4.4772 8.45633 4.38811 8.18108 4.24369ZM9.225 0.75C8.39657 0.75 7.725 1.42157 7.725 2.25C7.725 3.07843 8.39657 3.75 9.225 3.75C9.38343 3.75 9.53613 3.72544 9.67949 3.67991C9.72864 3.65547 9.7855 3.62491 9.85017 3.58448C9.88356 3.5636 9.91482 3.55879 9.9434 3.56591C10.4091 3.31253 10.725 2.81815 10.725 2.25C10.725 1.42157 10.0534 0.75 9.225 0.75Z" fill="#3A4757"/>
</svg>