<svg width="20" height="20" viewBox="0 0 20 20" fill="none" xmlns="http://www.w3.org/2000/svg">
<path fill-rule="evenodd" clip-rule="evenodd" d="M0 10C0 4.47715 4.47715 0 10 0C15.5228 0 20 4.47715 20 10C20 15.5228 15.5228 20 10 20C4.47715 20 0 15.5228 0 10ZM10 2.08696C5.62975 2.08696 2.08696 5.62975 2.08696 10C2.08696 10.8372 2.21696 11.644 2.45789 12.4013H9.40959L13.2394 6.0183C13.5359 5.52413 14.1769 5.36389 14.6711 5.66039C15.1652 5.95689 15.3255 6.59786 15.029 7.09203L11.8434 12.4013H17.5421C17.783 11.644 17.913 10.8372 17.913 10C17.913 5.62975 14.3703 2.08696 10 2.08696ZM16.5179 14.4883H10.0164C10.0051 14.4885 9.99376 14.4885 9.98242 14.4883H3.4821C4.90946 16.5572 7.29639 17.913 10 17.913C12.7036 17.913 15.0905 16.5572 16.5179 14.4883Z" fill="#3A4757"/>
</svg>