<svg width="20" height="20" viewBox="0 0 20 20" fill="none" xmlns="http://www.w3.org/2000/svg">
<path fill-rule="evenodd" clip-rule="evenodd" d="M10 0C8.02221 0 6.08879 0.586467 4.4443 1.68528C2.79981 2.78409 1.51812 4.34588 0.761241 6.17314C0.00436583 8.00039 -0.193712 10.0111 0.19214 11.9509C0.577991 13.8907 1.53043 15.6725 2.92895 17.071C4.32747 18.4695 6.10927 19.422 8.04908 19.8078C9.98889 20.1937 11.9996 19.9956 13.8268 19.2388C15.6541 18.4819 17.2159 17.2001 18.3147 15.5556C19.4135 13.9112 20 11.9778 20 9.99998C20 7.34782 18.9464 4.80428 17.0711 2.92892C15.1957 1.05356 12.6522 0 10 0ZM10 1.94997C12.135 1.94997 14.1825 2.79809 15.6922 4.30775C17.2019 5.81742 18.05 7.86499 18.05 9.99998C18.0509 10.8493 17.9159 11.6933 17.65 12.5H11.725L15 7.04161C15.1199 6.82126 15.1502 6.56319 15.0847 6.32104C15.0192 6.0789 14.8629 5.87132 14.6482 5.74147C14.4336 5.61162 14.1772 5.56952 13.9323 5.62387C13.6874 5.67822 13.4729 5.82486 13.3333 6.03332L9.45833 12.5H2.35833C2.09244 11.6933 1.95742 10.8493 1.95834 9.99998C1.95834 7.86644 2.80531 5.82013 4.31318 4.3107C5.82104 2.80128 7.86647 1.95218 10 1.94997Z" fill="#3A4757"/>
</svg>