<svg width="14" height="14" viewBox="0 0 14 14" fill="none" xmlns="http://www.w3.org/2000/svg">
<path d="M7 0C7.64167 0 8.25903 0.0826389 8.85208 0.247917C9.44514 0.413194 10.0042 0.648958 10.5292 0.955208C11.0542 1.26146 11.5257 1.62604 11.9438 2.04896C12.3618 2.47187 12.7264 2.94583 13.0375 3.47083C13.3486 3.99583 13.5844 4.55243 13.7448 5.14062C13.9052 5.72882 13.9903 6.34861 14 7C14 7.64167 13.9174 8.25903 13.7521 8.85208C13.5868 9.44514 13.351 10.0042 13.0448 10.5292C12.7385 11.0542 12.374 11.5257 11.951 11.9438C11.5281 12.3618 11.0542 12.7264 10.5292 13.0375C10.0042 13.3486 9.44757 13.5844 8.85938 13.7448C8.27118 13.9052 7.65139 13.9903 7 14C6.35833 14 5.74097 13.9174 5.14792 13.7521C4.55486 13.5868 3.99583 13.351 3.47083 13.0448C2.94583 12.7385 2.47431 12.374 2.05625 11.951C1.63819 11.5281 1.27361 11.0542 0.9625 10.5292C0.651389 10.0042 0.415625 9.44757 0.255208 8.85938C0.0947917 8.27118 0.00972222 7.65139 0 7C0 6.35833 0.0826389 5.74097 0.247917 5.14792C0.413194 4.55486 0.648958 3.99583 0.955208 3.47083C1.26146 2.94583 1.62604 2.47431 2.04896 2.05625C2.47187 1.63819 2.94583 1.27361 3.47083 0.9625C3.99583 0.651389 4.55243 0.415625 5.14062 0.255208C5.72882 0.0947917 6.34861 0.00972222 7 0ZM7 13.0667C7.55903 13.0667 8.09618 12.9937 8.61146 12.8479C9.12674 12.7021 9.60799 12.4979 10.0552 12.2354C10.5024 11.9729 10.9132 11.6569 11.2875 11.2875C11.6618 10.9181 11.9778 10.5097 12.2354 10.0625C12.4931 9.61528 12.6972 9.1316 12.8479 8.61146C12.9986 8.09132 13.0715 7.55417 13.0667 7C13.0667 6.44097 12.9937 5.90382 12.8479 5.38854C12.7021 4.87326 12.4979 4.39201 12.2354 3.94479C11.9729 3.49757 11.6569 3.08681 11.2875 2.7125C10.9181 2.33819 10.5097 2.02222 10.0625 1.76458C9.61528 1.50694 9.1316 1.30278 8.61146 1.15208C8.09132 1.00139 7.55417 0.928472 7 0.933333C6.44097 0.933333 5.90382 1.00625 5.38854 1.15208C4.87326 1.29792 4.39201 1.50208 3.94479 1.76458C3.49757 2.02708 3.08681 2.34306 2.7125 2.7125C2.33819 3.08194 2.02222 3.49028 1.76458 3.9375C1.50694 4.38472 1.30278 4.8684 1.15208 5.38854C1.00139 5.90868 0.928472 6.44583 0.933333 7C0.933333 7.55903 1.00625 8.09618 1.15208 8.61146C1.29792 9.12674 1.50208 9.60799 1.76458 10.0552C2.02708 10.5024 2.34306 10.9132 2.7125 11.2875C3.08194 11.6618 3.49028 11.9778 3.9375 12.2354C4.38472 12.4931 4.8684 12.6972 5.38854 12.8479C5.90868 12.9986 6.44583 13.0715 7 13.0667ZM8.26044 6.39377C8.25928 6.39262 8.25739 6.39399 8.25811 6.39546C8.35271 6.58751 8.4 6.78903 8.4 7C8.4 7.19444 8.36354 7.37674 8.29062 7.54688C8.21771 7.71701 8.11806 7.86528 7.99167 7.99167C7.86528 8.11806 7.71701 8.21771 7.54688 8.29062C7.37674 8.36354 7.19444 8.4 7 8.4C6.80556 8.4 6.62326 8.36354 6.45312 8.29062C6.28299 8.21771 6.13472 8.11806 6.00833 7.99167C5.88194 7.86528 5.78229 7.71701 5.70937 7.54688C5.63646 7.37674 5.6 7.19444 5.6 7C5.6 6.80556 5.63646 6.62326 5.70937 6.45312C5.78229 6.28299 5.88194 6.13472 6.00833 6.00833C6.13472 5.88194 6.28299 5.78229 6.45312 5.70937C6.62326 5.63646 6.80556 5.6 7 5.6C7.21097 5.6 7.41249 5.64729 7.60454 5.74189C7.60601 5.74261 7.60738 5.74071 7.60623 5.73956C7.60566 5.739 7.60566 5.73809 7.60623 5.73752L9.96042 3.38333C10.1416 3.20211 10.4354 3.20212 10.6167 3.38333C10.7979 3.56455 10.7979 3.85837 10.6167 4.03958L8.26248 6.39377C8.26191 6.39434 8.261 6.39434 8.26044 6.39377ZM7 7.46667C7.12639 7.46667 7.23576 7.42049 7.32812 7.32812C7.42049 7.23576 7.46667 7.12639 7.46667 7C7.46667 6.87361 7.42049 6.76424 7.32812 6.67188C7.23576 6.57951 7.12639 6.53333 7 6.53333C6.87361 6.53333 6.76424 6.57951 6.67188 6.67188C6.57951 6.76424 6.53333 6.87361 6.53333 7C6.53333 7.12639 6.57951 7.23576 6.67188 7.32812C6.76424 7.42049 6.87361 7.46667 7 7.46667ZM11.2458 5.08868C11.4787 4.98428 11.7545 5.08688 11.8382 5.328C11.9056 5.52241 11.9602 5.72002 12.0021 5.92083C12.075 6.27083 12.1139 6.63056 12.1187 7C12.1187 7.68056 11.9924 8.33437 11.7396 8.96146C11.5449 9.44449 11.2809 9.88571 10.9478 10.2851C10.7818 10.4841 10.4827 10.4827 10.2995 10.2995C10.1162 10.1162 10.1187 9.82075 10.2812 9.61894C10.5267 9.31422 10.726 8.98082 10.8792 8.61875C11.0931 8.11319 11.2 7.5809 11.2 7.02187C11.2 6.5734 11.13 6.13703 10.9901 5.71277C10.9096 5.46876 11.0113 5.19378 11.2458 5.08868ZM8.91194 2.75285C8.8065 2.98808 8.53063 3.09007 8.2858 3.00942C7.86199 2.86981 7.4261 2.8 6.97813 2.8C6.5941 2.8 6.22465 2.84861 5.86979 2.94583C5.51493 3.04306 5.18194 3.18646 4.87083 3.37604C4.55972 3.56562 4.27778 3.78438 4.025 4.03229C3.77222 4.28021 3.5559 4.56458 3.37604 4.88542C3.19618 5.20625 3.05521 5.53924 2.95312 5.88438C2.85104 6.22951 2.8 6.60139 2.8 7C2.8 7.55903 2.90694 8.09375 3.12083 8.60417C3.2746 8.97112 3.47486 9.30918 3.72159 9.61834C3.88302 9.82062 3.88454 10.1155 3.70154 10.2985C3.51774 10.4823 3.2178 10.4836 3.05089 10.2844C2.71732 9.88612 2.45139 9.44759 2.25312 8.96875C1.99549 8.34653 1.86667 7.69028 1.86667 7C1.86667 6.52847 1.92743 6.07396 2.04896 5.63646C2.17049 5.19896 2.34306 4.79063 2.56667 4.41146C2.79028 4.03229 3.05764 3.68715 3.36875 3.37604C3.67986 3.06493 4.025 2.8 4.40417 2.58125C4.78333 2.3625 5.19167 2.18993 5.62917 2.06354C6.06667 1.93715 6.52361 1.87639 7 1.88125C7.36458 1.88125 7.72187 1.91771 8.07187 1.99063C8.27522 2.03299 8.47611 2.0893 8.67454 2.15956C8.91478 2.24463 9.01619 2.52029 8.91194 2.75285Z" fill="#3A4757"/>
</svg>