<svg width="13" height="16" viewBox="0 0 13 16" fill="none" xmlns="http://www.w3.org/2000/svg">
<path fill-rule="evenodd" clip-rule="evenodd" d="M7.76425 0.9421C8.1979 0.9421 8.54945 1.27812 8.54945 1.69262V2.31555C8.54945 2.73006 8.1979 3.06608 7.76425 3.06608L6.20319 3.06564L6.20551 3.07779C6.27264 3.59488 6.41392 4.10111 6.62571 4.58213C6.68039 4.66759 6.69705 4.7704 6.67197 4.86767C6.6469 4.96494 6.58218 5.04859 6.49223 5.09999C6.42856 5.13717 6.35478 5.15546 6.28023 5.15252C6.14241 5.15329 6.01426 5.08493 5.94259 4.9724C5.73186 4.51993 5.57811 4.04598 5.484 3.56053C5.28836 3.81662 4.99932 3.99438 4.67439 4.05946L4.67455 4.8428C5.09322 4.98513 5.40226 5.35012 5.44733 5.78956L5.45301 5.90088L5.45335 6.30973C6.29767 6.4627 6.94357 7.10276 7.00605 7.88663L7.01101 8.01155V14.2634C7.01101 15.1841 6.20744 15.9375 5.19156 15.9963L5.06351 16H1.9475C0.91495 16 0.07008 15.2834 0.00414248 14.3776L0 14.2634V8.01155C0 7.17124 0.669293 6.47033 1.55845 6.30958L1.558 5.90088C1.558 5.41222 1.88327 4.99652 2.33723 4.84253L2.3372 4.07665C2.10507 4.04246 1.89359 3.92337 1.74963 3.74154C1.57832 3.52827 1.51766 3.25215 1.58474 2.99102L1.92238 1.78268C2.0548 1.28893 2.51979 0.943239 3.05306 0.9421H7.76425ZM4.28853 7.02299L2.71871 7.02226L2.7265 7.02301L2.68366 7.02226L1.9475 7.02301C1.34012 7.02301 0.840971 7.43095 0.78435 7.95256L0.779001 8.05162V14.2233C0.779001 14.758 1.24242 15.1974 1.83497 15.2472L1.9475 15.2519H5.06351C5.67089 15.2519 6.17004 14.844 6.22666 14.3224L6.23201 14.2233V8.05162C6.23201 7.48353 5.70885 7.02301 5.06351 7.02301L4.32657 7.02226L4.28451 7.02301L4.28853 7.02299ZM1.9475 10.0153C2.13872 10.0153 2.29775 10.1477 2.33073 10.3221L2.337 10.3894V13.3817C2.337 13.5883 2.16262 13.7558 1.9475 13.7558C1.75629 13.7558 1.59726 13.6234 1.56428 13.4489L1.558 13.3817V10.3894C1.558 10.1828 1.73239 10.0153 1.9475 10.0153ZM1.9475 7.77109C2.13872 7.77109 2.29775 7.90341 2.33073 8.0779L2.337 8.14513V8.89321C2.337 9.09979 2.16262 9.26726 1.9475 9.26726C1.75629 9.26726 1.59726 9.13494 1.56428 8.96045L1.558 8.89321V8.14513C1.558 7.93855 1.73239 7.77109 1.9475 7.77109ZM4.28451 5.52684H2.7265C2.53529 5.52684 2.37626 5.65916 2.34328 5.83365L2.337 5.90088V6.27493H4.67401V5.90088C4.67401 5.71726 4.53622 5.56454 4.35452 5.53287L4.28451 5.52684ZM3.895 4.08678H3.116V4.77876H3.895V4.08678ZM11.7059 3.1036L12.6482 3.30624C12.865 3.32904 13.0214 3.51553 12.9976 3.72278C12.9737 3.93003 12.7786 4.07956 12.5618 4.05676V4.04175H12.4754L11.5332 3.83161C11.4318 3.81207 11.3433 3.75359 11.2884 3.66986C11.2335 3.58614 11.2169 3.48452 11.2427 3.3888C11.2633 3.29162 11.3242 3.20652 11.4114 3.15283C11.4986 3.09913 11.6048 3.08138 11.7059 3.1036ZM9.60161 2.61576L10.5439 2.8184C10.7607 2.8412 10.9171 3.02769 10.8933 3.23494C10.8694 3.44219 10.6743 3.59172 10.4575 3.56892L10.4182 3.59144H10.324L9.42102 3.36628C9.20419 3.31862 9.06885 3.11196 9.11872 2.90471C9.16859 2.69746 9.38479 2.56809 9.60161 2.61576ZM4.41145 3.2826C4.61904 3.28297 4.80965 3.22675 4.90613 3.05107C5.13755 2.62011 5.6007 2.34812 6.10748 2.34557H7.76425V1.72264L3.05306 1.69262C2.87637 1.69357 2.72211 1.80723 2.67617 1.97031L2.35424 3.17865C2.33474 3.21093 2.3346 3.25064 2.35381 3.28302L4.41145 3.2826ZM10.3868 1.62507C10.6036 1.62507 10.7794 1.79308 10.7794 2.00033C10.7794 2.20759 10.6036 2.3756 10.3868 2.3756H9.42102C9.20419 2.3756 9.02842 2.20759 9.02842 2.00033C9.02842 1.79308 9.20419 1.62507 9.42102 1.62507H10.3868ZM12.5618 1.62507C12.7786 1.62507 12.9544 1.79308 12.9544 2.00033C12.9544 2.20759 12.7786 2.3756 12.5618 2.3756H11.6117C11.3949 2.3756 11.2191 2.20759 11.2191 2.00033C11.2191 1.79308 11.3949 1.62507 11.6117 1.62507H12.5618ZM10.7951 0.739459C10.8185 0.837028 10.8001 0.939485 10.7441 1.02405C10.6881 1.10861 10.599 1.16828 10.4967 1.18977L9.5545 1.39241L9.46813 1.41493C9.2513 1.43773 9.0562 1.2882 9.03234 1.08095C9.00849 0.873695 9.16493 0.687204 9.38176 0.664406L10.3318 0.45426C10.5419 0.412376 10.7482 0.539377 10.7951 0.739459ZM12.7727 0.0547341C12.8615 0.107093 12.9243 0.191698 12.9466 0.289146C12.9699 0.386715 12.9516 0.489172 12.8956 0.573736C12.8395 0.658301 12.7505 0.717963 12.6482 0.739459L11.7059 0.9421L11.6196 0.949605C11.4362 0.952709 11.277 0.829139 11.2427 0.656901C11.2169 0.561183 11.2335 0.459563 11.2884 0.375837C11.3433 0.29211 11.4318 0.233631 11.5332 0.214093L12.4754 0.0114526C12.5766 -0.0132466 12.6838 0.0023748 12.7727 0.0547341Z" fill="#3A4757"/>
</svg>