<svg width="20" height="20" viewBox="0 0 20 20" fill="none" xmlns="http://www.w3.org/2000/svg">
<path fill-rule="evenodd" clip-rule="evenodd" d="M13.42 4.1H2.48C1.11 4.1 0 5.21 0 6.58V17.52C0 18.89 1.11 20 2.48 20H13.42C14.79 20 15.9 18.89 15.9 17.52V6.58C15.9 5.21 14.79 4.1 13.42 4.1ZM13.68 17.52C13.68 17.66 13.57 17.78 13.42 17.78H2.48C2.34 17.78 2.22 17.67 2.22 17.52V6.58C2.22 6.44 2.33 6.32 2.48 6.32H13.42C13.56 6.32 13.68 6.43 13.68 6.58V17.52Z" fill="#3A4757"/>
<path fill-rule="evenodd" clip-rule="evenodd" d="M19.27 0.73C18.81 0.27 18.17 0 17.52 0H5.21C4.6 0 4.1 0.5 4.1 1.11C4.1 1.72 4.6 2.22 5.21 2.22H17.52C17.59 2.22 17.65 2.25 17.7 2.3C17.75 2.35 17.78 2.41 17.78 2.48V14.79C17.78 15.4 18.28 15.9 18.89 15.9C19.5 15.9 20 15.4 20 14.79V2.48C20 1.82 19.74 1.19 19.27 0.73Z" fill="#3A4757"/>
<path fill-rule="evenodd" clip-rule="evenodd" d="M11.37 10.94H9.06V8.63C9.06 8.02 8.56 7.52 7.95 7.52C7.34 7.52 6.84 8.02 6.84 8.63V10.94H4.53C3.92 10.94 3.42 11.44 3.42 12.05C3.42 12.66 3.92 13.16 4.53 13.16H6.84V15.47C6.84 16.08 7.34 16.58 7.95 16.58C8.56 16.58 9.06 16.08 9.06 15.47V13.16H11.37C11.98 13.16 12.48 12.66 12.48 12.05C12.48 11.44 11.98 10.94 11.37 10.94Z" fill="#3A4757"/>
</svg>