<svg width="14" height="16" viewBox="0 0 14 16" fill="none" xmlns="http://www.w3.org/2000/svg">
<path fill-rule="evenodd" clip-rule="evenodd" d="M12.8111 0.144773C12.9278 0.289504 12.9146 0.490475 12.7893 0.621724L12.7371 0.667428L11.7771 1.36831V6.31375L13.6296 6.31426C13.8342 6.31426 14 6.48104 14 6.68678C14 6.86967 13.869 7.02177 13.6962 7.05331L13.6296 7.05931L11.0368 7.05912L11.037 8.92196C11.037 9.10484 10.906 9.25694 10.7332 9.28848L10.6667 9.29449L8.07379 9.29429L8.07405 11.1571C8.07405 11.34 7.94303 11.4921 7.77025 11.5237L7.70368 11.5297L5.11081 11.5295L5.11108 13.3923C5.11108 13.5752 4.98006 13.7273 4.80728 13.7588L4.74071 13.7648L2.88837 13.7639L2.88885 13.7648H2.1481L2.14789 13.7639L2.14784 13.7646L2.1481 15.6275C2.1481 15.8332 1.98228 16 1.77773 16C1.59591 16 1.44469 15.8682 1.41333 15.6944L1.40736 15.6275V13.3923C1.40736 13.1866 1.57318 13.0198 1.77773 13.0198L2.14789 13.019V8.40548L0.629889 9.51513C0.457701 9.64096 0.21166 9.61097 0.0803417 9.44815C-0.0363854 9.30342 -0.0231766 9.10245 0.102133 8.9712L0.154345 8.92549L12.2615 0.0777976C12.4337 -0.0480349 12.6797 -0.0180488 12.8111 0.144773ZM5.11055 6.24008L2.88837 7.86376V13.019L4.37002 13.0195L4.37033 11.1571C4.37033 10.9514 4.53616 10.7846 4.74071 10.7846L5.11055 10.7844V6.24008ZM8.07395 4.07469L5.85177 5.69836V10.7844L7.33268 10.7842L7.33331 8.92196C7.33331 8.71621 7.49913 8.54943 7.70368 8.54943L8.07395 8.5491V4.07469ZM11.0366 1.90929L8.81443 3.53371V8.5491L10.2961 8.54886L10.2963 6.68678C10.2963 6.48104 10.4621 6.31426 10.6667 6.31426L11.0366 6.31375V1.90929Z" fill="#3A4757"/>
</svg>