<svg width="15" height="14" viewBox="0 0 15 14" fill="none" xmlns="http://www.w3.org/2000/svg">
<path fill-rule="evenodd" clip-rule="evenodd" d="M4.85175 0C5.052 0.0108768 5.2275 0.16859 5.2305 0.383796C5.2389 1.08053 5.45034 1.65943 5.82028 2.07513L5.8395 2.09456L7.26975 0.945505C7.38611 0.852941 7.54159 0.839718 7.66865 0.905834L7.7295 0.945505L10.6965 3.32986V2.90721C10.6965 2.69201 10.8645 2.51876 11.0715 2.51876H13.1385C13.3463 2.51876 13.5135 2.69201 13.5135 2.90721V5.59301L14.2748 6.20444C14.4008 6.30699 14.445 6.47481 14.4015 6.62397V13.2231H14.625C14.832 13.2231 15 13.3971 15 13.6115C15 13.8267 14.832 14 14.625 14H0.375C0.16725 14 0 13.8267 0 13.6115C0 13.3971 0.16725 13.2231 0.375 13.2231H0.5985V6.62397C0.555 6.47481 0.59925 6.30699 0.72525 6.20444L3.49875 3.97625L3.44055 3.93983C3.13935 3.76587 2.78511 3.66012 2.38518 3.6364L2.211 3.6313C2.196 3.6313 2.181 3.62974 2.166 3.6313C1.96125 3.6313 1.794 3.4596 1.791 3.2475C1.791 3.02997 1.95675 2.85594 2.16225 2.85438C3.588 2.83574 4.49775 1.86926 4.4805 0.393119C4.4805 0.17636 4.6455 0.00155383 4.85175 0ZM8.5935 8.21587H6.4065V13.2231H8.5935V8.21587ZM7.5 1.74495L6.48075 2.56382C6.8055 2.71454 7.179 2.79922 7.60575 2.78602C7.78875 2.79223 7.983 2.95461 7.98525 3.16981C7.98525 3.38657 7.82025 3.55982 7.61475 3.56293C6.18975 3.57925 5.27925 4.5465 5.2965 6.02264C5.2965 6.2394 5.1315 6.41421 4.926 6.41576C4.71675 6.41576 4.54875 6.24562 4.5465 6.03196C4.539 5.41587 4.365 4.90078 4.07025 4.50144L1.3485 6.68846V13.2231H5.6565V7.82664C5.6565 7.61299 5.82375 7.43818 6.0315 7.43818H8.9685C9.1755 7.43818 9.3435 7.61299 9.3435 7.82664V13.2231H13.6515V6.68846L7.5 1.74495ZM12.558 7.43818C12.765 7.43818 12.933 7.61299 12.933 7.82664V11.134C13.107 11.1674 13.2413 11.3181 13.2413 11.5077C13.2413 11.7236 13.0733 11.8961 12.8663 11.8961H10.1835C9.9765 11.8961 9.8085 11.7236 9.8085 11.5077C9.8085 11.3181 9.94275 11.1674 10.1168 11.134V7.82664C10.1168 7.61299 10.2848 7.43818 10.4918 7.43818H12.558ZM4.581 7.43818C4.78875 7.43818 4.956 7.61299 4.956 7.82664V11.134C5.13075 11.1674 5.26425 11.3181 5.26425 11.5077C5.26425 11.7236 5.097 11.8961 4.88925 11.8961H2.20575C1.99875 11.8961 1.83075 11.7236 1.83075 11.5077C1.83075 11.3181 1.965 11.1674 2.139 11.134V7.82664C2.139 7.61299 2.307 7.43818 2.514 7.43818H4.581ZM12.183 8.21509H10.8668V11.1192H12.183V8.21509ZM4.206 8.21509H2.889V11.1192H4.206V8.21509ZM12.7635 3.29567H11.4465V3.93274L12.7635 4.9909V3.29567ZM4.875 2.03629C4.749 2.28646 4.59075 2.51254 4.401 2.71454C4.21125 2.91654 3.99525 3.08668 3.7575 3.22264C3.999 3.35161 4.218 3.51709 4.413 3.71287C4.6065 3.91021 4.77075 4.13319 4.902 4.37947C5.028 4.13008 5.187 3.90244 5.37675 3.70122C5.5665 3.49922 5.78175 3.33063 6.01875 3.1939C5.77875 3.06337 5.559 2.89944 5.36475 2.70211C5.16975 2.50555 5.007 2.2818 4.875 2.03629Z" fill="#3A4757"/>
</svg>