<svg width="15" height="14" viewBox="0 0 15 14" fill="none" xmlns="http://www.w3.org/2000/svg">
<path fill-rule="evenodd" clip-rule="evenodd" d="M14.6429 0C14.8182 0 14.964 0.130329 14.9942 0.302197L15 0.368421V1.84211C15 2.02297 14.8737 2.1734 14.7071 2.20459L14.6429 2.21053H12.75V2.96063L14.625 2.96077C14.8003 2.96077 14.9603 3.0911 14.9936 3.26297L15 3.32919V11.4211C15 12.7979 13.9541 13.9227 12.6372 13.9962L12.5 14H2.5C1.16531 14 0.0749098 12.9211 0.0036993 11.5626L0 11.4211V3.32919C0 3.14833 0.140449 2.9979 0.310191 2.96671L0.375 2.96077L2.25 2.96063V2.21053H0.357143C0.181814 2.21053 0.0359938 2.0802 0.00575387 1.90833L0 1.84211V0.368421C0 0.187556 0.126339 0.0371307 0.292946 0.00593577L0.357143 0H14.6429ZM2.25 3.68126L0.75 3.68187L0.714286 11.4211C0.714286 12.3553 1.38842 13.127 2.26224 13.247L2.38259 13.2592L2.5 13.2632H12.5C13.4468 13.2632 14.2215 12.5031 14.2819 11.5422L14.2857 11.4211L14.25 3.68187L12.75 3.68126V3.68421H12V3.68126H3V3.68421H2.25V3.68126ZM11.0138 8.34034C11.1503 8.34034 11.2769 8.41048 11.3475 8.52526L11.85 9.57895L12.975 9.73368C13.1152 9.75475 13.2313 9.85169 13.275 9.98421C13.3174 10.1185 13.283 10.2649 13.185 10.3674L12.3675 11.1411L12.5625 12.2389C12.5886 12.3778 12.53 12.5188 12.4125 12.6C12.3444 12.6301 12.2689 12.6403 12.195 12.6295C12.1332 12.6278 12.0723 12.6154 12.015 12.5926L11.0175 12.0695L10.0125 12.5926C9.88951 12.6624 9.73799 12.6624 9.615 12.5926C9.50038 12.5092 9.44255 12.37 9.465 12.2316L9.66 11.1337L8.85 10.3158C8.7463 10.2165 8.70856 10.0682 8.7525 9.93263C8.79771 9.80109 8.91307 9.70475 9.0525 9.68211L10.1775 9.52737L10.68 8.52526C10.7506 8.41048 10.8772 8.34034 11.0138 8.34034ZM3.9825 8.37053C4.1259 8.37024 4.25691 8.45033 4.32 8.57684L4.8225 9.57895L5.9475 9.73368C6.08693 9.75633 6.20229 9.85266 6.2475 9.98421C6.29144 10.1198 6.2537 10.2681 6.15 10.3674L5.34 11.1042L5.535 12.2021C5.55745 12.3405 5.49962 12.4797 5.385 12.5632C5.31851 12.607 5.24009 12.6301 5.16 12.6295C5.10056 12.6287 5.0419 12.6162 4.9875 12.5926L3.9825 12.0695L3 12.5926C2.87304 12.6602 2.71786 12.6502 2.601 12.5669C2.48415 12.4835 2.42639 12.3416 2.4525 12.2021L2.6475 11.1042L1.815 10.3158C1.71696 10.2133 1.68259 10.067 1.725 9.93263C1.76875 9.80011 1.88483 9.70317 2.025 9.68211L3.15 9.57895L3.6525 8.57684C3.70293 8.47238 3.80041 8.39928 3.91323 8.37737L3.9825 8.37053ZM11.0175 9.54947L10.7625 10.0505C10.7076 10.1609 10.6011 10.238 10.4775 10.2568L9.915 10.3379L10.3275 10.7284C10.4131 10.8138 10.4522 10.9343 10.4325 11.0526L10.335 11.6053L10.8375 11.3474C10.8918 11.3137 10.9535 11.2935 11.0175 11.2884C11.0779 11.2881 11.1374 11.3033 11.19 11.3326L11.6925 11.5905L11.595 11.0526C11.5773 10.9331 11.6191 10.8124 11.7075 10.7284L12.1125 10.3379L11.55 10.2568C11.4278 10.2347 11.3228 10.1586 11.265 10.0505L11.0175 9.54947ZM3.96 9.53474L3.75 10.0358C3.69224 10.1439 3.58718 10.2199 3.465 10.2421L2.8875 10.3158L3.2925 10.7063C3.38087 10.7903 3.42273 10.911 3.405 11.0305L3.3075 11.5832L3.81 11.3253C3.91983 11.2663 4.05267 11.2663 4.1625 11.3253L4.665 11.5832L4.5675 11.0526C4.54785 10.9343 4.58686 10.8138 4.6725 10.7284L5.085 10.3158L4.5 10.2421C4.37637 10.2233 4.26994 10.1462 4.215 10.0358L3.96 9.53474ZM7.515 4.42105C7.65416 4.42105 7.78277 4.4939 7.8525 4.61221L8.355 5.60694L9.4725 5.76905C9.61477 5.78916 9.73355 5.88594 9.78 6.01958C9.82088 6.15291 9.78336 6.29752 9.6825 6.39536L8.8725 7.17642L9.06 8.27431C9.09028 8.41351 9.03077 8.55674 8.91 8.63536C8.84209 8.68212 8.76033 8.70544 8.6775 8.70168C8.61705 8.70205 8.55756 8.6868 8.505 8.65747L7.5 8.17115L6.495 8.68694C6.37684 8.76403 6.22316 8.76403 6.105 8.68694C5.98423 8.60831 5.92472 8.46509 5.955 8.32589L6.1425 7.228L5.3325 6.39536C5.23693 6.29445 5.20527 6.15022 5.25 6.01958C5.29645 5.88594 5.41523 5.78916 5.5575 5.76905L6.675 5.60694L7.1775 4.61221C7.24723 4.4939 7.37584 4.42105 7.515 4.42105ZM7.5 5.60694L7.245 6.108C7.19154 6.21652 7.08833 6.29326 6.9675 6.31431L6.3975 6.388L6.81 6.78589C6.89908 6.86924 6.93868 6.9915 6.915 7.1101L6.8175 7.66273L7.3275 7.39747C7.3819 7.37393 7.44057 7.3614 7.5 7.36063C7.55694 7.34951 7.61556 7.34951 7.6725 7.36063L8.1825 7.62589L8.085 7.07326C8.06132 6.95466 8.10092 6.8324 8.19 6.74905L8.6025 6.35115L8.0325 6.27747C7.91167 6.25641 7.80846 6.17968 7.755 6.07115L7.5 5.60694ZM12 2.21053H3V2.96063H12V2.21053ZM14.2857 0.736842H0.714286V1.47368H14.2857V0.736842Z" fill="#3A4757"/>
</svg>