<svg width="20" height="20" viewBox="0 0 20 20" fill="none" xmlns="http://www.w3.org/2000/svg">
<path fill-rule="evenodd" clip-rule="evenodd" d="M10.0188 2.31386L8.00401 6.53786C7.88422 6.8073 7.70031 7.04078 7.46947 7.21619C7.23776 7.39225 6.96665 7.5038 6.68195 7.54041L2.20789 8.22872L5.44358 11.4707C5.64871 11.6719 5.80279 11.9227 5.89206 12.2008C5.98191 12.4807 6.00325 12.7794 5.95419 13.07L5.95351 13.074L5.17657 17.796L9.2017 15.587C9.21027 15.5823 9.21889 15.5777 9.22759 15.5733C9.47383 15.4477 9.7445 15.3825 10.0188 15.3825C10.2931 15.3825 10.5638 15.4477 10.8101 15.5733C10.8187 15.5777 10.8274 15.5823 10.8359 15.587L14.8602 17.7955L14.0841 13.1318L14.0837 13.129C14.0343 12.8381 14.0556 12.5389 14.1456 12.2586C14.234 11.9832 14.386 11.7346 14.5881 11.5343L17.801 8.2243L13.3557 7.54041C13.071 7.5038 12.7999 7.39225 12.5682 7.21619C12.3373 7.04079 12.1534 6.8073 12.0336 6.53786L10.0188 2.31386ZM14.9326 18.2305L14.9324 18.2292L14.9326 18.2305ZM9.0896 0.281938C9.3671 0.0978283 9.68952 0 10.0188 0C10.3481 0 10.6705 0.0978283 10.948 0.281938C11.2212 0.463183 11.4396 0.720595 11.5784 1.02459L13.7388 5.55376L18.5053 6.28707C18.826 6.33208 19.1281 6.46982 19.3771 6.68466C19.629 6.90199 19.8161 7.18927 19.9167 7.51293C20.0172 7.83659 20.027 8.18327 19.9449 8.51249C19.8642 8.83589 19.6982 9.12933 19.4656 9.35979L16.0239 12.9055L16.8523 17.8834C16.9081 18.2166 16.8728 18.5594 16.7504 18.8727C16.6279 19.1861 16.4232 19.4575 16.1595 19.656C15.8958 19.8545 15.5837 19.9722 15.2588 19.9957C14.9344 20.0191 14.6101 19.9476 14.3228 19.7893L14.3216 19.7886L10.0188 17.4272L5.716 19.7886L5.71493 19.7892C5.42761 19.9475 5.1033 20.0191 4.77879 19.9957C4.45389 19.9722 4.14185 19.8545 3.87817 19.656C3.61449 19.4575 3.40976 19.1861 3.28728 18.8727C3.16504 18.56 3.12963 18.2179 3.18504 17.8853L3.18536 17.8834L4.0136 12.8497L0.534177 9.36358C0.293925 9.12542 0.124927 8.8203 0.0475136 8.48482C-0.0302662 8.14775 -0.0122554 7.79449 0.099364 7.46783C0.210983 7.14118 0.411422 6.85514 0.6764 6.64437C0.930556 6.44221 1.23363 6.31761 1.55161 6.2841L6.29889 5.55376L8.45925 1.02459C8.59801 0.720595 8.81642 0.463183 9.0896 0.281938Z" fill="#3A4757"/>
</svg>