<svg width="20" height="20" viewBox="0 0 20 20" fill="none" xmlns="http://www.w3.org/2000/svg">
<path d="M9.04366 0.249592C8.79418 0.415987 8.5447 0.665579 8.37838 0.998368L6.29938 5.57422L1.55925 6.2398C1.22661 6.2398 0.977131 6.4062 0.644491 6.57259C0.39501 6.82218 0.14553 7.07177 0.0623701 7.40456C-0.02079 7.82055 -0.02079 8.15334 0.0623701 8.48613C0.14553 8.81892 0.31185 9.15171 0.561331 9.4013L4.05405 12.8956L3.22245 17.8874C3.13929 18.2202 3.22245 18.553 3.30561 18.8858C3.38877 19.2186 3.63825 19.4682 3.88773 19.6346C4.13721 19.801 4.46985 19.9674 4.8025 19.9674C5.13514 19.9674 5.46778 19.8842 5.71726 19.801L10.0416 17.4714L14.3659 19.801C14.6154 19.9674 14.948 20.0506 15.2807 19.9674C15.6133 19.9674 15.9459 19.801 16.1954 19.6346C16.4449 19.4682 16.6944 19.1354 16.7775 18.8858C16.8607 18.553 16.9439 18.2202 16.8607 17.8874L16.0291 12.8956L19.4387 9.3181C19.6882 9.06851 19.8545 8.81892 19.9376 8.48613C20.0208 8.15334 20.0208 7.82055 19.9376 7.48776C19.8545 7.15497 19.6882 6.90538 19.4387 6.65579C19.1892 6.4062 18.8566 6.323 18.6071 6.2398L13.8669 5.49102L11.7048 0.998368C11.5385 0.665579 11.3721 0.415987 11.0395 0.249592C10.79 0.0831973 10.5405 0 10.2911 0H9.95842C9.54262 0.0831973 9.29314 0.166395 9.04366 0.249592Z" fill="#3A4757"/>
</svg>