<svg width="16" height="17" viewBox="0 0 16 17" fill="none" xmlns="http://www.w3.org/2000/svg">
<path d="M11.2778 7.05716C11.4206 6.9071 11.4146 6.66973 11.2646 6.52699C11.1145 6.38425 10.8771 6.39018 10.7344 6.54024L7.34109 10.1075L5.45562 8.19541C5.31021 8.04794 5.07278 8.04627 4.92531 8.19169C4.77783 8.3371 4.77617 8.57453 4.92158 8.722L7.35078 11.1855L11.2778 7.05716Z" fill="#3A4757"/>
<path fill-rule="evenodd" clip-rule="evenodd" d="M15.7753 6.30858C16.025 5.9427 15.8606 5.43957 15.443 5.29179L13.1862 4.49309L13.1169 2.10012C13.1041 1.65736 12.6755 1.34673 12.2508 1.47237L9.94777 2.15355L8.48332 0.261805C8.21281 -0.087635 7.68505 -0.0871968 7.41512 0.262692L5.94613 2.16683L3.64223 1.49955C3.21838 1.37679 2.79266 1.68705 2.77973 2.12813L2.70946 4.52569L0.446951 5.34103C0.0312126 5.49085 -0.130814 5.99311 0.119004 6.35763L1.47142 8.33103L0.117743 10.3148C-0.131927 10.6807 0.0325277 11.1838 0.450097 11.3316L2.7069 12.1303L2.77615 14.5233C2.78897 14.966 3.21757 15.2766 3.64232 15.151L5.94532 14.4698L7.40977 16.3616C7.68028 16.711 8.20804 16.7106 8.47797 16.3607L9.94696 14.4565L12.2509 15.1238C12.6747 15.2466 13.1004 14.9363 13.1134 14.4952L13.1836 12.0977L15.4461 11.2823C15.8619 11.1325 16.0239 10.6303 15.7741 10.2657L14.4217 8.29235L15.7753 6.30858ZM12.8875 5.18296L15.1009 5.96631L13.7732 7.91198C13.6164 8.14186 13.6167 8.44446 13.774 8.67403L15.1006 10.6097L12.8813 11.4094C12.6204 11.5034 12.4436 11.7475 12.4355 12.0247L12.3665 14.3765L10.1066 13.7219C9.84019 13.6448 9.55373 13.7384 9.38434 13.958L7.94342 15.8257L6.50699 13.9702C6.33662 13.7501 6.04866 13.6571 5.78178 13.7361L3.52302 14.4042L3.4551 12.0572C3.44703 11.7785 3.26843 11.5334 3.00558 11.4404L0.792164 10.6571L2.11984 8.7114C2.27671 8.48152 2.27641 8.17892 2.11908 7.94935L0.792524 6.01371L3.01177 5.21395C3.27267 5.11994 3.44951 4.87591 3.45764 4.59871L3.52657 2.24688L5.78653 2.90143C6.0529 2.97858 6.33936 2.88496 6.50876 2.66539L7.94967 0.797652L9.38611 2.65321C9.55647 2.87328 9.84444 2.96623 10.1113 2.8873L12.3701 2.2192L12.438 4.56617C12.4461 4.84487 12.6247 5.08994 12.8875 5.18296Z" fill="#3A4757"/>
</svg>