<svg width="16" height="18" viewBox="0 0 16 18" fill="none" xmlns="http://www.w3.org/2000/svg">
<path d="M11.3313 7.74563C11.474 7.59557 11.4681 7.35821 11.318 7.21547C11.168 7.07273 10.9306 7.07866 10.7879 7.22872L7.39456 10.796L5.50909 8.88388C5.36367 8.73641 5.12624 8.73475 4.97877 8.88016C4.8313 9.02558 4.82964 9.26301 4.97505 9.41048L7.40424 11.874L11.3313 7.74563Z" fill="#3A4757"/>
<path fill-rule="evenodd" clip-rule="evenodd" d="M15.8288 6.99706C16.0785 6.63118 15.914 6.12805 15.4965 5.98027L13.2397 5.18156L13.1704 2.7886C13.1576 2.34583 12.729 2.03521 12.3042 2.16085L10.0012 2.84203L8.53679 0.950282C8.26628 0.600842 7.73852 0.60128 7.46859 0.951169L5.99959 2.85531L3.69569 2.18803C3.27185 2.06527 2.84613 2.37553 2.8332 2.8166L2.76292 5.21416L0.500418 6.0295C0.0846794 6.17932 -0.0773468 6.68159 0.17247 7.04611L1.52489 9.0195L0.171209 11.0033C-0.0784607 11.3692 0.0859945 11.8723 0.503564 12.0201L2.76036 12.8188L2.82962 15.2117C2.84244 15.6545 3.27103 15.9651 3.69579 15.8395L5.99879 15.1583L7.46324 17.05C7.73375 17.3995 8.2615 17.399 8.53143 17.0492L10.0004 15.145L12.3043 15.8123C12.7282 15.9351 13.1539 15.6248 13.1668 15.1837L13.2371 12.7862L15.4996 11.9708C15.9153 11.821 16.0774 11.3187 15.8276 10.9542L14.4751 8.98083L15.8288 6.99706ZM12.941 5.87144L15.1544 6.65479L13.8267 8.60045C13.6698 8.83034 13.6702 9.13293 13.8275 9.3625L15.154 11.2981L12.9348 12.0979C12.6739 12.1919 12.497 12.4359 12.4889 12.7131L12.42 15.065L10.16 14.4104C9.89365 14.3333 9.6072 14.4269 9.4378 14.6465L7.99689 16.5142L6.56045 14.6586C6.39009 14.4386 6.10212 14.3456 5.83524 14.4246L3.57649 15.0927L3.50856 12.7457C3.5005 12.467 3.3219 12.2219 3.05905 12.1289L0.84563 11.3455L2.17331 9.39988C2.33018 9.16999 2.32987 8.8674 2.17254 8.63783L0.845991 6.70218L3.06524 5.90243C3.32613 5.80841 3.50298 5.56439 3.5111 5.28718L3.58004 2.93536L5.84 3.58991C6.10637 3.66706 6.39283 3.57344 6.56222 3.35386L8.00313 1.48613L9.43957 3.34169C9.60993 3.56176 9.8979 3.65471 10.1648 3.57577L12.4235 2.90768L12.4915 5.25464C12.4995 5.53335 12.6781 5.77841 12.941 5.87144Z" fill="#3A4757"/>
</svg>