<svg width="20" height="20" viewBox="0 0 20 20" fill="none" xmlns="http://www.w3.org/2000/svg">
<path fill-rule="evenodd" clip-rule="evenodd" d="M10 1.95122C5.55478 1.95122 1.95122 5.55478 1.95122 10C1.95122 14.4452 5.55478 18.0488 10 18.0488C14.4452 18.0488 18.0488 14.4452 18.0488 10C18.0488 5.55478 14.4452 1.95122 10 1.95122ZM0 10C0 4.47715 4.47715 0 10 0C15.5228 0 20 4.47715 20 10C20 15.5228 15.5228 20 10 20C4.47715 20 0 15.5228 0 10Z" fill="#3A4757"/>
<path fill-rule="evenodd" clip-rule="evenodd" d="M7.91733 5.5535C8.45615 5.5535 8.89294 5.99029 8.89294 6.52911V13.4709C8.89294 14.0098 8.45615 14.4466 7.91733 14.4466C7.37852 14.4466 6.94172 14.0098 6.94172 13.4709V6.52911C6.94172 5.99029 7.37852 5.5535 7.91733 5.5535Z" fill="#3A4757"/>
<path fill-rule="evenodd" clip-rule="evenodd" d="M12.0826 5.5535C12.6214 5.5535 13.0582 5.99029 13.0582 6.52911V13.4709C13.0582 14.0098 12.6214 14.4466 12.0826 14.4466C11.5438 14.4466 11.107 14.0098 11.107 13.4709V6.52911C11.107 5.99029 11.5438 5.5535 12.0826 5.5535Z" fill="#3A4757"/>
</svg>