<svg width="20" height="20" viewBox="0 0 20 20" fill="none" xmlns="http://www.w3.org/2000/svg">
<path d="M10 0C4.5 0 0 4.5 0 10C0 15.5 4.5 20 10 20C15.5 20 20 15.5 20 10C20 4.5 15.5 0 10 0ZM12.8333 13.5833C12.8333 14 12.5 14.3333 12.0833 14.3333C11.6667 14.3333 11.3333 14 11.3333 13.5833V6.41667C11.3333 6 11.6667 5.66667 12.0833 5.66667C12.5 5.66667 12.8333 6 12.8333 6.41667V13.5833ZM8.58333 6.41667V13.5833C8.58333 14 8.25 14.3333 7.83333 14.3333C7.41667 14.3333 7.08333 14 7.08333 13.5833V6.41667C7.08333 6 7.41667 5.66667 7.83333 5.66667C8.25 5.66667 8.58333 6 8.58333 6.41667Z" fill="#3A4757"/>
</svg>