<svg width="15" height="13" viewBox="0 0 15 13" fill="none" xmlns="http://www.w3.org/2000/svg">
<path fill-rule="evenodd" clip-rule="evenodd" d="M11.9982 0C12.3837 0 12.7414 0.225125 12.9094 0.573729L14.963 4.82775C14.9907 4.88498 15.002 4.94747 14.9997 5.00921C15.0005 5.73051 14.6285 6.36673 14.0637 6.7447V12.2471H14.4492C14.6562 12.2471 14.8242 12.4157 14.8242 12.6235C14.8242 12.8313 14.6562 13 14.4492 13H0.552144C0.344389 13 0.177136 12.8313 0.177136 12.6235C0.177136 12.4157 0.344389 12.2471 0.552144 12.2471H0.937653V6.7447C0.37214 6.36673 0.000131601 5.73051 0.000131601 5.00921C-0.00136843 4.94747 0.00988196 4.88498 0.0376326 4.82775L2.09193 0.573729C2.25993 0.225125 2.61769 0 3.00245 0H11.9982ZM11.1034 8.52763H8.98909V12.2471H11.1034V8.52763ZM11.0786 6.14537C10.6976 6.72287 10.0399 7.10761 9.28909 7.10761C8.53907 7.10761 7.88131 6.72287 7.5003 6.14537C7.12004 6.72287 6.46153 7.10761 5.71151 7.10761C4.96149 7.10761 4.30298 6.72287 3.92272 6.14537C3.54246 6.72287 2.8847 7.10761 2.13393 7.10761C1.98093 7.10761 1.83167 7.08954 1.68767 7.05942V12.2471H8.23907V8.15116C8.23907 7.9426 8.40707 7.7747 8.61408 7.7747H11.4784C11.6861 7.7747 11.8534 7.9426 11.8534 8.15116V12.2471H13.3137V7.05942C13.1697 7.08954 13.0204 7.10761 12.8667 7.10761C12.1167 7.10761 11.4581 6.72287 11.0786 6.14537ZM6.81104 7.7747C7.01804 7.7747 7.18604 7.9426 7.18604 8.15116V10.8135C7.18604 11.0213 7.01804 11.19 6.81104 11.19H3.1337C2.92595 11.19 2.75869 11.0213 2.75869 10.8135V8.15116C2.75869 7.9426 2.92595 7.7747 3.1337 7.7747H6.81104ZM6.43603 8.52763H3.50871V10.437H6.43603V8.52763ZM14.1942 5.3676H11.5399C11.7026 5.93455 12.2329 6.35468 12.8667 6.35468C13.5012 6.35468 14.0314 5.93455 14.1942 5.3676ZM10.6166 5.3676H7.96231C8.12506 5.93455 8.65533 6.35468 9.28909 6.35468C9.92361 6.35468 10.4539 5.93455 10.6166 5.3676ZM7.03904 5.3676H4.38473C4.54673 5.93455 5.07775 6.35468 5.71151 6.35468C6.34602 6.35468 6.87629 5.93455 7.03904 5.3676ZM3.46146 5.3676H0.8064C0.969153 5.93455 1.49942 6.35468 2.13393 6.35468C2.76844 6.35468 3.29871 5.93455 3.46146 5.3676ZM4.41473 0.752925H3.00245C2.9027 0.752925 2.81044 0.811653 2.76619 0.902004L0.973653 4.61468H3.64896L4.41473 0.752925ZM11.9982 0.752925H10.5746L11.3396 4.61468H14.0269L12.2344 0.902004C12.1909 0.811653 12.0979 0.752925 11.9982 0.752925ZM7.12529 0.752925H5.179L4.41323 4.61468H7.12529V0.752925ZM9.8096 0.752925H7.87531V4.61468H10.5754L9.8096 0.752925Z" fill="#3A4757"/>
</svg>