<svg width="20" height="20" viewBox="0 0 20 20" fill="none" xmlns="http://www.w3.org/2000/svg">
<path d="M19.9258 5.42469L17.8474 0.599081C17.7693 0.421875 17.6413 0.27102 17.4788 0.164697C17.3163 0.0583744 17.1264 0.00115512 16.9319 0H3.06802C2.8745 0.000663019 2.68541 0.0577657 2.52416 0.164246C2.36292 0.270727 2.23662 0.421897 2.16082 0.599081L0.0741989 5.42469C0.0250489 5.55026 -9.59154e-05 5.68389 2.74935e-07 5.81865V7.19739C-2.12005e-06 8.18849 0.395074 9.13912 1.09858 9.8407C1.80209 10.5423 2.75656 10.9375 3.75257 10.9397H4.14017C4.63396 10.9405 5.123 10.8438 5.57889 10.655C6.03478 10.4662 6.44847 10.1891 6.79587 9.83995L6.91134 9.73326C6.94499 9.77085 6.98079 9.80648 7.01857 9.83995C7.36597 10.1891 7.7796 10.4662 8.23549 10.655C8.69138 10.8438 9.18042 10.9405 9.67421 10.9397H10.367C10.8608 10.9405 11.3498 10.8438 11.8057 10.655C12.2616 10.4662 12.6753 10.1891 13.0227 9.83995L13.1381 9.73326L13.2454 9.83995C13.5928 10.1891 14.0064 10.4662 14.4623 10.655C14.9182 10.8438 15.4072 10.9405 15.901 10.9397H16.2474C17.2434 10.9375 18.1979 10.5423 18.9014 9.8407C19.6049 9.13912 20 8.18849 20 7.19739V5.81865C20.0001 5.68389 19.9749 5.55026 19.9258 5.42469ZM10.367 8.97003H9.67421C9.44066 8.97004 9.20941 8.92413 8.99374 8.83494C8.77806 8.74576 8.58223 8.61506 8.41747 8.45035C8.2527 8.28563 8.12226 8.09013 8.03364 7.87511C7.94501 7.66009 7.89991 7.42979 7.90099 7.19739V6.80347H12.1484V7.19739C12.1463 7.66686 11.9579 8.11647 11.6243 8.44844C11.2906 8.78042 10.8388 8.96788 10.367 8.97003ZM16.2474 8.97003H15.901C15.6674 8.97004 15.4362 8.92413 15.2205 8.83494C15.0049 8.74576 14.809 8.61506 14.6443 8.45035C14.4795 8.28563 14.3491 8.09013 14.2604 7.87511C14.1718 7.66009 14.1268 7.42979 14.1278 7.19739V6.80347H18.0206V7.19739C18.0217 7.42979 17.9766 7.66009 17.888 7.87511C17.7994 8.09013 17.6689 8.28563 17.5042 8.45035C17.3394 8.61506 17.1436 8.74576 16.9279 8.83494C16.7122 8.92413 16.481 8.97004 16.2474 8.97003ZM17.5093 4.86663H2.49069L3.7196 2.00246H16.2804L17.5093 4.86663ZM4.14017 8.97003H3.75257C3.28251 8.96902 2.8319 8.78317 2.49894 8.453C2.16814 8.11768 1.98175 7.66727 1.97935 7.19739V6.80347H5.92164V7.19739C5.91947 7.66686 5.73109 8.11647 5.39747 8.44844C5.06386 8.78042 4.61197 8.96788 4.14017 8.97003Z" fill="#3A4757"/>
<path d="M14.7795 15.9131C15.0419 15.9131 15.2937 15.8093 15.4793 15.6246C15.6649 15.4399 15.7692 15.1895 15.7692 14.9283C15.7692 14.6671 15.6649 14.4166 15.4793 14.2319C15.2937 14.0472 15.0419 13.9434 14.7795 13.9434H13.3609C13.0984 13.9434 12.8467 14.0472 12.6611 14.2319C12.4755 14.4166 12.3712 14.6671 12.3712 14.9283C12.3712 15.1895 12.4755 15.4399 12.6611 15.6246C12.8467 15.8093 13.0984 15.9131 13.3609 15.9131H14.7795Z" fill="#3A4757"/>
<path d="M17.6247 11.0382C17.3623 11.0382 17.1105 11.1419 16.9249 11.3266C16.7393 11.5113 16.635 11.7618 16.635 12.023V17.6036C16.6361 17.6593 16.6261 17.7146 16.6054 17.7663C16.5848 17.8181 16.5539 17.8652 16.5148 17.9049C16.4756 17.9447 16.4289 17.9762 16.3773 17.9977C16.3257 18.0193 16.2703 18.0304 16.2144 18.0304H11.266V13.8285C11.266 13.3801 11.087 12.9501 10.7684 12.6331C10.4497 12.316 10.0176 12.1379 9.56699 12.1379H6.06184C5.61124 12.1379 5.17913 12.316 4.86051 12.6331C4.5419 12.9501 4.36287 13.3801 4.36287 13.8285V18.0304H3.7938C3.73786 18.0304 3.68248 18.0193 3.6309 17.9977C3.57932 17.9762 3.5326 17.9447 3.49343 17.9049C3.45426 17.8652 3.42347 17.8181 3.40282 17.7663C3.38217 17.7146 3.37207 17.6593 3.37317 17.6036V12.023C3.37317 11.7618 3.26892 11.5113 3.08332 11.3266C2.89772 11.1419 2.64595 11.0382 2.38347 11.0382C2.12099 11.0382 1.86927 11.1419 1.68367 11.3266C1.49806 11.5113 1.39382 11.7618 1.39382 12.023V17.6036C1.39273 17.9179 1.454 18.2294 1.57413 18.5201C1.69425 18.8108 1.87085 19.075 2.09382 19.2976C2.31679 19.5203 2.58174 19.6969 2.87346 19.8174C3.16518 19.938 3.47793 20 3.7938 20H16.2227C16.5385 20 16.8513 19.938 17.143 19.8174C17.4347 19.6969 17.6997 19.5203 17.9226 19.2976C18.1456 19.075 18.3222 18.8108 18.4423 18.5201C18.5625 18.2294 18.6237 17.9179 18.6226 17.6036V12.023C18.6227 11.893 18.5968 11.7642 18.5465 11.6442C18.4963 11.5242 18.4227 11.4153 18.3299 11.3237C18.2371 11.2321 18.127 11.1598 18.006 11.1108C17.885 11.0618 17.7554 11.0371 17.6247 11.0382ZM9.27835 14.1075V18.0304H6.33402V14.1075H9.27835Z" fill="#3A4757"/>
</svg>