<svg width="20" height="20" viewBox="0 0 20 20" fill="none" xmlns="http://www.w3.org/2000/svg">
<path fill-rule="evenodd" clip-rule="evenodd" d="M2.85714 0C2.72116 8.37409e-05 2.58803 0.0402774 2.4734 0.115857C2.35876 0.191437 2.26738 0.299263 2.21 0.426663L0.0671429 5.16277C0.0145927 5.27936 -0.00756778 5.40811 0.00285714 5.53628H0V6.9329C0 7.70503 0.322857 8.44763 0.9 8.99387C1.47429 9.54012 2.25571 9.8472 3.07 9.8472H3.49857C4.30001 9.85247 5.07445 9.54813 5.67 8.99387C5.89908 8.77748 6.09213 8.5236 6.24143 8.24242C6.42286 7.99144 6.71714 7.99291 6.88714 8.22322C7.03429 8.5052 7.23 8.76652 7.46857 8.99387C8.04429 9.54012 8.82572 9.8472 9.64 9.8472H10.4071C11.2086 9.85247 11.983 9.54813 12.5786 8.99387C12.8014 8.78128 12.9871 8.53916 13.13 8.27785C13.3171 7.97667 13.6443 7.98258 13.8157 8.26308C13.96 8.5303 14.1486 8.77685 14.3757 8.99387C14.9514 9.54012 15.7329 9.8472 16.5471 9.8472H16.93C17.7314 9.85247 18.5059 9.54813 19.1014 8.99387C19.6771 8.44763 20 7.70503 20 6.9329V5.53628H19.9971C20.0076 5.40811 19.9854 5.27936 19.9329 5.16277L17.79 0.426663C17.7326 0.299263 17.6412 0.191437 17.5266 0.115857C17.412 0.0402774 17.2788 8.37409e-05 17.1429 0H2.85714ZM2.29429 18.5237V11.6321C2.55 11.672 2.80857 11.6912 3.07 11.6912H3.49857C4.60571 11.6912 5.69429 11.3221 6.57 10.6223C7.45089 11.3196 8.53037 11.696 9.64 11.6926H10.4071C11.5129 11.6926 12.6014 11.3221 13.4771 10.6223C14.358 11.3196 15.4375 11.696 16.5471 11.6926H16.93C17.19 11.6926 17.45 11.672 17.7057 11.6321V18.5237C17.7057 18.9152 17.5552 19.2907 17.2873 19.5676C17.0194 19.8445 16.656 20 16.2771 20H10.2671V15.2255C10.2671 15.0297 10.1919 14.842 10.0579 14.7035C9.92398 14.5651 9.7423 14.4873 9.55286 14.4873H6.01143C5.82199 14.4873 5.64031 14.5651 5.50635 14.7035C5.3724 14.842 5.29714 15.0297 5.29714 15.2255V20H3.72286C3.34398 20 2.98061 19.8445 2.7127 19.5676C2.4448 19.2907 2.29429 18.9152 2.29429 18.5237ZM15.4314 16.7934C15.4314 16.9892 15.3562 17.1769 15.2222 17.3154C15.0883 17.4538 14.9066 17.5316 14.7171 17.5316H13.2857C13.0963 17.5316 12.9146 17.4538 12.7806 17.3154C12.6467 17.1769 12.5714 16.9892 12.5714 16.7934C12.5714 16.5976 12.6467 16.4099 12.7806 16.2714C12.9146 16.133 13.0963 16.0552 13.2857 16.0552H14.7143C14.9037 16.0552 15.0854 16.133 15.2194 16.2714C15.3533 16.4099 15.4286 16.5976 15.4286 16.7934H15.4314Z" fill="#3A4757"/>
</svg>