<svg width="20" height="20" viewBox="0 0 20 20" fill="none" xmlns="http://www.w3.org/2000/svg">
<path d="M0.995851 7.96681C1.49378 7.96681 1.9917 7.55187 1.9917 6.97095V2.40664C1.9917 2.15768 2.15768 1.9917 2.40664 1.9917H8.21577C8.71369 1.9917 9.21162 1.57676 9.21162 0.995851C9.21162 0.497925 8.79668 0 8.21577 0H2.40664C1.07884 0.0829876 0 1.16183 0 2.40664V6.97095C0 7.55187 0.414938 7.96681 0.995851 7.96681Z" fill="#3A4757"/>
<path d="M17.5934 0.0829876H11.7012C11.2033 0.0829876 10.7054 0.497925 10.7054 1.07884C10.7054 1.57676 11.1203 2.07469 11.7012 2.07469H17.5934C17.8423 2.07469 18.0083 2.24066 18.0083 2.48963V7.05394C18.0083 7.55187 18.4232 8.04979 19.0041 8.04979C19.5021 8.04979 20 7.63485 20 7.05394V2.40664C19.917 1.16183 18.8382 0.0829876 17.5934 0.0829876Z" fill="#3A4757"/>
<path d="M18.9212 9.54357C18.4232 9.54357 17.9253 9.95851 17.9253 10.5394V12.7801C17.0954 12.6141 16.2656 12.5311 15.4357 12.5311C14.0249 12.5311 12.6141 12.7801 11.2863 13.278C10.9544 12.9461 10.6224 12.6141 10.2075 12.2822C8.13278 10.6224 5.39419 9.62656 1.90871 10.5394C1.90871 10.0415 1.49378 9.54357 0.912863 9.54357C0.414938 9.54357 0 9.95851 0 10.5394V17.6763C0 19.0041 1.07884 20 2.32365 20H8.13278C8.63071 20 9.12863 19.5851 9.12863 19.0041C9.12863 18.5062 8.71369 18.0083 8.13278 18.0083H2.32365C2.07469 18.0083 1.90871 17.8423 1.90871 17.5934V11.7012C2.24066 11.7012 2.6556 11.6183 2.98755 11.6183C3.73444 11.6183 4.48133 11.7012 5.22822 11.8672C8.54772 12.6971 10.9544 15.0207 11.9502 18.0083H11.6183C11.1203 18.0083 10.6224 18.4232 10.6224 19.0041C10.6224 19.5021 11.0373 20 11.6183 20H17.5934C18.9212 20 19.917 18.9212 19.917 17.6763V10.5394C19.917 9.95851 19.5021 9.54357 18.9212 9.54357ZM18.0083 17.6763C18.0083 17.9253 17.8423 18.0913 17.5934 18.0913H14.1079C13.7759 16.9295 13.361 15.8506 12.6971 14.9378C13.61 14.6888 14.6058 14.5228 15.5187 14.5228C16.3485 14.5228 17.1784 14.6058 18.0083 14.8548V17.6763Z" fill="#3A4757"/>
<path d="M13.029 10.2905C14.9378 10.2905 16.4315 8.79668 16.4315 6.88797C16.4315 4.97925 14.9378 3.48548 13.029 3.48548C11.1203 3.48548 9.62656 4.97925 9.62656 6.88797C9.70954 8.79668 11.2033 10.2905 13.029 10.2905ZM13.029 5.47718C13.8589 5.47718 14.4398 6.14108 14.4398 6.97095C14.4398 7.80083 13.7759 8.38174 13.029 8.38174C12.2822 8.38174 11.6183 7.71784 11.6183 6.88797C11.6183 6.05809 12.2822 5.47718 13.029 5.47718Z" fill="#3A4757"/>
</svg>