<svg width="20" height="18" viewBox="0 0 20 18" fill="none" xmlns="http://www.w3.org/2000/svg">
<path d="M19.1651 12.6284C18.9431 12.3817 18.6988 12.1798 18.4212 12.034C18.8764 11.4509 19.2429 10.7892 19.5094 10.0827C19.8647 9.14074 20.0201 8.15388 19.9979 7.1446C19.898 5.19332 19.0874 3.37661 17.7327 2.0309C16.3559 0.696399 14.6126 -0.0325279 12.7471 0.00111487H12.514C12.1364 0.00111487 11.7589 0.158115 11.4702 0.449685C11.1926 0.741256 11.0372 1.12254 11.0372 1.53747V6.3596H5.60741L4.35268 3.02896C4.13061 2.44582 3.76418 1.9524 3.26451 1.59354C2.77595 1.2459 2.20965 1.05526 1.61005 1.05526H0.954926C0.699539 1.05526 0.455255 1.15618 0.277595 1.34683C0.111038 1.53747 0 1.7954 0 2.06454C0 2.33368 0.0999341 2.59161 0.277595 2.78225C0.455255 2.97289 0.699539 3.07382 0.954926 3.07382H1.59895C1.80992 3.07382 2.02089 3.14111 2.18745 3.26446C2.36511 3.38782 2.49835 3.55604 2.57608 3.76911L4.01957 7.58195C4.05288 9.21924 4.60807 10.778 5.58521 12.0228C5.2743 12.191 4.9856 12.4153 4.74132 12.6957C4.34158 13.1667 4.07509 13.7498 3.98626 14.3778C3.88633 15.017 3.98626 15.645 4.25275 16.2169C4.50814 16.7889 4.93008 17.2599 5.45196 17.5739C5.90722 17.8542 6.42909 18 6.93987 18L7.0398 17.9832L7.13974 17.9664C7.73934 17.9215 8.31674 17.686 8.7831 17.2823C9.26056 16.8786 9.60478 16.3403 9.77133 15.7459C9.87127 15.3871 9.91568 15.0058 9.89347 14.6357C10.2488 14.6918 10.6041 14.7254 10.9483 14.7254H12.9581C13.3134 14.7254 13.6688 14.6918 14.013 14.6357V14.7815C14.013 15.3647 14.1684 15.9366 14.4571 16.4412C14.7569 16.9346 15.1678 17.3384 15.6674 17.5963C16.1782 17.8542 16.7223 17.9551 17.2775 17.8991C17.8327 17.843 18.3546 17.6187 18.7987 17.2486C19.2429 16.901 19.576 16.4076 19.7647 15.8581C19.9535 15.3086 19.9979 14.7142 19.8758 14.1311C19.7536 13.5479 19.4983 13.0321 19.1096 12.6059L19.1651 12.6284ZM17.977 6.37081H12.9692V2.01968C14.1906 2.06454 15.3676 2.53554 16.2893 3.38782C17.1331 4.17282 17.7216 5.22696 17.9659 6.37081H17.977ZM16.0006 14.5684C16.0339 14.3554 16.1449 14.1535 16.2893 14.0077C16.4447 13.8619 16.6335 13.7498 16.8333 13.7049C16.9111 13.6825 16.9666 13.6825 17.0332 13.6825C17.1665 13.6825 17.3108 13.7049 17.4329 13.761C17.6328 13.8507 17.7994 13.9965 17.9104 14.1759C18.0326 14.3554 18.0881 14.5684 18.0881 14.7927C18.0881 15.0843 17.9881 15.3647 17.7883 15.5777C17.4329 15.9366 16.8667 16.0151 16.4558 15.7235C16.2782 15.5889 16.1449 15.4207 16.0672 15.2189C15.9895 15.017 15.9672 14.7815 16.0117 14.5797L16.0006 14.5684ZM5.97384 14.5797C6.00715 14.3554 6.10708 14.1647 6.26254 14.0077C6.40689 13.8619 6.59565 13.7498 6.79552 13.7049C6.87325 13.6825 6.93987 13.6825 7.00649 13.6825C7.13974 13.6825 7.28409 13.7049 7.40623 13.761C7.6061 13.8507 7.77265 13.9965 7.88369 14.1759C8.00583 14.3554 8.06135 14.5684 8.06135 14.7927C8.06135 15.0843 7.96142 15.3647 7.76155 15.5777C7.40623 15.9478 6.83993 16.0151 6.42909 15.7235C6.25143 15.6002 6.11819 15.4319 6.04046 15.2301C5.96273 15.0282 5.94053 14.7927 5.98494 14.5797H5.97384ZM17.9881 8.38938C17.7994 9.52202 17.2553 10.5537 16.4447 11.3387C15.512 12.2359 14.3128 12.7293 13.047 12.7293H11.0039C10.3043 12.7293 9.61588 12.5835 8.98297 12.2807C8.35005 11.9779 7.77265 11.563 7.29519 11.0247C6.65117 10.2846 6.19591 9.36502 6.02936 8.38938H17.9881Z" fill="#3A4757"/>
</svg>