<svg width="20" height="18" viewBox="0 0 20 18" fill="none" xmlns="http://www.w3.org/2000/svg">
<path fill-rule="evenodd" clip-rule="evenodd" d="M10.4261 0.0820329C10.1754 -0.0273443 9.88471 -0.0273443 9.62406 0.0820329L0.601504 3.95995C0.230576 4.11904 0 4.47701 0 4.87474C0 5.27248 0.240602 5.63044 0.601504 5.78953L1.65414 6.24693V12.9189C0.691729 13.3067 0 14.2513 0 15.3551C0 16.8167 1.19298 18 2.66667 18C4.14035 18 5.33333 16.8167 5.33333 15.3551C5.33333 14.2513 4.6416 13.3067 3.66917 12.909V7.10206L4.10025 7.29098V10.8706C4.10025 11.1752 4.23939 11.3794 4.41103 11.6064C4.47118 11.676 4.57143 11.7754 4.6817 11.8848C4.92231 12.1135 5.26316 12.4019 5.73434 12.6803C6.67669 13.257 8.09022 13.8039 10.005 13.8039C11.9198 13.8039 13.3333 13.257 14.2757 12.6803C14.7469 12.3919 15.0977 12.1036 15.3283 11.8848C15.4486 11.7754 15.5388 11.676 15.609 11.6064C15.7823 11.3773 15.9098 11.1511 15.9098 10.8507V7.28104L19.3985 5.77959C19.7694 5.62049 20 5.26253 20 4.8648C20 4.46706 19.7594 4.1091 19.3985 3.95001L10.4261 0.0820329ZM2.66667 16.0113C2.30576 16.0113 2.00501 15.723 2.00501 15.3551C2.00501 14.9872 2.29574 14.6988 2.66667 14.6988C3.03759 14.6988 3.32832 14.9872 3.32832 15.3551C3.32832 15.723 3.03759 16.0113 2.66667 16.0113ZM13.9449 10.4729C13.7945 10.6121 13.5639 10.801 13.2431 10.9999C12.5815 11.3976 11.5288 11.8351 10.015 11.8351C8.50125 11.8351 7.44862 11.4075 6.79699 11.0098C6.47619 10.8209 6.24561 10.622 6.09524 10.4828V8.166L9.61404 9.67739C9.86466 9.78677 10.1554 9.78677 10.416 9.67739L13.9449 8.166V10.4828V10.4729ZM10.0251 7.66883L3.52882 4.87474L10.0251 2.08065L16.5213 4.87474L10.0251 7.66883Z" fill="#3A4757"/>
</svg>