<svg width="15" height="12" viewBox="0 0 15 12" fill="none" xmlns="http://www.w3.org/2000/svg">
<path fill-rule="evenodd" clip-rule="evenodd" d="M7.4428 0.0240812L7.50365 0.0553866L14.8296 4.77606L14.8854 4.82022C15.0197 4.94989 15.0385 5.16842 14.9284 5.3212L14.881 5.37511L14.247 5.97L14.25 6V9C14.25 9.20711 14.0821 9.375 13.875 9.375C13.6909 9.375 13.5378 9.24234 13.506 9.06741L13.5 9V6.672L11.9993 8.08275V10.464L12 10.476C12 11.4283 10.1353 11.9686 7.71497 11.9987L7.5 12C5.04811 12 3.11336 11.4869 3.00481 10.559L3 10.476V8.17275L2.97158 8.15009L0.114439 5.37076L0.0689729 5.31741C-0.0367867 5.16666 -0.0191754 4.95426 0.109803 4.82498L0.163366 4.78068L7.12306 0.0600071L7.1832 0.0272327C7.26623 -0.00795578 7.35902 -0.00908193 7.4428 0.0240812ZM7.5 9.71405L7.31038 9.71544C5.36143 9.74384 3.75 10.2026 3.75 10.476C3.75 10.7583 5.46706 11.238 7.5 11.238C9.53294 11.238 11.25 10.7583 11.25 10.476L11.2493 10.4783L11.2499 10.4724C11.2359 10.1988 9.63294 9.74454 7.69488 9.71552L7.5 9.71405ZM3.79233 7.22478L3.75 7.2525L3.75047 9.56699C4.50309 9.18945 5.75845 8.97787 7.22301 8.95428L7.5 8.95207L7.70342 8.95326C9.19944 8.97085 10.4843 9.18313 11.2495 9.56697L11.25 7.25133L11.2084 7.22388C8.73748 5.60785 6.28779 5.60788 3.79233 7.22478ZM7.32143 0.8175L0.937871 5.14875L3 7.155L3.00007 7.03812L3.0015 7.0125L3.00075 7.038L3.00375 6.99225L3.00929 6.96248L3.01863 6.92847C3.02183 6.91824 3.02564 6.90794 3.02987 6.89785L3.04455 6.86684C3.04904 6.85836 3.05399 6.84981 3.05925 6.84149C3.06552 6.83145 3.07232 6.8217 3.07961 6.81224C3.08633 6.80366 3.09336 6.79532 3.10073 6.78729C3.10753 6.77978 3.11471 6.77257 3.12222 6.76563C3.13114 6.75742 3.14032 6.74969 3.14985 6.74241C3.15495 6.73854 3.16028 6.73469 3.16574 6.73096C6.05612 4.75618 8.97236 4.75618 11.8357 6.73194C11.9179 6.78868 11.9737 6.87556 11.9928 6.97267L12 7.04711L11.9993 7.07625L14.0478 5.15175L7.32143 0.8175Z" fill="#3A4757"/>
</svg>