<svg width="20" height="20" viewBox="0 0 20 20" fill="none" xmlns="http://www.w3.org/2000/svg">
<path d="M9.99944 0C9.43273 0 8.97332 0.459423 8.97332 1.02615V2.40674C8.97332 2.97347 9.43273 3.43289 9.99944 3.43289C10.5661 3.43289 11.0256 2.97347 11.0256 2.40674V1.02615C11.0256 0.459423 10.5661 0 9.99944 0Z" fill="#3A4757"/>
<path d="M4.37526 2.92373C3.97454 2.52299 3.32484 2.52299 2.92412 2.92373C2.5234 3.32446 2.5234 3.97419 2.92412 4.37492L3.90431 5.35514C4.30503 5.75588 4.95473 5.75588 5.35545 5.35514C5.75617 4.95441 5.75617 4.30469 5.35545 3.90395L4.37526 2.92373Z" fill="#3A4757"/>
<path d="M17.075 2.92373C16.6743 2.52299 16.0246 2.52299 15.6239 2.92373L14.6437 3.90395C14.243 4.30469 14.243 4.95441 14.6437 5.35514C15.0444 5.75588 15.6941 5.75588 16.0949 5.35514L17.075 4.37492C17.4758 3.97419 17.4758 3.32446 17.075 2.92373Z" fill="#3A4757"/>
<path fill-rule="evenodd" clip-rule="evenodd" d="M10.0003 4.48692C6.95565 4.48692 4.48745 6.9552 4.48745 9.99999C4.48745 13.0448 6.95565 15.5131 10.0003 15.5131C13.045 15.5131 15.5132 13.0448 15.5132 9.99999C15.5132 6.9552 13.045 4.48692 10.0003 4.48692ZM6.53968 9.99999C6.53968 8.08866 8.08907 6.53921 10.0003 6.53921C11.9116 6.53921 13.461 8.08866 13.461 9.99999C13.461 11.9113 11.9116 13.4608 10.0003 13.4608C8.08907 13.4608 6.53968 11.9113 6.53968 9.99999Z" fill="#3A4757"/>
<path d="M17.5933 8.97383C17.0266 8.97383 16.5672 9.43325 16.5672 9.99998C16.5672 10.5667 17.0266 11.0261 17.5933 11.0261H18.9739C19.5406 11.0261 20 10.5667 20 9.99998C20 9.43325 19.5406 8.97383 18.9739 8.97383H17.5933Z" fill="#3A4757"/>
<path d="M1.02611 8.97386C0.459407 8.97386 0 9.43328 0 10C0 10.5667 0.459407 11.0262 1.02611 11.0262H2.40666C2.97337 11.0262 3.43277 10.5667 3.43277 10C3.43277 9.43328 2.97337 8.97386 2.40666 8.97386H1.02611Z" fill="#3A4757"/>
<path d="M5.35545 14.6449C4.95473 14.2442 4.30503 14.2442 3.90431 14.6449L2.92412 15.6251C2.5234 16.0259 2.5234 16.6756 2.92412 17.0763C3.32484 17.477 3.97454 17.477 4.37526 17.0763L5.35545 16.0961C5.75617 15.6954 5.75617 15.0456 5.35545 14.6449Z" fill="#3A4757"/>
<path d="M16.0949 14.6449C15.6941 14.2442 15.0444 14.2442 14.6437 14.6449C14.243 15.0456 14.243 15.6954 14.6437 16.0961L15.6239 17.0763C16.0246 17.477 16.6743 17.477 17.075 17.0763C17.4758 16.6756 17.4758 16.0259 17.075 15.6251L16.0949 14.6449Z" fill="#3A4757"/>
<path d="M9.99944 16.5671C9.43273 16.5671 8.97332 17.0265 8.97332 17.5933V18.9739C8.97332 19.5406 9.43273 20 9.99944 20C10.5661 20 11.0256 19.5406 11.0256 18.9739V17.5933C11.0256 17.0265 10.5661 16.5671 9.99944 16.5671Z" fill="#3A4757"/>
</svg>