<svg width="15" height="15" viewBox="0 0 15 15" fill="none" xmlns="http://www.w3.org/2000/svg">
<path fill-rule="evenodd" clip-rule="evenodd" d="M7.51935 12.2691C7.72635 12.2691 7.89435 12.4371 7.89435 12.6441V14.6256C7.89435 14.8326 7.72635 15.0006 7.51935 15.0006C7.31235 15.0006 7.14435 14.8326 7.14435 14.6256V12.6441C7.14435 12.4371 7.31235 12.2691 7.51935 12.2691ZM3.61147 10.8856C3.75773 10.7393 3.99548 10.7393 4.14173 10.8856C4.28797 11.0318 4.28797 11.2696 4.14173 11.4158L2.74073 12.8168C2.66723 12.8903 2.57122 12.9271 2.47522 12.9271C2.37923 12.9271 2.28323 12.8903 2.21048 12.8168C2.06423 12.6706 2.06423 12.4328 2.21048 12.2866L3.61147 10.8856ZM10.886 10.8592C11.0322 10.7129 11.27 10.7129 11.4162 10.8592L12.8172 12.2594C12.9634 12.4064 12.9634 12.6434 12.8172 12.7897C12.7437 12.8632 12.6477 12.8999 12.5517 12.8999C12.4557 12.8999 12.3597 12.8632 12.2869 12.7897L10.886 11.3894C10.7397 11.2432 10.7397 11.0054 10.886 10.8592ZM7.5003 3.5436C9.68205 3.5436 11.4565 5.3181 11.4565 7.5006C11.4565 9.68235 9.68205 11.4569 7.5003 11.4569C5.31855 11.4569 3.54405 9.68235 3.54405 7.5006C3.54405 5.3181 5.31855 3.5436 7.5003 3.5436ZM7.5003 4.2936C5.73255 4.2936 4.29405 5.7321 4.29405 7.5006C4.29405 9.26835 5.73255 10.7069 7.5003 10.7069C9.26805 10.7069 10.7065 9.26835 10.7065 7.5006C10.7065 5.7321 9.26805 4.2936 7.5003 4.2936ZM2.3565 7.14435C2.5635 7.14435 2.7315 7.31235 2.7315 7.51935C2.7315 7.72635 2.5635 7.89435 2.3565 7.89435H0.375C0.168 7.89435 0 7.72635 0 7.51935C0 7.31235 0.168 7.14435 0.375 7.14435H2.3565ZM14.6253 7.10625C14.8323 7.10625 15.0003 7.27425 15.0003 7.48125C15.0003 7.68825 14.8323 7.85625 14.6253 7.85625H12.6438C12.4368 7.85625 12.2688 7.68825 12.2688 7.48125C12.2688 7.27425 12.4368 7.10625 12.6438 7.10625H14.6253ZM2.1834 2.21093C2.3304 2.06393 2.5674 2.06393 2.71365 2.21093L4.11465 3.61118C4.2609 3.75743 4.2609 3.99517 4.11465 4.14142C4.04115 4.21492 3.94515 4.25092 3.8499 4.25092C3.7539 4.25092 3.6579 4.21492 3.5844 4.14142L2.1834 2.74118C2.03715 2.59418 2.03715 2.35718 2.1834 2.21093ZM12.2602 2.1834C12.4064 2.03715 12.6434 2.03715 12.7904 2.1834C12.9367 2.3304 12.9367 2.5674 12.7904 2.71365L11.3894 4.1154C11.3159 4.18815 11.2199 4.2249 11.1239 4.2249C11.0279 4.2249 10.9319 4.18815 10.8584 4.1154C10.7122 3.9684 10.7122 3.7314 10.8584 3.5844L12.2602 2.1834ZM7.48125 0C7.68825 0 7.85625 0.168 7.85625 0.375V2.3565C7.85625 2.5635 7.68825 2.7315 7.48125 2.7315C7.27425 2.7315 7.10625 2.5635 7.10625 2.3565V0.375C7.10625 0.168 7.27425 0 7.48125 0Z" fill="#3A4757"/>
</svg>