<svg width="20" height="20" viewBox="0 0 20 20" fill="none" xmlns="http://www.w3.org/2000/svg">
<path fill-rule="evenodd" clip-rule="evenodd" d="M9.95922 3.89043C13.3395 3.89043 16.0836 6.63455 16.0836 10.0148C16.0836 13.3951 13.3395 16.1392 9.95922 16.1392C6.57894 16.1392 3.83482 13.3951 3.83482 10.0148C3.83482 6.63455 6.57894 3.89043 9.95922 3.89043ZM6.13147 11.7373C5.862 11.7373 5.62391 11.5609 5.54583 11.3029C5.42984 10.8937 5.36592 10.4615 5.36592 10.0148C5.36592 7.47972 7.4241 5.42153 9.95922 5.42153C10.2287 5.42153 10.4668 5.59799 10.5449 5.85598C10.6609 6.26517 10.7248 6.69732 10.7248 7.14402C10.7248 9.67914 8.66659 11.7373 6.13147 11.7373Z" fill="#3A4757"/>
<path fill-rule="evenodd" clip-rule="evenodd" d="M15.9493 2.94396L14.9457 3.94758C14.6344 4.25884 14.6344 4.76389 14.9457 5.07516C15.2569 5.38642 15.762 5.38642 16.0733 5.07516L17.0769 4.07154C17.3881 3.76028 17.3884 3.25495 17.0772 2.94369C16.7659 2.63243 16.2606 2.6327 15.9493 2.94396Z" fill="#3A4757"/>
<path fill-rule="evenodd" clip-rule="evenodd" d="M3.87369 15.0196L2.93503 15.9582C2.62377 16.2695 2.62377 16.7745 2.93503 17.0858C3.2463 17.397 3.75135 17.397 4.06261 17.0858L5.00127 16.1471C5.31253 15.8359 5.31253 15.3308 5.00127 15.0196C4.69001 14.7083 4.18495 14.7083 3.87369 15.0196Z" fill="#3A4757"/>
<path fill-rule="evenodd" clip-rule="evenodd" d="M17.03 15.9528L16.0784 15.0011C15.7674 14.6901 15.2621 14.6899 14.9508 15.0011C14.6395 15.3124 14.6398 15.8177 14.9508 16.1287L15.9024 17.0803C16.2137 17.3916 16.719 17.3919 17.0303 17.0806C17.3416 16.7694 17.3413 16.264 17.03 15.9528Z" fill="#3A4757"/>
<path fill-rule="evenodd" clip-rule="evenodd" d="M4.98664 3.90938L4.02119 2.94393C3.70993 2.63267 3.2046 2.6324 2.89334 2.94366C2.58208 3.25492 2.58235 3.76025 2.89361 4.07151L3.85906 5.03696C4.17032 5.34823 4.67538 5.34823 4.98664 5.03696C5.2979 4.7257 5.2979 4.22065 4.98664 3.90938Z" fill="#3A4757"/>
<path fill-rule="evenodd" clip-rule="evenodd" d="M19.2023 9.23219H17.783C17.3428 9.23219 16.9856 9.58932 16.9856 10.0295C16.9856 10.4697 17.3428 10.8268 17.783 10.8268H19.2023C19.6425 10.8268 20 10.4697 20 10.0295C20 9.58932 19.6425 9.23219 19.2023 9.23219Z" fill="#3A4757"/>
<path fill-rule="evenodd" clip-rule="evenodd" d="M2.12478 9.23219H0.797321C0.357129 9.23219 0 9.58932 0 10.0295C0 10.4697 0.357129 10.8268 0.797321 10.8268H2.12478C2.56498 10.8268 2.92211 10.4697 2.92211 10.0295C2.92211 9.58932 2.56498 9.23219 2.12478 9.23219Z" fill="#3A4757"/>
<path fill-rule="evenodd" clip-rule="evenodd" d="M10.7679 19.195V17.8492C10.7679 17.4094 10.4107 17.0519 9.97054 17.0519C9.53035 17.0519 9.17322 17.4094 9.17322 17.8492V19.195C9.17322 19.6352 9.53035 19.9927 9.97054 19.9927C10.4107 19.9927 10.7679 19.6352 10.7679 19.195Z" fill="#3A4757"/>
<path fill-rule="evenodd" clip-rule="evenodd" d="M10.7679 2.16306V0.797703C10.7679 0.357512 10.4107 0 9.97054 0C9.53035 0 9.17322 0.357512 9.17322 0.797703V2.16306C9.17322 2.60325 9.53035 2.96038 9.97054 2.96038C10.4107 2.96038 10.7679 2.60325 10.7679 2.16306Z" fill="#3A4757"/>
</svg>