<svg width="20" height="20" viewBox="0 0 20 20" fill="none" xmlns="http://www.w3.org/2000/svg">
<path fill-rule="evenodd" clip-rule="evenodd" d="M9.95922 3.8941C13.3395 3.8941 16.0836 6.63821 16.0836 10.0185C16.0836 13.3988 13.3395 16.1429 9.95922 16.1429C6.57894 16.1429 3.83482 13.3988 3.83482 10.0185C3.83482 6.63821 6.57894 3.8941 9.95922 3.8941ZM6.13147 11.741C5.862 11.741 5.62391 11.5645 5.54583 11.3065C5.42984 10.8974 5.36592 10.4652 5.36592 10.0185C5.36592 7.48338 7.4241 5.4252 9.95922 5.4252C10.2287 5.4252 10.4668 5.60166 10.5449 5.85965C10.6609 6.26883 10.7248 6.70099 10.7248 7.14769C10.7248 9.68281 8.66659 11.741 6.13147 11.741Z" fill="#3A4757"/>
<path fill-rule="evenodd" clip-rule="evenodd" d="M15.9493 2.94762L14.9457 3.95124C14.6344 4.2625 14.6344 4.76756 14.9457 5.07882C15.2569 5.39008 15.762 5.39008 16.0733 5.07882L17.0769 4.0752C17.3881 3.76394 17.3884 3.25861 17.0772 2.94735C16.7659 2.63609 16.2606 2.63636 15.9493 2.94762Z" fill="#3A4757"/>
<path fill-rule="evenodd" clip-rule="evenodd" d="M3.87369 15.0232L2.93503 15.9619C2.62377 16.2731 2.62377 16.7782 2.93503 17.0894C3.2463 17.4007 3.75135 17.4007 4.06261 17.0894L5.00127 16.1508C5.31253 15.8395 5.31253 15.3345 5.00127 15.0232C4.69001 14.712 4.18495 14.712 3.87369 15.0232Z" fill="#3A4757"/>
<path fill-rule="evenodd" clip-rule="evenodd" d="M17.03 15.9564L16.0784 15.0048C15.7674 14.6938 15.2621 14.6935 14.9508 15.0048C14.6395 15.316 14.6398 15.8214 14.9508 16.1324L15.9024 17.084C16.2137 17.3953 16.719 17.3955 17.0303 17.0843C17.3416 16.773 17.3413 16.2677 17.03 15.9564Z" fill="#3A4757"/>
<path fill-rule="evenodd" clip-rule="evenodd" d="M4.98664 3.91305L4.02119 2.94759C3.70993 2.63633 3.2046 2.63606 2.89334 2.94732C2.58208 3.25859 2.58235 3.76391 2.89361 4.07517L3.85906 5.04063C4.17032 5.35189 4.67538 5.35189 4.98664 5.04063C5.2979 4.72936 5.2979 4.22431 4.98664 3.91305Z" fill="#3A4757"/>
<path fill-rule="evenodd" clip-rule="evenodd" d="M19.2023 9.23585H17.783C17.3428 9.23585 16.9856 9.59298 16.9856 10.0332C16.9856 10.4734 17.3428 10.8305 17.783 10.8305H19.2023C19.6425 10.8305 20 10.4734 20 10.0332C20 9.59298 19.6425 9.23585 19.2023 9.23585Z" fill="#3A4757"/>
<path fill-rule="evenodd" clip-rule="evenodd" d="M2.12478 9.23585H0.797321C0.357129 9.23585 0 9.59298 0 10.0332C0 10.4734 0.357129 10.8305 0.797321 10.8305H2.12478C2.56498 10.8305 2.92211 10.4734 2.92211 10.0332C2.92211 9.59298 2.56498 9.23585 2.12478 9.23585Z" fill="#3A4757"/>
<path fill-rule="evenodd" clip-rule="evenodd" d="M10.7679 19.1987V17.8528C10.7679 17.413 10.4107 17.0555 9.97054 17.0555C9.53035 17.0555 9.17322 17.413 9.17322 17.8528V19.1987C9.17322 19.6389 9.53035 19.9964 9.97054 19.9964C10.4107 19.9964 10.7679 19.6389 10.7679 19.1987Z" fill="#3A4757"/>
<path fill-rule="evenodd" clip-rule="evenodd" d="M10.7679 2.16672V0.801365C10.7679 0.361174 10.4107 0.00366211 9.97054 0.00366211C9.53035 0.00366211 9.17322 0.361174 9.17322 0.801365V2.16672C9.17322 2.60692 9.53035 2.96405 9.97054 2.96405C10.4107 2.96405 10.7679 2.60692 10.7679 2.16672Z" fill="#3A4757"/>
</svg>