<svg width="20" height="20" viewBox="0 0 20 20" fill="none" xmlns="http://www.w3.org/2000/svg">
<path d="M13.9525 1.16453C13.754 1.69836 14.0292 2.29078 14.5671 2.48774C15.105 2.6847 15.7019 2.41161 15.9004 1.87778L16.0828 1.38718C16.2812 0.85335 16.0061 0.26093 15.4682 0.0639708C14.9303 -0.132988 14.3333 0.1401 14.1349 0.673929L13.9525 1.16453Z" fill="#3A4757"/>
<path fill-rule="evenodd" clip-rule="evenodd" d="M15.5138 10.1758C15.9226 9.84354 16.2721 9.4257 16.5323 8.93161C17.5663 6.96869 16.8011 4.54559 14.8232 3.51945C13.0412 2.59493 10.8827 3.11984 9.7165 4.66848C8.69606 4.20801 7.4518 4.39428 6.61244 5.22729L0.304063 11.4879C-0.101354 11.8902 -0.101354 12.5426 0.304063 12.9449C0.70948 13.3473 1.36679 13.3473 1.77221 12.9449L1.88393 12.834V16.394C1.88393 18.3856 3.51069 20 5.5174 20H11.4038C13.4105 20 15.0373 18.3856 15.0373 16.394V12.6169L15.1709 12.7496C15.5763 13.1519 16.2336 13.1519 16.6391 12.7496C17.0445 12.3472 17.0445 11.6949 16.6391 11.2926L15.5138 10.1758ZM11.0597 5.75544L14.2794 8.95081C14.5724 8.74701 14.8218 8.47245 14.999 8.1361C15.5902 7.01362 15.1527 5.62798 14.0216 5.04119C12.9809 4.50129 11.7158 4.82579 11.0597 5.75544ZM9.05935 6.68432L12.961 10.5564V16.394C12.961 17.2475 12.2638 17.9395 11.4038 17.9395H5.5174C4.65738 17.9395 3.9602 17.2475 3.9602 16.394V10.7735L8.08059 6.68431C8.35086 6.41608 8.78907 6.41608 9.05935 6.68432Z" fill="#3A4757"/>
<path d="M19.9355 9.58366C19.7371 10.1175 19.1401 10.3906 18.6022 10.1936L18.1079 10.0126C17.57 9.81564 17.2948 9.22322 17.4933 8.68939C17.6917 8.15556 18.2887 7.88248 18.8266 8.07944L19.3209 8.26045C19.8588 8.45741 20.134 9.04983 19.9355 9.58366Z" fill="#3A4757"/>
<path d="M10.8583 2.63261C10.3376 2.87081 9.72094 2.64501 9.48092 2.12826L9.26033 1.65336C9.02031 1.13661 9.24783 0.524606 9.76852 0.286403C10.2892 0.0481994 10.9059 0.274002 11.1459 0.790747L11.3665 1.26565C11.6065 1.7824 11.379 2.3944 10.8583 2.63261Z" fill="#3A4757"/>
<path d="M17.801 3.6212C17.2803 3.8594 17.0528 4.47141 17.2928 4.98815C17.5328 5.5049 18.1495 5.7307 18.6702 5.4925L19.1487 5.27358C19.6694 5.03538 19.8969 4.42337 19.6569 3.90663C19.4169 3.38988 18.8002 3.16408 18.2795 3.40228L17.801 3.6212Z" fill="#3A4757"/>
</svg>