<svg width="12" height="16" viewBox="0 0 12 16" fill="none" xmlns="http://www.w3.org/2000/svg">
<path d="M9.26934 4.16453C9.28088 4.08901 9.26934 4.00269 9.22317 3.93796C9.16547 3.84086 9.07314 3.77613 8.96927 3.74376C6.03781 3.03169 3.39489 3.71139 3.27948 3.74376C3.17561 3.77613 3.08328 3.84086 3.03711 3.92717C2.99095 4.00269 2.97941 4.08901 2.99095 4.16453C2.99095 4.18611 2.99095 4.20768 2.99095 4.21847V12.7094C2.99095 12.9251 3.17561 13.087 3.39489 13.087H9.02697C9.1193 13.087 9.21163 13.0438 9.26934 12.9899C9.26934 12.9899 9.29242 12.9683 9.30396 12.9575C9.37321 12.8928 9.40783 12.8065 9.40783 12.7094L9.28088 4.20768C9.28088 4.18611 9.28088 4.17532 9.28088 4.15374L9.26934 4.16453ZM8.3345 4.38031C8.14985 4.89818 7.99981 5.40526 7.91902 5.70735H4.30664L3.89116 4.38031C4.65287 4.24005 6.40713 3.99191 8.32296 4.38031H8.3345ZM3.93732 12.3425L4.43359 10.886H8.05752L8.46146 12.3425H3.93732ZM8.36913 10.1308H4.13352C3.99503 10.1308 3.86808 10.1955 3.78729 10.3034V6.39784C3.85654 6.44099 3.92578 6.46257 4.00657 6.46257H8.24217C8.3345 6.46257 8.42683 6.43021 8.49608 6.37626L8.55379 10.1632C8.55379 10.1632 8.43837 10.12 8.36913 10.12V10.1308Z" fill="#3A4757"/>
<path d="M11.936 5.63183L10.9435 4.34794C10.9435 4.34794 10.9089 4.33715 10.8973 4.31558V2.42751C10.7588 1.25152 9.77782 0 8.25438 0H4.01878C2.65692 0.0107889 1.49127 1.3702 1.49127 2.48146V4.4882C1.49127 4.4882 1.42202 4.4882 1.39894 4.50978L0.152492 5.43763C-0.0206258 5.56709 -0.0552493 5.80445 0.0947858 5.96628C0.175574 6.06339 0.290985 6.10654 0.406397 6.10654C0.498726 6.10654 0.579514 6.07417 0.660303 6.02023L1.49127 5.39447V13.7559C1.49127 15.029 2.57614 16 4.00724 16H8.35826C9.74319 16 10.8742 14.9966 10.8742 13.7559V5.56709L11.2666 6.07417C11.3474 6.17127 11.4628 6.22522 11.5898 6.22522C11.6706 6.22522 11.7514 6.20364 11.8321 6.1497C12.0168 6.03102 12.0514 5.79366 11.9245 5.62104L11.936 5.63183ZM10.0894 2.48146C9.51237 2.28726 8.38134 1.62913 8.10435 0.766015H8.25438C9.27001 0.766015 9.98556 1.6615 10.0894 2.48146ZM4.28423 0.766015C4.00724 1.62913 2.8762 2.28726 2.29915 2.49225C2.29915 1.72623 3.13011 0.766015 4.00724 0.766015H4.28423ZM4.23806 15.2448H4.01878C3.28015 15.2448 2.69155 14.8995 2.43764 14.3709C2.88775 14.5111 3.52251 14.6622 4.23806 14.7161V15.2556V15.2448ZM8.3698 15.2448H7.89661V14.5974C8.83144 14.5435 9.58162 14.3169 10.0086 14.1551C9.8009 14.7808 9.13151 15.2448 8.35826 15.2448H8.3698ZM10.0433 13.3136C10.0433 13.3136 8.98148 13.853 7.50421 13.853C7.28493 13.853 7.10027 14.0256 7.10027 14.2306V15.2448H5.04594V14.3385C5.04594 14.1335 4.86128 13.9609 4.642 13.9609C3.62638 13.9609 2.71463 13.6696 2.31069 13.5078V3.27984C3.11857 3.07485 4.82666 2.15779 5.10365 0.766015H7.28493C7.56192 2.15779 9.27001 3.07485 10.0779 3.27984V13.3028C10.0779 13.3028 10.0548 13.3136 10.0317 13.3243L10.0433 13.3136Z" fill="#3A4757"/>
<path d="M7.87289 6.87264H4.51441C4.29513 6.87264 4.11047 7.04526 4.11047 7.25025C4.11047 7.45524 4.29513 7.62787 4.51441 7.62787H7.87289C8.09217 7.62787 8.27683 7.45524 8.27683 7.25025C8.27683 7.04526 8.09217 6.87264 7.87289 6.87264Z" fill="#3A4757"/>
<path d="M7.87289 7.91887H4.51441C4.29513 7.91887 4.11047 8.0915 4.11047 8.29649C4.11047 8.50148 4.29513 8.6741 4.51441 8.6741H7.87289C8.09217 8.6741 8.27683 8.50148 8.27683 8.29649C8.27683 8.0915 8.09217 7.91887 7.87289 7.91887Z" fill="#3A4757"/>
<path d="M7.87289 8.9651H4.51441C4.29513 8.9651 4.11047 9.13773 4.11047 9.34272C4.11047 9.54771 4.29513 9.72033 4.51441 9.72033H7.87289C8.09217 9.72033 8.27683 9.54771 8.27683 9.34272C8.27683 9.13773 8.09217 8.9651 7.87289 8.9651Z" fill="#3A4757"/>
</svg>