<svg width="18" height="20" viewBox="0 0 18 20" fill="none" xmlns="http://www.w3.org/2000/svg">
<path d="M13.3767 0.322818C12.8791 -0.0471817 12.2697 -0.0971817 11.7314 0.162818C11.1627 0.442818 10.8072 1.03282 10.8072 1.70282V17.6328C10.8072 18.3628 11.1525 19.0328 11.7517 19.4828C12.2088 19.8228 12.7674 20.0028 13.3361 20.0028C13.5697 20.0028 13.8033 19.9728 14.0369 19.9128C15.4587 19.5328 16.2611 18.2028 16.0275 16.6128L15.5705 13.4528C15.9564 13.3328 16.3322 13.1928 16.6775 13.0328C17.5204 12.6428 18.0384 11.7728 17.9978 10.8128C17.754 5.39282 15.3572 1.78282 13.3767 0.332818V0.322818ZM15.8447 11.2128C15.4689 11.3928 15.0423 11.5328 14.5955 11.6528C14.2502 11.7328 13.9455 11.9428 13.7424 12.2328C13.5494 12.5228 13.458 12.8828 13.5088 13.2428L14.0369 16.8928C14.0978 17.3128 14.047 17.8328 13.5088 17.9828C13.2955 18.0428 13.1025 17.9728 12.9908 17.8928C12.8486 17.7928 12.8486 17.6328 12.8486 17.6328V2.51282C14.1486 3.85282 15.7939 6.62282 15.9869 10.8928C15.9869 11.0028 15.9564 11.1528 15.8345 11.2028L15.8447 11.2128Z" fill="#3A4757"/>
<path d="M7.1104 0.0628183H2.70264C1.59562 0.0628183 0.651096 0.832818 0.468286 1.89282C0.244851 3.21282 -0.0192088 5.23282 0.00110343 7.41282C0.0214157 8.99282 1.09797 10.3328 2.63154 10.7328L1.94093 16.6128C1.74796 18.2428 2.82451 19.6928 4.38855 19.9028C4.58152 19.9328 4.75417 19.9428 4.91667 19.9428H4.93698C5.09948 19.9428 5.27214 19.9228 5.42448 19.9028C6.98852 19.6928 8.06507 18.2528 7.87211 16.6128L7.18149 10.7328C8.71507 10.3428 9.79162 8.99282 9.81193 7.42282C9.83224 5.25282 9.56818 3.23282 9.34475 1.91282C9.16194 0.842818 8.21742 0.0728183 7.1104 0.0728183V0.0628183ZM6.61275 8.80282C6.38931 8.85282 6.15572 8.90282 5.91197 8.93282C5.3737 9.00282 4.98776 9.49282 5.0487 10.0328L5.84088 16.8328C5.90182 17.3028 5.64791 17.8528 5.11979 17.9228C4.9573 17.9528 4.84558 17.9528 4.66277 17.9228C4.16512 17.8628 3.91122 17.3128 3.962 16.8428L4.75417 10.0428C4.81511 9.51282 4.43933 9.02282 3.8909 8.94282C3.65731 8.90282 3.42372 8.86282 3.19013 8.81282C2.50967 8.66282 2.03233 8.09282 2.03233 7.40282C2.01202 5.26282 2.29639 3.25282 2.46904 2.24282C2.48936 2.14282 2.58076 2.07282 2.70264 2.07282L2.75342 2.06282L2.59092 5.71282C2.56045 6.26282 2.99716 6.72282 3.55575 6.75282H3.59637C4.13465 6.75282 4.59168 6.34282 4.61199 5.80282L4.78464 2.06282H5.00808L5.18073 5.79282C5.2112 6.33282 5.65807 6.75282 6.19634 6.75282H6.18619C6.18619 6.75282 6.21666 6.74282 6.23697 6.74282C6.79556 6.72282 7.22212 6.25282 7.2018 5.70282L7.0393 2.06282H7.1104C7.21196 2.06282 7.32368 2.11282 7.34399 2.23282C7.51664 3.24282 7.80101 5.26282 7.7807 7.39282C7.77055 8.08282 7.30336 8.65282 6.61275 8.80282Z" fill="#3A4757"/>
</svg>