<svg width="18" height="20" viewBox="0 0 18 20" fill="none" xmlns="http://www.w3.org/2000/svg">
<path fill-rule="evenodd" clip-rule="evenodd" d="M2.49107 0C1.1153 0 0 1.06763 0 2.38462V17.6154C0 18.9324 1.11531 20 2.49107 20H15.5089C16.8847 20 18 18.9324 18 17.6154V2.38462C18 1.06764 16.8847 0 15.5089 0H2.49107ZM15.9107 13.8461V2.38462C15.9107 2.17219 15.7308 2 15.5089 2H2.49107C2.26918 2 2.08929 2.1722 2.08929 2.38462V13.8461H15.9107ZM2.08929 15.8461H15.9107V17.6154C15.9107 17.8278 15.7309 18 15.5089 18H2.49107C2.26916 18 2.08929 17.8278 2.08929 17.6154V15.8461Z" fill="#3A4757"/>
<path fill-rule="evenodd" clip-rule="evenodd" d="M4.33936 4.46156C4.33936 3.90927 4.80706 3.46156 5.384 3.46156H12.6161C13.1931 3.46156 13.6608 3.90927 13.6608 4.46156C13.6608 5.01384 13.1931 5.46156 12.6161 5.46156H5.384C4.80706 5.46156 4.33936 5.01384 4.33936 4.46156Z" fill="#3A4757"/>
<path fill-rule="evenodd" clip-rule="evenodd" d="M4.33936 7.9231C4.33936 7.37081 4.80706 6.9231 5.384 6.9231H12.6161C13.1931 6.9231 13.6608 7.37081 13.6608 7.9231C13.6608 8.47538 13.1931 8.9231 12.6161 8.9231H5.384C4.80706 8.9231 4.33936 8.47538 4.33936 7.9231Z" fill="#3A4757"/>
<path fill-rule="evenodd" clip-rule="evenodd" d="M4.33936 11.3846C4.33936 10.8324 4.80706 10.3846 5.384 10.3846H9.72329C10.3002 10.3846 10.7679 10.8324 10.7679 11.3846C10.7679 11.9369 10.3002 12.3846 9.72329 12.3846H5.384C4.80706 12.3846 4.33936 11.9369 4.33936 11.3846Z" fill="#3A4757"/>
</svg>