<svg width="20" height="20" viewBox="0 0 20 20" fill="none" xmlns="http://www.w3.org/2000/svg">
<path d="M19.4239 11.405L8.47737 0.413223C8.31276 0.247934 8.14815 0.165289 7.98354 0.0826446C7.81893 -3.07875e-08 7.65432 0 7.40741 0L2.05761 0.826446C1.7284 0.826446 1.48148 0.991736 1.23457 1.15702C0.987654 1.4876 0.823045 1.81818 0.823045 1.98347L0 7.52066C0 7.68595 1.83965e-08 7.93388 0.0823046 8.09917C0.164609 8.26446 0.246914 8.42975 0.411523 8.5124L11.358 19.5041C11.6872 19.8347 12.1811 20 12.6749 20C13.1687 20 13.5802 19.8347 13.9918 19.5041L19.5062 13.9669C19.8354 13.6364 20 13.1405 20 12.6446C19.9177 12.2314 19.7531 11.8182 19.4239 11.405ZM5.84362 7.43802C5.02058 7.43802 4.36214 6.77686 4.36214 5.95041C4.36214 5.12397 5.02058 4.46281 5.84362 4.46281C6.66667 4.46281 7.3251 5.12397 7.3251 5.95041C7.3251 6.77686 6.66667 7.43802 5.84362 7.43802Z" fill="#3A4757"/>
</svg>