<svg width="20" height="20" viewBox="0 0 20 20" fill="none" xmlns="http://www.w3.org/2000/svg">
<path fill-rule="evenodd" clip-rule="evenodd" d="M7.47692 1.96348L2.69944 2.69944L1.96348 7.47692L12.5323 18.0458C12.5467 18.0601 12.5661 18.0681 12.5863 18.0681C12.6066 18.0681 12.626 18.0601 12.6403 18.0458L18.0458 12.6403C18.0601 12.626 18.0681 12.6066 18.0681 12.5863C18.0681 12.5661 18.0601 12.5467 18.0458 12.5323L7.47692 1.96348ZM7.51707 0.00502504C7.7349 -0.0130549 7.95401 0.0177929 8.15837 0.0953111C8.35846 0.171205 8.53945 0.289953 8.68869 0.443162L19.4122 11.1667C19.7883 11.5433 20 12.0541 20 12.5863C20 13.1185 19.7888 13.629 19.4127 14.0055L14.0059 19.4122C13.6294 19.7883 13.1185 20 12.5863 20C12.0541 20 11.5437 19.7888 11.1671 19.4127L0.443162 8.68869C0.289953 8.53945 0.171205 8.35846 0.0953111 8.15837C0.0177929 7.95401 -0.0130549 7.7349 0.00502504 7.51707C0.00689045 7.4946 0.00954233 7.47219 0.0129759 7.44991L0.827488 2.16248C0.859706 1.81998 1.01036 1.49866 1.25451 1.25451C1.49866 1.01036 1.81998 0.859706 2.16248 0.827488L7.44991 0.0129759C7.47219 0.00954233 7.4946 0.00689045 7.51707 0.00502504Z" fill="#3A4757"/>
<path fill-rule="evenodd" clip-rule="evenodd" d="M4.32394 5.98477C4.32394 5.06752 5.06752 4.32394 5.98477 4.32394C6.90203 4.32394 7.64561 5.06752 7.64561 5.98477C7.64561 6.90203 6.90203 7.64561 5.98477 7.64561C5.06752 7.64561 4.32394 6.90203 4.32394 5.98477Z" fill="#3A4757"/>
</svg>