<svg width="20" height="20" viewBox="0 0 20 20" fill="none" xmlns="http://www.w3.org/2000/svg">
<path fill-rule="evenodd" clip-rule="evenodd" d="M19 8.99999H17.1583C16.94 7.4439 16.221 6.00123 15.1099 4.89014C13.9988 3.77904 12.5561 3.05993 11 2.84164V1.00001C11 0.734794 10.8946 0.480403 10.7071 0.292867C10.5196 0.105331 10.2652 0 10 0C9.73478 0 9.48044 0.105331 9.29291 0.292867C9.10537 0.480403 8.99999 0.734794 8.99999 1.00001V2.84164C7.44291 3.05957 5.99908 3.77833 4.88658 4.88932C3.77408 6.00032 3.05333 7.44321 2.8333 8.99999H1.00001C0.734794 8.99999 0.480403 9.10537 0.292867 9.29291C0.105331 9.48044 0 9.73478 0 10C0 10.2652 0.105331 10.5196 0.292867 10.7071C0.480403 10.8946 0.734794 11 1.00001 11H2.8333C3.05296 12.5578 3.77336 14.0018 4.88576 15.1142C5.99816 16.2266 7.44223 16.947 8.99999 17.1666V19C8.99999 19.2652 9.10537 19.5195 9.29291 19.7071C9.48044 19.8946 9.73478 20 10 20C10.2652 20 10.5196 19.8946 10.7071 19.7071C10.8946 19.5195 11 19.2652 11 19V17.1666C12.5568 16.9466 13.9996 16.2259 15.1106 15.1134C16.2216 14.0009 16.9404 12.5571 17.1583 11H19C19.2652 11 19.5195 10.8946 19.7071 10.7071C19.8946 10.5196 20 10.2652 20 10C20 9.73478 19.8946 9.48044 19.7071 9.29291C19.5195 9.10537 19.2652 8.99999 19 8.99999ZM10 12.025C9.60444 12.025 9.21775 11.9077 8.88885 11.6879C8.55996 11.4682 8.30359 11.1558 8.15221 10.7904C8.00084 10.4249 7.96126 10.0228 8.03843 9.63481C8.1156 9.24684 8.30606 8.89049 8.58576 8.61079C8.86547 8.33108 9.22187 8.14058 9.60983 8.06341C9.99779 7.98623 10.3999 8.02586 10.7654 8.17724C11.1308 8.32861 11.4432 8.58493 11.663 8.91383C11.8827 9.24273 12 9.62941 12 10.025C12.0033 10.2893 11.954 10.5517 11.8549 10.7968C11.7557 11.0418 11.6088 11.2648 11.4226 11.4525C11.2365 11.6402 11.0148 11.7889 10.7706 11.8901C10.5263 11.9913 10.2644 12.0428 10 12.0417V12.025Z" fill="#3A4757"/>
</svg>