<svg width="20" height="20" viewBox="0 0 20 20" fill="none" xmlns="http://www.w3.org/2000/svg">
<path fill-rule="evenodd" clip-rule="evenodd" d="M10.0002 2.07373e-10C10.5525 1.11264e-05 11.0002 0.447735 11.0002 1.00002L11.0001 2.83781C14.1934 3.27958 16.7205 5.80667 17.1623 8.99999L18.9998 8.99999C19.5521 9 19.9998 9.44771 19.9998 10C19.9998 10.5523 19.5521 11 18.9998 11L17.1623 11C16.7205 14.1933 14.1934 16.7204 11.0001 17.1622L11.0002 19C11.0002 19.5523 10.5525 20 10.0002 20C9.4479 20 9.00018 19.5523 9.00017 19L9.00013 17.1622C5.8068 16.7204 3.2797 14.1933 2.83793 11L1 11C0.447718 11 1.39078e-06 10.5523 0 10C-1.39077e-06 9.44771 0.447713 9 0.999997 8.99999L2.83793 8.99999C3.27969 5.80666 5.8068 3.27956 9.00013 2.8378L9.00017 0.99998C9.00018 0.447695 9.4479 -1.1126e-05 10.0002 2.07373e-10ZM10.0001 4.76922C7.11124 4.76922 4.76934 7.11111 4.76934 9.99999C4.76934 12.8889 7.11124 15.2308 10.0001 15.2308C12.889 15.2308 15.2309 12.8889 15.2309 9.99999C15.2309 7.11111 12.889 4.76922 10.0001 4.76922ZM8.00008 10.0271C8.00008 8.92249 8.89551 8.02706 10.0001 8.02706C11.1046 8.02706 12.0001 8.92249 12.0001 10.0271C12.0001 11.1316 11.1046 12.0271 10.0001 12.0271C8.89551 12.0271 8.00008 11.1316 8.00008 10.0271Z" fill="#3A4757"/>
</svg>