<svg width="20" height="20" viewBox="0 0 20 20" fill="none" xmlns="http://www.w3.org/2000/svg">
<path d="M8.16369 2.89348C7.70858 2.89348 7.33814 3.26444 7.33814 3.72019V4.69528C7.33814 5.15103 7.70858 5.52199 8.16369 5.52199C8.6188 5.52199 8.98923 5.15103 8.98923 4.69528V3.72019C8.98923 3.26444 8.6188 2.89348 8.16369 2.89348Z" fill="#3A4757"/>
<path d="M11.8469 2.89348C11.3918 2.89348 11.0213 3.26444 11.0213 3.72019V4.69528C11.0213 5.15103 11.3918 5.52199 11.8469 5.52199C12.302 5.52199 12.6724 5.15103 12.6724 4.69528V3.72019C12.6724 3.26444 12.302 2.89348 11.8469 2.89348Z" fill="#3A4757"/>
<path d="M19.6578 14.8596C19.3509 14.2872 18.5465 13.1426 17.1177 13.1426C17.0119 13.1426 16.906 13.1426 16.8002 13.1638C16.525 11.4679 15.3608 10.2385 14.5352 9.56015C15.5301 8.54266 16.1016 7.21781 16.1016 5.85056C16.1016 5.4478 16.0487 5.03445 15.9535 4.64229C16.8213 4.27133 17.414 3.40223 17.414 2.42713C17.414 1.09168 16.3345 0.0105988 15.0009 0.0105988C14.2071 0.0105988 13.4874 0.392157 13.0429 1.02809C11.2013 0.0317966 8.80931 0.0317965 6.9677 1.01749C6.52318 0.392157 5.80347 0 5.00967 0C3.6761 0 2.59654 1.08108 2.59654 2.41653C2.59654 3.39163 3.18924 4.26073 4.05712 4.63169C3.96186 5.02385 3.90894 5.4266 3.90894 5.83996C3.90894 7.21781 4.46989 8.54266 5.46478 9.54955C4.64982 10.2279 3.475 11.4573 3.19982 13.1532C3.09398 13.1426 2.98814 13.132 2.8823 13.132C1.1677 13.132 0.373909 14.8066 0.236318 15.1563C-0.388134 16.7038 0.26807 18.6751 1.6969 19.5548C2.19435 19.8622 2.73413 20 3.40091 20C4.11004 20 4.82975 19.788 5.34836 19.6396C6.34325 19.3641 7.26405 18.8977 8.0896 18.2406C8.79872 18.4844 9.49726 18.548 10.037 18.548C10.5133 18.548 11.2013 18.495 11.9104 18.2406C12.7465 18.8977 13.6673 19.3641 14.6516 19.6396C15.202 19.7986 15.89 19.9894 16.6414 20C17.2659 20 17.8057 19.8516 18.3031 19.5443C19.7319 18.6645 20.3881 16.6932 19.7637 15.1563L19.6578 14.8596ZM17.4458 18.124L17.3717 18.1664C17.3188 18.1982 17.2659 18.2194 17.2024 18.2406C17.1071 17.6895 17.2765 17.1489 17.6469 16.8521C17.8586 16.6826 18.1232 16.619 18.3454 16.6084C18.2819 17.2231 17.9432 17.8272 17.4458 18.124ZM15.0962 18.0392C14.5246 17.8802 13.9743 17.6365 13.4557 17.3079C13.5086 17.2549 13.5615 17.2019 13.6144 17.1489C13.9213 16.8203 14.1754 16.4282 14.3553 16.0042L15.0009 16.2374C15.2126 16.3116 15.4454 16.301 15.6359 16.195C15.837 16.089 15.9958 15.9088 16.0593 15.7075C16.2286 15.1775 16.6838 14.796 17.1389 14.7854C17.3611 14.7854 17.5516 14.8914 17.7104 15.0291C17.2976 15.1245 16.9272 15.3047 16.5991 15.5591C15.8476 16.1632 15.456 17.1277 15.5195 18.1452C15.3819 18.1134 15.2443 18.071 15.0962 18.0286V18.0392ZM4.49106 18.1558C4.55456 17.1383 4.16296 16.1738 3.4115 15.5697C3.09398 15.3153 2.71296 15.1351 2.30019 15.0397C2.45894 14.902 2.66004 14.796 2.8823 14.796C3.33741 14.796 3.78194 15.1881 3.95128 15.7075C4.01478 15.9194 4.17354 16.0996 4.37464 16.2056C4.57573 16.301 4.80858 16.3116 5.03084 16.2374L5.66588 16.0042C5.85639 16.4388 6.09982 16.8203 6.40675 17.1595C6.45967 17.2125 6.50201 17.2655 6.55493 17.3185C6.03631 17.6471 5.48595 17.8908 4.91442 18.0498L4.49106 18.1664V18.1558ZM2.37427 16.8627C2.74471 17.1595 2.90347 17.7001 2.8188 18.2512C2.73413 18.2194 2.64946 18.1876 2.57537 18.1346C2.08851 17.8378 1.74982 17.2549 1.68632 16.619C1.90858 16.6296 2.16259 16.6932 2.37427 16.8627ZM8.42828 9.0514C8.58704 9.27398 8.77755 9.46476 8.99982 9.60254C8.26953 9.37997 7.74033 8.93482 7.74033 8.47907C7.74033 8.23529 7.89909 7.98092 8.17427 7.75835C8.03668 8.1505 8.12135 8.62745 8.42828 9.0514ZM11.5929 9.0514C11.8892 8.62745 11.9845 8.1611 11.8469 7.75835C12.1221 7.98092 12.2808 8.23529 12.2808 8.47907C12.2808 8.93482 11.7411 9.39057 11.0108 9.61314C11.233 9.46476 11.4447 9.27398 11.5929 9.0514ZM14.8633 14.4144L14.7363 14.372C14.7892 13.4499 14.6199 12.496 14.2494 11.5845C14.7681 12.1993 15.2232 13.0154 15.202 14.0011C15.075 14.1282 14.9586 14.2766 14.8633 14.425V14.4144ZM13.8367 7.81134C13.4451 6.48649 11.9104 5.53259 10.0159 5.53259C8.12135 5.53259 6.5761 6.49709 6.19507 7.81134C5.79288 7.21781 5.58121 6.53948 5.58121 5.82936C5.58121 3.6672 7.57099 1.90779 10.0159 1.90779C12.4608 1.90779 14.4505 3.6672 14.4505 5.82936C14.4505 6.53948 14.2389 7.21781 13.8367 7.81134ZM5.28486 14.372L5.15785 14.4144C5.05201 14.266 4.94617 14.1176 4.81916 13.9905C4.78741 13.026 5.2531 12.2099 5.77172 11.5951C5.40128 12.5066 5.23194 13.4499 5.29544 14.372H5.28486ZM7.93084 11.0758C8.46004 11.2454 9.0104 11.3514 9.56077 11.3937C9.85712 11.4149 10.1641 11.4149 10.4392 11.3937C11.0002 11.3619 11.5505 11.256 12.0797 11.0758C13.4133 12.9518 13.3075 15.0291 12.3867 16.0254C11.6458 16.8203 10.471 16.9157 10.0053 16.8839H9.98412C9.61369 16.9051 8.37537 16.8521 7.60274 16.0254C6.68193 15.0291 6.5761 12.9518 7.90967 11.0758H7.93084ZM15.3078 3.10546C15.0538 2.7027 14.7575 2.32114 14.3976 1.98198C14.5352 1.7806 14.7575 1.66402 15.0115 1.66402C15.4243 1.66402 15.763 2.00318 15.763 2.41653C15.763 2.7345 15.583 2.98887 15.3078 3.10546ZM5.00967 1.66402C5.26369 1.66402 5.48595 1.7912 5.62354 1.98198C5.27427 2.32114 4.96734 2.6921 4.71332 3.10546C4.44872 2.98887 4.25821 2.7239 4.25821 2.41653C4.25821 2.00318 4.5969 1.66402 5.00967 1.66402Z" fill="#3A4757"/>
</svg>