<svg width="17" height="16" viewBox="0 0 17 16" fill="none" xmlns="http://www.w3.org/2000/svg">
<path fill-rule="evenodd" clip-rule="evenodd" d="M8.88632 4.5714V9.90471H12.3636C12.577 9.90471 12.7499 10.0753 12.7499 10.2857C12.7499 10.4727 12.6133 10.6282 12.433 10.6605L12.3636 10.6666H11.5908V15.619C11.5908 15.8294 11.4179 15.9999 11.2045 15.9999C11.0148 15.9999 10.8571 15.8651 10.8243 15.6874L10.8181 15.619V10.6666H8.88632V15.238H9.65904C9.87242 15.238 10.0454 15.4086 10.0454 15.619C10.0454 15.806 9.90873 15.9615 9.72849 15.9938L9.65904 15.9999H7.34087C7.12749 15.9999 6.95451 15.8294 6.95451 15.619C6.95451 15.4319 7.09118 15.2764 7.27142 15.2441L7.34087 15.238H8.11359V10.6666H6.18179V15.619C6.18179 15.8294 6.00881 15.9999 5.79542 15.9999C5.60575 15.9999 5.448 15.8651 5.41529 15.6874L5.40906 15.619V10.6666H4.63634C4.42296 10.6666 4.24998 10.496 4.24998 10.2857C4.24998 10.0986 4.38665 9.9431 4.56689 9.91084L4.63634 9.90471H8.11359V4.5714H2.73266C2.35637 4.5714 2.18676 4.15757 2.43516 3.92853L2.49048 3.88537L8.25777 0.0717035C8.40235 -0.0239012 8.59756 -0.0239012 8.74214 0.0717035L14.5094 3.88537C14.8348 4.10055 14.6686 4.5714 14.2672 4.5714H8.88632ZM0.386362 9.90471C0.576034 9.90471 0.733784 10.0395 0.766498 10.2172L0.772723 10.2857V12.1904H3.47725C3.6743 12.1904 3.8369 12.3359 3.86063 12.5238L3.87515 12.57L4.6248 15.5266C4.67656 15.7307 4.55069 15.9375 4.34368 15.9885C4.15967 16.0339 3.97349 15.9409 3.89803 15.7763L3.87515 15.7114L3.17512 12.9523H0.772723V15.619C0.772723 15.8294 0.599743 15.9999 0.386362 15.9999C0.196689 15.9999 0.0389388 15.8651 0.00622482 15.6874L0 15.619V10.2857C0 10.0753 0.17298 9.90471 0.386362 9.90471ZM16.6136 9.90471C16.827 9.90471 17 10.0753 17 10.2857V15.619L16.9938 15.6874C16.9611 15.8651 16.8033 15.9999 16.6136 15.9999C16.4003 15.9999 16.2273 15.8294 16.2273 15.619V12.9523H13.8249L13.1248 15.7114L13.102 15.7763C13.0265 15.9409 12.8403 16.0339 12.6563 15.9885C12.4493 15.9375 12.3234 15.7307 12.3752 15.5266L13.1248 12.57L13.1394 12.5238C13.1631 12.3359 13.3257 12.1904 13.5227 12.1904H16.2273V10.2857L16.2335 10.2172C16.2662 10.0395 16.424 9.90471 16.6136 9.90471ZM8.49991 0.845605L4.01661 3.8095H12.9817L8.49991 0.845605Z" fill="#3A4757"/>
</svg>