<svg width="22" height="16" viewBox="0 0 22 16" fill="none" xmlns="http://www.w3.org/2000/svg">
<path fill-rule="evenodd" clip-rule="evenodd" d="M19.7176 3.48771C19.7176 1.40697 18.6458 0 17.0667 0C15.4877 0 14.4158 1.40697 14.4158 3.48771C14.4158 5.57835 15.4781 6.98533 17.0667 6.98533C18.6553 6.98533 19.7176 5.57835 19.7176 3.48771ZM16.1863 3.48771C16.1863 2.32844 16.5212 1.62496 17.0667 1.62496C17.6122 1.62496 17.9471 2.32844 17.9471 3.48771C17.9471 4.65689 17.6218 5.36037 17.0667 5.36037C16.5116 5.36037 16.1863 4.65689 16.1863 3.48771ZM2.30768 8.61351C2.63989 8.34815 2.69582 7.86167 2.4326 7.5269C2.16938 7.19203 1.68669 7.13561 1.35448 7.40097C0.579848 8.01956 0 8.83204 0 9.81201C0 10.5793 0.358968 11.2492 0.882497 11.7947C1.40257 12.3367 2.12033 12.7967 2.95311 13.1774C4.46065 13.8666 6.46198 14.3485 8.69767 14.5462V15.2265C8.69767 15.53 8.87378 15.8055 9.14801 15.9309C9.42224 16.0563 9.74385 16.0084 9.9705 15.8087L11.5054 14.455C11.6719 14.3081 11.7674 14.0959 11.7674 13.8729C11.7674 13.6499 11.6719 13.4376 11.5054 13.2908L9.9705 11.9372C9.74385 11.7373 9.42224 11.6895 9.14801 11.815C8.87378 11.9404 8.69767 12.2157 8.69767 12.5192V12.9929C6.64452 12.7994 4.8705 12.3552 3.58708 11.7685C2.86084 11.4366 2.32727 11.0751 1.98577 10.7192C1.64773 10.367 1.53488 10.0626 1.53488 9.81201C1.53488 9.49539 1.72068 9.08224 2.30768 8.61351ZM20.6455 7.40097C20.3133 7.13561 19.8306 7.19203 19.5674 7.5269C19.3042 7.86167 19.3601 8.34815 19.6924 8.61351C20.2793 9.08224 20.4651 9.49539 20.4651 9.81201C20.4651 10.283 20.0298 10.9592 18.7066 11.6275C17.4479 12.2632 15.6272 12.7561 13.4808 12.9754C13.0591 13.0185 12.7519 13.3979 12.7946 13.8229C12.8374 14.248 13.2138 14.5576 13.6355 14.5146C15.9024 14.2829 17.9189 13.7556 19.3942 13.0106C20.8047 12.2981 22 11.2333 22 9.81201C22 8.83204 21.4201 8.01956 20.6455 7.40097ZM11.1822 6.98533C9.7467 6.98533 8.694 5.94496 8.694 4.52808C8.694 3.75523 8.94282 2.96257 9.79455 1.73395L10.9334 0.0990826H12.7421L11.1822 2.36808C12.6368 2.36808 13.7183 3.33909 13.7183 4.62716C13.7183 5.98459 12.6464 6.98533 11.1822 6.98533ZM11.1822 5.509C11.6798 5.509 12.0435 5.13248 12.0435 4.62716C12.0435 4.11193 11.6798 3.74533 11.1822 3.74533C10.6846 3.74533 10.3209 4.11193 10.3209 4.62716C10.3209 5.14239 10.6846 5.509 11.1822 5.509ZM3.1582 6.00441C3.78982 6.62863 4.66069 6.98533 5.56027 6.98533C6.97663 6.98533 8.00062 6.1134 8.00062 4.9145C8.00062 4.23083 7.61782 3.70569 6.93835 3.38863C7.42642 3.05175 7.71352 2.58606 7.71352 2.0312C7.71352 0.862019 6.75652 0 5.44543 0C4.61284 0 3.79939 0.435964 3.2539 1.17908L4.22047 2.17982C4.5937 1.75376 4.99564 1.52587 5.34973 1.52587C5.76124 1.52587 6.03877 1.76367 6.03877 2.13028C6.03877 2.49688 5.76124 2.73468 5.32102 2.73468H4.79467V4.22092H5.36887C5.97178 4.22092 6.32587 4.4389 6.32587 4.81542C6.32587 5.16221 6.00049 5.40991 5.56027 5.40991C5.08177 5.40991 4.5937 5.20184 4.0195 4.73615L3.1582 6.00441Z" fill="#3A4757"/>
</svg>