<svg width="21" height="18" viewBox="0 0 21 18" fill="none" xmlns="http://www.w3.org/2000/svg">
<path d="M18.2622 8.94103L16.5776 10.35C17.2819 10.6417 17.7921 10.9619 18.1139 11.2685C18.445 11.5841 18.5115 11.8171 18.5115 11.9576C18.5115 12.0982 18.445 12.3312 18.1139 12.6468C17.7804 12.9646 17.2445 13.2969 16.4999 13.5971C15.0159 14.1952 12.8971 14.5878 10.5057 14.5878C9.95345 14.5878 9.50574 15.0355 9.50574 15.5878C9.50574 16.1401 9.95345 16.5878 10.5057 16.5878C13.0881 16.5878 15.4721 16.1677 17.2476 15.452C18.1327 15.0953 18.9157 14.6453 19.4937 14.0946C20.074 13.5415 20.5115 12.8195 20.5115 11.9576C20.5115 11.0958 20.074 10.3738 19.4937 9.82072C19.1489 9.49214 18.7311 9.19946 18.2622 8.94103Z" fill="#3A4757"/>
<path d="M1.51782 9.82072C1.86236 9.49236 2.27981 9.19985 2.74832 8.94156L4.43845 10.3481C3.73175 10.6403 3.2201 10.9612 2.89761 11.2685C2.56652 11.5841 2.5 11.8171 2.5 11.9576C2.5 12.1038 2.57286 12.3525 2.94179 12.6879C3.26869 12.985 3.76767 13.2898 4.43864 13.5673L4.71075 12.4583C4.74565 12.3161 4.92794 12.2748 5.02074 12.3881L7.41556 15.3114C7.49059 15.403 7.45674 15.5409 7.34783 15.5874L3.87187 17.0702C3.73718 17.1276 3.59471 17.0066 3.62961 16.8644L3.95753 15.528C3.02765 15.173 2.20585 14.7216 1.59657 14.1679C0.976565 13.6043 0.5 12.8581 0.5 11.9576C0.5 11.0958 0.93748 10.3738 1.51782 9.82072Z" fill="#3A4757"/>
<path d="M6.45991 9.68511C5.68016 9.68511 5.04305 9.571 4.54857 9.34278C4.05409 9.10505 3.69749 8.78174 3.47878 8.37284C3.26958 7.95444 3.17924 7.47898 3.20777 6.94646C3.21728 6.83235 3.27909 6.7753 3.3932 6.7753H4.91943C5.04305 6.7753 5.10485 6.8276 5.10485 6.9322C5.10485 7.32208 5.22372 7.59784 5.46145 7.7595C5.69918 7.91165 6.05577 7.98772 6.53123 7.98772C6.99718 7.98772 7.35378 7.89263 7.60102 7.70244C7.85777 7.51226 7.98614 7.23649 7.98614 6.87514V6.6184C7.98614 6.26656 7.86728 6.00505 7.62955 5.83389C7.39182 5.65321 7.03997 5.56288 6.57402 5.56288H5.46145C5.33783 5.56288 5.27602 5.50107 5.27602 5.37745V4.15076C5.27602 4.02714 5.33783 3.96533 5.46145 3.96533H6.3886C6.87357 3.96533 7.2254 3.87975 7.44412 3.70858C7.66283 3.52791 7.77218 3.2569 7.77218 2.89555V2.62454C7.77218 2.30122 7.66283 2.06349 7.44412 1.91135C7.23491 1.74969 6.90685 1.66886 6.45991 1.66886C5.99396 1.66886 5.65163 1.75445 5.43292 1.92561C5.22372 2.08727 5.11912 2.33451 5.11912 2.66733C5.11912 2.79095 5.05731 2.85276 4.93369 2.85276H3.40746C3.35992 2.85276 3.31713 2.83849 3.27909 2.80997C3.25056 2.77193 3.2363 2.72438 3.2363 2.66733C3.2363 1.80199 3.51682 1.1411 4.07786 0.684662C4.6389 0.228221 5.47571 0 6.58829 0C7.69135 0 8.49488 0.209202 8.99887 0.627607C9.51236 1.0365 9.76911 1.64034 9.76911 2.43911C9.76911 3.00966 9.65025 3.48036 9.41252 3.85122C9.1843 4.22208 8.85148 4.48834 8.41405 4.64999V4.67852C8.92755 4.82116 9.31743 5.08266 9.58368 5.46303C9.84994 5.83389 9.98307 6.30459 9.98307 6.87514C9.98307 7.78803 9.67878 8.48695 9.07019 8.97192C8.47111 9.44738 7.60102 9.68511 6.45991 9.68511Z" fill="#3A4757"/>
<path d="M10.9577 9.51394C10.8341 9.51394 10.7723 9.45214 10.7723 9.32852V0.356595C10.7723 0.232976 10.8341 0.171166 10.9577 0.171166H14.0673C15.5602 0.171166 16.668 0.518251 17.3907 1.21242C18.1134 1.89708 18.4748 2.91457 18.4748 4.26487V5.22055C18.4748 6.64692 18.1134 7.72146 17.3907 8.44416C16.6775 9.15735 15.5697 9.51394 14.0673 9.51394H10.9577ZM12.812 7.77376H13.9389C14.8042 7.77376 15.4366 7.55505 15.836 7.11763C16.2449 6.68021 16.4493 6.03358 16.4493 5.17775V4.30766C16.4493 3.5184 16.2449 2.92408 15.836 2.52469C15.4366 2.11579 14.8042 1.91135 13.9389 1.91135H12.812V7.77376Z" fill="#3A4757"/>
</svg>