<svg width="5" height="20" viewBox="0 0 5 20" fill="none" xmlns="http://www.w3.org/2000/svg">
<path d="M2.25 4.61539C3.49264 4.61539 4.5 3.5822 4.5 2.30769C4.5 1.03319 3.49264 0 2.25 0C1.00736 0 0 1.03319 0 2.30769C0 3.5822 1.00736 4.61539 2.25 4.61539Z" fill="#3A4757"/>
<path d="M2.25 12.3077C3.49264 12.3077 4.5 11.2745 4.5 10C4.5 8.7255 3.49264 7.69231 2.25 7.69231C1.00736 7.69231 0 8.7255 0 10C0 11.2745 1.00736 12.3077 2.25 12.3077Z" fill="#3A4757"/>
<path d="M2.25 20C3.49264 20 4.5 18.9668 4.5 17.6923C4.5 16.4178 3.49264 15.3846 2.25 15.3846C1.00736 15.3846 0 16.4178 0 17.6923C0 18.9668 1.00736 20 2.25 20Z" fill="#3A4757"/>
</svg>