<svg width="20" height="5" viewBox="0 0 20 5" fill="none" xmlns="http://www.w3.org/2000/svg">
<path d="M17.6923 4.5C18.9668 4.5 20 3.49264 20 2.25C20 1.00736 18.9668 0 17.6923 0C16.4178 0 15.3847 1.00736 15.3847 2.25C15.3847 3.49264 16.4178 4.5 17.6923 4.5Z" fill="#3A4757"/>
<path d="M9.99978 4.5C11.2743 4.5 12.3075 3.49264 12.3075 2.25C12.3075 1.00736 11.2743 0 9.99978 0C8.72529 0 7.69211 1.00736 7.69211 2.25C7.69211 3.49264 8.72529 4.5 9.99978 4.5Z" fill="#3A4757"/>
<path d="M2.30767 4.5C3.58216 4.5 4.61534 3.49264 4.61534 2.25C4.61534 1.00736 3.58216 0 2.30767 0C1.03318 0 0 1.00736 0 2.25C0 3.49264 1.03318 4.5 2.30767 4.5Z" fill="#3A4757"/>
</svg>