<svg width="24" height="24" viewBox="0 0 24 24" fill="none" xmlns="http://www.w3.org/2000/svg">
<path d="M12.25 6.61539C13.4926 6.61539 14.5 5.5822 14.5 4.30769C14.5 3.03319 13.4926 2 12.25 2C11.0074 2 10 3.03319 10 4.30769C10 5.5822 11.0074 6.61539 12.25 6.61539Z" fill="#3A4757"/>
<path d="M12.25 14.3077C13.4926 14.3077 14.5 13.2745 14.5 12C14.5 10.7255 13.4926 9.69231 12.25 9.69231C11.0074 9.69231 10 10.7255 10 12C10 13.2745 11.0074 14.3077 12.25 14.3077Z" fill="#3A4757"/>
<path d="M12.25 22C13.4926 22 14.5 20.9668 14.5 19.6923C14.5 18.4178 13.4926 17.3846 12.25 17.3846C11.0074 17.3846 10 18.4178 10 19.6923C10 20.9668 11.0074 22 12.25 22Z" fill="#3A4757"/>
</svg>