<svg width="24" height="24" viewBox="0 0 24 24" fill="none" xmlns="http://www.w3.org/2000/svg">
<path d="M19.6923 14.5C20.9668 14.5 22 13.4926 22 12.25C22 11.0074 20.9668 10 19.6923 10C18.4178 10 17.3847 11.0074 17.3847 12.25C17.3847 13.4926 18.4178 14.5 19.6923 14.5Z" fill="#3A4757"/>
<path d="M11.9998 14.5C13.2743 14.5 14.3075 13.4926 14.3075 12.25C14.3075 11.0074 13.2743 10 11.9998 10C10.7253 10 9.69211 11.0074 9.69211 12.25C9.69211 13.4926 10.7253 14.5 11.9998 14.5Z" fill="#3A4757"/>
<path d="M4.30767 14.5C5.58216 14.5 6.61534 13.4926 6.61534 12.25C6.61534 11.0074 5.58216 10 4.30767 10C3.03318 10 2 11.0074 2 12.25C2 13.4926 3.03318 14.5 4.30767 14.5Z" fill="#3A4757"/>
</svg>