<svg width="21" height="18" viewBox="0 0 21 18" fill="none" xmlns="http://www.w3.org/2000/svg">
<path d="M17.7622 8.94103L16.0776 10.35C16.7819 10.6417 17.2921 10.9619 17.6139 11.2685C17.945 11.5841 18.0115 11.8171 18.0115 11.9576C18.0115 12.0982 17.945 12.3312 17.6139 12.6468C17.2804 12.9646 16.7445 13.2969 15.9999 13.5971C14.5159 14.1952 12.3971 14.5878 10.0057 14.5878C9.45345 14.5878 9.00574 15.0355 9.00574 15.5878C9.00574 16.1401 9.45345 16.5878 10.0057 16.5878C12.5881 16.5878 14.9721 16.1677 16.7476 15.452C17.6327 15.0953 18.4157 14.6453 18.9937 14.0946C19.574 13.5415 20.0115 12.8195 20.0115 11.9576C20.0115 11.0958 19.574 10.3738 18.9937 9.82072C18.6489 9.49214 18.2311 9.19946 17.7622 8.94103Z" fill="#3A4757"/>
<path d="M1.01782 9.82072C1.36236 9.49236 1.77981 9.19985 2.24832 8.94156L3.93845 10.3481C3.23175 10.6403 2.7201 10.9612 2.39761 11.2685C2.06652 11.5841 2 11.8171 2 11.9576C2 12.1038 2.07286 12.3525 2.44179 12.6879C2.76869 12.985 3.26767 13.2898 3.93864 13.5673L4.21075 12.4583C4.24565 12.3161 4.42794 12.2748 4.52074 12.3881L6.91556 15.3114C6.99059 15.403 6.95674 15.5409 6.84783 15.5874L3.37187 17.0702C3.23718 17.1276 3.09471 17.0066 3.12961 16.8644L3.45753 15.528C2.52765 15.173 1.70585 14.7216 1.09657 14.1679C0.476565 13.6043 0 12.8581 0 11.9576C0 11.0958 0.43748 10.3738 1.01782 9.82072Z" fill="#3A4757"/>
<path d="M5.95991 9.68511C5.18016 9.68511 4.54305 9.571 4.04857 9.34278C3.55409 9.10505 3.19749 8.78174 2.97878 8.37284C2.76958 7.95444 2.67924 7.47898 2.70777 6.94646C2.71728 6.83235 2.77909 6.7753 2.8932 6.7753H4.41943C4.54305 6.7753 4.60485 6.8276 4.60485 6.9322C4.60485 7.32208 4.72372 7.59784 4.96145 7.7595C5.19918 7.91165 5.55577 7.98772 6.03123 7.98772C6.49718 7.98772 6.85378 7.89263 7.10102 7.70244C7.35777 7.51226 7.48614 7.23649 7.48614 6.87514V6.6184C7.48614 6.26656 7.36728 6.00505 7.12955 5.83389C6.89182 5.65321 6.53997 5.56288 6.07402 5.56288H4.96145C4.83783 5.56288 4.77602 5.50107 4.77602 5.37745V4.15076C4.77602 4.02714 4.83783 3.96533 4.96145 3.96533H5.8886C6.37357 3.96533 6.7254 3.87975 6.94412 3.70858C7.16283 3.52791 7.27218 3.2569 7.27218 2.89555V2.62454C7.27218 2.30122 7.16283 2.06349 6.94412 1.91135C6.73491 1.74969 6.40685 1.66886 5.95991 1.66886C5.49396 1.66886 5.15163 1.75445 4.93292 1.92561C4.72372 2.08727 4.61912 2.33451 4.61912 2.66733C4.61912 2.79095 4.55731 2.85276 4.43369 2.85276H2.90746C2.85992 2.85276 2.81713 2.83849 2.77909 2.80997C2.75056 2.77193 2.7363 2.72438 2.7363 2.66733C2.7363 1.80199 3.01682 1.1411 3.57786 0.684662C4.1389 0.228221 4.97571 0 6.08829 0C7.19135 0 7.99488 0.209202 8.49887 0.627607C9.01236 1.0365 9.26911 1.64034 9.26911 2.43911C9.26911 3.00966 9.15025 3.48036 8.91252 3.85122C8.6843 4.22208 8.35148 4.48834 7.91405 4.64999V4.67852C8.42755 4.82116 8.81743 5.08266 9.08368 5.46303C9.34994 5.83389 9.48307 6.30459 9.48307 6.87514C9.48307 7.78803 9.17878 8.48695 8.57019 8.97192C7.97111 9.44738 7.10102 9.68511 5.95991 9.68511Z" fill="#3A4757"/>
<path d="M10.4577 9.51394C10.3341 9.51394 10.2723 9.45214 10.2723 9.32852V0.356595C10.2723 0.232976 10.3341 0.171166 10.4577 0.171166H13.5673C15.0602 0.171166 16.168 0.518251 16.8907 1.21242C17.6134 1.89708 17.9748 2.91457 17.9748 4.26487V5.22055C17.9748 6.64692 17.6134 7.72146 16.8907 8.44416C16.1775 9.15735 15.0697 9.51394 13.5673 9.51394H10.4577ZM12.312 7.77376H13.4389C14.3042 7.77376 14.9366 7.55505 15.336 7.11763C15.7449 6.68021 15.9493 6.03358 15.9493 5.17775V4.30766C15.9493 3.5184 15.7449 2.92408 15.336 2.52469C14.9366 2.11579 14.3042 1.91135 13.4389 1.91135H12.312V7.77376Z" fill="#3A4757"/>
</svg>