<svg width="20" height="18" viewBox="0 0 20 18" fill="none" xmlns="http://www.w3.org/2000/svg">
<path d="M19.919 7.28507C19.8381 6.96833 19.6761 6.65158 19.4332 6.33484C19.1903 6.09729 18.9474 5.85973 18.6235 5.70136C18.2996 5.54299 17.9757 5.4638 17.5709 5.4638H12.4696V2.45475C12.4696 2.13801 12.3887 1.82127 12.2267 1.50452C12.0648 1.18778 11.9028 0.950226 11.6599 0.71267C11.417 0.475113 11.0931 0.316742 10.8502 0.158371C10.4453 0.0791856 10.1215 0 9.79757 0C9.39271 0 8.90688 0.0791855 8.583 0.316742C8.17814 0.554299 7.85425 0.791855 7.69231 1.18778L4.45344 6.25566H1.7004C1.29555 6.25566 0.809717 6.41403 0.48583 6.73077C0.161943 7.04751 0 7.44344 0 7.91855V15.0452C0 15.4412 0.161943 15.9163 0.48583 16.233C0.809717 16.5498 1.21457 16.7081 1.7004 16.7081H4.69636L5.58704 17.1041C6.07287 17.3416 6.72065 17.5 7.28745 17.5H16.3563C17.004 17.5 17.5709 17.2624 18.0567 16.8665C18.5425 16.4706 18.7854 15.9163 18.8664 15.362L20 8.31448C20 7.99774 20 7.681 19.919 7.28507ZM3.96761 14.8077H1.94332V8.15611H3.96761V14.8077ZM16.9231 15.1244C16.9231 15.2828 16.8421 15.4412 16.7611 15.5204C16.6802 15.5995 16.5182 15.6787 16.3563 15.6787H7.20648C6.96356 15.6787 6.63968 15.5995 6.39676 15.5204L5.91093 15.2828V7.52262L9.31174 2.21719C9.39271 2.13801 9.39271 2.05882 9.47368 2.05882C9.55466 1.97964 9.63563 2.05882 9.79757 1.97964C9.87854 1.97964 9.95951 1.97964 10.0405 1.97964C10.1215 1.97964 10.2024 2.05882 10.2024 2.05882C10.2834 2.13801 10.2834 2.13801 10.3644 2.21719C10.3644 2.29638 10.4453 2.37557 10.4453 2.45475V6.41403C10.4453 6.96833 10.8502 7.36425 11.417 7.36425H17.4899C17.5709 7.36425 17.6518 7.36425 17.7328 7.44344C17.8138 7.44344 17.8947 7.52262 17.9757 7.60181C18.0567 7.681 18.0567 7.76018 18.1377 7.83937C18.1377 7.91855 18.1377 7.99774 18.1377 8.07692L16.9231 15.1244Z" fill="#3A4757"/>
</svg>