<svg width="17" height="18" viewBox="0 0 17 18" fill="none" xmlns="http://www.w3.org/2000/svg">
<path fill-rule="evenodd" clip-rule="evenodd" d="M5.94977 13.4353L2.06068 17.3244C1.67016 17.7149 1.03699 17.7149 0.64647 17.3244C0.255946 16.9338 0.255946 16.3007 0.64647 15.9102L4.53556 12.0211L5.94977 13.4353Z" fill="#3A4757"/>
<path fill-rule="evenodd" clip-rule="evenodd" d="M9.39529 1.83041C10.1056 0.80447 11.5716 0.67228 12.4539 1.55461L16.4162 5.51694C17.2986 6.39927 17.1664 7.86527 16.1404 8.57554L12.8199 10.8744L11.6271 14.9298C11.1987 16.3862 9.36763 16.8531 8.29416 15.7797L2.19118 9.67667C1.11771 8.6032 1.58463 6.77209 3.04106 6.34373L7.09644 5.15097L9.39529 1.83041ZM15.002 6.93115L11.0397 2.96883L8.74083 6.28939C8.48058 6.6653 8.0994 6.94069 7.66077 7.0697L3.60539 8.26246L9.70837 14.3654L10.9011 10.3101C11.0301 9.87143 11.3055 9.49025 11.6814 9.23L15.002 6.93115Z" fill="#3A4757"/>
</svg>