<svg width="20" height="18" viewBox="0 0 20 18" fill="none" xmlns="http://www.w3.org/2000/svg">
<path fill-rule="evenodd" clip-rule="evenodd" d="M6.27592 17.157C6.75914 17.3828 7.28766 17.5 7.82297 17.5H15.5122C17.2836 17.5 18.7911 16.235 19.0648 14.519L19.9649 8.87318C20.2376 7.16251 18.8887 5.61695 17.1228 5.61695H12.3999V2.29205C12.3999 1.02618 11.3533 0 10.0623 0C9.21616 0 8.43606 0.448349 8.02269 1.17227L5.03488 6.40451C4.85456 6.72027 4.75988 7.07611 4.75988 7.43799V15.1134C4.75988 15.9289 5.23813 16.672 5.98908 17.0229L6.27592 17.157ZM1.43305 6.66293C1.05298 6.66293 0.688478 6.81097 0.41973 7.07449C0.150982 7.338 0 7.69541 0 8.06808L7.17977e-07 15.2782C7.17977e-07 15.651 0.150982 16.0083 0.41973 16.2719C0.688477 16.5354 1.05298 16.6834 1.43305 16.6834L2.14726 16.6832C2.54431 16.683 2.86608 16.3673 2.86608 15.978V7.36777C2.86608 7.1807 2.79027 7.0013 2.65535 6.86906C2.52041 6.7368 2.33741 6.66255 2.14664 6.66263L1.43305 6.66293Z" fill="#3A4757"/>
</svg>