<svg width="17" height="17" viewBox="0 0 17 17" fill="none" xmlns="http://www.w3.org/2000/svg">
<path fill-rule="evenodd" clip-rule="evenodd" d="M5.59619 12.4665L1.70711 16.3556C1.31658 16.7461 0.683417 16.7461 0.292893 16.3556C-0.0976311 15.9651 -0.0976311 15.3319 0.292893 14.9414L4.18198 11.0523L5.59619 12.4665Z" fill="#3A4757"/>
<path fill-rule="evenodd" clip-rule="evenodd" d="M9.04172 0.861658C9.75198 -0.16428 11.218 -0.29647 12.1003 0.585864L16.0626 4.54819C16.945 5.43052 16.8128 6.89652 15.7868 7.60679L12.4663 9.90564L11.2735 13.961C10.8452 15.4175 9.01405 15.8844 7.94058 14.8109L1.8376 8.70792C0.764129 7.63445 1.23105 5.80334 2.68748 5.37498L6.74287 4.18222L9.04172 0.861658ZM14.6484 5.9624L10.6861 2.00008L8.38725 5.32064C8.12701 5.69655 7.74582 5.97194 7.3072 6.10095L3.25181 7.29371L9.35479 13.3967L10.5476 9.34131C10.6766 8.90268 10.952 8.5215 11.3279 8.26125L14.6484 5.9624Z" fill="#3A4757"/>
</svg>