<svg width="20" height="16" viewBox="0 0 20 16" fill="none" xmlns="http://www.w3.org/2000/svg">
<path fill-rule="evenodd" clip-rule="evenodd" d="M19.2404 6.22C19.6802 6.1 19.99 5.7 19.99 5.24V2.5C19.99 1.12 18.8806 0 17.5112 0H2.47876C1.10945 0 0 1.12 0 2.5V5.25C0 5.71 0.29985 6.11 0.73963 6.23C1.50925 6.44 2.07896 7.16 2.07896 8C2.07896 8.84 1.50925 9.56 0.73963 9.77C0.29985 9.89 0 10.29 0 10.75V13.5C0 14.88 1.10945 16 2.47876 16H17.5212C18.8906 16 20 14.88 20 13.5V10.76C20 10.3 19.6902 9.9 19.2504 9.78C18.4708 9.57 17.901 8.86 17.901 8C17.901 7.14 18.4708 6.43 19.2504 6.22H19.2404ZM17.991 4.55C16.7416 5.18 15.8921 6.49 15.8921 8C15.8921 9.51 16.7416 10.81 17.991 11.45V13.5C17.991 13.77 17.7811 13.98 17.5112 13.98H7.87606V12.54C7.87606 11.98 7.42629 11.53 6.87656 11.53C6.32684 11.53 5.87706 11.98 5.87706 12.54V13.98H2.46877C2.2089 13.98 1.98901 13.76 1.98901 13.5V11.44C3.21839 10.8 4.06797 9.5 4.06797 8.01C4.06797 6.52 3.22839 5.21 1.98901 4.58V2.52C1.98901 2.25 2.1989 2.04 2.46877 2.04H5.87706V3.49C5.87706 4.05 6.32684 4.5 6.87656 4.5C7.42629 4.5 7.87606 4.05 7.87606 3.49V2.04H17.5112C17.7711 2.04 17.991 2.26 17.991 2.52V4.57V4.55Z" fill="#3A4757"/>
<path fill-rule="evenodd" clip-rule="evenodd" d="M6.87656 5.76C6.32684 5.76 5.87706 6.21 5.87706 6.77V9.22C5.87706 9.78 6.32684 10.23 6.87656 10.23C7.42629 10.23 7.87606 9.78 7.87606 9.22V6.77C7.87606 6.21 7.42629 5.76 6.87656 5.76Z" fill="#3A4757"/>
</svg>