<svg width="15" height="15" viewBox="0 0 15 15" fill="none" xmlns="http://www.w3.org/2000/svg">
<path fill-rule="evenodd" clip-rule="evenodd" d="M13.2143 0C14.2005 0 15 0.799492 15 1.78571V13.2143C15 14.2005 14.2005 15 13.2143 15H1.78571C0.799492 15 0 14.2005 0 13.2143V1.78571C0 0.799492 0.799492 0 1.78571 0H13.2143ZM13.1842 0.75H1.81579C1.22717 0.75 0.75 1.22717 0.75 1.81579V13.1842C0.75 13.7728 1.22717 14.25 1.81579 14.25H13.1842C13.7728 14.25 14.25 13.7728 14.25 13.1842V1.81579C14.25 1.22717 13.7728 0.75 13.1842 0.75ZM7.5 1.5C10.8137 1.5 13.5 4.18629 13.5 7.5C13.5 10.8137 10.8137 13.5 7.5 13.5C4.18629 13.5 1.5 10.8137 1.5 7.5C1.5 4.18629 4.18629 1.5 7.5 1.5ZM7.87529 2.26321L7.875 3.375C7.875 3.58211 7.70711 3.75 7.5 3.75C7.31591 3.75 7.16279 3.61734 7.13104 3.44241L7.125 3.375L7.12546 2.26315C4.52448 2.44649 2.44649 4.52448 2.26315 7.12546L3.375 7.125C3.58211 7.125 3.75 7.29289 3.75 7.5C3.75 7.68409 3.61734 7.83721 3.44241 7.86896L3.375 7.875L2.26321 7.87529C2.44689 10.4759 4.52473 12.5535 7.12546 12.7368L7.125 11.625C7.125 11.4179 7.29289 11.25 7.5 11.25C7.68409 11.25 7.83721 11.3827 7.86896 11.5576L7.875 11.625L7.87529 12.7368C10.4757 12.5531 12.5531 10.4757 12.7368 7.87529L11.625 7.875C11.4179 7.875 11.25 7.70711 11.25 7.5C11.25 7.31591 11.3827 7.16279 11.5576 7.13104L11.625 7.125L12.7368 7.12546C12.5535 4.52473 10.4759 2.44689 7.87529 2.26321ZM7.5 4.5C7.68409 4.5 7.83721 4.63266 7.86896 4.80759L7.875 4.875V6.9735L10.7265 9.07847C10.8819 9.19316 10.9217 9.42208 10.8154 9.58977C10.721 9.73883 10.5428 9.78934 10.3953 9.71818L10.3416 9.68575L7.29205 7.43711C7.20914 7.38175 7.14953 7.29424 7.13104 7.19241L7.125 7.125V4.875C7.125 4.66789 7.29289 4.5 7.5 4.5Z" fill="#3A4757"/>
</svg>