<svg width="15" height="15" viewBox="0 0 15 15" fill="none" xmlns="http://www.w3.org/2000/svg">
<path fill-rule="evenodd" clip-rule="evenodd" d="M1.38822 0.0566147L3.3936 1.2909C3.49262 1.33035 3.57105 1.40898 3.6104 1.50826C3.63666 1.61229 3.6169 1.72262 3.5562 1.811L3.08389 2.50966L6.72975 6.16575L6.73847 6.15817C6.86349 6.02682 7.03746 5.95368 7.21852 5.95633C7.32521 5.95452 7.43006 5.97299 7.52798 6.00963L8.96839 4.55903C8.86778 4.25627 8.81807 3.93884 8.82128 3.61973C8.82128 1.90483 10.2079 0.514599 11.9184 0.514599C12.2866 0.513234 12.6518 0.581716 12.9946 0.716452C13.1203 0.765579 13.2114 0.876725 13.2351 1.00984C13.2588 1.14295 13.2117 1.27883 13.1108 1.36853L11.6474 2.69596L11.8564 3.72065L12.8553 4.06221L14.2567 2.84346C14.3595 2.74995 14.505 2.72018 14.6361 2.76583C14.7681 2.80858 14.868 2.9176 14.8993 3.05305C14.9442 3.25705 14.9675 3.46519 14.969 3.67407C14.969 5.38898 13.5824 6.77919 11.8719 6.77919C11.4955 6.7803 11.1222 6.70916 10.7725 6.56959L10.167 7.18125L14.4425 11.4679C14.7915 11.8095 14.9918 12.2754 15 12.7643C14.9952 13.1239 14.8442 13.466 14.5819 13.7114L13.676 14.6274C13.4473 14.848 13.1486 14.9786 12.8343 14.998L12.7159 15C12.2325 14.9928 11.7723 14.7914 11.4383 14.4411L7.19325 10.1842L2.83612 14.6118C2.60212 14.8432 2.29299 14.9797 1.96768 14.9985L1.84505 15C1.49194 15.0018 1.15344 14.8588 0.908172 14.6041C0.653713 14.3553 0.51116 14.0134 0.513268 13.657C0.515843 13.3039 0.657829 12.9661 0.908172 12.7177L6.01093 7.55708C5.96934 7.45637 5.94531 7.34819 5.94097 7.23719C5.94275 7.05197 6.01471 6.87436 6.14228 6.74038L6.1575 6.7245L2.48925 3.0615L1.80633 3.52658C1.72451 3.60112 1.61383 3.63526 1.50437 3.61973C1.40534 3.58028 1.32692 3.50165 1.28757 3.40238L0.0564687 1.39181C-0.0356414 1.24013 -0.0133203 1.04511 0.110668 0.918284L0.513291 0.514619L0.915915 0.110954C1.04241 -0.0133547 1.23693 -0.0357336 1.38822 0.0566147ZM8.64319 7.23719C8.51793 7.2313 8.39459 7.26977 8.29477 7.34587L7.31918 8.27741C7.1669 8.5155 7.14733 8.80509 7.24784 9.05311C7.30115 9.16512 7.37972 9.26689 7.48178 9.34867C7.51141 9.37899 7.5351 9.41296 7.55283 9.44911L11.9881 13.9054C12.1784 14.107 12.4393 14.2267 12.7159 14.2392C12.8636 14.2411 13.0068 14.1886 13.1185 14.0917L14.0322 13.168C14.1284 13.0619 14.181 12.9232 14.1793 12.7798C14.1764 12.4868 14.0565 12.2072 13.8463 12.0035L9.42665 7.55019C9.38635 7.53312 9.34906 7.50875 9.31681 7.47784C9.28095 7.43767 9.24189 7.4017 9.20032 7.37005C9.03582 7.27072 8.84226 7.23709 8.64319 7.23719ZM6.47925 8.187L1.45791 13.2689C1.35248 13.3708 1.29129 13.5102 1.28757 13.657C1.2889 13.8089 1.35015 13.954 1.45791 14.0607C1.5382 14.146 1.64423 14.2009 1.75828 14.2181L1.84505 14.2237C1.99355 14.2268 2.13663 14.1677 2.23993 14.0607L6.68174 9.60741C6.5281 9.3776 6.44128 9.11444 6.42352 8.84651C6.4024 8.66856 6.41015 8.48631 6.44877 8.30774L6.47925 8.187ZM7.28047 6.76366L7.02099 6.9656C7.01261 6.97626 7.00361 6.9866 6.99398 6.99655C6.97267 7.01837 6.94906 7.03739 6.92373 7.05339L6.70636 7.26907C6.7181 7.27604 6.7295 7.28363 6.7405 7.29182L6.77719 7.29153L6.96301 7.47784L7.48125 6.9645L7.30369 6.78695L7.293 6.77325L7.28047 6.76366ZM10.3277 1.98246C9.8753 2.40828 9.61167 2.99785 9.59555 3.61973C9.60079 3.92638 9.6721 4.22827 9.80461 4.50469C9.86383 4.65129 9.83034 4.81916 9.71944 4.93165L8.17088 6.4842C8.31083 6.44105 8.4565 6.41981 8.60275 6.42115C8.93636 6.39206 9.27513 6.47146 9.56434 6.65444L10.4318 5.77779C10.5506 5.6596 10.7318 5.63141 10.8809 5.70792C11.5489 6.02353 12.3269 6.00179 12.9765 5.64937C13.626 5.29695 14.0696 4.65586 14.1715 3.92248L13.2037 4.79192C13.1009 4.88542 12.9554 4.91519 12.8243 4.86954L11.3996 4.39601C11.2667 4.3524 11.1686 4.23905 11.1441 4.10103L10.8499 2.63386C10.8202 2.50015 10.8646 2.36079 10.966 2.26901L12.0036 1.353C11.3835 1.32998 10.78 1.55664 10.3277 1.98246ZM1.28757 0.871708L1.10174 1.06578C1.07288 1.09384 1.0408 1.11661 1.00673 1.13409L0.869459 1.2909L1.71342 2.6882L2.23875 2.3325L2.64255 1.73338L1.28757 0.871708Z" fill="#3A4757"/>
</svg>