<svg width="15" height="14" viewBox="0 0 15 14" fill="none" xmlns="http://www.w3.org/2000/svg">
<path fill-rule="evenodd" clip-rule="evenodd" d="M12 0C12.8284 0 13.5 0.659791 13.5 1.47368H14.625C14.8321 1.47368 15 1.63863 15 1.84211C15 2.02297 14.8673 2.1734 14.6924 2.20459L14.625 2.21053H13.5V13.6316C13.5 13.8124 13.3673 13.9629 13.1924 13.9941L13.125 14H4.125C3.91789 14 3.75 13.8351 3.75 13.6316V7.36842H1.125C0.940905 7.36842 0.787794 7.23809 0.756042 7.06622L0.75 7V2.20979L0.375 2.21053C0.167893 2.21053 0 2.04558 0 1.84211C0 1.66124 0.132656 1.51081 0.307593 1.47962L0.375 1.47368L0.78675 1.47295L0.816134 1.35542C1.03339 0.574214 1.76094 0 2.625 0H12ZM12 0.736842L4.12522 0.736951C4.28903 0.951242 4.40638 1.20177 4.46258 1.47411L4.5 1.47368V13.2632H5.25V12.8947C5.25 12.6913 5.41789 12.5263 5.625 12.5263C5.80909 12.5263 5.96221 12.6566 5.99396 12.8285L6 12.8947V13.2632H6.75V12.8947C6.75 12.6913 6.91789 12.5263 7.125 12.5263C7.30909 12.5263 7.46221 12.6566 7.49396 12.8285L7.5 12.8947V13.2632H8.25V12.8947C8.25 12.6913 8.41789 12.5263 8.625 12.5263C8.8091 12.5263 8.96221 12.6566 8.99396 12.8285L9 12.8947V13.2632H9.75V12.8947C9.75 12.6913 9.91789 12.5263 10.125 12.5263C10.3091 12.5263 10.4622 12.6566 10.494 12.8285L10.5 12.8947V13.2632H11.25V12.8947C11.25 12.6913 11.4179 12.5263 11.625 12.5263C11.8091 12.5263 11.9622 12.6566 11.994 12.8285L12 12.8947V13.2632H12.75V1.47368C12.75 1.09581 12.4605 0.784363 12.0875 0.7418L12 0.736842ZM3.75 2.20979H1.5V6.63158H2.25V6.26316C2.25 6.05968 2.41789 5.89474 2.625 5.89474C2.80909 5.89474 2.96221 6.02507 2.99396 6.19693L3 6.26316V6.63158H3.75V2.20979ZM2.625 0.736842C2.13537 0.736842 1.7188 1.04415 1.56421 1.47315L3.6855 1.47295L3.64587 1.37705C3.46713 0.998993 3.07723 0.736842 2.625 0.736842Z" fill="#3A4757"/>
</svg>