<svg width="20" height="18" viewBox="0 0 20 18" fill="none" xmlns="http://www.w3.org/2000/svg">
<path d="M18.9917 14.763H16.4V2.284C16.4 1.74997 15.9417 1.33918 15.3917 1.33918C14.8417 1.33918 14.3833 1.75819 14.3833 2.284V11.7477C14.175 11.6574 13.9583 11.5752 13.7333 11.5177L12.1083 2.74409C11.7833 1.15022 10.2917 0 8.55833 0H5.325C4.38333 0 3.6 0.714778 3.6 1.61852V8.07527H2.45C1.10833 8.07527 0 9.09403 0 10.3593V14.3768C0 14.9601 0.333333 15.4531 0.808333 15.7406C1.14167 17.0387 2.4 18 3.88333 18C4.64167 18 5.325 17.7453 5.86667 17.3263H10.7667C11.3583 17.7371 12.0833 18 12.875 18C14.0333 18 15.0667 17.4742 15.7083 16.6608H18.9917C19.5417 16.6608 20 16.2418 20 15.716C20 15.1902 19.5417 14.7712 18.9917 14.7712V14.763ZM5.61667 8.08348V1.89786H8.56667C9.34167 1.89786 9.99167 2.40724 10.1333 3.09737L11.6667 11.4191H10.3667C10.125 11.4191 9.86667 11.3205 9.6 11.0823C9.325 10.844 9.05 10.4825 8.74167 9.96491C8.10833 8.8722 6.925 8.17386 5.61667 8.08348ZM9.45 15.4284H7.025C7.04167 15.3052 7.05 15.1738 7.05 15.0423C7.05 13.4073 5.61667 12.0846 3.88333 12.0846C3.18333 12.0846 2.54167 12.3064 2.01667 12.6679V10.3593C2.01667 10.1539 2.2 9.96491 2.45 9.96491H5.325C6.01667 9.96491 6.64167 10.3182 6.96667 10.8769C7.125 11.148 7.45 11.6902 7.94167 12.1914C8.39167 12.6433 8.98333 13.0705 9.74167 13.2348C9.5 13.6785 9.35 14.1796 9.35 14.7137C9.35 14.9684 9.39167 15.2066 9.45 15.4367V15.4284ZM3.88333 13.9825C4.525 13.9825 5.03333 14.4672 5.03333 15.0423C5.03333 15.6174 4.525 16.1021 3.88333 16.1021C3.24167 16.1021 2.73333 15.6174 2.73333 15.0423C2.73333 14.4672 3.24167 13.9825 3.88333 13.9825ZM12.875 16.1021C12.0333 16.1021 11.3667 15.4695 11.3667 14.7055C11.3667 13.9414 12.0333 13.3088 12.875 13.3088C13.7167 13.3088 14.3833 13.9414 14.3833 14.7055C14.3833 15.4695 13.7167 16.1021 12.875 16.1021Z" fill="#3A4757"/>
</svg>