<svg width="14" height="12" viewBox="0 0 14 12" fill="none" xmlns="http://www.w3.org/2000/svg">
<path d="M11.3746 11.8123C10.2289 11.8123 9.29658 10.88 9.29658 9.73419C9.29658 9.37676 9.39502 9.02742 9.58926 8.6958L9.68573 8.53109H7.10784C7.08072 7.51698 6.67495 6.57003 5.95878 5.85364C5.21681 5.11165 4.22721 4.70303 3.17199 4.70303C2.30205 4.70303 1.48352 4.97712 0.797538 5.49708L0.250461 4.81328C0.785507 4.40532 1.40805 4.11898 2.10256 3.96192L2.18787 3.94267V0.311931C2.18787 0.139997 2.32786 0 2.4998 0H6.47852C6.64323 0 6.79329 0.103467 6.85191 0.257464L6.86372 0.288526L8.39405 4.37492H10.3907V2.62495C10.3907 2.08377 10.6852 1.57606 11.159 1.30022C11.2272 1.26041 11.3005 1.24029 11.3768 1.24029C11.5864 1.24029 11.8126 1.40675 11.8126 1.67581C11.8126 1.83178 11.7277 1.97681 11.5912 2.05424C11.3873 2.16996 11.2657 2.38324 11.2657 2.62473V4.3747H13.6194C13.8294 4.3747 14 4.54554 14 4.75531V5.37065C14 5.41921 13.9921 5.46733 13.9768 5.51349C13.974 5.52202 13.9707 5.53077 13.9674 5.5393L12.8544 8.30425L12.9004 8.355C13.262 8.75377 13.4531 9.23063 13.4531 9.73419C13.4531 10.88 12.5204 11.8123 11.3746 11.8123ZM11.3746 8.53109C10.7 8.53109 10.1716 9.05958 10.1716 9.73419C10.1716 10.4088 10.7 10.9373 11.3746 10.9373C12.0492 10.9373 12.5777 10.4088 12.5777 9.73419C12.5777 9.05958 12.0492 8.53109 11.3746 8.53109ZM3.0624 3.82805H3.17178C4.27993 3.82805 5.32115 4.19817 6.18256 4.89816C7.01794 5.5767 7.61007 6.52606 7.85004 7.57123L7.8695 7.6561H12.1663L13.125 5.2499H7.79273L7.68292 4.96137L6.15259 0.874983H3.06219L3.0624 3.82805ZM3.17178 11.8123C2.32808 11.8123 1.53251 11.4813 0.931627 10.8806C0.330958 10.2797 0 9.48416 0 8.64046C0 7.79676 0.330958 7.00118 0.931627 6.40028C1.5323 5.79939 2.32786 5.46864 3.17178 5.46864C4.01569 5.46864 4.81104 5.79961 5.41192 6.40028C6.01281 7.00096 6.34355 7.79654 6.34355 8.64046C6.34355 9.48438 6.01259 10.2797 5.41192 10.8806C4.81126 11.4813 4.01569 11.8123 3.17178 11.8123ZM3.17178 6.34363C2.5547 6.34363 1.977 6.58162 1.54498 7.01365C1.11297 7.44567 0.874973 8.02338 0.874973 8.64046C0.874973 9.25754 1.11297 9.83525 1.54498 10.2673C1.977 10.6993 2.5547 10.9373 3.17178 10.9373C3.78885 10.9373 4.36655 10.6993 4.79857 10.2673C5.23059 9.83525 5.46858 9.25754 5.46858 8.64046C5.46858 8.02338 5.23059 7.44567 4.79857 7.01365C4.36655 6.58162 3.78885 6.34363 3.17178 6.34363ZM3.17178 9.62481C2.62907 9.62481 2.18743 9.18317 2.18743 8.64046C2.18743 8.09775 2.62907 7.6561 3.17178 7.6561C3.71448 7.6561 4.15612 8.09775 4.15612 8.64046C4.15612 9.18317 3.71448 9.62481 3.17178 9.62481Z" fill="#3A4757"/>
<path d="M11.3636 10.0835C11.5644 10.0835 11.7273 9.92065 11.7273 9.71983C11.7273 9.519 11.5644 9.3562 11.3636 9.3562C11.1628 9.3562 11 9.519 11 9.71983C11 9.92065 11.1628 10.0835 11.3636 10.0835Z" fill="#3A4757"/>
</svg>