<svg width="14" height="13" viewBox="0 0 14 13" fill="none" xmlns="http://www.w3.org/2000/svg">
<path d="M11.3746 12.656C10.2289 12.656 9.29658 11.7237 9.29658 10.5779C9.29658 10.2205 9.39502 9.87117 9.58926 9.53955L9.68573 9.37484H7.10784C7.08072 8.36073 6.67495 7.41378 5.95878 6.69739C5.21681 5.9554 4.22721 5.54678 3.17199 5.54678C2.30205 5.54678 1.48352 5.82087 0.797538 6.34083L0.250461 5.65703C0.785507 5.24907 1.40805 4.96273 2.10256 4.80567L2.18787 4.78642V1.15568C2.18787 0.983747 2.32786 0.84375 2.4998 0.84375H6.47852C6.64323 0.84375 6.79329 0.947217 6.85191 1.10121L6.86372 1.13228L8.39405 5.21867H10.3907V3.4687C10.3907 2.92752 10.6852 2.41981 11.159 2.14397C11.2272 2.10416 11.3005 2.08404 11.3768 2.08404C11.5864 2.08404 11.8126 2.2505 11.8126 2.51956C11.8126 2.67553 11.7277 2.82056 11.5912 2.89799C11.3873 3.01371 11.2657 3.22699 11.2657 3.46848V5.21845H13.6194C13.8294 5.21845 14 5.38929 14 5.59906V6.2144C14 6.26296 13.9921 6.31108 13.9768 6.35724C13.974 6.36577 13.9707 6.37452 13.9674 6.38305L12.8544 9.148L12.9004 9.19875C13.262 9.59752 13.4531 10.0744 13.4531 10.5779C13.4531 11.7237 12.5204 12.656 11.3746 12.656ZM11.3746 9.37484C10.7 9.37484 10.1716 9.90333 10.1716 10.5779C10.1716 11.2525 10.7 11.781 11.3746 11.781C12.0492 11.781 12.5777 11.2525 12.5777 10.5779C12.5777 9.90333 12.0492 9.37484 11.3746 9.37484ZM3.0624 4.6718H3.17178C4.27993 4.6718 5.32115 5.04192 6.18256 5.74191C7.01794 6.42045 7.61007 7.36981 7.85004 8.41498L7.8695 8.49985H12.1663L13.125 6.09365H7.79273L7.68292 5.80512L6.15259 1.71873H3.06219L3.0624 4.6718ZM3.17178 12.656C2.32808 12.656 1.53251 12.3251 0.931627 11.7244C0.330958 11.1235 0 10.3279 0 9.48421C0 8.64051 0.330958 7.84493 0.931627 7.24403C1.5323 6.64314 2.32786 6.31239 3.17178 6.31239C4.01569 6.31239 4.81104 6.64336 5.41192 7.24403C6.01281 7.84471 6.34355 8.64029 6.34355 9.48421C6.34355 10.3281 6.01259 11.1235 5.41192 11.7244C4.81126 12.3251 4.01569 12.656 3.17178 12.656ZM3.17178 7.18738C2.5547 7.18738 1.977 7.42537 1.54498 7.8574C1.11297 8.28942 0.874973 8.86713 0.874973 9.48421C0.874973 10.1013 1.11297 10.679 1.54498 11.111C1.977 11.543 2.5547 11.781 3.17178 11.781C3.78885 11.781 4.36655 11.543 4.79857 11.111C5.23059 10.679 5.46858 10.1013 5.46858 9.48421C5.46858 8.86713 5.23059 8.28942 4.79857 7.8574C4.36655 7.42537 3.78885 7.18738 3.17178 7.18738ZM3.17178 10.4686C2.62907 10.4686 2.18743 10.0269 2.18743 9.48421C2.18743 8.9415 2.62907 8.49985 3.17178 8.49985C3.71448 8.49985 4.15612 8.9415 4.15612 9.48421C4.15612 10.0269 3.71448 10.4686 3.17178 10.4686Z" fill="#3A4757"/>
<path d="M11.3636 10.9272C11.5644 10.9272 11.7273 10.7644 11.7273 10.5636C11.7273 10.3628 11.5644 10.2 11.3636 10.2C11.1628 10.2 11 10.3628 11 10.5636C11 10.7644 11.1628 10.9272 11.3636 10.9272Z" fill="#3A4757"/>
</svg>