<svg width="16" height="20" viewBox="0 0 16 20" fill="none" xmlns="http://www.w3.org/2000/svg">
<path fill-rule="evenodd" clip-rule="evenodd" d="M7.96782 0H7.95729C6.95586 0 6.02127 0 5.00806 0.0820711L5.00656 0.0821983C4.05346 0.165834 3.18388 0.416273 2.47953 0.663507C1.74366 0.921801 1.17637 1.35089 0.703342 1.76597L0.679886 1.78656L0.662139 1.81272C0.249467 2.42109 0 3.12195 0 3.9914V14.2396C0 15.2774 0.331061 16.1558 0.996413 16.8564C1.53703 17.4257 2.18906 17.7625 2.94324 17.8689L2.46397 18.3735C2.25521 18.5934 2.14252 18.9338 2.25213 19.28C2.35119 19.593 2.55559 19.812 2.8495 19.9203C2.9337 19.9634 3.02685 20 3.1339 20C3.23039 20 3.31559 19.9703 3.39311 19.9329C3.46689 19.9198 3.53741 19.8882 3.58765 19.8618C3.66032 19.8235 3.74173 19.7685 3.80384 19.7031L5.58805 17.8243H10.3347L12.1462 19.7318L12.1806 19.7499C12.2124 19.7667 12.2409 19.7838 12.272 19.8026L12.2795 19.8072C12.3071 19.824 12.3402 19.8441 12.3737 19.8618C12.455 19.9045 12.5494 19.939 12.673 19.939L12.682 19.939C12.7521 19.939 12.8275 19.9391 12.9051 19.9254C12.9873 19.911 13.064 19.8833 13.1505 19.839C13.4444 19.7306 13.6488 19.5116 13.7479 19.1987C13.8575 18.8524 13.7448 18.512 13.536 18.2922L13.0568 17.7875C13.8109 17.6812 14.463 17.3443 15.0036 16.7751C15.6689 16.0744 16 15.1961 16 14.1582V4.07273C16 3.12897 15.7541 2.41898 15.3271 1.87932L15.3202 1.87061L15.3125 1.86259C14.8318 1.3564 14.2639 0.926732 13.5313 0.667341C12.8027 0.328648 11.9263 0.164057 10.9934 0.0821983C10.0567 0 9.04438 0 7.96782 0ZM2.01962 8.70282V5.13608H6.95157V8.70282H2.01962ZM8.97119 8.70282V5.13608H13.9031V8.70282H8.97119ZM3.17822 13.1822C3.17822 12.7685 3.30285 12.5092 3.48334 12.314C3.76594 12.0932 4.02193 11.9682 4.33112 11.9682C4.72399 11.9682 4.9703 12.0994 5.15566 12.2895C5.36531 12.5871 5.48402 12.8566 5.48402 13.1822C5.48402 13.5959 5.35938 13.8553 5.17889 14.0505C4.8963 14.2712 4.6403 14.3962 4.33112 14.3962C3.99375 14.3962 3.75474 14.3306 3.50665 14.0751C3.29695 13.7774 3.17822 13.5078 3.17822 13.1822ZM10.4387 13.1822C10.4387 12.7684 10.5634 12.509 10.744 12.3138C10.8918 12.1975 11.0041 12.1156 11.1268 12.0591C11.248 12.0032 11.3889 11.9682 11.5916 11.9682C11.9845 11.9682 12.2308 12.0994 12.4162 12.2895C12.6258 12.5871 12.7445 12.8566 12.7445 13.1822C12.7445 13.5959 12.6199 13.8553 12.4394 14.0505C12.1568 14.2712 11.9008 14.3962 11.5916 14.3962C11.223 14.3962 10.9386 14.3158 10.7775 14.0896C10.5614 13.7862 10.4387 13.5131 10.4387 13.1822Z" fill="#3A4757"/>
</svg>