<svg width="16" height="20" viewBox="0 0 16 20" fill="none" xmlns="http://www.w3.org/2000/svg">
<path d="M11.617 14.9392C11.9635 14.9218 12.2937 14.7801 12.5523 14.5379C12.8109 14.2957 12.9822 13.9677 13.0373 13.6089C13.0925 13.2501 13.0282 12.8824 12.8553 12.5673C12.6823 12.2523 12.4112 12.0092 12.0875 11.8788C11.7637 11.7483 11.407 11.7384 11.0771 11.8508C10.7473 11.9632 10.4644 12.1911 10.2758 12.4961C10.0873 12.8011 10.0046 13.1649 10.0417 13.5262C10.0787 13.8875 10.2332 14.2246 10.4792 14.4807C10.6308 14.6317 10.8094 14.75 11.0046 14.8286C11.1998 14.9073 11.4079 14.9449 11.617 14.9392Z" fill="#3A4757"/>
<path d="M4.37638 14.9391C4.58869 14.9525 4.80128 14.9186 5.00014 14.8395C5.19899 14.7605 5.37958 14.6381 5.52998 14.4805C5.68037 14.3229 5.79719 14.1337 5.87265 13.9254C5.94811 13.717 5.9805 13.4943 5.96774 13.2719C5.97674 13.0504 5.94176 12.8294 5.86497 12.6228C5.78819 12.4163 5.67128 12.2287 5.52167 12.0719C5.37207 11.9152 5.19301 11.7927 4.99587 11.7123C4.79872 11.6318 4.58776 11.5951 4.37638 11.6046C4.16672 11.6 3.95828 11.6389 3.76301 11.719C3.56774 11.7991 3.38951 11.9189 3.23856 12.0714C2.95227 12.3976 2.79337 12.8246 2.79337 13.2677C2.79337 13.7108 2.95227 14.1378 3.23856 14.464C3.38886 14.618 3.56679 14.7393 3.76209 14.8209C3.95738 14.9024 4.16617 14.9426 4.37638 14.9391Z" fill="#3A4757"/>
<path d="M15.3356 1.89239C14.8564 1.33252 14.2482 0.91064 13.5692 0.666957C12.7529 0.367901 11.9018 0.185613 11.0389 0.125067C10.0921 0.0417026 9.07359 0 7.99942 0C6.92526 0 6.01819 2.03477e-05 5.07133 0.125067C4.20342 0.186527 3.34717 0.368771 2.52515 0.666957C1.83466 0.911407 1.21184 1.32925 0.71103 1.88405C0.222915 2.48407 -0.0301282 3.25558 0.00286391 4.04321V14.122C-0.00734859 14.6125 0.0784789 15.1001 0.25501 15.5546C0.431541 16.0091 0.695017 16.4209 1.02927 16.7647C1.5571 17.3337 2.25201 17.7007 3.00259 17.8067L2.50131 18.3152C2.39283 18.4307 2.31402 18.573 2.27228 18.729C2.23053 18.885 2.22723 19.0495 2.26261 19.2072C2.29313 19.3683 2.36471 19.5177 2.46979 19.6395C2.57487 19.7614 2.70951 19.8511 2.85937 19.8992C3.02014 19.9892 3.2055 20.0186 3.3845 19.9825C3.56217 19.9426 3.72516 19.85 3.85397 19.7157L5.64425 17.84H10.3626L12.1609 19.7241C12.2892 19.8529 12.4488 19.9423 12.6223 19.9825C12.796 20.0227 12.9778 19.993 13.1316 19.8992C13.2825 19.8516 13.4183 19.7621 13.5248 19.6403C13.6312 19.5186 13.7043 19.3689 13.7363 19.2072C13.7717 19.0495 13.7683 18.885 13.7266 18.729C13.6848 18.573 13.6061 18.4307 13.4976 18.3152L12.9963 17.8067C13.745 17.702 14.4377 17.3347 14.9616 16.7647C15.2969 16.4214 15.5617 16.0098 15.7396 15.5554C15.9174 15.1009 16.0047 14.6131 15.996 14.122V4.04321C16.0341 3.26581 15.7992 2.50066 15.3356 1.89239ZM2.66837 3.0095C3.03487 2.78019 3.43172 2.60879 3.84601 2.50094C5.21054 2.19771 6.60549 2.07175 7.99942 2.12584C9.42939 2.07629 10.8602 2.19654 12.2643 2.4843C12.6869 2.58164 13.0888 2.75968 13.4499 3.0095H2.66837ZM2.03183 8.66994V5.13529H6.98895V8.66994H2.03183ZM2.03183 10.7957H13.967V14.1303C13.9737 14.3413 13.9389 14.5515 13.8649 14.7478C13.7909 14.9441 13.6792 15.1224 13.5367 15.2717C13.3942 15.421 13.224 15.538 13.0366 15.6155C12.8492 15.6931 12.6487 15.7296 12.4473 15.7226H3.55161C3.35054 15.7283 3.15045 15.6911 2.96359 15.6131C2.77673 15.5351 2.60701 15.418 2.46479 15.269C2.32256 15.12 2.21078 14.9422 2.13635 14.7464C2.06191 14.5506 2.02635 14.341 2.03183 14.1303V10.7957ZM9.01792 8.66994V5.13529H13.967V8.66994H9.01792Z" fill="#3A4757"/>
</svg>