<svg width="18" height="20" viewBox="0 0 18 20" fill="none" xmlns="http://www.w3.org/2000/svg">
<path fill-rule="evenodd" clip-rule="evenodd" d="M17.1121 4.16667H13.3184C13.2377 3.08333 12.8341 2.08333 12.1076 1.33333C11.3004 0.5 10.1704 0 9.04036 0C7.91031 0 6.78027 0.5 5.97309 1.33333C5.24664 2.08333 4.76233 3.08333 4.76233 4.16667H0.96861C0.403588 4.16667 0 4.58333 0 5.16667C0 5.66667 0.403588 6.16667 0.96861 6.16667H2.01794V17.6667C2.01794 18.3333 2.26009 18.9167 2.66368 19.3333C3.06726 19.75 3.713 20 4.27803 20H13.722C14.3677 20 14.9327 19.75 15.3363 19.3333C15.7399 18.9167 15.9821 18.25 15.9821 17.6667V6.08333H17.0314C17.5157 6.08333 18 5.66667 18 5.08333C18 4.58333 17.5964 4.16667 17.1121 4.16667ZM7.26457 2.66667C7.74888 2.16667 8.3139 1.91667 8.95964 1.91667C9.60538 1.91667 10.2511 2.16667 10.6547 2.66667C11.0583 3.08333 11.3004 3.58333 11.3004 4.16667H6.61883C6.69955 3.58333 6.9417 3.08333 7.26457 2.66667ZM14.1256 17.6667C14.1256 17.75 14.0448 17.9167 14.0448 18C13.9641 18.0833 13.8834 18.0833 13.722 18.0833H4.27803C4.19731 18.0833 4.03587 18 3.95516 18C3.87444 17.9167 3.87444 17.8333 3.87444 17.6667V6.08333H14.1256V17.6667Z" fill="#3A4757"/>
<path fill-rule="evenodd" clip-rule="evenodd" d="M12.1076 9.33333C11.704 8.91667 11.139 8.91667 10.7354 9.33333L9.04036 11.0833L7.34529 9.33333C6.9417 8.91667 6.37668 8.91667 5.97309 9.33333C5.56951 9.75 5.56951 10.3333 5.97309 10.75L7.66816 12.5L5.97309 14.25C5.56951 14.6667 5.56951 15.25 5.97309 15.6667C6.37668 16.0833 6.9417 16.0833 7.34529 15.6667L9.04036 13.9167L10.7354 15.6667C11.139 16.0833 11.704 16.0833 12.1076 15.6667C12.5112 15.25 12.5112 14.6667 12.1076 14.25L10.4126 12.5L12.1076 10.75C12.4305 10.3333 12.4305 9.66667 12.1076 9.33333Z" fill="#3A4757"/>
</svg>