<svg width="18" height="20" viewBox="0 0 18 20" fill="none" xmlns="http://www.w3.org/2000/svg">
<path d="M16.9043 4.14634H13.1478C13.0696 3.08943 12.6783 2.03252 11.8957 1.30081C11.113 0.487805 10.0174 0 8.84348 0C7.66956 0 6.65217 0.487805 5.7913 1.30081C5.16522 2.11382 4.69565 3.08943 4.69565 4.14634H0.93913C0.391304 4.14634 0 4.63415 0 5.12195C0 5.60976 0.391304 6.09756 0.93913 6.09756H2.03478V17.6423C2.03478 18.2927 2.26957 18.8618 2.73913 19.3496C3.05217 19.7561 3.6 20 4.22609 20H13.6174C14.2435 20 14.7913 19.7561 15.2609 19.2683C15.6522 18.8618 15.9652 18.2114 15.9652 17.561V6.09756H17.0609C17.6087 6.09756 18 5.69106 18 5.12195C18 4.55285 17.4522 4.14634 16.9043 4.14634ZM7.19992 2.68295C8.13905 1.70734 9.70435 1.70732 10.5652 2.68293C10.9565 3.08943 11.1913 3.57724 11.2696 4.14634L6.57384 4.14636C6.57384 3.57726 6.80862 3.08945 7.19992 2.68295ZM11.9739 14.2276C12.3652 14.6341 12.3652 15.2032 11.9739 15.6098C11.8174 15.7724 11.5826 15.935 11.3478 15.935C11.113 15.935 10.8783 15.8537 10.7217 15.6098L9 13.8211L7.27826 15.6098C7.12174 15.7724 6.88696 15.935 6.65217 15.935C6.41739 15.935 6.18261 15.8537 6.02609 15.6098C5.63478 15.2032 5.63478 14.6341 6.02609 14.2276L7.74783 12.439L6.02609 10.6504C5.63478 10.2439 5.63478 9.6748 6.02609 9.26829C6.41739 8.86179 6.96522 8.86179 7.35652 9.26829L9.07826 11.0569L10.8 9.26829C11.1913 8.86179 11.7391 8.86179 12.1304 9.26829C12.5217 9.6748 12.5217 10.2439 12.1304 10.6504L10.2522 12.439L11.9739 14.2276Z" fill="#3A4757"/>
</svg>