<svg width="18" height="20" viewBox="0 0 18 20" fill="none" xmlns="http://www.w3.org/2000/svg">
<path fill-rule="evenodd" clip-rule="evenodd" d="M17.1964 4.25H15.1071H13.0982C13.0982 3.08333 12.6161 2 11.8929 1.25C11.0893 0.416667 10.0446 0 8.91964 0C7.79464 0 6.75 0.416667 5.94643 1.25C5.14286 2.08333 4.74107 3.16667 4.74107 4.25H2.8125H0.723214C0.321429 4.25 0 4.58333 0 5C0 5.41667 0.321429 5.75 0.723214 5.75H2.08929V17.8333C2.08929 18.4167 2.33036 19 2.73214 19.3333C3.05357 19.75 3.61607 20 4.17857 20H13.8214C14.3839 20 14.9464 19.75 15.2679 19.3333C15.6696 18.9167 15.9107 18.3333 15.9107 17.8333V5.75H17.2768C17.6786 5.75 18 5.41667 18 5C17.9196 4.58333 17.5982 4.25 17.1964 4.25ZM7.07143 2.25C7.55357 1.75 8.27678 1.41667 9 1.41667C9.72321 1.41667 10.4464 1.75 10.9286 2.25C11.4107 2.75 11.7321 3.5 11.7321 4.16667H6.26786C6.26786 3.5 6.58929 2.83333 7.07143 2.25Z" fill="#3A4757"/>
</svg>