<svg width="18" height="20" viewBox="0 0 18 20" fill="none" xmlns="http://www.w3.org/2000/svg">
<path fill-rule="evenodd" clip-rule="evenodd" d="M16.9412 4.16667H14.905H13.1131C13.0317 3.08333 12.6244 2.08333 11.8914 1.33333C11.0769 0.5 10.0181 0 8.87783 0C7.73756 0 6.76018 0.5 5.9457 1.33333C5.21267 2.08333 4.80543 3.08333 4.72398 4.16667H2.93213H0.977376C0.40724 4.16667 0 4.58333 0 5.16667C0 5.66667 0.40724 6.16667 0.977376 6.16667H2.0362V17.6667C2.0362 18.3333 2.28054 18.9167 2.68778 19.3333C3.09502 19.75 3.66516 20 4.31674 20H13.6833C14.2534 20 14.905 19.75 15.3122 19.3333C15.7195 18.9167 15.9638 18.25 15.9638 17.6667V6.08333H17.0226C17.5113 6.08333 18 5.66667 18 5.08333C17.9186 4.58333 17.5113 4.16667 16.9412 4.16667ZM7.24887 2.66667C7.73756 2.16667 8.30769 1.91667 8.95928 1.91667C9.61086 1.91667 10.181 2.16667 10.6697 2.66667C11.0769 3.08333 11.3213 3.58333 11.3213 4.16667H6.59729C6.67873 3.58333 6.84163 3.08333 7.24887 2.66667ZM14.0091 17.6667C14.0091 17.75 13.9276 17.9167 13.9276 18C13.8462 18.0833 13.7647 18.0833 13.6833 18.0833H4.31674C4.23529 18.0833 4.0724 18 4.0724 18C3.99095 17.9167 3.99095 17.8333 3.99095 17.6667V6.08333H5.70136H12.3801H14.0905V17.6667H14.0091Z" fill="#3A4757"/>
</svg>