<svg width="18" height="20" viewBox="0 0 18 20" fill="none" xmlns="http://www.w3.org/2000/svg">
<path fill-rule="evenodd" clip-rule="evenodd" d="M16.4536 17.0488C16.7973 17.0488 17.0836 16.7653 17.0836 16.4235C17.0836 16.0817 16.8055 15.7982 16.4536 15.7982H15.0136V15.2564C15.0136 14.9062 14.7355 14.6311 14.3836 14.6311C14.04 14.6311 13.7536 14.9145 13.7536 15.2564V15.7982H12.3136V15.2564C12.3136 14.9062 12.0355 14.6311 11.6836 14.6311C11.34 14.6311 11.0536 14.9145 11.0536 15.2564V15.7982H9.78545C9.78545 15.7649 9.80182 15.7399 9.80182 15.7065V14.1392C10.2436 14.0642 10.6855 13.9225 11.0864 13.7224C11.5364 13.4973 11.9455 13.1972 12.2973 12.847C12.6491 12.9304 13.0091 12.9721 13.3691 12.9721C14.5964 12.9721 15.7745 12.4802 16.6418 11.6132C17.5091 10.7461 18 9.56232 18 8.33681C18 7.1113 17.5091 5.92747 16.6418 5.06044C15.9218 4.34348 14.9891 3.88495 13.9909 3.74323C13.7045 2.78449 13.1482 1.9258 12.3791 1.26719C11.4218 0.450188 10.2109 0 8.95091 0C7.69091 0 6.48 0.450188 5.52273 1.26719C4.75364 1.9258 4.19727 2.79283 3.91091 3.7599C2.95364 3.90996 2.05364 4.36015 1.35818 5.06044C0.490909 5.92747 0 7.1113 0 8.33681C0 9.56232 0.490909 10.7461 1.35818 11.6132C2.22545 12.4802 3.40364 12.9721 4.63091 12.9721C4.99091 12.9721 5.35091 12.9304 5.70273 12.847C6.05455 13.2055 6.46364 13.4973 6.91364 13.7224C7.25727 13.8975 7.62545 14.0225 8.00182 14.1059V15.7065C8.00182 15.7065 8.01818 15.7649 8.01818 15.7982H6.91364V15.2564C6.91364 14.9062 6.63545 14.6311 6.28364 14.6311C5.94 14.6311 5.65364 14.9145 5.65364 15.2564V15.7982H4.21364V15.2564C4.21364 14.9062 3.93545 14.6311 3.58364 14.6311C3.24 14.6311 2.95364 14.9145 2.95364 15.2564V15.7982H1.51364C1.17 15.7982 0.883636 16.0817 0.883636 16.4235C0.883636 16.7653 1.16182 17.0488 1.51364 17.0488H2.95364V18.4827H1.51364C1.17 18.4827 0.883636 18.7662 0.883636 19.108C0.883636 19.4498 1.16182 19.7332 1.51364 19.7332H3.07636C3.19091 19.8916 3.37091 20 3.57545 20C3.78 20 3.96 19.8916 4.07455 19.7332H5.76818C5.88273 19.8916 6.06273 20 6.26727 20C6.47182 20 6.65182 19.8916 6.76636 19.7332H8.46C8.57455 19.8916 8.75455 20 8.95909 20C9.16364 20 9.34364 19.8916 9.45818 19.7332H11.1518C11.2664 19.8916 11.4464 20 11.6509 20C11.8555 20 12.0355 19.8916 12.15 19.7332H13.8436C13.9582 19.8916 14.1382 20 14.3427 20C14.5473 20 14.7273 19.8916 14.8418 19.7332H16.4045C16.7482 19.7332 17.0345 19.4498 17.0345 19.108C17.0345 18.7662 16.7564 18.4827 16.4045 18.4827H14.9645V17.0488H16.4045H16.4536ZM11.0618 17.0488V18.4827H9.62182V17.0488H11.0618ZM7.73182 12.1217C7.33909 11.9216 6.99545 11.6298 6.72545 11.2797C6.48 10.9462 6.03818 10.8295 5.66182 10.9879C5.34273 11.1213 4.99909 11.188 4.65545 11.1797H4.64727C3.89455 11.1797 3.17455 10.8795 2.63455 10.346C2.10273 9.81242 1.8 9.09546 1.8 8.33681C1.8 7.57816 2.10273 6.86119 2.63455 6.32764C3.16636 5.79408 3.88636 5.49396 4.64727 5.49396C5.08909 5.49396 5.46545 5.16882 5.53909 4.73531C5.66182 3.9183 6.07909 3.16799 6.70909 2.63443C7.33909 2.09254 8.14091 1.80075 8.96727 1.80075C9.79364 1.80075 10.5955 2.10088 11.2255 2.63443C11.8555 3.17632 12.2645 3.9183 12.3955 4.73531C12.4609 5.17716 12.8373 5.49396 13.2873 5.49396H13.3855C14.1382 5.49396 14.8582 5.79408 15.3982 6.32764C15.93 6.86119 16.2327 7.57816 16.2327 8.33681C16.2327 9.09546 15.93 9.81242 15.3982 10.346C14.8664 10.8795 14.1464 11.1797 13.3855 11.1797H13.3773C13.0336 11.1797 12.69 11.1213 12.3709 10.9879C11.9945 10.8295 11.5527 10.9546 11.3073 11.2797C11.0455 11.6382 10.7018 11.9216 10.3009 12.1217C10.1455 12.1967 9.98182 12.2468 9.81818 12.2968V10.5794L11.4218 8.97874C11.7736 8.6286 11.7736 8.06169 11.4218 7.71155C11.07 7.3614 10.5055 7.3614 10.1536 7.71155L8.91818 8.94539L7.68273 7.71155C7.33091 7.3614 6.76636 7.3614 6.41455 7.71155C6.06273 8.06169 6.06273 8.6286 6.41455 8.97874L8.01818 10.5794V12.2301C7.92818 12.1967 7.83 12.1717 7.74 12.1301L7.73182 12.1217ZM8.36182 17.0488V18.4827H6.92182V17.0488H8.36182ZM4.23 17.0488H5.67V18.4827H4.23V17.0488ZM13.7536 18.4827H12.3136V17.0488H13.7536V18.4827Z" fill="#3A4757"/>
</svg>