<svg width="20" height="20" viewBox="0 0 20 20" fill="none" xmlns="http://www.w3.org/2000/svg">
<path fill-rule="evenodd" clip-rule="evenodd" d="M8.61757 15.2661C7.30934 15.2661 6.2511 16.3246 6.2511 17.6331C6.2511 18.9415 7.30934 20 8.61757 20C9.9258 20 10.9841 18.9415 10.9841 17.6331C10.9841 16.3246 9.9258 15.2661 8.61757 15.2661Z" fill="#3A4757"/>
<path fill-rule="evenodd" clip-rule="evenodd" d="M14.8671 15.2661C13.5588 15.2661 12.5006 16.3246 12.5006 17.6331C12.5006 18.9415 13.5588 20 14.8671 20C16.1753 20 17.2336 18.9415 17.2336 17.6331C17.2336 16.3246 16.1753 15.2661 14.8671 15.2661Z" fill="#3A4757"/>
<path fill-rule="evenodd" clip-rule="evenodd" d="M3.6763 10.1072C3.10968 9.64877 2.65972 9.0737 2.35974 8.40696C2.05976 7.74021 1.92644 7.01513 1.9681 6.29004C2.00977 5.56495 2.21808 4.85654 2.58472 4.23146C2.95136 3.60639 3.45965 3.07299 4.07627 2.68128C4.68455 2.28957 5.3845 2.04787 6.10944 1.9812C6.83438 1.91452 7.55933 2.01453 8.2426 2.28123C8.91755 2.54793 9.5175 2.97298 10.0008 3.52305C10.4758 4.07311 10.8174 4.72319 10.9924 5.4316C11.1257 5.95667 11.6507 6.27337 12.1756 6.14002C12.7006 6.00667 13.0172 5.48161 12.8839 4.95655C12.6339 3.9481 12.1506 3.01465 11.4673 2.23956C10.7841 1.45613 9.9258 0.847728 8.95921 0.464349C7.98429 0.0726363 6.94271 -0.0690471 5.90946 0.0309647C4.87621 0.130977 3.88462 0.472684 3.00969 1.03108C2.13476 1.58948 1.40982 2.34791 0.884857 3.24801C0.368232 4.14812 0.0682554 5.15657 0.00992674 6.19003C-0.0484019 7.22348 0.151582 8.25694 0.576548 9.20705C1.00151 10.1572 1.64313 10.9823 2.4514 11.6323C2.87636 11.9657 3.48465 11.899 3.82629 11.4823C4.1596 11.0573 4.09293 10.4489 3.6763 10.1072Z" fill="#3A4757"/>
<path fill-rule="evenodd" clip-rule="evenodd" d="M7.92596 3.77308L5.8428 5.85666C5.45949 6.24004 5.45949 6.85677 5.8428 7.24015C6.2261 7.62353 6.84272 7.62353 7.22602 7.24015L9.30919 5.15657C9.69249 4.77319 9.69249 4.15645 9.30919 3.77308C8.92588 3.3897 8.30927 3.3897 7.92596 3.77308Z" fill="#3A4757"/>
<path fill-rule="evenodd" clip-rule="evenodd" d="M19.3167 9.01536C18.8751 8.57364 18.2751 8.32361 17.6419 8.32361H10.7007C10.0758 8.32361 9.47584 8.57364 9.02588 9.01536C8.57591 9.45708 8.33426 10.0572 8.33426 10.6906V11.1156H7.22602C6.23443 11.1156 5.27617 11.5073 4.5679 12.2157C3.86795 12.9158 3.46798 13.8743 3.46798 14.8744V17.6497C3.46798 18.1915 3.90128 18.6248 4.44291 18.6248C4.98453 18.6248 5.41783 18.1915 5.41783 17.6497V14.8744C5.41783 14.3993 5.60948 13.9409 5.94279 13.5992C6.28443 13.2575 6.74272 13.0742 7.21769 13.0742H8.32593V13.4909C8.32593 14.0326 8.75923 14.466 9.30085 14.466C9.84248 14.466 10.2758 14.0326 10.2758 13.4909V10.6989C10.2758 10.5906 10.3174 10.4822 10.4008 10.4072C10.4841 10.3322 10.5841 10.2822 10.6924 10.2822H17.6335C17.7418 10.2822 17.8502 10.3239 17.9252 10.4072C18.0002 10.4905 18.0502 10.5906 18.0502 10.6989V17.6414C18.0502 18.1831 18.4835 18.6165 19.0251 18.6165C19.5667 18.6165 20 18.1831 20 17.6414V10.6989C20 10.0738 19.75 9.47375 19.3084 9.0237L19.3167 9.01536Z" fill="#3A4757"/>
</svg>