<svg width="17" height="12" viewBox="0 0 17 12" fill="none" xmlns="http://www.w3.org/2000/svg">
<path d="M4.46 9.45996C4.2 9.45996 4 9.66996 4 9.91996C4 10.17 4.21 10.38 4.46 10.38C4.71 10.38 4.92 10.17 4.92 9.91996C4.92 9.66996 4.71 9.45996 4.46 9.45996Z" fill="#3A4757"/>
<path d="M12.83 9.45996C12.57 9.45996 12.37 9.66996 12.37 9.91996C12.37 10.17 12.58 10.38 12.83 10.38C13.08 10.38 13.29 10.17 13.29 9.91996C13.29 9.66996 13.08 9.45996 12.83 9.45996Z" fill="#3A4757"/>
<path d="M15.72 6.06L14.66 5.31L13.61 2.15C13.56 1.96 13.38 1.82 13.19 1.82H10.38V0.46C10.38 0.19 10.19 0 9.92 0H1.19C0.51 0 0 0.51 0 1.19V9.19C0 9.87 0.51 10.38 1.19 10.38H2.6C2.82 11.24 3.58 11.83 4.46 11.83C5.34 11.83 6.1 11.24 6.32 10.38H10.97C11.17 11.22 11.91 11.83 12.83 11.83C13.75 11.83 14.47 11.24 14.69 10.38H15.01C15.69 10.38 16.2 9.87 16.2 9.19V7.01C16.2 6.63 16.03 6.28 15.72 6.06ZM10.38 2.75H12.86L13.63 5.1H13.2L13.24 5.02C13.33 4.79 13.24 4.52 13.04 4.42C12.98 4.4 12.92 4.38 12.85 4.38C12.67 4.38 12.51 4.47 12.44 4.61L12.18 5.1H10.38V2.75ZM4.46 10.91C3.9 10.91 3.47 10.48 3.47 9.92C3.47 9.36 3.9 8.93 4.46 8.93C5.02 8.93 5.45 9.36 5.45 9.92C5.45 10.48 5.02 10.91 4.46 10.91ZM6.32 9.45C6.1 8.59 5.34 8 4.46 8C3.58 8 2.82 8.59 2.6 9.45H1.19C1.03 9.45 0.93 9.35 0.93 9.19V1.19C0.93 1.03 1.03 0.93 1.19 0.93H9.45V9.46H6.32V9.45ZM12.82 10.91C12.26 10.91 11.83 10.48 11.83 9.92C11.83 9.36 12.26 8.93 12.82 8.93C13.38 8.93 13.81 9.36 13.81 9.92C13.81 10.48 13.38 10.91 12.82 10.91ZM15.27 9.19C15.27 9.35 15.17 9.45 15.01 9.45H14.69C14.47 8.59 13.71 8 12.83 8C11.95 8 11.17 8.61 10.97 9.45H10.38V6.01L14.11 5.99L15.17 6.79C15.24 6.83 15.27 6.9 15.27 7V9.19Z" fill="#3A4757"/>
<path d="M1.92002 6.55005C1.65002 6.55005 1.46002 6.74005 1.46002 7.01005C1.46002 7.28005 1.65002 7.47005 1.92002 7.47005H8.47002C8.74002 7.47005 8.93002 7.28005 8.93002 7.01005C8.93002 6.74005 8.74002 6.55005 8.47002 6.55005H1.92002Z" fill="#3A4757"/>
</svg>