<svg width="20" height="20" viewBox="0 0 20 20" fill="none" xmlns="http://www.w3.org/2000/svg">
<path d="M3.6834 10.137C3.11285 9.64789 2.62382 9.0773 2.3793 8.4252C2.05327 7.7731 1.97177 7.03948 1.97177 6.30587C1.97177 5.57226 2.21628 4.83864 2.62382 4.26805C2.94984 3.61595 3.43888 3.04537 4.09093 2.6378C4.66147 2.23024 5.39503 1.9857 6.12858 1.90419C6.86214 1.82268 7.5957 1.90419 8.24775 2.23024C8.8998 2.47478 9.55184 2.96385 10.0409 3.45293C10.5299 4.02352 10.8559 4.67562 11.019 5.32772C11.182 5.81679 11.671 6.14284 12.2415 6.06133C12.7306 5.89831 13.0566 5.40923 12.9751 4.83864C12.7306 3.86049 12.2415 2.88234 11.5895 2.14873C10.9375 1.3336 10.0409 0.763013 9.06281 0.35545C8.00323 0.0294 6.94365 -0.0521127 5.96557 0.0293999C4.90599 0.110913 3.92792 0.436963 3.03135 1.00755C2.13478 1.57814 1.40122 2.31175 0.912185 3.20839C0.423148 4.10503 0.097123 5.08318 0.0156167 6.14285C-0.0658895 7.20251 0.178629 8.18066 0.58616 9.15881C0.993691 10.137 1.64574 10.9521 2.4608 11.6042C2.62382 11.7672 2.86833 11.8487 3.03135 11.8487C3.35737 11.8487 3.60189 11.6857 3.7649 11.4412C4.17243 11.0336 4.09093 10.463 3.6834 10.137Z" fill="#3A4757"/>
<path d="M7.92188 3.77899L5.88423 5.81681C5.4767 6.22437 5.4767 6.79496 5.88423 7.20252C6.04724 7.44706 6.29176 7.52857 6.53628 7.52857C6.7808 7.52857 7.02531 7.44706 7.18833 7.20252L9.30749 5.08319C9.71502 4.67563 9.71502 4.10504 9.30749 3.69748C8.98146 3.37143 8.32941 3.37143 7.92188 3.77899Z" fill="#3A4757"/>
<path d="M19.3325 8.9958C18.925 8.58824 18.2729 8.26218 17.6209 8.26218H10.6928C10.0408 8.26218 9.47025 8.50672 8.98121 8.9958C8.65519 9.32185 8.41067 9.81092 8.32916 10.3C8.32916 10.3 8.32916 10.3 8.32916 10.3815V14.4571C8.32916 14.5387 8.32916 14.5387 8.24766 14.6202C8.16615 14.7017 8.08464 14.7832 8.00314 14.8647H7.92163C7.67711 14.8647 7.5141 14.7017 7.5141 14.4571V11.1151H7.26958C6.29151 11.1151 5.31343 11.5227 4.57988 12.2563C3.92783 12.9084 3.5203 13.8866 3.5203 14.8647V17.6361C3.5203 18.2067 3.92783 18.6143 4.49837 18.6143H6.53603C6.94356 19.4294 7.75862 20 8.65519 20C9.63326 20 10.4483 19.4294 10.7744 18.6143H12.7305C13.138 19.4294 13.9531 20 14.8497 20C15.8277 20 16.6428 19.4294 16.9688 18.6143H19.0065C19.577 18.6143 19.9846 18.2067 19.9846 17.6361V10.7076C20.0661 10.0555 19.8215 9.48487 19.3325 8.9958Z" fill="#3A4757"/>
<path d="M8.41077 10.3C8.41077 10.3815 8.41077 10.5445 8.41077 10.626V11.0336V10.3C8.41077 10.3815 8.41077 10.3815 8.41077 10.3Z" fill="#3A4757"/>
</svg>