<svg width="15" height="14" viewBox="0 0 15 14" fill="none" xmlns="http://www.w3.org/2000/svg">
<path d="M14.6322 0C14.724 4.44024e-05 14.8125 0.0337803 14.8803 0.0945813C14.9481 0.155382 14.9902 0.238855 14.9985 0.328604C15.0068 0.418353 14.9805 0.507893 14.925 0.579638C14.8694 0.651383 14.7885 0.700147 14.6982 0.716354L14.6322 0.722241H10.8501C10.6101 0.722241 10.3771 0.799765 10.1861 0.940091L10.0941 1.01663L6.75898 4.08616C6.45688 4.36449 6.06787 4.53461 5.65496 4.56896L5.49996 4.57583H2.64189C2.06687 4.57583 1.59486 5.00564 1.54186 5.55517L1.53686 5.66017V9.69432C1.53686 10.2586 1.97487 10.7208 2.53488 10.7738L2.64189 10.7787H4.04992V10.7473C4.04992 9.88477 4.39908 9.0576 5.02059 8.44772C5.6421 7.83784 6.48505 7.49522 7.364 7.49522C8.24295 7.49522 9.0859 7.83784 9.70741 8.44772C10.3289 9.0576 10.6781 9.88477 10.6781 10.7473L10.6761 10.7787H14.6312C14.723 10.7787 14.8115 10.8124 14.8793 10.8732C14.9471 10.934 14.9892 11.0175 14.9975 11.1073C15.0058 11.197 14.9795 11.2866 14.924 11.3583C14.8684 11.43 14.7875 11.4788 14.6972 11.495L14.6312 11.5019H10.5881C10.4151 12.2134 10.0028 12.8469 9.41769 13.3002C8.83261 13.7535 8.10893 14 7.3635 14C6.61806 14 5.89438 13.7535 5.30931 13.3002C4.72423 12.8469 4.31191 12.2134 4.13892 11.5019H2.64189C1.66486 11.5019 0.866845 10.7561 0.803843 9.81404L0.799844 9.69432V5.66017C0.799844 4.70144 1.55986 3.91836 2.51988 3.85653L2.64189 3.85261H5.36195L2.97389 1.35715C2.79209 1.16749 2.54681 1.04837 2.28288 1.02154L2.16888 1.01565H0.368833C0.276912 1.01585 0.188242 0.982292 0.120269 0.921569C0.0522963 0.860847 0.00994235 0.777361 0.00154105 0.687537C-0.00686025 0.597714 0.0192995 0.508057 0.0748727 0.436208C0.130446 0.364359 0.211409 0.315519 0.301832 0.299298L0.367833 0.292429H2.16988C2.63189 0.292429 3.0759 0.463177 3.41391 0.767381L3.51191 0.862568L6.16497 3.63378L6.25597 3.5592L9.59205 0.488691C9.89434 0.210779 10.2833 0.0410251 10.6961 0.00686911L10.8511 0H14.6332H14.6322ZM7.365 8.21844C7.02224 8.21181 6.68157 8.27234 6.36293 8.39647C6.0443 8.52061 5.75409 8.70586 5.5093 8.94138C5.26451 9.17691 5.07005 9.45798 4.93729 9.76814C4.80454 10.0783 4.73617 10.4113 4.73617 10.7478C4.73617 11.0842 4.80454 11.4172 4.93729 11.7274C5.07005 12.0375 5.26451 12.3186 5.5093 12.5541C5.75409 12.7897 6.0443 12.9749 6.36293 13.099C6.68157 13.2232 7.02224 13.2837 7.365 13.2771C8.03982 13.264 8.68252 12.9918 9.15506 12.5189C9.62759 12.046 9.89229 11.4101 9.89229 10.7478C9.89229 10.0854 9.62759 9.44953 9.15506 8.97661C8.68252 8.5037 8.03982 8.23148 7.365 8.21844ZM7.365 8.94068C7.85341 8.94068 8.32181 9.13107 8.66717 9.46996C9.01252 9.80885 9.20654 10.2685 9.20654 10.7478C9.20654 11.227 9.01252 11.6867 8.66717 12.0256C8.32181 12.3644 7.85341 12.5548 7.365 12.5548C6.87659 12.5548 6.40819 12.3644 6.06283 12.0256C5.71747 11.6867 5.52346 11.227 5.52346 10.7478C5.52346 10.2685 5.71747 9.80885 6.06283 9.46996C6.40819 9.13107 6.87659 8.94068 7.365 8.94068ZM7.365 9.6639C7.07193 9.6639 6.79086 9.77815 6.58363 9.9815C6.37639 10.1849 6.25997 10.4607 6.25997 10.7482C6.25997 11.0358 6.37639 11.3116 6.58363 11.515C6.79086 11.7183 7.07193 11.8326 7.365 11.8326C7.65807 11.8326 7.93914 11.7183 8.14637 11.515C8.3536 11.3116 8.47003 11.0358 8.47003 10.7482C8.47003 10.4607 8.3536 10.1849 8.14637 9.9815C7.93914 9.77815 7.65807 9.6639 7.365 9.6639Z" fill="#3A4757"/>
</svg>