<svg width="15" height="16" viewBox="0 0 15 16" fill="none" xmlns="http://www.w3.org/2000/svg">
<path fill-rule="evenodd" clip-rule="evenodd" d="M13.8461 6.85712C14.0437 6.85712 14.2092 7.00542 14.2288 7.20016L14.9981 14.8192C15.0178 15.0142 14.8848 15.1922 14.6908 15.2306L10.8451 15.9925C10.6438 16.0324 10.4464 15.9087 10.3966 15.7114L10 14.1424L9.6039 15.7114C9.55964 15.8867 9.39871 16.004 9.22211 15.9999L9.15534 15.9925L5.3092 15.2306C5.11516 15.1922 4.98223 15.0142 5.00192 14.8192L5.77115 7.20016C5.79081 7.00542 5.95626 6.85712 6.15386 6.85712H13.8461ZM12.0327 9.14278H8.42846C8.26138 10.3317 7.52808 10.9945 6.30545 11.0445L6.15525 11.0468L5.80155 14.5508L8.94615 15.1733L9.62687 12.479C9.7175 12.1199 10.2044 12.0959 10.3479 12.4071L10.3731 12.4789L11.0531 15.174L14.1977 14.5508L13.8404 11.0166C12.8068 10.8722 12.1849 10.2257 12.0327 9.14278ZM8.46116 0C8.46478 0 8.46837 4.60018e-05 8.47194 0.000136965L8.49403 0.00132642L8.50876 0.0027215C8.524 0.00448838 8.53885 0.00709515 8.55327 0.0104827L8.56236 0.0134211L12.7935 1.15627C12.9598 1.2012 13.073 1.34894 13.0768 1.5148L13.073 1.57768L12.6884 4.24433C12.6647 4.40855 12.5375 4.53581 12.3779 4.56505L12.3077 4.57141H11.1538V5.71426C11.1538 5.90128 11.0178 6.05682 10.8384 6.08908L10.7692 6.09521C10.5804 6.09521 10.4234 5.96045 10.3908 5.78274L10.3846 5.71426V4.19046C10.3846 4.00344 10.5207 3.8479 10.7001 3.81565L10.7692 3.80951H11.9738L12.2638 1.80266L8.583 0.808378L6.86436 2.62561C6.73147 2.76606 6.5174 2.78399 6.36385 2.67776L6.30939 2.6321L4.49925 0.806854L0.812338 1.80266L1.10234 3.80875L2.30772 3.80951C2.49653 3.80951 2.65357 3.94427 2.68614 4.12198L2.69233 4.19046V10.6659L4.23079 10.6666C4.4196 10.6666 4.57664 10.8014 4.6092 10.9791L4.6154 11.0476C4.6154 11.2346 4.47934 11.3901 4.29992 11.4224L4.23079 11.4285H2.30772C2.1189 11.4285 1.96187 11.2938 1.9293 11.1161L1.9231 11.0476V4.57065L0.769261 4.57141C0.601784 4.57141 0.456606 4.46468 0.404794 4.31227L0.388513 4.24433L0.00389916 1.57768C-0.0204844 1.40862 0.0714997 1.24709 0.223673 1.17778L0.283449 1.15628L4.5142 0.0134233C4.55047 0.00387405 4.58213 0 4.6154 0L4.56825 0.00304775L4.58253 0.00132715C4.58985 0.000697198 4.59715 0.000278784 4.60443 6.72111e-05L4.6154 0H8.46116ZM7.65109 9.14227L6.34725 9.14206L6.23175 10.2834L6.28958 10.2827C7.08483 10.2473 7.51773 9.89082 7.65109 9.14227ZM13.6508 9.14206L12.8101 9.14227C12.9183 9.74973 13.2238 10.099 13.7601 10.228L13.6508 9.14206ZM13.4977 7.61826H6.50155L6.42375 8.38016H13.5743L13.4977 7.61826ZM7.57385 0.761902H5.53232L6.57693 1.81485L7.57385 0.761902Z" fill="#3A4757"/>
</svg>