<svg width="20" height="18" viewBox="0 0 20 18" fill="none" xmlns="http://www.w3.org/2000/svg">
<path fill-rule="evenodd" clip-rule="evenodd" d="M5.14977 0C4.88656 0 4.63413 0.109241 4.44802 0.303691L0.290674 4.64722C0.104558 4.84167 0 5.1054 0 5.38039C0 5.65539 0.104558 5.91912 0.290674 6.11357L3.06224 9.00925C3.35831 9.31859 3.79492 9.39161 4.15734 9.22832V15.5153C4.15734 16.1743 4.4079 16.8063 4.8539 17.2722C5.2999 17.7382 5.90481 18 6.53555 18H13.4645C14.0952 18 14.7001 17.7382 15.1461 17.2722C15.5921 16.8063 15.8427 16.1743 15.8427 15.5153V9.22832C16.2051 9.39161 16.6417 9.31859 16.9378 9.00925L19.7093 6.11357C19.8954 5.91912 20 5.65539 20 5.38039C20 5.1054 19.8954 4.84167 19.7093 4.64722L15.552 0.303691C15.3659 0.109242 15.1134 0 14.8502 0H5.14977ZM2.39592 5.38039L5.56084 2.07373H14.4392L17.6041 5.38039L16.236 6.80973L15.552 6.09506C15.2682 5.79852 14.8413 5.70981 14.4705 5.8703C14.0996 6.03078 13.8578 6.40886 13.8578 6.82824V15.5153C13.8578 15.6243 13.8164 15.7288 13.7426 15.8059C13.6688 15.883 13.5688 15.9263 13.4645 15.9263H6.53555C6.43122 15.9263 6.33117 15.883 6.2574 15.8059C6.18363 15.7288 6.14219 15.6243 6.14219 15.5153V6.82824C6.14219 6.40886 5.90039 6.03078 5.52955 5.8703C5.15871 5.70981 4.73185 5.79852 4.44802 6.09506L3.76398 6.80973L2.39592 5.38039Z" fill="#3A4757"/>
</svg>