<svg width="16" height="11" viewBox="0 0 16 11" fill="none" xmlns="http://www.w3.org/2000/svg">
<path fill-rule="evenodd" clip-rule="evenodd" d="M0.761905 8.22259H15.2381V0.730897H0.761905V8.22259ZM7.49867 10.2691H8.5021V8.95349H7.49867V10.2691ZM15.619 0H0.380952C0.170667 0 0 0.163721 0 0.365449V8.58804C0 8.7905 0.170667 8.95349 0.380952 8.95349H6.736V10.2691H4.37181C4.16152 10.2691 3.99086 10.4328 3.99086 10.6346C3.99086 10.8363 4.16152 11 4.37181 11H11.6282C11.8385 11 12.0091 10.8363 12.0091 10.6346C12.0091 10.4328 11.8385 10.2691 11.6282 10.2691H9.264V8.95349H15.619C15.8293 8.95349 16 8.7905 16 8.58804V0.365449C16 0.163721 15.8293 0 15.619 0Z" fill="#3A4757"/>
</svg>