<svg width="18" height="15" viewBox="0 0 18 15" fill="none" xmlns="http://www.w3.org/2000/svg">
<path d="M3.29289 0.292893C3.68342 -0.0976311 4.31658 -0.0976311 4.70711 0.292893C5.09763 0.683417 5.09763 1.31658 4.70711 1.70711L3.41421 3L12.2 3C15.4 3 18 5.6 18 8.8C18 11.9 15.6 14.9 12.5 15L6 15C5.4 15 5 14.6 5 14C5 13.4 5.4 13 6 13L12.5 13C14.5 13 16 10.7 16 8.8C16 6.9 14.5 5 12.5 5H3.41422L4.70711 6.29289C5.09763 6.68342 5.09763 7.31658 4.70711 7.70711C4.31658 8.09763 3.68342 8.09763 3.29289 7.70711L0.292893 4.70711C-0.097631 4.31658 -0.097631 3.68342 0.292893 3.29289L3.29289 0.292893Z" fill="#3A4757"/>
</svg>