<svg width="16" height="20" viewBox="0 0 16 20" fill="none" xmlns="http://www.w3.org/2000/svg">
<path d="M13.5928 20H2.40715C1.07733 20 0 18.9334 0 17.6168V9.309C0 8.10075 0.917412 7.09248 2.09574 6.94249V5.84255C2.09574 4.28432 2.71015 2.80941 3.82956 1.70948C4.94897 0.601215 6.42188 -0.0320783 8.02946 0.00125293C8.79537 0.00125293 9.55287 0.151243 10.2683 0.442892C10.9921 0.742873 11.6318 1.17618 12.1789 1.72614C12.566 2.11779 12.566 2.75108 12.162 3.14272C11.7664 3.52603 11.1268 3.52603 10.7312 3.12606C10.3693 2.76775 9.95687 2.48443 9.48553 2.29278C9.0142 2.10112 8.52604 2.01779 8.00421 2.00113C6.97738 2.00113 5.9758 2.40944 5.25197 3.12606C4.52814 3.84268 4.11573 4.81762 4.11573 5.84255V6.91749H13.5928C14.9227 6.91749 16 7.98409 16 9.30067V17.6085C16 18.9251 14.9227 19.9917 13.5928 19.9917V20ZM2.40715 8.92569C2.19674 8.92569 2.01999 9.10068 2.01999 9.309V17.6168C2.01999 17.8251 2.19674 18.0001 2.40715 18.0001H13.5928C13.8033 18.0001 13.98 17.8251 13.98 17.6168V9.309C13.98 9.10068 13.8033 8.92569 13.5928 8.92569H2.40715ZM7.91163 15.7753C6.80063 15.7753 5.89164 14.8753 5.89164 13.7754C5.89164 12.6755 6.80063 11.7755 7.91163 11.7755C9.02262 11.7755 9.93161 12.6755 9.93161 13.7754C9.93161 14.8753 9.02262 15.7753 7.91163 15.7753Z" fill="#3A4757"/>
</svg>