<svg width="16" height="20" viewBox="0 0 16 20" fill="none" xmlns="http://www.w3.org/2000/svg">
<path d="M13.5928 6.91667H4.11573V5.84167C4.11573 4.81667 4.51973 3.85 5.25197 3.125C5.98422 2.4 6.97738 2 8.00421 2C8.51762 2.01667 9.0142 2.09167 9.48553 2.29167C9.95687 2.49167 10.3777 2.76667 10.7312 3.125C11.1184 3.51667 11.758 3.525 12.162 3.14167C12.566 2.75833 12.566 2.125 12.1789 1.725C11.6318 1.175 10.9837 0.741667 10.2683 0.441667C9.54445 0.141667 8.8122 0.00833333 8.00421 0C6.4303 0 4.94056 0.608333 3.82956 1.71667C2.71015 2.81667 2.09574 4.29167 2.09574 5.85V6.95833C0.917412 7.10833 0 8.1 0 9.30833V17.6167C0 18.9333 1.07733 20 2.40715 20H13.5928C14.9227 20 16 18.9333 16 17.6167V9.30833C16 7.99167 14.9227 6.925 13.5928 6.925V6.91667ZM7.91163 15.7667C6.80063 15.7667 5.89164 14.8667 5.89164 13.7667C5.89164 12.6667 6.80063 11.7667 7.91163 11.7667C9.02262 11.7667 9.93161 12.6667 9.93161 13.7667C9.93161 14.8667 9.02262 15.7667 7.91163 15.7667Z" fill="#3A4757"/>
</svg>