<svg width="20" height="20" viewBox="0 0 20 20" fill="none" xmlns="http://www.w3.org/2000/svg">
<path fill-rule="evenodd" clip-rule="evenodd" d="M9.99978 3.37504C7.72108 3.37504 5.87478 5.22161 5.87478 7.5007C5.87478 9.77954 7.72149 11.625 9.99978 11.625C12.2781 11.625 14.1248 9.77954 14.1248 7.5007C14.1248 5.22161 12.2785 3.37504 9.99978 3.37504ZM7.87478 7.5007C7.87478 6.32591 8.82592 5.37504 9.99978 5.37504C11.1736 5.37504 12.1248 6.32591 12.1248 7.5007C12.1248 8.67442 11.174 9.62504 9.99978 9.62504C8.82551 9.62504 7.87478 8.67442 7.87478 7.5007Z" fill="#3A4757"/>
<path fill-rule="evenodd" clip-rule="evenodd" d="M2.9523 17.0941C1.12896 15.2826 0 12.7731 0 10C0 4.47746 4.47746 0 10 0C15.5225 0 20 4.47746 20 10C20 12.7731 18.871 15.2828 17.0476 17.0942L17.0612 17.1199L16.6712 17.4494C14.9015 19.0354 12.5633 20 10 20C9.99997 20 10 20 10 20C9.93531 20 9.87068 19.9994 9.80628 19.9982C7.3205 19.9509 5.0566 18.9965 3.3319 17.4522L2.93864 17.1199L2.9523 17.0941ZM2 10C2 5.58203 5.58203 2 10 2C14.418 2 18 5.58203 18 10C18 12.0425 17.2344 13.9064 15.9745 15.3202C14.5851 13.5617 12.3994 12.4792 9.9999 12.4792C7.60045 12.4792 5.41481 13.5616 4.02543 15.3201C2.76559 13.9063 2 12.0425 2 10ZM9.65394 17.9926C9.76014 17.9972 9.86688 17.9996 9.97412 18C9.98271 18 9.99131 18 9.9999 18C11.6543 18 13.1881 17.497 14.4634 16.6356C13.462 15.3201 11.8331 14.4792 9.9999 14.4792C8.16671 14.4792 6.53777 15.3201 5.5364 16.6356C6.72235 17.4366 8.13186 17.9278 9.65394 17.9926Z" fill="#3A4757"/>
</svg>