<svg width="20" height="20" viewBox="0 0 20 20" fill="none" xmlns="http://www.w3.org/2000/svg">
<path d="M7.23129 0C4.95821 0 3.11554 1.84253 3.11554 4.11538C3.11554 6.38823 4.95821 8.23076 7.23129 8.23076C9.50438 8.23076 11.347 6.38823 11.347 4.11538C11.347 1.84253 9.50438 0 7.23129 0Z" fill="#3A4757"/>
<path d="M10.3627 19.7189L8.08825 18.0153C7.05678 17.2427 6.84698 15.7803 7.61966 14.7489C8.39234 13.7175 9.8549 13.5078 10.8864 14.2804L12.1597 15.2341C12.5281 15.51 13.0504 15.4351 13.3264 15.0668L13.4692 14.8762C13.7912 14.4464 13.8982 13.8827 13.6878 13.3885C13.6346 13.2634 13.5782 13.1405 13.5186 13.0206C13.2305 12.4412 12.8344 11.8683 12.2762 11.4668C11.275 10.4921 10.0123 9.82778 8.64044 9.55527C7.23852 9.2768 5.78551 9.41998 4.46492 9.96674C3.14434 10.5135 2.01541 11.4393 1.22073 12.6272C0.426052 13.8151 0.00125758 15.2119 0 16.6411V18.7189C0 19.2712 0.447759 19.7189 1.0001 19.7189H10.3627Z" fill="#3A4757"/>
<path fill-rule="evenodd" clip-rule="evenodd" d="M19.5994 10.5843C20.0415 10.9154 20.1314 11.5421 19.8003 11.9841L14.0952 19.5995C13.9361 19.8118 13.6993 19.9522 13.4367 19.9899C13.1742 20.0275 12.9074 19.9594 12.6951 19.8003L8.88711 16.948C8.44505 16.6169 8.35513 15.9902 8.68628 15.5482C9.01743 15.1061 9.64424 15.0162 10.0863 15.3473L13.0939 17.6001L18.1994 10.7851C18.5306 10.3431 19.1574 10.2532 19.5994 10.5843Z" fill="#3A4757"/>
</svg>