<svg width="20" height="20" viewBox="0 0 20 20" fill="none" xmlns="http://www.w3.org/2000/svg">
<path fill-rule="evenodd" clip-rule="evenodd" d="M3.13042 17.2668C1.20277 15.4438 0 12.8623 0 10C0 4.47748 4.47748 0 10 0C15.5225 0 20 4.47748 20 10C20 12.8623 18.7972 15.4439 16.8695 17.2668L16.8749 17.277L16.6766 17.4446C14.9061 19.0334 12.5659 20 10 20C7.43486 20 5.09519 19.034 3.32495 17.4459L3.125 17.277L3.13042 17.2668ZM10 10.4167C11.956 10.4167 13.5417 8.83101 13.5417 6.875C13.5417 4.91899 11.956 3.33333 10 3.33333C8.04399 3.33333 6.45833 4.91899 6.45833 6.875C6.45833 8.83101 8.04399 10.4167 10 10.4167ZM3.75 15.1102C5.41667 17.1935 8.08333 18.0269 10.4167 18.0269C12.75 18.0269 15.4167 16.3602 16.25 15.1102C15.4167 14.138 12.6667 12.1935 10 12.1935C7.33333 12.1935 4.72222 14.138 3.75 15.1102Z" fill="#3A4757"/>
</svg>