<svg width="20" height="20" viewBox="0 0 20 20" fill="none" xmlns="http://www.w3.org/2000/svg">
<path fill-rule="evenodd" clip-rule="evenodd" d="M19.5996 10.5843C20.0416 10.9154 20.1315 11.5421 19.8004 11.9842L14.0959 19.5995C13.9369 19.8118 13.7001 19.9522 13.4375 19.9899C13.175 20.0275 12.9083 19.9594 12.696 19.8003L8.88837 16.948C8.44636 16.6169 8.35645 15.9902 8.68757 15.5482C9.01868 15.1061 9.64543 15.0162 10.0874 15.3474L13.0947 17.6001L18.1997 10.7851C18.5308 10.3431 19.1576 10.2532 19.5996 10.5843Z" fill="#3A4757"/>
<path fill-rule="evenodd" clip-rule="evenodd" d="M7.23066 1.99999C6.0624 1.99999 5.11532 2.94707 5.11532 4.11537C5.11532 5.28368 6.0624 6.23075 7.23066 6.23075C8.39891 6.23075 9.346 5.28368 9.346 4.11537C9.346 2.94707 8.39891 1.99999 7.23066 1.99999ZM3.11533 4.11537C3.11533 1.84253 4.95781 0 7.23066 0C9.5035 0 11.346 1.84253 11.346 4.11537C11.346 6.38822 9.5035 8.23074 7.23066 8.23074C4.95781 8.23074 3.11533 6.38822 3.11533 4.11537Z" fill="#3A4757"/>
<path fill-rule="evenodd" clip-rule="evenodd" d="M8.24985 11.5169C7.23581 11.3154 6.18481 11.419 5.2296 11.8145C4.27438 12.21 3.4578 12.8798 2.88298 13.7391C2.30825 14.5983 2.00098 15.6086 1.99999 16.6423V17.7188H4.46148C5.01376 17.7188 5.46147 18.1665 5.46147 18.7188C5.46147 19.2711 5.01376 19.7188 4.46148 19.7188H0.999995C0.447713 19.7188 0 19.2711 0 18.7188L3.97362e-07 16.641C0.00125745 15.2118 0.426008 13.8151 1.22061 12.6272C2.01521 11.4392 3.14401 10.5134 4.46446 9.96667C5.78491 9.41991 7.23777 9.27673 8.63955 9.55521C10.0413 9.83368 11.3291 10.5213 12.3403 11.5313C12.7311 11.9216 12.7315 12.5547 12.3412 12.9455C11.9509 13.3363 11.3178 13.3366 10.927 12.9464C10.1955 12.2158 9.26389 11.7183 8.24985 11.5169Z" fill="#3A4757"/>
</svg>