<svg width="19" height="20" viewBox="0 0 19 20" fill="none" xmlns="http://www.w3.org/2000/svg">
<path fill-rule="evenodd" clip-rule="evenodd" d="M9.16657 2.19176C7.56647 2.19176 6.24077 3.44922 6.24077 5.03416C6.24077 6.6191 7.56647 7.87656 9.16657 7.87656C10.7667 7.87656 12.0924 6.6191 12.0924 5.03416C12.0924 3.44922 10.7667 2.19176 9.16657 2.19176ZM3.9385 5.03416C3.9385 2.269 6.26341 0 9.16657 0C12.0697 0 14.3946 2.269 14.3946 5.03416C14.3946 7.79932 12.0697 10.0683 9.16657 10.0683C6.26341 10.0683 3.9385 7.79932 3.9385 5.03416Z" fill="#3A4757"/>
<path fill-rule="evenodd" clip-rule="evenodd" d="M9.16667 13.5693C7.31489 13.5693 5.5355 14.2797 4.2209 15.5496C3.21346 16.5228 2.54228 17.7636 2.28346 19.1023C2.16837 19.6975 1.56821 20.0913 0.942958 19.9817C0.317706 19.8721 -0.0958652 19.3008 0.0192203 18.7056C0.360261 16.9416 1.24552 15.3013 2.58111 14.0112C4.3248 12.3268 6.69336 11.3775 9.16667 11.3775C11.64 11.3775 14.0085 12.3268 15.7522 14.0112C17.0878 15.3013 17.9731 16.9416 18.3141 18.7056C18.4292 19.3008 18.0156 19.8721 17.3904 19.9817C16.7651 20.0913 16.165 19.6975 16.0499 19.1023C15.7911 17.7636 15.1199 16.5228 14.1124 15.5496C12.7978 14.2797 11.0184 13.5693 9.16667 13.5693Z" fill="#3A4757"/>
</svg>