<svg width="19" height="20" viewBox="0 0 19 20" fill="none" xmlns="http://www.w3.org/2000/svg">
<path d="M9.16667 0C6.35411 0 4.07407 2.23858 4.07407 5C4.07407 7.76142 6.35411 10 9.16667 10C11.9792 10 14.2593 7.76142 14.2593 5C14.2593 2.23858 11.9792 0 9.16667 0Z" fill="#3A4757"/>
<path fill-rule="evenodd" clip-rule="evenodd" d="M15.3942 12.8918C17.165 14.2454 18.3333 16.3025 18.3333 19C18.3333 19.5523 17.8773 20 17.3148 20H1.01852C0.456006 20 0 19.5523 0 19C0 16.3684 1.17656 14.3355 2.93598 12.9797C4.66972 11.6438 6.93542 10.9856 9.15699 10.9649C11.3783 10.9442 13.6519 11.5601 15.3942 12.8918Z" fill="#3A4757"/>
</svg>