<svg width="20" height="14" viewBox="0 0 20 14" fill="none" xmlns="http://www.w3.org/2000/svg">
<path d="M19.29 4.37084L17.51 1.55309C17.2 1.06498 16.76 0.66561 16.23 0.399366C15.73 0.144216 15.16 0 14.59 0H2.2C1.66 0 1.13 0.18859 0.73 0.543582C0.26 0.954041 0 1.542 0 2.16323V10.0507C0 10.6719 0.27 11.2599 0.73 11.6704C1.1 11.9921 1.58 12.1807 2.08 12.2029C2.22 12.5357 2.4 12.8352 2.63 13.0903C2.89 13.3788 3.2 13.6117 3.54 13.767C3.88 13.9223 4.24 14 4.61 14C4.98 14 5.34 13.9223 5.68 13.767C6.02 13.6117 6.33 13.3788 6.59 13.0903C6.82 12.8352 7 12.5357 7.14 12.2139H12.18C12.32 12.5357 12.49 12.8352 12.72 13.0903C13.24 13.6672 13.97 14 14.71 14C15.45 14 16.16 13.6783 16.7 13.0903C16.93 12.8352 17.11 12.5357 17.25 12.2139H17.8C18.34 12.2139 18.87 12.0254 19.27 11.6704C19.73 11.2599 20 10.6719 20 10.0618V6.81141C20 5.95721 19.75 5.1141 19.29 4.38193V4.37084ZM14.59 2.2187C14.87 2.2187 15.15 2.28526 15.39 2.40729C15.6 2.51822 15.77 2.66244 15.87 2.82884L16.89 4.4374H13V2.2187H14.59ZM5.36 11.2266C5.32 11.3376 5.26 11.4374 5.18 11.5151C5.1 11.5927 5.01 11.6704 4.92 11.7147C4.72 11.8035 4.5 11.8035 4.3 11.7147C4.2 11.6704 4.11 11.6038 4.04 11.5151C3.97 11.4374 3.91 11.3376 3.87 11.2266C3.83 11.1157 3.81 11.0048 3.81 10.8827C3.81 10.7607 3.83 10.6498 3.87 10.5388C3.91 10.4279 3.97 10.3281 4.04 10.2504C4.12 10.1616 4.2 10.1062 4.3 10.0618C4.4 10.0174 4.5 9.99525 4.61 9.99525C4.72 9.99525 4.82 10.0174 4.92 10.0618C5.02 10.1062 5.11 10.1727 5.18 10.2504C5.26 10.3391 5.31 10.4279 5.36 10.5388C5.4 10.6498 5.42 10.7607 5.42 10.8827C5.42 11.0048 5.4 11.1157 5.36 11.2266ZM15.29 11.5151C14.99 11.8479 14.45 11.8479 14.15 11.5151C14 11.3487 13.91 11.1157 13.91 10.8827C13.91 10.6498 14 10.4168 14.15 10.2504C14.3 10.084 14.51 9.98415 14.72 9.98415C14.93 9.98415 15.14 10.0729 15.29 10.2504C15.44 10.4279 15.53 10.6498 15.53 10.8827C15.53 11.1157 15.44 11.3487 15.29 11.5151ZM18 9.93978C18 9.93978 17.88 9.98415 17.8 9.98415H17.4C17.27 9.49604 17.04 9.0412 16.71 8.67512C15.65 7.49921 13.8 7.49921 12.74 8.67512C12.41 9.0412 12.18 9.49604 12.05 9.98415H7.29C7.26 9.88431 7.25 9.78447 7.21 9.68463C7.07 9.30745 6.86 8.96355 6.6 8.67512C6.34 8.38669 6.03 8.15372 5.69 7.99841C5 7.6878 4.23 7.6878 3.54 7.99841C3.2 8.15372 2.89 8.38669 2.63 8.67512C2.37 8.96355 2.16 9.30745 2.02 9.68463C2.02 9.70681 2.01 9.7401 2 9.76228V2.26307C2 2.26307 2.12 2.2187 2.2 2.2187H11V5.54675C11 6.15689 11.45 6.6561 12 6.6561H17.98C17.98 6.6561 18 6.74485 18 6.78922V9.93978Z" fill="#3A4757"/>
</svg>