<svg width="18" height="20" viewBox="0 0 18 20" fill="none" xmlns="http://www.w3.org/2000/svg">
<path d="M14.9 5.24737C14.59 5.12743 14.36 4.88755 14.24 4.5877C14.12 4.28785 14.13 3.95802 14.27 3.66816L14.5 3.20839C14.62 2.97851 14.69 2.72863 14.69 2.48875C14.69 0.769614 11.83 0 9 0C6.17 0 3.3 0.779609 3.31 2.48875C3.31 2.72863 3.37 2.97851 3.48 3.17841L3.72 3.66816C3.87 3.95802 3.88 4.28785 3.75 4.5877C3.63 4.88755 3.39 5.11743 3.09 5.24737C1.03 6.04697 0 7.7861 0 10.3948C0 11.1244 0.09 11.884 0.26 12.6337C0.27 12.7236 0.29 12.8236 0.33 12.9135C1.39 17.0914 4.95 20 9 20C13.05 20.01 16.61 17.1014 17.67 12.9335C17.7 12.8436 17.74 12.7436 17.74 12.6537C17.91 11.894 18 11.1444 18 10.4148C18 7.79609 16.95 6.06696 14.91 5.26736L14.9 5.24737ZM8.99 3.11844C7.1 3.11844 5.92 2.74862 5.41 2.49875C5.92 2.23888 7.1 1.87906 8.99 1.87906C10.88 1.87906 12.06 2.24887 12.57 2.49875C12.06 2.75862 10.88 3.11844 8.99 3.11844ZM5.53 5.26736C5.62 5.04747 5.68 4.80759 5.71 4.57771C7.57 5.08745 10.43 5.08745 12.3 4.57771C12.33 4.80759 12.39 5.04747 12.48 5.26736C12.79 6.05696 13.4 6.65666 14.2 6.96651C15.08 7.30634 15.61 7.86606 15.88 8.73562C15.62 8.81558 15.43 8.91553 15.26 8.99549C14.98 9.13542 14.82 9.21538 14.36 9.21538C13.9 9.21538 13.72 9.12542 13.43 8.99549C13.06 8.81558 12.56 8.5857 11.67 8.5857H11.72C10.83 8.59569 10.32 8.82557 9.96 8.99549C9.67 9.12542 9.49 9.21538 9.03 9.21538C8.57 9.21538 8.38 9.12542 8.1 8.99549C7.73 8.81558 7.23 8.5857 6.34 8.5857C5.45 8.5857 4.97 8.81558 4.58 8.99549C4.29 9.12542 4.1 9.21538 3.65 9.21538C3.2 9.21538 3.03 9.12542 2.75 8.99549C2.58 8.91553 2.39 8.81558 2.13 8.73562C2.4 7.86606 2.93 7.31633 3.81 6.96651C4.61 6.65666 5.22 6.05696 5.53 5.26736ZM14.11 12.2439C13.67 12.2439 13.5 12.1639 13.22 12.034C12.87 11.8641 12.39 11.6442 11.53 11.6442H11.51C10.66 11.6542 10.17 11.874 9.82 12.044C9.54 12.1739 9.37 12.2539 8.94 12.2539C8.51 12.2539 8.34 12.1739 8.06 12.044C7.71 11.874 7.22 11.6542 6.37 11.6542C5.52 11.6542 5.04 11.874 4.68 12.044C4.4 12.1739 4.24 12.2539 3.8 12.2539C3.36 12.2539 3.17 12.1639 2.87 12.034C2.64 11.944 2.35 11.8141 1.96 11.7341C1.9 11.3743 1.87 11.0345 1.86 10.6946C2.24 10.8745 2.7 11.0944 3.59 11.0944C4.48 11.0944 4.95 10.8646 5.35 10.6846C5.64 10.5547 5.82 10.4648 6.28 10.4648C6.74 10.4648 6.92 10.5547 7.21 10.6846C7.58 10.8646 8.08 11.0944 8.97 11.0944C9.86 11.0944 10.35 10.8646 10.73 10.6846C11.02 10.5547 11.2 10.4648 11.66 10.4648C12.12 10.4648 12.3 10.5547 12.59 10.6846C12.96 10.8646 13.46 11.0944 14.35 11.0944C15.24 11.0944 15.72 10.8646 16.08 10.6846C16.07 11.0245 16.04 11.3743 15.98 11.7241C15.58 11.8041 15.28 11.924 15.06 12.024C14.76 12.1539 14.54 12.2439 14.1 12.2439H14.11ZM3.85 14.1029C4.69 14.1029 5.18 13.883 5.54 13.7131C5.81 13.5832 5.98 13.5032 6.41 13.5032C6.84 13.5032 7.01 13.5832 7.29 13.7131C7.64 13.883 8.12 14.1029 8.98 14.1029C9.84 14.1029 10.32 13.883 10.68 13.7131C10.96 13.5832 11.13 13.5032 11.56 13.5032C11.99 13.5032 12.16 13.5832 12.44 13.7131C12.79 13.883 13.27 14.1029 14.13 14.1029C14.64 14.1029 15.02 14.023 15.32 13.923C14.12 16.4717 11.69 18.1209 9.01 18.1209C6.33 18.1209 3.91 16.4817 2.71 13.933C3.01 14.033 3.38 14.1029 3.87 14.1029H3.85Z" fill="#3A4757"/>
</svg>