<svg width="19" height="20" viewBox="0 0 19 20" fill="none" xmlns="http://www.w3.org/2000/svg">
<path fill-rule="evenodd" clip-rule="evenodd" d="M10.3077 0.195367C9.56895 -0.0651237 8.76427 -0.0651221 8.02551 0.195371L2.29856 2.21474C0.920474 2.70066 -0.0318223 4.01898 0.000813607 5.52102C0.0681728 8.62117 0.420688 11.4968 2.25258 14.4731C3.73255 16.8777 5.84191 18.7482 8.31742 19.8241L8.32275 19.8263C8.86406 20.0579 9.46917 20.0579 10.0105 19.8264L10.0158 19.8241C12.4935 18.7472 14.6043 16.8745 16.0845 14.4669C17.9157 11.4883 18.2657 8.61968 18.3325 5.52114C18.3649 4.01918 17.4128 2.70065 16.0345 2.21466L10.3077 0.195367ZM13.6197 7.68156C13.9706 7.25202 13.9095 6.61718 13.4831 6.2636C13.0568 5.91002 12.4266 5.9716 12.0757 6.40113L8.21874 11.1215L6.90034 9.41382C6.5613 8.97467 5.93309 8.89556 5.49718 9.23712C5.06128 9.57868 4.98275 10.2116 5.32179 10.6507L6.94739 12.7563C7.09411 12.9476 7.28177 13.1031 7.4964 13.2112C7.71198 13.3198 7.94918 13.3778 8.19018 13.3808C8.4273 13.3836 8.66295 13.3331 8.87826 13.233C9.09357 13.1329 9.28403 12.9857 9.43578 12.8021L9.43942 12.7976L13.6197 7.68156Z" fill="#3A4757"/>
</svg>