<svg width="19" height="20" viewBox="0 0 19 20" fill="none" xmlns="http://www.w3.org/2000/svg">
<path fill-rule="evenodd" clip-rule="evenodd" d="M9.64708 2.09697C9.33602 1.98729 8.99721 1.98729 8.68615 2.09697L2.9592 4.11634C2.36873 4.32454 1.98714 4.87829 2.00014 5.47693C2.06447 8.43741 2.39773 10.8858 3.95217 13.4114C5.22845 15.485 7.02842 17.0687 9.10584 17.9725C9.14665 17.9895 9.18659 17.9895 9.2274 17.9725C11.3066 17.0679 13.1079 15.4823 14.3843 13.4061C15.9386 10.878 16.2693 8.43628 16.3332 5.47735C16.3461 4.87837 15.9644 4.32446 15.3739 4.11626L9.64708 2.09697ZM8.02551 0.195371C8.76427 -0.065122 9.56895 -0.0651238 10.3077 0.195367L16.0345 2.21466C17.4128 2.70065 18.3649 4.01918 18.3325 5.52114C18.2657 8.61968 17.9157 11.4883 16.0845 14.4669C14.6043 16.8744 12.4935 18.7472 10.0158 19.8241L10.0105 19.8264C9.46917 20.0579 8.86406 20.0579 8.32275 19.8263L8.31742 19.8241C5.84191 18.7481 3.73255 16.8777 2.25258 14.4731C0.420688 11.4968 0.0681728 8.62117 0.000813607 5.52102C-0.0318223 4.01898 0.920474 2.70066 2.29856 2.21474L8.02551 0.195371ZM13.4829 6.26372C13.9093 6.6173 13.9704 7.25215 13.6194 7.68168L9.43556 12.8022C9.2838 12.9858 9.09334 13.133 8.87802 13.2331C8.6627 13.3332 8.42795 13.3837 8.19083 13.3809L8.18994 13.3809C7.94894 13.3779 7.71174 13.3199 7.49616 13.2113C7.28152 13.1032 7.09386 12.9477 6.94713 12.7564L5.32155 10.6509C4.98251 10.2117 5.06104 9.57881 5.49694 9.23724C5.93285 8.89568 6.56106 8.97479 6.9001 9.41394L8.2185 11.1216L12.0754 6.40126C12.4264 5.97172 13.0565 5.91014 13.4829 6.26372ZM8.52748 11.5219L8.52999 11.5251L8.52748 11.5219Z" fill="#3A4757"/>
</svg>