<svg width="15" height="15" viewBox="0 0 15 15" fill="none" xmlns="http://www.w3.org/2000/svg">
<path fill-rule="evenodd" clip-rule="evenodd" d="M12.855 14.2404C12.843 13.6614 12.855 12.4697 12.9225 11.2524C12.942 11.2067 12.9532 11.1572 12.9532 11.1039C12.9532 11.0747 12.9427 11.0492 12.9368 11.0222C13.0163 9.7367 13.1603 8.48495 13.407 7.96745H14.2455L14.25 14.2397L12.855 14.2404ZM0.75675 7.96745H1.59225C1.842 8.49095 1.98675 9.7652 2.0655 11.0664C2.064 11.0792 2.058 11.0904 2.058 11.1039C2.058 11.1309 2.06775 11.1534 2.073 11.1782C2.145 12.4254 2.157 13.6599 2.14425 14.2487L0.76125 14.2494L0.75675 7.96745ZM2.96175 0.758448C3.453 3.86045 2.37525 6.64295 1.68 7.21745H0.756L0.75225 0.759948L2.96175 0.758448ZM2.83725 11.4789H12.156C12.1027 12.6414 12.105 13.7139 12.1117 14.2412L2.8875 14.2479C2.89275 13.7229 2.892 12.6459 2.83725 11.4789ZM6.1785 4.92845C6.1785 4.19945 6.77175 3.6062 7.50075 3.6062C8.22975 3.6062 8.82375 4.19945 8.82375 4.92845C8.82375 4.98245 8.82 5.0357 8.81325 5.08745C8.79375 5.2472 8.877 5.40095 9.021 5.47145C9.45 5.6807 9.71625 6.10595 9.71625 6.5822C9.71625 7.1432 9.3375 7.63445 8.7945 7.77695C8.6805 7.8062 8.5875 7.88795 8.5425 7.99745C8.418 8.3012 8.172 8.5232 7.87575 8.6282V7.13495L8.6115 6.52445C8.77125 6.3917 8.793 6.1562 8.661 5.99645C8.529 5.8367 8.29275 5.81495 8.133 5.94695L7.87575 6.1607V5.6237C7.87575 5.41595 7.7085 5.2487 7.50075 5.2487C7.29375 5.2487 7.12575 5.41595 7.12575 5.6237V6.9407L6.966 6.80345C6.80925 6.6692 6.573 6.68795 6.43725 6.8447C6.303 7.0022 6.321 7.23845 6.4785 7.37345L7.12575 7.92845V8.6282C6.83025 8.5232 6.5835 8.30195 6.45975 7.9982C6.4155 7.88795 6.32175 7.8062 6.20775 7.77695C5.66475 7.63445 5.286 7.1432 5.286 6.5822C5.286 6.10595 5.55225 5.6807 5.9805 5.47145C6.1245 5.4017 6.20775 5.2487 6.189 5.0897C6.183 5.0372 6.1785 4.98245 6.1785 4.92845ZM12.1988 10.7289H7.87575V9.39695C8.4225 9.2852 8.8965 8.9477 9.159 8.44745C9.93675 8.16545 10.4662 7.42295 10.4662 6.5822C10.4662 5.90345 10.1295 5.28845 9.57375 4.92395C9.5715 3.78395 8.64225 2.8562 7.50075 2.8562C6.35925 2.8562 5.43075 3.78395 5.4285 4.92395C4.872 5.28845 4.536 5.90345 4.536 6.5822C4.536 7.42295 5.06475 8.16545 5.84325 8.44745C6.10575 8.9477 6.57975 9.2852 7.12575 9.39695V10.7289H2.79375C2.71125 9.5222 2.55975 8.33645 2.28375 7.68245C3.2535 6.6842 4.152 3.72995 3.7215 0.757698L11.2785 0.753198C10.8457 3.72545 11.7443 6.68195 12.7148 7.68095C12.4335 8.3387 12.2805 9.5237 12.1988 10.7289ZM14.2455 7.21745H13.3193C12.6233 6.64295 11.5448 3.8567 12.0398 0.752448L14.2418 0.750948L14.2455 7.21745ZM14.9955 7.60895C14.9955 7.60295 14.9993 7.59845 14.9993 7.59245C14.9993 7.58645 14.9955 7.5812 14.9955 7.5752L14.991 0.375948C14.991 0.276198 14.9513 0.180948 14.8815 0.110448C14.811 0.0399483 14.715 0.00094841 14.616 0.00094841L3.35775 0.00769828C3.30975 -0.00205172 3.2595 -0.00280167 3.20925 0.00694833C3.2085 0.00694833 3.20775 0.00769828 3.207 0.00769828L0.3765 0.00994811C0.27675 0.00994811 0.1815 0.0496983 0.111 0.120198C0.0412502 0.190698 0.00149989 0.286698 0.00149989 0.384948L0.00675023 7.5617C0.00525023 7.57145 0 7.5812 0 7.59245C0 7.60295 0.00525023 7.6127 0.00675023 7.62395L0.0112499 14.6244C0.0112499 14.8314 0.17925 14.9994 0.38625 14.9994L14.6258 14.9897C14.8328 14.9897 15 14.8209 15 14.6147L14.9955 7.60895Z" fill="#3A4757"/>
</svg>