<svg width="24" height="20" viewBox="0 0 24 20" fill="none" xmlns="http://www.w3.org/2000/svg">
<path d="M8.88785 11.8107C8.88727 11.8943 8.89135 11.9779 8.90008 12.061C8.90787 12.1401 8.91565 12.2203 8.92455 12.2993H11.8516C11.9295 12.2992 12.0064 12.3169 12.0761 12.3509C12.1458 12.3848 12.2064 12.4342 12.2531 12.495C12.2997 12.5558 12.3312 12.6264 12.3449 12.7012C12.3586 12.7759 12.3542 12.8527 12.332 12.9255C12.3017 13.0268 12.2385 13.1158 12.1518 13.1791C12.0652 13.2423 11.9598 13.2766 11.8516 13.2766H9.2059C9.43289 13.7812 9.80431 14.2115 10.2757 14.5159C10.7464 14.8188 11.2998 14.9766 11.8638 14.9688C12.2959 14.971 12.7231 14.8788 13.1138 14.699C13.3746 14.5769 13.6168 14.4202 13.8333 14.2332C13.9384 14.1457 14.0741 14.1011 14.2121 14.1088C14.3501 14.1165 14.4798 14.1758 14.574 14.2744C14.6245 14.3256 14.6638 14.3864 14.6894 14.4529C14.715 14.5195 14.7264 14.5905 14.7228 14.6615C14.7193 14.7325 14.7009 14.802 14.6688 14.8659C14.6367 14.9297 14.5916 14.9865 14.5361 15.0327C14.2236 15.2932 13.8746 15.5092 13.4997 15.6741C12.9844 15.8954 12.427 16.0084 11.8638 16.0056C10.9922 16.0186 10.1392 15.7597 9.42943 15.2667C8.72301 14.7791 8.19906 14.0804 7.93701 13.2766H7.1174C6.98438 13.2766 6.85681 13.2251 6.76275 13.1334C6.66869 13.0418 6.61585 12.9175 6.61585 12.788C6.61585 12.6584 6.66869 12.5341 6.76275 12.4425C6.85681 12.3508 6.98438 12.2993 7.1174 12.2993H7.71682C7.70792 12.1802 7.70236 12.0827 7.69791 12.0133C7.69346 11.944 7.69791 11.8747 7.69791 11.8107C7.69791 11.7468 7.69791 11.6797 7.69791 11.6081C7.69791 11.5366 7.70792 11.4413 7.71682 11.3221H7.1174C6.98438 11.3221 6.85681 11.2707 6.76275 11.179C6.66869 11.0874 6.61585 10.9631 6.61585 10.8335C6.61585 10.7039 6.66869 10.5797 6.76275 10.488C6.85681 10.3964 6.98438 10.3449 7.1174 10.3449H7.93701C8.2001 9.54012 8.72371 8.83998 9.42943 8.34933C10.1376 7.85247 10.9912 7.5911 11.8638 7.60397C12.4125 7.60104 12.9558 7.70875 13.4596 7.92032C13.7992 8.06307 14.1175 8.24964 14.406 8.47501C14.4628 8.52005 14.5094 8.576 14.543 8.63937C14.5766 8.70274 14.5964 8.77218 14.6012 8.84334C14.606 8.9145 14.5957 8.98586 14.5709 9.05297C14.5461 9.12007 14.5074 9.18149 14.4572 9.23338C14.3645 9.33006 14.2378 9.38912 14.1023 9.39876C13.9669 9.4084 13.8327 9.36791 13.7265 9.28538C13.5183 9.12734 13.2912 8.99421 13.0504 8.88886C12.6775 8.72481 12.273 8.64023 11.8638 8.64077C11.3009 8.63362 10.7488 8.79139 10.2791 9.09362C9.80566 9.40106 9.43402 9.83574 9.20924 10.3449H12.4421C12.52 10.3449 12.5969 10.3625 12.6667 10.3965C12.7364 10.4305 12.797 10.4798 12.8438 10.5406C12.8905 10.6014 12.9221 10.6719 12.9359 10.7467C12.9498 10.8214 12.9456 10.8982 12.9236 10.9711C12.8929 11.0724 12.8295 11.1613 12.7427 11.2245C12.6559 11.2878 12.5505 11.322 12.4421 11.3221H8.92788C8.91899 11.4023 8.9112 11.4814 8.90342 11.5605C8.8936 11.6436 8.8884 11.7271 8.88785 11.8107Z" fill="#3A4757"/>
<path d="M21.1107 12.0141H20.657C20.5243 12.0141 20.397 11.9627 20.3031 11.8713C20.2093 11.7799 20.1566 11.6559 20.1566 11.5266C20.1566 11.3973 20.2093 11.2733 20.3031 11.1819C20.397 11.0904 20.5243 11.0391 20.657 11.0391H21.1107C21.2435 11.0391 21.3708 11.0904 21.4646 11.1819C21.5585 11.2733 21.6112 11.3973 21.6112 11.5266C21.6112 11.6559 21.5585 11.7799 21.4646 11.8713C21.3708 11.9627 21.2435 12.0141 21.1107 12.0141Z" fill="#3A4757"/>
<path d="M21.8981 9.18458V3.33432C21.8981 2.28777 21.0396 1.38423 19.9653 1.38423H14.9609L14.6051 0.625863C14.5448 0.497661 14.4591 0.382298 14.353 0.286376C14.2469 0.190454 14.1225 0.115856 13.9867 0.0668509C13.851 0.0178455 13.7067 -0.00460541 13.562 0.000783515C13.4174 0.00617244 13.2753 0.0392957 13.1438 0.0982566L10.2713 1.38423H2.00176C1.47451 1.39555 0.972074 1.60464 0.59916 1.96792C0.226245 2.33121 0.0116171 2.82068 0 3.33432V18.1171C0 19.1636 0.929706 20 2.00176 20H19.9653C20.2195 20.0011 20.4714 19.9532 20.7064 19.859C20.9414 19.7648 21.155 19.6261 21.3347 19.451C21.5144 19.276 21.6567 19.0679 21.7534 18.839C21.8501 18.61 21.8993 18.3647 21.8981 18.1171V13.868C22.4801 13.7917 23.0139 13.5123 23.4004 13.0816C23.787 12.651 24 12.0984 24 11.5263C24 10.9542 23.787 10.4016 23.4004 9.97097C23.0139 9.54032 22.4801 9.26091 21.8981 9.18458ZM13.5575 0.987713C13.5698 0.982647 13.583 0.980038 13.5964 0.980038C13.6098 0.980038 13.623 0.982647 13.6353 0.987713C13.6479 0.992194 13.6594 0.999112 13.6692 1.00805C13.6789 1.01699 13.6867 1.02776 13.692 1.03971L15.249 4.35161H6.03753L13.5575 0.987713ZM1.82605 2.38636L8.08266 2.36361L4.62184 3.91068L3.62096 4.34403H1.03869V3.15231C1.04101 2.94968 1.12474 2.756 1.27193 2.61282C1.41912 2.46963 1.61805 2.38833 1.82605 2.38636ZM20.8428 18.22C20.8407 18.4228 20.7571 18.6168 20.6099 18.7602C20.4627 18.9036 20.2636 18.985 20.0554 18.987H1.82605C1.61786 18.985 1.41877 18.9036 1.27155 18.7602C1.12432 18.6168 1.04072 18.4228 1.03869 18.22V5.32774H18.6786C18.8114 5.32774 18.9387 5.27638 19.0325 5.18495C19.1264 5.09352 19.1791 4.96952 19.1791 4.84022C19.1791 4.71092 19.1264 4.58692 19.0325 4.49549C18.9387 4.40406 18.8114 4.3527 18.6786 4.3527H16.3555L15.4291 2.38094H19.9253C20.3557 2.38094 20.7738 2.91505 20.7738 3.33323V4.59971L20.8283 9.16291H19.4738C19.0875 9.1632 18.7171 9.31282 18.444 9.57891C18.1708 9.84501 18.0173 10.2058 18.017 10.5821V12.4726C18.0175 12.8488 18.1713 13.2093 18.4444 13.4752C18.7175 13.741 19.0877 13.8905 19.4738 13.8908H20.8417L20.8428 18.22ZM21.5768 12.9114H19.4749C19.3542 12.9114 19.2384 12.8648 19.1529 12.7817C19.0674 12.6986 19.0192 12.5859 19.0189 12.4683V10.5821C19.0192 10.4645 19.0674 10.3518 19.1529 10.2688C19.2384 10.1857 19.3542 10.139 19.4749 10.139H21.5768C21.7673 10.1339 21.9569 10.1659 22.1344 10.2334C22.312 10.3008 22.4739 10.4022 22.6105 10.5317C22.7471 10.6611 22.8557 10.8159 22.9299 10.9869C23.0041 11.158 23.0423 11.3417 23.0423 11.5274C23.0423 11.713 23.0041 11.8968 22.9299 12.0678C22.8557 12.2389 22.7471 12.3937 22.6105 12.5231C22.4739 12.6525 22.312 12.754 22.1344 12.8214C21.9569 12.8889 21.7673 12.9209 21.5768 12.9157V12.9114Z" fill="#3A4757"/>
</svg>