<svg width="12" height="15" viewBox="0 0 12 15" fill="none" xmlns="http://www.w3.org/2000/svg">
<path fill-rule="evenodd" clip-rule="evenodd" d="M11.6152 0C11.8276 0 12 0.168 12 0.375V12.8925C12 12.8993 11.9962 12.9045 11.9962 12.9105C11.9962 12.9165 12 12.9218 12 12.9277V14.625C12 14.832 11.8276 15 11.6152 15H0.384813C0.172396 15 0 14.832 0 14.625V12.9277C0 12.9218 0.00307828 12.9165 0.00307828 12.9105L0 12.8925V0.375C0 0.168 0.172396 0 0.384813 0H11.6152ZM11.2304 13.3027H0.769625V14.25H11.2304V13.3027ZM11.2304 0.75H6.38481V12.5175H11.2304V0.75ZM5.61519 0.75H0.769625V12.5175H5.61519V0.75ZM7.30621 5.67525C7.51863 5.67525 7.69102 5.84325 7.69102 6.05025V7.78275C7.69102 7.98975 7.51863 8.15775 7.30621 8.15775C7.09379 8.15775 6.9214 7.98975 6.9214 7.78275V6.05025C6.9214 5.84325 7.09379 5.67525 7.30621 5.67525ZM4.69364 5.67555C4.90605 5.67555 5.07845 5.84355 5.07845 6.05055V7.78305C5.07845 7.99005 4.90605 8.15805 4.69364 8.15805C4.48122 8.15805 4.30883 7.99005 4.30883 7.78305V6.05055C4.30883 5.84355 4.48122 5.67555 4.69364 5.67555Z" fill="#3A4757"/>
</svg>