<svg width="20" height="20" viewBox="0 0 20 20" fill="none" xmlns="http://www.w3.org/2000/svg">
<path d="M3.60761 5.66C3.60761 7.3 4.93122 8.63 6.56334 8.63C8.19547 8.63 9.51908 7.3 9.51908 5.66C9.51908 4.02 8.19547 2.69 6.56334 2.69C4.93122 2.69 3.60761 4.02 3.60761 5.66ZM7.82724 5.66C7.82724 6.36 7.25998 6.93 6.56334 6.93C5.86671 6.93 5.29944 6.36 5.29944 5.66C5.29944 4.96 5.86671 4.39 6.56334 4.39C7.25998 4.39 7.82724 4.96 7.82724 5.66Z" fill="#3A4757"/>
<path d="M4.78192 19.24C4.56298 18.88 4.44355 18.47 4.40375 18.05H2.37354C2.14465 18.05 1.95556 17.86 1.95556 17.63V11.72C2.31383 11.68 2.68205 11.66 3.04033 11.66H3.06023C4.53312 11.63 5.97616 11.96 7.27986 12.6L8.14568 10.86C6.56332 10.08 4.81178 9.68 3.03037 9.72C2.6721 9.72 2.30388 9.74 1.94561 9.77V2.36C1.94561 2.13 2.1347 1.94 2.36359 1.94H17.5602C17.7891 1.94 17.9782 2.13 17.9782 2.36V10.28C17.9782 11.63 19.9089 11.68 19.9089 10.31V2.36C19.9089 1.06 18.854 0 17.5602 0H2.36359C1.06984 0 0.0149279 1.06 0.0149279 2.36V10.72C-0.00497598 10.83 -0.00497598 10.94 0.0149279 11.05V17.64C0.0149279 18.94 1.06984 20 2.36359 20H5.49846C5.20985 19.79 4.96106 19.55 4.77197 19.24H4.78192Z" fill="#3A4757"/>
<path d="M13.4402 15.52C13.3207 15.46 13.2013 15.41 13.052 15.41C12.9824 15.41 12.9127 15.42 12.853 15.44C12.7933 15.46 12.7236 15.49 12.6639 15.52C12.3952 15.66 12.2161 15.93 12.2161 16.25C12.2161 16.71 12.5942 17.09 13.052 17.09C13.2511 17.09 13.4302 17.01 13.5695 16.89C13.7586 16.74 13.888 16.51 13.888 16.25C13.888 15.93 13.6989 15.66 13.4402 15.52Z" fill="#3A4757"/>
<path d="M13.062 14.91C13.2013 14.91 13.3207 14.86 13.4202 14.79C13.5994 14.67 13.7288 14.47 13.7288 14.24V11.16C13.7288 10.79 13.4302 10.49 13.062 10.49C12.6938 10.49 12.3952 10.79 12.3952 11.16V14.24C12.3952 14.47 12.5246 14.67 12.7037 14.79C12.8132 14.86 12.9326 14.91 13.062 14.91Z" fill="#3A4757"/>
<path d="M19.889 17.51L19.7099 17.12L14.7041 7.05C14.5548 6.75 14.3159 6.49 14.0273 6.32C13.7387 6.15 13.4103 6.05 13.062 6.05C12.7137 6.05 12.3852 6.14 12.0966 6.32C11.808 6.5 11.5692 6.75 11.4199 7.06L6.3245 17.3C6.18517 17.58 6.11551 17.9 6.12546 18.21C6.14536 18.55 6.24488 18.85 6.39416 19.1C6.55339 19.37 6.79224 19.59 7.06094 19.75C7.23013 19.85 7.43912 19.91 7.69787 19.95H7.78744C7.84715 19.98 7.90686 19.99 7.96657 19.99H18.1673C18.4858 19.99 18.7943 19.91 19.063 19.75C19.3417 19.59 19.5706 19.37 19.7298 19.1C19.899 18.83 19.9885 18.52 19.9985 18.21C20.0084 17.97 19.9686 17.72 19.889 17.49V17.51ZM17.9782 18.04C17.9285 18.11 17.8489 18.16 17.7693 18.16H8.3547C8.26513 18.16 8.18551 18.12 8.14571 18.04C8.09595 17.97 8.09595 17.87 8.13575 17.8L9.70817 14.64L10.6138 12.83L12.843 8.34C12.8828 8.26 12.9724 8.2 13.062 8.2C13.1515 8.2 13.2411 8.25 13.2809 8.34L16.3959 14.6L17.9882 17.81C18.028 17.89 18.0181 17.98 17.9782 18.05V18.04Z" fill="#3A4757"/>
</svg>