<svg width="19" height="20" viewBox="0 0 19 20" fill="none" xmlns="http://www.w3.org/2000/svg">
<path fill-rule="evenodd" clip-rule="evenodd" d="M10.3077 0.195367C9.56895 -0.0651237 8.76427 -0.0651221 8.02551 0.195371L2.29856 2.21474C0.920474 2.70066 -0.0318223 4.01898 0.000813607 5.52102C0.0681728 8.62117 0.420688 11.4968 2.25258 14.4731C3.73255 16.8777 5.84191 18.7482 8.31742 19.8241L8.32275 19.8263C8.86406 20.0579 9.46917 20.0579 10.0105 19.8264L10.0158 19.8241C12.4935 18.7472 14.6043 16.8744 16.0845 14.4669C17.9157 11.4883 18.2657 8.61968 18.3325 5.52114C18.3649 4.01918 17.4128 2.70065 16.0345 2.21466L10.3077 0.195367ZM8.07515 10.514C8.07515 11.0703 8.52283 11.5214 9.07506 11.5214C9.62729 11.5214 10.075 11.0703 10.075 10.514L10.075 5.47724C10.075 4.92089 9.62729 4.46988 9.07506 4.46988C8.52283 4.46988 8.07515 4.92089 8.07515 5.47724V10.514ZM9.06838 15.0471C9.62062 15.0471 10.0683 14.5961 10.0683 14.0397C10.0683 13.4834 9.62062 13.0324 9.06838 13.0324C8.51615 13.0324 8.06848 13.4834 8.06848 14.0397C8.06848 14.5961 8.51615 15.0471 9.06838 15.0471Z" fill="#3A4757"/>
</svg>