<svg width="20" height="20" viewBox="0 0 20 20" fill="none" xmlns="http://www.w3.org/2000/svg">
<path fill-rule="evenodd" clip-rule="evenodd" d="M9.99994 0C9.56094 0 9.13046 0.121152 8.7559 0.350113C8.38134 0.579074 8.07718 0.906941 7.87702 1.29765L0.255159 16.5414L0.254369 16.543C0.0719364 16.9057 -0.0149024 17.3089 0.00209026 17.7146C0.0191075 18.1208 0.139691 18.516 0.35239 18.8625C0.565088 19.209 0.86284 19.4955 1.21737 19.6945C1.5719 19.8936 1.97143 19.9988 2.37803 20L2.38106 20H17.6188L17.6218 20C18.0284 19.9988 18.428 19.8936 18.7825 19.6945C19.137 19.4955 19.4348 19.209 19.6475 18.8625C19.8602 18.516 19.9808 18.1208 19.9978 17.7146C20.0148 17.309 19.928 16.9059 19.7457 16.5433L19.7447 16.5414L12.1273 1.3064L12.1228 1.29767C11.9226 0.906963 11.6185 0.579074 11.244 0.350113C10.8694 0.121152 10.4389 0 9.99994 0ZM10 6.22537C10.5523 6.22537 11 6.67309 11 7.22537V11.8087C11 12.361 10.5523 12.8087 10 12.8087C9.44771 12.8087 9 12.361 9 11.8087V7.22537C9 6.67309 9.44771 6.22537 10 6.22537ZM11.25 14.8073C11.25 15.4976 10.6904 16.0573 10 16.0573C9.30964 16.0573 8.75 15.4976 8.75 14.8073C8.75 14.1169 9.30964 13.5573 10 13.5573C10.6904 13.5573 11.25 14.1169 11.25 14.8073Z" fill="#3A4757"/>
</svg>