<svg width="20" height="20" viewBox="0 0 20 20" fill="none" xmlns="http://www.w3.org/2000/svg">
<path fill-rule="evenodd" clip-rule="evenodd" d="M9.99996 6.22537C10.5522 6.22537 11 6.67308 11 7.22537V11.8087C11 12.361 10.5522 12.8087 9.99996 12.8087C9.44767 12.8087 8.99996 12.361 8.99996 11.8087V7.22537C8.99996 6.67308 9.44767 6.22537 9.99996 6.22537Z" fill="#3A4757"/>
<path d="M9.99984 16.0573C10.6902 16.0573 11.2498 15.4976 11.2498 14.8073C11.2498 14.1169 10.6902 13.5573 9.99984 13.5573C9.30948 13.5573 8.74984 14.1169 8.74984 14.8073C8.74984 15.4976 9.30948 16.0573 9.99984 16.0573Z" fill="#3A4757"/>
<path fill-rule="evenodd" clip-rule="evenodd" d="M8.7559 0.350113C9.13046 0.121152 9.56094 0 9.99994 0C10.4389 0 10.8694 0.121152 11.244 0.350113C11.6185 0.579074 11.9226 0.906963 12.1228 1.29767L12.1273 1.3064L19.7447 16.5414L19.7457 16.5433C19.928 16.9059 20.0148 17.309 19.9978 17.7146C19.9808 18.1208 19.8602 18.516 19.6475 18.8625C19.4348 19.209 19.137 19.4955 18.7825 19.6945C18.428 19.8936 18.0284 19.9988 17.6218 20L17.6188 20H2.38106L2.37803 20C1.97143 19.9988 1.5719 19.8936 1.21737 19.6945C0.86284 19.4955 0.565088 19.209 0.35239 18.8625C0.139691 18.516 0.0191075 18.1208 0.00209026 17.7146C-0.0149024 17.3089 0.0719364 16.9057 0.254369 16.543L0.255159 16.5414L7.87702 1.29765C8.07718 0.906941 8.38134 0.579074 8.7559 0.350113ZM9.99994 2C9.92903 2 9.8595 2.01957 9.79901 2.05655C9.73948 2.09294 9.69096 2.1448 9.65862 2.20657L2.04261 17.4386L2.04121 17.4414C2.01166 17.5 1.99759 17.5653 2.00034 17.6309C2.00309 17.6965 2.02256 17.7603 2.05692 17.8163C2.09127 17.8723 2.13936 17.9185 2.19662 17.9507C2.25357 17.9826 2.31771 17.9996 2.38301 18H17.6169C17.6822 17.9996 17.7463 17.9826 17.8032 17.9507C17.8605 17.9185 17.9086 17.8723 17.943 17.8163C17.9773 17.7603 17.9968 17.6965 17.9995 17.6309C18.0023 17.5653 17.9882 17.5 17.9587 17.4414L17.9573 17.4386L10.3412 2.20657C10.3089 2.1448 10.2604 2.09294 10.2009 2.05655C10.1404 2.01957 10.0708 2 9.99994 2Z" fill="#3A4757"/>
</svg>