<svg width="19" height="20" viewBox="0 0 19 20" fill="none" xmlns="http://www.w3.org/2000/svg">
<path fill-rule="evenodd" clip-rule="evenodd" d="M8.68615 2.09697C8.99721 1.98729 9.33602 1.98729 9.64708 2.09697L15.3739 4.11626C15.9644 4.32447 16.3461 4.87837 16.3332 5.47735C16.2693 8.43628 15.9386 10.878 14.3843 13.4061C13.1079 15.4823 11.3066 17.0679 9.2274 17.9725C9.18659 17.9895 9.14665 17.9895 9.10584 17.9725C7.02842 17.0687 5.22845 15.485 3.95217 13.4114C2.39773 10.8859 2.06447 8.43741 2.00014 5.47693C1.98714 4.8783 2.36873 4.32454 2.9592 4.11634L8.68615 2.09697ZM10.3077 0.195367C9.56895 -0.0651235 8.76427 -0.0651224 8.02551 0.195371L2.29856 2.21474C0.920474 2.70066 -0.0318223 4.01898 0.000813607 5.52102C0.0681728 8.62118 0.420688 11.4968 2.25258 14.4731C3.73255 16.8777 5.84192 18.7481 8.31742 19.8241L8.31742 19.8241L8.32275 19.8264C8.86406 20.0579 9.46916 20.0579 10.0105 19.8264L10.0105 19.8264L10.0158 19.8241C12.4935 18.7472 14.6043 16.8745 16.0845 14.4669C17.9157 11.4883 18.2657 8.61968 18.3325 5.52114C18.3649 4.01918 17.4128 2.70066 16.0345 2.21466L10.3077 0.195367ZM8.075 10.514C8.075 11.0704 8.52267 11.5214 9.0749 11.5214C9.62713 11.5214 10.0748 11.0704 10.0748 10.514L10.0748 5.47728C10.0748 4.92093 9.62713 4.46993 9.0749 4.46993C8.52267 4.46993 8.075 4.92093 8.075 5.47728V10.514ZM9.06823 15.0471C9.62046 15.0471 10.0681 14.5961 10.0681 14.0398C10.0681 13.4834 9.62046 13.0324 9.06823 13.0324C8.516 13.0324 8.06832 13.4834 8.06832 14.0398C8.06832 14.5961 8.516 15.0471 9.06823 15.0471Z" fill="#3A4757"/>
</svg>