<svg width="13" height="14" viewBox="0 0 13 14" fill="none" xmlns="http://www.w3.org/2000/svg">
<path fill-rule="evenodd" clip-rule="evenodd" d="M11.938 13.2544H1.06219C0.897775 13.2544 0.764715 13.1247 0.764715 12.9644V3.53784H12.2354V12.9644C12.2354 13.1247 12.1016 13.2544 11.938 13.2544ZM1.06219 0.745593H11.938C12.1016 0.745593 12.2354 0.875326 12.2354 1.03488V2.79225H0.764715V1.03488C0.764715 0.875326 0.897775 0.745593 1.06219 0.745593ZM11.938 0H1.06219C0.476417 0 0 0.464504 0 1.03488V12.9644C0 13.5355 0.476417 14 1.06219 14H11.938C12.5237 14 13.0002 13.5355 13.0002 12.9644V1.03488C13.0002 0.464504 12.5237 0 11.938 0Z" fill="#3A4757"/>
<path fill-rule="evenodd" clip-rule="evenodd" d="M7.00038 12.2305C5.2191 12.2305 3.76945 10.7815 3.76945 9C3.76945 7.21855 5.2191 5.76953 7.00038 5.76953C8.78167 5.76953 10.2305 7.21855 10.2305 9C10.2305 10.7815 8.78167 12.2305 7.00038 12.2305ZM7.00038 5C4.79436 5 3 6.79454 3 9C3 11.2055 4.79436 13 7.00038 13C9.20564 13 11 11.2055 11 9C11 6.79454 9.20564 5 7.00038 5Z" fill="#3A4757"/>
<path fill-rule="evenodd" clip-rule="evenodd" d="M1.40905 2H3.59095C3.81674 2 4 1.776 4 1.5C4 1.224 3.81674 1 3.59095 1H1.40905C1.18326 1 1 1.224 1 1.5C1 1.776 1.18326 2 1.40905 2Z" fill="#3A4757"/>
<path fill-rule="evenodd" clip-rule="evenodd" d="M11.5 3C11.7756 3 12 2.77559 12 2.5C12 2.22343 11.7756 2 11.5 2C11.2234 2 11 2.22343 11 2.5C11 2.77559 11.2234 3 11.5 3Z" fill="#3A4757"/>
<path fill-rule="evenodd" clip-rule="evenodd" d="M9.5 3C9.77559 3 10 2.77559 10 2.5C10 2.22343 9.77559 2 9.5 2C9.22343 2 9 2.22343 9 2.5C9 2.77559 9.22343 3 9.5 3Z" fill="#3A4757"/>
<path fill-rule="evenodd" clip-rule="evenodd" d="M6.50035 10.2954C5.51022 10.2954 4.70472 9.48999 4.70472 8.5C4.70472 7.51001 5.51022 6.70462 6.50035 6.70462C7.49049 6.70462 8.29528 7.51001 8.29528 8.5C8.29528 9.48999 7.49049 10.2954 6.50035 10.2954ZM6.50035 6C5.12192 6 4 7.12176 4 8.5C4 9.87824 5.12192 11 6.50035 11C7.87879 11 9 9.87824 9 8.5C9 7.12176 7.87879 6 6.50035 6Z" fill="#3A4757"/>
</svg>