<svg width="14" height="20" viewBox="0 0 14 20" fill="none" xmlns="http://www.w3.org/2000/svg">
<path d="M7.99171 12.4376C8.18521 12.6374 8.42709 12.7273 8.67865 12.7273C8.9302 12.7273 9.17208 12.6274 9.36558 12.4376C9.74292 12.048 9.74292 11.4186 9.36558 11.029L7.97236 9.59041V7.06294C7.97236 6.51349 7.53697 6.06394 7.00484 6.06394C6.4727 6.06394 6.03732 6.51349 6.03732 7.06294V10C6.03732 10.2697 6.14375 10.5195 6.3179 10.7093L7.99171 12.4376Z" fill="#3A4757"/>
<path d="M14 10C14 7.7023 12.9454 5.65435 11.32 4.32567V2.38761C11.32 1.74825 11.0781 1.14885 10.6427 0.699301C10.2073 0.24975 9.62681 0 9.0076 0H4.9924C4.37319 0 3.79267 0.24975 3.35729 0.699301C2.92191 1.14885 2.68003 1.74825 2.68003 2.38761V4.32567C1.0546 5.65435 0 7.7023 0 10C0 12.2977 1.0546 14.3457 2.68003 15.6743V17.6124C2.68003 18.2517 2.92191 18.8511 3.35729 19.3007C3.79267 19.7502 4.38286 20 4.9924 20H9.0076C9.61714 20 10.2073 19.7502 10.6427 19.3007C11.0781 18.8511 11.32 18.2517 11.32 17.6124V15.6743C12.9454 14.3556 14 12.2977 14 10ZM4.62474 2.38761C4.62474 2.28771 4.66344 2.18781 4.73117 2.11788C4.79889 2.04795 4.89565 2.00799 4.9924 2.00799H9.0076C9.10435 2.00799 9.20111 2.04795 9.26883 2.11788C9.33656 2.18781 9.37526 2.28771 9.37526 2.38761V3.21678C8.63027 2.93706 7.82723 2.77722 6.99516 2.77722C6.1631 2.77722 5.36006 2.93706 4.61507 3.21678V2.38761H4.62474ZM1.94471 10C1.94471 7.12288 4.21838 4.77522 7.00484 4.77522C9.79129 4.77522 12.065 7.12288 12.065 10C12.065 12.8771 9.79129 15.2248 7.00484 15.2248C4.21838 15.2248 1.94471 12.8771 1.94471 10ZM9.38493 17.6124C9.38493 17.7123 9.34623 17.8122 9.27851 17.8821C9.21078 17.952 9.11403 17.992 9.01728 17.992H5.00207C4.90532 17.992 4.80857 17.952 4.74084 17.8821C4.67312 17.8122 4.63442 17.7123 4.63442 17.6124V16.7832C5.37941 17.0629 6.18245 17.2228 7.01451 17.2228C7.84658 17.2228 8.64962 17.0629 9.39461 16.7832V17.6124H9.38493Z" fill="#3A4757"/>
</svg>