<svg width="11" height="15" viewBox="0 0 11 15" fill="none" xmlns="http://www.w3.org/2000/svg">
<path fill-rule="evenodd" clip-rule="evenodd" d="M9.61174 6.3975C9.59139 6.639 9.39952 6.82125 9.16477 6.82125H8.93656C9.07828 6.37875 9.15387 5.90625 9.15387 5.41875C9.15387 3.14775 7.51424 1.3005 5.49886 1.3005C3.48421 1.3005 1.84458 3.14775 1.84458 5.41875C1.84458 5.90625 1.92016 6.37875 2.06189 6.82125H1.83295C1.59893 6.82125 1.40633 6.639 1.3838 6.375L0.728235 1.79175C0.706431 1.521 0.792192 1.26075 0.970255 1.0605C1.14904 0.86025 1.39252 0.75 1.65634 0.75H9.34211C9.60593 0.75 9.8494 0.86025 10.0275 1.0605C10.2063 1.26075 10.292 1.521 10.2724 1.7685L9.61174 6.3975ZM3.64265 8.007C2.96528 7.3635 2.57137 6.432 2.57137 5.41875C2.57137 3.56175 3.88467 2.0505 5.49886 2.0505C7.11305 2.0505 8.42708 3.56175 8.42708 5.41875C8.42708 6.432 8.03244 7.3635 7.3558 8.007H3.64265ZM9.07102 9.03225C9.07102 9.15825 8.98744 9.26025 8.87478 9.2925C8.85153 9.288 8.829 9.27825 8.80429 9.27825H2.19344C2.16873 9.27825 2.14692 9.288 2.12366 9.2925C2.01101 9.26025 1.92671 9.15825 1.92671 9.03225C1.92671 8.88075 2.04663 8.757 2.19344 8.757H8.80429C8.95182 8.757 9.07102 8.88075 9.07102 9.03225ZM6.60576 12.4672C6.4822 12.5182 6.39644 12.6353 6.38118 12.7725C6.36664 12.909 6.42479 13.0425 6.53453 13.1213C6.8892 13.3785 7.11669 13.7708 7.193 14.25H3.80472C3.88176 13.7708 4.10925 13.3785 4.46392 13.1213C4.57293 13.0425 4.6318 12.909 4.61654 12.7725C4.60201 12.6353 4.51552 12.5182 4.39269 12.4672C3.40063 12.0502 2.72254 11.13 2.58445 10.0575H8.414C8.27591 11.13 7.59782 12.0502 6.60576 12.4672ZM10.5631 0.55275C10.2491 0.201 9.80507 0 9.34211 0H1.65634C1.19338 0 0.748585 0.201 0.43534 0.55275C0.122095 0.90525 -0.0348909 1.38 0.00653594 1.87875L0.662825 6.462C0.714426 7.09425 1.21809 7.57125 1.83295 7.57125H2.38458C2.46598 7.722 2.55465 7.86825 2.65422 8.007H2.19344C1.64617 8.007 1.19992 8.46675 1.19992 9.03225C1.19992 9.47325 1.47246 9.84675 1.85185 9.99075C1.95578 11.208 2.61061 12.288 3.62084 12.9067C3.24873 13.356 3.04886 13.9485 3.04886 14.625C3.04886 14.832 3.21166 15 3.41226 15H7.58546C7.78678 15 7.94886 14.832 7.94886 14.625C7.94886 13.9485 7.74899 13.356 7.3776 12.9067C8.38711 12.288 9.04194 11.208 9.1466 9.99075C9.52526 9.84675 9.7978 9.47325 9.7978 9.03225C9.7978 8.46675 9.35228 8.007 8.80429 8.007H8.3435C8.4438 7.86825 8.53174 7.722 8.61387 7.57125H9.16477C9.77963 7.57125 10.2833 7.09425 10.3334 6.4845L10.9941 1.85475C11.0333 1.38 10.8756 0.90525 10.5631 0.55275Z" fill="#3A4757"/>
</svg>