<svg width="14" height="14" viewBox="0 0 14 14" fill="none" xmlns="http://www.w3.org/2000/svg">
<path d="M13.4 13.9001H0.599976C0.399976 13.9001 0.299976 13.8001 0.199976 13.7001C0.0999756 13.6001 0.0999756 13.4001 0.0999756 13.2001L2.79998 5.0001C2.99998 4.9001 3.09998 4.7001 3.39998 4.7001H4.49998C4.29998 4.3001 4.19998 3.9001 4.19998 3.4001C4.19998 1.8001 5.49998 0.600098 6.99998 0.600098C8.49998 0.600098 9.79998 1.9001 9.79998 3.4001C9.79998 3.9001 9.69998 4.3001 9.49998 4.7001H10.6C10.8 4.7001 11 4.8001 11.1 5.0001L13.8 13.2001C13.9 13.4001 13.8 13.5001 13.7 13.7001C13.7 13.8001 13.5 13.9001 13.4 13.9001ZM1.29998 12.9001H12.7L10.3 5.7001H8.49998C8.19998 5.7001 8.09998 5.6001 7.99998 5.4001C7.89998 5.2001 7.99998 5.0001 8.09998 4.8001C8.59998 4.5001 8.79998 4.0001 8.79998 3.4001C8.79998 2.4001 7.99998 1.6001 6.99998 1.6001C5.99998 1.6001 5.19998 2.4001 5.19998 3.4001C5.19998 4.0001 5.49998 4.5001 5.89998 4.8001C5.99998 5.0001 6.09998 5.2001 5.99998 5.4001C5.89998 5.6001 5.79998 5.7001 5.49998 5.7001H3.69998L1.29998 12.9001ZM6.99998 2.5001C7.49998 2.5001 7.99998 2.9001 7.99998 3.5001C7.99998 4.0001 7.59998 4.5001 6.99998 4.5001C6.39998 4.5001 5.99998 4.0001 5.99998 3.4001C5.99998 2.9001 6.49998 2.5001 6.99998 2.5001Z" fill="#3A4757"/>
<path d="M3.99998 11.1474V8.0001H4.80319V9.37063H4.81355L6.33188 8.0001H7.29573L5.59604 9.50456L7.36828 11.1474H6.39406L4.81355 9.70992H4.80319V11.1474H3.99998Z" fill="#3A4757"/>
<path d="M8.64229 12.0001C8.39701 12.0001 8.16727 11.9778 7.95308 11.9331C7.74235 11.8885 7.55752 11.8186 7.39861 11.7233L7.61107 11.2635C7.74926 11.3379 7.90472 11.3944 8.07745 11.4331C8.25364 11.4748 8.41946 11.4956 8.57492 11.4956C9.01712 11.4956 9.23822 11.32 9.23822 10.9688V10.7188C9.16913 10.8319 9.0603 10.9227 8.91175 10.9912C8.7632 11.0596 8.60083 11.0938 8.42464 11.0938C8.19663 11.0938 7.99799 11.0492 7.82871 10.9599C7.65943 10.8677 7.52816 10.7397 7.43488 10.576C7.3416 10.4123 7.29497 10.2203 7.29497 10.0001C7.29497 9.78284 7.3416 9.59236 7.43488 9.42867C7.52816 9.26498 7.65943 9.13849 7.82871 9.0492C7.99799 8.95694 8.19663 8.91081 8.42464 8.91081C8.60774 8.91081 8.77184 8.94504 8.91693 9.01349C9.06203 9.08194 9.16913 9.17272 9.23822 9.28581V8.95545H9.99998V10.893C9.99998 11.262 9.88424 11.5388 9.65278 11.7233C9.42132 11.9078 9.08449 12.0001 8.64229 12.0001ZM8.65783 10.5894C8.83057 10.5894 8.96875 10.5373 9.0724 10.4331C9.17949 10.329 9.23304 10.1846 9.23304 10.0001C9.23304 9.81557 9.17949 9.67272 9.0724 9.57153C8.96875 9.46736 8.83057 9.41528 8.65783 9.41528C8.48165 9.41528 8.34173 9.46736 8.23809 9.57153C8.13445 9.67272 8.08263 9.81557 8.08263 10.0001C8.08263 10.1846 8.13445 10.329 8.23809 10.4331C8.34173 10.5373 8.48165 10.5894 8.65783 10.5894Z" fill="#3A4757"/>
</svg>