<svg width="14" height="14" viewBox="0 0 14 14" fill="none" xmlns="http://www.w3.org/2000/svg">
<path d="M13.3 13.3H0.5C0.3 13.3 0.2 13.2 0.1 13.1C0 13 0 12.8 0 12.6L2.7 4.4C2.9 4.3 3 4.1 3.3 4.1H4.4C4.2 3.7 4.1 3.3 4.1 2.8C4.1 1.2 5.4 0 6.9 0C8.4 0 9.7 1.3 9.7 2.8C9.7 3.3 9.6 3.7 9.4 4.1H10.5C10.7 4.1 10.9 4.2 11 4.4L13.7 12.6C13.8 12.8 13.7 12.9 13.6 13.1C13.6 13.2 13.4 13.3 13.3 13.3ZM1.2 12.3H12.6L10.2 5.1H8.4C8.1 5.1 8 5 7.9 4.8C7.8 4.6 7.9 4.4 8 4.2C8.5 3.9 8.7 3.4 8.7 2.8C8.7 1.8 7.9 1 6.9 1C5.9 1 5.1 1.8 5.1 2.8C5.1 3.4 5.4 3.9 5.8 4.2C5.9 4.4 6 4.6 5.9 4.8C5.8 5 5.7 5.1 5.4 5.1H3.6L1.2 12.3ZM6.9 1.9C7.4 1.9 7.9 2.3 7.9 2.9C7.9 3.4 7.5 3.9 6.9 3.9C6.3 3.9 5.9 3.4 5.9 2.8C5.9 2.3 6.4 1.9 6.9 1.9Z" fill="#3A4757"/>
<path d="M3.9 10.5473V7.4H4.70321V8.77054H4.71358L6.2319 7.4H7.19576L5.49606 8.90446L7.26831 10.5473H6.29409L4.71358 9.10982H4.70321V10.5473H3.9Z" fill="#3A4757"/>
<path d="M8.54231 11.4C8.29703 11.4 8.0673 11.3777 7.85311 11.333C7.64237 11.2884 7.45754 11.2185 7.29863 11.1232L7.51109 10.6634C7.64928 10.7378 7.80474 10.7943 7.97747 10.833C8.15366 10.8747 8.31949 10.8955 8.47495 10.8955C8.91714 10.8955 9.13824 10.7199 9.13824 10.3687V10.1187C9.06915 10.2318 8.96033 10.3226 8.81178 10.3911C8.66323 10.4595 8.50086 10.4937 8.32467 10.4937C8.09666 10.4937 7.89802 10.4491 7.72874 10.3598C7.55946 10.2676 7.42818 10.1396 7.3349 9.97589C7.24163 9.8122 7.19499 9.62024 7.19499 9.4C7.19499 9.18274 7.24163 8.99226 7.3349 8.82857C7.42818 8.66488 7.55946 8.53839 7.72874 8.44911C7.89802 8.35684 8.09666 8.31071 8.32467 8.31071C8.50776 8.31071 8.67186 8.34494 8.81696 8.41339C8.96206 8.48185 9.06915 8.57262 9.13824 8.68571V8.35536H9.9V10.2929C9.9 10.6619 9.78427 10.9387 9.5528 11.1232C9.32134 11.3077 8.98451 11.4 8.54231 11.4ZM8.55786 9.98929C8.73059 9.98929 8.86878 9.9372 8.97242 9.83304C9.07951 9.72887 9.13306 9.58452 9.13306 9.4C9.13306 9.21548 9.07951 9.07262 8.97242 8.97143C8.86878 8.86726 8.73059 8.81518 8.55786 8.81518C8.38167 8.81518 8.24176 8.86726 8.13812 8.97143C8.03448 9.07262 7.98266 9.21548 7.98266 9.4C7.98266 9.58452 8.03448 9.72887 8.13812 9.83304C8.24176 9.9372 8.38167 9.98929 8.55786 9.98929Z" fill="#3A4757"/>
</svg>