<svg width="20" height="20" viewBox="0 0 20 20" fill="none" xmlns="http://www.w3.org/2000/svg">
<path fill-rule="evenodd" clip-rule="evenodd" d="M10.0402 0C4.55276 0 0.080402 4.45 0.080402 9.91C0.080402 11.66 0.542714 13.36 1.40704 14.86L0 20L5.27638 18.62C6.73367 19.41 8.37186 19.83 10.0402 19.83C15.5276 19.83 20 15.38 20 9.92C20 7.27 18.9648 4.78 17.0854 2.91C15.206 1.03 12.7035 0 10.0402 0ZM10.0101 1.66667C12.235 1.66667 14.3184 2.53641 15.896 4.11408C17.4636 5.69175 18.3333 7.78519 18.3333 10.0101C18.3333 14.6015 14.5914 18.3333 10 18.3333C8.50324 18.3333 7.03681 17.9389 5.76254 17.1703L5.45914 16.9984L2.3038 17.8277L3.1432 14.7532L2.94094 14.4296C2.11165 13.125 1.66667 11.5777 1.66667 10C1.67678 5.40858 5.40858 1.66667 10.0101 1.66667ZM6.51868 5.83333C6.35987 5.83333 6.09186 5.89218 5.86356 6.1374C5.64519 6.38261 5 6.98093 5 8.16775C5 9.36438 5.88342 10.512 5.9926 10.6787C6.13157 10.8455 7.73958 13.2976 10.2112 14.3373C10.7968 14.6021 11.2534 14.7492 11.6107 14.8571C12.1964 15.0435 12.7324 15.0141 13.1592 14.9552C13.6356 14.8866 14.6084 14.3667 14.8168 13.7978C15.0253 13.2289 15.0253 12.7483 14.9657 12.6404C14.8963 12.5423 14.7374 12.4835 14.4893 12.3756C14.2411 12.2383 13.0302 11.6498 12.8118 11.5713C12.5835 11.4928 12.4445 11.4536 12.2559 11.689C12.0971 11.9342 11.6207 12.4835 11.4817 12.6404C11.3328 12.8072 11.1938 12.8268 10.9556 12.7091C10.6975 12.5816 9.90346 12.3265 8.97041 11.5026C8.23589 10.8553 7.74951 10.0608 7.60062 9.81557C7.48151 9.58017 7.59069 9.43304 7.70981 9.32515C7.81899 9.21726 7.97781 9.04071 8.07707 8.89358C8.20611 8.75626 8.24581 8.64837 8.32522 8.49143C8.40463 8.32469 8.36492 8.18737 8.30537 8.06967C8.24581 7.96177 7.74951 6.74552 7.54106 6.26491C7.34254 5.7941 7.14402 5.85295 6.98521 5.84314C6.84624 5.84314 6.68743 5.83333 6.51868 5.83333Z" fill="#3A4757"/>
</svg>