<svg width="20" height="20" viewBox="0 0 20 20" fill="none" xmlns="http://www.w3.org/2000/svg">
<path fill-rule="evenodd" clip-rule="evenodd" d="M10.0402 -0.000488281C4.55276 -0.000488281 0.080402 4.44951 0.080402 9.90951C0.080402 11.6595 0.542714 13.3595 1.40704 14.8595L0 19.9995L5.27638 18.6195C6.73367 19.4095 8.37186 19.8295 10.0402 19.8295C15.5276 19.8295 20 15.3795 20 9.91951C20 7.26951 18.9648 4.77951 17.0854 2.90951C15.206 1.02951 12.7035 -0.000488281 10.0402 -0.000488281ZM10.0101 1.66618C12.235 1.66618 14.3184 2.53592 15.896 4.11359C17.4636 5.69126 18.3333 7.78471 18.3333 10.0096C18.3333 14.601 14.5914 18.3328 10 18.3328C8.50324 18.3328 7.03681 17.9384 5.76254 17.1698L5.45914 16.9979L2.3038 17.8272L3.1432 14.7527L2.94094 14.4291C2.11165 13.1245 1.66667 11.5772 1.66667 9.99951C1.67678 5.40809 5.40858 1.66618 10.0101 1.66618ZM6.51868 5.83285C6.35987 5.83285 6.09186 5.8917 5.86356 6.13691C5.64519 6.38212 5 6.98044 5 8.16726C5 9.3639 5.88342 10.5115 5.9926 10.6782C6.13157 10.845 7.73958 13.2971 10.2112 14.3368C10.7968 14.6016 11.2534 14.7487 11.6107 14.8566C12.1964 15.043 12.7324 15.0136 13.1592 14.9547C13.6356 14.8861 14.6084 14.3662 14.8168 13.7973C15.0253 13.2284 15.0253 12.7478 14.9657 12.6399C14.8963 12.5418 14.7374 12.483 14.4893 12.3751C14.2411 12.2378 13.0302 11.6493 12.8118 11.5708C12.5835 11.4923 12.4445 11.4531 12.2559 11.6885C12.0971 11.9337 11.6207 12.483 11.4817 12.6399C11.3328 12.8067 11.1938 12.8263 10.9556 12.7086C10.6975 12.5811 9.90346 12.3261 8.97041 11.5021C8.23589 10.8548 7.74951 10.0603 7.60062 9.81509C7.48151 9.57968 7.59069 9.43256 7.70981 9.32466C7.81899 9.21677 7.97781 9.04022 8.07707 8.89309C8.20611 8.75577 8.24581 8.64788 8.32522 8.49094C8.40463 8.3242 8.36492 8.18688 8.30537 8.06918C8.24581 7.96128 7.74951 6.74503 7.54106 6.26442C7.34254 5.79361 7.14402 5.85246 6.98521 5.84265C6.84624 5.84265 6.68743 5.83285 6.51868 5.83285Z" fill="#3A4757"/>
</svg>