<svg width="24" height="24" viewBox="0 0 24 24" fill="none" xmlns="http://www.w3.org/2000/svg">
<path d="M11.9974 12.4167C11.764 12.4167 11.5756 12.2283 11.5756 11.9951C11.5756 11.762 11.764 11.5736 11.9974 11.5736C12.2307 11.5736 12.4192 11.762 12.4192 11.9951C12.4192 12.2283 12.2307 12.4167 11.9974 12.4167Z" fill="#3A4757"/>
<path d="M12.0066 18.991C11.7822 18.991 11.5579 18.9821 11.3245 18.9552C9.46669 18.7758 7.78836 17.8789 6.59469 16.435C5.40998 14.991 4.85353 13.1794 5.03303 11.3229C5.38306 7.71749 8.37174 5 11.9976 5C12.222 5 12.4464 5.00897 12.6797 5.03587C14.5376 5.21525 16.2159 6.11211 17.4096 7.55605C18.6033 9 19.1507 10.8206 18.9712 12.6771C18.6212 16.2825 15.6236 19 12.0066 19V18.991ZM11.9976 5.83408C8.81152 5.83408 6.17286 8.2287 5.86771 11.4036C5.70616 13.0359 6.19979 14.6413 7.24089 15.9148C8.29096 17.1883 9.76287 17.9776 11.4053 18.13C11.6027 18.148 11.8092 18.157 12.0066 18.157C15.1928 18.157 17.8224 15.7623 18.1366 12.5964C18.2981 10.9641 17.8045 9.35874 16.7634 8.09417C15.7133 6.82063 14.2414 6.03139 12.599 5.87892C12.4015 5.86099 12.1951 5.85202 11.9976 5.85202V5.83408Z" fill="#3A4757"/>
<path d="M14.7085 10.7402C13.3264 10.7402 12.2045 9.61017 12.2045 8.22003C12.2045 7.81645 12.3032 7.42183 12.4917 7.05412C12.5635 6.91062 12.7071 6.8299 12.8687 6.8299C14.4662 7.1169 15.8125 8.08551 16.5753 9.47564C16.6651 9.63707 16.6382 9.83438 16.5125 9.96891C16.0368 10.4622 15.3996 10.7402 14.7175 10.7402H14.7085ZM13.0751 7.93304C13.0571 8.03169 13.0482 8.12138 13.0482 8.22003C13.0482 9.1438 13.7931 9.89716 14.7085 9.89716C14.9868 9.89716 15.256 9.82542 15.4983 9.69986L15.6778 9.6012L15.5612 9.43976C15.0137 8.6595 14.2059 8.07654 13.3084 7.78954L13.111 7.72676L13.0751 7.93304Z" fill="#3A4757"/>
<path d="M9.2786 10.74C9.00935 10.74 8.7401 10.6952 8.47983 10.6055C8.0939 10.4799 7.75285 10.2647 7.46565 9.9687C7.35795 9.85211 7.32205 9.69068 7.36692 9.54718C8.14775 8.12117 9.48503 7.15256 11.0467 6.87453H11.0736C11.289 6.87453 11.4236 6.95525 11.4954 7.08978C11.8185 7.69964 11.8724 8.39023 11.657 9.03597C11.3159 10.0584 10.3646 10.74 9.2786 10.74ZM8.47983 9.69964C8.5606 9.74449 8.65035 9.78036 8.74908 9.81624C8.9196 9.87005 9.0991 9.90592 9.28758 9.90592C10.0056 9.90592 10.6428 9.44852 10.8762 8.77588C10.9659 8.51579 10.9839 8.23776 10.93 7.9687L10.8941 7.77139L10.7056 7.83417C9.79018 8.1122 8.98243 8.68619 8.42597 9.44852L8.3093 9.61893L8.4888 9.71758L8.47983 9.69964Z" fill="#3A4757"/>
<path d="M8.42562 15.6455C8.33587 15.6455 8.24612 15.6185 8.17432 15.5558C7.07937 14.354 6.6037 12.7665 6.855 11.197C6.88192 11.0176 7.02552 10.8741 7.20502 10.8472C7.33067 10.8293 7.4653 10.8203 7.59095 10.8203C8.13842 10.8203 8.65898 10.9997 9.09875 11.3315C9.62828 11.7351 9.96035 12.3271 10.0501 12.9907C10.1309 13.6544 9.95138 14.3181 9.5475 14.8472C9.2962 15.1701 8.98208 15.4212 8.6141 15.5916C8.56025 15.6185 8.49743 15.6275 8.4346 15.6275L8.42562 15.6455ZM7.62685 11.8517C7.59095 12.8024 7.86917 13.7531 8.40768 14.5333L8.52435 14.7037L8.67693 14.5602C8.74873 14.4975 8.81155 14.4257 8.87438 14.345C9.4398 13.6096 9.30518 12.5602 8.5782 12.0042C8.3628 11.8338 8.10252 11.7262 7.83327 11.6813L7.63582 11.6544V11.8517H7.62685Z" fill="#3A4757"/>
<path d="M15.354 15.8424C15.2822 15.8424 15.2194 15.8245 15.1566 15.7886C14.5553 15.4657 14.1155 14.9186 13.936 14.2639C13.7565 13.6182 13.8462 12.9455 14.1783 12.3626C14.5104 11.7796 15.0489 11.3581 15.6951 11.1787C15.9195 11.1159 16.1438 11.089 16.3682 11.089C16.5387 11.089 16.7182 11.107 16.8888 11.1429C17.0413 11.1787 17.167 11.2863 17.2029 11.4388C17.3555 13.0532 16.7811 14.6137 15.6412 15.7168C15.5605 15.7886 15.4617 15.8334 15.354 15.8334V15.8424ZM16.2067 11.9411C16.1079 11.95 16.0182 11.968 15.9195 11.9949C15.4887 12.1115 15.1297 12.3895 14.9053 12.7841C14.6809 13.1698 14.6271 13.6182 14.7437 14.0487C14.8155 14.3177 14.9591 14.5599 15.1476 14.7572L15.2912 14.9007L15.4169 14.7482C16.0182 14.0128 16.3682 13.0801 16.4041 12.1384V11.9321L16.2067 11.95V11.9411Z" fill="#3A4757"/>
<path d="M12.0156 17.2236C11.2078 17.2236 10.427 17.0353 9.70002 16.6765C9.53847 16.5958 9.44872 16.4165 9.47565 16.2371C9.58335 15.5555 9.94235 14.9725 10.5078 14.5779C10.9296 14.2819 11.4232 14.1295 11.9348 14.1295C12.7605 14.1295 13.5324 14.533 13.9991 15.2057C14.2324 15.5375 14.376 15.9142 14.4299 16.3178C14.4478 16.4703 14.385 16.6227 14.2504 16.7124C13.5234 17.0532 12.7785 17.2147 12.0156 17.2147V17.2236ZM10.5526 16.1295C11.0283 16.2999 11.5309 16.3896 12.0335 16.3896C12.4823 16.3896 12.9221 16.3178 13.3439 16.1922L13.5413 16.1295L13.4516 15.9411C13.4067 15.8514 13.3618 15.7707 13.308 15.69C12.9939 15.2416 12.4733 14.9725 11.9258 14.9725C11.5848 14.9725 11.2617 15.0712 10.9835 15.2685C10.7591 15.4299 10.5706 15.6362 10.4539 15.8873L10.3642 16.0667L10.5526 16.1384V16.1295Z" fill="#3A4757"/>
</svg>