<svg width="14" height="14" viewBox="0 0 14 14" fill="none" xmlns="http://www.w3.org/2000/svg">
<path d="M6.9974 7.41666C6.76405 7.41666 6.57557 7.22832 6.57557 6.99514C6.57557 6.76195 6.76405 6.57361 6.9974 6.57361C7.23075 6.57361 7.41923 6.76195 7.41923 6.99514C7.41923 7.22832 7.23075 7.41666 6.9974 7.41666Z" fill="#3A4757"/>
<path d="M7.00662 13.991C6.78225 13.991 6.55787 13.9821 6.32452 13.9552C4.46669 13.7758 2.78836 12.8789 1.59469 11.435C0.409984 9.99103 -0.146467 8.17937 0.0330334 6.32287C0.383059 2.71749 3.37174 0 6.99765 0C7.22202 0 7.4464 0.00896861 7.67975 0.0358744C9.53758 0.215247 11.2159 1.11211 12.4096 2.55605C13.6033 4 14.1507 5.82063 13.9712 7.67713C13.6212 11.2825 10.6236 14 7.00662 14V13.991ZM6.99765 0.834081C3.81152 0.834081 1.17286 3.2287 0.86771 6.40359C0.70616 8.03587 1.19979 9.64126 2.24089 10.9148C3.29096 12.1883 4.76287 12.9776 6.40529 13.13C6.60275 13.148 6.80917 13.157 7.00662 13.157C10.1928 13.157 12.8224 10.7623 13.1366 7.59641C13.2981 5.96413 12.8045 4.35874 11.7634 3.09417C10.7133 1.82063 9.2414 1.03139 7.59897 0.878924C7.40152 0.860987 7.1951 0.852018 6.99765 0.852018V0.834081Z" fill="#3A4757"/>
<path d="M9.70854 5.74021C8.32639 5.74021 7.20451 4.61017 7.20451 3.22003C7.20451 2.81645 7.30324 2.42183 7.49171 2.05412C7.56351 1.91062 7.70711 1.8299 7.86866 1.8299C9.46621 2.1169 10.8125 3.08551 11.5753 4.47564C11.6651 4.63707 11.6382 4.83438 11.5125 4.96891C11.0368 5.46219 10.3996 5.74021 9.71751 5.74021H9.70854ZM8.07509 2.93304C8.05714 3.03169 8.04816 3.12138 8.04816 3.22003C8.04816 4.1438 8.79309 4.89716 9.70854 4.89716C9.98676 4.89716 10.256 4.82542 10.4983 4.69986L10.6778 4.6012L10.5612 4.43976C10.0137 3.6595 9.20594 3.07654 8.30844 2.78954L8.11099 2.72676L8.07509 2.93304Z" fill="#3A4757"/>
<path d="M4.2786 5.74C4.00935 5.74 3.7401 5.69516 3.47983 5.60547C3.0939 5.47991 2.75285 5.26467 2.46565 4.9687C2.35795 4.85211 2.32205 4.69068 2.36692 4.54718C3.14775 3.12117 4.48503 2.15256 6.04668 1.87453H6.0736C6.289 1.87453 6.42363 1.95525 6.49543 2.08978C6.81853 2.69964 6.87238 3.39023 6.65698 4.03597C6.31593 5.05839 5.36458 5.74 4.2786 5.74ZM3.47983 4.69964C3.5606 4.74449 3.65035 4.78036 3.74908 4.81624C3.9196 4.87005 4.0991 4.90592 4.28758 4.90592C5.00558 4.90592 5.6428 4.44852 5.87615 3.77588C5.9659 3.51579 5.98385 3.23776 5.93 2.9687L5.8941 2.77139L5.70563 2.83417C4.79018 3.1122 3.98243 3.68619 3.42597 4.44852L3.3093 4.61893L3.4888 4.71758L3.47983 4.69964Z" fill="#3A4757"/>
<path d="M3.42562 10.6455C3.33587 10.6455 3.24612 10.6185 3.17432 10.5558C2.07937 9.35397 1.6037 7.76653 1.855 6.19702C1.88192 6.01765 2.02552 5.87415 2.20502 5.84724C2.33067 5.82931 2.4653 5.82034 2.59095 5.82034C3.13842 5.82034 3.65898 5.99971 4.09875 6.33155C4.62828 6.73514 4.96035 7.32706 5.0501 7.99074C5.13088 8.65442 4.95138 9.3181 4.5475 9.84724C4.2962 10.1701 3.98208 10.4212 3.6141 10.5916C3.56025 10.6185 3.49743 10.6275 3.4346 10.6275L3.42562 10.6455ZM2.62685 6.85173C2.59095 7.8024 2.86917 8.75307 3.40768 9.53334L3.52435 9.70375L3.67693 9.56025C3.74873 9.49747 3.81155 9.42572 3.87438 9.345C4.4398 8.60958 4.30518 7.56025 3.5782 7.00419C3.3628 6.83379 3.10252 6.72617 2.83327 6.68132L2.63582 6.65442V6.85173H2.62685Z" fill="#3A4757"/>
<path d="M10.354 10.8424C10.2822 10.8424 10.2194 10.8245 10.1566 10.7886C9.55526 10.4657 9.11549 9.91864 8.93599 9.26393C8.75649 8.61819 8.84624 7.94554 9.17831 7.36258C9.51039 6.77962 10.0489 6.3581 10.6951 6.17873C10.9195 6.11595 11.1438 6.08904 11.3682 6.08904C11.5387 6.08904 11.7182 6.10698 11.8888 6.14285C12.0413 6.17873 12.167 6.28635 12.2029 6.43882C12.3555 8.05317 11.7811 9.6137 10.6412 10.7168C10.5605 10.7886 10.4617 10.8334 10.354 10.8334V10.8424ZM11.2067 6.94106C11.1079 6.95003 11.0182 6.96796 10.9195 6.99487C10.4887 7.11146 10.1297 7.38949 9.90529 7.78411C9.68091 8.16976 9.62706 8.61819 9.74374 9.04868C9.81554 9.31774 9.95914 9.55989 10.1476 9.7572L10.2912 9.9007L10.4169 9.74823C11.0182 9.01281 11.3682 8.08007 11.4041 7.13837V6.93209L11.2067 6.95003V6.94106Z" fill="#3A4757"/>
<path d="M7.01558 12.2236C6.20783 12.2236 5.427 12.0353 4.70002 11.6765C4.53847 11.5958 4.44872 11.4165 4.47565 11.2371C4.58335 10.5555 4.94235 9.97251 5.50777 9.57789C5.9296 9.28193 6.42323 9.12946 6.9348 9.12946C7.7605 9.12946 8.53235 9.53305 8.99905 10.2057C9.23241 10.5375 9.37601 10.9142 9.42986 11.3178C9.44781 11.4703 9.38498 11.6227 9.25036 11.7124C8.52338 12.0532 7.77845 12.2147 7.01558 12.2147V12.2236ZM5.55265 11.1295C6.02833 11.2999 6.53093 11.3896 7.03353 11.3896C7.48228 11.3896 7.92205 11.3178 8.34388 11.1922L8.54133 11.1295L8.45158 10.9411C8.4067 10.8514 8.36183 10.7707 8.30798 10.69C7.99385 10.2416 7.4733 9.97251 6.92583 9.97251C6.58478 9.97251 6.26168 10.0712 5.98345 10.2685C5.75908 10.4299 5.5706 10.6362 5.45392 10.8873L5.36417 11.0667L5.55265 11.1384V11.1295Z" fill="#3A4757"/>
</svg>