<svg width="16" height="12" viewBox="0 0 16 12" fill="none" xmlns="http://www.w3.org/2000/svg">
<path fill-rule="evenodd" clip-rule="evenodd" d="M8.49998 10.56C8.25332 10.56 8.05332 10.76 8.05332 11C8.05332 11.24 8.25332 11.44 8.49998 11.44C8.74665 11.44 8.94665 11.24 8.94665 11C8.94665 10.76 8.74665 10.56 8.49998 10.56ZM8.49998 12C7.94665 12 7.49998 11.55 7.49998 11C7.49998 10.45 7.94665 10 8.49998 10C9.05332 10 9.49998 10.45 9.49998 11C9.49998 11.55 9.05332 12 8.49998 12Z" fill="#3A4757"/>
<path fill-rule="evenodd" clip-rule="evenodd" d="M11.03 8C10.95 8 10.86 7.97 10.79 7.89C10.13 7.18 9.26998 6.79 8.35998 6.79C7.45998 6.79 6.60998 7.17 5.94998 7.87C5.80998 8.02 5.58998 8.01 5.45998 7.85C5.32998 7.69 5.33998 7.44 5.47998 7.29C6.26998 6.46 7.29998 6 8.36998 6C9.44998 6 10.48 6.47 11.27 7.31C11.41 7.46 11.42 7.71 11.29 7.87C11.21 7.96 11.12 8 11.03 8Z" fill="#3A4757"/>
<path fill-rule="evenodd" clip-rule="evenodd" d="M13.51 6C13.42 6 13.32 5.96 13.25 5.89C11.96 4.51 10.22 3.76 8.36998 3.76C6.51998 3.76 4.78998 4.51 3.49998 5.88C3.35998 6.03 3.12998 6.03 2.98998 5.89C2.84998 5.74 2.83998 5.51 2.97998 5.36C4.40998 3.83 6.31998 3 8.36998 3C10.42 3 12.34 3.84 13.78 5.36C13.92 5.51 13.92 5.75 13.77 5.89C13.69 5.96 13.6 6 13.51 6Z" fill="#3A4757"/>
<path fill-rule="evenodd" clip-rule="evenodd" d="M15.52 4C15.41 4 15.3 3.95 15.23 3.87C13.59 1.84 11.09 0.67 8.36998 0.67C5.64998 0.67 3.15998 1.83 1.51998 3.85C1.39998 4 1.16998 4.03 1.01998 3.92C0.859982 3.8 0.829982 3.6 0.949982 3.45C2.71998 1.26 5.42998 0 8.36998 0C11.32 0 14.03 1.26 15.8 3.47C15.92 3.62 15.89 3.83 15.73 3.94C15.67 3.98 15.59 4 15.52 4Z" fill="#3A4757"/>
</svg>