<svg width="15" height="12" viewBox="0 0 15 12" fill="none" xmlns="http://www.w3.org/2000/svg">
<path fill-rule="evenodd" clip-rule="evenodd" d="M7.62333 10.56C7.37667 10.56 7.17667 10.76 7.17667 11C7.17667 11.24 7.37667 11.44 7.62333 11.44C7.87 11.44 8.07 11.24 8.07 11C8.07 10.76 7.87 10.56 7.62333 10.56ZM7.62333 12C7.07 12 6.62333 11.55 6.62333 11C6.62333 10.45 7.07 10 7.62333 10C8.17667 10 8.62333 10.45 8.62333 11C8.62333 11.55 8.17667 12 7.62333 12Z" fill="#3A4757"/>
<path fill-rule="evenodd" clip-rule="evenodd" d="M10.1533 8C10.0733 8 9.98334 7.97 9.91333 7.89C9.25333 7.18 8.39333 6.79 7.48333 6.79C6.58333 6.79 5.73333 7.17 5.07333 7.87C4.93333 8.02 4.71333 8.01 4.58333 7.85C4.45333 7.69 4.46333 7.44 4.60333 7.29C5.39333 6.46 6.42333 6 7.49333 6C8.57333 6 9.60334 6.47 10.3933 7.31C10.5333 7.46 10.5433 7.71 10.4133 7.87C10.3333 7.96 10.2433 8 10.1533 8Z" fill="#3A4757"/>
<path fill-rule="evenodd" clip-rule="evenodd" d="M12.6333 6C12.5433 6 12.4433 5.96 12.3733 5.89C11.0833 4.51 9.34333 3.76 7.49333 3.76C5.64333 3.76 3.91333 4.51 2.62333 5.88C2.48333 6.03 2.25333 6.03 2.11333 5.89C1.97333 5.74 1.96333 5.51 2.10333 5.36C3.53333 3.83 5.44333 3 7.49333 3C9.54333 3 11.4633 3.84 12.9033 5.36C13.0433 5.51 13.0433 5.75 12.8933 5.89C12.8133 5.96 12.7233 6 12.6333 6Z" fill="#3A4757"/>
<path fill-rule="evenodd" clip-rule="evenodd" d="M14.6433 4C14.5333 4 14.4233 3.95 14.3533 3.87C12.7133 1.84 10.2133 0.67 7.49333 0.67C4.77333 0.67 2.28333 1.83 0.643334 3.85C0.523334 4 0.293334 4.03 0.143334 3.92C-0.0166658 3.8 -0.046666 3.6 0.073334 3.45C1.84333 1.26 4.55333 0 7.49333 0C10.4433 0 13.1533 1.26 14.9233 3.47C15.0433 3.62 15.0133 3.83 14.8533 3.94C14.7933 3.98 14.7133 4 14.6433 4Z" fill="#3A4757"/>
</svg>