<svg width="11" height="17" viewBox="0 0 11 17" fill="none" xmlns="http://www.w3.org/2000/svg">
<path fill-rule="evenodd" clip-rule="evenodd" d="M5.5 0C8.77016 0 11 1.89318 11 4.63636V16.6136C11 16.827 10.8241 17 10.6071 17L9.04382 16.9999C9.04112 17 9.03842 17 9.03571 17L9.02786 16.9992L6.68668 16.9999C6.68398 17 6.68128 17 6.67857 17L6.67071 16.9992L0.392857 17C0.199996 17 0.0395934 16.8633 0.00632947 16.6831L0 16.6136L0.00255217 4.59239C-1.99403e-08 1.89318 2.22984 0 5.5 0ZM5.5 0.772727C5.22579 0.772727 4.96381 0.78428 4.71395 0.807422L4.71429 13.1364C4.71429 13.3497 4.5384 13.5227 4.32143 13.5227C4.12857 13.5227 3.96816 13.3861 3.9349 13.2058L3.92857 13.1364L3.92823 0.927019C3.64757 0.988476 3.38592 1.06833 3.14305 1.16666L3.14286 4.25C3.14286 4.46338 2.96697 4.63636 2.75 4.63636C2.55714 4.63636 2.39674 4.49969 2.36347 4.31945L2.35714 4.25L2.35671 1.59544C1.46648 2.23368 0.949131 3.24514 0.785714 4.63636L0.784928 16.2265L2.35714 16.2257V13.9091C2.35714 13.6957 2.53303 13.5227 2.75 13.5227C2.94286 13.5227 3.10326 13.6594 3.13653 13.8396L3.14286 13.9091V16.2257H6.28571V8.11364C6.28571 7.90025 6.4616 7.72727 6.67857 7.72727C6.87143 7.72727 7.03183 7.86395 7.0651 8.04419L7.07143 8.11364V16.2257H8.64286V13.5227C8.64286 13.3093 8.81874 13.1364 9.03571 13.1364C9.22858 13.1364 9.38898 13.273 9.42224 13.4533L9.42857 13.5227V16.2257L10.2143 16.2265L10.2168 4.68033C10.0521 3.26575 9.53426 2.24348 8.64405 1.60016L8.64286 10.4318C8.64286 10.6452 8.46697 10.8182 8.25 10.8182C8.05714 10.8182 7.89674 10.6815 7.86347 10.5013L7.85714 10.4318L7.85799 1.1685C7.61506 1.06955 7.35334 0.98928 7.07261 0.927553L7.07143 3.09091C7.07143 3.30429 6.89554 3.47727 6.67857 3.47727C6.48571 3.47727 6.32531 3.3406 6.29204 3.16036L6.28571 3.09091L6.28659 0.80751C6.10384 0.790542 5.9146 0.779796 5.71883 0.775241L5.5 0.772727ZM2.68553 7.97839L2.8033 7.98404C3.01927 8.00446 3.17753 8.1932 3.15677 8.4056C3.13832 8.5944 2.98464 8.73836 2.79903 8.75368L2.72813 8.75323C2.55269 8.73664 2.38287 8.81933 2.28992 8.9666C2.19697 9.11386 2.19697 9.30023 2.28992 9.44749C2.36959 9.57372 2.50574 9.6525 2.65349 9.66199L2.72813 9.66086C2.9441 9.64045 3.13601 9.79609 3.15677 10.0085C3.17753 10.2209 3.01927 10.4096 2.8033 10.43C2.33052 10.4747 1.87286 10.2519 1.62236 9.85503C1.37187 9.45816 1.37187 8.95593 1.62236 8.55906C1.85198 8.19527 2.25568 7.9777 2.68553 7.97839Z" fill="#3A4757"/>
</svg>