<svg width="20" height="20" viewBox="0 0 20 20" fill="none" xmlns="http://www.w3.org/2000/svg">
<path d="M14.8622 13.2063H5.13776C4.60292 13.2063 4.16532 13.6441 4.16532 14.1792C4.16532 14.7142 4.60292 15.152 5.13776 15.152H14.8622C15.3971 15.152 15.8347 14.7142 15.8347 14.1792C15.8347 13.6441 15.3971 13.2063 14.8622 13.2063Z" fill="#3A4757"/>
<path d="M17.6418 4.167H15.1378V2.35914C15.1378 1.7349 14.8865 1.13498 14.4489 0.689096C14.0032 0.24321 13.4036 0 12.7796 0H7.22042C6.59643 0 5.99676 0.251317 5.55105 0.689096C5.10535 1.12687 4.86224 1.7349 4.86224 2.35914V4.167H2.35818C1.05348 4.167 0 5.22092 0 6.52614V17.6409C0 18.9461 1.05348 20 2.35818 20H17.6418C18.9465 20 20 18.9461 20 17.6409V6.52614C20 5.22092 18.9465 4.167 17.6418 4.167ZM18.0551 6.52614V17.6409C18.0551 17.8679 17.8687 18.0543 17.6418 18.0543H2.35818C2.13128 18.0543 1.94489 17.8679 1.94489 17.6409V6.52614C1.94489 6.29915 2.13128 6.11269 2.35818 6.11269H17.6418C17.8687 6.11269 18.0551 6.29915 18.0551 6.52614ZM6.80713 2.35914C6.80713 2.24564 6.84765 2.14025 6.92869 2.06729C7.00972 1.99433 7.11507 1.94568 7.22042 1.94568H12.7796C12.893 1.94568 12.9984 1.98622 13.0713 2.06729C13.1523 2.14836 13.1929 2.25375 13.1929 2.35914V4.167H6.79903V2.35914H6.80713Z" fill="#3A4757"/>
<path d="M14.8622 9.03121H5.13776C4.60292 9.03121 4.16532 9.46899 4.16532 10.0041C4.16532 10.5391 4.60292 10.9769 5.13776 10.9769H14.8622C15.3971 10.9769 15.8347 10.5391 15.8347 10.0041C15.8347 9.46899 15.3971 9.03121 14.8622 9.03121Z" fill="#3A4757"/>
</svg>