<svg width="20" height="20" viewBox="0 0 20 20" fill="none" xmlns="http://www.w3.org/2000/svg">
<path fill-rule="evenodd" clip-rule="evenodd" d="M13.527 2.16667V4.25H15.0207V5C14.9378 5.41667 14.6058 5.75 14.1909 5.75H5.72614C5.3112 5.75 4.97925 5.41667 4.97925 5V4.25H6.39004V2.16667C6.39004 1.91667 6.47303 1.75 6.639 1.66667C6.72199 1.5 6.88797 1.41667 7.13693 1.41667H12.7801C13.029 1.41667 13.195 1.5 13.278 1.66667C13.444 1.83333 13.527 2 13.527 2.16667ZM4.97925 4.25V2.16667C4.97925 1.58333 5.22822 1.08333 5.64315 0.666667C5.9751 0.25 6.55602 0 7.13693 0H12.8631C13.444 0 13.9419 0.25 14.3568 0.666667C14.7718 1.08333 15.0207 1.58333 15.0207 2.16667V4.25H17.7593C18.9212 4.25 19.917 5.25 20 6.41667V17.8333C20 19 19.0041 20 17.8423 20H2.15768C0.995851 20 0 19 0 17.8333V6.41667C0 5.25 0.995851 4.25 2.15768 4.25H4.97925ZM4.97925 15H14.9378C15.3527 15 15.6846 14.6667 15.6846 14.25C15.6846 13.8333 15.3527 13.5 14.9378 13.5H4.97925C4.56431 13.5 4.23236 13.8333 4.23236 14.25C4.23236 14.6667 4.56431 15 4.97925 15ZM4.97925 10.75H14.9378C15.3527 10.75 15.6846 10.4167 15.6846 10C15.6846 9.58333 15.3527 9.25 14.9378 9.25H4.97925C4.56431 9.25 4.23236 9.58333 4.23236 10C4.23236 10.4167 4.56431 10.75 4.97925 10.75Z" fill="#3A4757"/>
<path d="M5.72614 5.75H14.1909C14.6058 5.75 14.9378 5.41667 15.0207 5V4.25H13.527H6.39004H4.97925V5C4.97925 5.41667 5.3112 5.75 5.72614 5.75Z" fill="#3A4757"/>
</svg>