<svg width="20" height="20" viewBox="0 0 20 20" fill="none" xmlns="http://www.w3.org/2000/svg">
<path d="M3.17049 19.98C2.57853 19.98 1.97654 19.7602 1.51501 19.3107L0.732423 18.5615C0.270896 18.1219 0 17.5226 0 16.8732C0 16.2239 0.240796 15.6245 0.702323 15.165L7.69545 8.20218C7.42456 7.39302 7.33426 6.52392 7.41452 5.67479C7.52489 4.506 7.95632 3.39715 8.66867 2.46811C9.38103 1.53906 10.3442 0.819807 11.4479 0.41023C12.5515 -0.00933649 13.7455 -0.109233 14.8993 0.120529C15.2805 0.230416 15.5414 0.380261 15.7722 0.580055C15.9929 0.779848 16.1735 1.02959 16.2939 1.3093C16.4544 1.67892 16.3641 2.11847 16.0732 2.39818L13.294 5.16532C13.2338 5.23525 13.1936 5.32515 13.1936 5.42505C13.1936 5.52495 13.2338 5.62484 13.304 5.69477L14.3073 6.59384C14.3976 6.68375 14.4378 6.71372 14.4879 6.7337C14.5883 6.77366 14.6986 6.77366 14.7889 6.7337C14.8391 6.71372 14.8792 6.68375 14.9193 6.64379L17.7086 3.86666C18.0397 3.537 18.5413 3.47706 18.9427 3.71682C19.1935 3.86666 19.4042 4.06645 19.5647 4.30621C19.7252 4.53597 19.8356 4.80569 19.8858 5.0854C20.1065 6.22423 20.0062 7.40301 19.5948 8.49188C19.1835 9.58076 18.4811 10.5298 17.5581 11.239C16.635 11.9483 15.5314 12.3879 14.3776 12.5177C13.5548 12.6076 12.7321 12.5277 11.9495 12.3079L4.84603 19.3007C4.37447 19.7602 3.77248 20 3.16045 20L3.17049 19.98ZM13.6451 1.99859C13.1535 1.99859 12.6418 2.0885 12.1502 2.26831C11.3977 2.54802 10.7455 3.03752 10.2639 3.66687C9.78236 4.29622 9.48136 5.05543 9.41113 5.85461C9.3409 6.59384 9.47133 7.34307 9.78236 8.02237C9.95292 8.40198 9.87265 8.85151 9.58169 9.14121L2.12704 16.5635C2.0267 16.6634 2.01667 16.7833 2.01667 16.8433C2.01667 16.9032 2.03674 17.0231 2.13707 17.123L2.91966 17.8622C3.07015 18.0121 3.31095 18.0021 3.46145 17.8622L11.0064 10.4299C11.2974 10.1502 11.7188 10.0603 12.09 10.2201C12.7522 10.4898 13.4746 10.5897 14.1869 10.5198C14.9795 10.4399 15.722 10.1402 16.3541 9.65069C16.9761 9.17118 17.4577 8.52185 17.7387 7.78262C17.9092 7.34307 17.9995 6.87355 18.0096 6.40404L16.3641 8.04235C16.1534 8.26212 15.8825 8.44194 15.5916 8.5718C14.9996 8.82154 14.3174 8.82154 13.7154 8.5718C13.4244 8.45193 13.1535 8.27211 12.9328 8.03236L11.9295 7.14328C11.4378 6.65378 11.197 6.0544 11.197 5.43504C11.197 4.81568 11.4378 4.2163 11.8793 3.76676L13.6552 1.99859H13.6451Z" fill="#3A4757"/>
</svg>