<svg width="21" height="20" viewBox="0 0 21 20" fill="none" xmlns="http://www.w3.org/2000/svg">
<path d="M3.67049 19.98C3.07853 19.98 2.47654 19.7602 2.01501 19.3107L1.23242 18.5615C0.770896 18.1219 0.5 17.5226 0.5 16.8732C0.5 16.2239 0.740796 15.6245 1.20232 15.165L8.19545 8.20218C7.92456 7.39302 7.83426 6.52392 7.91452 5.67479C8.02489 4.506 8.45632 3.39715 9.16867 2.46811C9.88103 1.53906 10.8442 0.819807 11.9479 0.41023C13.0515 -0.00933649 14.2455 -0.109233 15.3993 0.120529C15.7805 0.230416 16.0414 0.380261 16.2722 0.580055C16.4929 0.779848 16.6735 1.02959 16.7939 1.3093C16.9544 1.67892 16.8641 2.11847 16.5732 2.39818L13.794 5.16532C13.7338 5.23525 13.6936 5.32515 13.6936 5.42505C13.6936 5.52495 13.7338 5.62484 13.804 5.69477L14.8073 6.59384C14.8976 6.68375 14.9378 6.71372 14.9879 6.7337C15.0883 6.77366 15.1986 6.77366 15.2889 6.7337C15.3391 6.71372 15.3792 6.68375 15.4193 6.64379L18.2086 3.86666C18.5397 3.537 19.0413 3.47706 19.4427 3.71682C19.6935 3.86666 19.9042 4.06645 20.0647 4.30621C20.2252 4.53597 20.3356 4.80569 20.3858 5.0854C20.6065 6.22423 20.5062 7.40301 20.0948 8.49188C19.6835 9.58076 18.9811 10.5298 18.0581 11.239C17.135 11.9483 16.0314 12.3879 14.8776 12.5177C14.0548 12.6076 13.2321 12.5277 12.4495 12.3079L5.34603 19.3007C4.87447 19.7602 4.27248 20 3.66045 20L3.67049 19.98ZM14.1451 1.99859C13.6535 1.99859 13.1418 2.0885 12.6502 2.26831C11.8977 2.54802 11.2455 3.03752 10.7639 3.66687C10.2824 4.29622 9.98136 5.05543 9.91113 5.85461C9.8409 6.59384 9.97133 7.34307 10.2824 8.02237C10.4529 8.40198 10.3727 8.85151 10.0817 9.14121L2.62704 16.5635C2.5267 16.6634 2.51667 16.7833 2.51667 16.8433C2.51667 16.9032 2.53674 17.0231 2.63707 17.123L3.41966 17.8622C3.57015 18.0121 3.81095 18.0021 3.96145 17.8622L11.5064 10.4299C11.7974 10.1502 12.2188 10.0603 12.59 10.2201C13.2522 10.4898 13.9746 10.5897 14.6869 10.5198C15.4795 10.4399 16.222 10.1402 16.8541 9.65069C17.4761 9.17118 17.9577 8.52185 18.2387 7.78262C18.4092 7.34307 18.4995 6.87355 18.5096 6.40404L16.8641 8.04235C16.6534 8.26212 16.3825 8.44194 16.0916 8.5718C15.4996 8.82154 14.8174 8.82154 14.2154 8.5718C13.9244 8.45193 13.6535 8.27211 13.4328 8.03236L12.4295 7.14328C11.9378 6.65378 11.697 6.0544 11.697 5.43504C11.697 4.81568 11.9378 4.2163 12.3793 3.76676L14.1552 1.99859H14.1451Z" fill="#3A4757"/>
</svg>